<svg width="345" height="387" viewBox="0 0 345 387" fill="none" xmlns="http://www.w3.org/2000/svg">
<g opacity="0.5">
<path d="M323.751 311.634C324.568 311.17 325.558 311.428 326.06 312.237C326.54 313.033 326.285 314.023 325.509 314.517C324.703 315.022 323.63 314.739 323.208 313.952C322.722 313.118 322.939 312.139 323.751 311.634Z" fill="#684DF4"/>
<path d="M198.789 347.335C199.499 346.83 200.55 347.192 201.052 347.906C201.447 348.676 201.252 349.774 200.481 350.171C199.647 350.66 198.657 350.405 198.111 349.661C197.716 348.888 197.957 347.821 198.789 347.335Z" fill="#684DF4"/>
<path d="M202.204 371.875C203.002 371.431 204.025 371.645 204.395 372.402C204.966 373.156 204.62 374.281 203.888 374.769C203.04 375.184 202.023 374.972 201.597 374.185C201.137 373.368 201.4 372.32 202.204 371.875Z" fill="#684DF4"/>
<path d="M120.377 376.142C121.211 375.651 122.198 375.906 122.64 376.712C123.139 377.425 122.974 378.473 122.067 378.978C121.359 379.48 120.292 379.239 119.82 378.481C119.362 377.604 119.617 376.608 120.377 376.142Z" fill="#684DF4"/>
<path d="M116.948 304.505C117.656 304.003 118.624 304.307 119.17 305.048C119.631 305.923 119.414 306.944 118.567 307.358C117.782 307.876 116.792 307.618 116.378 306.771C115.832 306.03 116.117 304.993 116.948 304.505Z" fill="#684DF4"/>
<path d="M215.175 125.935C214.404 126.428 213.326 126.113 212.761 125.295C212.424 124.53 212.575 123.504 213.409 123.013C214.212 122.572 215.23 122.786 215.688 123.562C216.231 124.404 215.96 125.416 215.175 125.935Z" fill="#684DF4"/>
<path d="M296.8 109.41C297.242 110.211 296.987 111.204 296.263 111.73C295.382 112.188 294.438 111.961 293.923 111.173C293.462 110.394 293.689 109.349 294.46 108.856C295.291 108.367 296.328 108.655 296.8 109.41Z" fill="#684DF4"/>
<path d="M285.256 53.537C284.438 54.0006 283.402 53.7126 282.927 52.9555C282.441 52.127 282.713 51.1121 283.47 50.6375C284.348 50.1767 285.338 50.4373 285.739 51.2108C286.268 51.9762 285.983 53.0103 285.256 53.537Z" fill="#684DF4"/>
<path d="M227.374 315.225C227.021 314.484 227.248 313.442 227.989 312.992C228.823 312.503 229.871 312.764 230.362 313.499C230.864 314.308 230.576 315.345 229.747 315.836C229.034 316.336 227.967 316.094 227.374 315.225Z" fill="#684DF4"/>
<path d="M98.751 254.406C99.3463 255.177 98.987 256.23 98.1805 256.672C97.4261 257.144 96.3728 256.976 95.9147 256.101C95.399 255.314 95.698 254.354 96.5319 253.866C97.3329 253.421 98.2957 253.531 98.751 254.406Z" fill="#684DF4"/>
<path d="M76.8814 236.784C76.0475 237.273 75.0435 236.943 74.6019 236.14C74.1273 235.38 74.3385 234.362 75.1423 233.918C75.946 233.476 77.0076 233.715 77.4081 234.488C77.9293 235.278 77.5918 236.285 76.8814 236.784Z" fill="#684DF4"/>
<path d="M116.173 186.226C115.356 186.69 114.305 186.426 113.861 185.625C113.359 184.816 113.661 183.851 114.401 183.307C115.235 182.915 116.195 183.124 116.714 183.908C117.218 184.72 116.898 185.699 116.173 186.226Z" fill="#684DF4"/>
<path d="M121.434 223.864C121.892 224.643 121.604 225.677 120.908 226.16C120.076 226.645 119.026 226.385 118.568 225.603C118.019 224.761 118.357 223.757 119.108 223.288C119.939 222.797 120.957 223.104 121.434 223.864Z" fill="#684DF4"/>
<path d="M87.467 283.545C88.3256 283.013 89.2884 283.314 89.8069 284.104C90.3253 284.892 89.9934 285.898 89.2391 286.368C88.4052 286.859 87.3683 286.57 86.8965 285.813C86.485 284.966 86.7373 283.975 87.467 283.545Z" fill="#684DF4"/>
<path d="M64.2695 215.02C63.4959 215.415 62.5221 215.237 62.0009 214.447C61.4687 213.585 61.7568 212.647 62.5605 212.11C63.3011 211.657 64.4121 211.931 64.8537 212.732C65.3146 213.511 65.043 214.521 64.2695 215.02Z" fill="#684DF4"/>
<path d="M40.77 322.346C40.2707 321.635 40.5862 320.554 41.3131 320.124C42.1909 319.668 43.151 319.973 43.6557 320.686C44.1769 321.471 43.8861 322.505 43.0989 323.023C42.3253 323.421 41.3049 323.21 40.77 322.346Z" fill="#684DF4"/>
<path d="M329.867 141.87C329.395 141.113 329.639 140.046 330.382 139.596C331.213 139.11 332.308 139.404 332.659 140.144C333.224 140.962 333.013 141.98 332.179 142.468C331.375 142.912 330.358 142.701 329.867 141.87Z" fill="#684DF4"/>
<path d="M328.122 97.6367C327.62 96.8274 327.968 95.7988 328.662 95.3187C329.538 94.8606 330.547 95.0965 331.002 95.8756C331.447 96.6766 331.233 97.697 330.404 98.188C329.631 98.6818 328.599 98.3938 328.122 97.6367Z" fill="#684DF4"/>
<path d="M249.69 2.54009C249.13 1.72538 249.459 0.718645 250.249 0.298945C251.05 -0.241452 252.007 -0.0384567 252.542 0.825631C253.091 1.56628 252.685 2.58672 251.898 3.10517C251.141 3.57974 250.15 3.32188 249.69 2.54009Z" fill="#684DF4"/>
<path d="M169.874 93.694C169.416 92.9177 169.597 91.8424 170.442 91.4282C171.171 90.9043 172.266 91.1978 172.727 91.9796C173.185 92.7614 172.957 93.801 172.154 94.2454C171.383 94.7364 170.272 94.4676 169.874 93.694Z" fill="#684DF4"/>
<path d="M221.935 76.0364C221.433 75.2272 221.661 74.1821 222.478 73.7185C223.246 73.2247 224.33 73.5402 224.758 74.2671C225.246 75.0983 224.985 76.0913 224.171 76.5576C223.403 77.0514 222.382 76.8402 221.935 76.0364Z" fill="#684DF4"/>
<path d="M104.166 344.764C104.97 344.323 106.018 344.49 106.506 345.321C106.978 346.078 106.717 347.068 105.933 347.587C105.055 348.048 104.081 347.861 103.562 347.074C103.121 346.273 103.464 345.146 104.166 344.764Z" fill="#684DF4"/>
<path d="M94.9166 138.764C95.6298 138.262 96.6612 138.55 97.1797 139.338C97.6378 140.117 97.3224 141.099 96.5817 141.65C95.7176 142.084 94.7137 141.848 94.3159 141.077C93.792 140.29 94.0224 139.247 94.9166 138.764Z" fill="#684DF4"/>
<path d="M67.3011 157.006C68.0554 156.534 69.1197 156.772 69.5696 157.573C70.0716 158.385 69.7946 159.398 69.0841 159.902C68.2502 160.391 67.2325 160.078 66.8018 159.351C66.3465 158.572 66.4644 157.491 67.3011 157.006Z" fill="#684DF4"/>
<path d="M153.513 354.641C153.068 353.843 153.406 352.836 154.116 352.331C154.947 351.846 155.91 352.147 156.426 352.935C156.914 353.766 156.642 354.682 155.781 355.217C155.019 355.686 153.984 355.401 153.513 354.641Z" fill="#684DF4"/>
<path d="M204.006 149.553C202.626 150.392 200.87 149.926 200.108 148.626C199.713 147.951 199.641 147.166 199.767 146.475L175.551 138.004C175.335 138.542 174.934 138.956 174.355 139.255C173 140.048 171.338 139.639 170.471 138.303C169.676 136.951 170.103 135.204 171.409 134.381C172.825 133.596 174.608 134.013 175.387 135.39C175.858 136.051 175.867 136.83 175.71 137.565L199.954 145.984C200.234 145.46 200.585 145.016 201.016 144.648C202.412 143.883 204.23 144.357 205.007 145.732C205.819 147.065 205.314 148.73 204.006 149.553Z" fill="#684DF4"/>
<path d="M357.22 243.206C355.87 243.999 354.129 243.607 353.314 242.241C352.894 241.549 352.826 240.768 352.96 240.112L328.738 231.608C328.527 232.179 328.105 232.579 327.605 232.897C326.239 233.718 324.492 233.287 323.677 231.921C322.898 230.544 323.359 228.851 324.665 228.028C326.009 227.195 327.784 227.675 328.557 229.01C328.947 229.65 329.054 230.426 328.889 231.125L353.179 239.577C353.391 239.102 353.742 238.655 354.285 238.362C355.607 237.517 357.371 237.923 358.172 239.316C359.003 240.661 358.559 242.43 357.22 243.206Z" fill="#684DF4"/>
<path d="M373.854 372.466C372.488 373.28 370.746 372.795 369.97 371.517C369.542 370.883 369.421 370.035 369.622 369.328L345.353 360.892C345.139 361.364 344.758 361.855 344.215 362.149C342.923 362.947 341.099 362.536 340.344 361.175C339.513 359.834 339.96 358.094 341.329 357.28C342.643 356.498 344.355 356.934 345.175 358.237C345.589 358.989 345.688 359.729 345.537 360.401L369.803 368.837C369.984 368.313 370.368 367.92 370.919 367.569C372.255 366.798 373.994 367.188 374.811 368.557C375.634 369.928 375.193 371.698 373.854 372.466Z" fill="#684DF4"/>
<path d="M33.9803 289.247C32.6746 290.067 30.8723 289.669 30.0329 288.292C29.6517 287.593 29.5666 286.83 29.712 286.021L5.40807 277.687C5.2956 278.258 4.78811 278.636 4.36019 279.001C2.94748 279.695 1.21657 279.278 0.475932 277.956C-0.410093 276.543 -0.0260371 274.862 1.35375 274.028C2.75273 273.263 4.47814 273.674 5.3916 275.043C5.69608 275.756 5.81128 276.472 5.65492 277.207L29.8547 285.601C30.1454 285.146 30.502 284.603 31.1412 284.312C32.2713 283.569 34.1147 283.994 34.9568 285.379C35.6838 286.624 35.2119 288.44 33.9803 289.247Z" fill="#684DF4"/>
<path d="M127.273 357.012C128.68 356.126 130.332 356.56 131.143 357.986C131.997 359.248 131.522 361.064 130.145 361.903C128.806 362.773 127.095 362.238 126.285 360.812C125.358 359.566 125.918 357.805 127.273 357.012Z" fill="#684DF4"/>
<path d="M138.745 226.72C137.494 224.589 134.674 223.881 132.504 225.143C132.148 225.395 131.821 225.697 131.511 225.977L97.3651 198.74C100.243 195.3 100.81 190.365 98.3718 186.303C95.2749 181.17 88.6119 179.544 83.5481 182.588C78.4102 185.65 76.7342 192.283 79.8476 197.39C82.9172 202.471 89.5774 204.193 94.5809 201.047C95.5794 200.498 96.3776 199.865 96.9975 199.108L131.171 226.404C130.436 227.532 130.181 228.912 130.439 230.201L52.4851 256.121C52.4549 255.97 52.4412 255.896 52.3754 255.792C51.5826 254.442 49.8106 254 48.461 254.793C47.1113 255.589 46.6944 257.314 47.5173 258.623C48.3266 260.049 50.0657 260.537 51.418 259.739C52.5016 258.963 52.9816 257.731 52.7018 256.584L130.76 230.7C130.804 230.922 130.806 231.117 130.974 231.356C132.318 233.55 135.047 234.198 137.217 232.939C139.313 231.589 140.026 228.805 138.745 226.72ZM96.9893 198.424L94.9512 196.812C97.0195 194.521 97.4529 191.172 95.7631 188.429C93.7771 185.054 89.5006 184.007 86.1293 186.031C82.7745 188.031 81.7733 192.335 83.773 195.698C85.7261 199.023 90.0026 200.065 93.3629 198.062C93.8539 197.805 94.1913 197.475 94.548 197.127L96.6163 198.795C96.021 199.505 95.1981 200.092 94.3779 200.655C89.4759 203.549 83.2024 202.013 80.3194 197.143C77.3624 192.294 78.9204 185.938 83.773 183.016C88.6777 180.128 94.9649 181.642 97.8945 186.536C100.232 190.368 99.7023 195.138 96.9893 198.424Z" fill="#684DF4"/>
<path d="M160.719 383.057C162.686 386.458 166.979 387.577 170.292 385.55C173.529 383.537 174.673 379.197 172.723 375.873C172.127 374.904 171.414 374.122 170.528 373.609L219.103 292.031C219.975 292.47 221.007 292.465 221.808 291.927C222.121 291.743 222.406 291.505 222.595 291.217L250.248 303.393C249.903 305.069 250.119 306.913 251.071 308.564C253.093 311.84 257.444 312.964 260.733 310.918C264.054 308.929 265.133 304.639 263.133 301.284C263.045 301.128 262.919 300.919 262.793 300.774L295.26 275.208C296.931 277.196 299.929 277.726 302.26 276.316C303.199 275.767 303.931 274.988 304.323 274.086L351.916 295.625C350.825 298.195 350.934 301.193 352.454 303.756C355.076 308.032 360.552 309.406 364.864 306.833C369.135 304.271 370.528 298.714 367.963 294.44C365.423 290.182 359.874 288.827 355.592 291.354C353.993 292.275 352.846 293.653 352.128 295.148L304.557 273.625C305.163 272.053 305.072 270.256 304.134 268.687C302.579 266.131 299.224 265.302 296.623 266.83C293.957 268.41 293.151 271.776 294.646 274.423C294.769 274.533 294.835 274.673 294.934 274.769L262.436 300.381C261.032 298.73 258.895 297.756 256.736 297.866L253.696 263.245C254.053 263.19 254.278 263.045 254.561 262.908C255.762 262.145 256.223 260.644 255.718 259.35L299.945 236.376C301.564 238.845 304.847 239.624 307.393 238.129C309.993 236.505 310.833 233.128 309.288 230.517C307.711 227.944 304.395 227.11 301.813 228.552L288.353 180.918C288.707 180.762 289.006 180.605 289.406 180.38C292.037 178.811 292.926 175.465 291.247 172.798C289.692 170.146 286.331 169.38 283.714 170.925C282.661 171.462 281.937 172.376 281.545 173.374L257.734 163.787C258.154 162.643 258.036 161.25 257.378 160.078C256.078 157.917 253.258 157.212 251.165 158.553C249.351 159.563 248.611 161.593 249.052 163.483L239.441 166.503C239.331 166.27 239.301 166.025 239.073 165.784C237.836 163.628 234.972 162.89 232.92 164.259C230.75 165.521 230.108 168.286 231.315 170.387C232.311 172.126 234.415 172.949 236.215 172.45L239.786 184.775C239.608 184.849 239.306 185.011 239.087 185.156C236.857 186.407 236.113 189.139 237.57 191.342C238.796 193.523 241.555 194.123 243.709 192.886C245.418 191.841 246.142 189.839 245.788 188.001L281.38 177.484C281.427 177.805 281.627 178.191 281.808 178.504C282.496 179.626 283.569 180.449 284.677 180.819L265.884 227.946L247.02 225.203C247.223 223.502 246.83 221.736 245.958 220.205C243.698 216.455 238.777 215.218 235.095 217.52C231.667 219.539 230.38 223.686 231.798 227.247L198.906 241.536C198.766 241.058 198.519 240.545 198.258 240.15C196.95 238.014 194.78 236.796 192.432 236.749L192.448 226.63C193.181 226.591 193.823 226.298 194.475 225.985C196.612 224.671 197.312 221.909 196.017 219.75C194.763 217.618 191.987 216.938 189.908 218.257C188.616 218.96 187.898 220.167 187.689 221.475L176.996 220.606C176.955 219.774 176.752 218.902 176.338 218.153C175.087 216.022 172.207 215.306 170.128 216.625C167.974 217.863 167.258 220.647 168.526 222.756C169.883 224.923 172.629 225.65 174.769 224.336C174.87 224.273 175.052 224.196 175.139 224.062L187.409 238.628C185.944 240.09 185.132 242.134 185.174 244.153L151.027 240.973C151.079 240.493 150.876 240.008 150.665 239.55C149.752 238.184 148.084 237.775 146.688 238.538C145.366 239.382 144.954 241.111 145.777 242.515C146.249 243.269 147.036 243.752 147.886 243.821L147.9 253.995C147.14 253.984 146.542 254.206 145.873 254.544C143.794 255.863 143.081 258.645 144.392 260.787C145.599 262.888 148.432 263.571 150.572 262.356C151.905 261.489 152.668 260.123 152.728 258.645L161.462 258.565C161.465 258.76 161.586 258.966 161.649 259.171C162.107 259.95 163.094 260.206 163.978 259.747C164.699 259.223 164.99 258.283 164.545 257.484C164.057 256.65 163.023 256.368 162.219 256.906C161.745 257.144 161.588 257.589 161.457 258.085L152.766 258.189C152.731 257.462 152.495 256.724 152.16 256.157C151.381 254.78 149.892 254.006 148.471 254.014L148.394 243.834C148.816 243.788 149.261 243.689 149.617 243.442C150.424 242.998 150.89 242.276 150.989 241.437L185.209 244.603C185.396 245.593 185.711 246.501 186.274 247.417C187.267 249.057 188.912 250.19 190.635 250.605L166.466 372.52C165.256 372.504 164.106 372.786 163.056 373.519C159.772 375.499 158.659 379.79 160.719 383.057ZM196.223 249.631C196.552 249.326 196.832 249.093 197.169 248.767L224.57 274.61L221.627 286.946C220.845 286.57 219.948 286.564 219.142 286.811L196.223 249.631ZM199.295 243.423L262.041 237.536L255.88 253.051C251.532 254.793 247.289 256.472 243.627 258.052L199.065 245.461C199.279 244.83 199.284 244.029 199.295 243.423ZM250.317 259.926L244.345 258.23C247.876 256.856 251.669 255.276 255.644 253.707L253.974 257.767C253.205 257.457 252.355 257.583 251.582 257.978C250.945 258.466 250.443 259.138 250.317 259.926ZM262.639 237.506L299.068 234.105C299.136 234.596 299.265 235.037 299.476 235.46C291.093 238.856 272.706 246.268 256.489 252.807L262.639 237.506ZM262.812 236.944L266.23 228.517L299.037 233.306C299.059 233.419 299.024 233.526 299.062 233.614L262.812 236.944ZM299.685 235.981L255.441 258.881C255.213 258.538 254.805 258.176 254.429 257.962L256.275 253.438C272.695 246.775 291.239 239.333 299.679 235.942C299.677 235.942 299.677 235.942 299.685 235.981ZM250.27 261.083L230.04 264.208C230.084 264.142 229.903 264.024 229.93 263.98C233.299 262.757 238.031 260.814 243.561 258.551L250.207 260.4C250.284 260.675 250.303 260.847 250.27 261.083ZM224.751 266.306C225.176 266.937 225.648 267.305 226.276 267.521L224.677 274.045L197.493 248.369C198.11 247.612 198.579 246.789 198.9 245.903L242.746 258.313C237.076 260.612 232.457 262.466 229.733 263.591C229.744 263.467 229.716 263.418 229.667 263.388C228.814 262.03 227.105 261.594 225.843 262.447C224.414 263.256 223.901 264.946 224.751 266.306ZM192.001 236.722C190.822 236.76 189.686 237.117 188.589 237.723C188.367 237.961 188.087 238.101 187.771 238.282L175.485 223.738C176.418 223.094 176.84 222.145 176.994 221.113L187.67 222.007C187.607 222.803 187.769 223.648 188.328 224.46C189.154 225.768 190.506 226.553 191.96 226.597L192.001 236.722ZM246.545 225.148L242.033 224.468C242.011 223.908 241.931 223.343 241.627 222.819C240.76 221.483 239.106 221.056 237.743 221.87C236.536 222.537 236.072 223.939 236.464 225.222L232.311 227.06C230.896 223.694 232.226 219.862 235.301 217.904C238.865 215.786 243.443 216.957 245.547 220.449C246.342 221.898 246.841 223.604 246.545 225.148ZM232.358 227.477L236.689 225.661C236.678 225.686 236.662 225.705 236.769 225.744C237.562 227.093 239.303 227.584 240.606 226.758C241.276 226.328 241.701 225.672 241.901 224.964L246.444 225.601C246.076 227.645 244.916 229.529 243.001 230.698C239.435 232.818 234.903 231.677 232.783 228.108C232.635 227.944 232.588 227.721 232.358 227.477ZM265.673 228.38L262.258 236.999L199.15 242.847C199.207 242.564 199.131 242.29 199.037 242.032L232.02 227.705C232.083 227.908 232.177 228.157 232.404 228.407C234.618 232.127 239.526 233.386 243.251 231.112C245.333 229.891 246.564 227.894 247.001 225.733L265.673 228.38ZM249.255 163.968C249.393 164.253 249.445 164.476 249.607 164.709C250.067 165.491 250.685 166.025 251.39 166.418L242.987 184.789C242.145 184.404 241.191 184.394 240.34 184.613L236.725 172.359C237.04 172.274 237.276 172.104 237.542 171.989C239.312 170.856 240.11 168.93 239.611 167.029L249.255 163.968ZM281.311 173.83C281.023 174.867 280.886 175.871 281.166 176.921L245.61 187.488C245.53 187.213 245.451 186.934 245.272 186.722C244.812 185.941 244.192 185.408 243.489 185.013L251.845 166.613C253.033 167.062 254.511 166.964 255.803 166.259C256.607 165.817 257.21 165.082 257.575 164.322L281.311 173.83ZM287.782 180.995L301.328 228.849C299.992 229.812 299.188 231.252 299.035 232.826L266.449 228.083L285.239 181.052C286.035 181.209 286.932 181.214 287.782 180.995ZM256.264 297.94C255.285 298.011 254.371 298.384 253.485 298.903C253.016 299.177 252.536 299.572 252.188 299.959L225.116 274.453L226.83 267.659C227.404 267.774 228.062 267.653 228.682 267.286C229.617 266.734 230.147 265.727 230.043 264.693L250.46 261.591C250.52 261.695 250.627 261.824 250.627 261.925C251.176 262.861 252.215 263.344 253.266 263.319L256.264 297.94ZM222.916 290.811C223.369 290.012 223.267 288.885 222.746 287.999C222.579 287.667 222.291 287.415 222.033 287.214L224.987 274.944L251.826 300.269C251.165 301.032 250.674 301.937 250.416 302.828L222.916 290.811ZM170.119 373.343C169.154 372.85 168.073 372.529 167.011 372.485L191.195 250.739C192.66 250.953 194.308 250.703 195.806 249.875L218.757 287.113C217.529 288.021 217.114 289.648 217.935 290.953C218.088 291.214 218.245 291.472 218.587 291.73L200.554 304.038C198.867 301.783 195.765 301.119 193.389 302.601C190.715 304.142 189.84 307.56 191.428 310.265C193.06 312.805 196.36 313.666 199.035 312.117C201.619 310.52 202.461 307.146 200.889 304.515C200.842 304.485 200.875 304.441 200.875 304.441L218.354 292.484L170.119 373.343Z" fill="#684DF4"/>
<path d="M352.407 163.557C353.164 163.727 353.973 163.675 354.675 163.233C356.038 162.479 356.455 160.69 355.663 159.338C354.842 158.032 353.122 157.558 351.751 158.337C350.404 159.168 349.96 160.937 350.807 162.262C351.06 162.715 351.49 163.091 351.929 163.313L335.58 193.663C333.63 192.653 331.279 192.412 329.216 193.257L320.065 172.003C320.156 171.965 320.257 171.902 320.304 171.83C321.703 171.07 322.101 169.271 321.352 167.949C320.499 166.591 318.784 166.152 317.388 166.915C316.066 167.76 315.641 169.51 316.477 170.892C317.078 171.957 318.411 172.469 319.547 172.209L328.753 193.433C328.445 193.559 328.251 193.655 327.998 193.847C324.416 195.989 323.212 200.669 325.357 204.251C327.581 207.85 332.242 209.046 335.857 206.893C339.437 204.751 340.617 200.019 338.428 196.409C337.799 195.388 336.996 194.546 335.989 193.924L352.407 163.557ZM328.95 193.921L330.593 197.819C329.342 198.647 328.945 200.351 329.792 201.676C330.585 203.025 332.319 203.475 333.638 202.633C335.023 201.796 335.427 200.03 334.639 198.716C334.434 198.389 334.17 198.153 333.836 197.874L335.759 194.426C336.65 194.941 337.443 195.745 337.978 196.705C340.013 200.054 338.924 204.457 335.556 206.421C332.193 208.476 327.834 207.412 325.812 204.04C323.766 200.655 324.899 196.244 328.223 194.288C328.462 194.121 328.709 193.989 328.95 193.921ZM335.314 194.168L333.427 197.668C332.7 197.295 331.836 197.245 331.021 197.555L329.37 193.712C331.356 192.977 333.523 193.161 335.314 194.168Z" fill="#684DF4"/>
<path d="M187.202 98.1057C189.218 95.2995 188.738 91.2918 185.899 89.2207C183.531 87.424 180.333 87.594 178.138 89.3853L149.182 54.2595C149.218 54.2156 149.303 54.0811 149.333 54.0345C149.879 53.2966 149.731 52.235 148.993 51.6891C148.252 51.146 147.224 51.3435 146.678 52.0842C146.102 52.7727 146.25 53.8343 147.032 54.4076C147.577 54.8575 148.414 54.8547 148.933 54.4515L177.916 89.5307C177.623 89.8873 177.263 90.1342 177.014 90.5237C175.085 93.0968 175.475 96.7561 177.757 98.8848L174.402 102.168C174.356 102.138 174.326 102.089 174.326 102.089C173.629 101.57 172.512 101.713 171.966 102.451C171.423 103.191 171.615 104.281 172.326 104.774C173.061 105.317 174.079 105.142 174.668 104.431C175.17 103.858 175.146 103.008 174.6 102.36L177.999 99.1042C178.059 99.2057 178.182 99.3182 178.333 99.384C181.109 101.447 185.081 100.876 187.202 98.1057ZM178.053 89.816L180.347 92.5262C180.138 92.6469 179.949 92.8444 179.694 93.0364C178.915 94.1364 179.066 95.6863 180.185 96.6381L177.968 98.6653C175.804 96.6464 175.467 93.212 177.291 90.702C177.524 90.3371 177.834 90.0574 178.053 89.816ZM186.947 97.9082C184.911 100.544 181.224 101.167 178.462 99.181C178.388 99.0987 178.221 98.9616 178.177 98.9287L180.366 96.7479C181.543 97.6119 183.112 97.3733 184.011 96.191C184.878 95.0499 184.631 93.3464 183.487 92.5371C182.582 91.8514 181.458 91.7992 180.583 92.3534L178.352 89.6514C180.443 87.9205 183.504 87.7586 185.753 89.4456C188.428 91.4728 188.996 95.2501 186.947 97.9082Z" fill="#684DF4"/>
<path d="M231.474 347.22C233.572 350.77 238.06 352.081 241.717 350.273L244.548 355.716C243.25 356.481 242.811 358.19 243.626 359.556C244.473 360.881 246.202 361.29 247.499 360.527C248.86 359.674 249.323 357.916 248.531 356.566C247.738 355.408 246.267 354.901 244.967 355.472L242.15 350.103C242.188 349.999 242.312 349.952 242.367 349.922C244.789 348.474 246.084 346.035 246.229 343.429L289.521 343.676C289.548 344.082 289.68 344.521 289.894 344.886C290.67 346.26 292.481 346.693 293.751 345.879C295.139 345.078 295.564 343.328 294.755 341.964C293.976 340.587 292.195 340.206 290.827 341.021C290.056 341.421 289.565 342.324 289.488 343.237L246.215 342.905C246.171 341.586 245.809 340.264 245.028 339.046C242.784 335.271 237.915 334.1 234.143 336.344C230.448 338.511 229.205 343.492 231.474 347.22ZM241.906 349.629L239.794 345.555C240.611 344.987 241.036 344.238 241.08 343.432L245.697 343.407C245.609 345.86 244.276 348.213 242.062 349.538C242.038 349.582 241.991 349.552 241.906 349.629ZM231.839 347.006C229.743 343.459 230.92 338.818 234.436 336.73C237.956 334.58 242.479 335.781 244.704 339.287C245.332 340.403 245.702 341.671 245.73 342.911L241.121 342.875C241.045 342.505 240.946 342.055 240.726 341.657C239.909 340.285 238.131 339.904 236.806 340.713C235.454 341.509 235.04 343.234 235.835 344.587C236.543 345.818 238.096 346.249 239.341 345.772L241.478 349.859C238.085 351.453 233.874 350.26 231.839 347.006Z" fill="#684DF4"/>
<path d="M190.535 176.625C188.261 172.892 183.37 171.613 179.576 173.879C177.13 175.374 175.75 178.082 175.728 180.8L157.947 181.532C157.925 181.162 157.758 180.734 157.557 180.443C156.718 179.061 154.919 178.57 153.703 179.453C152.406 180.251 151.863 181.889 152.548 183.206L148.077 186.119C147.367 185.238 146.259 184.874 145.213 185.096L142.127 174.691C142.204 174.581 142.35 174.551 142.451 174.488C143.864 173.701 144.248 171.923 143.441 170.596C142.602 169.213 140.877 168.802 139.527 169.592C138.202 170.439 137.744 172.134 138.583 173.517C139.179 174.579 140.457 175.092 141.549 174.798L144.796 185.241C144.692 185.301 144.454 185.373 144.41 185.439C143.041 186.253 142.613 188.003 143.348 189.348C144.201 190.708 146.014 191.177 147.235 190.297C148.587 189.504 149.092 187.938 148.373 186.566L152.9 183.656C153.736 184.745 155.371 185.101 156.636 184.347C157.481 183.834 157.876 182.931 158.029 182.098L175.827 181.346C175.884 182.542 176.211 183.719 176.896 184.841C179.11 188.566 184.078 189.828 187.806 187.559C191.58 185.31 192.79 180.375 190.535 176.625ZM190.118 176.965C192.236 180.435 191.007 185.005 187.531 187.087C184.006 189.235 179.478 188.094 177.283 184.544C176.671 183.499 176.361 182.399 176.271 181.247L180.83 181.061C180.942 181.489 181.022 181.856 181.31 182.207C182.073 183.507 183.825 183.971 185.181 183.178C186.47 182.279 186.961 180.635 186.182 179.258C185.312 177.925 183.59 177.511 182.237 178.307C181.392 178.817 180.893 179.681 180.874 180.605L176.265 180.764C176.252 178.213 177.525 175.761 179.853 174.348C183.362 172.219 188.011 173.374 190.118 176.965Z" fill="#684DF4"/>
<path d="M357.917 329.239C355.682 325.503 350.782 324.282 347.016 326.559C344.506 328.048 343.176 330.69 343.17 333.419L325.354 334.16C325.31 333.779 325.197 333.414 324.959 333.035C324.185 331.7 322.419 331.255 321.058 332.111C319.761 332.874 319.352 334.536 319.997 335.825L315.523 338.802C314.809 337.921 313.726 337.507 312.697 337.707L309.49 327.294C309.611 327.212 309.751 327.14 309.902 327.11C311.254 326.315 311.712 324.523 310.868 323.201C310.058 321.868 308.3 321.405 306.95 322.2C305.603 323.031 305.178 324.779 305.955 326.153C306.64 327.179 307.897 327.67 308.999 327.456L312.179 337.913C312.063 337.935 311.959 337.995 311.784 338.072C310.437 338.903 310.017 340.593 310.846 341.937C311.636 343.35 313.413 343.734 314.765 342.938C316.005 342.167 316.463 340.472 315.783 339.194L320.32 336.319C321.138 337.397 322.778 337.693 324.004 336.944C324.846 336.431 325.348 335.565 325.387 334.659L343.228 333.935C343.302 335.112 343.661 336.344 344.309 337.471C346.591 341.237 351.466 342.444 355.21 340.151C358.976 337.904 360.205 333.038 357.917 329.239ZM357.511 329.519C359.662 333.041 358.452 337.625 354.922 339.737C351.408 341.827 346.838 340.694 344.759 337.219C344.152 336.113 343.79 335.043 343.708 333.93L348.248 333.729C348.363 334.092 348.443 334.467 348.659 334.829C349.504 336.149 351.252 336.58 352.609 335.822C353.912 334.964 354.384 333.247 353.589 331.894C352.774 330.525 351.002 330.084 349.639 330.901C348.805 331.392 348.314 332.292 348.289 333.271L343.683 333.43C343.692 330.893 344.956 328.405 347.301 326.973C350.804 324.842 355.372 325.977 357.511 329.519Z" fill="#684DF4"/>
<path d="M53.2142 317.055C57.3645 318.594 61.929 316.416 63.4076 312.359C64.3732 309.577 63.83 306.653 62.1183 304.643L75.5458 292.781C75.8778 293.064 76.2152 293.344 76.5114 293.473C78.075 294.04 79.7126 293.302 80.2036 291.753C80.7715 290.387 80.0473 288.826 78.7114 288.214L80.3847 283.062C81.4518 283.304 82.5847 282.944 83.2183 282.069L92.2514 288.263C92.1636 288.398 92.106 288.491 92.0292 288.702C91.5244 290.173 92.2898 291.766 93.7628 292.274C95.2496 292.853 96.9147 292.071 97.3481 290.614C98.0201 289.188 97.2384 287.52 95.672 286.955C94.5336 286.535 93.2965 286.955 92.5915 287.846L83.5255 281.696C83.5365 281.576 83.5996 281.488 83.7011 281.233C84.2936 279.817 83.5283 278.226 81.9537 277.59C80.5246 277.112 78.9308 277.881 78.4261 279.348C77.8583 280.717 78.5825 282.283 79.9156 282.892L78.2286 287.967C76.772 287.731 75.4032 288.45 74.7915 289.788C74.5199 290.705 74.7394 291.747 75.2441 292.46L61.8275 304.198C61.0211 303.353 59.965 302.602 58.8101 302.105C54.679 300.643 50.0541 302.72 48.5427 306.821C47.012 310.965 49.1873 315.536 53.2142 317.055ZM53.4611 316.575C49.6015 315.094 47.6045 310.842 48.9377 307.007C50.419 303.148 54.764 301.211 58.5825 302.662C59.6495 303.098 60.5986 303.715 61.4435 304.585L57.9351 307.512C57.765 307.276 57.3618 307.01 57.0298 306.93C55.4663 306.36 53.8286 307.1 53.3129 308.691C52.7862 310.09 53.4803 311.698 55.0438 312.266C56.4401 312.787 58.1518 312.033 58.6867 310.518C58.9802 309.676 58.8732 308.642 58.2972 307.945L61.7946 304.944C63.4021 306.826 64.0056 309.657 62.9687 312.142C61.6547 316.049 57.2795 318.026 53.4611 316.575Z" fill="#684DF4"/>
<path d="M288.255 63.462C282.763 54.3959 270.93 51.4306 261.91 56.8894C252.82 62.3702 249.917 74.152 255.338 83.2373C256.388 84.9846 257.678 86.4632 259.159 87.747L242.467 107.199C239.074 103.803 233.634 102.966 229.3 105.586C224.22 108.652 222.533 115.304 225.687 120.445C228.664 125.465 235.294 127.138 240.421 124.102C242.961 122.566 244.607 120.132 245.309 117.469L269.448 120.804C269.308 121.326 269.435 121.921 269.75 122.417C270.546 123.77 272.334 124.192 273.67 123.419C274.976 122.596 275.45 120.879 274.671 119.499C273.818 118.146 272.079 117.749 270.743 118.522C270.027 118.928 269.602 119.584 269.446 120.319L245.441 116.972C245.89 114.402 245.545 111.667 244.033 109.239C243.74 108.696 243.359 108.093 242.89 107.629L259.524 88.0761C265.52 93.0988 274.435 94.0342 281.639 89.7769C290.776 84.3318 293.645 72.4979 288.255 63.462ZM244.873 116.865L239.943 116.234C240.05 115.274 239.801 114.372 239.299 113.467C239.099 113.176 238.811 112.83 238.583 112.583L242.544 107.983C242.953 108.441 243.301 108.99 243.666 109.516C245.095 111.865 245.424 114.427 244.873 116.865ZM242.154 107.574L238.169 112.224C236.753 111.14 234.792 110.992 233.127 111.966C231.017 113.236 230.288 116.04 231.552 118.149C232.866 120.289 235.612 121.016 237.749 119.699C238.898 119.03 239.628 117.9 239.869 116.739L244.799 117.37C244.217 119.949 242.508 122.182 240.146 123.638C235.228 126.554 228.911 124.985 226.058 120.174C223.128 115.28 224.741 108.932 229.531 106.03C233.717 103.539 238.887 104.291 242.154 107.574ZM287.78 63.7007C293.094 72.5555 290.26 84.0328 281.411 89.3462C274.441 93.5322 265.784 92.5996 259.771 87.6948L265.899 80.645C268.708 82.952 272.869 83.3744 276.169 81.3692C280.536 78.8043 281.894 73.2522 279.313 69.0031C276.767 64.7101 271.124 63.2947 266.862 65.8979C262.58 68.4243 261.318 74.034 263.817 78.2969C264.278 79.0787 264.867 79.7452 265.427 80.2774L259.45 87.3931C257.968 86.1093 256.772 84.6829 255.722 82.9437C250.365 74.056 253.311 62.5924 262.119 57.2543C270.902 51.9628 282.484 54.8239 287.78 63.7007Z" fill="#684DF4"/>
</g>
</svg>
