<svg width="194" height="46" viewBox="0 0 194 46" fill="none" xmlns="http://www.w3.org/2000/svg">
<path d="M21.8637 29.735L10.4944 34.1078L20.1145 42.8534L31.9211 38.0434L21.8637 29.735Z" fill="white"/>
<mask id="mask0_1405_29" style="mask-type:luminance" maskUnits="userSpaceOnUse" x="7" y="28" width="29" height="18">
<path d="M8.77204 31.9357L18.9963 28.4504L32.3559 40.1349C33.1664 40.8443 34.3991 40.7624 35.1085 39.9509C35.3435 39.6818 35.4914 39.367 35.5552 39.0405H35.5573C35.4403 39.7254 34.9617 40.3253 34.2576 40.5635L20.8767 45.1252L20.8756 45.1231C20.2385 45.338 19.5078 45.2178 18.9654 44.7434L8.19664 35.3254C7.90628 35.0988 7.67548 34.7883 7.54892 34.4128C7.20219 33.3907 7.74993 32.2814 8.77204 31.9357ZM22.3827 31.4231L13.2285 34.5436L20.6831 41.0634L29.8055 37.9535L22.3827 31.4231Z" fill="white"/>
</mask>
<g mask="url(#mask0_1405_29)">
<path d="M35.557 28.4493H7.2019V45.339H35.557V28.4493Z" fill="#684DF4"/>
<g filter="url(#filter0_f_1405_29)">
<path d="M28.4798 19.2403L11.3689 27.6215L19.354 39.3552L37.6057 30.974L28.4798 19.2403Z" fill="#1C1C25" fill-opacity="0.33"/>
</g>
<g filter="url(#filter1_f_1405_29)">
<path d="M38.9752 27.9859L21.8643 36.3671L29.8494 48.1008L48.101 39.7196L38.9752 27.9859Z" fill="#1C1C25" fill-opacity="0.33"/>
</g>
</g>
<path d="M28.4233 2.18637L15.7422 6.55917L26.2369 16.1793L38.0435 10.4947L28.4233 2.18637Z" fill="white"/>
<mask id="mask1_1405_29" style="mask-type:luminance" maskUnits="userSpaceOnUse" x="14" y="0" width="27" height="17">
<path d="M39.5349 13.0284L29.4001 16.484L16.3063 5.03029C15.7639 4.55593 15.0332 4.43575 14.3961 4.65059L14.395 4.64846L27.7324 0.10058L27.7334 0.102707C28.3705 -0.112137 29.1012 0.00804821 29.6436 0.482406L40.1114 9.63773C40.4018 9.86427 40.6326 10.1748 40.7591 10.5503C41.1048 11.5724 40.557 12.6817 39.5349 13.0284ZM26.0051 13.5124L35.0785 10.4195L27.9249 4.1624L18.8514 7.2553L26.0051 13.5124Z" fill="white"/>
</mask>
<g mask="url(#mask1_1405_29)">
<path d="M41.1048 -0.112152H14.395V16.4829H41.1048V-0.112152Z" fill="#684DF4"/>
<g filter="url(#filter2_f_1405_29)">
<path d="M15.8559 -3.49826L-5.24756 7.06934L4.60074 21.864L27.1111 11.2964L15.8559 -3.49826Z" fill="#1C1C25" fill-opacity="0.33"/>
</g>
<g filter="url(#filter3_f_1405_29)">
<path d="M29.8491 10.4948L8.74561 21.0623L18.5939 35.857L41.1043 25.2894L29.8491 10.4948Z" fill="#1C1C25" fill-opacity="0.33"/>
</g>
</g>
<path d="M13.993 7.43372L3.06104 11.3692L30.1724 36.7315L34.1079 35.8569L36.2943 24.4876L25.3623 15.3048L13.993 7.43372Z" fill="white"/>
<mask id="mask2_1405_29" style="mask-type:luminance" maskUnits="userSpaceOnUse" x="0" y="4" width="39" height="37">
<path d="M38.2352 25.4979L35.5592 39.0415L35.5549 39.0405C35.4911 39.367 35.3433 39.6829 35.1082 39.9509C34.3988 40.7613 33.1661 40.8432 32.3557 40.1349L0.751288 12.4924C0.46093 12.2658 0.230132 11.9553 0.103566 11.5798C-0.242099 10.5577 0.305647 9.44838 1.32775 9.10272L14.3949 4.64843L14.396 4.65056C15.0331 4.43571 15.7638 4.5559 16.3062 5.03026L37.4949 23.5632C38.0714 23.9993 38.383 24.7395 38.2352 25.4979ZM32.3769 34.9701L34.1797 25.8457L14.5874 8.70919L5.78416 11.7106L32.3769 34.9701Z" fill="white"/>
</mask>
<g mask="url(#mask2_1405_29)">
<path d="M38.3827 4.43469H-0.242432V40.8443H38.3827V4.43469Z" fill="#684DF4"/>
</g>
<path d="M60.2219 34.9824L53.0505 11.6141H58.7177L63.2654 28.5456L67.5682 11.6141H72.9905L77.2933 28.5456L81.8061 11.6141H87.4732L80.3368 34.9824H74.7046L70.2969 18.5756L65.8541 34.9824H60.2219Z" fill="#141D38"/>
<path d="M94.9999 35.3322C93.2974 35.3322 91.7465 35.0174 90.3472 34.3877C88.9479 33.7347 87.8285 32.7785 86.9889 31.5191C86.1493 30.2364 85.7295 28.6506 85.7295 26.7615C85.7295 25.0124 86.1144 23.4965 86.884 22.2138C87.6536 20.9311 88.6914 19.9399 89.9974 19.2403C91.3034 18.5406 92.7727 18.1908 94.4052 18.1908C96.061 18.1908 97.507 18.494 98.743 19.1004C100.002 19.7067 100.982 20.558 101.682 21.6541C102.381 22.7269 102.731 23.9629 102.731 25.3622C102.731 25.782 102.673 26.2484 102.556 26.7615C102.439 27.2513 102.288 27.6711 102.101 28.0209H90.6621C90.7787 28.7672 91.0352 29.3969 91.4317 29.9099C91.8281 30.3997 92.3762 30.7728 93.0759 31.0294C93.7755 31.2859 94.5801 31.4142 95.4896 31.4142C96.4458 31.4142 97.3437 31.2742 98.1833 30.9944C99.0229 30.6912 99.8158 30.2947 100.562 29.805L102.031 33.1983C101.029 33.8979 99.9324 34.4343 98.743 34.8075C97.5769 35.1573 96.3292 35.3322 94.9999 35.3322ZM90.6621 24.8725H97.7635C97.7868 24.8258 97.7985 24.7792 97.7985 24.7325C97.7985 24.6859 97.7985 24.6159 97.7985 24.5226C97.7985 23.9862 97.6819 23.5315 97.4487 23.1583C97.2154 22.7619 96.854 22.4587 96.3642 22.2488C95.8978 22.0156 95.2914 21.899 94.5451 21.899C93.8688 21.899 93.2508 22.0272 92.691 22.2838C92.1547 22.517 91.7115 22.8551 91.3617 23.2983C91.0119 23.7414 90.7787 24.2661 90.6621 24.8725Z" fill="#141D38"/>
<path d="M115.939 35.3322C114.727 35.3322 113.677 35.1106 112.791 34.6675C111.905 34.2244 111.205 33.6297 110.692 32.8834V34.9824H106.109V11.6141H110.937V20.3248C111.45 19.6717 112.126 19.1587 112.966 18.7855C113.805 18.3891 114.797 18.1908 115.939 18.1908C117.432 18.1908 118.761 18.5406 119.927 19.2403C121.117 19.9166 122.061 20.8961 122.761 22.1788C123.461 23.4615 123.81 24.9891 123.81 26.7615C123.81 28.534 123.461 30.0615 122.761 31.3442C122.061 32.6269 121.117 33.6181 119.927 34.3177C118.761 34.994 117.432 35.3322 115.939 35.3322ZM114.82 31.1343C115.613 31.1343 116.312 30.9594 116.919 30.6096C117.548 30.2597 118.027 29.7583 118.353 29.1053C118.703 28.429 118.878 27.6477 118.878 26.7615C118.878 25.852 118.703 25.0707 118.353 24.4177C118.027 23.7647 117.548 23.2633 116.919 22.9134C116.312 22.5636 115.613 22.3887 114.82 22.3887C114.027 22.3887 113.316 22.5636 112.686 22.9134C112.056 23.2633 111.578 23.7647 111.252 24.4177C110.925 25.0707 110.762 25.852 110.762 26.7615C110.762 27.6477 110.925 28.429 111.252 29.1053C111.578 29.7583 112.045 30.2597 112.651 30.6096C113.281 30.9594 114.004 31.1343 114.82 31.1343Z" fill="#141D38"/>
<path d="M133.975 34.9824V14.2728H126.629V11.6141H144.295V14.2728H136.983V34.9824H133.975Z" fill="#141D38"/>
<path d="M149.349 35.3322C147.717 35.3322 146.247 34.994 144.941 34.3177C143.635 33.6414 142.609 32.6735 141.863 31.4142C141.117 30.1315 140.743 28.5806 140.743 26.7615C140.743 25.0124 141.105 23.4965 141.828 22.2138C142.551 20.9311 143.53 19.9399 144.766 19.2403C146.002 18.5406 147.378 18.1908 148.894 18.1908C150.504 18.1908 151.891 18.5057 153.057 19.1354C154.223 19.765 155.121 20.6163 155.751 21.6891C156.381 22.7385 156.695 23.9396 156.695 25.2923C156.695 25.6654 156.637 26.0852 156.521 26.5516C156.427 26.9947 156.299 27.3562 156.136 27.6361H143.647C143.764 28.7555 144.067 29.7117 144.557 30.5046C145.07 31.2742 145.758 31.8573 146.62 32.2537C147.483 32.6502 148.475 32.8484 149.594 32.8484C150.69 32.8484 151.646 32.6852 152.463 32.3587C153.302 32.0089 154.107 31.5191 154.876 30.8894L155.996 33.0234C155.11 33.793 154.107 34.376 152.987 34.7725C151.868 35.1456 150.655 35.3322 149.349 35.3322ZM143.647 25.2573H153.757C153.78 25.2106 153.792 25.164 153.792 25.1173C153.792 25.0707 153.792 25.0007 153.792 24.9074C153.792 24.0679 153.617 23.3332 153.267 22.7036C152.917 22.0505 152.381 21.5491 151.658 21.1993C150.958 20.8495 150.072 20.6746 148.999 20.6746C148.16 20.6746 147.367 20.8611 146.62 21.2343C145.874 21.5841 145.245 22.0972 144.731 22.7735C144.218 23.4498 143.857 24.2778 143.647 25.2573Z" fill="#141D38"/>
<path d="M168.819 35.3322C167.163 35.3322 165.694 34.9824 164.411 34.2827C163.129 33.5598 162.126 32.5569 161.403 31.2742C160.68 29.9916 160.319 28.4873 160.319 26.7615C160.319 25.0357 160.68 23.5315 161.403 22.2488C162.126 20.9661 163.129 19.9749 164.411 19.2753C165.694 18.5523 167.163 18.1908 168.819 18.1908C170.009 18.1908 171.081 18.3657 172.038 18.7156C173.017 19.0654 173.88 19.5668 174.626 20.2198L173.542 22.3537C172.796 21.7707 172.014 21.3509 171.198 21.0944C170.382 20.8145 169.589 20.6746 168.819 20.6746C167.7 20.6746 166.72 20.9195 165.881 21.4092C165.041 21.899 164.388 22.5986 163.922 23.5081C163.455 24.4177 163.222 25.5021 163.222 26.7615C163.222 28.0209 163.455 29.1053 163.922 30.0149C164.388 30.9244 165.041 31.6241 165.881 32.1138C166.72 32.6036 167.7 32.8484 168.819 32.8484C169.589 32.8484 170.382 32.7202 171.198 32.4636C172.014 32.1838 172.796 31.7523 173.542 31.1693L174.626 33.3032C173.88 33.9562 173.017 34.4576 172.038 34.8075C171.081 35.1573 170.009 35.3322 168.819 35.3322Z" fill="#141D38"/>
<path d="M179.028 34.9824V11.6141H181.861V26.6566L190.152 18.5406H193.65L186.654 25.2923L194 34.9824H190.502L184.66 27.2163L181.861 29.9099V34.9824H179.028Z" fill="#141D38"/>
<defs>
<filter id="filter0_f_1405_29" x="7.3689" y="15.2403" width="34.2368" height="28.1149" filterUnits="userSpaceOnUse" color-interpolation-filters="sRGB">
<feFlood flood-opacity="0" result="BackgroundImageFix"/>
<feBlend mode="normal" in="SourceGraphic" in2="BackgroundImageFix" result="shape"/>
<feGaussianBlur stdDeviation="2" result="effect1_foregroundBlur_1405_29"/>
</filter>
<filter id="filter1_f_1405_29" x="17.8643" y="23.9859" width="34.2368" height="28.1149" filterUnits="userSpaceOnUse" color-interpolation-filters="sRGB">
<feFlood flood-opacity="0" result="BackgroundImageFix"/>
<feBlend mode="normal" in="SourceGraphic" in2="BackgroundImageFix" result="shape"/>
<feGaussianBlur stdDeviation="2" result="effect1_foregroundBlur_1405_29"/>
</filter>
<filter id="filter2_f_1405_29" x="-9.24756" y="-7.49826" width="40.3586" height="33.3622" filterUnits="userSpaceOnUse" color-interpolation-filters="sRGB">
<feFlood flood-opacity="0" result="BackgroundImageFix"/>
<feBlend mode="normal" in="SourceGraphic" in2="BackgroundImageFix" result="shape"/>
<feGaussianBlur stdDeviation="2" result="effect1_foregroundBlur_1405_29"/>
</filter>
<filter id="filter3_f_1405_29" x="4.74561" y="6.49475" width="40.3586" height="33.3622" filterUnits="userSpaceOnUse" color-interpolation-filters="sRGB">
<feFlood flood-opacity="0" result="BackgroundImageFix"/>
<feBlend mode="normal" in="SourceGraphic" in2="BackgroundImageFix" result="shape"/>
<feGaussianBlur stdDeviation="2" result="effect1_foregroundBlur_1405_29"/>
</filter>
</defs>
</svg>
