<svg width="159" height="36" viewBox="0 0 159 36" fill="none" xmlns="http://www.w3.org/2000/svg">
<path d="M17.3814 23.6394L8.34277 27.1158L15.9908 34.0685L25.377 30.2445L17.3814 23.6394Z" fill="white"/>
<mask id="mask0_380_895" style="mask-type:luminance" maskUnits="userSpaceOnUse" x="5" y="22" width="24" height="14">
<path d="M6.9731 25.389L15.1014 22.6182L25.7223 31.9074C26.3666 32.4714 27.3466 32.4062 27.9106 31.7611C28.0975 31.5472 28.215 31.2969 28.2657 31.0373H28.2674C28.1744 31.5818 27.7939 32.0587 27.2342 32.2481L16.5963 35.8747L16.5955 35.873C16.089 36.0438 15.5081 35.9483 15.0769 35.5711L6.51566 28.0838C6.28483 27.9037 6.10134 27.6568 6.00072 27.3583C5.72507 26.5457 6.16053 25.6638 6.9731 25.389ZM17.7936 24.9815L10.516 27.4623L16.4424 32.6455L23.6947 30.1732L17.7936 24.9815Z" fill="white"/>
</mask>
<g mask="url(#mask0_380_895)">
<path d="M28.2679 22.6174H5.72559V36.0448H28.2679V22.6174Z" fill="url(#paint0_linear_380_895)"/>
<g filter="url(#filter0_f_380_895)">
<path d="M22.6413 15.2961L9.03809 21.9592L15.3863 31.2875L29.8964 24.6244L22.6413 15.2961Z" fill="#1C1C25" fill-opacity="0.33"/>
</g>
<g filter="url(#filter1_f_380_895)">
<path d="M30.9851 22.2488L17.3818 28.9118L23.73 38.2401L38.2401 31.5771L30.9851 22.2488Z" fill="#1C1C25" fill-opacity="0.33"/>
</g>
</g>
<path d="M22.5971 1.73828L12.5156 5.21466L20.8589 12.8627L30.2452 8.3434L22.5971 1.73828Z" fill="white"/>
<mask id="mask1_380_895" style="mask-type:luminance" maskUnits="userSpaceOnUse" x="11" y="0" width="22" height="14">
<path d="M31.4306 10.3576L23.3734 13.1048L12.9638 3.99908C12.5326 3.62197 11.9517 3.52642 11.4452 3.69722L11.4443 3.69553L22.0475 0.0799611L22.0484 0.0816522C22.5549 -0.0891488 23.1358 0.00639834 23.567 0.383514L31.8889 7.66201C32.1197 7.84211 32.3032 8.08901 32.4038 8.38749C32.6786 9.20006 32.2432 10.082 31.4306 10.3576ZM20.6744 10.7423L27.8877 8.28348L22.2006 3.30912L14.9872 5.76797L20.6744 10.7423Z" fill="white"/>
</mask>
<g mask="url(#mask1_380_895)">
<path d="M32.6786 -0.0891113H11.4443V13.104H32.6786V-0.0891113Z" fill="url(#paint1_linear_380_895)"/>
<g filter="url(#filter2_f_380_895)">
<path d="M12.6064 -2.78101L-4.1709 5.62024L3.65851 17.382L21.5543 8.98074L12.6064 -2.78101Z" fill="#1C1C25" fill-opacity="0.33"/>
</g>
<g filter="url(#filter3_f_380_895)">
<path d="M23.7304 8.34326L6.95312 16.7445L14.7825 28.5063L32.6783 20.105L23.7304 8.34326Z" fill="#1C1C25" fill-opacity="0.33"/>
</g>
</g>
<path d="M11.1245 5.90967L2.43359 9.03841L23.9871 29.2014L27.1159 28.5061L28.8541 19.4675L20.1631 12.1671L11.1245 5.90967Z" fill="white"/>
<mask id="mask2_380_895" style="mask-type:luminance" maskUnits="userSpaceOnUse" x="0" y="3" width="31" height="30">
<path d="M30.397 20.2708L28.2696 31.038L28.2662 31.0371C28.2155 31.2967 28.0979 31.5479 27.9111 31.7609C27.3471 32.4052 26.3671 32.4703 25.7228 31.9072L0.597275 9.93137C0.36644 9.75127 0.182955 9.50437 0.0823348 9.20589C-0.192469 8.39331 0.242989 7.51141 1.05556 7.2366L11.444 3.69544L11.4448 3.69713C11.9513 3.52633 12.5322 3.62188 12.9634 3.99899L29.8085 18.7327C30.2668 19.0794 30.5145 19.6679 30.397 20.2708ZM25.7397 27.8012L27.1729 20.5472L11.597 6.92375L4.59842 9.30989L25.7397 27.8012Z" fill="white"/>
</mask>
<g mask="url(#mask2_380_895)">
<path d="M30.5146 3.52539H-0.192383V32.4711H30.5146V3.52539Z" fill="url(#paint2_linear_380_895)"/>
</g>
<path d="M52.6466 27.8109L46.9453 9.23315H51.4507L55.0661 22.6937L58.4869 9.23315H62.7976L66.2184 22.6937L69.806 9.23315H74.3114L68.6379 27.8109H64.1603L60.6561 14.7675L57.1241 27.8109H52.6466Z" fill="white"/>
<path d="M80.2951 28.089C78.9416 28.089 77.7087 27.8387 76.5962 27.3381C75.4838 26.819 74.5938 26.0588 73.9264 25.0576C73.2589 24.0379 72.9252 22.7771 72.9252 21.2753C72.9252 19.8848 73.2311 18.6796 73.8429 17.6599C74.4548 16.6402 75.2798 15.8522 76.3181 15.296C77.3564 14.7397 78.5244 14.4616 79.8223 14.4616C81.1387 14.4616 82.2882 14.7027 83.2709 15.1847C84.2721 15.6668 85.0508 16.3435 85.607 17.2149C86.1632 18.0678 86.4413 19.0504 86.4413 20.1629C86.4413 20.4966 86.395 20.8674 86.3023 21.2753C86.2096 21.6647 86.089 21.9984 85.9407 22.2765H76.8465C76.9392 22.8698 77.1432 23.3704 77.4584 23.7783C77.7735 24.1677 78.2093 24.4643 78.7655 24.6683C79.3217 24.8722 79.9613 24.9742 80.6844 24.9742C81.4446 24.9742 82.1584 24.863 82.8259 24.6405C83.4933 24.3994 84.1237 24.0842 84.717 23.6949L85.8851 26.3926C85.0878 26.9488 84.2164 27.3752 83.2709 27.6719C82.3438 27.95 81.3519 28.089 80.2951 28.089ZM76.8465 19.7735H82.4921C82.5107 19.7365 82.52 19.6994 82.52 19.6623C82.52 19.6252 82.52 19.5696 82.52 19.4954C82.52 19.069 82.4273 18.7074 82.2419 18.4108C82.0564 18.0956 81.7691 17.8546 81.3797 17.6877C81.0089 17.5023 80.5268 17.4096 79.9335 17.4096C79.3959 17.4096 78.9045 17.5116 78.4596 17.7155C78.0331 17.9009 77.6808 18.1698 77.4027 18.522C77.1246 18.8743 76.9392 19.2915 76.8465 19.7735Z" fill="white"/>
<path d="M96.9419 28.089C95.9778 28.089 95.1435 27.9129 94.4389 27.5606C93.7344 27.2083 93.1782 26.7356 92.7703 26.1423V27.8109H89.127V9.23315H92.965V16.1581C93.3729 15.639 93.9105 15.2311 94.578 14.9344C95.2455 14.6192 96.0334 14.4616 96.9419 14.4616C98.1285 14.4616 99.1854 14.7397 100.112 15.296C101.058 15.8336 101.809 16.6123 102.365 17.6321C102.921 18.6518 103.199 19.8662 103.199 21.2753C103.199 22.6844 102.921 23.8988 102.365 24.9186C101.809 25.9383 101.058 26.7263 100.112 27.2825C99.1854 27.8202 98.1285 28.089 96.9419 28.089ZM96.052 24.7517C96.6824 24.7517 97.2386 24.6127 97.7206 24.3345C98.2212 24.0564 98.6013 23.6578 98.8609 23.1387C99.139 22.601 99.2781 21.9799 99.2781 21.2753C99.2781 20.5522 99.139 19.9311 98.8609 19.412C98.6013 18.8929 98.2212 18.4942 97.7206 18.2161C97.2386 17.938 96.6824 17.799 96.052 17.799C95.4216 17.799 94.8561 17.938 94.3555 18.2161C93.8549 18.4942 93.4748 18.8929 93.2153 19.412C92.9557 19.9311 92.8259 20.5522 92.8259 21.2753C92.8259 21.9799 92.9557 22.601 93.2153 23.1387C93.4748 23.6578 93.8456 24.0564 94.3277 24.3345C94.8283 24.6127 95.4031 24.7517 96.052 24.7517Z" fill="white"/>
<path d="M111.28 27.8109V11.3468H105.44V9.23315H119.485V11.3468H113.672V27.8109H111.28Z" fill="white"/>
<path d="M123.503 28.089C122.205 28.089 121.037 27.8202 119.999 27.2825C118.96 26.7448 118.145 25.9754 117.551 24.9742C116.958 23.9545 116.661 22.7215 116.661 21.2753C116.661 19.8848 116.949 18.6796 117.523 17.6599C118.098 16.6402 118.877 15.8522 119.86 15.296C120.842 14.7397 121.936 14.4616 123.141 14.4616C124.421 14.4616 125.524 14.7119 126.451 15.2125C127.378 15.7131 128.092 16.3899 128.592 17.2427C129.093 18.0771 129.343 19.0319 129.343 20.1073C129.343 20.4039 129.297 20.7376 129.204 21.1085C129.13 21.4607 129.028 21.7481 128.898 21.9706H118.97C119.062 22.8606 119.303 23.6207 119.693 24.2511C120.101 24.863 120.647 25.3265 121.334 25.6417C122.02 25.9569 122.807 26.1144 123.697 26.1144C124.569 26.1144 125.329 25.9847 125.978 25.7251C126.645 25.447 127.285 25.0576 127.897 24.557L128.787 26.2535C128.082 26.8653 127.285 27.3289 126.395 27.6441C125.505 27.9407 124.541 28.089 123.503 28.089ZM118.97 20.0795H127.007C127.025 20.0424 127.035 20.0053 127.035 19.9682C127.035 19.9311 127.035 19.8755 127.035 19.8013C127.035 19.1339 126.896 18.5498 126.618 18.0493C126.339 17.5301 125.913 17.1315 125.338 16.8534C124.782 16.5753 124.078 16.4362 123.225 16.4362C122.557 16.4362 121.927 16.5845 121.334 16.8812C120.74 17.1593 120.24 17.5672 119.832 18.1049C119.424 18.6426 119.136 19.3007 118.97 20.0795Z" fill="white"/>
<path d="M138.982 28.089C137.665 28.089 136.497 27.8109 135.477 27.2547C134.458 26.6799 133.66 25.8827 133.086 24.863C132.511 23.8432 132.223 22.6473 132.223 21.2753C132.223 19.9033 132.511 18.7074 133.086 17.6877C133.66 16.668 134.458 15.88 135.477 15.3238C136.497 14.749 137.665 14.4616 138.982 14.4616C139.927 14.4616 140.78 14.6007 141.54 14.8788C142.319 15.1569 143.005 15.5555 143.598 16.0747L142.736 17.7711C142.143 17.3076 141.522 16.9739 140.873 16.7699C140.224 16.5475 139.593 16.4362 138.982 16.4362C138.092 16.4362 137.313 16.6309 136.645 17.0202C135.978 17.4096 135.459 17.9658 135.088 18.6889C134.717 19.412 134.532 20.2741 134.532 21.2753C134.532 22.2765 134.717 23.1387 135.088 23.8618C135.459 24.5848 135.978 25.1411 136.645 25.5304C137.313 25.9198 138.092 26.1144 138.982 26.1144C139.593 26.1144 140.224 26.0125 140.873 25.8085C141.522 25.586 142.143 25.243 142.736 24.7795L143.598 26.476C143.005 26.9951 142.319 27.3938 141.54 27.6719C140.78 27.95 139.927 28.089 138.982 28.089Z" fill="white"/>
<path d="M147.097 27.8109V9.23315H149.35V21.1919L155.941 14.7397H158.722L153.16 20.1073L159 27.8109H156.219L151.575 21.6369L149.35 23.7783V27.8109H147.097Z" fill="white"/>
<defs>
<filter id="filter0_f_380_895" x="5.03809" y="11.2961" width="28.8584" height="23.9915" filterUnits="userSpaceOnUse" color-interpolation-filters="sRGB">
<feFlood flood-opacity="0" result="BackgroundImageFix"/>
<feBlend mode="normal" in="SourceGraphic" in2="BackgroundImageFix" result="shape"/>
<feGaussianBlur stdDeviation="2" result="effect1_foregroundBlur_380_895"/>
</filter>
<filter id="filter1_f_380_895" x="13.3818" y="18.2488" width="28.8584" height="23.9915" filterUnits="userSpaceOnUse" color-interpolation-filters="sRGB">
<feFlood flood-opacity="0" result="BackgroundImageFix"/>
<feBlend mode="normal" in="SourceGraphic" in2="BackgroundImageFix" result="shape"/>
<feGaussianBlur stdDeviation="2" result="effect1_foregroundBlur_380_895"/>
</filter>
<filter id="filter2_f_380_895" x="-8.1709" y="-6.78101" width="33.7251" height="28.1631" filterUnits="userSpaceOnUse" color-interpolation-filters="sRGB">
<feFlood flood-opacity="0" result="BackgroundImageFix"/>
<feBlend mode="normal" in="SourceGraphic" in2="BackgroundImageFix" result="shape"/>
<feGaussianBlur stdDeviation="2" result="effect1_foregroundBlur_380_895"/>
</filter>
<filter id="filter3_f_380_895" x="2.95312" y="4.34326" width="33.7251" height="28.1631" filterUnits="userSpaceOnUse" color-interpolation-filters="sRGB">
<feFlood flood-opacity="0" result="BackgroundImageFix"/>
<feBlend mode="normal" in="SourceGraphic" in2="BackgroundImageFix" result="shape"/>
<feGaussianBlur stdDeviation="2" result="effect1_foregroundBlur_380_895"/>
</filter>
<linearGradient id="paint0_linear_380_895" x1="16.9968" y1="22.6174" x2="16.9968" y2="36.0448" gradientUnits="userSpaceOnUse">
<stop stop-color="#02CE80"/>
<stop offset="1" stop-color="#7BD706"/>
</linearGradient>
<linearGradient id="paint1_linear_380_895" x1="22.0615" y1="-0.0891113" x2="22.0615" y2="13.104" gradientUnits="userSpaceOnUse">
<stop stop-color="#02CE80"/>
<stop offset="1" stop-color="#7BD706"/>
</linearGradient>
<linearGradient id="paint2_linear_380_895" x1="15.1611" y1="3.52539" x2="15.1611" y2="32.4711" gradientUnits="userSpaceOnUse">
<stop stop-color="#02CE80"/>
<stop offset="1" stop-color="#7BD706"/>
</linearGradient>
</defs>
</svg>
