<svg width="155" height="37" viewBox="0 0 155 37" fill="none" xmlns="http://www.w3.org/2000/svg">
<path d="M17.4682 23.7573L8.38452 27.2511L16.0707 34.2385L25.5038 30.3954L17.4682 23.7573Z" fill="white"/>
<mask id="mask0_1405_29" style="mask-type:luminance" maskUnits="userSpaceOnUse" x="5" y="22" width="24" height="15">
<path d="M7.0084 25.5157L15.1772 22.731L25.8512 32.0665C26.4987 32.6333 27.4836 32.5679 28.0504 31.9195C28.2382 31.7045 28.3563 31.453 28.4073 31.1921H28.409C28.3155 31.7394 27.9331 32.2186 27.3706 32.409L16.6796 36.0537L16.6788 36.052C16.1698 36.2236 15.586 36.1276 15.1526 35.7486L6.54867 28.2239C6.31669 28.0429 6.13229 27.7947 6.03116 27.4948C5.75414 26.6781 6.19177 25.7918 7.0084 25.5157ZM17.8829 25.1061L10.5689 27.5993L16.525 32.8084L23.8135 30.3237L17.8829 25.1061Z" fill="white"/>
</mask>
<g mask="url(#mask0_1405_29)">
<path d="M28.4088 22.7301H5.75391V36.2245H28.4088V22.7301Z" fill="#684DF4"/>
<g filter="url(#filter0_f_1405_29)">
<path d="M22.7549 15.3725L9.08374 22.0688L15.4636 31.4436L30.0461 24.7473L22.7549 15.3725Z" fill="#1C1C25" fill-opacity="0.33"/>
</g>
<g filter="url(#filter1_f_1405_29)">
<path d="M31.1404 22.3599L17.4692 29.0562L23.8491 38.4311L38.4316 31.7347L31.1404 22.3599Z" fill="#1C1C25" fill-opacity="0.33"/>
</g>
</g>
<path d="M22.709 1.74683L12.5771 5.24056L20.9621 12.9268L30.3952 8.38491L22.709 1.74683Z" fill="white"/>
<mask id="mask1_1405_29" style="mask-type:luminance" maskUnits="userSpaceOnUse" x="11" y="0" width="22" height="14">
<path d="M31.5875 10.4093L23.49 13.1702L13.0285 4.01904C12.5951 3.64005 12.0113 3.54402 11.5023 3.71568L11.5015 3.71398L22.1576 0.0803602L22.1584 0.0820598C22.6674 -0.0895938 23.2512 0.00643027 23.6846 0.385428L32.0481 7.70025C32.28 7.88125 32.4644 8.12938 32.5656 8.42935C32.8417 9.24598 32.4041 10.1323 31.5875 10.4093ZM20.7776 10.796L28.0269 8.32483L22.3114 3.32563L15.062 5.79676L20.7776 10.796Z" fill="white"/>
</mask>
<g mask="url(#mask1_1405_29)">
<path d="M32.8417 -0.0896301H11.5015V13.1693H32.8417V-0.0896301Z" fill="#684DF4"/>
<g filter="url(#filter2_f_1405_29)">
<path d="M12.6684 -2.79498L-4.19263 5.6482L3.67586 17.4687L21.661 9.02547L12.6684 -2.79498Z" fill="#1C1C25" fill-opacity="0.33"/>
</g>
<g filter="url(#filter3_f_1405_29)">
<path d="M23.8486 8.38504L6.98755 16.8282L14.856 28.6487L32.8411 20.2055L23.8486 8.38504Z" fill="#1C1C25" fill-opacity="0.33"/>
</g>
</g>
<path d="M11.1804 5.93933L2.44604 9.08369L24.1072 29.3473L27.2515 28.6486L28.9984 19.5649L20.2641 12.228L11.1804 5.93933Z" fill="white"/>
<mask id="mask2_1405_29" style="mask-type:luminance" maskUnits="userSpaceOnUse" x="0" y="3" width="31" height="30">
<path d="M30.5487 20.372L28.4107 31.1929L28.4073 31.1921C28.3563 31.453 28.2382 31.7053 28.0504 31.9195C27.4836 32.567 26.4987 32.6324 25.8512 32.0665L0.600256 9.98096C0.368269 9.79996 0.183868 9.55183 0.0827458 9.25186C-0.193429 8.43523 0.244202 7.54892 1.06083 7.27274L11.5011 3.71391L11.502 3.7156C12.011 3.54395 12.5948 3.63998 13.0281 4.01897L29.9573 18.8262C30.4178 19.1746 30.6668 19.7661 30.5487 20.372ZM25.8682 27.94L27.3085 20.6498L11.6549 6.95833L4.62137 9.35638L25.8682 27.94Z" fill="white"/>
</mask>
<g mask="url(#mask2_1405_29)">
<path d="M30.6664 3.54318H-0.193848V32.6334H30.6664V3.54318Z" fill="#684DF4"/>
</g>
<path d="M48.1152 27.9499L42.3855 9.27936H46.9134L50.5469 22.8071L53.9847 9.27936H58.3169L61.7547 22.8071L65.3603 9.27936H69.8881L64.1864 27.9499H59.6865L56.1648 14.8414L52.6151 27.9499H48.1152Z" fill="#141D38"/>
<path d="M75.9017 28.2294C74.5415 28.2294 73.3024 27.9778 72.1844 27.4747C71.0664 26.953 70.172 26.189 69.5012 25.1828C68.8304 24.158 68.495 22.8909 68.495 21.3816C68.495 19.9841 68.8025 18.773 69.4174 17.7482C70.0323 16.7233 70.8614 15.9314 71.9049 15.3724C72.9484 14.8134 74.1223 14.5339 75.4266 14.5339C76.7495 14.5339 77.9048 14.7762 78.8924 15.2606C79.8986 15.7451 80.6811 16.4252 81.2401 17.301C81.7991 18.1581 82.0786 19.1457 82.0786 20.2636C82.0786 20.599 82.0321 20.9717 81.9389 21.3816C81.8457 21.7729 81.7246 22.1083 81.5755 22.3878H72.4359C72.5291 22.9841 72.7341 23.4872 73.0508 23.8971C73.3676 24.2884 73.8055 24.5866 74.3645 24.7915C74.9235 24.9965 75.5663 25.099 76.293 25.099C77.057 25.099 77.7744 24.9872 78.4452 24.7636C79.116 24.5213 79.7495 24.2046 80.3458 23.8133L81.5196 26.5244C80.7184 27.0834 79.8427 27.512 78.8924 27.8101C77.9607 28.0896 76.9638 28.2294 75.9017 28.2294ZM72.4359 19.8723H78.1098C78.1284 19.8351 78.1377 19.7978 78.1377 19.7605C78.1377 19.7233 78.1377 19.6674 78.1377 19.5929C78.1377 19.1643 78.0445 18.8009 77.8582 18.5028C77.6719 18.186 77.3831 17.9438 76.9918 17.7761C76.6191 17.5898 76.1346 17.4966 75.5384 17.4966C74.998 17.4966 74.5042 17.5991 74.057 17.8041C73.6285 17.9904 73.2744 18.2606 72.9949 18.6146C72.7154 18.9686 72.5291 19.3879 72.4359 19.8723Z" fill="#141D38"/>
<path d="M92.6317 28.2294C91.6627 28.2294 90.8243 28.0523 90.1162 27.6983C89.4081 27.3443 88.8491 26.8691 88.4392 26.2729V27.9499H84.7778V9.27936H88.6348V16.2389C89.0448 15.7171 89.5851 15.3072 90.2559 15.0091C90.9267 14.6923 91.7186 14.5339 92.6317 14.5339C93.8242 14.5339 94.8863 14.8134 95.818 15.3724C96.7682 15.9128 97.5229 16.6954 98.0819 17.7202C98.6409 18.745 98.9204 19.9655 98.9204 21.3816C98.9204 22.7978 98.6409 24.0182 98.0819 25.0431C97.5229 26.0679 96.7682 26.8598 95.818 27.4188C94.8863 27.9592 93.8242 28.2294 92.6317 28.2294ZM91.7373 24.8754C92.3708 24.8754 92.9298 24.7356 93.4143 24.4561C93.9174 24.1766 94.2993 23.776 94.5602 23.2543C94.8397 22.7139 94.9795 22.0897 94.9795 21.3816C94.9795 20.6549 94.8397 20.0307 94.5602 19.509C94.2993 18.9873 93.9174 18.5867 93.4143 18.3072C92.9298 18.0277 92.3708 17.8879 91.7373 17.8879C91.1038 17.8879 90.5354 18.0277 90.0323 18.3072C89.5292 18.5867 89.1473 18.9873 88.8864 19.509C88.6255 20.0307 88.4951 20.6549 88.4951 21.3816C88.4951 22.0897 88.6255 22.7139 88.8864 23.2543C89.1473 23.776 89.5199 24.1766 90.0044 24.4561C90.5075 24.7356 91.0851 24.8754 91.7373 24.8754Z" fill="#141D38"/>
<path d="M107.042 27.9499V11.4035H101.172V9.27936H115.287V11.4035H109.445V27.9499H107.042Z" fill="#141D38"/>
<path d="M119.325 28.2294C118.021 28.2294 116.847 27.9592 115.803 27.4188C114.76 26.8784 113.94 26.1052 113.344 25.099C112.748 24.0741 112.449 22.835 112.449 21.3816C112.449 19.9841 112.738 18.773 113.316 17.7482C113.894 16.7233 114.676 15.9314 115.664 15.3724C116.651 14.8134 117.751 14.5339 118.962 14.5339C120.247 14.5339 121.356 14.7855 122.288 15.2886C123.219 15.7917 123.937 16.4718 124.44 17.3289C124.943 18.1674 125.195 19.127 125.195 20.2077C125.195 20.5059 125.148 20.8413 125.055 21.2139C124.98 21.568 124.878 21.8568 124.747 22.0804H114.769C114.862 22.9748 115.105 23.7387 115.496 24.3723C115.906 24.9872 116.456 25.453 117.145 25.7698C117.834 26.0865 118.626 26.2449 119.521 26.2449C120.396 26.2449 121.16 26.1145 121.813 25.8536C122.483 25.5741 123.126 25.1828 123.741 24.6797L124.636 26.3847C123.927 26.9996 123.126 27.4654 122.232 27.7822C121.337 28.0803 120.369 28.2294 119.325 28.2294ZM114.769 20.1798H122.847C122.865 20.1425 122.875 20.1053 122.875 20.068C122.875 20.0307 122.875 19.9748 122.875 19.9003C122.875 19.2295 122.735 18.6426 122.455 18.1395C122.176 17.6177 121.747 17.2171 121.17 16.9376C120.611 16.6581 119.903 16.5184 119.046 16.5184C118.375 16.5184 117.741 16.6674 117.145 16.9656C116.549 17.2451 116.046 17.655 115.636 18.1954C115.226 18.7357 114.937 19.3972 114.769 20.1798Z" fill="#141D38"/>
<path d="M134.881 28.2294C133.558 28.2294 132.384 27.9499 131.359 27.3909C130.335 26.8132 129.533 26.012 128.956 24.9872C128.378 23.9623 128.089 22.7605 128.089 21.3816C128.089 20.0028 128.378 18.8009 128.956 17.7761C129.533 16.7513 130.335 15.9594 131.359 15.4004C132.384 14.8227 133.558 14.5339 134.881 14.5339C135.831 14.5339 136.689 14.6737 137.453 14.9532C138.235 15.2327 138.925 15.6333 139.521 16.155L138.654 17.86C138.058 17.3941 137.434 17.0587 136.782 16.8538C136.13 16.6302 135.496 16.5184 134.881 16.5184C133.987 16.5184 133.204 16.714 132.533 17.1053C131.863 17.4966 131.341 18.0556 130.968 18.7823C130.595 19.509 130.409 20.3754 130.409 21.3816C130.409 22.3878 130.595 23.2543 130.968 23.981C131.341 24.7077 131.863 25.2667 132.533 25.658C133.204 26.0493 133.987 26.2449 134.881 26.2449C135.496 26.2449 136.13 26.1424 136.782 25.9375C137.434 25.7139 138.058 25.3692 138.654 24.9033L139.521 26.6083C138.925 27.13 138.235 27.5306 137.453 27.8101C136.689 28.0896 135.831 28.2294 134.881 28.2294Z" fill="#141D38"/>
<path d="M143.037 27.9499V9.27936H145.301V21.2978L151.925 14.8134H154.72L149.13 20.2077L155 27.9499H152.205L147.537 21.745L145.301 23.8971V27.9499H143.037Z" fill="#141D38"/>
<defs>
<filter id="filter0_f_1405_29" x="5.08374" y="11.3725" width="28.9624" height="24.0712" filterUnits="userSpaceOnUse" color-interpolation-filters="sRGB">
<feFlood flood-opacity="0" result="BackgroundImageFix"/>
<feBlend mode="normal" in="SourceGraphic" in2="BackgroundImageFix" result="shape"/>
<feGaussianBlur stdDeviation="2" result="effect1_foregroundBlur_1405_29"/>
</filter>
<filter id="filter1_f_1405_29" x="13.4692" y="18.3599" width="28.9624" height="24.0712" filterUnits="userSpaceOnUse" color-interpolation-filters="sRGB">
<feFlood flood-opacity="0" result="BackgroundImageFix"/>
<feBlend mode="normal" in="SourceGraphic" in2="BackgroundImageFix" result="shape"/>
<feGaussianBlur stdDeviation="2" result="effect1_foregroundBlur_1405_29"/>
</filter>
<filter id="filter2_f_1405_29" x="-8.19263" y="-6.79498" width="33.8535" height="28.2636" filterUnits="userSpaceOnUse" color-interpolation-filters="sRGB">
<feFlood flood-opacity="0" result="BackgroundImageFix"/>
<feBlend mode="normal" in="SourceGraphic" in2="BackgroundImageFix" result="shape"/>
<feGaussianBlur stdDeviation="2" result="effect1_foregroundBlur_1405_29"/>
</filter>
<filter id="filter3_f_1405_29" x="2.98755" y="4.38504" width="33.8535" height="28.2636" filterUnits="userSpaceOnUse" color-interpolation-filters="sRGB">
<feFlood flood-opacity="0" result="BackgroundImageFix"/>
<feBlend mode="normal" in="SourceGraphic" in2="BackgroundImageFix" result="shape"/>
<feGaussianBlur stdDeviation="2" result="effect1_foregroundBlur_1405_29"/>
</filter>
</defs>
</svg>
