<svg width="942" height="979" viewBox="0 0 942 979" fill="none" xmlns="http://www.w3.org/2000/svg">
<g opacity="0.03">
<path d="M424.972 622.489C424.972 624.504 426.596 626.13 428.608 626.13C430.619 626.13 432.243 624.504 432.243 622.489C432.243 620.912 431.225 619.577 429.819 619.068V597.711L417.701 585.577V565.24C419.106 564.73 420.124 563.395 420.124 561.818C420.124 559.804 418.5 558.178 416.489 558.178C414.477 558.178 412.853 559.804 412.853 561.818C412.853 563.395 413.871 564.73 415.277 565.24V586.596L427.396 598.73V619.068C425.99 619.577 424.972 620.912 424.972 622.489Z" fill="#141D38"/>
<path d="M417.7 910.291V609.846L405.581 597.711V573.443L395.523 563.371C395.741 562.886 395.886 562.376 395.886 561.818C395.886 559.804 394.262 558.178 392.251 558.178C390.239 558.178 388.615 559.804 388.615 561.818C388.615 563.832 390.239 565.458 392.251 565.458C392.808 565.458 393.341 565.313 393.802 565.094L403.158 574.462V598.73L415.277 610.865V910.291C413.871 910.8 412.853 912.135 412.853 913.713C412.853 915.727 414.477 917.353 416.488 917.353C418.5 917.353 420.124 915.727 420.124 913.713C420.124 912.135 419.106 910.8 417.7 910.291Z" fill="#141D38"/>
<path d="M429.819 934.559V647.268L441.938 635.133V574.462L454.057 562.327V553.105C455.463 552.596 456.481 551.261 456.481 549.684C456.481 547.669 454.857 546.043 452.845 546.043C450.834 546.043 449.21 547.669 449.21 549.684C449.21 551.261 450.228 552.596 451.633 553.105V561.308L439.515 573.443V634.114L427.396 646.248V934.559C425.99 935.069 424.972 936.404 424.972 937.981C424.972 939.995 426.596 941.621 428.608 941.621C430.619 941.621 432.243 939.995 432.243 937.981C432.243 936.404 431.225 935.069 429.819 934.559Z" fill="#141D38"/>
<path d="M454.058 589.508C455.463 588.999 456.481 587.664 456.481 586.087C456.481 584.072 454.857 582.446 452.846 582.446C450.834 582.446 449.21 584.072 449.21 586.087C449.21 587.664 450.228 588.999 451.634 589.508V731.189L442.278 740.556C441.793 740.338 441.284 740.192 440.727 740.192C438.715 740.192 437.091 741.818 437.091 743.832C437.091 745.847 438.715 747.473 440.727 747.473C442.738 747.473 444.362 745.847 444.362 743.832C444.362 743.274 444.217 742.74 443.999 742.279L454.058 732.208V589.508Z" fill="#141D38"/>
<path d="M480.719 829.33L478.295 610.84L490.414 598.706V565.215C491.82 564.706 492.838 563.371 492.838 561.793C492.838 559.779 491.214 558.153 489.202 558.153C487.191 558.153 485.567 559.779 485.567 561.793C485.567 563.371 486.585 564.706 487.99 565.215V597.687L475.872 609.821L478.295 828.165L463.753 840.3V970.938C462.347 971.447 461.329 972.782 461.329 974.359C461.329 976.374 462.953 978 464.965 978C466.976 978 468.6 976.374 468.6 974.359C468.6 972.782 467.582 971.447 466.176 970.938V841.44L480.719 829.33Z" fill="#141D38"/>
<path d="M480.719 549.684C480.719 547.669 479.095 546.043 477.084 546.043C475.072 546.043 473.448 547.669 473.448 549.684C473.448 551.261 474.466 552.596 475.872 553.105V582.665C474.466 583.174 473.448 584.509 473.448 586.086C473.448 588.101 475.072 589.727 477.084 589.727C479.095 589.727 480.719 588.101 480.719 586.086C480.719 584.509 479.701 583.174 478.296 582.665V553.105C479.701 552.596 480.719 551.261 480.719 549.684Z" fill="#141D38"/>
<path d="M468.6 768.101C468.6 766.087 466.976 764.461 464.965 764.461C462.953 764.461 461.329 766.087 461.329 768.101C461.329 769.678 462.347 771.013 463.753 771.523V801.082C462.347 801.592 461.329 802.926 461.329 804.504C461.329 806.518 462.953 808.144 464.965 808.144C466.976 808.144 468.6 806.518 468.6 804.504C468.6 802.926 467.582 801.592 466.176 801.082V771.523C467.582 771.013 468.6 769.678 468.6 768.101Z" fill="#141D38"/>
<path d="M456.481 780.235C456.481 778.221 454.857 776.595 452.846 776.595C450.834 776.595 449.21 778.221 449.21 780.235C449.21 781.813 450.228 783.147 451.634 783.657V886.022C450.228 886.532 449.21 887.866 449.21 889.444C449.21 891.458 450.834 893.084 452.846 893.084C454.857 893.084 456.481 891.458 456.481 889.444C456.481 887.866 455.463 886.532 454.058 886.022V783.657C455.463 783.147 456.481 781.813 456.481 780.235Z" fill="#141D38"/>
<path d="M441.939 849.619V768.611L466.176 744.342V577.374C467.582 576.864 468.6 575.53 468.6 573.952C468.6 571.938 466.976 570.312 464.965 570.312C462.953 570.312 461.329 571.938 461.329 573.952C461.329 575.53 462.347 576.864 463.753 577.374V743.323L439.515 767.591V849.619C438.109 850.129 437.091 851.464 437.091 853.041C437.091 855.055 438.715 856.681 440.727 856.681C442.738 856.681 444.362 855.055 444.362 853.041C444.362 851.464 443.344 850.129 441.939 849.619Z" fill="#141D38"/>
<path d="M502.533 898.156V767.591L490.414 755.457V622.975L502.533 610.84V565.215C503.939 564.706 504.957 563.371 504.957 561.793C504.957 559.779 503.333 558.153 501.321 558.153C499.31 558.153 497.686 559.779 497.686 561.793C497.686 563.371 498.704 564.706 500.109 565.215V609.821L487.99 621.955V756.428L500.109 768.562V898.108C498.704 898.617 497.686 899.952 497.686 901.53C497.686 903.544 499.31 905.17 501.321 905.17C503.333 905.17 504.957 903.544 504.957 901.53C504.957 900.001 503.939 898.666 502.533 898.156Z" fill="#141D38"/>
<path d="M468.6 88.5804C468.6 86.5661 466.976 84.9401 464.965 84.9401C462.953 84.9401 461.329 86.5661 461.329 88.5804C461.329 90.1579 462.347 91.4927 463.753 92.0023V331.776L485.93 353.982C485.712 354.467 485.567 354.977 485.567 355.535C485.567 357.549 487.191 359.175 489.202 359.175C491.214 359.175 492.838 357.549 492.838 355.535C492.838 353.521 491.214 351.895 489.202 351.895C488.645 351.895 488.112 352.04 487.651 352.259L466.176 330.757V92.0023C467.582 91.4927 468.6 90.1579 468.6 88.5804Z" fill="#141D38"/>
<path d="M475.872 31.3309V319.642L500.11 343.91V376.382C498.704 376.891 497.686 378.226 497.686 379.804C497.686 381.818 499.31 383.444 501.321 383.444C503.333 383.444 504.957 381.818 504.957 379.804C504.957 378.226 503.939 376.891 502.533 376.382V342.891L478.296 318.623V31.3309C479.701 30.8213 480.719 29.4865 480.719 27.9091C480.719 25.8948 479.095 24.2688 477.084 24.2688C475.072 24.2688 473.448 25.8948 473.448 27.9091C473.448 29.4865 474.466 30.8213 475.872 31.3309Z" fill="#141D38"/>
<path d="M538.89 561.308L528.832 551.237C529.05 550.751 529.195 550.242 529.195 549.684C529.195 547.669 527.571 546.043 525.559 546.043C523.548 546.043 521.924 547.669 521.924 549.684C521.924 551.698 523.548 553.324 525.559 553.324C526.117 553.324 526.65 553.178 527.111 552.96L536.467 562.327V598.73L548.585 610.865V779.75L536.467 791.884V861.778C535.061 862.287 534.043 863.622 534.043 865.2C534.043 867.214 535.667 868.84 537.678 868.84C539.69 868.84 541.314 867.214 541.314 865.2C541.314 863.622 540.296 862.287 538.89 861.778V792.903L551.009 780.769V609.894L538.89 597.76V561.308Z" fill="#141D38"/>
<path d="M925.486 461.103C923.911 461.103 922.577 462.123 922.068 463.53H610.901L598.782 451.396H589.572C589.063 449.988 587.73 448.969 586.154 448.969C584.143 448.969 582.519 450.595 582.519 452.609C582.519 454.624 584.143 456.25 586.154 456.25C587.73 456.25 589.063 455.23 589.572 453.823H597.765L609.883 465.957H922.068C922.577 467.365 923.911 468.384 925.486 468.384C927.498 468.384 929.122 466.758 929.122 464.744C929.122 462.729 927.498 461.103 925.486 461.103Z" fill="#141D38"/>
<path d="M598.274 504.787C599.849 504.787 601.182 503.767 601.691 502.36H610.902L635.14 478.091H837.236C837.745 479.499 839.078 480.518 840.653 480.518C842.665 480.518 844.289 478.892 844.289 476.878C844.289 474.864 842.665 473.238 840.653 473.238C839.078 473.238 837.745 474.257 837.236 475.664H634.122L609.884 499.933H601.691C601.182 498.525 599.849 497.506 598.274 497.506C596.262 497.506 594.638 499.132 594.638 501.146C594.638 503.161 596.262 504.787 598.274 504.787Z" fill="#141D38"/>
<path d="M598.274 480.518C599.849 480.518 601.182 479.499 601.691 478.091H619.094C619.603 479.499 620.936 480.518 622.511 480.518C624.523 480.518 626.147 478.892 626.147 476.878C626.147 474.864 624.523 473.238 622.511 473.238C620.936 473.238 619.603 474.257 619.094 475.664H601.691C601.182 474.257 599.849 473.238 598.274 473.238C596.262 473.238 594.638 474.864 594.638 476.878C594.638 478.892 596.262 480.518 598.274 480.518Z" fill="#141D38"/>
<path d="M852.772 504.787C854.784 504.787 856.408 503.161 856.408 501.147C856.408 499.132 854.784 497.506 852.772 497.506C851.197 497.506 849.864 498.526 849.355 499.933H658.359L646.241 512.067H613.81C613.301 510.66 611.968 509.641 610.393 509.641C608.381 509.641 606.757 511.267 606.757 513.281C606.757 515.295 608.381 516.921 610.393 516.921C611.968 516.921 613.301 515.902 613.81 514.494H647.258L659.377 502.36H849.355C849.864 503.768 851.197 504.787 852.772 504.787Z" fill="#141D38"/>
<path d="M901.248 485.372C899.673 485.372 898.34 486.391 897.831 487.798H646.241L636.182 497.87C635.697 497.652 635.188 497.506 634.631 497.506C632.619 497.506 630.995 499.132 630.995 501.146C630.995 503.16 632.619 504.786 634.631 504.786C636.642 504.786 638.266 503.16 638.266 501.146C638.266 500.588 638.121 500.054 637.903 499.593L647.259 490.225H897.831C898.34 491.633 899.673 492.652 901.248 492.652C903.26 492.652 904.884 491.026 904.884 489.012C904.884 486.998 903.26 485.372 901.248 485.372Z" fill="#141D38"/>
<path d="M524.348 635.133L536.467 647.268V764.679C535.061 765.189 534.043 766.524 534.043 768.101C534.043 770.115 535.667 771.741 537.678 771.741C539.69 771.741 541.314 770.115 541.314 768.101C541.314 766.524 540.296 765.189 538.89 764.679V646.248L526.771 634.114V622.975L536.127 613.607C536.612 613.826 537.121 613.971 537.678 613.971C539.69 613.971 541.314 612.345 541.314 610.331C541.314 608.317 539.69 606.691 537.678 606.691C535.667 606.691 534.043 608.317 534.043 610.331C534.043 610.889 534.188 611.423 534.406 611.884L524.348 621.956V635.133Z" fill="#141D38"/>
<path d="M563.128 574.462V549.198L553.07 539.127C553.288 538.641 553.433 538.132 553.433 537.574C553.433 535.559 551.809 533.933 549.798 533.933C547.786 533.933 546.162 535.559 546.162 537.574C546.162 539.588 547.786 541.214 549.798 541.214C550.355 541.214 550.888 541.068 551.349 540.85L560.705 550.218V573.491L551.349 582.859C550.864 582.64 550.355 582.495 549.798 582.495C547.786 582.495 546.162 584.121 546.162 586.135C546.162 588.149 547.786 589.775 549.798 589.775C551.809 589.775 553.433 588.149 553.433 586.135C553.433 585.577 553.288 585.043 553.07 584.582L563.128 574.462Z" fill="#141D38"/>
<path d="M740.283 512.067H674.405C673.896 510.66 672.563 509.64 670.987 509.64C668.976 509.64 667.352 511.266 667.352 513.281C667.352 515.295 668.976 516.921 670.987 516.921C672.563 516.921 673.896 515.902 674.405 514.494H740.283C740.792 515.902 742.125 516.921 743.701 516.921C745.713 516.921 747.337 515.295 747.337 513.281C747.337 511.266 745.713 509.64 743.701 509.64C742.125 509.64 740.792 510.66 740.283 512.067Z" fill="#141D38"/>
<path d="M877.01 509.64C875.435 509.64 874.102 510.66 873.593 512.067H767.43L755.311 524.202H662.286C661.777 522.794 660.444 521.775 658.869 521.775C656.857 521.775 655.233 523.401 655.233 525.415C655.233 527.429 656.857 529.055 658.869 529.055C660.444 529.055 661.777 528.036 662.286 526.628H756.329L768.448 514.494H873.593C874.102 515.902 875.435 516.921 877.01 516.921C879.022 516.921 880.646 515.295 880.646 513.281C880.646 511.266 879.022 509.64 877.01 509.64Z" fill="#141D38"/>
<path d="M574.036 521.774C572.024 521.774 570.4 523.4 570.4 525.415C570.4 527.429 572.024 529.055 574.036 529.055C575.611 529.055 576.944 528.036 577.453 526.628H622.003L634.122 538.762H764.522C765.031 540.17 766.364 541.189 767.939 541.189C769.951 541.189 771.575 539.563 771.575 537.549C771.575 535.535 769.951 533.909 767.939 533.909C766.364 533.909 765.031 534.928 764.522 536.336H635.139L623.021 524.201H577.453C576.944 522.794 575.611 521.774 574.036 521.774Z" fill="#141D38"/>
<path d="M514.652 837.485V755.457L502.533 743.323V635.109L514.652 622.975V586.572L524.008 577.204C524.493 577.423 525.002 577.568 525.559 577.568C527.571 577.568 529.195 575.942 529.195 573.928C529.195 571.914 527.571 570.288 525.559 570.288C523.548 570.288 521.924 571.914 521.924 573.928C521.924 574.486 522.069 575.02 522.287 575.481L512.229 585.553V621.956L500.11 634.09V744.294L512.229 756.428V837.436C510.823 837.946 509.805 839.281 509.805 840.858C509.805 842.873 511.429 844.499 513.44 844.499C515.452 844.499 517.076 842.873 517.076 840.858C517.076 839.329 516.058 837.995 514.652 837.485Z" fill="#141D38"/>
<path d="M526.771 801.082V658.383L516.713 648.311C516.931 647.826 517.076 647.316 517.076 646.758C517.076 644.744 515.452 643.118 513.441 643.118C511.429 643.118 509.805 644.744 509.805 646.758C509.805 648.772 511.429 650.398 513.441 650.398C513.998 650.398 514.531 650.253 514.992 650.034L524.348 659.402V801.082C522.942 801.592 521.924 802.926 521.924 804.504C521.924 806.518 523.548 808.144 525.559 808.144C527.571 808.144 529.195 806.518 529.195 804.504C529.195 802.926 528.177 801.592 526.771 801.082Z" fill="#141D38"/>
<path d="M405.581 343.91V201.211C406.987 200.701 408.005 199.366 408.005 197.789C408.005 195.775 406.381 194.149 404.37 194.149C402.358 194.149 400.734 195.775 400.734 197.789C400.734 199.366 401.752 200.701 403.158 201.211V342.891L378.92 367.159V400.65C377.514 401.16 376.496 402.495 376.496 404.072C376.496 406.086 378.12 407.712 380.132 407.712C382.143 407.712 383.767 406.086 383.767 404.072C383.767 402.495 382.749 401.16 381.344 400.65V368.179L405.581 343.91Z" fill="#141D38"/>
<path d="M352.475 478.091C352.984 479.499 354.318 480.518 355.893 480.518C357.905 480.518 359.529 478.892 359.529 476.878C359.529 474.864 357.905 473.238 355.893 473.238C354.318 473.238 352.984 474.257 352.475 475.665H344.283L332.164 463.53H262.359C261.85 462.123 260.517 461.103 258.942 461.103C256.93 461.103 255.306 462.729 255.306 464.744C255.306 466.758 256.93 468.384 258.942 468.384C260.517 468.384 261.85 467.365 262.359 465.957H331.146L343.265 478.091H352.475Z" fill="#141D38"/>
<path d="M173.6 441.688L185.719 453.823H316.119C316.628 455.23 317.961 456.25 319.537 456.25C321.549 456.25 323.173 454.624 323.173 452.609C323.173 450.595 321.549 448.969 319.537 448.969C317.961 448.969 316.628 449.988 316.119 451.396H186.737L174.618 439.262H7.86087C7.35187 437.854 6.01878 436.835 4.44331 436.835C2.43156 436.835 0.807617 438.461 0.807617 440.475C0.807617 442.489 2.43156 444.115 4.44331 444.115C6.01878 444.115 7.35187 443.096 7.86087 441.688H173.6Z" fill="#141D38"/>
<path d="M400.734 391.938C400.734 393.952 402.358 395.578 404.37 395.578C406.381 395.578 408.005 393.952 408.005 391.938C408.005 390.36 406.987 389.025 405.581 388.516V379.294L395.523 369.222C395.741 368.737 395.886 368.227 395.886 367.669C395.886 365.655 394.262 364.029 392.251 364.029C390.239 364.029 388.615 365.655 388.615 367.669C388.615 369.683 390.239 371.309 392.251 371.309C392.808 371.309 393.341 371.164 393.802 370.945L403.158 380.313V388.516C401.752 389.025 400.734 390.36 400.734 391.938Z" fill="#141D38"/>
<path d="M412.853 379.803C412.853 381.818 414.477 383.444 416.489 383.444C418.5 383.444 420.124 381.818 420.124 379.803C420.124 378.226 419.106 376.891 417.701 376.382V358.957C419.106 358.447 420.124 357.112 420.124 355.535C420.124 353.521 418.5 351.895 416.489 351.895C414.477 351.895 412.853 353.521 412.853 355.535C412.853 357.112 413.871 358.447 415.277 358.957V376.382C413.871 376.891 412.853 378.226 412.853 379.803Z" fill="#141D38"/>
<path d="M343.774 456.25C345.786 456.25 347.41 454.624 347.41 452.609C347.41 450.595 345.786 448.969 343.774 448.969C343.216 448.969 342.683 449.115 342.223 449.333L332.164 439.262H201.765C201.256 437.854 199.923 436.835 198.347 436.835C196.335 436.835 194.711 438.461 194.711 440.475C194.711 442.489 196.335 444.115 198.347 444.115C199.923 444.115 201.256 443.096 201.765 441.688H331.146L340.502 451.056C340.284 451.541 340.138 452.051 340.138 452.609C340.138 454.624 341.762 456.25 343.774 456.25Z" fill="#141D38"/>
<path d="M149.87 468.384C151.882 468.384 153.506 466.758 153.506 464.744C153.506 462.729 151.882 461.103 149.87 461.103C149.313 461.103 148.78 461.249 148.319 461.467L138.26 451.396H68.4555C67.9465 449.988 66.6135 448.969 65.038 448.969C63.0263 448.969 61.4023 450.595 61.4023 452.609C61.4023 454.624 63.0263 456.25 65.038 456.25C66.6135 456.25 67.9465 455.23 68.4555 453.823H137.242L146.598 463.19C146.38 463.676 146.235 464.185 146.235 464.744C146.235 466.758 147.859 468.384 149.87 468.384Z" fill="#141D38"/>
<path d="M40.8 473.237C38.7883 473.237 37.1643 474.863 37.1643 476.878C37.1643 478.892 38.7883 480.518 40.8 480.518C42.3755 480.518 43.7086 479.499 44.2176 478.091H150.38L162.499 465.957H234.219L246.338 478.091H316.143C316.652 479.499 317.985 480.518 319.561 480.518C321.573 480.518 323.197 478.892 323.197 476.878C323.197 474.863 321.573 473.237 319.561 473.237C317.985 473.237 316.652 474.257 316.143 475.664H247.356L235.237 463.53H161.481L149.362 475.664H44.2176C43.7086 474.257 42.3755 473.237 40.8 473.237Z" fill="#141D38"/>
<path d="M174.109 480.518C175.685 480.518 177.018 479.499 177.527 478.091H222.076L234.195 490.226H267.643C268.152 491.633 269.485 492.652 271.06 492.652C273.072 492.652 274.696 491.026 274.696 489.012C274.696 486.998 273.072 485.372 271.06 485.372C269.485 485.372 268.152 486.391 267.643 487.799H235.213L223.094 475.664H177.527C177.018 474.257 175.685 473.238 174.109 473.238C172.098 473.238 170.474 474.864 170.474 476.878C170.474 478.892 172.098 480.518 174.109 480.518Z" fill="#141D38"/>
<path d="M210.466 492.652C211.023 492.652 211.557 492.507 212.017 492.288L222.076 502.36H283.664L295.783 490.225H328.213C328.722 491.633 330.055 492.652 331.631 492.652C333.642 492.652 335.266 491.026 335.266 489.012C335.266 486.998 333.642 485.372 331.631 485.372C330.055 485.372 328.722 486.391 328.213 487.798H294.765L282.646 499.933H223.045L213.69 490.565C213.908 490.08 214.053 489.57 214.053 489.012C214.053 486.998 212.429 485.372 210.417 485.372C208.406 485.372 206.782 486.998 206.782 489.012C206.782 491.026 208.454 492.652 210.466 492.652Z" fill="#141D38"/>
<path d="M405.582 825.35V755.457L393.463 743.323V585.577L381.344 573.443V537.04L344.284 499.933H306.933L294.814 512.067H210.975L186.737 487.799H19.98C19.471 486.391 18.1379 485.372 16.5625 485.372C14.5507 485.372 12.9268 486.998 12.9268 489.012C12.9268 491.026 14.5507 492.652 16.5625 492.652C18.1379 492.652 19.471 491.633 19.98 490.225H185.719L209.957 514.494H295.784L307.903 502.36H343.266L378.92 538.059V574.462L391.039 586.596V744.342L403.158 756.476V825.35C401.752 825.86 400.734 827.195 400.734 828.772C400.734 830.787 402.358 832.413 404.37 832.413C406.382 832.413 408.006 830.787 408.006 828.772C408.006 827.195 406.988 825.86 405.582 825.35Z" fill="#141D38"/>
<path d="M408.006 622.489C408.006 620.475 406.382 618.849 404.37 618.849C402.358 618.849 400.734 620.475 400.734 622.489C400.734 624.067 401.752 625.402 403.158 625.911V728.276C401.752 728.786 400.734 730.121 400.734 731.698C400.734 733.712 402.358 735.338 404.37 735.338C406.382 735.338 408.006 733.712 408.006 731.698C408.006 730.121 406.988 728.786 405.582 728.276V625.911C406.988 625.402 408.006 624.067 408.006 622.489Z" fill="#141D38"/>
<path d="M393.463 331.727V306.512L371.285 284.306C371.503 283.821 371.649 283.311 371.649 282.753C371.649 280.739 370.025 279.113 368.013 279.113C366.001 279.113 364.377 280.739 364.377 282.753C364.377 284.768 366.001 286.394 368.013 286.394C368.57 286.394 369.104 286.248 369.564 286.03L391.039 307.532V330.854L366.801 358.763V388.564C365.395 389.074 364.377 390.409 364.377 391.986C364.377 394.001 366.001 395.627 368.013 395.627C370.025 395.627 371.649 394.001 371.649 391.986C371.649 390.409 370.631 389.074 369.225 388.564V359.685L393.463 331.727Z" fill="#141D38"/>
<path d="M28.6811 431.981C30.2566 431.981 31.5897 430.962 32.0987 429.554H126.142L138.261 417.42H223.094L235.213 405.285H307.927L344.987 368.179V331.776L357.106 319.642V271.104L369.225 258.97V176.942C370.63 176.433 371.648 175.098 371.648 173.52C371.648 171.506 370.024 169.88 368.013 169.88C366.001 169.88 364.377 171.506 364.377 173.52C364.377 175.098 365.395 176.433 366.801 176.942V257.951L354.682 270.085V318.622L342.563 330.757V367.159L306.909 402.859H234.195L222.076 414.993H137.243L125.124 427.127H32.0987C31.5897 425.72 30.2566 424.7 28.6811 424.7C26.6694 424.7 25.0454 426.326 25.0454 428.341C25.0454 430.355 26.6694 431.981 28.6811 431.981Z" fill="#141D38"/>
<path d="M250.241 417.42H291.881C292.39 418.827 293.723 419.847 295.299 419.847C297.31 419.847 298.934 418.221 298.934 416.206C298.934 414.192 297.31 412.566 295.299 412.566C293.723 412.566 292.39 413.585 291.881 414.993H250.241C249.732 413.585 248.399 412.566 246.823 412.566C244.811 412.566 243.188 414.192 243.188 416.206C243.188 418.221 244.811 419.847 246.823 419.847C248.399 419.847 249.732 418.827 250.241 417.42Z" fill="#141D38"/>
<path d="M331.656 400.432C329.644 400.432 328.02 402.058 328.02 404.072C328.02 406.086 329.644 407.712 331.656 407.712C333.667 407.712 335.291 406.086 335.291 404.072C335.291 403.514 335.146 402.98 334.928 402.519L342.223 395.214C342.708 395.432 343.217 395.578 343.775 395.578C345.786 395.578 347.41 393.952 347.41 391.938C347.41 389.923 345.786 388.297 343.775 388.297C341.763 388.297 340.139 389.923 340.139 391.938C340.139 392.496 340.284 393.03 340.502 393.491L333.207 400.796C332.746 400.577 332.213 400.432 331.656 400.432Z" fill="#141D38"/>
<path d="M306.206 164.808V210.433L330.444 234.702V271.104L342.563 283.239V306.512L330.444 318.647V355.05L294.79 390.749H210.951L198.832 378.614H174.594L141 344.978C141.218 344.493 141.363 343.983 141.363 343.425C141.363 341.411 139.739 339.785 137.728 339.785C135.716 339.785 134.092 341.411 134.092 343.425C134.092 345.439 135.716 347.065 137.728 347.065C138.285 347.065 138.818 346.92 139.279 346.701L173.576 381.041H197.814L209.933 393.175H295.759L332.819 356.069V319.666L344.938 307.532V282.268L332.819 270.134V233.731L308.581 209.462V164.808C309.987 164.298 311.005 162.964 311.005 161.386C311.005 159.372 309.381 157.746 307.369 157.746C305.358 157.746 303.734 159.372 303.734 161.386C303.782 162.964 304.8 164.298 306.206 164.808Z" fill="#141D38"/>
<path d="M283.18 213.563C283.738 213.563 284.271 213.418 284.731 213.199L318.325 246.836V283.239L328.384 293.31C328.165 293.795 328.02 294.305 328.02 294.863C328.02 296.877 329.644 298.503 331.656 298.503C333.667 298.503 335.291 296.877 335.291 294.863C335.291 292.849 333.667 291.223 331.656 291.223C331.098 291.223 330.565 291.368 330.104 291.587L320.749 282.219V245.816L286.452 211.476C286.67 210.991 286.816 210.481 286.816 209.923C286.816 207.909 285.192 206.283 283.18 206.283C281.168 206.283 279.544 207.909 279.544 209.923C279.544 211.937 281.168 213.563 283.18 213.563Z" fill="#141D38"/>
<path d="M315.901 343.401C315.901 345.415 317.525 347.041 319.537 347.041C321.549 347.041 323.172 345.415 323.172 343.401C323.172 341.823 322.154 340.488 320.749 339.979V306.488L308.63 294.354V261.883C310.036 261.373 311.054 260.038 311.054 258.461C311.054 256.446 309.43 254.82 307.418 254.82C305.406 254.82 303.782 256.446 303.782 258.461C303.782 260.038 304.8 261.373 306.206 261.883V295.373L318.325 307.507V339.979C316.919 340.488 315.901 341.823 315.901 343.401Z" fill="#141D38"/>
<path d="M161.99 322.772C162.548 322.772 163.081 322.627 163.541 322.408L185.016 343.91V356.045L197.838 368.883H222.076L234.194 381.017H283.664L308.604 356.045V318.647L296.486 306.512V270.109L274.308 247.904C274.526 247.418 274.672 246.909 274.672 246.35C274.672 244.336 273.048 242.71 271.036 242.71C269.024 242.71 267.4 244.336 267.4 246.35C267.4 248.365 269.024 249.991 271.036 249.991C271.593 249.991 272.127 249.845 272.587 249.627L294.062 271.129V307.532L306.181 319.666V355.074L282.646 378.639H235.164L223.045 366.504H198.807L187.391 355.074V342.939L165.214 320.734C165.432 320.248 165.577 319.739 165.577 319.181C165.577 317.166 163.953 315.54 161.942 315.54C159.93 315.54 158.306 317.166 158.306 319.181C158.306 321.195 159.978 322.772 161.99 322.772Z" fill="#141D38"/>
<path d="M101.395 298.504C101.952 298.504 102.486 298.358 102.946 298.14L125.124 320.346H137.243L170.836 353.982C170.618 354.467 170.473 354.977 170.473 355.535C170.473 357.549 172.097 359.175 174.108 359.175C176.12 359.175 177.744 357.549 177.744 355.535C177.744 353.521 176.12 351.895 174.108 351.895C173.551 351.895 173.018 352.04 172.557 352.259L138.261 317.919H126.142L104.667 296.417C104.885 295.931 105.031 295.422 105.031 294.863C105.031 292.849 103.407 291.223 101.395 291.223C99.3832 291.223 97.7593 292.849 97.7593 294.863C97.7593 296.878 99.3832 298.504 101.395 298.504Z" fill="#141D38"/>
<path d="M198.347 225.698C198.905 225.698 199.438 225.552 199.898 225.334L269.849 295.373V307.507L294.086 331.776V342.915L270.551 366.48H250.24C249.731 365.072 248.398 364.053 246.823 364.053C244.811 364.053 243.187 365.679 243.187 367.693C243.187 369.708 244.811 371.334 246.823 371.334C248.398 371.334 249.731 370.314 250.24 368.907H271.569L296.51 343.934V330.805L272.272 306.537V294.402L201.619 223.659C201.837 223.174 201.983 222.664 201.983 222.106C201.983 220.092 200.359 218.466 198.347 218.466C196.335 218.466 194.711 220.092 194.711 222.106C194.711 224.12 196.335 225.698 198.347 225.698Z" fill="#141D38"/>
<path d="M357.106 437.053V427.831L344.284 414.993H319.052L306.933 427.127H153.289C152.78 425.72 151.447 424.701 149.871 424.701C147.859 424.701 146.235 426.327 146.235 428.341C146.235 430.355 147.859 431.981 149.871 431.981C151.447 431.981 152.78 430.962 153.289 429.554H307.927L320.046 417.42H343.29L354.706 428.85V437.053C353.3 437.563 352.282 438.898 352.282 440.475C352.282 442.489 353.906 444.115 355.918 444.115C357.93 444.115 359.554 442.489 359.554 440.475C359.529 438.898 358.511 437.563 357.106 437.053Z" fill="#141D38"/>
<path d="M364.377 428.341C364.377 430.355 366.001 431.981 368.013 431.981C370.024 431.981 371.648 430.355 371.648 428.341C371.648 426.763 370.63 425.428 369.225 424.919V415.697L357.106 403.562V343.886L369.225 331.752V319.496L375.526 310.468C375.841 310.565 376.157 310.614 376.496 310.614C378.508 310.614 380.132 308.988 380.132 306.973C380.132 304.959 378.508 303.333 376.496 303.333C374.484 303.333 372.86 304.959 372.86 306.973C372.86 307.774 373.127 308.478 373.539 309.085L366.801 318.719V330.732L354.682 342.867V404.533L366.801 416.667V424.87C365.395 425.428 364.377 426.763 364.377 428.341Z" fill="#141D38"/>
<path d="M428.099 330.053L418.04 340.124C417.555 339.906 417.046 339.76 416.489 339.76C414.477 339.76 412.853 341.386 412.853 343.4C412.853 345.415 414.477 347.041 416.489 347.041C418.5 347.041 420.124 345.415 420.124 343.4C420.124 342.842 419.979 342.308 419.761 341.847L429.117 332.48H440.242L475.896 368.179V388.516C474.49 389.025 473.472 390.36 473.472 391.938C473.472 393.952 475.096 395.578 477.107 395.578C479.119 395.578 480.743 393.952 480.743 391.938C480.743 390.36 479.725 389.025 478.319 388.516V367.159L441.26 330.053H428.099Z" fill="#141D38"/>
<path d="M464.964 407.712C466.976 407.712 468.6 406.086 468.6 404.072C468.6 402.058 466.976 400.432 464.964 400.432C464.407 400.432 463.874 400.577 463.413 400.796L453.354 390.724H432.025C431.516 389.317 430.183 388.297 428.608 388.297C426.596 388.297 424.972 389.923 424.972 391.938C424.972 393.952 426.596 395.578 428.608 395.578C430.183 395.578 431.516 394.559 432.025 393.151H452.336L461.692 402.519C461.474 403.004 461.329 403.514 461.329 404.072C461.329 406.086 462.953 407.712 464.964 407.712Z" fill="#141D38"/>
<path d="M464.964 364.029C462.953 364.029 461.329 365.655 461.329 367.669C461.329 368.228 461.474 368.761 461.692 369.223L452.336 378.59H429.82V356.045L439.175 346.677C439.66 346.895 440.169 347.041 440.727 347.041C442.738 347.041 444.362 345.415 444.362 343.401C444.362 341.386 442.738 339.76 440.727 339.76C438.715 339.76 437.091 341.386 437.091 343.401C437.091 343.959 437.236 344.493 437.454 344.954L427.396 355.025V381.017H453.354L463.413 370.946C463.898 371.164 464.407 371.31 464.964 371.31C466.976 371.31 468.6 369.684 468.6 367.669C468.6 365.655 466.976 364.029 464.964 364.029Z" fill="#141D38"/>
<path d="M440.727 364.029C438.715 364.029 437.091 365.655 437.091 367.669C437.091 369.683 438.715 371.309 440.727 371.309C442.738 371.309 444.362 369.683 444.362 367.669C444.362 367.111 444.217 366.577 443.999 366.116L451.294 358.811C451.779 359.03 452.288 359.175 452.846 359.175C454.857 359.175 456.481 357.549 456.481 355.535C456.481 353.521 454.857 351.895 452.846 351.895C450.834 351.895 449.21 353.521 449.21 355.535C449.21 356.093 449.355 356.627 449.574 357.088L442.278 364.393C441.817 364.174 441.284 364.029 440.727 364.029Z" fill="#141D38"/>
<path d="M427.396 283.239L437.454 293.31C437.236 293.796 437.091 294.305 437.091 294.863C437.091 296.878 438.715 298.504 440.727 298.504C442.738 298.504 444.362 296.878 444.362 294.863C444.362 292.849 442.738 291.223 440.727 291.223C440.169 291.223 439.636 291.369 439.175 291.587L429.82 282.219V234.677L439.175 225.31C439.66 225.528 440.169 225.674 440.727 225.674C442.738 225.674 444.362 224.048 444.362 222.033C444.362 220.019 442.738 218.393 440.727 218.393C438.715 218.393 437.091 220.019 437.091 222.033C437.091 222.591 437.236 223.125 437.454 223.586L427.396 233.658V283.239Z" fill="#141D38"/>
<path d="M427.396 174.03V206.501C425.99 207.011 424.972 208.346 424.972 209.923C424.972 211.937 426.596 213.563 428.608 213.563C430.619 213.563 432.243 211.937 432.243 209.923C432.243 208.346 431.225 207.011 429.819 206.501V173.011L417.701 160.876V104.136C419.106 103.627 420.124 102.292 420.124 100.714C420.124 98.7002 418.5 97.0742 416.489 97.0742C414.477 97.0742 412.853 98.7002 412.853 100.714C412.853 102.292 413.871 103.627 415.277 104.136V161.896L427.396 174.03Z" fill="#141D38"/>
<path d="M376.496 258.46C376.496 260.475 378.12 262.101 380.132 262.101C382.143 262.101 383.767 260.475 383.767 258.46C383.767 256.859 382.725 255.5 381.271 255.014L379.744 186.189L393.463 174.054V79.8679C394.868 79.3582 395.886 78.0235 395.886 76.446C395.886 74.4317 394.262 72.8057 392.251 72.8057C390.239 72.8057 388.615 74.4317 388.615 76.446C388.615 78.0235 389.633 79.3582 391.039 79.8679V172.986L377.296 185.121L378.847 255.063C377.466 255.597 376.496 256.907 376.496 258.46Z" fill="#141D38"/>
<path d="M380.132 286.37C382.143 286.37 383.767 284.744 383.767 282.729C383.767 282.171 383.622 281.637 383.404 281.176L393.463 271.105V186.868H415.277V320.346H449.428C449.937 321.753 451.27 322.772 452.845 322.772C454.857 322.772 456.481 321.146 456.481 319.132C456.481 317.118 454.857 315.492 452.845 315.492C451.27 315.492 449.937 316.511 449.428 317.919H417.7V184.441H391.039V270.085L381.683 279.453C381.198 279.235 380.689 279.089 380.132 279.089C378.12 279.089 376.496 280.715 376.496 282.729C376.496 284.744 378.12 286.37 380.132 286.37Z" fill="#141D38"/>
<path d="M428.608 310.638C430.183 310.638 431.516 309.619 432.025 308.211H441.235L454.057 295.373V209.438L441.938 197.303V140.539C443.344 140.03 444.362 138.695 444.362 137.117C444.362 135.103 442.738 133.477 440.726 133.477C438.715 133.477 437.091 135.103 437.091 137.117C437.091 138.695 438.109 140.03 439.515 140.539V198.298L451.633 210.433V294.378L440.217 305.808H432.025C431.516 304.401 430.183 303.381 428.608 303.381C426.596 303.381 424.972 305.007 424.972 307.022C424.972 309.036 426.596 310.638 428.608 310.638Z" fill="#141D38"/>
<path d="M444.362 234.192C444.362 232.178 442.738 230.552 440.727 230.552C438.715 230.552 437.091 232.178 437.091 234.192C437.091 235.769 438.109 237.104 439.515 237.614V279.307C438.109 279.817 437.091 281.152 437.091 282.729C437.091 284.743 438.715 286.369 440.727 286.369C442.738 286.369 444.362 284.743 444.362 282.729C444.362 281.152 443.344 279.817 441.939 279.307V237.614C443.344 237.104 444.362 235.769 444.362 234.192Z" fill="#141D38"/>
<path d="M404.37 177.161C406.382 177.161 408.006 175.535 408.006 173.521C408.006 171.943 406.988 170.608 405.582 170.099V89.0901L417.701 76.9558V55.5994C419.107 55.0898 420.125 53.755 420.125 52.1776C420.125 50.1633 418.501 48.5373 416.489 48.5373C414.477 48.5373 412.853 50.1633 412.853 52.1776C412.853 53.755 413.871 55.0898 415.277 55.5994V75.9365L403.158 88.0708V170.099C401.752 170.608 400.734 171.943 400.734 173.521C400.734 175.535 402.358 177.161 404.37 177.161Z" fill="#141D38"/>
<path d="M424.972 112.849C424.972 114.863 426.596 116.489 428.608 116.489C430.619 116.489 432.243 114.863 432.243 112.849C432.243 111.271 431.225 109.937 429.819 109.427V7.06216C431.225 6.55252 432.243 5.21775 432.243 3.64029C432.243 1.626 430.619 0 428.608 0C426.596 0 424.972 1.626 424.972 3.64029C424.972 5.21775 425.99 6.55252 427.396 7.06216V109.427C425.99 109.937 424.972 111.271 424.972 112.849Z" fill="#141D38"/>
<path d="M428.608 165.027C430.619 165.027 432.243 163.401 432.243 161.386C432.243 159.809 431.225 158.474 429.819 157.964V137.627L441.938 125.493V67.7338C443.344 67.2242 444.362 65.8894 444.362 64.3119C444.362 62.2976 442.738 60.6716 440.726 60.6716C438.715 60.6716 437.091 62.2976 437.091 64.3119C437.091 65.8894 438.109 67.2242 439.515 67.7338V124.474L427.396 136.608V157.964C425.99 158.474 424.972 159.809 424.972 161.386C424.972 163.401 426.596 165.027 428.608 165.027Z" fill="#141D38"/>
<path d="M452.846 189.295C454.857 189.295 456.481 187.669 456.481 185.655C456.481 184.077 455.463 182.742 454.058 182.233V89.09L466.176 76.9557V43.465C467.582 42.9554 468.6 41.6206 468.6 40.0432C468.6 38.0289 466.976 36.4029 464.965 36.4029C462.953 36.4029 461.329 38.0289 461.329 40.0432C461.329 41.6206 462.347 42.9554 463.753 43.465V75.9364L451.634 88.0707V182.233C450.228 182.742 449.21 184.077 449.21 185.655C449.21 187.669 450.834 189.295 452.846 189.295Z" fill="#141D38"/>
<path d="M198.346 541.19C200.358 541.19 201.982 539.564 201.982 537.549C201.982 535.535 200.358 533.909 198.346 533.909C197.789 533.909 197.256 534.055 196.795 534.273L186.736 524.202H161.481L139.303 546.407C138.818 546.189 138.309 546.043 137.752 546.043C135.74 546.043 134.116 547.669 134.116 549.684C134.116 551.698 135.74 553.324 137.752 553.324C139.764 553.324 141.388 551.698 141.388 549.684C141.388 549.126 141.242 548.592 141.024 548.13L162.499 526.629H185.743L195.098 535.996C194.88 536.482 194.735 536.991 194.735 537.549C194.711 539.564 196.335 541.19 198.346 541.19Z" fill="#141D38"/>
<path d="M381.342 631.202V597.711L369.223 585.577V549.174L332.164 512.067H319.051L306.932 524.202H234.219L224.16 534.273C223.676 534.055 223.167 533.909 222.609 533.909C220.597 533.909 218.973 535.535 218.973 537.549C218.973 539.564 220.597 541.19 222.609 541.19C224.621 541.19 226.245 539.564 226.245 537.549C226.245 536.991 226.099 536.457 225.881 535.996L235.237 526.628H307.95L320.069 514.494H331.194L366.848 550.193V586.596L378.967 598.73V631.202C377.561 631.711 376.543 633.046 376.543 634.624C376.543 636.638 378.167 638.264 380.179 638.264C382.191 638.264 383.815 636.638 383.815 634.624C383.766 633.046 382.748 631.711 381.342 631.202Z" fill="#141D38"/>
<path d="M565.552 622.49C565.552 620.912 564.534 619.577 563.129 619.068V598.731L575.247 586.596V550.193L586.663 538.763H606.975C607.484 540.17 608.817 541.19 610.392 541.19C612.404 541.19 614.028 539.564 614.028 537.549C614.028 535.535 612.404 533.909 610.392 533.909C608.817 533.909 607.484 534.928 606.975 536.336H585.645L572.824 549.174V585.577L560.705 597.711V619.068C559.299 619.577 558.281 620.912 558.281 622.49C558.281 624.504 559.905 626.13 561.917 626.13C563.928 626.13 565.552 624.504 565.552 622.49Z" fill="#141D38"/>
<path d="M937.605 424.7C936.03 424.7 934.697 425.72 934.188 427.127H840.144L828.025 439.261H635.115L610.877 414.993H562.401L550.282 402.859H538.163L526.747 391.428V367.159L514.628 355.025V307.483L523.984 298.115C524.469 298.334 524.978 298.479 525.535 298.479C527.547 298.479 529.171 296.853 529.171 294.839C529.171 292.825 527.547 291.199 525.535 291.199C523.524 291.199 521.9 292.825 521.9 294.839C521.9 295.397 522.045 295.931 522.263 296.392L512.205 306.464V355.996L524.324 368.13V392.399L537.145 405.237H549.264L561.383 417.371H609.859L634.097 441.64H828.995L841.114 429.505H934.139C934.648 430.913 935.981 431.932 937.557 431.932C939.568 431.932 941.192 430.306 941.192 428.292C941.192 426.278 939.617 424.7 937.605 424.7Z" fill="#141D38"/>
<path d="M601.691 441.688H609.884L622.003 453.823H885.712C886.221 455.23 887.554 456.25 889.129 456.25C891.141 456.25 892.765 454.624 892.765 452.609C892.765 450.595 891.141 448.969 889.129 448.969C887.554 448.969 886.221 449.988 885.712 451.396H623.021L610.902 439.262H601.691C601.182 437.854 599.849 436.835 598.274 436.835C596.262 436.835 594.638 438.461 594.638 440.475C594.638 442.489 596.262 444.115 598.274 444.115C599.849 444.115 601.182 443.096 601.691 441.688Z" fill="#141D38"/>
<path d="M538.89 307.507V282.244L525.559 268.896L514.992 279.477C514.507 279.259 513.998 279.113 513.441 279.113C511.429 279.113 509.805 280.739 509.805 282.753C509.805 284.768 511.429 286.394 513.441 286.394C515.452 286.394 517.076 284.768 517.076 282.753C517.076 282.195 516.931 281.661 516.713 281.2L525.559 272.342L536.467 283.263V306.537L524.348 318.671V340.027C522.942 340.537 521.924 341.872 521.924 343.449C521.924 345.464 523.548 347.09 525.559 347.09C527.571 347.09 529.195 345.464 529.195 343.449C529.195 341.872 528.177 340.537 526.771 340.027V319.69L538.89 307.507Z" fill="#141D38"/>
<path d="M536.467 376.382C535.061 376.891 534.043 378.226 534.043 379.804C534.043 381.818 535.667 383.444 537.679 383.444C539.69 383.444 541.314 381.818 541.314 379.804C541.314 378.226 540.296 376.891 538.891 376.382V331.776L551.009 319.642V234.702L563.128 222.567V55.5994C564.534 55.0898 565.552 53.755 565.552 52.1776C565.552 50.1633 563.928 48.5373 561.916 48.5373C559.905 48.5373 558.281 50.1633 558.281 52.1776C558.281 53.755 559.299 55.0898 560.705 55.5994V221.548L548.586 233.682V318.622L536.467 330.757V376.382Z" fill="#141D38"/>
<path d="M561.407 393.151H594.856C595.365 394.559 596.698 395.578 598.273 395.578C600.285 395.578 601.909 393.952 601.909 391.938C601.909 389.924 600.285 388.298 598.273 388.298C596.698 388.298 595.365 389.317 594.856 390.725H562.425L551.009 379.294V346.823C552.415 346.313 553.433 344.978 553.433 343.401C553.433 341.386 551.809 339.76 549.798 339.76C547.786 339.76 546.162 341.386 546.162 343.401C546.162 344.978 547.18 346.313 548.586 346.823V380.313L561.407 393.151Z" fill="#141D38"/>
<path d="M357.106 577.374C358.511 576.864 359.529 575.53 359.529 573.952C359.529 571.938 357.905 570.312 355.894 570.312C353.882 570.312 352.258 571.938 352.258 573.952C352.258 575.53 353.276 576.864 354.682 577.374V598.73L366.801 610.865V646.273L354.682 658.407V776.838C353.276 777.347 352.258 778.682 352.258 780.259C352.258 782.274 353.882 783.9 355.894 783.9C357.905 783.9 359.529 782.274 359.529 780.259C359.529 778.682 358.511 777.347 357.106 776.838V659.426L369.225 647.292V609.894L357.106 597.76V577.374Z" fill="#141D38"/>
<path d="M489.202 298.504C491.214 298.504 492.838 296.878 492.838 294.863C492.838 293.286 491.82 291.951 490.414 291.441V210.433L502.533 198.298V140.539C503.939 140.03 504.957 138.695 504.957 137.117C504.957 135.103 503.333 133.477 501.321 133.477C499.309 133.477 497.686 135.103 497.686 137.117C497.686 138.695 498.704 140.03 500.109 140.539V197.279L487.99 209.413V291.441C486.585 291.951 485.567 293.286 485.567 294.863C485.567 296.878 487.191 298.504 489.202 298.504Z" fill="#141D38"/>
<path d="M489.202 322.772C491.214 322.772 492.838 321.146 492.838 319.132C492.838 318.574 492.693 318.04 492.474 317.579L502.533 307.507V271.105L526.771 246.836V92.0023C528.177 91.4927 529.195 90.1579 529.195 88.5804C529.195 86.5661 527.571 84.9401 525.559 84.9401C523.547 84.9401 521.923 86.5661 521.923 88.5804C521.923 90.1579 522.941 91.4927 524.347 92.0023V245.817L500.109 270.085V306.488L490.754 315.856C490.269 315.637 489.76 315.492 489.202 315.492C487.191 315.492 485.567 317.118 485.567 319.132C485.567 321.146 487.191 322.772 489.202 322.772Z" fill="#141D38"/>
<path d="M504.957 222.058C504.957 220.043 503.333 218.417 501.322 218.417C499.31 218.417 497.686 220.043 497.686 222.058C497.686 223.635 498.704 224.97 500.11 225.48V242.904C498.704 243.414 497.686 244.749 497.686 246.326C497.686 248.341 499.31 249.967 501.322 249.967C503.333 249.967 504.957 248.341 504.957 246.326C504.957 244.749 503.939 243.414 502.534 242.904V225.48C503.939 224.97 504.957 223.635 504.957 222.058Z" fill="#141D38"/>
<path d="M509.805 234.192C509.805 236.206 511.429 237.832 513.441 237.832C515.452 237.832 517.076 236.206 517.076 234.192C517.076 232.615 516.058 231.28 514.652 230.77V67.7338C516.058 67.2242 517.076 65.8894 517.076 64.3119C517.076 62.2976 515.452 60.6716 513.441 60.6716C511.429 60.6716 509.805 62.2976 509.805 64.3119C509.805 65.8894 510.823 67.2242 512.229 67.7338V230.77C510.823 231.28 509.805 232.615 509.805 234.192Z" fill="#141D38"/>
<path d="M534.043 258.461C534.043 260.475 535.667 262.101 537.679 262.101C539.69 262.101 541.314 260.475 541.314 258.461C541.314 256.883 540.296 255.548 538.891 255.039V164.808C540.296 164.298 541.314 162.964 541.314 161.386C541.314 159.372 539.69 157.746 537.679 157.746C535.667 157.746 534.043 159.372 534.043 161.386C534.043 162.964 535.061 164.298 536.467 164.808V255.039C535.061 255.548 534.043 256.883 534.043 258.461Z" fill="#141D38"/>
<path d="M565.552 246.326C565.552 244.312 563.928 242.686 561.917 242.686C559.905 242.686 558.281 244.312 558.281 246.326C558.281 247.904 559.299 249.238 560.705 249.748V319.642L572.824 331.776V352.113C571.418 352.623 570.4 353.957 570.4 355.535C570.4 357.549 572.024 359.175 574.036 359.175C576.047 359.175 577.671 357.549 577.671 355.535C577.671 353.957 576.653 352.623 575.247 352.113V330.757L563.129 318.622V249.748C564.534 249.238 565.552 247.904 565.552 246.326Z" fill="#141D38"/>
<path d="M634.63 419.847C636.642 419.847 638.266 418.221 638.266 416.206C638.266 414.192 636.642 412.566 634.63 412.566C634.073 412.566 633.539 412.712 633.079 412.93L623.02 402.859H577.453C576.944 401.451 575.611 400.432 574.036 400.432C572.024 400.432 570.4 402.058 570.4 404.072C570.4 406.086 572.024 407.712 574.036 407.712C575.611 407.712 576.944 406.693 577.453 405.286H622.002L631.358 414.653C631.14 415.139 630.994 415.648 630.994 416.206C630.994 418.221 632.618 419.847 634.63 419.847Z" fill="#141D38"/>
<path d="M646.749 431.981C648.325 431.981 649.658 430.962 650.167 429.554H732.09L744.209 417.42H752.402C752.911 418.827 754.244 419.847 755.819 419.847C757.831 419.847 759.455 418.221 759.455 416.206C759.455 414.192 757.831 412.566 755.819 412.566C754.244 412.566 752.911 413.585 752.402 414.993H743.191L731.072 427.127H650.167C649.658 425.72 648.325 424.7 646.749 424.7C644.737 424.7 643.114 426.326 643.114 428.341C643.114 430.355 644.737 431.981 646.749 431.981Z" fill="#141D38"/>
<path d="M575.247 635.133V613.777C576.653 613.267 577.671 611.933 577.671 610.355C577.671 608.341 576.047 606.715 574.035 606.715C572.024 606.715 570.4 608.341 570.4 610.355C570.4 611.933 571.418 613.267 572.824 613.777V634.114L560.705 646.248V756.452L572.824 768.586V813.192C571.418 813.702 570.4 815.036 570.4 816.614C570.4 818.628 572.024 820.254 574.035 820.254C576.047 820.254 577.671 818.628 577.671 816.614C577.671 815.036 576.653 813.702 575.247 813.192V767.567L563.128 755.433V647.219L575.247 635.133Z" fill="#141D38"/>
<path d="M437.091 719.564C437.091 721.578 438.715 723.204 440.727 723.204C442.738 723.204 444.362 721.578 444.362 719.564C444.362 717.986 443.344 716.652 441.939 716.142V662.314C443.344 661.805 444.362 660.47 444.362 658.892C444.362 656.878 442.738 655.252 440.727 655.252C438.715 655.252 437.091 656.878 437.091 658.892C437.091 660.47 438.109 661.805 439.515 662.314V716.142C438.109 716.652 437.091 717.986 437.091 719.564Z" fill="#141D38"/>
<path d="M517.076 671.027C517.076 669.012 515.452 667.386 513.441 667.386C511.429 667.386 509.805 669.012 509.805 671.027C509.805 672.604 510.823 673.939 512.229 674.448V728.276C510.823 728.786 509.805 730.121 509.805 731.698C509.805 733.712 511.429 735.338 513.441 735.338C515.452 735.338 517.076 733.712 517.076 731.698C517.076 730.121 516.058 728.786 514.652 728.276V674.448C516.058 673.939 517.076 672.604 517.076 671.027Z" fill="#141D38"/>
<path d="M560.705 358.957V368.179L573.527 381.017H619.094C619.603 382.424 620.936 383.444 622.511 383.444C624.523 383.444 626.147 381.818 626.147 379.803C626.147 377.789 624.523 376.163 622.511 376.163C620.936 376.163 619.603 377.182 619.094 378.59H574.545L563.129 367.159V358.957C564.534 358.447 565.552 357.112 565.552 355.535C565.552 353.521 563.928 351.895 561.917 351.895C559.905 351.895 558.281 353.521 558.281 355.535C558.281 357.112 559.299 358.447 560.705 358.957Z" fill="#141D38"/>
<path d="M691.807 417.42C692.316 418.827 693.65 419.847 695.225 419.847C697.237 419.847 698.861 418.221 698.861 416.206C698.861 414.192 697.237 412.566 695.225 412.566C693.65 412.566 692.316 413.585 691.807 414.993H659.377L637.903 393.491C638.121 393.006 638.266 392.496 638.266 391.938C638.266 389.923 636.642 388.297 634.631 388.297C632.619 388.297 630.995 389.923 630.995 391.938C630.995 393.952 632.619 395.578 634.631 395.578C635.188 395.578 635.721 395.432 636.182 395.214L658.359 417.42H691.807Z" fill="#141D38"/>
<path d="M572.824 274.017V307.507L582.882 317.579C582.664 318.064 582.519 318.574 582.519 319.132C582.519 321.146 584.143 322.772 586.154 322.772C588.166 322.772 589.79 321.146 589.79 319.132C589.79 317.118 588.166 315.492 586.154 315.492C585.597 315.492 585.064 315.637 584.603 315.856L575.247 306.488V274.017C576.653 273.507 577.671 272.172 577.671 270.595C577.671 268.58 576.047 266.954 574.036 266.954C572.024 266.954 570.4 268.58 570.4 270.595C570.4 272.172 571.418 273.507 572.824 274.017Z" fill="#141D38"/>
<path d="M589.79 331.266C589.79 329.252 588.166 327.626 586.154 327.626C584.143 327.626 582.519 329.252 582.519 331.266C582.519 332.844 583.537 334.178 584.943 334.688V356.044L597.764 368.882H634.121L646.24 381.017H679.688C680.197 382.424 681.53 383.444 683.106 383.444C685.117 383.444 686.741 381.818 686.741 379.803C686.741 377.789 685.117 376.163 683.106 376.163C681.53 376.163 680.197 377.182 679.688 378.59H647.258L635.139 366.456H598.782L587.366 355.025V334.688C588.772 334.178 589.79 332.844 589.79 331.266Z" fill="#141D38"/>
<path d="M719.463 419.847C721.475 419.847 723.099 418.221 723.099 416.206C723.099 414.192 721.475 412.566 719.463 412.566C718.906 412.566 718.372 412.712 717.912 412.93L707.853 402.859H671.496L662.141 393.491C662.359 393.006 662.504 392.496 662.504 391.938C662.504 389.923 660.88 388.297 658.869 388.297C656.857 388.297 655.233 389.923 655.233 391.938C655.233 393.952 656.857 395.578 658.869 395.578C659.426 395.578 659.959 395.432 660.42 395.214L670.479 405.285H706.835L716.191 414.653C715.973 415.138 715.827 415.648 715.827 416.206C715.827 418.221 717.451 419.847 719.463 419.847Z" fill="#141D38"/>
<path d="M250.241 536.336C249.732 534.928 248.399 533.909 246.823 533.909C244.811 533.909 243.188 535.535 243.188 537.549C243.188 539.564 244.811 541.19 246.823 541.19C248.399 541.19 249.732 540.17 250.241 538.763H294.79L316.264 560.265C316.046 560.75 315.901 561.26 315.901 561.818C315.901 563.832 317.525 565.458 319.537 565.458C321.548 565.458 323.172 563.832 323.172 561.818C323.172 559.804 321.548 558.178 319.537 558.178C318.979 558.178 318.446 558.323 317.985 558.542L295.808 536.336H250.241Z" fill="#141D38"/>
<path d="M332.165 536.336H322.954C322.445 534.928 321.112 533.909 319.537 533.909C317.525 533.909 315.901 535.535 315.901 537.549C315.901 539.564 317.525 541.19 319.537 541.19C321.112 541.19 322.445 540.17 322.954 538.763H331.147L342.563 550.193V558.396C341.157 558.906 340.139 560.241 340.139 561.818C340.139 563.832 341.763 565.458 343.775 565.458C345.786 565.458 347.41 563.832 347.41 561.818C347.41 560.241 346.392 558.906 344.986 558.396V549.174L332.165 536.336Z" fill="#141D38"/>
<path d="M355.893 626.13C357.905 626.13 359.529 624.504 359.529 622.489C359.529 620.475 357.905 618.849 355.893 618.849C355.336 618.849 354.803 618.995 354.342 619.213L344.986 609.845V585.577L332.868 573.443V553.105C334.273 552.596 335.291 551.261 335.291 549.684C335.291 547.669 333.667 546.043 331.656 546.043C329.644 546.043 328.02 547.669 328.02 549.684C328.02 551.261 329.038 552.596 330.444 553.105V574.462L342.563 586.596V610.865L352.621 620.936C352.403 621.421 352.258 621.931 352.258 622.489C352.258 624.504 353.882 626.13 355.893 626.13Z" fill="#141D38"/>
<path d="M594.638 683.161C594.638 685.175 596.262 686.801 598.273 686.801C600.285 686.801 601.909 685.175 601.909 683.161C601.909 681.583 600.891 680.249 599.485 679.739V621.98L587.366 609.846V562.303L596.722 552.936C597.207 553.154 597.716 553.3 598.273 553.3C600.285 553.3 601.909 551.674 601.909 549.659C601.909 547.645 600.285 546.019 598.273 546.019C596.262 546.019 594.638 547.645 594.638 549.659C594.638 550.218 594.783 550.751 595.001 551.213L584.943 561.284V610.816L597.062 622.951V679.691C595.656 680.249 594.638 681.583 594.638 683.161Z" fill="#141D38"/>
<path d="M622.511 594.581C620.499 594.581 618.875 596.207 618.875 598.221C618.875 600.235 620.499 601.861 622.511 601.861C623.069 601.861 623.602 601.715 624.062 601.497L657.656 635.133V647.268L681.894 671.536V691.873C680.488 692.383 679.47 693.718 679.47 695.295C679.47 697.309 681.094 698.935 683.106 698.935C685.117 698.935 686.741 697.309 686.741 695.295C686.741 693.718 685.723 692.383 684.318 691.873V670.517L660.08 646.248V634.114L625.783 599.774C626.001 599.289 626.147 598.779 626.147 598.221C626.147 596.207 624.523 594.581 622.511 594.581Z" fill="#141D38"/>
<path d="M743.701 703.789C743.143 703.789 742.61 703.935 742.15 704.153L684.318 646.248V634.114L660.08 609.845V601.643C661.486 601.133 662.504 599.798 662.504 598.221C662.504 596.207 660.88 594.581 658.869 594.581C656.857 594.581 655.233 596.207 655.233 598.221C655.233 599.798 656.251 601.133 657.657 601.643V610.865L681.894 635.133V647.268L740.429 705.876C740.211 706.362 740.065 706.871 740.065 707.429C740.065 709.444 741.689 711.07 743.701 711.07C745.713 711.07 747.337 709.444 747.337 707.429C747.337 705.415 745.713 703.789 743.701 703.789Z" fill="#141D38"/>
<path d="M719.462 752.326C718.905 752.326 718.372 752.472 717.911 752.69L647.961 682.651V646.248L625.783 624.043C626.001 623.557 626.147 623.048 626.147 622.489C626.147 620.475 624.523 618.849 622.511 618.849C620.499 618.849 618.875 620.475 618.875 622.489C618.875 624.504 620.499 626.13 622.511 626.13C623.069 626.13 623.602 625.984 624.062 625.766L645.537 647.268V683.671L716.19 754.413C715.972 754.899 715.827 755.408 715.827 755.967C715.827 757.981 717.451 759.607 719.462 759.607C721.474 759.607 723.098 757.981 723.098 755.967C723.098 753.952 721.474 752.326 719.462 752.326Z" fill="#141D38"/>
<path d="M660.08 801.082V779.726L623.723 743.323V731.188L587.366 694.785V650.18C588.772 649.67 589.79 648.335 589.79 646.758C589.79 644.744 588.166 643.118 586.154 643.118C584.143 643.118 582.519 644.744 582.519 646.758C582.519 648.335 583.537 649.67 584.943 650.18V695.805L621.299 732.208V744.342L657.656 780.745V801.082C656.25 801.592 655.232 802.926 655.232 804.504C655.232 806.518 656.856 808.144 658.868 808.144C660.88 808.144 662.504 806.518 662.504 804.504C662.504 802.926 661.486 801.592 660.08 801.082Z" fill="#141D38"/>
<path d="M683.106 546.043C681.53 546.043 680.197 547.063 679.688 548.47H622.002L597.062 573.443V594.799C595.656 595.309 594.638 596.643 594.638 598.221C594.638 600.235 596.262 601.861 598.274 601.861C600.285 601.861 601.909 600.235 601.909 598.221C601.909 596.643 600.891 595.309 599.485 594.799V574.462L623.02 550.897H679.688C680.197 552.305 681.53 553.324 683.106 553.324C685.118 553.324 686.742 551.698 686.742 549.684C686.742 547.669 685.118 546.043 683.106 546.043Z" fill="#141D38"/>
<path d="M816.414 606.715C815.857 606.715 815.323 606.86 814.863 607.079L780.567 572.739H744.21L732.091 560.605H698.643C698.134 559.197 696.801 558.178 695.225 558.178C693.214 558.178 691.59 559.804 691.59 561.818C691.59 563.832 693.214 565.458 695.225 565.458C696.801 565.458 698.134 564.439 698.643 563.031H731.073L743.192 575.166H779.549L813.142 608.802C812.924 609.287 812.779 609.797 812.779 610.355C812.779 612.369 814.402 613.995 816.414 613.995C818.426 613.995 820.05 612.369 820.05 610.355C820.05 608.341 818.426 606.715 816.414 606.715Z" fill="#141D38"/>
<path d="M804.296 667.386C803.739 667.386 803.205 667.532 802.745 667.75L756.329 621.276H744.21L707.853 584.873H671.496L659.377 572.739H646.265L636.206 582.81C635.721 582.592 635.212 582.446 634.655 582.446C632.643 582.446 631.019 584.072 631.019 586.087C631.019 588.101 632.643 589.727 634.655 589.727C636.666 589.727 638.29 588.101 638.29 586.087C638.29 585.529 638.145 584.995 637.927 584.533L647.283 575.166H658.408L670.527 587.3H706.884L743.241 623.703H755.36L801.073 669.474C800.854 669.959 800.709 670.469 800.709 671.027C800.709 673.041 802.333 674.667 804.345 674.667C806.356 674.667 807.98 673.041 807.98 671.027C807.98 669.012 806.308 667.386 804.296 667.386Z" fill="#141D38"/>
<path d="M607.12 317.579C606.902 318.064 606.757 318.574 606.757 319.132C606.757 321.146 608.381 322.772 610.392 322.772C612.404 322.772 614.028 321.146 614.028 319.132C614.028 317.118 612.404 315.492 610.392 315.492C609.835 315.492 609.302 315.637 608.841 315.856L587.366 294.354V225.48C588.772 224.97 589.79 223.635 589.79 222.058C589.79 220.043 588.166 218.417 586.154 218.417C584.143 218.417 582.519 220.043 582.519 222.058C582.519 223.635 583.537 224.97 584.943 225.48V295.373L607.12 317.579Z" fill="#141D38"/>
<path d="M574.036 262.101C576.047 262.101 577.671 260.475 577.671 258.461C577.671 256.883 576.653 255.548 575.247 255.039V210.433L587.366 198.299V152.674C588.772 152.164 589.79 150.83 589.79 149.252C589.79 147.238 588.166 145.612 586.154 145.612C584.143 145.612 582.519 147.238 582.519 149.252C582.519 150.83 583.537 152.164 584.943 152.674V197.28L572.824 209.414V255.039C571.418 255.548 570.4 256.883 570.4 258.461C570.4 260.475 572.024 262.101 574.036 262.101Z" fill="#141D38"/>
<path d="M598.274 225.698C600.285 225.698 601.909 224.072 601.909 222.057C601.909 220.48 600.891 219.145 599.485 218.636V174.03L633.079 140.394C633.564 140.612 634.073 140.758 634.63 140.758C636.642 140.758 638.266 139.132 638.266 137.117C638.266 135.103 636.642 133.477 634.63 133.477C632.619 133.477 630.995 135.103 630.995 137.117C630.995 137.676 631.14 138.209 631.358 138.671L597.062 173.011V218.636C595.656 219.145 594.638 220.48 594.638 222.057C594.638 224.072 596.262 225.698 598.274 225.698Z" fill="#141D38"/>
<path d="M804.295 298.504C806.307 298.504 807.931 296.878 807.931 294.863C807.931 292.849 806.307 291.223 804.295 291.223C802.284 291.223 800.66 292.849 800.66 294.863C800.66 295.422 800.805 295.956 801.023 296.417L742.489 355.025V367.16L718.954 390.724H698.643C698.134 389.317 696.801 388.298 695.225 388.298C693.214 388.298 691.59 389.924 691.59 391.938C691.59 393.952 693.214 395.578 695.225 395.578C696.801 395.578 698.134 394.559 698.643 393.151H719.972L744.913 368.179V356.045L802.744 298.14C803.205 298.358 803.738 298.504 804.295 298.504Z" fill="#141D38"/>
<path d="M597.062 334.688V343.91L609.884 356.748H619.094C619.603 358.156 620.936 359.175 622.511 359.175C624.523 359.175 626.147 357.549 626.147 355.535C626.147 353.52 624.523 351.894 622.511 351.894C620.936 351.894 619.603 352.914 619.094 354.321H610.901L599.485 342.891V334.688C600.891 334.178 601.909 332.844 601.909 331.266C601.909 329.252 600.285 327.626 598.274 327.626C596.262 327.626 594.638 329.252 594.638 331.266C594.638 332.844 595.656 334.178 597.062 334.688Z" fill="#141D38"/>
<path d="M622.002 330.053L611.944 340.124C611.459 339.906 610.95 339.76 610.393 339.76C608.381 339.76 606.757 341.386 606.757 343.401C606.757 345.415 608.381 347.041 610.393 347.041C612.404 347.041 614.028 345.415 614.028 343.401C614.028 342.842 613.883 342.309 613.665 341.847L623.02 332.48H635.139L681.555 286.005C682.039 286.224 682.548 286.369 683.106 286.369C685.118 286.369 686.742 284.743 686.742 282.729C686.742 280.715 685.118 279.089 683.106 279.089C681.094 279.089 679.47 280.715 679.47 282.729C679.47 283.287 679.616 283.821 679.834 284.282L634.121 330.053H622.002Z" fill="#141D38"/>
<path d="M706.836 354.322H682.598L670.479 366.456H659.353L637.879 344.954C638.097 344.469 638.242 343.959 638.242 343.401C638.242 341.386 636.618 339.76 634.606 339.76C632.595 339.76 630.971 341.386 630.971 343.401C630.971 345.415 632.595 347.041 634.606 347.041C635.164 347.041 635.697 346.895 636.158 346.677L658.335 368.883H671.448L683.567 356.748H707.805L802.697 261.737C803.181 261.955 803.691 262.101 804.248 262.101C806.26 262.101 807.884 260.475 807.884 258.461C807.884 256.446 806.26 254.82 804.248 254.82C802.236 254.82 800.612 256.446 800.612 258.461C800.612 259.019 800.758 259.553 800.976 260.014L706.836 354.322Z" fill="#141D38"/>
<path d="M662.286 342.187C661.777 340.78 660.444 339.76 658.869 339.76C656.857 339.76 655.233 341.386 655.233 343.401C655.233 345.415 656.857 347.041 658.869 347.041C660.444 347.041 661.777 346.022 662.286 344.614H671.496L693.674 322.408C694.159 322.627 694.668 322.772 695.225 322.772C697.237 322.772 698.861 321.146 698.861 319.132C698.861 317.118 697.237 315.492 695.225 315.492C693.214 315.492 691.59 317.118 691.59 319.132C691.59 319.69 691.735 320.224 691.953 320.685L670.479 342.187H662.286Z" fill="#141D38"/>
<path d="M694.716 293.65L660.42 327.99C659.935 327.772 659.426 327.626 658.869 327.626C656.857 327.626 655.233 329.252 655.233 331.266C655.233 333.281 656.857 334.907 658.869 334.907C660.88 334.907 662.504 333.281 662.504 331.266C662.504 330.708 662.359 330.174 662.141 329.713L695.734 296.077H707.853L754.268 249.603C754.753 249.821 755.262 249.967 755.82 249.967C757.831 249.967 759.455 248.341 759.455 246.326C759.455 244.312 757.831 242.686 755.82 242.686C753.808 242.686 752.184 244.312 752.184 246.326C752.184 246.884 752.329 247.418 752.548 247.879L706.835 293.65H694.716Z" fill="#141D38"/>
<path d="M597.062 245.817V283.215L622.002 308.187H631.213C631.722 309.595 633.055 310.614 634.63 310.614C636.642 310.614 638.266 308.988 638.266 306.974C638.266 304.959 636.642 303.333 634.63 303.333C633.055 303.333 631.722 304.353 631.213 305.76H623.02L599.486 282.195V246.787L645.198 201.017C645.683 201.235 646.192 201.381 646.749 201.381C648.761 201.381 650.385 199.755 650.385 197.741C650.385 195.726 648.761 194.1 646.749 194.1C644.737 194.1 643.114 195.726 643.114 197.741C643.114 198.299 643.259 198.833 643.477 199.294L597.062 245.817Z" fill="#141D38"/>
<path d="M609.181 257.951V271.08L619.239 281.152C619.021 281.637 618.876 282.147 618.876 282.705C618.876 284.719 620.5 286.345 622.511 286.345C624.523 286.345 626.147 284.719 626.147 282.705C626.147 280.69 624.523 279.065 622.511 279.065C621.954 279.065 621.421 279.21 620.96 279.429L611.604 270.061V258.922L693.674 176.748C694.158 176.967 694.667 177.112 695.225 177.112C697.237 177.112 698.86 175.486 698.86 173.472C698.86 171.458 697.237 169.832 695.225 169.832C693.213 169.832 691.589 171.458 691.589 173.472C691.589 174.03 691.735 174.564 691.953 175.025L609.181 257.951Z" fill="#141D38"/>
<path d="M638.048 293.65C637.539 292.243 636.206 291.223 634.631 291.223C632.619 291.223 630.995 292.849 630.995 294.864C630.995 296.878 632.619 298.504 634.631 298.504C636.206 298.504 637.539 297.485 638.048 296.077H647.258L681.555 261.737C682.04 261.955 682.549 262.101 683.106 262.101C685.118 262.101 686.742 260.475 686.742 258.461C686.742 256.446 685.118 254.82 683.106 254.82C681.094 254.82 679.47 256.446 679.47 258.461C679.47 259.019 679.616 259.553 679.834 260.014L646.24 293.65H638.048Z" fill="#141D38"/>
<path d="M332.867 597.711L283.688 548.47H197.862L187.803 558.542C187.319 558.323 186.81 558.178 186.252 558.178C184.24 558.178 182.616 559.804 182.616 561.818C182.616 563.832 184.24 565.458 186.252 565.458C188.264 565.458 189.888 563.832 189.888 561.818C189.888 561.26 189.742 560.726 189.524 560.265L198.88 550.897H282.719L330.491 598.73V622.999L342.61 635.133V658.407L330.491 670.541V706.944L296.898 740.58C296.413 740.362 295.904 740.216 295.346 740.216C293.335 740.216 291.711 741.842 291.711 743.857C291.711 745.871 293.335 747.497 295.346 747.497C297.358 747.497 298.982 745.871 298.982 743.857C298.982 743.298 298.837 742.764 298.619 742.303L332.915 707.963V671.56L345.034 659.426V634.163L332.915 622.028V597.711H332.867Z" fill="#141D38"/>
<path d="M295.807 584.873H270.576L245.635 609.845V621.98L224.16 643.482C223.676 643.263 223.167 643.118 222.609 643.118C220.597 643.118 218.973 644.744 218.973 646.758C218.973 648.772 220.597 650.398 222.609 650.398C224.621 650.398 226.245 648.772 226.245 646.758C226.245 646.2 226.099 645.666 225.881 645.205L248.059 622.999V610.865L271.594 587.3H294.838L318.373 610.865V635.133L328.431 645.205C328.213 645.69 328.068 646.2 328.068 646.758C328.068 648.772 329.692 650.398 331.703 650.398C333.715 650.398 335.339 648.772 335.339 646.758C335.339 644.744 333.715 643.118 331.703 643.118C331.146 643.118 330.613 643.263 330.152 643.482L320.796 634.114V609.845L295.807 584.873Z" fill="#141D38"/>
<path d="M296.51 720.074V707.939L320.748 683.671V662.314C322.154 661.805 323.172 660.47 323.172 658.892C323.172 656.878 321.548 655.252 319.536 655.252C317.525 655.252 315.901 656.878 315.901 658.892C315.901 660.47 316.919 661.805 318.324 662.314V682.651L294.087 706.92V719.054L260.493 752.691C260.008 752.472 259.499 752.327 258.942 752.327C256.93 752.327 255.306 753.953 255.306 755.967C255.306 757.981 256.93 759.607 258.942 759.607C260.954 759.607 262.577 757.981 262.577 755.967C262.577 755.409 262.432 754.875 262.214 754.414L296.51 720.074Z" fill="#141D38"/>
<path d="M270.551 563.031L279.907 572.399C279.689 572.884 279.543 573.394 279.543 573.952C279.543 575.966 281.167 577.592 283.179 577.592C285.191 577.592 286.814 575.966 286.814 573.952C286.814 571.938 285.191 570.312 283.179 570.312C282.621 570.312 282.088 570.457 281.628 570.676L271.569 560.604H234.218L197.862 597.007H185.743L127.209 655.616C126.724 655.397 126.215 655.252 125.657 655.252C123.646 655.252 122.022 656.878 122.022 658.892C122.022 660.906 123.646 662.532 125.657 662.532C127.669 662.532 129.293 660.906 129.293 658.892C129.293 658.334 129.148 657.8 128.929 657.339L186.761 599.434H198.88L235.236 563.031H270.551Z" fill="#141D38"/>
<path d="M260.153 707.939V695.805L283.688 672.24H295.807L308.629 659.402V622.004L286.451 599.798C286.67 599.313 286.815 598.803 286.815 598.245C286.815 596.231 285.191 594.605 283.179 594.605C281.168 594.605 279.544 596.231 279.544 598.245C279.544 600.259 281.168 601.885 283.179 601.885C283.737 601.885 284.27 601.74 284.731 601.521L306.205 623.023V658.431L294.789 669.862H282.67L257.73 694.834V706.968L224.136 740.605C223.651 740.386 223.142 740.241 222.585 740.241C220.573 740.241 218.949 741.867 218.949 743.881C218.949 745.895 220.573 747.521 222.585 747.521C224.597 747.521 226.221 745.895 226.221 743.881C226.221 743.323 226.075 742.789 225.857 742.328L260.153 707.939Z" fill="#141D38"/>
<path d="M670.478 563.031L682.597 575.165H718.954L743.192 599.434H776.641C777.15 600.842 778.483 601.861 780.058 601.861C782.07 601.861 783.694 600.235 783.694 598.221C783.694 596.206 782.07 594.58 780.058 594.58C778.483 594.58 777.15 595.6 776.641 597.007H744.21L719.972 572.739H683.615L671.496 560.604H634.146L609.205 585.577V635.109L631.383 657.315C631.164 657.8 631.019 658.31 631.019 658.868C631.019 660.882 632.643 662.508 634.655 662.508C636.666 662.508 638.29 660.882 638.29 658.868C638.29 656.853 636.666 655.227 634.655 655.227C634.097 655.227 633.564 655.373 633.103 655.592L611.629 634.09V586.547L635.164 562.983H670.478V563.031Z" fill="#141D38"/>
</g>
</svg>
