<svg width="748" height="675" viewBox="0 0 748 675" fill="none" xmlns="http://www.w3.org/2000/svg">
<path d="M89.1637 508.885C89.0715 505.341 88.9424 501.852 88.9239 498.363L89.4405 498.88C81.065 498.972 72.6711 499.175 64.2956 499.194L39.1507 499.305L40.0916 498.363L39.9809 519.628L39.1323 518.779C43.2831 518.816 47.4155 518.798 51.5663 518.89L64.0558 519.111L89.422 519.647L89.1637 508.885ZM64.517 520.145L51.8615 520.367C47.6369 520.459 43.3938 520.441 39.1507 520.477H38.3021V519.628L38.1914 498.363V497.403H39.1507L64.2956 497.514C72.6711 497.533 81.065 497.736 89.4405 497.828H89.957V498.345C89.9201 501.944 89.791 505.544 89.7172 509.088L89.4405 519.61L64.517 520.145Z" fill="#EBEBEB"/>
<path d="M61.1236 535.688C61.0314 532.144 60.9022 528.655 60.8838 525.166L61.4003 525.683C53.0248 525.775 44.6309 525.978 36.2554 525.997L11.1106 526.107L12.0514 525.166L11.9407 546.431L11.0921 545.582C15.243 545.619 19.3754 545.601 23.5262 545.693L36.0156 545.914L61.3819 546.45L61.1236 535.688ZM36.4584 546.966L23.8029 547.188C19.5783 547.28 15.3352 547.262 11.0921 547.299H10.2435V546.45L10.1328 525.185V524.225H11.0921L36.237 524.335C44.6125 524.354 53.0064 524.557 61.3819 524.649H61.8984V525.166C61.8615 528.766 61.7324 532.365 61.6586 535.909L61.3819 546.431L36.4584 546.966Z" fill="#EBEBEB"/>
<path d="M117.221 535.688C117.129 532.144 117 528.655 116.981 525.166L117.498 525.683C109.122 525.775 100.729 525.978 92.3531 525.997L67.2082 526.107L68.1491 525.166L68.0384 546.431L67.1898 545.582C71.3406 545.619 75.473 545.601 79.6239 545.693L92.1133 545.914L117.48 546.45L117.221 535.688ZM92.556 546.966L79.9006 547.188C75.6759 547.28 71.4329 547.262 67.1898 547.299H66.3412V546.45L66.2305 525.185V524.225H67.1898L92.3347 524.335C100.71 524.354 109.104 524.557 117.48 524.649H117.996V525.166C117.959 528.766 117.83 532.365 117.756 535.909L117.48 546.431L92.556 546.966Z" fill="#EBEBEB"/>
<path d="M709.022 535.688C708.93 532.144 708.801 528.655 708.782 525.166L709.299 525.683C700.923 525.775 692.529 525.978 684.154 525.997L659.009 526.107L659.95 525.166L659.839 546.431L658.991 545.582C663.141 545.619 667.274 545.601 671.425 545.693L683.914 545.914L709.28 546.45L709.022 535.688ZM684.357 546.966L671.701 547.188C667.477 547.28 663.234 547.262 658.991 547.299H658.142V546.45L658.031 525.185V524.225H658.991L684.135 524.335C692.511 524.354 700.905 524.557 709.28 524.649H709.797V525.166C709.76 528.766 709.631 532.365 709.557 535.909L709.28 546.431L684.357 546.966Z" fill="#EBEBEB"/>
<path d="M709.022 11.4632C708.93 7.91902 708.801 4.43022 708.782 0.941419L709.299 1.45828C700.923 1.55057 692.529 1.75363 684.154 1.77209L659.009 1.88284L659.95 0.941419L659.839 22.2065L658.991 21.3574C663.141 21.3943 667.274 21.3758 671.425 21.4681L683.914 21.6896L709.28 22.225L709.022 11.4632ZM684.357 22.7418L671.701 22.9633C667.477 23.0556 663.234 23.0372 658.991 23.0741H658.142V22.225L658.031 0.959876V0H658.991L684.135 0.110751C692.511 0.12921 700.905 0.332266 709.28 0.424562H709.797V0.941419C709.76 4.54098 709.631 8.14053 709.557 11.6847L709.28 22.2065L684.357 22.7418Z" fill="#EBEBEB"/>
<path d="M737.084 38.2661C736.992 34.7219 736.863 31.2331 736.845 27.7443L737.361 28.2612C728.986 28.3535 720.592 28.5565 712.216 28.575L687.072 28.6857L688.012 27.7443L687.902 49.0094L687.053 48.1603C691.204 48.1972 695.336 48.1787 699.487 48.271L711.977 48.4925L737.343 49.0278L737.084 38.2661ZM712.419 49.5447L699.764 49.7662C695.539 49.8585 691.296 49.84 687.053 49.877H686.204V49.0278L686.094 27.7628V26.8029H687.053L712.198 26.9136C720.573 26.9321 728.967 27.1352 737.343 27.2275H737.859V27.7443C737.822 31.3439 737.693 34.9434 737.62 38.4876L737.343 49.0094L712.419 49.5447Z" fill="#EBEBEB"/>
<path d="M61.1236 11.4817C61.0314 7.93752 60.9022 4.44871 60.8838 0.959913L61.4003 1.47678C53.0064 1.58753 44.6309 1.79058 36.237 1.79058L11.0921 1.90134L12.033 0.959913L11.9223 22.225L11.0737 21.3759C15.2245 21.4128 19.3569 21.3943 23.5077 21.4866L35.9972 21.7081L61.3634 22.2435L61.1236 11.4817ZM36.4584 22.7603L23.8029 22.9818C19.5783 23.0741 15.3352 23.0557 11.0921 23.0926H10.2435V22.2435L10.1328 0.978376V0.0184937H11.0921L36.237 0.129252C44.6125 0.147711 53.0064 0.35076 61.3819 0.443056H61.8984V0.959913C61.8615 4.55947 61.7324 8.15903 61.6586 11.7032L61.3819 22.225L36.4584 22.7603Z" fill="#EBEBEB"/>
<path d="M455.915 374.52C456.008 378.064 456.137 381.553 456.155 385.042L455.639 384.525C464.014 384.433 472.408 384.23 480.784 384.211L505.928 384.1L504.988 385.042L505.098 363.777L505.947 364.626C501.796 364.589 497.664 364.607 493.513 364.515L481.023 364.294L455.657 363.758L455.915 374.52ZM480.581 363.241L493.236 363.02C497.461 362.928 501.704 362.946 505.947 362.909H506.796V363.758L506.906 385.023V385.983H505.947L480.802 385.873C472.427 385.854 464.033 385.651 455.657 385.559H455.141V385.042C455.178 381.442 455.307 377.843 455.38 374.299L455.657 363.777L480.581 363.241Z" fill="#EBEBEB"/>
<path d="M483.974 347.699C484.066 351.243 484.195 354.732 484.214 358.221L483.697 357.704C492.073 357.611 500.467 357.408 508.842 357.39L533.987 357.279L533.046 358.221L533.157 336.955L534.006 337.805C529.855 337.768 525.722 337.786 521.571 337.694L509.082 337.472L483.716 336.937L483.974 347.699ZM508.639 336.42L521.295 336.199C525.519 336.106 529.762 336.125 534.006 336.088H534.854V336.937L534.965 358.202V359.162H534.006L508.861 359.051C500.485 359.033 492.091 358.83 483.716 358.737H483.199V358.221C483.236 354.621 483.365 351.021 483.439 347.477L483.716 336.955L508.639 336.42Z" fill="#EBEBEB"/>
<path d="M551.925 27.375L417.105 186.365L622.12 223.689L551.925 27.375Z" fill="#EBEBEB"/>
<path d="M547.257 53.1072L441.715 177.541L602.196 206.762L547.257 53.1072Z" fill="white"/>
<path d="M531.792 91.8532L548.063 94.8252L536.054 154.559L521.996 152.012L531.792 91.8532Z" fill="#EBEBEB"/>
<path d="M534.641 162.096L520.594 159.537L518.036 173.593L532.084 176.151L534.641 162.096Z" fill="#EBEBEB"/>
<path d="M176.996 390.875L125.895 515.77L259.533 497.606L176.996 390.875Z" fill="#EBEBEB"/>
<path d="M179.265 407.654L139.27 505.415L243.871 491.183L179.265 407.654Z" fill="white"/>
<path d="M177.527 434.605L188.117 433.165L192.71 472.336L183.541 473.591L177.527 434.605Z" fill="#EBEBEB"/>
<path d="M193.377 477.231L184.219 478.476L185.463 487.64L194.621 486.395L193.377 477.231Z" fill="#EBEBEB"/>
<path d="M374.006 675C549.383 675 691.554 663.083 691.554 648.382C691.554 633.681 549.383 621.763 374.006 621.763C198.628 621.763 56.457 633.681 56.457 648.382C56.457 663.083 198.628 675 374.006 675Z" fill="#F5F5F5"/>
<path d="M665.777 542.13C665.777 542.13 680.849 487.989 692.896 469.604C704.943 451.218 727.376 431.024 727.376 431.024C727.376 431.024 726.859 514.496 665.777 542.13Z" fill="#684DF4"/>
<path d="M666.867 541.207C672.033 532.808 676.423 523.948 680.611 514.976C682.474 505.359 684.725 495.687 688.101 486.512C688.156 486.346 688.415 486.438 688.359 486.605C686.367 495.151 684.024 503.642 681.921 512.171C688.009 498.991 693.783 485.645 701.033 473.185C702.49 467.148 705.276 461.334 708.025 455.851C708.099 455.685 708.375 455.778 708.283 455.944C706.346 460.189 704.963 464.546 703.579 468.939C707.01 463.42 710.755 458.103 715.035 453.101C715.294 452.787 715.829 453.138 715.57 453.47C705.885 465.838 699.188 479.922 692.824 494.191C699.705 486.826 705.977 478.759 711.733 470.527C711.788 470.434 711.918 470.527 711.862 470.619C705.903 480.088 699.041 488.598 691.606 496.905C686.957 507.353 682.4 517.838 676.866 527.769C687.916 518.428 696.421 506.319 704.833 494.653C705.018 494.394 705.424 494.671 705.258 494.93C696.845 507.74 688.119 519.794 676.017 529.282C673.545 533.62 670.889 537.866 667.919 541.927C667.439 542.61 666.424 541.927 666.867 541.207Z" fill="#141D38"/>
<path d="M661.102 547.022C661.102 547.022 688.203 497.089 680.325 448.689C672.448 400.289 664.017 383.048 664.017 383.048C664.017 383.048 621.439 458.325 661.102 547.022Z" fill="#684DF4"/>
<path d="M649.981 468.533C652.139 482.507 655.939 495.594 660.441 508.848C660.514 491.09 660.847 473.314 661.326 455.556C658.208 444.757 656.64 433.7 656.216 422.477C656.198 422.145 656.696 422.163 656.714 422.477C657.507 432.131 659.205 441.564 661.455 450.941C661.861 436.285 662.359 421.628 662.894 406.99C662.894 406.75 663.282 406.75 663.282 406.99C663.263 429.879 663.263 452.769 663.134 475.658C666.639 466.835 668.816 457.771 670.938 448.468C670.956 448.375 671.104 448.394 671.104 448.486C670.292 459.174 667.045 469.511 663.097 479.442C662.986 494.081 662.839 508.7 662.507 523.339C667.082 507.777 671.989 492.715 673.317 476.286C673.336 476.064 673.668 476.064 673.668 476.286C673.317 494.413 668.632 512.817 662.654 529.855C662.581 530.039 662.47 530.169 662.359 530.279C662.23 535.632 662.064 540.967 661.898 546.32C661.88 547.096 660.717 547.059 660.717 546.302C660.514 535.356 660.441 524.428 660.459 513.481C654.371 499.415 651.124 483.743 649.778 468.533C649.741 468.422 649.962 468.385 649.981 468.533Z" fill="#141D38"/>
<path d="M651.848 460.799C652.715 465.081 653.508 469.622 653.748 473.997C653.748 474.145 653.527 474.163 653.49 474.034C652.365 469.807 651.756 465.229 651.258 460.891C651.202 460.54 651.774 460.466 651.848 460.799Z" fill="#141D38"/>
<path d="M667.69 424.305C667.708 424.157 667.948 424.194 667.948 424.341C667.985 427.35 667.376 430.562 666.583 433.442C666.509 433.682 666.177 433.571 666.214 433.331C666.804 430.341 667.173 427.313 667.69 424.305Z" fill="#141D38"/>
<path d="M651.215 550.843C651.215 550.843 652.322 498.732 637.379 472.816C622.436 446.917 597.66 433.719 597.66 433.719C597.66 433.719 607.659 525.572 651.215 550.843Z" fill="#684DF4"/>
<path d="M623.997 506.264C630.287 515.309 636.523 524.04 644.216 531.904C641.227 521.253 637.777 510.768 633.866 500.468C625.491 493.121 617.189 485.497 612.042 475.455C611.968 475.289 612.19 475.16 612.282 475.308C617.798 484.205 625.196 491.349 632.962 498.197C627.004 482.71 620.049 467.61 612.171 452.88C611.968 452.51 612.522 452.178 612.743 452.547C617.521 460.226 621.875 468.182 625.786 476.341C624.384 470.767 623.259 465.081 621.838 459.543C621.801 459.396 622.023 459.34 622.078 459.469C624.734 466.429 627.373 474.126 628.221 481.565C633.442 493.121 637.851 505.045 641.375 517.229C640.987 509.42 640.508 501.63 639.696 493.841C639.678 493.693 639.936 493.656 639.954 493.804C641.578 502.461 642.426 511.248 642.223 520.053C644.382 527.824 646.19 535.669 647.647 543.588C647.684 543.791 647.37 543.902 647.315 543.681C646.503 540.358 645.618 537.072 644.732 533.787C644.677 533.768 644.622 533.768 644.566 533.713C636.56 525.683 628.941 516.527 623.941 506.282C623.904 506.264 623.96 506.208 623.997 506.264Z" fill="#141D38"/>
<path d="M606.688 463.863C608.348 465.653 609.879 467.555 611.484 469.401C612.905 471.043 614.639 472.576 615.783 474.421C615.819 474.495 615.746 474.588 615.672 474.532C613.735 473.314 612.204 471.339 610.709 469.622C609.123 467.832 607.721 466.059 606.448 464.029C606.355 463.9 606.577 463.734 606.688 463.863Z" fill="#141D38"/>
<path d="M695.624 544.474L693.742 561.18L688.06 611.685H638.564L632.882 561.18L631 544.474C633.103 544.474 663.303 544.474 663.303 544.474C663.303 544.474 693.521 544.474 695.624 544.474Z" fill="#455A64"/>
<path d="M695.629 544.474L693.747 561.18H632.905L631.023 544.474C633.127 544.474 663.326 544.474 663.326 544.474C663.326 544.474 693.526 544.474 695.629 544.474Z" fill="#37474F"/>
<path d="M626.595 551.281H700V532.36H626.595V551.281Z" fill="#455A64"/>
<path d="M748 611.556L654.505 611.999L560.991 612.165L374 612.479L187.009 612.165L93.4954 611.999L0 611.556L93.4954 611.094L187.009 610.946L374 610.633L560.991 610.946L654.505 611.113L748 611.556Z" fill="#141D38"/>
<path d="M137.478 386.777V330.218H16.9375V285.048L155.225 121.831H192.786V284.679H229.11V330.236H192.786V386.795H137.478V386.777ZM72.2451 284.679H143.658V198.899L72.2451 284.679Z" fill="#684DF4"/>
<path d="M477.608 227.363C477.608 244.068 474.915 259.445 469.565 273.474C464.196 287.521 456.762 299.668 447.279 309.913C437.779 320.157 426.507 328.132 413.427 333.817C400.347 339.503 386.253 342.364 371.107 342.364C355.684 342.364 341.516 339.521 328.584 333.817C315.652 328.132 304.435 320.157 294.934 309.913C285.433 299.668 278.017 287.521 272.649 273.474C267.28 259.426 264.605 244.05 264.605 227.363C264.605 210.657 267.28 195.28 272.649 181.251C278.017 167.204 285.452 155.058 294.934 144.813C304.435 134.568 315.633 126.538 328.584 120.705C341.516 114.89 355.684 111.974 371.107 111.974C386.234 111.974 400.347 114.89 413.427 120.705C426.488 126.538 437.779 134.568 447.279 144.813C456.78 155.058 464.196 167.204 469.565 181.251C474.933 195.28 477.608 210.657 477.608 227.363ZM421.895 227.363C421.895 217.247 420.659 207.944 418.187 199.471C415.715 190.998 412.191 183.725 407.653 177.652C403.114 171.579 397.746 166.89 391.547 163.604C385.349 160.319 378.541 158.676 371.107 158.676C363.395 158.676 356.459 160.319 350.26 163.604C344.062 166.89 338.693 171.579 334.155 177.652C329.617 183.725 326.112 190.998 323.621 199.471C321.149 207.944 319.913 217.247 319.913 227.363C319.913 237.478 321.149 246.726 323.621 255.07C326.093 263.414 329.598 270.631 334.155 276.704C338.693 282.777 344.062 287.466 350.26 290.752C356.459 294.038 363.395 295.68 371.107 295.68C378.541 295.68 385.349 294.038 391.547 290.752C397.746 287.466 403.114 282.777 407.653 276.704C412.191 270.631 415.696 263.414 418.187 255.07C420.64 246.726 421.895 237.478 421.895 227.363Z" fill="#684DF4"/>
<path d="M638.478 386.777V330.218H517.938V285.048L656.225 121.831H693.786V284.679H730.11V330.236H693.786V386.795H638.478V386.777ZM573.245 284.679H644.658V198.899L573.245 284.679Z" fill="#684DF4"/>
<path d="M314.935 66.7303V73.1726H288.684V35.3311H314.456V41.7734H296.026V50.8923H311.947V56.8546H296.026V66.7119H314.935V66.7303Z" fill="#141D38"/>
<path d="M320.691 73.191V35.3495H337.424C339.158 35.3495 340.763 35.7187 342.239 36.4386C343.715 37.1585 344.988 38.1369 346.039 39.3182C347.109 40.4996 347.939 41.8656 348.548 43.3608C349.157 44.8745 349.452 46.3882 349.452 47.9203C349.452 50.3754 348.843 52.6089 347.607 54.6025C346.39 56.6146 344.729 58.0544 342.626 58.9405L351.26 73.1726H342.995L335.265 60.491H328.015V73.1726H320.691V73.191ZM328.034 54.0487H337.258C337.94 54.0487 338.568 53.8826 339.14 53.5688C339.73 53.255 340.228 52.812 340.652 52.2582C341.077 51.7044 341.409 51.0583 341.667 50.32C341.907 49.5816 342.036 48.7694 342.036 47.9203C342.036 47.0342 341.888 46.222 341.612 45.4652C341.335 44.7268 340.948 44.0623 340.468 43.527C339.988 42.9732 339.435 42.5486 338.808 42.2533C338.18 41.9579 337.553 41.7918 336.926 41.7918H328.034V54.0487Z" fill="#141D38"/>
<path d="M356.113 73.191V35.3495H372.846C374.58 35.3495 376.185 35.7187 377.661 36.4386C379.137 37.1585 380.41 38.1369 381.461 39.3182C382.531 40.4996 383.361 41.8656 383.97 43.3608C384.579 44.8745 384.874 46.3882 384.874 47.9203C384.874 50.3754 384.265 52.6089 383.029 54.6025C381.812 56.6146 380.151 58.0544 378.048 58.9405L386.682 73.1726H378.417L370.687 60.491H363.437V73.1726H356.113V73.191ZM363.456 54.0487H372.68C373.362 54.0487 373.99 53.8826 374.561 53.5688C375.152 53.255 375.65 52.812 376.074 52.2582C376.499 51.7044 376.831 51.0583 377.089 50.32C377.347 49.5816 377.458 48.7694 377.458 47.9203C377.458 47.0342 377.31 46.222 377.034 45.4652C376.757 44.7084 376.369 44.0623 375.89 43.527C375.41 42.9732 374.857 42.5486 374.229 42.2533C373.602 41.9579 372.975 41.7918 372.348 41.7918H363.456V54.0487Z" fill="#141D38"/>
<path d="M407.675 73.4494C404.908 73.4494 402.399 72.9141 400.129 71.825C397.879 70.7359 395.942 69.296 394.318 67.5055C392.695 65.7149 391.459 63.666 390.555 61.3586C389.669 59.0512 389.227 56.6884 389.227 54.2702C389.227 51.7413 389.688 49.3416 390.629 47.0157C391.569 44.7083 392.861 42.6593 394.521 40.8872C396.182 39.1152 398.137 37.6938 400.406 36.6416C402.675 35.5894 405.147 35.0726 407.804 35.0726C410.534 35.0726 413.025 35.6263 415.294 36.7524C417.545 37.8784 419.482 39.3367 421.068 41.1457C422.673 42.9547 423.909 45.0221 424.795 47.3295C425.68 49.6369 426.123 51.9813 426.123 54.3625C426.123 56.8914 425.662 59.2911 424.739 61.5801C423.817 63.869 422.544 65.8995 420.902 67.6532C419.279 69.4068 417.323 70.8097 415.036 71.8619C412.803 72.9325 410.331 73.4494 407.675 73.4494ZM396.698 54.2702C396.698 55.9131 396.938 57.4821 397.436 59.0142C397.934 60.5464 398.654 61.8939 399.594 63.0568C400.535 64.2382 401.698 65.1796 403.063 65.8811C404.428 66.601 405.978 66.9517 407.73 66.9517C409.501 66.9517 411.069 66.5825 412.453 65.8626C413.818 65.1427 414.98 64.1644 415.921 62.9645C416.862 61.7647 417.581 60.3987 418.061 58.885C418.541 57.3714 418.781 55.8392 418.781 54.2702C418.781 52.6458 418.522 51.0583 418.006 49.5262C417.489 47.9941 416.77 46.6465 415.829 45.4836C414.888 44.3022 413.726 43.3792 412.361 42.6778C410.995 41.9763 409.464 41.6441 407.749 41.6441C405.978 41.6441 404.391 42.0133 403.007 42.7332C401.624 43.4531 400.461 44.413 399.539 45.6128C398.617 46.7942 397.916 48.1602 397.436 49.6554C396.938 51.1691 396.698 52.7012 396.698 54.2702Z" fill="#141D38"/>
<path d="M431.801 73.191V35.3495H448.533C450.267 35.3495 451.872 35.7187 453.348 36.4386C454.824 37.1585 456.097 38.1369 457.149 39.3182C458.219 40.4996 459.049 41.8656 459.658 43.3608C460.266 44.8745 460.562 46.3882 460.562 47.9203C460.562 50.3754 459.953 52.6089 458.717 54.6025C457.499 56.6146 455.839 58.0544 453.736 58.9405L462.369 73.1726H454.105L446.375 60.491H439.125V73.1726H431.801V73.191ZM439.143 54.0487H448.367C449.05 54.0487 449.677 53.8826 450.267 53.5688C450.858 53.255 451.356 52.812 451.78 52.2582C452.205 51.7044 452.537 51.0583 452.795 50.32C453.035 49.5816 453.164 48.7694 453.164 47.9203C453.164 47.0342 453.016 46.222 452.739 45.4652C452.463 44.7084 452.075 44.0623 451.596 43.527C451.116 42.9732 450.563 42.5486 449.935 42.2533C449.308 41.9579 448.681 41.7918 448.054 41.7918H439.162V54.0487H439.143Z" fill="#141D38"/>
<path d="M374.006 343.269C434.659 343.269 483.828 291.078 483.828 226.698C483.828 162.318 434.659 110.128 374.006 110.128C313.353 110.128 264.184 162.318 264.184 226.698C264.184 291.078 313.353 343.269 374.006 343.269Z" fill="#684DF4"/>
<path opacity="0.1" d="M483.83 226.698C483.83 291.084 434.666 343.268 374.008 343.268C325.194 343.268 283.852 309.47 269.555 262.731C292.449 282.981 337.13 313.512 388.103 301.366C444.407 287.946 470.492 247.317 481.598 203.2C483.055 210.786 483.83 218.65 483.83 226.698Z" fill="black"/>
<path opacity="0.1" d="M434.238 143.724C432.559 142.026 430.732 140.549 428.777 139.257C430.437 139.035 432.098 138.832 433.74 138.592C434.127 138.537 433.998 137.983 433.647 137.946C431.341 137.743 429.072 137.835 426.803 138.075C423.63 136.248 420.199 134.919 416.638 134.088C419.866 133.054 423.206 132.224 426.692 131.559C427.043 131.485 426.969 130.913 426.6 130.932C422.505 131.209 418.52 132.187 414.719 133.645C412.247 133.184 409.738 132.944 407.211 132.944C407.008 132.944 407.008 133.239 407.211 133.257C409.314 133.442 411.307 133.793 413.281 134.236C411.048 135.177 408.871 136.285 406.787 137.522C405.089 137.411 403.392 137.429 401.658 137.632C401.474 137.651 401.474 137.928 401.658 137.909C403.097 137.835 404.499 137.909 405.883 138.057C403.595 139.478 401.4 141.047 399.352 142.746C399.205 142.856 399.407 143.059 399.555 142.949C401.953 141.084 404.407 139.534 406.934 138.168C410.034 138.574 412.985 139.423 415.9 140.512C413.465 141.287 411.048 142.173 408.668 143.078C408.521 143.133 408.576 143.392 408.742 143.336C411.528 142.303 414.369 141.583 417.228 141.01C419.83 142.026 422.412 143.17 425.05 144.278C425.438 144.444 425.696 143.798 425.346 143.595C423.372 142.506 421.361 141.509 419.295 140.641C421.748 140.217 424.202 139.884 426.674 139.552C429.072 140.937 431.397 142.506 433.684 144.278C434.072 144.555 434.588 144.075 434.238 143.724ZM417.634 139.94C414.535 138.758 411.325 137.891 408.041 137.577C410.329 136.432 412.672 135.491 415.088 134.642C418.409 135.528 421.582 136.783 424.608 138.352C422.246 138.74 419.922 139.275 417.634 139.94Z" fill="black"/>
<path opacity="0.1" d="M289.382 220.994C289.751 220.828 289.475 220.33 289.124 220.385C287.574 220.644 286.099 221.179 284.66 221.843C285.176 220.182 285.785 218.521 286.486 216.896C286.689 216.435 286.08 216.047 285.803 216.49C284.586 218.465 283.737 220.514 283.147 222.619C281.044 223.837 279.107 225.425 277.446 227.252C277.539 224.169 278 221.068 278.793 217.856C278.904 217.395 278.258 217.247 278.092 217.672C276.69 221.16 276.192 224.834 276.395 228.507C274.9 230.353 273.628 232.347 272.687 234.359C272.613 234.525 272.834 234.673 272.927 234.507C273.978 232.624 275.177 231.018 276.487 229.578C276.635 231.184 276.93 232.79 277.336 234.359C276.635 235.005 275.952 235.651 275.325 236.297C275.14 236.482 275.417 236.74 275.601 236.574C276.21 236.02 276.856 235.522 277.502 234.986C277.944 236.556 278.479 238.106 279.144 239.601C279.217 239.767 279.513 239.657 279.439 239.472C278.811 237.811 278.369 236.168 278.037 234.543C279.328 233.528 280.638 232.587 282.077 231.775C282.169 231.719 282.243 231.701 282.335 231.645C282.446 233.214 282.63 234.783 282.962 236.352C282.999 236.556 283.294 236.463 283.257 236.279C283.018 234.599 282.981 232.956 283.036 231.313C284.881 230.372 286.8 229.615 288.607 228.6C288.94 228.415 288.7 227.935 288.349 227.99C286.541 228.341 284.752 229.08 283.055 230.058C283.202 227.88 283.571 225.738 284.125 223.616C285.803 222.711 287.537 221.843 289.382 220.994ZM277.926 233.879C277.612 232.144 277.446 230.409 277.428 228.673C279.033 227.086 280.804 225.72 282.722 224.52C282.335 226.514 282.206 228.544 282.28 230.593C280.73 231.553 279.254 232.679 277.926 233.879Z" fill="black"/>
<path d="M329.683 174.588C310.423 187.712 300.886 204.824 302.029 223.874C303.173 242.924 288.913 258.134 287.289 278.92C285.666 299.705 297.879 314.435 297.879 323.923C297.879 333.411 288.507 350.154 288.507 350.154C288.507 350.154 308.929 376.864 365.177 375.978C421.426 375.092 447.899 356.024 447.899 356.024C447.899 356.024 439.745 338.285 438.933 332.968C438.122 327.652 450.445 308.196 450.795 291.527C451.146 274.859 436.185 252.375 436.129 244.105C436.074 235.836 437.863 188.82 402.148 171.524C366.45 154.227 335.882 170.361 329.683 174.588Z" fill="#141D38"/>
<path d="M308.096 233.214C308.484 232.384 307.488 231.405 306.86 232.181C297.175 243.773 288.8 260.313 284.464 275.283C280.129 290.217 284.151 304.504 291.253 317.555C291.456 317.924 291.973 317.592 291.788 317.222C284.114 301.938 282.601 287.023 289.039 270.89C294.297 257.636 302.138 246.025 308.096 233.214Z" fill="#141D38"/>
<path d="M453.489 291.232C450.962 275.671 441.351 260.276 434.285 246.727C433.916 246.007 432.754 246.487 433.03 247.299C437.403 260.331 444.8 272.09 448.822 285.233C453.25 299.723 451.663 315.118 445.206 328.52C445.003 328.944 445.557 329.295 445.797 328.889C452.586 317.85 455.629 304.449 453.489 291.232Z" fill="#141D38"/>
<path d="M450.684 273.566C443.433 261.014 436.202 247.446 433.435 232.79C433.379 232.458 432.918 232.605 432.973 232.938C435.187 245.231 438.748 256.159 444.448 267.05C450.813 279.215 460.369 290.512 461.439 305.039C461.457 305.39 461.919 305.372 461.955 305.021C462.73 292.727 456.421 283.479 450.684 273.566Z" fill="#141D38"/>
<path d="M303.449 366.472C241.5 438.611 167.486 586.469 185.085 614.195C204.696 645.077 294.096 542.333 290.886 537.811C288.155 533.971 316.307 445.791 336.729 381.313C357.151 316.89 318.779 348.64 303.449 366.472Z" fill="#E2E8FA"/>
<path d="M303.449 366.472C241.5 438.611 167.486 586.469 185.085 614.195C204.696 645.077 294.096 542.333 290.886 537.811C288.155 533.971 316.307 445.791 336.729 381.313C357.151 316.89 318.779 348.64 303.449 366.472Z" fill="#684DF4"/>
<path d="M244.274 606.424L255.048 537.423C255.048 537.423 229.626 493.01 244.367 461.131C251.82 444.979 302.866 366.084 330.354 346.13C356.144 327.394 395.513 345.834 407.541 362.134C442.094 409.002 459.989 453.452 479.286 606.424H244.274Z" fill="#684DF4"/>
<path d="M388.075 346.647C386.895 348.419 385.935 350.301 385.031 352.221C383.759 355.212 382.633 358.257 382.209 361.617C384.441 359.07 385.972 356.208 387.356 353.273C388.168 351.354 388.924 349.415 389.477 347.385C389.016 347.127 388.555 346.887 388.075 346.647ZM352.378 473.868C351.087 476.84 349.961 479.886 349.537 483.245C351.769 480.698 353.319 477.837 354.684 474.902C355.957 471.93 357.082 468.865 357.507 465.506C355.293 468.053 353.743 470.914 352.378 473.868ZM321.367 602.88C320.869 604.043 320.389 605.224 319.965 606.424H322.455C322.898 605.593 323.304 604.762 323.691 603.913C324.964 600.941 326.09 597.896 326.514 594.518C324.282 597.083 322.75 599.945 321.367 602.88ZM451.74 453.193C451.722 453.286 451.722 453.36 451.703 453.452C451.722 453.415 451.759 453.396 451.777 453.36C451.777 453.304 451.759 453.249 451.74 453.193ZM389.016 585.805C387.743 588.777 386.618 591.841 386.194 595.201C388.426 592.653 389.957 589.792 391.341 586.857C392.614 583.867 393.739 580.821 394.163 577.461C391.931 580.009 390.4 582.87 389.016 585.805ZM256.798 524.354C255.525 527.326 254.4 530.372 253.976 533.731C256.208 531.184 257.739 528.323 259.123 525.388C260.396 522.416 261.521 519.351 261.945 515.992C259.713 518.558 258.182 521.419 256.798 524.354ZM300.188 428.735C298.897 431.707 297.772 434.753 297.347 438.131C299.598 435.583 301.129 432.704 302.494 429.769C303.786 426.797 304.893 423.751 305.317 420.391C303.103 422.939 301.553 425.8 300.188 428.735ZM417.316 393.053C414.346 391.779 411.302 390.653 407.944 390.229C410.49 392.462 413.349 394.013 416.283 395.379C419.253 396.653 422.315 397.779 425.673 398.203C423.109 395.97 420.249 394.438 417.316 393.053ZM444.785 500.191C441.815 498.899 438.771 497.773 435.413 497.366C437.959 499.6 440.819 501.132 443.752 502.498C446.722 503.79 449.785 504.898 453.142 505.341C450.578 503.107 447.718 501.557 444.785 500.191ZM293.159 386.888C292.883 387.257 292.606 387.626 292.329 387.995C293.289 388.235 294.266 388.42 295.263 388.549C294.58 387.958 293.879 387.405 293.159 386.888ZM321.109 519.721C318.138 518.428 315.094 517.321 311.718 516.896C314.283 519.13 317.142 520.662 320.075 522.028C323.046 523.32 326.09 524.446 329.466 524.871C326.901 522.637 324.042 521.105 321.109 519.721ZM352.987 409.445C351.788 406.436 350.423 403.483 348.338 400.806C348.578 404.184 349.5 407.285 350.607 410.349C351.806 413.358 353.171 416.312 355.238 418.988C355.016 415.592 354.094 412.491 352.987 409.445ZM396.598 520.034C395.418 517.026 394.053 514.072 391.968 511.395C392.208 514.774 393.13 517.893 394.237 520.939C395.436 523.948 396.801 526.901 398.868 529.578C398.646 526.2 397.724 523.08 396.598 520.034ZM251.725 447.877C251.301 448.616 250.858 449.354 250.434 450.055C251.098 451.311 251.872 452.51 252.776 453.673C252.647 451.661 252.26 449.742 251.725 447.877ZM280.799 566.164C279.6 563.155 278.235 560.202 276.15 557.525C276.39 560.903 277.313 564.023 278.419 567.069C279.619 570.078 280.984 573.031 283.068 575.708C282.847 572.33 281.906 569.21 280.799 566.164ZM328.377 363.888C325.37 365.087 322.418 366.453 319.743 368.521C323.119 368.299 326.219 367.358 329.281 366.25C332.288 365.069 335.24 363.703 337.915 361.617C334.52 361.839 331.421 362.78 328.377 363.888ZM437.609 556.344C434.602 557.544 431.65 558.91 428.975 560.977C432.351 560.756 435.469 559.814 438.513 558.707C441.52 557.525 444.471 556.159 447.146 554.073C443.77 554.295 440.653 555.236 437.609 556.344ZM286.942 480.199C283.935 481.399 280.984 482.765 278.309 484.833C281.685 484.611 284.802 483.67 287.846 482.581C290.853 481.381 293.805 480.015 296.48 477.929C293.104 478.15 289.986 479.092 286.942 480.199ZM347.895 558.43C344.888 559.63 341.936 560.996 339.262 563.063C342.638 562.841 345.755 561.9 348.799 560.793C351.806 559.593 354.758 558.245 357.433 556.159C354.057 556.381 350.939 557.322 347.895 558.43ZM245.637 597.73L245.176 600.591C245.231 600.572 245.286 600.554 245.342 600.535C248.349 599.335 251.301 597.969 253.976 595.902C251.042 596.087 248.312 596.825 245.637 597.73ZM402.908 445.773C399.901 446.973 396.949 448.339 394.274 450.425C397.65 450.185 400.768 449.262 403.812 448.154C406.819 446.954 409.77 445.588 412.445 443.521C409.069 443.742 405.952 444.665 402.908 445.773Z" fill="#684DF4"/>
<path d="M285.449 395.711C280.229 402.874 275.174 410.146 270.193 417.475C271.558 414.614 272.923 411.771 274.251 408.91C274.344 408.707 274.048 408.541 273.938 408.744C272.093 412.325 270.377 415.961 268.717 419.616C262.057 429.473 255.6 439.478 249.365 449.594C246.727 453.895 244.292 458.27 242.502 462.995C240.768 467.573 239.698 472.41 239.144 477.264C238.573 482.138 238.536 487.029 238.905 491.903C239.292 496.942 239.901 501.907 241.026 506.836C242.299 512.392 244.033 517.912 246.284 523.154C247.391 525.72 248.571 528.286 249.844 530.778C251.007 533.048 253.368 537.7 253.331 537.885C252.851 540.469 252.372 542.259 252.04 544.438C251.708 546.653 251.376 548.849 251.044 551.064C250.379 555.476 249.734 559.888 249.088 564.318C247.797 573.086 246.708 581.855 245.62 590.66C244.993 595.699 244.66 600.794 243.959 605.833C243.923 606.036 244.236 606.11 244.273 605.907C244.993 601.514 246.081 597.194 246.874 592.819C247.668 588.445 248.479 584.07 249.309 579.695C250.97 570.853 252.261 561.937 253.645 553.04C254.032 550.585 254.42 548.129 254.789 545.674C255.176 543.238 255.822 539.952 255.729 537.478C255.729 537.478 247.852 521.308 244.808 509.956C243.517 505.193 242.207 500.246 241.69 495.336C241.174 490.5 241.118 485.645 241.506 480.809C241.893 475.972 242.816 471.173 244.292 466.54C245.823 461.777 248.018 457.328 250.472 452.972C255.619 443.835 261.061 434.863 266.614 425.966C272.886 415.869 279.251 405.827 285.745 395.877C285.837 395.693 285.579 395.545 285.449 395.711Z" fill="#141D38"/>
<path d="M334.138 528.803C323.179 529.486 312.166 530.519 301.41 532.827C296.061 533.971 290.803 535.356 285.545 536.851C282.925 537.589 280.287 538.254 277.649 538.9C274.937 539.564 272.023 540.155 269.2 540.137C268.942 540.137 268.942 540.506 269.182 540.524C271.912 540.709 274.513 540.875 277.262 540.709C279.863 540.543 282.464 540.1 285.01 539.564C290.452 538.457 295.839 537.109 301.263 535.946C312.203 533.602 323.161 531.258 334.248 529.726C334.746 529.633 334.654 528.766 334.138 528.803Z" fill="#141D38"/>
<path d="M360.814 539.62C351.867 538.346 342.735 537.46 333.714 537.202C329.176 537.072 324.656 537.202 320.118 537.46C317.959 537.589 315.782 537.737 313.624 537.922C311.244 538.125 308.901 538.641 306.521 538.826C306.282 538.845 306.263 539.232 306.503 539.214C308.754 539.121 311.023 539.398 313.273 539.435C315.543 539.472 317.793 539.491 320.062 539.527C324.582 539.601 329.12 539.731 333.64 539.767C342.717 539.823 351.738 539.989 360.796 540.358C361.276 540.377 361.276 539.675 360.814 539.62Z" fill="#141D38"/>
<path d="M186.562 617.278C205.324 635.608 246.279 632.008 350.235 632.636C364.624 632.728 392.536 531.313 377.188 530.427C357.854 529.32 282.53 529.19 277.032 529.892C230.561 535.67 173.833 604.855 186.562 617.278Z" fill="#E2E8FA"/>
<path d="M342.321 532.476C342.321 532.476 382.538 520.588 405.598 520.884C436.48 521.271 462.972 534.34 473.746 540.487C496.234 553.317 541.746 599.889 530.621 615.34C520.549 629.332 476.439 579.381 476.439 579.381C476.439 579.381 529.81 622.889 514.608 637.509C499.389 652.129 451.479 591.213 451.479 591.213C451.479 591.213 505.329 637.14 487.25 649.729C473.598 659.236 427.09 606.535 427.09 606.535C427.09 606.535 473.1 646.333 459.467 656.725C444.413 668.207 398.44 622.243 398.44 622.243C359.367 642.826 331.898 634.962 313.191 628.261C308.671 626.637 342.321 532.476 342.321 532.476Z" fill="#E2E8FA"/>
<path d="M458.93 563.155C465.387 568.047 471.955 572.939 477.95 578.384C483.946 583.83 489.757 589.478 495.236 595.459C508.648 610.116 514.754 621.394 514.293 620.73C503.575 605.224 482.415 585.417 476.401 579.972C470.423 574.545 464.704 568.804 458.709 563.377C458.561 563.229 458.783 563.044 458.93 563.155Z" fill="#141D38"/>
<path d="M438.912 584.476C446.882 591.066 455.036 597.323 462.729 604.264C470.366 611.168 477.026 618.404 484.184 625.824C484.737 626.397 484.239 626.507 483.667 625.954C476.233 618.828 468.798 612.811 461.271 605.759C453.781 598.745 446.494 591.379 438.746 584.642C438.617 584.55 438.783 584.365 438.912 584.476Z" fill="#141D38"/>
<path d="M418.436 599.668C431.128 609.119 442.087 620.896 452.528 632.71C453.045 633.3 452.399 633.374 451.827 632.802C440.703 621.597 432.051 612.737 418.085 600.111C417.883 599.926 418.159 599.465 418.436 599.668Z" fill="#141D38"/>
<path d="M390.174 520.496L318.447 636.272C318.447 636.272 202.685 643.933 185.362 615.487C168.039 587.06 249.359 531.092 276.865 529.763C304.39 528.415 390.174 520.496 390.174 520.496Z" fill="#684DF4"/>
<path d="M244.432 598.154C241.425 599.354 238.474 600.72 235.799 602.806C239.175 602.566 242.292 601.643 245.336 600.535C248.343 599.335 251.295 597.969 253.97 595.902C250.594 596.124 247.476 597.047 244.432 598.154ZM347.89 558.43C344.883 559.63 341.931 560.996 339.256 563.063C342.632 562.841 345.75 561.9 348.794 560.793C351.801 559.593 354.753 558.245 357.428 556.159C354.051 556.381 350.934 557.322 347.89 558.43ZM280.794 566.164C279.595 563.155 278.229 560.202 276.145 557.525C276.385 560.903 277.307 564.023 278.414 567.069C279.613 570.078 280.978 573.031 283.063 575.708C282.842 572.33 281.901 569.21 280.794 566.164ZM216.428 562.62C216.244 562.14 216.041 561.679 215.838 561.217C215.155 561.752 214.491 562.306 213.827 562.86C213.901 563.081 213.974 563.285 214.048 563.506C215.247 566.533 216.613 569.468 218.697 572.163C218.476 568.767 217.535 565.666 216.428 562.62ZM280.056 631.492C277.067 630.199 274.023 629.073 270.666 628.649C273.212 630.882 276.071 632.433 279.004 633.799C281.993 635.073 285.037 636.199 288.394 636.623C285.849 634.39 282.989 632.857 280.056 631.492ZM198.976 613.623C196.006 612.331 192.962 611.205 189.586 610.78C192.132 613.032 195.01 614.564 197.943 615.93C200.913 617.222 203.957 618.33 207.315 618.755C204.769 616.54 201.909 614.989 198.976 613.623ZM321.361 602.88C320.088 605.852 318.963 608.897 318.539 612.275C320.771 609.71 322.321 606.848 323.686 603.913C324.959 600.941 326.084 597.896 326.508 594.518C324.276 597.083 322.745 599.945 321.361 602.88Z" fill="#684DF4"/>
<path d="M234.472 548.868C240.449 543.459 257.717 530.206 276.866 529.744C277.087 529.744 277.124 530.039 276.921 530.076C261.517 532.661 240.892 544.345 234.675 549.108C234.509 549.237 234.324 548.997 234.472 548.868Z" fill="#141D38"/>
<path d="M298.353 621.597C326.579 582.132 350.284 536.353 354.97 528.673C355.192 528.304 354.583 527.99 354.38 528.378C350.174 536.149 317.428 585.528 297.707 621.265C297.467 621.671 298.076 621.967 298.353 621.597Z" fill="#141D38"/>
<path d="M382.638 346.905C381.162 351.187 351.94 382.753 332.588 376.532C318.973 372.176 334.414 342.179 334.414 342.179L329.655 301.606L382.656 275.172C382.656 275.191 383.247 345.096 382.638 346.905Z" fill="#E2E8FA"/>
<path d="M382.769 301.292C368.84 327.633 345.319 336.918 334.158 339.927L329.656 301.624L382.658 275.191C382.658 275.191 382.713 286.986 382.769 301.292Z" fill="#141D38"/>
<path d="M291.803 228.396C268.78 291.213 303.776 312.109 317.317 317.056C329.604 321.56 372.053 335.294 401.441 275.191C430.829 215.087 408.912 184.519 381.351 172.742C353.752 160.983 314.827 165.58 291.803 228.396Z" fill="#E2E8FA"/>
<path d="M311.634 219.665C313.165 219.277 314.641 219.185 316.209 218.964C317.961 218.724 319.345 218.336 321.005 219.148C321.891 219.573 322.352 220.957 322.02 221.862C321.227 223.985 319.16 224.815 317.057 225.203C314.77 225.627 312.906 225.369 310.877 224.243C308.922 223.172 309.623 220.163 311.634 219.665Z" fill="#141D38"/>
<path d="M359.748 226.274C358.291 225.664 357.055 224.852 355.671 224.077C354.121 223.228 352.793 222.692 351.944 221.05C351.483 220.164 351.944 218.779 352.775 218.262C354.675 217.044 356.833 217.616 358.752 218.576C360.818 219.61 362.165 220.939 363.106 223.043C364.028 225.111 361.667 227.086 359.748 226.274Z" fill="#141D38"/>
<path d="M345.818 239.804C345.91 239.657 346.095 240.118 346.021 240.303C344.49 244.604 343.475 249.772 346.943 252.467C347.054 252.56 346.962 252.763 346.832 252.689C342.257 250.492 343.678 243.644 345.818 239.804Z" fill="#141D38"/>
<path d="M351.132 236.519C358.272 238.217 354.361 252.393 347.738 250.824C341.225 249.274 345.136 235.097 351.132 236.519Z" fill="#141D38"/>
<path d="M353.717 238.032C354.731 239.177 355.561 240.93 357 241.484C358.679 242.13 360.395 241.004 361.908 239.897C362.074 239.786 362.147 239.933 362.11 240.118C361.409 242.85 359.583 245.342 356.558 244.936C353.809 244.567 352.554 241.632 352.628 238.715C352.665 238.198 353.311 237.571 353.717 238.032Z" fill="#141D38"/>
<path d="M319.25 232.439C319.268 232.254 318.844 232.55 318.807 232.734C317.774 237.165 315.837 242.075 311.465 242.481C311.336 242.499 311.28 242.721 311.428 242.739C316.464 243.348 318.973 236.795 319.25 232.439Z" fill="#141D38"/>
<path d="M316.555 226.772C309.619 224.335 305.265 238.383 311.685 240.635C317.994 242.868 322.366 228.821 316.555 226.772Z" fill="#141D38"/>
<path d="M313.329 226.79C311.982 227.197 310.469 228.212 309.122 227.88C307.554 227.51 306.89 225.628 306.355 223.874C306.3 223.689 306.152 223.782 306.097 223.966C305.193 226.624 305.211 229.707 307.628 231.018C309.842 232.217 312.277 230.445 313.753 227.972C314.011 227.51 313.882 226.624 313.329 226.79Z" fill="#141D38"/>
<path d="M332.235 274.544C330.943 275.338 329.541 276.538 327.899 276.298C326.331 276.077 324.671 274.969 323.38 274.083C323.251 273.991 323.085 274.12 323.14 274.268C323.896 276.243 326.092 277.849 328.232 277.959C330.316 278.07 331.718 276.557 332.622 274.821C332.733 274.6 332.419 274.415 332.235 274.544Z" fill="#141D38"/>
<path d="M318.507 253.427C318.507 253.427 315.371 260.349 314.485 263.432C314.411 263.727 325.997 266.921 332.362 267.881C332.749 267.936 333.063 266.533 332.712 266.423C324.078 263.746 322.436 263.192 317.585 261.882C317.621 260.959 322.732 251.286 322.252 251.12C320.61 250.492 316.957 250.677 314.799 250.677C320.241 237.423 327.749 225.166 332.97 211.894C333.155 211.414 332.491 211.063 332.214 211.469C323.433 223.763 316.828 238.863 310.869 252.412C310.113 254.073 317.123 253.593 318.507 253.427Z" fill="#141D38"/>
<path d="M401.038 268.379C385.283 264.023 392.331 214.072 393.272 207.962C392.478 211.783 388.235 232.033 386.52 232.457C386.077 232.55 384.398 231.756 381.76 230.316L381.723 230.298C382.258 228.027 382.664 225.517 382.867 222.969C382.996 221.825 381.871 225.295 380.229 229.486C379.38 229.024 378.495 228.489 377.498 227.972C378.642 223.671 379.675 218.244 379.638 212.318C379.62 210.306 377.074 218.742 373.477 225.775C363.219 220.201 348.332 212.54 333.647 208.516C329.718 207.427 326.286 206.651 323.224 206.079C324.626 200.135 326.803 193.97 326.046 195.225C323.814 198.788 322.135 202.498 320.936 205.655C319.276 205.359 317.726 205.101 316.343 204.916C317.929 196.425 325.106 184.002 323.279 185.737C316.25 192.456 312.136 200.246 310.255 204.455C304.278 204.196 302.617 203.421 302.617 203.421C302.986 200.671 308.022 184.316 328.611 168.773C353.866 149.705 399.249 155.962 414.708 190.112C414.708 190.112 430.223 206.504 428.508 226.55C426.792 246.542 410.133 270.89 401.038 268.379Z" fill="#141D38"/>
<path d="M390.593 271.85C390.593 271.85 410.148 255.513 417.915 263.026C425.7 270.539 407.178 296.88 395.353 297.951C383.546 299.04 382.328 288.112 382.328 288.112L390.593 271.85Z" fill="#E2E8FA"/>
<path d="M412.439 270.447C412.623 270.484 412.586 270.724 412.42 270.742C404.063 271.757 398.215 277.646 393.474 284.143C396.462 281.965 399.931 281.264 402.938 284.937C403.104 285.122 402.827 285.38 402.624 285.288C399.728 283.793 397.348 283.719 394.599 285.62C392.644 286.968 391.039 288.906 389.434 290.641C388.899 291.213 387.773 290.53 388.253 289.829C388.29 289.773 388.327 289.718 388.364 289.663C390.762 280.027 401.868 268.619 412.439 270.447Z" fill="#141D38"/>
<path d="M329.648 168.053C329.648 168.053 354.941 157.088 383.849 170.324C405.581 180.273 428.992 197.071 436.703 238.291C436.703 238.291 446.462 192.364 413.532 169.253C372.171 140.235 338.485 158.713 329.648 168.053Z" fill="#684DF4"/>
<path d="M279.523 311.26C279.523 311.26 288.379 294.665 300.499 302.658C312.638 310.651 300.923 325.345 300.923 325.345L279.523 311.26Z" fill="#FF9CBD"/>
<path d="M301.333 324.71L279.941 310.628L207.386 420.98L228.777 435.061L301.333 324.71Z" fill="#684DF4"/>
<path d="M303.517 325.295L278.535 308.85L275.656 313.23L300.638 329.675L303.517 325.295Z" fill="#684DF4"/>
<path d="M300.318 330.148L275.336 313.702L272.456 318.082L297.439 334.527L300.318 330.148Z" fill="#684DF4"/>
<path d="M228.79 435.085L211.781 443.41L206.191 446.179L206.468 439.921L207.372 421.001L211.338 419.672C211.338 419.672 211.634 423.751 211.652 423.806L215.618 422.477C215.618 422.477 215.914 426.557 215.932 426.631L219.862 425.283C219.862 425.283 220.194 429.381 220.212 429.455L224.142 428.107C224.142 428.107 224.474 432.205 224.492 432.279L228.421 430.932C228.44 430.913 228.772 435.011 228.79 435.085Z" fill="#EBEBEB"/>
<path d="M211.781 443.41L206.191 446.16L206.468 439.903L211.781 443.41Z" fill="#684DF4"/>
<g opacity="0.1">
<path d="M216.688 416.109C221.318 408.559 226.059 401.083 230.837 393.625L245.282 371.345L260.004 349.249C264.966 341.921 269.929 334.593 275.039 327.357C270.409 334.907 265.667 342.383 260.889 349.84L246.426 372.12L231.704 394.216C226.76 401.545 221.798 408.873 216.688 416.109Z" fill="black"/>
<path d="M223.109 420.391C227.74 412.842 232.481 405.366 237.259 397.908L251.704 375.628L266.426 353.532C271.388 346.204 276.351 338.875 281.461 331.639C276.83 339.189 272.089 346.665 267.311 354.123L252.848 376.403L238.126 398.499C233.182 405.827 228.22 413.137 223.109 420.391Z" fill="black"/>
<path d="M229.527 424.655C234.158 417.106 238.899 409.63 243.677 402.172L258.122 379.892L272.844 357.796C277.806 350.468 282.769 343.139 287.879 335.903C283.248 343.453 278.507 350.929 273.729 358.387L259.266 380.667L244.544 402.763C239.6 410.091 234.637 417.419 229.527 424.655Z" fill="black"/>
</g>
<path d="M424.243 395.084C446.049 447.748 479.164 558.024 454.369 592.746C430.479 626.194 294.165 550.972 266.511 535.577C255.166 529.264 285.384 431.91 298.261 437.134C326.523 448.597 384.137 488.081 385.668 487.362C387.015 486.716 385.115 442.099 384.783 398.166C384.303 334.26 408.581 357.224 424.243 395.084Z" fill="#E2E8FA"/>
<path d="M217.622 375.868C208.214 383.768 216.515 393.367 216.515 393.367C216.515 393.367 207.937 392.85 201.683 398.24C194.525 404.424 201.074 418.361 201.074 418.361C201.074 418.361 192.293 419.635 186.26 426.003C180.006 432.611 184.6 447.619 184.6 447.619C184.6 447.619 177.073 453.304 175.8 462.552C173.623 478.354 192.219 494.081 204.1 503.993C221.755 518.724 258.688 531.461 266.51 535.614L331.54 460.522C331.54 460.522 290.898 401.397 275.992 390.635C260.773 379.615 226.883 368.096 217.622 375.868Z" fill="#E2E8FA"/>
<path d="M218.105 392.61C234.118 398.074 247.659 407.987 261.716 417.106C262.03 417.309 261.698 417.789 261.403 417.586C247.511 408.356 231.978 401.988 217.754 393.33C217.349 393.09 217.662 392.463 218.105 392.61Z" fill="#141D38"/>
<path d="M202.186 417.586C205.765 418.933 208.901 421.462 211.982 423.677C215.303 426.077 218.568 428.532 221.815 431.024C228.29 436.026 234.655 441.195 240.853 446.53C241.13 446.77 240.835 447.25 240.54 447.01C234.083 442.026 227.534 437.153 220.874 432.445C217.535 430.083 214.177 427.757 210.801 425.468C207.665 423.327 204.178 421.333 201.577 418.527C201.19 418.103 201.651 417.383 202.186 417.586Z" fill="#141D38"/>
<path d="M184.896 447.803C188.051 448.856 190.873 451.698 193.419 453.766C196.316 456.11 199.23 458.436 202.164 460.743C208.03 465.358 213.878 469.991 219.892 474.403C220.188 474.625 219.874 475.105 219.579 474.883C213.436 470.434 207.255 466.06 201.149 461.556C198.16 459.34 195.172 457.107 192.202 454.873C189.674 452.972 186.298 450.868 184.638 448.099C184.546 447.951 184.73 447.767 184.896 447.803Z" fill="#141D38"/>
<path d="M332.174 450.794L279.91 551.415C279.91 551.415 397.204 607.328 438.509 601.791C479.815 596.271 460.665 517.284 458.138 499.489C456.33 486.771 434.672 409.87 417.773 378.6C400.875 347.33 385.932 346.794 383.626 389.38C381.301 431.947 384.77 483.707 383.054 482.95C381.338 482.193 332.174 450.794 332.174 450.794Z" fill="#684DF4"/>
<path d="M402.904 445.773C399.897 446.973 396.945 448.339 394.27 450.425C397.646 450.185 400.764 449.262 403.808 448.154C406.815 446.954 409.767 445.588 412.442 443.521C409.066 443.742 405.948 444.665 402.904 445.773ZM347.892 558.43C344.885 559.63 341.933 560.996 339.258 563.063C342.634 562.842 345.752 561.9 348.796 560.793C351.803 559.593 354.754 558.245 357.429 556.159C354.053 556.381 350.936 557.322 347.892 558.43ZM437.605 556.344C434.598 557.544 431.646 558.91 428.971 560.977C432.347 560.756 435.465 559.814 438.509 558.707C441.516 557.525 444.468 556.159 447.143 554.073C443.767 554.295 440.649 555.236 437.605 556.344ZM396.595 520.035C395.414 517.026 394.049 514.072 391.964 511.396C392.204 514.774 393.127 517.893 394.234 520.939C395.433 523.948 396.798 526.901 398.864 529.578C398.643 526.2 397.72 523.08 396.595 520.035ZM321.105 519.721C318.135 518.429 315.091 517.321 311.715 516.897C314.279 519.13 317.139 520.662 320.072 522.028C323.042 523.32 326.086 524.446 329.462 524.871C326.898 522.637 324.038 521.105 321.105 519.721ZM444.782 500.191C441.811 498.899 438.767 497.773 435.41 497.367C437.956 499.6 440.815 501.132 443.748 502.498C446.719 503.79 449.781 504.898 453.139 505.341C450.574 503.107 447.715 501.557 444.782 500.191ZM417.312 393.053C414.342 391.78 411.298 390.654 407.941 390.229C410.486 392.463 413.346 394.013 416.279 395.379C419.249 396.653 422.312 397.779 425.669 398.203C423.105 395.97 420.246 394.438 417.312 393.053ZM389.013 585.805C387.961 588.26 387.002 590.789 386.467 593.484C386.762 593.576 387.057 593.65 387.352 593.742C388.994 591.583 390.212 589.238 391.337 586.857C392.61 583.867 393.735 580.821 394.16 577.461C391.928 580.009 390.396 582.87 389.013 585.805ZM356.728 466.447C354.92 468.736 353.574 471.265 352.375 473.868C351.083 476.84 349.958 479.886 349.534 483.245C351.766 480.698 353.315 477.837 354.681 474.902C355.788 472.317 356.784 469.659 357.3 466.817V466.798C357.116 466.669 356.913 466.558 356.728 466.447Z" fill="#684DF4"/>
<path d="M383.252 481.547C388.731 487.159 392.697 493.324 396.7 499.379C400.777 505.526 403.877 511.857 407.179 518.189C407.253 518.336 406.884 518.41 406.791 518.263C403.102 512.079 398.656 506.079 394.579 499.988C390.52 493.933 385.761 488.045 382.089 481.879C381.868 481.473 382.901 481.196 383.252 481.547Z" fill="#141D38"/>
<path d="M441.311 438.758C444.41 451.44 456.586 495.262 458.744 508.11C460.995 520.921 462.729 533.842 463.227 546.782C463.356 553.261 463.245 559.648 462.434 566.054C461.659 572.422 460.441 578.772 457.895 584.476C455.386 590.161 451.254 594.998 445.701 597.508C440.167 600.056 433.765 600.591 427.474 600.259C414.782 599.557 402.219 595.865 389.822 592.1C377.424 588.26 365.175 583.848 352.925 579.418C340.676 575.006 328.5 570.373 316.361 565.629C304.222 560.885 292.065 556.159 280 551.249L280.11 551.563L283.339 544.844L279.704 551.36L279.594 551.563L279.815 551.674C291.659 557.156 303.558 562.509 315.549 567.623C327.559 572.717 339.643 577.664 351.8 582.427C363.976 587.153 376.262 591.564 388.733 595.607C401.204 599.483 413.86 603.471 427.29 604.209C433.95 604.486 440.942 603.914 447.306 600.942C450.479 599.483 453.339 597.287 455.663 594.702C458.006 592.1 459.796 589.091 461.161 585.971C463.873 579.695 465.053 573.05 465.81 566.497C466.64 559.944 466.511 553.243 466.197 546.69C463.19 503.126 448.874 463.734 441.311 438.758Z" fill="#141D38"/>
<path d="M382.853 414.411C382.631 419.782 382.594 425.135 382.447 430.507L382.299 446.585C382.152 457.292 382.299 468.053 382.059 478.704L381.986 480.679L381.93 481.621L381.893 482.045L381.875 482.193C381.875 482.23 381.875 482.23 381.875 482.193L381.893 482.156L382.022 481.935C382.188 481.676 382.484 481.455 382.76 481.381L382.963 481.307C383.074 481.27 383.222 481.27 383.332 481.289C383.388 481.307 383.443 481.325 383.498 481.344C383.535 481.362 383.48 481.325 383.48 481.325L383.388 481.289C383.258 481.233 383.166 481.196 383.019 481.104L382.17 480.642L380.454 479.664C378.167 478.317 375.879 476.914 373.61 475.529L359.903 467.167L346.141 458.842L332.286 450.683L332.157 450.609L332.102 450.739L331.105 452.954L332.341 450.868L332.157 450.923C336.511 454.061 340.901 457.144 345.311 460.19L358.649 469.198C363.095 472.188 367.614 475.086 372.134 477.984C374.403 479.406 376.691 480.827 379.015 482.212L380.786 483.245L381.709 483.744C381.856 483.818 382.078 483.928 382.244 484.002L382.391 484.076L382.484 484.113C382.576 484.15 382.668 484.168 382.76 484.187C382.963 484.224 383.166 484.242 383.369 484.242C383.48 484.224 383.535 484.242 383.701 484.187C383.996 484.094 384.328 483.836 384.513 483.541C384.624 483.356 384.661 483.264 384.642 483.282L384.679 483.208L384.734 483.042C384.771 482.913 384.79 482.839 384.79 482.784L384.845 482.433L384.9 481.861L384.974 480.809L385.048 478.76C385.214 467.961 384.974 457.273 384.587 446.53L383.923 430.452C383.535 425.117 383.295 419.764 382.853 414.411Z" fill="#141D38"/>
<path d="M324.884 522.379C330.824 510.805 336.673 499.176 343.037 487.805C346.653 481.344 350.25 474.865 353.922 468.441C354.069 468.201 354.493 468.404 354.383 468.662C348.885 480.513 343.351 492.401 337.3 503.993C331.286 515.53 325.382 527.141 319.202 538.605C315.697 545.121 312.007 551.526 308.096 557.821C308.022 557.95 307.801 557.839 307.856 557.71C312.967 545.693 318.888 534.045 324.884 522.379Z" fill="#141D38"/>
<path d="M378.645 427.055C379.013 430.23 379.659 433.313 380.379 436.396C381.135 439.46 381.947 442.524 383.072 445.515C382.722 442.34 382.057 439.257 381.338 436.174C380.582 433.11 379.751 430.046 378.645 427.055Z" fill="#141D38"/>
<path d="M321.902 349.176C321.902 349.176 319.061 379.744 336.753 381.313C354.445 382.882 381.601 358.239 392.559 349.176C392.559 349.176 377.782 335.663 353.522 337.048C332.639 338.229 321.902 349.176 321.902 349.176Z" fill="#E2E8FA"/>
<path d="M410.289 655.562H202.969V664.866H410.289V655.562Z" fill="#A6A6A6"/>
<path d="M410.269 655.562H305.926V664.866H410.269V655.562Z" fill="#C7C7C7"/>
<path d="M289.157 664.847H87.1125L58.5547 527.547H260.618L289.157 664.847Z" fill="#C7C7C7"/>
<path d="M189.524 599.261C190.299 606.701 184.912 612.737 177.477 612.737C170.043 612.737 163.383 606.701 162.59 599.261C161.815 591.822 167.202 585.786 174.636 585.786C182.089 585.786 188.749 591.822 189.524 599.261Z" fill="white"/>
<path d="M12.3071 456.165C5.1123 477.357 16.4579 500.375 37.618 507.556C46.178 510.473 55.0331 510.343 63.0211 507.759L80.178 518.945L78.2962 498.788C83.0374 494.376 86.764 488.764 88.9777 482.23C96.1725 461.039 84.8269 438.02 63.6668 430.839C42.4883 423.64 19.4834 434.993 12.3071 456.165Z" fill="#684DF4"/>
<path d="M39.4811 454.863L35.5938 458.753L61.7484 484.923L65.6357 481.034L39.4811 454.863Z" fill="white"/>
<path d="M65.6256 458.761L61.7383 454.871L35.5836 481.042L39.4709 484.931L65.6256 458.761Z" fill="white"/>
<path d="M182.625 115.924C183.234 145.256 207.493 168.57 236.807 167.961C248.651 167.721 259.517 163.605 268.225 156.83L294.366 162.94L283.038 138.925C286.913 131.375 288.997 122.773 288.813 113.728C288.204 84.396 263.945 61.0819 234.63 61.6911C205.298 62.3002 182.016 86.5926 182.625 115.924Z" fill="white"/>
<path d="M182.627 115.924C182.977 125.689 185.781 135.417 191.205 143.558C192.441 145.681 194.083 147.49 195.559 149.428C197.275 151.163 198.843 153.046 200.761 154.578C202.551 156.258 204.562 157.624 206.554 159.027C207.55 159.728 208.657 160.263 209.69 160.891L211.277 161.796C211.812 162.072 212.384 162.312 212.937 162.552C217.291 164.749 222.069 165.967 226.81 166.872C229.227 167.167 231.625 167.555 234.06 167.499C236.477 167.61 238.912 167.518 241.329 167.241C250.977 166.152 260.238 162.312 267.82 156.313L268.06 156.129L268.374 156.202L294.552 162.165L293.629 163.291L282.228 139.312L282.044 138.924L282.247 138.537C285.807 131.485 287.763 123.622 287.929 115.721C287.947 107.821 286.527 99.8462 283.059 92.7025C279.683 85.5403 274.72 79.1349 268.632 74.0586C262.526 68.9823 255.183 65.4381 247.454 63.5922C239.724 61.7647 231.533 61.654 223.748 63.4076C215.963 65.1982 208.583 68.7608 202.329 73.7817C189.711 83.7497 182.332 99.8277 182.627 115.924ZM182.627 115.924C182.258 99.8277 189.526 83.6574 202.145 73.5418C208.362 68.4285 215.741 64.6998 223.6 62.7616C231.459 60.8602 239.761 60.8418 247.693 62.5954C255.608 64.3675 263.171 67.8748 269.518 72.9695C275.864 78.0643 281.066 84.6173 284.553 91.9826C291.582 106.732 291.489 124.785 283.852 139.331L283.87 138.555L295.124 162.608L295.843 164.14L294.22 163.752L268.116 157.494L268.669 157.365C260.81 163.383 251.272 167.167 241.458 168.109C239.004 168.349 236.532 168.404 234.079 168.256C231.607 168.275 229.171 167.85 226.736 167.518C221.94 166.54 217.143 165.229 212.789 162.94C208.399 160.78 204.248 158.085 200.614 154.781C198.695 153.249 197.127 151.348 195.43 149.594C193.954 147.637 192.312 145.81 191.094 143.669C185.652 135.454 182.922 125.689 182.627 115.924Z" fill="#141D38"/>
<path d="M226.537 124.176C226.537 121.757 226.924 119.598 227.717 117.678C228.511 115.758 230.134 114.078 232.588 112.657C233.326 112.214 234.23 111.716 235.318 111.143C236.407 110.571 237.458 109.907 238.491 109.113C239.524 108.319 240.391 107.396 241.111 106.344C241.83 105.292 242.181 104.073 242.181 102.689C242.181 101.655 241.978 100.751 241.59 99.957C241.203 99.1632 240.687 98.4987 240.041 97.9634C239.395 97.428 238.657 97.0219 237.79 96.745C236.923 96.4682 236.056 96.3389 235.17 96.3389C234.082 96.3389 233.104 96.5235 232.219 96.8927C231.333 97.2619 230.54 97.7234 229.821 98.2956C229.101 98.8679 228.474 99.4955 227.902 100.215C227.33 100.935 226.85 101.6 226.463 102.246L220.043 97.8157C220.689 96.2836 221.537 94.936 222.589 93.7547C223.64 92.5733 224.858 91.5765 226.205 90.7642C227.551 89.952 229.027 89.3429 230.595 88.9183C232.163 88.4938 233.787 88.2907 235.466 88.2907C237.329 88.2907 239.174 88.5676 241 89.1029C242.826 89.6382 244.45 90.5058 245.907 91.6872C247.365 92.8686 248.545 94.3823 249.449 96.2282C250.353 98.0741 250.815 100.289 250.815 102.837C250.815 104.406 250.63 105.809 250.261 107.008C249.892 108.208 249.357 109.316 248.675 110.294C247.992 111.272 247.18 112.159 246.239 112.952C245.299 113.746 244.247 114.503 243.066 115.241C242.089 115.832 241.092 116.404 240.115 116.939C239.137 117.475 238.233 118.084 237.421 118.748C236.609 119.413 235.945 120.17 235.429 121.037C234.912 121.905 234.654 122.939 234.654 124.176H226.537ZM226.684 141.398V131.209H234.875V141.398H226.684Z" fill="#684DF4"/>
</svg>
