<svg width="100" height="120" viewBox="0 0 100 120" fill="none" xmlns="http://www.w3.org/2000/svg">
<line x1="-141.646" y1="-32.3536" x2="27.3535" y2="136.646" stroke="#F5F5F5"/>
<line x1="-131.646" y1="-32.3536" x2="37.3535" y2="136.646" stroke="#F5F5F5"/>
<line x1="-121.646" y1="-32.3536" x2="47.3535" y2="136.646" stroke="#F5F5F5"/>
<line x1="-111.646" y1="-32.3536" x2="57.3535" y2="136.646" stroke="#F5F5F5"/>
<line x1="-101.646" y1="-32.3536" x2="67.3535" y2="136.646" stroke="#F5F5F5"/>
<line x1="-91.6464" y1="-32.3536" x2="77.3535" y2="136.646" stroke="#F5F5F5"/>
<line x1="-81.6464" y1="-32.3536" x2="87.3535" y2="136.646" stroke="#F5F5F5"/>
<line x1="-71.6464" y1="-32.3536" x2="97.3535" y2="136.646" stroke="#F5F5F5"/>
<line x1="-61.6464" y1="-32.3536" x2="107.354" y2="136.646" stroke="#F5F5F5"/>
<line x1="-51.6464" y1="-32.3536" x2="117.354" y2="136.646" stroke="#F5F5F5"/>
<line x1="-41.6464" y1="-32.3536" x2="127.354" y2="136.646" stroke="#F5F5F5"/>
<line x1="-31.6464" y1="-32.3536" x2="137.354" y2="136.646" stroke="#F5F5F5"/>
<line x1="-21.6464" y1="-32.3536" x2="147.354" y2="136.646" stroke="#F5F5F5"/>
<line x1="-11.6464" y1="-32.3536" x2="157.354" y2="136.646" stroke="#F5F5F5"/>
<line x1="-1.64645" y1="-32.3536" x2="167.354" y2="136.646" stroke="#F5F5F5"/>
<line x1="8.35355" y1="-32.3536" x2="177.354" y2="136.646" stroke="#F5F5F5"/>
<line x1="18.3536" y1="-32.3536" x2="187.354" y2="136.646" stroke="#F5F5F5"/>
<line x1="28.3536" y1="-32.3536" x2="197.354" y2="136.646" stroke="#F5F5F5"/>
<line x1="38.3536" y1="-32.3536" x2="207.354" y2="136.646" stroke="#F5F5F5"/>
<line x1="48.3536" y1="-32.3536" x2="217.354" y2="136.646" stroke="#F5F5F5"/>
<line x1="58.3536" y1="-32.3536" x2="227.354" y2="136.646" stroke="#F5F5F5"/>
<line x1="68.3536" y1="-32.3536" x2="237.354" y2="136.646" stroke="#F5F5F5"/>
<line x1="78.3536" y1="-32.3536" x2="247.354" y2="136.646" stroke="#F5F5F5"/>
<line x1="88.3536" y1="-32.3536" x2="257.354" y2="136.646" stroke="#F5F5F5"/>
<line x1="98.3536" y1="-32.3536" x2="267.354" y2="136.646" stroke="#F5F5F5"/>
</svg>
