<svg width="14" height="14" viewBox="0 0 14 14" fill="none" xmlns="http://www.w3.org/2000/svg">
<path fill-rule="evenodd" clip-rule="evenodd" d="M3.81868 5.31159C4.14357 5.63648 4.67043 5.63647 4.99499 5.31126C5.31988 4.98654 5.32004 4.45999 4.99499 4.13494C4.89011 4.03022 4.76444 3.95926 4.6313 3.92208L4.68066 2.96755C4.80114 2.94044 4.91544 2.87987 5.00928 2.78635C5.27328 2.52235 5.27328 2.09452 5.00928 1.83052C4.98769 1.80893 4.96528 1.78961 4.9419 1.77158L5.27004 0.946293C5.38239 0.942884 5.49361 0.898233 5.57949 0.812668C5.75842 0.633094 5.75858 0.343114 5.57949 0.163866C5.40041 -0.0153833 5.10995 -0.015221 4.93086 0.163866C4.75226 0.342627 4.75194 0.631958 4.92973 0.811207L4.60175 1.63617C4.40627 1.61572 4.20315 1.68066 4.05346 1.83036C3.78946 2.09436 3.78946 2.52235 4.05346 2.78603C4.12977 2.86234 4.21956 2.91641 4.31535 2.94855L4.26599 3.90325C4.10233 3.93134 3.94516 4.00862 3.81885 4.13494C3.4938 4.45999 3.4938 4.9867 3.81868 5.31159ZM3.66688 0.670276C3.71575 0.585847 3.82372 0.556946 3.90814 0.605655C3.99257 0.654364 4.02147 0.762336 3.97276 0.846765C3.92406 0.931193 3.81593 0.960256 3.73166 0.911385C3.64707 0.862676 3.61817 0.754867 3.66688 0.670276ZM2.59318 1.52236C2.67874 1.37396 2.86838 1.32314 3.01662 1.40887C3.16502 1.49443 3.21584 1.68407 3.13011 1.83231C3.04454 1.98055 2.8549 2.03137 2.70667 1.94564C2.55827 1.86023 2.50745 1.67076 2.59318 1.52236ZM0.167494 4.88116C0.142166 4.78699 0.19818 4.69006 0.292349 4.66506C0.386519 4.63973 0.483288 4.69558 0.508616 4.78975C0.533945 4.88392 0.477927 4.98069 0.383757 5.00602C0.289587 5.03119 0.19266 4.97533 0.167494 4.88116ZM0.0106501 6.2429C-0.0336746 6.07745 0.0643919 5.90746 0.229838 5.8633C0.395285 5.81881 0.565118 5.91704 0.609442 6.08232C0.653767 6.24777 0.555701 6.4176 0.390254 6.46209C0.22497 6.50642 0.0549749 6.40819 0.0106501 6.2429ZM0.670328 10.3332C0.5859 10.2844 0.557 10.1765 0.605708 10.092C0.654417 10.0076 0.762385 9.97855 0.846976 10.0274C0.931404 10.0763 0.960304 10.1841 0.911595 10.2685C0.862887 10.353 0.754756 10.3819 0.670328 10.3332ZM1.5224 11.4069C1.374 11.3213 1.32335 11.1317 1.40891 10.9834C1.49448 10.8352 1.68395 10.7844 1.83235 10.8699C1.98075 10.9555 2.03157 11.1451 1.94584 11.2934C1.86028 11.4418 1.67064 11.4926 1.5224 11.4069ZM4.88118 13.8327C4.78701 13.8581 4.69024 13.802 4.66491 13.7079C4.63959 13.6137 4.6956 13.5168 4.78977 13.4916C4.8841 13.4664 4.98087 13.5223 5.00604 13.6165C5.0312 13.7106 4.97535 13.8074 4.88118 13.8327ZM6.24274 13.9894C6.0773 14.0336 5.90747 13.9357 5.86314 13.7702C5.81882 13.6048 5.91689 13.4348 6.08233 13.3906C6.24778 13.3461 6.41761 13.4442 6.46193 13.6098C6.50642 13.7752 6.40835 13.9451 6.24274 13.9894ZM10.3331 13.3297C10.2843 13.4143 10.1764 13.4432 10.0919 13.3943C10.0074 13.3456 9.97853 13.2377 10.0272 13.1532C10.0759 13.0688 10.1841 13.0399 10.2685 13.0886C10.3529 13.1373 10.3818 13.2451 10.3331 13.3297ZM11.4068 12.4776C11.3213 12.626 11.1318 12.6769 10.9835 12.5911C10.8351 12.5056 10.7843 12.3161 10.8701 12.1677C10.9556 12.0193 11.1453 11.9686 11.2935 12.0544C11.4416 12.1398 11.4924 12.3294 11.4068 12.4776ZM13.8325 9.11884C13.8578 9.21301 13.8018 9.30994 13.7077 9.33511C13.6136 9.36027 13.5167 9.30442 13.4915 9.21025C13.4662 9.11608 13.5222 9.01915 13.6164 8.99398C13.7106 8.96882 13.8073 9.02467 13.8325 9.11884ZM13.9893 7.7571C14.0337 7.92255 13.9356 8.09254 13.7702 8.1367C13.6047 8.18103 13.4349 8.08312 13.3906 7.91751C13.3462 7.75207 13.4443 7.58223 13.6097 7.53791C13.775 7.49358 13.945 7.59181 13.9893 7.7571ZM13.3297 3.66685C13.4141 3.71556 13.443 3.82353 13.3943 3.90796C13.3456 3.99222 13.2376 4.02145 13.1532 3.97258C13.0686 3.92371 13.0397 3.8159 13.0886 3.73131C13.1371 3.64704 13.2451 3.61814 13.3297 3.66685ZM12.4776 2.59314C12.626 2.67871 12.6768 2.86835 12.5911 3.01659C12.5055 3.16498 12.316 3.2158 12.1676 3.13008C12.0192 3.04451 11.9684 2.85487 12.0542 2.70663C12.1397 2.55823 12.3292 2.50741 12.4776 2.59314ZM9.11882 0.167437C9.21299 0.142271 9.30976 0.198124 9.33509 0.292294C9.36041 0.386465 9.3044 0.483233 9.21023 0.508562C9.11606 0.533891 9.01913 0.477875 8.99396 0.383705C8.9688 0.289534 9.02465 0.192603 9.11882 0.167437ZM7.75709 0.0105947C7.92254 -0.033568 8.09237 0.0643369 8.13669 0.229785C8.18102 0.395233 8.08295 0.565227 7.9175 0.609552C7.75206 0.653877 7.58223 0.55581 7.53774 0.390362C7.49358 0.224752 7.59181 0.0549198 7.75709 0.0105947ZM6.50187 0.844816C6.73892 0.781332 6.98295 0.921939 7.04644 1.15915C7.10992 1.39653 6.96915 1.64023 6.73194 1.70388C6.49473 1.76753 6.25086 1.62659 6.18722 1.38938C6.12373 1.15201 6.2645 0.9083 6.50187 0.844816ZM2.29541 2.99986C2.41815 2.78717 2.69011 2.71443 2.9028 2.83701C3.1155 2.95976 3.1884 3.23172 3.06565 3.44457C2.94274 3.65711 2.67078 3.73001 2.45825 3.60726C2.2454 3.48452 2.1725 3.21256 2.29541 2.99986ZM0.844867 7.49813C0.781383 7.26108 0.921987 7.01721 1.15936 6.95373C1.39641 6.89008 1.64028 7.03085 1.70392 7.26806C1.76757 7.50511 1.62664 7.74898 1.38943 7.81247C1.15222 7.87611 0.908513 7.73534 0.844867 7.49813ZM3.00006 11.7048C2.7872 11.5819 2.7143 11.3099 2.83737 11.0974C2.96011 10.8847 3.23191 10.8118 3.4446 10.9347C3.65746 11.0575 3.7302 11.3292 3.60729 11.5421C3.48438 11.7546 3.21259 11.8275 3.00006 11.7048ZM7.49829 13.1552C7.26124 13.2187 7.01721 13.0781 6.95373 12.8407C6.89024 12.6036 7.03101 12.3596 7.26806 12.2961C7.50543 12.2326 7.74914 12.3736 7.81262 12.6105C7.8761 12.8478 7.7355 13.0917 7.49829 13.1552ZM11.7046 11.0001C11.5818 11.2128 11.3099 11.2856 11.0972 11.163C10.8843 11.0401 10.8114 10.7681 10.9343 10.5554C11.0573 10.3427 11.3291 10.27 11.5419 10.3927C11.7546 10.5153 11.8275 10.7874 11.7046 11.0001ZM13.1553 6.50187C13.2188 6.73892 13.078 6.98279 12.8406 7.04627C12.6036 7.10976 12.3597 6.96899 12.2962 6.73194C12.2328 6.49456 12.3735 6.25102 12.6106 6.18737C12.8478 6.12389 13.0916 6.26466 13.1553 6.50187ZM11.0001 2.2952C11.2126 2.41811 11.2855 2.68991 11.1628 2.90261C11.04 3.11514 10.7683 3.18804 10.5554 3.06529C10.3425 2.94239 10.2696 2.67059 10.3925 2.45789C10.5155 2.24536 10.7874 2.17246 11.0001 2.2952ZM3.55663 8.05569C4.01628 8.05585 4.38857 7.68323 4.38857 7.2239C4.38857 6.76441 4.01612 6.39195 3.55663 6.39195C3.40856 6.39195 3.26941 6.43076 3.14894 6.49879L2.50891 5.78893C2.57483 5.68454 2.61298 5.56081 2.61315 5.42832C2.61298 5.05521 2.31051 4.75257 1.93707 4.75257C1.90688 4.75257 1.87716 4.75468 1.84794 4.75842L1.49642 3.94287C1.57338 3.86087 1.62047 3.75063 1.62079 3.62918C1.62047 3.37589 1.41524 3.17067 1.1618 3.17067C0.908513 3.17051 0.703288 3.37606 0.703288 3.62918C0.703288 3.88198 0.907537 4.08672 1.16017 4.08786L1.51136 4.90324C1.35874 5.02713 1.26116 5.21628 1.26116 5.42832C1.26116 5.8016 1.56364 6.10408 1.93691 6.10408C2.04472 6.10408 2.14652 6.07875 2.23696 6.03378L2.87715 6.74347C2.78119 6.87904 2.72469 7.04481 2.72469 7.22357C2.72469 7.68322 3.09715 8.05569 3.55663 8.05569ZM5.3116 10.1813C5.63648 9.85646 5.63665 9.32975 5.3116 9.00502C4.98671 8.67997 4.46001 8.67997 4.13513 9.00502C4.03024 9.10958 3.95945 9.23558 3.92227 9.36872L2.96775 9.31952C2.94063 9.19888 2.88007 9.08458 2.78655 8.99073C2.52255 8.72689 2.09473 8.72706 1.83089 8.9909C1.8093 9.01233 1.78965 9.0349 1.77163 9.05811L0.946505 8.72998C0.942933 8.6173 0.898284 8.50624 0.812557 8.42051C0.633147 8.24143 0.34317 8.24127 0.163923 8.42051C-0.0153247 8.5996 -0.0151624 8.89007 0.163923 9.06883C0.342683 9.24776 0.632172 9.24808 0.811094 9.07013L1.63638 9.39826C1.61609 9.59391 1.6807 9.7967 1.83056 9.94657C2.09456 10.2102 2.52255 10.2106 2.78639 9.94657C2.8627 9.87042 2.9166 9.78047 2.94875 9.68484L3.90344 9.73403C3.93136 9.89786 4.00865 10.0549 4.13496 10.1815C4.46017 10.5062 4.98671 10.5061 5.3116 10.1813ZM8.05567 10.4434C8.05584 9.98391 7.68322 9.61145 7.2239 9.61145C6.76457 9.61129 6.39212 9.98391 6.39212 10.4432C6.39212 10.5915 6.43092 10.7306 6.49863 10.8511L5.78894 11.4911C5.68455 11.4254 5.56099 11.3872 5.42834 11.387C5.05523 11.387 4.75259 11.6897 4.75259 12.0631C4.75259 12.0933 4.7547 12.1232 4.75843 12.1524L3.94305 12.5039C3.86122 12.4268 3.75065 12.3799 3.62937 12.3797C3.37609 12.3801 3.1707 12.5853 3.1707 12.8383C3.1707 13.0917 3.37609 13.2971 3.62937 13.2969C3.88217 13.2971 4.08691 13.0928 4.08788 12.84L4.9031 12.4887C5.02714 12.6413 5.21646 12.739 5.42834 12.739C5.80177 12.7389 6.10425 12.4362 6.10425 12.0633C6.10425 11.9555 6.07908 11.8537 6.03411 11.7632L6.74396 11.123C6.87937 11.219 7.0453 11.2753 7.22406 11.2755C7.68338 11.2753 8.05551 10.9029 8.05567 10.4434ZM10.1813 8.68841C9.85643 8.36353 9.32973 8.36353 9.00484 8.68841C8.67996 9.01347 8.67996 9.54001 9.00484 9.8649C9.10957 9.96962 9.2354 10.0406 9.36837 10.0779L9.31917 11.0321C9.1987 11.0594 9.0844 11.12 8.99055 11.2136C8.72655 11.4772 8.72672 11.9053 8.99072 12.1693C9.01215 12.1907 9.03472 12.2104 9.05793 12.2283L8.72996 13.0532C8.61745 13.0568 8.50607 13.1016 8.42034 13.1872C8.24142 13.3666 8.24126 13.6569 8.42034 13.8358C8.59943 14.0151 8.88973 14.0151 9.06881 13.836C9.24741 13.6572 9.2479 13.3679 9.06995 13.1886L9.39808 12.3635C9.59373 12.3838 9.79652 12.3192 9.94638 12.1692C10.2104 11.9052 10.2104 11.4773 9.94622 11.2135C9.87023 11.1372 9.78012 11.0833 9.68465 11.0511L9.73385 10.0966C9.89767 10.0685 10.0547 9.99121 10.1812 9.8649C10.5062 9.53984 10.5062 9.01314 10.1813 8.68841ZM10.4434 5.94432C9.98405 5.94432 9.61143 6.31678 9.61143 6.77626C9.61143 7.23575 9.98388 7.60821 10.4435 7.60821C10.5916 7.60821 10.7309 7.56941 10.8512 7.50154L11.4913 8.21139C11.4252 8.31563 11.3872 8.43935 11.3872 8.57184C11.3872 8.94495 11.6897 9.24759 12.0629 9.24759C12.0933 9.24759 12.1232 9.24564 12.1522 9.24159L12.5037 10.0571C12.4266 10.1391 12.3797 10.2495 12.3795 10.3707C12.3799 10.6239 12.5851 10.8293 12.838 10.8293C13.0918 10.8293 13.297 10.6239 13.2967 10.3708C13.2967 10.1179 13.0925 9.91328 12.84 9.91231L12.4885 9.09692C12.6411 8.97304 12.7388 8.78388 12.7387 8.57184C12.7388 8.19857 12.4364 7.89608 12.0631 7.89592C11.9553 7.89608 11.8536 7.92125 11.7632 7.96622L11.123 7.25653C11.219 7.12096 11.2755 6.95519 11.2756 6.77643C11.2753 6.31678 10.9029 5.94432 10.4434 5.94432ZM8.6884 3.81866C8.36352 4.14355 8.36335 4.67042 8.6884 4.99514C9.01329 5.32003 9.53999 5.32003 9.86504 4.99498C9.9696 4.89025 10.0407 4.76442 10.0779 4.63112L11.0324 4.68064C11.0595 4.80096 11.1201 4.91542 11.2138 5.0091C11.4776 5.27294 11.9056 5.27294 12.1694 5.0091C12.1909 4.98767 12.2107 4.9651 12.2285 4.94172L13.0535 5.26986C13.0571 5.38222 13.102 5.4936 13.1876 5.57932C13.3669 5.75841 13.657 5.75841 13.8361 5.57949C14.0153 5.40024 14.0153 5.10977 13.8361 4.93068C13.6573 4.75208 13.368 4.7516 13.1887 4.92955L12.3638 4.60157C12.3839 4.40593 12.3193 4.20297 12.1693 4.05344C11.9053 3.78943 11.4774 3.78943 11.2136 4.05327C11.1373 4.12958 11.0834 4.21937 11.0512 4.31516L10.0967 4.26597C10.0688 4.10231 9.99135 3.94514 9.86487 3.81882C9.53983 3.49361 9.01345 3.49377 8.6884 3.81866ZM5.94433 3.5566C5.94433 4.01625 6.31678 4.38872 6.7761 4.38839C7.23559 4.38839 7.60805 4.01609 7.60821 3.5566C7.60805 3.40837 7.56924 3.26938 7.50137 3.14891L8.21122 2.50888C8.31545 2.57479 8.43917 2.61279 8.57182 2.61311C8.94493 2.61311 9.24774 2.31047 9.24741 1.93703C9.24757 1.90667 9.2453 1.87696 9.24156 1.84773L10.0569 1.49638C10.1391 1.57334 10.2492 1.62026 10.3705 1.62059C10.6239 1.62026 10.829 1.4152 10.829 1.16191C10.8291 0.908462 10.6238 0.703073 10.3706 0.703073C10.1178 0.703397 9.91293 0.907488 9.91196 1.16013L9.09658 1.51132C8.97269 1.35886 8.78338 1.26112 8.57134 1.26112C8.19807 1.26128 7.89559 1.5636 7.89559 1.93687C7.89543 2.04468 7.92075 2.14648 7.96589 2.23692L7.25588 2.87711C7.12031 2.78116 6.9547 2.72466 6.77578 2.72466C6.31662 2.72466 5.94433 3.09695 5.94433 3.5566Z" fill="#684DF4"/>
</svg>
