<svg width="50" height="50" viewBox="0 0 50 50" fill="none" xmlns="http://www.w3.org/2000/svg">
<path fill-rule="evenodd" clip-rule="evenodd" d="M13.6382 18.97C14.7985 20.1303 16.6801 20.1303 17.8393 18.9688C18.9996 17.8091 19.0001 15.9285 17.8393 14.7676C17.4647 14.3936 17.0159 14.1402 16.5404 14.0074L16.7167 10.5984C17.1469 10.5016 17.5551 10.2853 17.8903 9.95126C18.8332 9.0084 18.8332 7.48044 17.8903 6.53758C17.8132 6.46046 17.7332 6.39145 17.6497 6.32709L18.8216 3.37962C19.2228 3.36744 19.62 3.20798 19.9268 2.90238C20.5658 2.26105 20.5664 1.22541 19.9268 0.585234C19.2872 -0.0549405 18.2498 -0.0543606 17.6102 0.585234C16.9724 1.22367 16.9712 2.25699 17.6062 2.89717L16.4348 5.84348C15.7367 5.77041 15.0113 6.00236 14.4766 6.537C13.5338 7.47987 13.5338 9.0084 14.4766 9.9501C14.7492 10.2226 15.0698 10.4157 15.412 10.5306L15.2357 13.9402C14.6512 14.0405 14.0899 14.3165 13.6387 14.7676C12.4778 15.9285 12.4778 17.8096 13.6382 18.97ZM13.096 2.39384C13.2705 2.09231 13.6561 1.98909 13.9577 2.16305C14.2592 2.33701 14.3624 2.72263 14.1884 3.02416C14.0145 3.32569 13.6283 3.42949 13.3274 3.25495C13.0252 3.08098 12.922 2.69595 13.096 2.39384ZM9.26135 5.43699C9.56693 4.90699 10.2442 4.72549 10.7736 5.03166C11.3036 5.33725 11.4851 6.01454 11.179 6.54396C10.8734 7.07338 10.1961 7.25488 9.66667 6.94871C9.13667 6.6437 8.95518 5.96699 9.26135 5.43699ZM0.598193 17.4327C0.507735 17.0964 0.707784 16.7502 1.0441 16.6609C1.38043 16.5705 1.72603 16.7699 1.81649 17.1063C1.90695 17.4426 1.70688 17.7882 1.37056 17.8786C1.03424 17.9685 0.688072 17.769 0.598193 17.4327ZM0.0380362 22.2961C-0.120266 21.7052 0.229971 21.0981 0.820852 20.9403C1.41173 20.7815 2.01828 21.1323 2.17658 21.7226C2.33488 22.3135 1.98464 22.92 1.39376 23.0789C0.803463 23.2372 0.196339 22.8864 0.0380362 22.2961ZM2.39403 36.9041C2.0925 36.7302 1.98928 36.3445 2.16324 36.043C2.3372 35.7415 2.7228 35.6377 3.02491 35.8122C3.32644 35.9868 3.42966 36.3718 3.2557 36.6733C3.08174 36.9749 2.69556 37.0781 2.39403 36.9041ZM5.43715 40.7388C4.90716 40.4332 4.72624 39.7559 5.03183 39.2265C5.33741 38.6971 6.01412 38.5156 6.54411 38.8212C7.07411 39.1267 7.25561 39.804 6.94944 40.3335C6.64385 40.8635 5.96657 41.045 5.43715 40.7388ZM17.4328 49.4026C17.0965 49.493 16.7509 49.293 16.6604 48.9567C16.5699 48.6203 16.77 48.2742 17.1063 48.1843C17.4432 48.0944 17.7888 48.2939 17.8787 48.6302C17.9686 48.9665 17.7691 49.3121 17.4328 49.4026ZM22.2955 49.9622C21.7046 50.1199 21.0981 49.7702 20.9398 49.1793C20.7815 48.5885 21.1317 47.9813 21.7226 47.8236C22.3135 47.6647 22.92 48.015 23.0783 48.6064C23.2372 49.1973 22.887 49.8039 22.2955 49.9622ZM36.904 47.6062C36.7295 47.9083 36.3444 48.0115 36.0423 47.8369C35.7408 47.663 35.6376 47.2774 35.8116 46.9758C35.9855 46.6743 36.3717 46.5711 36.6732 46.7451C36.9748 46.919 37.078 47.304 36.904 47.6062ZM40.7387 44.563C40.4331 45.093 39.7564 45.2745 39.2269 44.9683C38.6969 44.6627 38.5155 43.986 38.8216 43.456C39.1272 42.926 39.8045 42.7451 40.3339 43.0513C40.8627 43.3563 41.0442 44.0336 40.7387 44.563ZM49.4018 32.5673C49.4923 32.9036 49.2922 33.2498 48.9559 33.3397C48.6202 33.4295 48.274 33.2301 48.1841 32.8937C48.0936 32.5574 48.2937 32.2112 48.63 32.1214C48.9663 32.0315 49.3119 32.231 49.4018 32.5673ZM49.962 27.7039C50.1203 28.2948 49.77 28.9019 49.1791 29.0597C48.5883 29.218 47.9817 28.8683 47.8234 28.2768C47.6651 27.6859 48.0154 27.0794 48.6062 26.9211C49.1965 26.7628 49.8037 27.1136 49.962 27.7039ZM47.606 13.0959C47.9075 13.2698 48.0107 13.6555 47.8368 13.957C47.6628 14.2579 47.2772 14.3623 46.9757 14.1878C46.6736 14.0132 46.5703 13.6282 46.7449 13.3261C46.9182 13.0251 47.3039 12.9219 47.606 13.0959ZM44.5629 9.26122C45.0928 9.56681 45.2743 10.2441 44.9682 10.7735C44.6626 11.3035 43.9859 11.485 43.4559 11.1788C42.9259 10.8733 42.7444 10.196 43.0506 9.66655C43.3561 9.13655 44.0329 8.95505 44.5629 9.26122ZM32.5672 0.597989C32.9035 0.50811 33.2491 0.707584 33.3396 1.04391C33.4301 1.38023 33.23 1.72583 32.8937 1.81629C32.5574 1.90675 32.2112 1.7067 32.1213 1.37037C32.0314 1.03405 32.2309 0.687869 32.5672 0.597989ZM27.7039 0.0378383C28.2948 -0.119886 28.9013 0.229775 29.0596 0.82066C29.2179 1.41155 28.8677 2.01867 28.2768 2.17697C27.6859 2.33528 27.0794 1.98504 26.9205 1.39415C26.7628 0.802685 27.1136 0.196142 27.7039 0.0378383ZM23.221 3.0172C24.0676 2.79047 24.9391 3.29264 25.1658 4.13983C25.3926 4.98759 24.8898 5.85797 24.0427 6.08528C23.1955 6.31259 22.3245 5.80926 22.0972 4.96208C21.8705 4.11431 22.3732 3.24393 23.221 3.0172ZM8.19789 10.7138C8.63626 9.95416 9.60753 9.69438 10.3671 10.1322C11.1268 10.5706 11.3871 11.5418 10.9488 12.302C10.5098 13.0611 9.53852 13.3215 8.77948 12.8831C8.01928 12.4447 7.75893 11.4734 8.19789 10.7138ZM3.01738 26.779C2.79065 25.9324 3.29281 25.0615 4.14057 24.8347C4.98717 24.6074 5.85813 25.1102 6.08543 25.9574C6.31274 26.804 5.80943 27.6749 4.96225 27.9017C4.11507 28.129 3.24469 27.6262 3.01738 26.779ZM10.7145 41.8028C9.95429 41.3639 9.69393 40.3926 10.1335 39.6335C10.5718 38.8739 11.5425 38.6136 12.3021 39.0525C13.0623 39.4909 13.3221 40.4616 12.8832 41.2218C12.4442 41.9809 11.4735 42.2412 10.7145 41.8028ZM26.7796 46.9828C25.933 47.2095 25.0615 46.7074 24.8347 45.8596C24.608 45.013 25.1107 44.1414 25.9573 43.9147C26.8051 43.688 27.6755 44.1913 27.9022 45.0373C28.1289 45.8851 27.6268 46.7561 26.7796 46.9828ZM41.8021 39.2862C41.3637 40.0458 40.3925 40.3056 39.6328 39.8678C38.8726 39.4289 38.6123 38.4576 39.0512 37.698C39.4902 36.9383 40.4609 36.6785 41.2211 37.1169C41.9807 37.5547 42.2411 38.5266 41.8021 39.2862ZM46.9832 23.221C47.2099 24.0676 46.7072 24.9385 45.8594 25.1653C45.0128 25.392 44.1419 24.8892 43.9151 24.0426C43.6884 23.1949 44.1912 22.3251 45.0378 22.0978C45.8849 21.871 46.7559 22.3738 46.9832 23.221ZM39.2861 8.19716C40.0451 8.63612 40.3055 9.60682 39.8671 10.3664C39.4287 11.1255 38.4581 11.3859 37.6979 10.9475C36.9377 10.5085 36.6773 9.53782 37.1163 8.77819C37.5552 8.01914 38.5265 7.75878 39.2861 8.19716ZM12.7023 28.7703C14.3439 28.7709 15.6735 27.4401 15.6735 25.7996C15.6735 24.1586 14.3433 22.8284 12.7023 22.8284C12.1734 22.8284 11.6765 22.967 11.2462 23.2099L8.9604 20.6748C9.19582 20.3019 9.33209 19.86 9.33267 19.3869C9.33209 18.0543 8.25181 16.9735 6.91812 16.9735C6.81027 16.9735 6.70415 16.981 6.59978 16.9943L5.34437 14.0817C5.61922 13.7888 5.78739 13.3951 5.78855 12.9614C5.78739 12.0568 5.05444 11.3238 4.14928 11.3238C3.24469 11.3232 2.51174 12.0573 2.51174 12.9614C2.51174 13.8642 3.2412 14.5954 4.14347 14.5995L5.39772 17.5116C4.85265 17.954 4.50414 18.6296 4.50414 19.3869C4.50414 20.72 5.58444 21.8003 6.91754 21.8003C7.30257 21.8003 7.66615 21.7098 7.98913 21.5492L10.2755 24.0838C9.93283 24.568 9.73104 25.16 9.73104 25.7985C9.73104 27.4401 11.0612 28.7703 12.7023 28.7703ZM18.97 36.3619C20.1303 35.2016 20.1309 33.3205 18.97 32.1608C17.8097 30.9999 15.9286 30.9999 14.7683 32.1608C14.3937 32.5342 14.1409 32.9842 14.0081 33.4597L10.5991 33.284C10.5023 32.8532 10.286 32.4449 9.95197 32.1098C9.00911 31.1675 7.48117 31.1681 6.53889 32.1103C6.46177 32.1869 6.39161 32.2675 6.32725 32.3504L3.38038 31.1785C3.36762 30.7761 3.20816 30.3794 2.90199 30.0733C2.26124 29.4337 1.22561 29.4331 0.585438 30.0733C-0.0547311 30.7129 -0.0541513 31.7502 0.585438 32.3887C1.22387 33.0277 2.25776 33.0289 2.89677 32.3933L5.84422 33.5652C5.77173 34.264 6.00252 34.9882 6.53773 35.5234C7.48059 36.4652 9.00911 36.4663 9.95139 35.5234C10.2239 35.2515 10.4164 34.9302 10.5313 34.5887L13.9408 34.7644C14.0406 35.3495 14.3166 35.9102 14.7677 36.3625C15.9292 37.5222 17.8097 37.5217 18.97 36.3619ZM28.7703 37.2978C28.7708 35.6568 27.4401 34.3266 25.7996 34.3266C24.1592 34.326 22.829 35.6568 22.829 37.2973C22.829 37.8267 22.9676 38.3236 23.2094 38.7539L20.6748 41.0397C20.3019 40.8049 19.8607 40.6686 19.3869 40.668C18.0544 40.668 16.9735 41.7489 16.9735 43.0826C16.9735 43.1905 16.9811 43.2972 16.9944 43.4015L14.0823 44.6569C13.7901 44.3815 13.3952 44.2139 12.962 44.2133C12.0575 44.2145 11.3239 44.9475 11.3239 45.8509C11.3239 46.7561 12.0575 47.4896 12.962 47.489C13.8649 47.4896 14.5961 46.7601 14.5996 45.8573L17.5111 44.6024C17.9541 45.1475 18.6302 45.4966 19.3869 45.4966C20.7206 45.496 21.8009 44.4151 21.8009 43.0832C21.8009 42.6982 21.711 42.3346 21.5504 42.0116L24.0856 39.7252C24.5692 40.0679 25.1618 40.2691 25.8002 40.2697C27.4406 40.2691 28.7697 38.9389 28.7703 37.2978ZM36.3618 31.0301C35.2015 29.8697 33.3205 29.8697 32.1602 31.0301C30.9999 32.1909 30.9999 34.0715 32.1602 35.2318C32.5342 35.6058 32.9836 35.8592 33.4585 35.9926L33.2828 39.4004C32.8525 39.4979 32.4443 39.7142 32.1091 40.0487C31.1663 40.9899 31.1668 42.519 32.1097 43.4618C32.1862 43.5384 32.2668 43.6085 32.3498 43.6723L31.1784 46.6186C30.7766 46.6314 30.3788 46.7914 30.0727 47.097C29.4336 47.7378 29.4331 48.7746 30.0727 49.4136C30.7122 50.0538 31.749 50.0538 32.3886 49.4142C33.0265 48.7758 33.0282 47.7424 32.3927 47.1023L33.5646 44.1554C34.2633 44.2278 34.9876 43.9971 35.5228 43.4613C36.4656 42.5184 36.4656 40.9904 35.5222 40.0482C35.2508 39.7756 34.929 39.5831 34.588 39.4683L34.7637 36.0592C35.3488 35.9589 35.9096 35.6829 36.3613 35.2318C37.5222 34.0709 37.5222 32.1898 36.3618 31.0301ZM37.2977 21.2297C35.6573 21.2297 34.3265 22.5599 34.3265 24.2009C34.3265 25.842 35.6567 27.1722 37.2983 27.1722C37.8272 27.1722 38.3247 27.0336 38.7544 26.7912L41.0402 29.3264C40.8042 29.6987 40.6685 30.1405 40.6685 30.6137C40.6685 31.9462 41.7488 33.0271 43.0819 33.0271C43.1903 33.0271 43.297 33.0202 43.4008 33.0057L44.6562 35.9183C44.3808 36.2112 44.2132 36.6055 44.2126 37.0381C44.2138 37.9427 44.9467 38.6762 45.8501 38.6762C46.7565 38.6762 47.4894 37.9427 47.4883 37.0386C47.4883 36.1352 46.7588 35.4046 45.8571 35.4011L44.6017 32.489C45.1468 32.0466 45.4959 31.371 45.4953 30.6137C45.4959 29.2806 44.4156 28.2003 43.0825 28.1997C42.6974 28.2003 42.3344 28.2902 42.0114 28.4508L39.7251 25.9162C40.0678 25.432 40.2695 24.84 40.2701 24.2015C40.269 22.5599 38.9388 21.2297 37.2977 21.2297ZM31.03 13.6381C29.8697 14.7984 29.8691 16.6801 31.03 17.8398C32.1903 19.0001 34.0714 19.0001 35.2323 17.8392C35.6057 17.4652 35.8597 17.0158 35.9925 16.5397L39.4015 16.7166C39.4983 17.1463 39.7146 17.5551 40.0492 17.8897C40.9915 18.8319 42.52 18.8319 43.4623 17.8897C43.5388 17.8131 43.6095 17.7325 43.6733 17.649L46.6196 18.8209C46.6324 19.2222 46.793 19.62 47.0986 19.9262C47.7388 20.5657 48.775 20.5657 49.4146 19.9267C50.0547 19.2866 50.0547 18.2492 49.4146 17.6096C48.7761 16.9717 47.7428 16.97 47.1027 17.6055L44.1564 16.4342C44.2283 15.7354 43.9975 15.0106 43.4617 14.4766C42.5188 13.5337 40.9909 13.5337 40.0486 14.476C39.7761 14.7485 39.5836 15.0692 39.4687 15.4113L36.0597 15.2356C35.96 14.6511 35.6834 14.0898 35.2317 13.6386C34.0708 12.4772 32.1909 12.4777 31.03 13.6381ZM21.2297 12.7022C21.2297 14.3438 22.5599 15.674 24.2004 15.6728C25.8414 15.6728 27.1716 14.3432 27.1722 12.7022C27.1716 12.1727 27.033 11.6764 26.7906 11.2461L29.3258 8.96027C29.698 9.19569 30.1399 9.33138 30.6137 9.33254C31.9462 9.33254 33.0276 8.25167 33.0265 6.91797C33.0271 6.80954 33.0189 6.70342 33.0056 6.59904L35.9177 5.34421C36.2111 5.61907 36.6042 5.78665 37.0374 5.78781C37.9425 5.78665 38.6749 5.05428 38.6749 4.14968C38.6755 3.24451 37.942 2.51097 37.038 2.51097C36.1351 2.51213 35.4033 3.24103 35.3998 4.1433L32.4878 5.39756C32.0453 4.85306 31.3692 4.50398 30.6119 4.50398C29.2788 4.50456 28.1985 5.58428 28.1985 6.91739C28.1979 7.30243 28.2884 7.666 28.4496 7.98899L25.9139 10.2754C25.4297 9.93271 24.8382 9.73091 24.1992 9.73091C22.5594 9.73091 21.2297 11.0605 21.2297 12.7022Z" fill="#684DF4"/>
</svg>
