<svg width="26" height="26" viewBox="0 0 26 26" fill="none" xmlns="http://www.w3.org/2000/svg">
<path fill-rule="evenodd" clip-rule="evenodd" d="M7.09184 9.86438C7.6952 10.4677 8.67366 10.4677 9.27642 9.86377C9.87978 9.26071 9.88008 8.28284 9.27642 7.67918C9.08163 7.48469 8.84825 7.35292 8.60099 7.28387L8.69266 5.51117C8.91639 5.46081 9.12867 5.34834 9.30295 5.17466C9.79324 4.68437 9.79324 3.88983 9.30295 3.39954C9.26285 3.35944 9.22124 3.32355 9.17782 3.29008L9.78721 1.7574C9.99587 1.75107 10.2024 1.66815 10.3619 1.50924C10.6942 1.17575 10.6945 0.637212 10.3619 0.304322C10.0293 -0.028569 9.4899 -0.0282675 9.15731 0.304322C8.82563 0.636308 8.82503 1.17364 9.15521 1.50653L8.54611 3.03861C8.18307 3.00062 7.80586 3.12123 7.52785 3.39924C7.03756 3.88953 7.03756 4.68437 7.52785 5.17405C7.66957 5.31577 7.83632 5.41618 8.01422 5.47589L7.92255 7.24889C7.61861 7.30106 7.32673 7.44459 7.09214 7.67918C6.48848 8.28284 6.48848 9.26101 7.09184 9.86438ZM6.80991 1.2448C6.90067 1.088 7.10119 1.03433 7.25798 1.12479C7.41478 1.21525 7.46845 1.41577 7.37799 1.57256C7.28753 1.72936 7.08672 1.78333 6.93022 1.69257C6.77313 1.60211 6.71946 1.4019 6.80991 1.2448ZM4.8159 2.82723C4.97481 2.55164 5.32699 2.45726 5.60229 2.61646C5.87789 2.77537 5.97227 3.12756 5.81306 3.40286C5.65415 3.67816 5.30196 3.77254 5.02667 3.61333C4.75107 3.45472 4.65669 3.10283 4.8159 2.82723ZM0.311061 9.06502C0.264022 8.89013 0.368048 8.71011 0.542935 8.66368C0.717821 8.61664 0.897535 8.72036 0.944573 8.89525C0.991612 9.07014 0.887579 9.24986 0.712692 9.2969C0.537805 9.34363 0.357798 9.2399 0.311061 9.06502ZM0.0197788 11.594C-0.0625386 11.2867 0.119585 10.971 0.426843 10.889C0.734101 10.8064 1.0495 10.9888 1.13182 11.2957C1.21414 11.603 1.03202 11.9184 0.724757 12.001C0.417801 12.0833 0.102096 11.9009 0.0197788 11.594ZM1.24489 19.1901C1.0881 19.0997 1.03443 18.8992 1.12489 18.7424C1.21535 18.5856 1.41586 18.5316 1.57295 18.6224C1.72975 18.7131 1.78342 18.9133 1.69296 19.0701C1.6025 19.2269 1.40169 19.2806 1.24489 19.1901ZM2.82732 21.1842C2.55172 21.0253 2.45764 20.6731 2.61655 20.3978C2.77546 20.1225 3.12734 20.0281 3.40294 20.187C3.67854 20.3459 3.77292 20.6981 3.61371 20.9734C3.4548 21.249 3.10261 21.3434 2.82732 21.1842ZM9.06504 25.6893C8.89016 25.7364 8.71045 25.6324 8.66341 25.4575C8.61637 25.2826 8.7204 25.1026 8.89529 25.0558C9.07047 25.0091 9.25019 25.1128 9.29693 25.2877C9.34366 25.4626 9.23993 25.6423 9.06504 25.6893ZM11.5937 25.9803C11.2864 26.0623 10.971 25.8805 10.8887 25.5733C10.8064 25.266 10.9885 24.9503 11.2958 24.8683C11.603 24.7857 11.9184 24.9678 12.0007 25.2753C12.0834 25.5826 11.9012 25.898 11.5937 25.9803ZM19.1901 24.7552C19.0993 24.9123 18.8991 24.966 18.742 24.8752C18.5852 24.7848 18.5316 24.5842 18.622 24.4274C18.7125 24.2706 18.9133 24.217 19.0701 24.3074C19.2269 24.3979 19.2805 24.5981 19.1901 24.7552ZM21.1841 23.1728C21.0252 23.4484 20.6733 23.5427 20.398 23.3835C20.1224 23.2246 20.028 22.8727 20.1872 22.5971C20.3461 22.3215 20.6983 22.2275 20.9736 22.3867C21.2486 22.5453 21.343 22.8975 21.1841 23.1728ZM25.6889 16.935C25.736 17.1099 25.632 17.2899 25.4571 17.3366C25.2825 17.3834 25.1025 17.2796 25.0557 17.1047C25.0087 16.9299 25.1127 16.7498 25.2876 16.7031C25.4625 16.6564 25.6422 16.7601 25.6889 16.935ZM25.9802 14.406C26.0625 14.7133 25.8804 15.029 25.5732 15.111C25.2659 15.1933 24.9505 15.0115 24.8682 14.704C24.7859 14.3967 24.968 14.0813 25.2752 13.999C25.5822 13.9167 25.8979 14.0991 25.9802 14.406ZM24.7551 6.80986C24.9119 6.90032 24.9656 7.10084 24.8751 7.25764C24.7847 7.41413 24.5841 7.46841 24.4273 7.37765C24.2703 7.28689 24.2166 7.08667 24.3073 6.92957C24.3975 6.77307 24.598 6.7194 24.7551 6.80986ZM23.1727 4.81583C23.4483 4.97474 23.5427 5.32693 23.3834 5.60223C23.2245 5.87783 22.8727 5.97221 22.5971 5.813C22.3215 5.65409 22.2271 5.3019 22.3863 5.02661C22.5452 4.75101 22.8971 4.65663 23.1727 4.81583ZM16.9349 0.310954C17.1098 0.264217 17.2896 0.367944 17.3366 0.542832C17.3836 0.71772 17.2796 0.897433 17.1047 0.944472C16.9298 0.991511 16.7498 0.887483 16.7031 0.712595C16.6563 0.537706 16.7601 0.357692 16.9349 0.310954ZM14.406 0.0196759C14.7133 -0.0623406 15.0287 0.119483 15.111 0.426743C15.1933 0.734004 15.0112 1.04971 14.7039 1.13203C14.3967 1.21434 14.0813 1.03222 13.9987 0.724958C13.9166 0.417396 14.0991 0.101994 14.406 0.0196759ZM12.0749 1.56894C12.5151 1.45105 12.9683 1.71217 13.0862 2.15271C13.2041 2.59355 12.9427 3.04615 12.5022 3.16435C12.0616 3.28255 11.6087 3.02082 11.4905 2.58028C11.3727 2.13944 11.6341 1.68684 12.0749 1.56894ZM4.2629 5.57117C4.49086 5.17616 4.99591 5.04108 5.39092 5.26874C5.78592 5.49669 5.92131 6.00176 5.69335 6.39707C5.46509 6.79177 4.96003 6.92716 4.56533 6.6992C4.17002 6.47124 4.03464 5.96618 4.2629 5.57117ZM1.56904 13.9251C1.45114 13.4849 1.71226 13.032 2.1531 12.9141C2.59333 12.7959 3.04623 13.0573 3.16443 13.4978C3.28262 13.9381 3.0209 14.391 2.58037 14.5089C2.13983 14.6271 1.68724 14.3656 1.56904 13.9251ZM5.57153 21.7375C5.17623 21.5092 5.04084 21.0042 5.2694 20.6094C5.49736 20.2144 6.00211 20.0791 6.39712 20.3073C6.79242 20.5353 6.92751 21.04 6.69925 21.4353C6.47099 21.83 5.96623 21.9654 5.57153 21.7375ZM13.9254 24.4311C13.4852 24.549 13.032 24.2878 12.9141 23.847C12.7962 23.4068 13.0576 22.9536 13.4978 22.8357C13.9387 22.7178 14.3913 22.9795 14.5092 23.4194C14.627 23.8603 14.3659 24.3132 13.9254 24.4311ZM21.7371 20.4288C21.5091 20.8238 21.0041 20.9589 20.6091 20.7313C20.2138 20.503 20.0784 19.9979 20.3066 19.6029C20.5349 19.2079 21.0397 19.0728 21.435 19.3008C21.83 19.5285 21.9654 20.0338 21.7371 20.4288ZM24.4313 12.0749C24.5492 12.5151 24.2877 12.968 23.8469 13.0859C23.4067 13.2038 22.9538 12.9424 22.8359 12.5022C22.718 12.0613 22.9794 11.609 23.4196 11.4908C23.8602 11.3729 24.3131 11.6344 24.4313 12.0749ZM20.4288 4.26252C20.8235 4.49078 20.9589 4.99555 20.7309 5.39055C20.5029 5.78526 19.9982 5.92065 19.6029 5.69269C19.2076 5.46443 19.0722 4.95966 19.3005 4.56466C19.5287 4.16995 20.0338 4.03457 20.4288 4.26252ZM6.60518 14.9606C7.4588 14.9609 8.15021 14.2688 8.15021 13.4158C8.15021 12.5625 7.4585 11.8708 6.60518 11.8708C6.33018 11.8708 6.07177 11.9428 5.84803 12.0692L4.65941 10.7509C4.78183 10.557 4.85269 10.3272 4.85299 10.0812C4.85269 9.38826 4.29094 8.8262 3.59742 8.8262C3.54134 8.8262 3.48616 8.83012 3.43189 8.83706L2.77907 7.32247C2.922 7.17019 3.00944 6.96545 3.01005 6.73991C3.00944 6.26952 2.62831 5.88838 2.15762 5.88838C1.68724 5.88808 1.30611 6.26982 1.30611 6.73991C1.30611 7.20939 1.68543 7.58962 2.15461 7.59173L2.80682 9.10602C2.52338 9.33609 2.34216 9.68737 2.34216 10.0812C2.34216 10.7744 2.90391 11.3362 3.59712 11.3362C3.79734 11.3362 3.9864 11.2891 4.15435 11.2056L5.34327 12.5236C5.16507 12.7754 5.06014 13.0832 5.06014 13.4152C5.06014 14.2688 5.75185 14.9606 6.60518 14.9606ZM9.8644 18.9082C10.4678 18.3048 10.4681 17.3267 9.8644 16.7236C9.26104 16.1199 8.28288 16.1199 7.67952 16.7236C7.48473 16.9178 7.35327 17.1518 7.28422 17.399L5.51153 17.3077C5.46117 17.0836 5.34871 16.8714 5.17503 16.6971C4.68474 16.2071 3.89021 16.2074 3.40022 16.6974C3.36012 16.7372 3.32364 16.7791 3.29017 16.8222L1.7578 16.2128C1.75116 16.0036 1.66824 15.7973 1.50903 15.6381C1.17585 15.3055 0.637316 15.3052 0.304428 15.6381C-0.0284602 15.9707 -0.0281587 16.5101 0.304428 16.8421C0.636411 17.1744 1.17403 17.175 1.50632 16.8445L3.03899 17.4539C3.0013 17.8173 3.12131 18.1939 3.39962 18.4722C3.88991 18.9619 4.68474 18.9625 5.17472 18.4722C5.31644 18.3308 5.41655 18.1637 5.47625 17.9861L7.24924 18.0775C7.3011 18.3817 7.44463 18.6733 7.67922 18.9085C8.28318 19.5116 9.26104 19.5113 9.8644 18.9082ZM14.9605 19.3949C14.9608 18.5415 14.2688 17.8498 13.4158 17.8498C12.5628 17.8495 11.8711 18.5415 11.8711 19.3946C11.8711 19.6699 11.9431 19.9283 12.0689 20.152L10.7509 21.3407C10.557 21.2185 10.3276 21.1477 10.0812 21.1474C9.38829 21.1474 8.82623 21.7094 8.82623 22.403C8.82623 22.459 8.83016 22.5145 8.83709 22.5688L7.32282 23.2216C7.17085 23.0784 6.9655 22.9912 6.74026 22.9909C6.26988 22.9915 5.88844 23.3727 5.88844 23.8425C5.88844 24.3132 6.26988 24.6946 6.74026 24.6943C7.20974 24.6946 7.58997 24.3153 7.59178 23.8458L9.10575 23.1933C9.33612 23.4767 9.68771 23.6582 10.0812 23.6582C10.7747 23.6579 11.3365 23.0959 11.3365 22.4033C11.3365 22.203 11.2897 22.014 11.2062 21.846L12.5245 20.6571C12.776 20.8353 13.0841 20.9399 13.4161 20.9402C14.2691 20.9399 14.9602 20.2482 14.9605 19.3949ZM18.9082 16.1356C18.3048 15.5323 17.3266 15.5323 16.7233 16.1356C16.1199 16.7393 16.1199 17.7172 16.7233 18.3205C16.9178 18.515 17.1515 18.6468 17.3984 18.7161L17.307 20.4882C17.0833 20.5389 16.871 20.6514 16.6967 20.8253C16.2065 21.3147 16.2068 22.1099 16.697 22.6002C16.7368 22.64 16.7788 22.6764 16.8219 22.7096L16.2128 24.2417C16.0038 24.2483 15.797 24.3316 15.6378 24.4905C15.3055 24.8237 15.3052 25.3628 15.6378 25.6951C15.9704 26.028 16.5095 26.028 16.8421 25.6954C17.1738 25.3634 17.1747 24.8261 16.8442 24.4932L17.4536 22.9608C17.8169 22.9985 18.1935 22.8785 18.4718 22.5999C18.9621 22.1096 18.9621 21.315 18.4715 20.825C18.3304 20.6833 18.1631 20.5832 17.9858 20.5235L18.0771 18.7508C18.3814 18.6986 18.673 18.5551 18.9079 18.3205C19.5115 17.7169 19.5115 16.7387 18.9082 16.1356ZM19.3948 11.0394C18.5418 11.0394 17.8498 11.7312 17.8498 12.5845C17.8498 13.4378 18.5415 14.1295 19.3951 14.1295C19.6701 14.1295 19.9288 14.0575 20.1523 13.9314L21.3409 15.2497C21.2182 15.4433 21.1476 15.6731 21.1476 15.9191C21.1476 16.612 21.7094 17.1741 22.4026 17.1741C22.459 17.1741 22.5144 17.1705 22.5684 17.1629L23.2212 18.6775C23.078 18.8298 22.9909 19.0348 22.9906 19.2598C22.9912 19.7302 23.3723 20.1116 23.8421 20.1116C24.3134 20.1116 24.6945 19.7302 24.6939 19.2601C24.6939 18.7903 24.3146 18.4104 23.8457 18.4086L23.1929 16.8943C23.4763 16.6642 23.6578 16.3129 23.6575 15.9191C23.6578 15.2259 23.0961 14.6642 22.4029 14.6639C22.2027 14.6642 22.0139 14.7109 21.846 14.7944L20.657 13.4764C20.8352 13.2246 20.9402 12.9168 20.9405 12.5848C20.9399 11.7312 20.2482 11.0394 19.3948 11.0394ZM16.1356 7.09179C15.5322 7.69516 15.5319 8.67363 16.1356 9.27669C16.739 9.88006 17.7171 9.88006 18.3208 9.27639C18.515 9.0819 18.647 8.84821 18.7161 8.60066L20.4888 8.69263C20.5391 8.91606 20.6516 9.12864 20.8256 9.30262C21.3156 9.79261 22.1104 9.79261 22.6004 9.30262C22.6402 9.26282 22.677 9.22091 22.7101 9.17749L24.2422 9.78688C24.2488 9.99554 24.3324 10.2024 24.4913 10.3616C24.8242 10.6942 25.363 10.6942 25.6956 10.3619C26.0285 10.029 26.0285 9.48957 25.6956 9.15698C25.3636 8.8253 24.8263 8.82439 24.4934 9.15487L22.9613 8.54578C22.9987 8.18243 22.8787 7.80552 22.6001 7.52781C22.1098 7.03752 21.3153 7.03752 20.8253 7.52751C20.6836 7.66923 20.5835 7.83597 20.5237 8.01388L18.7511 7.92251C18.6992 7.61857 18.5554 7.32669 18.3205 7.09209C17.7168 6.48813 16.7393 6.48843 16.1356 7.09179ZM11.0395 6.60512C11.0395 7.45876 11.7312 8.15047 12.5842 8.14987C13.4375 8.14987 14.1292 7.45846 14.1295 6.60512C14.1292 6.32982 14.0572 6.07171 13.9311 5.84798L15.2494 4.65934C15.443 4.78176 15.6728 4.85232 15.9191 4.85292C16.612 4.85292 17.1744 4.29087 17.1738 3.59735C17.1741 3.54096 17.1698 3.48578 17.1629 3.4315L18.6772 2.77899C18.8298 2.92192 19.0342 3.00906 19.2594 3.00966C19.7301 3.00906 20.111 2.62822 20.111 2.15783C20.1113 1.68714 19.7298 1.30571 19.2597 1.30571C18.7903 1.30631 18.4097 1.68534 18.4079 2.15452L16.8936 2.80673C16.6636 2.52359 16.312 2.34207 15.9182 2.34207C15.225 2.34237 14.6632 2.90382 14.6632 3.59705C14.6629 3.79726 14.71 3.98632 14.7938 4.15427L13.4752 5.34321C13.2234 5.16501 12.9159 5.06007 12.5836 5.06007C11.7309 5.06007 11.0395 5.75149 11.0395 6.60512Z" fill="#684DF4"/>
</svg>
