<svg width="75" height="54" viewBox="0 0 75 54" fill="none" xmlns="http://www.w3.org/2000/svg">
<path opacity="0.2" fill-rule="evenodd" clip-rule="evenodd" d="M15.8326 39.1884C13.1191 43.0205 7.99011 47.1458 1.0076 50.5801C-0.806977 51.4726 0.0116249 54.2388 2.01472 53.9834C16.6857 52.1128 26.1947 45.6359 31.3874 36.004C33.3188 32.4217 34.5322 28.6086 35.1783 24.7162C35.6044 22.1498 35.7169 20.2237 35.7169 17.9992C35.7169 8.05852 27.7226 0 17.861 0C7.99943 0 0.00505696 8.05852 0.00505696 17.9992C0.00505696 27.9399 8.12698 36.004 17.4604 36.004C16.968 37.3668 16.8497 37.752 15.8326 39.1884ZM55.1157 39.1884C52.4022 43.0205 47.2732 47.1458 40.2907 50.5801C38.4761 51.4726 39.2947 54.2388 41.2978 53.9834C55.9687 52.1128 65.4778 45.6359 70.6705 36.004C72.6018 32.4217 73.8152 28.6086 74.4614 24.7162C74.8875 22.1498 75 20.2237 75 17.9992C75 8.05852 67.0056 0 57.1441 0C47.2825 0 39.2881 8.05852 39.2881 17.9992C39.2881 27.9399 47.41 36.004 56.7434 36.004C56.2511 37.3668 56.1328 37.752 55.1157 39.1884Z" fill="url(#paint0_linear_432_405)"/>
<defs>
<linearGradient id="paint0_linear_432_405" x1="37.5" y1="0" x2="37.5" y2="54" gradientUnits="userSpaceOnUse">
<stop stop-color="#02CE80"/>
<stop offset="1" stop-color="#7BD706"/>
</linearGradient>
</defs>
</svg>
