<svg width="30" height="30" viewBox="0 0 30 30" fill="none" xmlns="http://www.w3.org/2000/svg">
<g clip-path="url(#clip0_408_403)">
<path d="M5.625 22.5H4.6875C3.69294 22.5 2.73911 22.1049 2.03585 21.4016C1.33259 20.6984 0.9375 19.7445 0.9375 18.75V15C0.9375 14.0055 1.33259 13.0516 2.03585 12.3484C2.73911 11.6451 3.69294 11.25 4.6875 11.25H5.625C5.87364 11.25 6.1121 11.3488 6.28791 11.5246C6.46373 11.7004 6.5625 11.9389 6.5625 12.1875V21.5625C6.5625 21.8111 6.46373 22.0496 6.28791 22.2254C6.1121 22.4013 5.87364 22.5 5.625 22.5Z" stroke="url(#paint0_linear_408_403)" stroke-width="1.5" stroke-linecap="round" stroke-linejoin="round"/>
<path d="M25.3125 22.5H24.375C24.1264 22.5 23.8879 22.4013 23.7121 22.2254C23.5362 22.0496 23.4375 21.8111 23.4375 21.5625V12.1875C23.4375 11.9389 23.5362 11.7004 23.7121 11.5246C23.8879 11.3488 24.1264 11.25 24.375 11.25H25.3125C26.307 11.25 27.2609 11.6451 27.9641 12.3484C28.6674 13.0516 29.0625 14.0055 29.0625 15V18.75C29.0625 19.7445 28.6674 20.6984 27.9641 21.4016C27.2609 22.1049 26.307 22.5 25.3125 22.5Z" stroke="url(#paint1_linear_408_403)" stroke-width="1.5" stroke-linecap="round" stroke-linejoin="round"/>
<path d="M4.6875 11.25C4.6875 8.51495 5.77399 5.89192 7.70796 3.95796C9.64192 2.02399 12.2649 0.9375 15 0.9375C17.735 0.9375 20.3581 2.02399 22.292 3.95796C24.226 5.89192 25.3125 8.51495 25.3125 11.25" stroke="url(#paint2_linear_408_403)" stroke-width="1.5" stroke-linecap="round" stroke-linejoin="round"/>
<path d="M18.75 27.1875H21.5625C22.557 27.1875 23.5109 26.7924 24.2141 26.0891C24.9174 25.3859 25.3125 24.432 25.3125 23.4375V22.5" stroke="url(#paint3_linear_408_403)" stroke-width="1.5" stroke-linecap="round" stroke-linejoin="round"/>
<path d="M16.875 29.0625H15C14.5028 29.0625 14.0257 28.865 13.6741 28.5134C13.3225 28.1617 13.125 27.6847 13.125 27.1875C13.125 26.6903 13.3225 26.2133 13.6741 25.8616C14.0257 25.51 14.5028 25.3125 15 25.3125H16.875C17.3722 25.3125 17.8493 25.51 18.2009 25.8616C18.5525 26.2133 18.75 26.6903 18.75 27.1875C18.75 27.6847 18.5525 28.1617 18.2009 28.5134C17.8493 28.865 17.3722 29.0625 16.875 29.0625Z" stroke="url(#paint4_linear_408_403)" stroke-width="1.5" stroke-linecap="round" stroke-linejoin="round"/>
<path d="M11.25 10.3128C11.2501 9.6253 11.4392 8.9511 11.7966 8.36385C12.1541 7.7766 12.666 7.2989 13.2766 6.98295C13.8871 6.66701 14.5729 6.52499 15.2586 6.57241C15.9445 6.61982 16.6041 6.85486 17.1654 7.25182C17.7266 7.64879 18.168 8.1924 18.4411 8.82325C18.7144 9.4541 18.8089 10.1479 18.7144 10.8288C18.6199 11.5098 18.3401 12.1517 17.9055 12.6843C17.4709 13.217 16.8981 13.6198 16.25 13.849C15.8842 13.9783 15.5676 14.2178 15.3437 14.5346C15.1199 14.8515 14.9997 15.2298 15 15.6177V15.9377" stroke="url(#paint5_linear_408_403)" stroke-width="1.5" stroke-linecap="round" stroke-linejoin="round"/>
<path d="M15 20.625C14.7411 20.625 14.5312 20.4151 14.5312 20.1562C14.5312 19.8974 14.7411 19.6875 15 19.6875" stroke="url(#paint6_linear_408_403)" stroke-width="1.5"/>
<path d="M15 20.625C15.2589 20.625 15.4688 20.4151 15.4688 20.1562C15.4688 19.8974 15.2589 19.6875 15 19.6875" stroke="url(#paint7_linear_408_403)" stroke-width="1.5"/>
</g>
<defs>
<linearGradient id="paint0_linear_408_403" x1="3.75" y1="11.25" x2="3.75" y2="22.5" gradientUnits="userSpaceOnUse">
<stop stop-color="#02CE80"/>
<stop offset="1" stop-color="#7BD706"/>
</linearGradient>
<linearGradient id="paint1_linear_408_403" x1="26.25" y1="11.25" x2="26.25" y2="22.5" gradientUnits="userSpaceOnUse">
<stop stop-color="#02CE80"/>
<stop offset="1" stop-color="#7BD706"/>
</linearGradient>
<linearGradient id="paint2_linear_408_403" x1="15" y1="0.9375" x2="15" y2="11.25" gradientUnits="userSpaceOnUse">
<stop stop-color="#02CE80"/>
<stop offset="1" stop-color="#7BD706"/>
</linearGradient>
<linearGradient id="paint3_linear_408_403" x1="22.0312" y1="22.5" x2="22.0312" y2="27.1875" gradientUnits="userSpaceOnUse">
<stop stop-color="#02CE80"/>
<stop offset="1" stop-color="#7BD706"/>
</linearGradient>
<linearGradient id="paint4_linear_408_403" x1="15.9375" y1="25.3125" x2="15.9375" y2="29.0625" gradientUnits="userSpaceOnUse">
<stop stop-color="#02CE80"/>
<stop offset="1" stop-color="#7BD706"/>
</linearGradient>
<linearGradient id="paint5_linear_408_403" x1="15" y1="6.56348" x2="15" y2="15.9377" gradientUnits="userSpaceOnUse">
<stop stop-color="#02CE80"/>
<stop offset="1" stop-color="#7BD706"/>
</linearGradient>
<linearGradient id="paint6_linear_408_403" x1="14.7656" y1="19.6875" x2="14.7656" y2="20.625" gradientUnits="userSpaceOnUse">
<stop stop-color="#02CE80"/>
<stop offset="1" stop-color="#7BD706"/>
</linearGradient>
<linearGradient id="paint7_linear_408_403" x1="15.2344" y1="19.6875" x2="15.2344" y2="20.625" gradientUnits="userSpaceOnUse">
<stop stop-color="#02CE80"/>
<stop offset="1" stop-color="#7BD706"/>
</linearGradient>
<clipPath id="clip0_408_403">
<rect width="30" height="30" fill="white"/>
</clipPath>
</defs>
</svg>
