<svg width="30" height="30" viewBox="0 0 30 30" fill="none" xmlns="http://www.w3.org/2000/svg">
<path d="M11.562 16.9229C11.3193 16.9229 11.1226 17.1196 11.1226 17.3623V18.0654C11.1226 18.3082 11.3193 18.5049 11.562 18.5049C11.8048 18.5049 12.0015 18.3082 12.0015 18.0654V17.3623C12.0015 17.1196 11.8048 16.9229 11.562 16.9229Z" fill="url(#paint0_linear_408_424)"/>
<path d="M15.0004 17.1821C14.2275 17.1821 13.5986 17.8623 13.5986 18.6984C13.5986 19.5344 14.2274 20.2146 15.0004 20.2146C15.7733 20.2146 16.4021 19.5344 16.4021 18.6984C16.4021 17.8623 15.7733 17.1821 15.0004 17.1821ZM15.0004 19.3357C14.7121 19.3357 14.4775 19.0498 14.4775 18.6984C14.4775 18.3469 14.7121 18.061 15.0004 18.061C15.2887 18.061 15.5232 18.3469 15.5232 18.6984C15.5232 19.0498 15.2887 19.3357 15.0004 19.3357Z" fill="url(#paint1_linear_408_424)"/>
<path d="M18.438 16.9229C18.1952 16.9229 17.9985 17.1196 17.9985 17.3623V18.0654C17.9985 18.3082 18.1952 18.5049 18.438 18.5049C18.6807 18.5049 18.8774 18.3082 18.8774 18.0654V17.3623C18.8774 17.1196 18.6807 16.9229 18.438 16.9229Z" fill="url(#paint2_linear_408_424)"/>
<path d="M7.04682 5.62389C5.75694 6.77543 5.22473 7.90611 5.59147 8.84859C6.31317 10.7035 9.83102 10.5455 11.8239 10.2646C12.7284 10.8858 13.8227 11.25 15.0005 11.25C16.1782 11.25 17.2724 10.8859 18.1769 10.2647C20.1674 10.5452 23.6879 10.7021 24.409 8.84865C24.7756 7.90617 24.2435 6.77543 22.9536 5.62389C23.8796 4.79438 24.8628 3.56625 24.4096 2.40135C24.2422 1.97109 23.9004 1.62041 23.3937 1.35891C23.1779 1.2477 22.913 1.33225 22.8016 1.54793C22.6904 1.76367 22.775 2.02869 22.9907 2.13996C23.3014 2.30027 23.5032 2.49545 23.5906 2.72004C23.8847 3.47613 22.8859 4.52104 22.2617 5.05816C21.711 4.64402 21.0645 4.23076 20.3305 3.82605C20.0672 3.04816 19.638 2.34609 19.0854 1.76197C19.8575 1.6875 20.6894 1.66137 21.4548 1.74275C21.6965 1.76801 21.9126 1.59352 21.9383 1.35223C21.964 1.11088 21.7891 0.894434 21.5478 0.86877C20.4598 0.753105 19.2607 0.83291 18.1775 0.985664C17.2728 0.364277 16.1785 0 15.0005 0C13.8224 0 12.728 0.364277 11.8234 0.985723C5.35721 0.0722461 3.98911 2.88492 7.04682 5.62389ZM6.41055 8.5299C6.1835 7.94613 6.69754 7.09359 7.74086 6.19289C8.30084 6.61588 8.9503 7.03166 9.67223 7.42928C9.9359 8.20594 10.3651 8.90678 10.9173 9.4899C8.43854 9.72891 6.72391 9.33539 6.41055 8.5299ZM9.41067 6.25266C9.07129 6.04564 8.75366 5.83559 8.46104 5.62465C8.75231 5.41324 9.07018 5.20178 9.41114 4.99283C9.38782 5.20043 9.37539 5.41125 9.37539 5.62494C9.37545 5.83717 9.3877 6.04652 9.41067 6.25266ZM10.9347 8.07082C11.7078 8.43357 12.5401 8.77336 13.4165 9.08016C12.9471 9.18592 12.4925 9.27328 12.0558 9.34307C11.6107 8.98975 11.2298 8.55926 10.9347 8.07082ZM15.0005 10.3711C14.3695 10.3711 13.7674 10.2463 13.2162 10.0218C13.8005 9.90053 14.3974 9.75357 15.0002 9.5823C15.6031 9.75363 16.2001 9.90053 16.7845 10.0218C16.2334 10.2463 15.6313 10.3711 15.0005 10.3711ZM17.945 9.34307C17.5081 9.27334 17.0535 9.18592 16.5839 9.08016C17.4606 8.7733 18.2931 8.43334 19.0663 8.07053C18.7713 8.55914 18.3902 8.98975 17.945 9.34307ZM23.5899 8.5299C23.2765 9.33539 21.5621 9.72885 19.0835 9.48996C19.6359 8.90672 20.0651 8.20576 20.3288 7.42893C21.0506 7.03137 21.6998 6.6157 22.2596 6.19283C23.3029 7.09354 23.817 7.94613 23.5899 8.5299ZM21.5394 5.62465C21.247 5.83547 20.9295 6.04541 20.5903 6.25236C20.6133 6.04629 20.6255 5.83705 20.6255 5.625C20.6255 5.41137 20.6131 5.20066 20.5898 4.99318C20.9306 5.20201 21.2482 5.41336 21.5394 5.62465ZM19.7465 5.625C19.7465 6.03686 19.6936 6.43652 19.5946 6.81779C18.136 7.59047 16.5584 8.20787 15.0002 8.66748C13.4392 8.20705 11.862 7.58906 10.4064 6.81809C10.3073 6.4367 10.2544 6.03691 10.2544 5.625C10.2544 3.00803 12.3835 0.878906 15.0005 0.878906C17.6174 0.878906 19.7465 3.00803 19.7465 5.625ZM10.9163 1.76127C10.3633 2.34545 9.93385 3.0477 9.67047 3.82582C8.93629 4.23064 8.28959 4.64397 7.73875 5.05822C7.11866 4.52467 6.11577 3.47613 6.40985 2.7201C6.68325 2.01762 8.17557 1.49197 10.9163 1.76127Z" fill="url(#paint3_linear_408_424)"/>
<path d="M23.084 14.6288C22.9825 13.1948 21.7965 12.1289 20.4072 12.1289H9.59326C8.21431 12.1289 7.01906 13.1841 6.91663 14.6288C6.91077 14.6303 5.56294 14.5924 4.38345 15.7222C4.2082 15.8901 4.20222 16.1683 4.37009 16.3436C4.53743 16.5182 4.81558 16.5253 4.99142 16.3569C5.91538 15.4718 6.95824 15.5091 6.96409 15.5077C7.01021 15.9131 7.07583 16.3977 7.16882 16.9345C5.49046 16.9359 4.89292 19.0259 6.23993 19.8867L8.3915 21.2619C8.81859 22.2762 9.36368 23.2595 10.0591 24.0999C10.0213 24.1358 9.989 24.1787 9.96515 24.2285C9.43031 25.3457 8.30185 25.3005 8.2947 25.3028C7.59697 25.3028 7.26187 24.441 7.82156 24.0082C8.3032 23.6358 8.27642 22.9042 7.76536 22.5776L5.46122 21.1051C4.27681 20.3481 3.79247 18.9125 4.18804 17.6466C4.26034 17.4149 4.1312 17.1685 3.89958 17.0961C3.66761 17.0238 3.42146 17.153 3.34904 17.3845C3.22452 17.7833 3.16693 18.2021 3.17449 18.5923C3.19341 19.9159 3.87134 21.1321 4.9879 21.8456L7.28384 23.3129C6.0481 24.2692 6.78152 26.2253 8.33747 26.181C9.31956 26.155 10.2 25.6175 10.6757 24.7661C11.3311 25.3965 11.9954 25.8 12.8324 26.0676C12.8035 26.3118 12.8157 26.5579 12.8689 26.7962H11.9536C11.0703 26.7962 10.3517 27.5148 10.3517 28.3981C10.3517 29.2814 11.0704 30 11.9536 30H18.0468C18.9301 30 19.6487 29.2814 19.6487 28.3981C19.6487 27.5148 18.9301 26.7962 18.0468 26.7962H17.1316C17.1849 26.5579 17.1973 26.3118 17.1683 26.0676C18.0046 25.7999 18.6687 25.3963 19.3245 24.7658C19.8314 25.6733 20.7746 26.1817 21.7072 26.1817C23.2513 26.1817 23.928 24.259 22.7173 23.3123L25.0125 21.8456C26.1291 21.132 26.8069 19.9158 26.8259 18.5923C26.858 16.3495 24.9561 14.638 23.084 14.6288ZM22.6614 17.8134H22.8856C23.6104 17.8414 23.9041 18.7519 23.2872 19.1462L22.1107 19.8981C22.3416 19.1808 22.5216 18.4729 22.6614 17.8134ZM6.71325 19.1462C6.09714 18.7523 6.38917 17.8414 7.11486 17.8134H7.33786C7.47738 18.4725 7.65708 19.1799 7.88788 19.8969L6.71325 19.1462ZM16.3037 26.2836C16.3113 26.5351 16.2462 26.7854 16.1108 27.0048C15.9545 27.2578 15.5082 27.4277 15.0002 27.4277C14.4922 27.4277 14.0459 27.2578 13.8897 27.0048C13.7543 26.7856 13.6894 26.5352 13.6971 26.2835C14.1241 26.3614 14.5625 26.4007 15.0009 26.4007C15.439 26.4007 15.8771 26.3614 16.3037 26.2836ZM18.7698 28.3981C18.7698 28.7968 18.4455 29.1211 18.0468 29.1211H11.9536C11.555 29.1211 11.2307 28.7968 11.2307 28.3981C11.2307 27.9994 11.555 27.6751 11.9536 27.6751H13.3025C13.6678 28.0694 14.2916 28.3066 15.0002 28.3066C15.7088 28.3066 16.3326 28.0693 16.6979 27.6751H18.0468C18.4455 27.6751 18.7698 27.9994 18.7698 28.3981ZM16.5424 25.3331C15.5484 25.5854 14.4531 25.5853 13.4583 25.3331C12.5653 25.1066 11.9061 24.7389 11.2542 24.1035C8.60911 21.5257 7.93945 16.5039 7.79724 15.0261C7.68738 13.885 8.55796 13.0078 9.59326 13.0078H20.4073C21.4415 13.0078 22.3138 13.8851 22.2033 15.0258C21.9092 18.0591 20.9095 21.9955 18.7461 24.1031C18.0937 24.7389 17.4346 25.1067 16.5424 25.3331ZM24.5393 21.1051L22.235 22.5775C21.7246 22.9036 21.6979 23.636 22.1787 24.008C22.7452 24.4464 22.3966 25.3201 21.6862 25.3025C20.976 25.2836 20.3433 24.872 20.0351 24.2282C20.0113 24.1784 19.979 24.1355 19.9411 24.0996C20.6355 23.2601 21.1802 22.2773 21.6071 21.263L23.7605 19.8867C24.2166 19.5952 24.4936 19.0989 24.5013 18.5591C24.5144 17.6467 23.7289 16.9345 22.8932 16.9345H22.8307C22.9239 16.3977 22.9898 15.9131 23.0361 15.5076H23.2024C24.7655 15.6867 25.9693 17.0317 25.9472 18.5797C25.9324 19.6069 25.4061 20.551 24.5393 21.1051Z" fill="url(#paint4_linear_408_424)"/>
<defs>
<linearGradient id="paint0_linear_408_424" x1="11.562" y1="16.9229" x2="11.562" y2="18.5049" gradientUnits="userSpaceOnUse">
<stop stop-color="#02CE80"/>
<stop offset="1" stop-color="#7BD706"/>
</linearGradient>
<linearGradient id="paint1_linear_408_424" x1="15.0004" y1="17.1821" x2="15.0004" y2="20.2146" gradientUnits="userSpaceOnUse">
<stop stop-color="#02CE80"/>
<stop offset="1" stop-color="#7BD706"/>
</linearGradient>
<linearGradient id="paint2_linear_408_424" x1="18.438" y1="16.9229" x2="18.438" y2="18.5049" gradientUnits="userSpaceOnUse">
<stop stop-color="#02CE80"/>
<stop offset="1" stop-color="#7BD706"/>
</linearGradient>
<linearGradient id="paint3_linear_408_424" x1="15.0008" y1="0" x2="15.0008" y2="11.25" gradientUnits="userSpaceOnUse">
<stop stop-color="#02CE80"/>
<stop offset="1" stop-color="#7BD706"/>
</linearGradient>
<linearGradient id="paint4_linear_408_424" x1="15" y1="12.1289" x2="15" y2="30" gradientUnits="userSpaceOnUse">
<stop stop-color="#02CE80"/>
<stop offset="1" stop-color="#7BD706"/>
</linearGradient>
</defs>
</svg>
