<svg width="30" height="30" viewBox="0 0 30 30" fill="none" xmlns="http://www.w3.org/2000/svg">
<path d="M28.2792 14.6832C28.461 14.5001 28.4607 14.2049 28.279 14.0222C28.1362 13.8785 24.7954 10.5652 20.0001 8.93197V6.77902L21.8048 4.97406C21.8927 4.88617 21.9422 4.76715 21.9422 4.64264V1.40625C21.9422 1.14716 21.7323 0.9375 21.4734 0.9375C21.2146 0.9375 21.0047 1.14716 21.0047 1.40625V4.44855L19.1999 6.25351C19.112 6.3414 19.0626 6.46042 19.0626 6.58493V8.64784C17.8424 8.30901 16.6388 8.11784 15.4689 8.07761V5.29037C15.4689 5.03128 15.259 4.82162 15.0002 4.82162C14.7413 4.82162 14.5314 5.03128 14.5314 5.29037V8.07484C13.5672 8.10782 12.5804 8.24215 11.583 8.47658V5.075C13.9099 4.41071 13.4582 0.965184 11.0158 0.937507C8.44846 0.996165 8.14534 4.62407 10.6455 5.11883V8.722C10.0917 8.88757 9.53935 9.0794 8.9957 9.30196V6.58493C8.9957 6.32584 8.78581 6.11618 8.52695 6.11618H5.93761C5.32218 6.12633 5.32091 7.04333 5.93763 7.05368C5.93761 7.05368 8.0582 7.05368 8.0582 7.05368V9.71704C4.30943 11.4513 1.82769 13.9155 1.72137 14.0222C1.53964 14.2049 1.53941 14.5001 1.72115 14.6832C1.83916 14.8022 4.60205 17.5481 8.70547 19.2772V22.7046L6.87648 24.8387C6.8037 24.9234 6.76364 25.0319 6.76364 25.1436V26.6519C6.77385 27.2676 7.6908 27.2684 7.70114 26.6519C7.70114 26.6519 7.70114 25.3171 7.70114 25.3171L9.53014 23.183C9.60292 23.0983 9.64297 22.9898 9.64297 22.8781V19.6495C11.0832 20.1735 12.5062 20.4893 13.8842 20.5964V23.4151C13.8842 23.6742 14.094 23.8838 14.3529 23.8838C14.6118 23.8838 14.8217 23.6742 14.8217 23.4151V20.642C16.6437 20.6761 18.4827 20.3285 20.3574 19.6491V21.4732C20.3574 21.6508 20.4576 21.8129 20.6165 21.8925L22.9465 23.0576V24.2883C20.1294 24.9004 20.5067 28.9994 23.4153 29.0625C26.3246 28.9991 26.701 24.8997 23.884 24.2883V22.7678C23.884 22.5902 23.7838 22.4281 23.6249 22.3485L21.2949 21.1835V19.2773C25.3987 17.5476 28.1612 14.8021 28.2792 14.6832ZM24.8886 26.6519C24.8374 28.5942 21.9929 28.594 21.9422 26.6519C21.9931 24.7088 24.8378 24.7094 24.8886 26.6519ZM9.84393 3.04688C9.84393 2.40051 10.3697 1.875 11.0158 1.875C12.5158 1.9066 12.5825 4.09749 11.0886 4.21509C11.0753 4.21555 11.0289 4.21692 11.0158 4.21875C10.3697 4.21875 9.84393 3.69324 9.84393 3.04688ZM14.3742 19.6907C10.0791 19.6639 4.73865 16.3136 2.73875 14.3527C10.9938 7.10189 19.3755 7.42043 27.2616 14.3527C26.379 15.1524 23.8968 17.2282 20.6433 18.5362C18.5008 19.3976 16.4728 19.7966 14.3742 19.6907Z" fill="url(#paint0_linear_408_451)"/>
<path d="M15.0003 10.647C12.9571 10.647 11.2949 12.3091 11.2949 14.3526C11.4984 19.2679 18.5029 19.2665 18.7057 14.3525C18.7057 12.3091 17.0435 10.647 15.0003 10.647ZM15.0003 17.1202C13.4741 17.1202 12.2324 15.8788 12.2324 14.3526C12.3625 10.689 17.6386 10.6899 17.7682 14.3526C17.7682 15.8788 16.5265 17.1202 15.0003 17.1202Z" fill="url(#paint1_linear_408_451)"/>
<defs>
<linearGradient id="paint0_linear_408_451" x1="15.0002" y1="0.9375" x2="15.0002" y2="29.0625" gradientUnits="userSpaceOnUse">
<stop stop-color="#02CE80"/>
<stop offset="1" stop-color="#7BD706"/>
</linearGradient>
<linearGradient id="paint1_linear_408_451" x1="15.0003" y1="10.647" x2="15.0003" y2="18.0386" gradientUnits="userSpaceOnUse">
<stop stop-color="#02CE80"/>
<stop offset="1" stop-color="#7BD706"/>
</linearGradient>
</defs>
</svg>
