<svg width="30" height="30" viewBox="0 0 30 30" fill="none" xmlns="http://www.w3.org/2000/svg">
<path d="M14.9998 7.90771C11.8404 7.90771 9.37012 9.22021 9.37012 10.8983V19.1015C9.37012 20.7796 11.8451 22.0921 14.9998 22.0921C18.1545 22.0921 20.6295 20.7796 20.6295 19.1015V10.8983C20.6295 9.22021 18.1545 7.90771 14.9998 7.90771ZM19.692 19.1015C19.692 20.0718 17.7654 21.1546 14.9998 21.1546C12.2342 21.1546 10.3076 20.0718 10.3076 19.1015V18.0421C11.3061 18.8437 13.0217 19.3593 14.9998 19.3593C16.9779 19.3593 18.6936 18.839 19.692 18.0421V19.1015ZM19.692 16.3687C19.692 17.339 17.7654 18.4218 14.9998 18.4218C12.2342 18.4218 10.3076 17.339 10.3076 16.3687V15.3093C11.3061 16.1108 13.0217 16.6265 14.9998 16.6265C16.9779 16.6265 18.6936 16.1108 19.692 15.3093V16.3687ZM19.692 13.6358C19.692 14.6062 17.7654 15.689 14.9998 15.689C12.2342 15.689 10.3076 14.6062 10.3076 13.6358V12.5765C11.3061 13.378 13.0217 13.8937 14.9998 13.8937C16.9779 13.8937 18.6936 13.378 19.692 12.5765V13.6358ZM14.9998 12.9562C12.2342 12.9562 10.3076 11.8733 10.3076 10.903C10.3076 9.93271 12.2342 8.8499 14.9998 8.8499C17.7654 8.8499 19.692 9.93271 19.692 10.903C19.692 11.8733 17.7654 12.9562 14.9998 12.9562Z" fill="url(#paint0_linear_408_456)"/>
<path d="M25.6594 18.6705V11.3346C26.6859 11.1189 27.4594 10.2049 27.4594 9.10801C27.4594 7.85176 26.4422 6.83457 25.1859 6.83457C24.5156 6.83457 23.9203 7.12988 23.5031 7.59395L17.1469 3.91895C17.2172 3.69863 17.2688 3.46426 17.2688 3.21582C17.2688 1.95957 16.2516 0.942383 14.9953 0.942383C13.7391 0.942383 12.7219 1.96426 12.7219 3.21582C12.7219 3.45957 12.7688 3.69395 12.8438 3.91426L6.4875 7.59395C6.07031 7.12988 5.475 6.83457 4.80469 6.83457C3.55312 6.83457 2.53125 7.85645 2.53125 9.10801C2.53125 10.2002 3.30469 11.1143 4.33594 11.3346V18.6705C3.30937 18.8861 2.53125 19.8002 2.53125 20.8971C2.53125 22.1533 3.54844 23.1705 4.80469 23.1705C5.475 23.1705 6.07031 22.8752 6.4875 22.4111L12.8438 26.0861C12.7688 26.3111 12.7219 26.5408 12.7219 26.7893C12.7219 28.0455 13.7391 29.0627 14.9953 29.0627C16.2516 29.0627 17.2688 28.0408 17.2688 26.7893C17.2688 26.5408 17.2172 26.3064 17.1469 26.0861L23.5078 22.4111C23.925 22.8752 24.5203 23.1705 25.1906 23.1705C26.4422 23.1705 27.4641 22.1486 27.4641 20.8971C27.4641 19.8049 26.6906 18.8908 25.6641 18.6705H25.6594ZM25.1906 7.77207C25.9266 7.77207 26.5266 8.37207 26.5266 9.10801C26.5266 9.84395 25.9266 10.4439 25.1906 10.4439C24.4547 10.4439 23.8547 9.84395 23.8547 9.10801C23.8547 8.37207 24.4547 7.77207 25.1906 7.77207ZM15 1.87988C15.7359 1.87988 16.3359 2.47988 16.3359 3.21582C16.3359 3.95176 15.7359 4.55176 15 4.55176C14.2641 4.55176 13.6641 3.95176 13.6641 3.21582C13.6641 2.47988 14.2641 1.87988 15 1.87988ZM3.47812 9.10801C3.47812 8.37207 4.07813 7.77207 4.81406 7.77207C5.55 7.77207 6.15 8.37207 6.15 9.10801C6.15 9.84395 5.55 10.4439 4.81406 10.4439C4.07813 10.4439 3.47812 9.84395 3.47812 9.10801ZM4.81406 22.233C4.07813 22.233 3.47812 21.633 3.47812 20.8971C3.47812 20.1611 4.07813 19.5611 4.81406 19.5611C5.55 19.5611 6.15 20.1611 6.15 20.8971C6.15 21.633 5.55 22.233 4.81406 22.233ZM15.0047 28.1252C14.2687 28.1252 13.6687 27.5252 13.6687 26.7893C13.6687 26.0533 14.2687 25.4533 15.0047 25.4533C15.7406 25.4533 16.3406 26.0533 16.3406 26.7893C16.3406 27.5252 15.7406 28.1252 15.0047 28.1252ZM22.9219 20.8924C22.9219 21.1408 22.9734 21.3705 23.0437 21.5955L16.6828 25.2705C16.2656 24.8064 15.6703 24.5111 15 24.5111C14.3297 24.5111 13.7344 24.8064 13.3172 25.2705L6.96094 21.5955C7.03594 21.3752 7.08281 21.1408 7.08281 20.8924C7.08281 19.8002 6.30938 18.8861 5.27813 18.6658V11.3299C6.30469 11.1143 7.08281 10.2002 7.08281 9.10332C7.08281 8.85488 7.03125 8.6252 6.96094 8.4002L13.3172 4.72051C13.7344 5.18457 14.3297 5.48457 15 5.48457C15.6703 5.48457 16.2656 5.18926 16.6828 4.7252L23.0391 8.4002C22.9641 8.6252 22.9172 8.85488 22.9172 9.10332C22.9172 10.1955 23.6906 11.1143 24.7219 11.3299V18.6658C23.6906 18.8814 22.9172 19.7955 22.9172 20.8924H22.9219ZM25.1953 22.2283C24.4594 22.2283 23.8594 21.6283 23.8594 20.8924C23.8594 20.1564 24.4594 19.5564 25.1953 19.5564C25.9312 19.5564 26.5312 20.1564 26.5312 20.8924C26.5312 21.6283 25.9312 22.2283 25.1953 22.2283Z" fill="url(#paint1_linear_408_456)"/>
<defs>
<linearGradient id="paint0_linear_408_456" x1="14.9998" y1="7.90771" x2="14.9998" y2="22.0921" gradientUnits="userSpaceOnUse">
<stop stop-color="#02CE80"/>
<stop offset="1" stop-color="#7BD706"/>
</linearGradient>
<linearGradient id="paint1_linear_408_456" x1="14.9977" y1="0.942383" x2="14.9977" y2="29.0627" gradientUnits="userSpaceOnUse">
<stop stop-color="#02CE80"/>
<stop offset="1" stop-color="#7BD706"/>
</linearGradient>
</defs>
</svg>
