<svg width="30" height="30" viewBox="0 0 30 30" fill="none" xmlns="http://www.w3.org/2000/svg">
<g clip-path="url(#clip0_408_462)">
<path d="M24.8724 8.81387L26.9795 6.58715C27.2712 6.75254 27.5974 6.85742 27.9505 6.85742C29.0789 6.85742 29.9962 5.88928 29.9962 4.69524C29.9962 3.5012 29.0789 2.53306 27.9505 2.53306C26.8221 2.53306 25.9048 3.5012 25.9048 4.69524C25.9048 5.0704 26.0046 5.42135 26.1658 5.72793L24.2238 7.77716H23.4216C22.8459 5.96189 21.8365 4.30395 20.474 2.9889C18.2134 0.810582 15.2773 -0.234202 12.2031 0.0441381C6.60342 0.560479 2.27797 5.59884 2.35089 11.5206C2.35856 12.0531 2.40078 12.5856 2.47754 13.11C2.49673 13.2391 2.48138 13.3601 2.43149 13.465L0.120997 18.4146C-0.0593897 18.7978 -0.0363613 19.2415 0.178568 19.6006C0.393497 19.9636 0.761947 20.1774 1.16878 20.1774H2.53511V23.3803C2.53511 25.0262 3.80934 26.3695 5.37525 26.3695H8.07722V29.3949C8.07722 29.7297 8.33437 30 8.65292 30H20.2936C20.6122 30 20.8693 29.7297 20.8693 29.3949V19.3464C21.6024 18.5638 22.2165 17.6925 22.7001 16.7526H24.2276L26.1697 18.8018C26.0085 19.1125 25.9087 19.4594 25.9087 19.8386C25.9087 21.0326 26.826 22.0007 27.9543 22.0007C29.0827 22.0007 30 21.0326 30 19.8386C30 18.6445 29.0827 17.6764 27.9543 17.6764C27.6012 17.6764 27.275 17.7813 26.9833 17.9467L24.8762 15.7199C24.7688 15.607 24.6229 15.5424 24.4694 15.5424H23.2374C23.5598 14.6792 23.7824 13.7716 23.8975 12.8357H25.8281C26.0775 13.7312 26.8528 14.3928 27.7816 14.3928C28.91 14.3928 29.8273 13.4246 29.8273 12.2306C29.8273 11.0366 28.91 10.0684 27.7816 10.0684C26.8528 10.0684 26.0775 10.73 25.8281 11.6255H23.982C23.982 11.5408 23.9897 11.4561 23.9897 11.3714C23.9897 10.5646 23.9052 9.76588 23.7479 8.99136H24.4733C24.6153 8.99136 24.7649 8.92682 24.8724 8.81387ZM27.9505 3.74324C28.4418 3.74324 28.8448 4.17084 28.8448 4.69524C28.8448 5.21965 28.4456 5.64725 27.9505 5.64725C27.7164 5.64725 27.5015 5.5464 27.3403 5.38908C27.3287 5.37294 27.3134 5.36084 27.3019 5.34874C27.1522 5.17931 27.0562 4.94938 27.0562 4.69524C27.0562 4.17084 27.4592 3.74324 27.9505 3.74324ZM28.8448 19.8386C28.8448 20.363 28.4456 20.7906 27.9505 20.7906C27.4554 20.7906 27.0562 20.363 27.0562 19.8386C27.0562 19.5844 27.1522 19.3545 27.3057 19.181C27.3172 19.1689 27.3249 19.1609 27.3364 19.1488C27.4976 18.9874 27.7125 18.8866 27.9505 18.8866C28.4418 18.8866 28.8448 19.3142 28.8448 19.8386ZM27.774 11.2786C28.2652 11.2786 28.6682 11.7062 28.6682 12.2306C28.6682 12.755 28.2691 13.1826 27.774 13.1826C27.2827 13.1826 26.8835 12.759 26.8797 12.2346C26.8797 12.2306 26.8797 12.2306 26.8797 12.2306V12.2266C26.8835 11.7022 27.2827 11.2786 27.774 11.2786ZM22.8267 11.3714C22.8267 11.4561 22.8229 11.5408 22.8191 11.6255H16.2637C16.1332 10.5969 15.6765 9.68116 15.0087 8.99136H22.5542C22.7346 9.76588 22.8267 10.5646 22.8267 11.3714ZM15.1584 12.2225V12.2306V12.2387C15.1545 14.062 13.7575 15.5424 12.0419 15.5424C10.3225 15.5424 8.92158 14.058 8.92158 12.2306C8.92158 10.4032 10.3225 8.91875 12.0419 8.91875C13.7575 8.91875 15.1545 10.4032 15.1584 12.2225ZM16.2637 12.8357H22.727C22.6003 13.7796 22.347 14.6873 21.9785 15.5424H14.9358C15.6458 14.8446 16.1294 13.9006 16.2637 12.8357ZM19.8907 18.6566C19.7794 18.7696 19.7141 18.9269 19.7141 19.0923V28.7858H9.22479V26.3654H11.6734C12.9246 26.3654 13.9456 25.2965 13.9456 23.9774C13.9456 23.6425 13.6884 23.3723 13.3699 23.3723C13.0513 23.3723 12.7941 23.6425 12.7941 23.9774C12.7941 24.6268 12.2914 25.1553 11.6734 25.1553H8.64908H5.37141C4.43877 25.1553 3.68268 24.3566 3.68268 23.3763V19.5683C3.68268 19.2335 3.42554 18.9632 3.10698 18.9632H1.16494L1.15343 18.943L3.46392 13.9934C3.61744 13.6667 3.66733 13.2956 3.6136 12.9204C3.54451 12.4525 3.50613 11.9765 3.5023 11.5005C3.43705 6.20796 7.30194 1.70611 12.3029 1.25028C15.0509 1.00018 17.6761 1.93201 19.6949 3.88039C20.8195 4.96148 21.6715 6.30478 22.2011 7.77716H12.7673C12.5293 7.73278 12.2875 7.70455 12.0381 7.70455C9.68535 7.70455 7.76634 9.7336 7.76634 12.2266C7.76634 14.7115 9.67 16.7325 12.015 16.7446C12.0227 16.7446 12.0304 16.7486 12.0381 16.7486H21.3606C20.9499 17.4384 20.4587 18.0798 19.8907 18.6566Z" fill="url(#paint0_linear_408_462)"/>
<path d="M11.4702 12.2311C11.4702 12.5659 11.7312 12.8362 12.0459 12.8362C12.3606 12.8362 12.6216 12.5659 12.6216 12.2311C12.6216 11.8962 12.3645 11.626 12.0459 11.626H12.0421C11.7235 11.626 11.4702 11.8962 11.4702 12.2311Z" fill="url(#paint1_linear_408_462)"/>
</g>
<defs>
<linearGradient id="paint0_linear_408_462" x1="15" y1="0" x2="15" y2="30" gradientUnits="userSpaceOnUse">
<stop stop-color="#02CE80"/>
<stop offset="1" stop-color="#7BD706"/>
</linearGradient>
<linearGradient id="paint1_linear_408_462" x1="12.0459" y1="11.626" x2="12.0459" y2="12.8362" gradientUnits="userSpaceOnUse">
<stop stop-color="#02CE80"/>
<stop offset="1" stop-color="#7BD706"/>
</linearGradient>
<clipPath id="clip0_408_462">
<rect width="30" height="30" fill="white"/>
</clipPath>
</defs>
</svg>
