<svg width="50" height="50" viewBox="0 0 50 50" fill="none" xmlns="http://www.w3.org/2000/svg">
<path fill-rule="evenodd" clip-rule="evenodd" d="M10.1303 0.188734C9.80379 0.29954 9.31405 0.559845 9.04198 0.767093C8.76991 0.97434 6.762 2.91627 4.57997 5.08245C1.19933 8.43847 0.570195 9.10761 0.325725 9.60721L0.0388107 10.1935L0.0130874 28.5594C-0.0154062 48.8475 -0.0580476 47.4424 0.61531 48.4117C1.06715 49.0623 1.79146 49.5862 2.56168 49.8197C3.19506 50.0117 3.46081 50.0142 20.2712 49.9885L37.3377 49.9623L37.9532 49.6815C38.631 49.3722 39.4129 48.6363 39.7384 48.001C40.1265 47.2438 40.2964 45.6316 40.0455 45.088C39.8169 44.5922 39.0322 44.5481 38.7783 45.0167C38.7205 45.1233 38.6733 45.5017 38.6733 45.8575C38.6733 46.8602 38.511 47.3375 37.9894 47.8691C37.6873 48.1772 37.3987 48.3679 37.126 48.4395C36.8337 48.5164 31.895 48.5399 19.854 48.522L2.99136 48.4966L2.50884 48.202C2.15752 47.9875 1.95114 47.7652 1.74981 47.3847L1.47338 46.8621V28.802V10.7418L5.15874 10.7119C8.45499 10.6852 8.88586 10.6635 9.23985 10.5061C9.69901 10.3019 10.1998 9.85042 10.5078 9.36293C10.7178 9.03071 10.7253 8.91384 10.7734 5.25902L10.8228 1.4971L23.7715 1.47228C32.9272 1.45479 36.8396 1.47893 37.1278 1.55465C37.6959 1.70405 38.406 2.44032 38.5583 3.03822C38.6384 3.35187 38.6733 5.03604 38.6733 8.57566C38.6733 13.532 38.6783 13.6672 38.8712 13.8577C39.1658 14.1487 39.6953 14.1183 39.9522 13.7956C40.1538 13.5428 40.1573 13.4493 40.1573 8.47512C40.1573 3.2312 40.1262 2.74948 39.7384 1.99279C39.4129 1.35747 38.631 0.621502 37.9532 0.312243L37.3377 0.0314179L24.0308 0.00933496C10.8196 -0.0125526 10.7196 -0.0112823 10.1303 0.188734ZM9.13468 8.75086C8.81957 9.22584 8.53444 9.26522 5.40984 9.26522H2.5133L5.87662 5.94242L9.23985 2.61962L9.26607 5.56652C9.28882 8.12677 9.27161 8.54449 9.13468 8.75086ZM16.1107 5.28413C15.9256 5.40725 15.6731 5.65632 15.5494 5.83767C15.3374 6.14839 15.3244 6.26262 15.3244 7.82367C15.3244 9.7228 15.4002 9.99737 16.0399 10.4155C16.3588 10.6239 16.575 10.6767 17.2556 10.7119C18.226 10.7622 18.5116 10.7074 18.7844 10.4181C19.0398 10.1475 19.0394 9.84826 18.783 9.5264C18.5969 9.29287 18.5124 9.27049 17.7194 9.2445L16.8579 9.21636L16.8304 7.87282L16.8029 6.52928H24.5749H32.3469L32.3194 7.87282L32.2919 9.21636L26.8559 9.24167C21.4345 9.26688 21.4193 9.26746 21.1918 9.47852C20.8182 9.8252 20.9009 10.3501 21.3666 10.5879C21.6021 10.7082 22.4924 10.7309 26.9792 10.7309C30.691 10.7309 32.4141 10.6972 32.6482 10.6201C33.054 10.4863 33.5728 10.0225 33.7266 9.65597C33.7999 9.48097 33.8279 8.81105 33.8073 7.72136C33.7731 5.90167 33.7399 5.78969 33.0948 5.31393C32.8248 5.1147 32.7284 5.11216 24.6343 5.08636L16.4469 5.06027L16.1107 5.28413ZM38.3004 16.2682C38.06 16.3522 37.5852 16.6812 37.1981 17.032C36.4096 17.7466 36.155 17.8284 35.2271 17.6647C34.0298 17.4533 32.8684 17.8936 32.2387 18.7976C31.8641 19.3352 31.7637 19.604 31.6557 20.3574C31.5395 21.1669 31.3713 21.3934 30.5801 21.8053C29.3453 22.4482 28.7452 23.3319 28.7411 24.5132C28.7393 25.0518 28.7971 25.2742 29.1056 25.9158C29.549 26.8379 29.5616 27.18 29.1791 27.9078C28.2465 29.6822 28.7919 31.3118 30.6191 32.2113C31.3497 32.5708 31.5348 32.8296 31.6681 33.6772C31.7957 34.4883 32.0495 35.0321 32.5205 35.5034C32.8903 35.8735 33.7311 36.3287 34.048 36.3305C34.2096 36.3314 34.2213 36.5641 34.2233 39.8247C34.2253 43.0256 34.241 43.3516 34.4105 43.7202C34.6214 44.1787 34.8996 44.403 35.4347 44.546C35.9825 44.6921 36.3116 44.5658 37.8869 43.6044C38.6589 43.1333 39.3409 42.7483 39.4023 42.7488C39.4639 42.7493 40.1125 43.1163 40.8437 43.5645C42.4595 44.5548 42.7873 44.6813 43.355 44.5325C43.8168 44.4115 44.1518 44.1465 44.3962 43.7088C44.5383 43.4543 44.5639 42.9503 44.5902 39.8923L44.6205 36.3691L45.0476 36.2562C45.5767 36.1165 46.2491 35.6199 46.6032 35.1073C46.8703 34.7207 46.9678 34.4293 47.1777 33.3904C47.3072 32.7493 47.553 32.4856 48.387 32.0933C48.9955 31.807 49.4284 31.3837 49.7761 30.7347C49.9544 30.402 49.9975 30.1604 49.9993 29.4859C50.0013 28.7214 49.9726 28.5955 49.6653 28.0202C49.2262 27.198 49.2258 26.8021 49.6631 25.974C49.9669 25.3986 49.9986 25.2608 50 24.5083C50.0012 23.775 49.9682 23.6185 49.7176 23.1719C49.3498 22.5165 49.0415 22.2329 48.2628 21.834C47.5262 21.4566 47.2182 21.073 47.1293 20.4217C46.9635 19.2062 46.4089 18.3695 45.4716 17.9212C44.7816 17.5912 44.2516 17.5232 43.484 17.6662C42.6029 17.8304 42.3223 17.7442 41.6614 17.1066C40.8939 16.3663 40.3032 16.1051 39.4153 16.1138C39.0344 16.1175 38.5327 16.187 38.3004 16.2682ZM40.6116 18.1654C41.4368 18.9235 41.9835 19.172 42.8286 19.1728C43.1823 19.1732 43.6943 19.1398 43.9664 19.0987C44.8683 18.9621 45.5165 19.5313 45.6449 20.5727C45.7899 21.748 46.3606 22.5289 47.4876 23.0935C48.2263 23.4637 48.4747 23.7679 48.5456 24.3899C48.5873 24.7544 48.5351 24.9367 48.2123 25.5566C47.8659 26.2216 47.8302 26.36 47.836 27.016C47.8417 27.6538 47.8859 27.8229 48.2047 28.4255C48.8333 29.6141 48.6529 30.272 47.5345 30.8699C46.3299 31.5138 45.794 32.2366 45.6472 33.4153C45.5549 34.1564 45.3006 34.541 44.7416 34.7853C44.3269 34.9664 44.2327 34.9735 43.7044 34.8628C42.5527 34.6213 41.4896 34.9336 40.7015 35.7448C40.1977 36.2634 39.8737 36.4292 39.3643 36.4292C38.8389 36.4292 38.636 36.3188 38.0098 35.6919C37.297 34.9782 36.6074 34.7225 35.6557 34.8188C34.5266 34.9331 34.1264 34.907 33.8464 34.7006C33.4019 34.3727 33.2253 34.0447 33.1279 33.3663C32.9614 32.2044 32.4102 31.4328 31.4104 30.9615C30.7109 30.6318 30.5335 30.4673 30.3113 29.9421C30.1193 29.488 30.1781 29.1674 30.5982 28.3757C30.87 27.8637 30.9068 27.6997 30.9068 27.0011C30.9068 26.307 30.8675 26.1295 30.592 25.5781C30.1728 24.7393 30.1366 24.5838 30.257 24.1421C30.3829 23.6806 30.7332 23.3522 31.469 23.0061C32.4138 22.5616 32.9644 21.7742 33.1279 20.6336C33.2264 19.9477 33.4016 19.6271 33.8641 19.2868C34.089 19.1212 34.247 19.0921 34.7484 19.1237C36.2127 19.2158 36.6303 19.184 37.1348 18.9419C37.4041 18.8127 37.8271 18.5012 38.0747 18.2496C38.6604 17.6546 38.8167 17.5773 39.4425 17.5737C39.9459 17.5708 39.9875 17.5919 40.6116 18.1654ZM5.73485 18.0236C5.46782 18.3588 5.47603 18.573 5.76849 18.9088L6.00722 19.183L15.4889 19.2115C20.7039 19.2272 25.1179 19.2138 25.2977 19.1816C25.9539 19.0645 26.2401 18.3848 25.8116 17.9616C25.6164 17.7688 25.4819 17.7662 15.7768 17.7662H5.93984L5.73485 18.0236ZM37.8602 21.0447C36.6845 21.3262 35.2836 22.2288 34.5311 23.1896C33.6225 24.3496 33.2015 25.5561 33.2015 27C33.2015 28.713 33.7677 30.0273 35.0575 31.3085C35.9369 32.182 36.8169 32.6827 37.9795 32.971C38.8617 33.1897 40.4611 33.1182 41.3446 32.8204C43.2318 32.1842 44.6763 30.7068 45.3636 28.7099C45.6094 27.9961 45.6202 26.0592 45.3825 25.3389C44.6565 23.1388 43.0218 21.57 40.9033 21.0404C40.1759 20.8586 38.6285 20.8607 37.8602 21.0447ZM41.375 22.7731C43.1858 23.6239 44.2271 25.3782 44.0872 27.342C44.0207 28.2757 43.7218 29.0552 43.1402 29.8113C41.4792 31.9715 38.2639 32.2702 36.2492 30.4516C35.0484 29.3676 34.525 27.9567 34.7262 26.3456C34.9375 24.6551 36.2648 23.0931 37.9572 22.5432C38.3972 22.4003 38.7587 22.3645 39.5637 22.3844C40.5312 22.4083 40.6556 22.435 41.375 22.7731ZM5.95726 22.9634C5.48147 23.1906 5.45476 23.9663 5.91422 24.2092C6.04867 24.2803 9.17238 24.3129 15.8448 24.3129H25.5792L25.7944 24.0868C26.0987 23.7668 26.0785 23.3059 25.7488 23.0498C25.489 22.8479 25.456 22.8472 15.8305 22.8539C9.2815 22.8583 6.10348 22.8935 5.95726 22.9634ZM5.89532 28.1345C5.43774 28.3975 5.50334 29.2169 5.99683 29.4021C6.13524 29.4541 10.2729 29.4916 15.8616 29.4916C25.4507 29.4916 25.4892 29.4909 25.7488 29.2891C26.0895 29.0244 26.1042 28.5387 25.7806 28.2384L25.5515 28.026L15.8128 28.0289C9.19385 28.0309 6.01672 28.0647 5.89532 28.1345ZM5.73485 33.4622C5.46782 33.7973 5.47603 34.0115 5.76849 34.3473L6.00732 34.6215H15.8193H25.6313L25.8203 34.3908C26.0656 34.0918 26.0616 33.647 25.8116 33.4001C25.6164 33.2073 25.4819 33.2047 15.7768 33.2047H5.93984L5.73485 33.4622ZM36.429 36.3461C36.5478 36.408 36.8951 36.686 37.2005 36.9639C38.0267 37.7155 38.356 37.8463 39.4153 37.8444C40.4678 37.8424 40.8559 37.6822 41.5464 36.9649C42.0128 36.4804 42.4608 36.2338 42.8749 36.2338H43.1254V39.6479C43.1254 41.5258 43.0921 43.082 43.0512 43.1065C43.0103 43.1308 42.3092 42.7407 41.493 42.2396C39.9434 41.2882 39.4581 41.1121 38.9317 41.3104C38.7745 41.3695 38.0354 41.7905 37.2894 42.2458C36.5433 42.7011 35.8816 43.0736 35.819 43.0736C35.7354 43.0736 35.7052 42.1663 35.7052 39.6537V36.2338H35.9591C36.0987 36.2338 36.3101 36.2844 36.429 36.3461ZM5.89532 40.8371C5.43863 41.0994 5.49434 41.8624 5.98634 42.0838C6.158 42.1611 7.69526 42.1942 11.1109 42.1942C15.8974 42.1942 15.9952 42.1904 16.2509 41.9917C16.5776 41.7379 16.6084 41.2149 16.3138 40.924C16.121 40.7336 15.9861 40.7286 11.0949 40.7315C7.77194 40.7335 6.01345 40.7692 5.89532 40.8371Z" fill="#684DF4"/>
</svg>
