<svg width="44" height="50" viewBox="0 0 44 50" fill="none" xmlns="http://www.w3.org/2000/svg">
<path fill-rule="evenodd" clip-rule="evenodd" d="M21.0898 0.0652857C20.0093 0.339194 18.9117 1.26256 18.4212 2.31055C18.1976 2.78843 18.1702 2.96343 18.1774 3.87575C18.1818 4.44068 18.2036 4.97774 18.2259 5.06921C18.2576 5.1996 17.0405 5.9508 12.5938 8.5452L6.92119 11.8549L6.43519 11.4579C5.36409 10.5832 4.01965 10.311 2.73571 10.7092C0.0539892 11.5407 -0.897935 14.9662 0.977502 17.0364C1.50975 17.6239 2.03367 17.9754 2.73803 18.2175L3.18796 18.3722V25.0058V31.6395L2.73803 31.7942C1.63959 32.1718 0.647912 33.0913 0.273619 34.0794C-0.764217 36.8189 1.28469 39.6568 4.15705 39.4582C5.02577 39.3982 5.60719 39.1698 6.36945 38.5892C6.80521 38.2572 6.92817 38.2066 7.10116 38.2877C7.21548 38.3413 9.77444 39.8229 12.7877 41.5802C17.088 44.0881 18.2576 44.8111 18.2259 44.942C18.2036 45.0337 18.1818 45.571 18.1774 46.1359C18.1702 47.0482 18.1976 47.2233 18.4212 47.7011C18.812 48.5363 19.4725 49.2043 20.3295 49.6316C21.0287 49.9802 21.1182 50 21.9995 50C22.8809 50 22.9704 49.9802 23.6696 49.6316C24.5225 49.2064 25.1387 48.5828 25.5587 47.7199C25.8005 47.223 25.8297 47.0578 25.8297 46.1848C25.8297 45.6468 25.7964 45.115 25.7557 45.003C25.6888 44.8192 25.924 44.6586 28.1798 43.3474C29.5538 42.5489 32.061 41.0883 33.7514 40.1017C35.4417 39.1152 36.8897 38.2829 36.9692 38.2521C37.0525 38.2198 37.3338 38.3638 37.6335 38.5921C38.3897 39.1681 38.9751 39.3983 39.8345 39.4576C41.5217 39.5744 42.9137 38.7337 43.6583 37.1481C43.9343 36.5604 43.9622 36.4139 43.9588 35.5709C43.9539 34.3972 43.7182 33.7443 43.0216 32.9753C42.4893 32.3878 41.9654 32.0363 41.2611 31.7942L40.8111 31.6395V25.0058V18.3722L41.2611 18.2175C42.3595 17.8399 43.3512 16.9203 43.7255 15.9323C44.7616 13.1971 42.7334 10.3791 39.8499 10.5475C38.9944 10.5975 38.1275 10.9559 37.4743 11.5297L37.095 11.863L33.8865 9.98939C32.1219 8.959 29.5538 7.46248 28.1798 6.66404C25.924 5.35299 25.6888 5.19246 25.7557 5.00865C25.7964 4.89664 25.8295 4.36487 25.8293 3.82683C25.829 2.97801 25.7957 2.77737 25.5775 2.31055C24.9516 0.971336 23.6503 0.0755572 22.2308 0.00688443C21.8103 -0.0134631 21.2968 0.0128517 21.0898 0.0652857ZM23.1976 1.75902C24.0668 2.27289 24.4731 3.06116 24.4071 4.10573C24.3543 4.94301 23.9815 5.56752 23.2819 5.99071C22.4024 6.52288 21.5966 6.52288 20.7172 5.99071C19.9864 5.54864 19.6359 4.93724 19.5941 4.03197C19.5661 3.42536 19.5965 3.27041 19.8353 2.80457C20.1358 2.2184 20.6101 1.78465 21.1876 1.56777C21.7479 1.35735 22.6659 1.44471 23.1976 1.75902ZM19.235 6.71158C19.5003 7.0073 20.2704 7.4794 20.7651 7.64942L21.207 7.80135L21.2396 9.3502C21.2771 11.1293 21.3473 11.3104 21.9995 11.3104C22.6181 11.3104 22.6695 11.1706 22.7 9.40743L22.7268 7.85652L23.3909 7.58525C23.7562 7.43597 24.2679 7.13291 24.528 6.91163L25.001 6.50928L30.6806 9.81467L36.3602 13.1202L36.2845 13.6093C36.1875 14.2355 36.187 14.7649 36.2827 15.3335L36.3589 15.786L35.2155 16.4492C33.8018 17.2692 33.6356 17.4141 33.6356 17.8257C33.6356 18.1783 33.997 18.5494 34.3402 18.5494C34.4468 18.5494 35.1056 18.215 35.8042 17.8061C36.5935 17.3441 37.1155 17.0942 37.1831 17.1457C37.2429 17.1914 37.5055 17.3917 37.7667 17.5907C38.1675 17.8962 38.6238 18.1198 39.2361 18.3102C39.3327 18.3403 39.3528 19.7286 39.3331 25.0098L39.3081 31.6714L38.8213 31.8377C38.3151 32.0106 37.8458 32.2996 37.3976 32.7147L37.1355 32.9574L35.8322 32.2098C35.1154 31.7987 34.435 31.4623 34.3203 31.4623C34.0191 31.4623 33.6356 31.8886 33.6356 32.2233C33.6356 32.5915 33.8326 32.758 35.2157 33.5592L36.3595 34.2219L36.283 34.6763C36.1869 35.2475 36.1875 35.7765 36.2849 36.4024L36.3611 36.8915L30.6841 40.1949L25.0071 43.4982L24.4777 43.0633C24.1865 42.824 23.6882 42.5326 23.3702 42.4156L22.792 42.2029L22.7594 40.6578C22.7219 38.8827 22.6515 38.7013 21.9995 38.7013C21.3476 38.7013 21.2771 38.8827 21.2397 40.6578L21.2071 42.2029L20.6289 42.4156C20.3109 42.5326 19.8128 42.8237 19.522 43.0627L18.9934 43.4971L13.316 40.1943L7.63845 36.8915L7.71438 36.4024C7.81163 35.7761 7.81212 35.2471 7.71612 34.6763L7.63961 34.2219L8.78334 33.5592C10.1665 32.758 10.3635 32.5915 10.3635 32.2233C10.3635 31.8814 9.97739 31.4617 9.66487 31.4637C9.54249 31.4646 8.87507 31.798 8.18176 32.2046C7.42047 32.6511 6.87881 32.9121 6.81423 32.8634C6.75537 32.8192 6.49356 32.6186 6.23243 32.418C5.83157 32.1099 5.32269 31.8608 4.76367 31.6991C4.58613 31.6477 4.58613 18.3651 4.76367 18.3099C5.37398 18.1204 5.83176 17.8961 6.23243 17.5907C6.49356 17.3917 6.75615 17.1914 6.81598 17.1457C6.88356 17.0942 7.40554 17.3441 8.19485 17.8061C8.89349 18.215 9.55229 18.5494 9.65885 18.5494C10.0021 18.5494 10.3635 18.1783 10.3635 17.8257C10.3635 17.4141 10.1973 17.2692 8.78363 16.4492L7.6402 15.786L7.71641 15.3335C7.81231 14.7638 7.81154 14.2342 7.71399 13.6093L7.63758 13.1202L10.0429 11.7268C11.3659 10.9606 13.9101 9.47688 15.6967 8.42977C17.4833 7.38275 18.9711 6.52395 19.0028 6.52151C19.0345 6.51906 19.139 6.60456 19.235 6.71158ZM4.6797 12.1154C5.3095 12.3051 6.04344 13.0891 6.24203 13.7841C6.59169 15.0081 5.98798 16.2401 4.7915 16.7445C4.33169 16.9383 3.4168 16.9446 2.97182 16.7571C1.49007 16.1325 0.985357 14.2412 1.95726 12.9556C2.57494 12.1387 3.65263 11.806 4.6797 12.1154ZM41.2104 12.2684C42.7487 13.0791 43.0165 15.1488 41.7305 16.2879C41.2283 16.7328 40.803 16.8962 40.1388 16.8994C39.1857 16.904 38.4136 16.4572 37.9809 15.6509C37.5111 14.7754 37.5552 13.8387 38.1044 13.0301C38.7688 12.0519 40.1548 11.7121 41.2104 12.2684ZM15.9244 13.2102C13.6474 13.7674 12.1238 15.9961 12.4712 18.2611C12.5916 19.0455 13.0131 20.019 13.4496 20.5205L13.7522 20.8683L13.2147 21.2417C12.3823 21.8202 11.6623 22.6884 11.1885 23.6852C10.7082 24.6958 10.5458 25.3189 10.5242 26.2338C10.5107 26.8054 10.5356 26.9026 10.7379 27.0683C11.2185 27.462 11.913 27.1366 11.9166 26.5159C11.9199 25.9608 12.2077 24.8526 12.5099 24.232C12.8843 23.4629 13.7935 22.5211 14.5422 22.1268L15.0846 21.8411L15.6637 22.0051C15.9847 22.0959 16.5877 22.1689 17.0169 22.1689H17.791L17.9065 22.4869C17.97 22.6617 18.194 23.0329 18.4043 23.3117L18.7866 23.8186L18.1486 24.29C16.6277 25.4135 15.6054 27.379 15.6012 29.1878C15.5995 29.8929 15.7974 30.1905 16.2677 30.1905C16.786 30.1905 16.9687 29.9287 17.0555 29.0613C17.138 28.2369 17.3647 27.5242 17.7619 26.8405C18.0972 26.2635 19.0476 25.3741 19.6675 25.0572C20.1825 24.794 20.1886 24.7933 20.7353 24.948C21.4386 25.1471 22.5605 25.1471 23.2638 24.948C23.8097 24.7936 23.8173 24.7942 24.3255 25.0541C25.3135 25.5591 26.3504 26.7736 26.6998 27.8348C26.7847 28.0926 26.8927 28.6499 26.9397 29.0731C27.0076 29.6835 27.0693 29.8786 27.2382 30.0166C27.5264 30.252 27.9659 30.2365 28.2181 29.9821C28.4063 29.7922 28.4203 29.6982 28.374 28.9305C28.2606 27.0528 27.2243 25.2439 25.6149 24.1141L25.206 23.8272L25.5916 23.3159C25.8037 23.0348 26.0291 22.6617 26.0926 22.4869L26.2081 22.1689H26.9822C27.4114 22.1689 28.0144 22.0959 28.3354 22.0051L28.9144 21.8411L29.4569 22.1268C30.2056 22.5211 31.1148 23.4629 31.4892 24.232C31.7944 24.8589 32.0793 25.9623 32.0825 26.5296C32.0858 27.1399 32.7842 27.459 33.2612 27.0683C33.4635 26.9026 33.4884 26.8054 33.4749 26.2338C33.4533 25.3189 33.2909 24.6958 32.8106 23.6852C32.3368 22.6884 31.6168 21.8202 30.7844 21.2417L30.2469 20.8683L30.5495 20.5205C30.986 20.019 31.4075 19.0455 31.5279 18.2611C31.9763 15.3382 29.297 12.6653 26.4036 13.149C25.0053 13.3827 23.6343 14.3804 23.0518 15.588L22.8238 16.0607L21.9895 16.0613L21.1552 16.0618L20.9425 15.5943C20.604 14.8499 19.7609 14.0061 18.9591 13.6094C17.8943 13.0826 16.9521 12.9587 15.9244 13.2102ZM18.1596 14.8176C18.7254 15.0701 19.302 15.6117 19.5853 16.1564C19.8155 16.5994 19.8158 16.6049 19.6239 16.7138C19.5172 16.7744 19.1784 17.0653 18.8711 17.3605C18.2329 17.973 17.6812 18.9784 17.587 19.7005C17.5538 19.9552 17.5029 20.2901 17.474 20.4448L17.4213 20.7259L16.7287 20.6803C15.2211 20.5809 14.0662 19.4704 13.8936 17.954C13.7787 16.9448 14.3048 15.7386 15.1027 15.1822C16.0455 14.5248 17.1959 14.3876 18.1596 14.8176ZM28.3293 14.8585C30.2736 15.7565 30.7289 18.4422 29.1765 19.857C28.5802 20.4006 28.0517 20.6288 27.2704 20.6803L26.5777 20.7259L26.5251 20.4448C26.4962 20.2901 26.4453 19.9552 26.4121 19.7005C26.3179 18.9784 25.7662 17.973 25.128 17.3605C24.8207 17.0653 24.483 16.7757 24.3777 16.7167C24.1943 16.614 24.1929 16.5949 24.3464 16.2702C25.044 14.7944 26.8244 14.1634 28.3293 14.8585ZM23.1137 17.7344C23.7927 17.9611 24.6238 18.81 24.8554 19.5134C25.3479 21.0095 24.7688 22.5546 23.4365 23.2992C22.9671 23.5615 22.838 23.5874 21.9995 23.5874C21.1611 23.5874 21.032 23.5615 20.5626 23.2992C18.8675 22.3519 18.4327 20.0422 19.6804 18.6123C20.5857 17.5748 21.7463 17.2781 23.1137 17.7344ZM25.6931 32.6401C25.19 32.8535 25.0465 33.4119 25.3972 33.7916C25.583 33.9928 25.6794 34.0057 26.9971 34.0057C28.2701 34.0057 28.4172 33.9877 28.5933 33.81C28.8383 33.5628 28.8422 33.1176 28.6019 32.8182C28.4266 32.5997 28.3494 32.586 27.1717 32.5641C26.487 32.5513 25.8216 32.5856 25.6931 32.6401ZM15.3628 32.8536C15.0039 33.3705 15.3177 34.0057 15.932 34.0057C16.2877 34.0057 16.6664 33.6525 16.6664 33.3209C16.6664 33.2278 16.5759 33.0357 16.4654 32.8939C16.1973 32.5501 15.589 32.5279 15.3628 32.8536ZM17.884 32.8536C17.525 33.3705 17.8389 34.0057 18.4532 34.0057C18.8088 34.0057 19.1875 33.6525 19.1875 33.3209C19.1875 33.2278 19.097 33.0357 18.9865 32.8939C18.7185 32.5501 18.1101 32.5279 17.884 32.8536ZM20.4051 32.8536C20.3221 32.9732 20.2541 33.1835 20.2541 33.3209C20.2541 33.7493 20.5077 34.0057 20.9314 34.0057C21.2214 34.0057 21.3524 33.9471 21.5076 33.7479C21.6182 33.6062 21.7086 33.4141 21.7086 33.3209C21.7086 33.2278 21.6182 33.0357 21.5076 32.8939C21.2396 32.5501 20.6312 32.5279 20.4051 32.8536ZM5.06621 33.4042C6.0832 33.9514 6.56299 35.1038 6.24203 36.2276C6.11481 36.6729 5.97343 36.8985 5.57955 37.2849C4.76823 38.0808 3.74717 38.2484 2.78865 37.7433C1.62999 37.1327 1.12654 35.7466 1.64434 34.5926C2.26406 33.2116 3.74959 32.6955 5.06621 33.4042ZM41.0606 33.2727C41.5388 33.4679 42.0847 34.0148 42.3286 34.543C42.8785 35.7344 42.3946 37.1192 41.2104 37.7433C40.2519 38.2484 39.2309 38.0808 38.4195 37.2849C37.5427 36.4247 37.4036 35.3408 38.034 34.2803C38.6572 33.2319 39.9258 32.8096 41.0606 33.2727ZM15.4227 35.6994C15.1244 36.0198 15.1442 36.4812 15.4674 36.7376C15.7199 36.9381 15.7964 36.9404 21.9995 36.9404C28.2027 36.9404 28.2792 36.9381 28.5317 36.7376C28.8657 36.4726 28.88 35.9864 28.5628 35.6857L28.3384 35.4731H21.986H15.6336L15.4227 35.6994ZM23.1726 43.9496C23.9985 44.403 24.4244 45.1384 24.4227 46.1083C24.4184 48.7108 20.8907 49.5195 19.8049 47.1671C19.1647 45.7802 19.8935 44.1483 21.3562 43.6934C21.8521 43.5391 22.6231 43.6479 23.1726 43.9496Z" fill="#684DF4"/>
</svg>
