<svg width="99" height="107" viewBox="0 0 99 107" fill="none" xmlns="http://www.w3.org/2000/svg">
<path opacity="0.2" d="M83.3174 85.7721C82.2607 92.4081 78.9239 98.4057 74.0713 102.143C69.1334 105.954 62.6816 107.341 55.9945 104.673C45.5457 100.499 32.7084 92.143 20.525 75.621C8.49042 59.3061 3.31689 44.7791 1.29598 33.699C0.01544 26.7 2.50114 20.6436 7.06583 16.5164C11.564 12.4492 17.9689 10.3326 24.6385 10.668C26.2975 10.7511 27.9178 11.1942 29.3876 11.9667C30.8574 12.7392 32.1415 13.8227 33.1514 15.1424L40.5548 24.8257C42.8342 27.8039 43.9663 31.5076 43.7442 35.2599C43.5222 39.0123 41.9607 42.5626 39.3452 45.2621L36.2363 48.4671C34.7324 50.0232 34.3252 51.873 34.8619 53.2488C36.6484 57.8678 39.9685 62.0479 44.1732 65.1013C45.4981 66.0658 47.5219 66.1305 49.4406 65.0322L53.5301 62.6915C56.834 60.7982 60.7103 60.1764 64.4322 60.9428C68.154 61.7092 71.4656 63.8111 73.7459 66.8543L81.0646 76.6239C82.0333 77.9179 82.7319 79.3946 83.119 80.9662C83.506 82.5378 83.5735 84.1722 83.3174 85.7721ZM58.3116 98.8515C62.8003 100.643 66.9409 99.749 70.2707 97.1843C73.6916 94.5496 76.3143 90.0723 77.1517 84.801C77.2756 84.0291 77.2432 83.2405 77.0565 82.4822C76.8699 81.7239 76.5327 81.0114 76.0652 80.3872L68.744 70.6233C67.3765 68.7979 65.3906 67.5368 63.1584 67.0763C60.9262 66.6158 58.6011 66.9876 56.6188 68.122L52.5293 70.4627C48.9956 72.4899 44.2516 72.9066 40.4988 70.1768C35.4155 66.4801 31.2896 61.3608 29.0341 55.5246C27.3879 51.259 29.055 46.903 31.762 44.1117L34.8708 40.9067C36.4413 39.2873 37.3793 37.1568 37.5133 34.9049C37.6472 32.6529 36.9682 30.4299 35.6004 28.6423L28.1888 18.9623C27.2581 17.7445 25.8393 16.9988 24.31 16.9215C19.0909 16.6568 14.3655 18.3427 11.246 21.1613C8.19302 23.9199 6.57033 27.8246 7.43975 32.5542C9.29282 42.6964 14.0803 56.335 25.5489 71.8955C37.061 87.4815 48.9592 95.1141 58.3141 98.8457L58.3116 98.8515ZM98.973 50.1751C99.0561 51.0009 98.8085 51.8268 98.2846 52.4712C97.7607 53.1155 97.0035 53.5255 96.1794 53.611C95.3554 53.6964 94.5321 53.4503 93.8906 52.9267C93.2491 52.4032 92.8421 51.6452 92.7589 50.8193L92.4808 48.0821C91.6241 39.5362 88.7155 31.3305 84.0035 24.1663C79.2916 17.0021 72.9163 11.0925 65.4227 6.94237L63.6952 5.98225C63.3178 5.79444 62.9825 5.53187 62.7095 5.21036C62.4365 4.88885 62.2314 4.51507 62.1067 4.11156C61.9819 3.70806 61.94 3.2832 61.9835 2.8626C62.0271 2.442 62.1551 2.03439 62.36 1.66434C62.5648 1.29429 62.8422 0.969482 63.1755 0.709506C63.5087 0.44953 63.8908 0.259776 64.2988 0.151683C64.7068 0.0435908 65.1322 0.0194055 65.5493 0.0805815C65.9664 0.141758 66.3667 0.28703 66.7258 0.507635L68.4501 1.45954C76.8275 6.09772 83.9546 12.7034 89.2221 20.7117C94.4897 28.7201 97.741 37.8929 98.6981 47.4461L98.973 50.1751ZM80.7051 50.3188C81.5257 50.2056 82.2686 49.7704 82.7705 49.109C83.2724 48.4476 83.4922 47.6141 83.3816 46.7918L83.2637 45.8959C82.4834 40.0579 80.4473 34.4627 77.2961 29.4969C74.1448 24.5312 69.9537 20.3133 65.0123 17.135L63.5898 16.2241C63.2453 15.9904 62.8576 15.8282 62.4493 15.7471C62.0411 15.666 61.6205 15.6676 61.2125 15.7518C60.8044 15.836 60.4171 16.0011 60.0733 16.2375C59.7295 16.4738 59.4361 16.7766 59.2104 17.1279C58.9847 17.4793 58.8313 17.8722 58.7592 18.2835C58.6871 18.6947 58.6978 19.1161 58.7906 19.5228C58.8833 19.9295 59.0564 20.3132 59.2994 20.6515C59.5425 20.9898 59.8508 21.2757 60.2061 21.4925L61.6262 22.4092C65.807 25.097 69.3536 28.664 72.0209 32.8639C74.6881 37.0638 76.4124 41.7965 77.0747 46.7349L77.1983 47.6333C77.2525 48.0407 77.3863 48.4332 77.592 48.7884C77.7978 49.1436 78.0714 49.4545 78.3973 49.7034C78.7232 49.9522 79.0949 50.1341 79.4913 50.2388C79.8877 50.3434 80.301 50.3686 80.7076 50.3131L80.7051 50.3188Z" fill="#684DF4"/>
</svg>
