<svg width="50" height="44" viewBox="0 0 50 44" fill="none" xmlns="http://www.w3.org/2000/svg">
<path d="M42.315 43.218H7.68447C6.99039 43.2172 6.32494 42.9412 5.83415 42.4504C5.34336 41.9596 5.06731 41.2941 5.06658 40.6001V36.0136C5.06658 35.8296 5.13966 35.6531 5.26975 35.5231C5.39984 35.393 5.57627 35.3199 5.76024 35.3199H44.2392C44.4232 35.3199 44.5996 35.393 44.7297 35.5231C44.8598 35.6531 44.9329 35.8296 44.9329 36.0136V40.5994C44.9323 41.2936 44.6564 41.9592 44.1656 42.4501C43.6747 42.9411 43.0092 43.2172 42.315 43.218ZM6.45391 36.7072V40.5994C6.45428 40.9256 6.58404 41.2384 6.81474 41.4691C7.04543 41.6998 7.35822 41.8296 7.68447 41.8299H42.315C42.6412 41.8296 42.954 41.6998 43.1847 41.4691C43.4154 41.2384 43.5452 40.9256 43.5455 40.5994V36.7072H6.45391Z" fill="white"/>
<path d="M20.8669 14.7222H17.5373C17.3533 14.7222 17.1769 14.6491 17.0468 14.519C16.9167 14.389 16.8436 14.2125 16.8436 14.0285V12.0565C16.8438 11.5928 17.028 11.1483 17.3558 10.8204C17.6835 10.4925 18.128 10.3081 18.5917 10.3077H19.8146C20.2783 10.3081 20.7228 10.4925 21.0507 10.8203C21.3786 11.1482 21.5629 11.5928 21.5633 12.0565V14.0285C21.5633 14.1199 21.5453 14.2103 21.5102 14.2946C21.4752 14.379 21.4239 14.4556 21.3592 14.52C21.2945 14.5845 21.2177 14.6355 21.1332 14.6702C21.0487 14.7049 20.9582 14.7226 20.8669 14.7222ZM18.2309 13.3349H20.1732V12.0565C20.1732 11.9606 20.1351 11.8687 20.0674 11.8009C19.9996 11.7331 19.9077 11.6951 19.8118 11.6951H18.5951C18.5477 11.6951 18.5007 11.7044 18.4569 11.7226C18.4131 11.7408 18.3733 11.7674 18.3398 11.801C18.3063 11.8345 18.2798 11.8744 18.2617 11.9182C18.2436 11.9621 18.2343 12.009 18.2344 12.0565L18.2309 13.3349Z" fill="white"/>
<path d="M32.4587 14.7222H29.1291C28.9451 14.7222 28.7687 14.6491 28.6386 14.519C28.5085 14.389 28.4354 14.2125 28.4354 14.0285V12.0565C28.4358 11.5928 28.6202 11.1482 28.948 10.8203C29.2759 10.4925 29.7205 10.3081 30.1842 10.3077H31.4009C31.8645 10.3081 32.309 10.4925 32.6368 10.8204C32.9645 11.1483 33.1487 11.5928 33.1489 12.0565V14.0285C33.1489 14.2119 33.0763 14.3878 32.947 14.5178C32.8176 14.6478 32.6421 14.7213 32.4587 14.7222ZM29.8228 13.3349H31.765V12.0565C31.7651 12.009 31.7559 11.9621 31.7378 11.9182C31.7197 11.8744 31.6931 11.8345 31.6596 11.801C31.6261 11.7674 31.5863 11.7408 31.5425 11.7226C31.4987 11.7044 31.4518 11.6951 31.4043 11.6951H30.1876C30.0918 11.6951 29.9999 11.7331 29.9321 11.8009C29.8643 11.8687 29.8262 11.9606 29.8262 12.0565L29.8228 13.3349Z" fill="white"/>
<path d="M48.0239 16.1088C47.9694 16.1091 47.9152 16.1028 47.8622 16.0901L37.4004 13.5929C37.3107 13.5728 37.226 13.535 37.151 13.4819C37.0761 13.4287 37.0124 13.3611 36.9638 13.2832C36.9152 13.2052 36.8825 13.1183 36.8678 13.0276C36.853 12.9369 36.8564 12.8442 36.8778 12.7548C36.8991 12.6655 36.938 12.5812 36.9922 12.507C37.0464 12.4328 37.1148 12.3701 37.1935 12.3226C37.2721 12.275 37.3594 12.2435 37.4503 12.23C37.5412 12.2165 37.6339 12.2212 37.7229 12.2437L48.1848 14.7409C48.3496 14.7808 48.4941 14.8796 48.591 15.0188C48.688 15.158 48.7305 15.3278 48.7107 15.4962C48.6909 15.6647 48.6101 15.82 48.4835 15.9329C48.357 16.0457 48.1934 16.1083 48.0239 16.1088Z" fill="white"/>
<path d="M3.82145 19.3455C3.25862 19.3462 2.71463 19.1428 2.29046 18.7728C1.8663 18.4029 1.59077 17.8916 1.51502 17.3339L0.779038 11.8914C0.601239 10.5511 0.847295 9.18889 1.48271 7.99555C2.11813 6.80222 3.11105 5.83764 4.32228 5.23704C11.714 1.54813 19.646 0.775391 24.9997 0.775391C30.3687 0.775391 38.3181 1.54883 45.6834 5.23496C46.893 5.83641 47.8843 6.80094 48.5186 7.99359C49.1529 9.18625 49.3986 10.5474 49.2211 11.8865L48.4844 17.3318C48.441 17.6538 48.3305 17.9631 48.1601 18.2398C47.9898 18.5165 47.7633 18.7544 47.4953 18.9382C47.2273 19.122 46.9238 19.2476 46.6043 19.3069C46.2848 19.3661 45.9565 19.3578 45.6404 19.2824L38.3264 17.535C37.7777 17.4022 37.2958 17.075 36.9699 16.6141C36.644 16.1531 36.4963 15.5897 36.5541 15.0281L36.9703 11.0742C37.0064 10.7137 36.9084 10.3525 36.6951 10.0597C36.4818 9.76678 36.1682 9.56272 35.814 9.48643C28.7029 7.8882 21.3257 7.8882 14.2146 9.48643C13.8606 9.56301 13.5472 9.76717 13.3341 10.06C13.1209 10.3528 13.023 10.7138 13.059 11.0742L13.4752 15.0323C13.533 15.5941 13.3851 16.1579 13.0588 16.6189C12.7324 17.08 12.2499 17.407 11.7008 17.5392L4.35904 19.2831C4.1829 19.3248 4.00247 19.3457 3.82145 19.3455ZM24.9997 2.16272C19.7972 2.16272 12.0913 2.91188 4.94172 6.47939C3.9896 6.95074 3.20889 7.70827 2.70905 8.64574C2.20922 9.58321 2.01533 10.6536 2.15458 11.7069L2.88917 17.1459C2.90661 17.2759 2.95115 17.4008 3.01989 17.5126C3.08863 17.6243 3.18006 17.7204 3.28825 17.7946C3.39645 17.8688 3.51901 17.9195 3.64801 17.9433C3.77702 17.9672 3.9096 17.9638 4.03718 17.9332L11.3817 16.1845C11.6032 16.1311 11.7979 15.9992 11.9295 15.8132C12.0612 15.6272 12.1209 15.3998 12.0976 15.1731L11.6814 11.215C11.61 10.5163 11.7979 9.81565 12.2095 9.24647C12.6211 8.6773 13.2276 8.27931 13.9136 8.12824C21.2234 6.48573 28.8066 6.48573 36.1164 8.12824C36.8032 8.2786 37.4107 8.67652 37.8229 9.24609C38.2351 9.81566 38.4232 10.517 38.3514 11.2164L37.9352 15.1703C37.9117 15.3969 37.9713 15.6243 38.1028 15.8103C38.2343 15.9963 38.4289 16.1283 38.6504 16.1817L45.9623 17.9283C46.0894 17.9586 46.2215 17.9619 46.35 17.9382C46.4785 17.9145 46.6006 17.8642 46.7085 17.7905C46.8165 17.7169 46.9078 17.6215 46.9768 17.5105C47.0457 17.3995 47.0907 17.2753 47.1089 17.1459L47.8449 11.7006C47.9846 10.6483 47.7915 9.57858 47.2929 8.64143C46.7942 7.70427 46.0148 6.94659 45.064 6.47454C37.9373 2.9098 30.2196 2.16272 24.9997 2.16272Z" fill="white"/>
<path d="M1.97422 16.1088C1.8047 16.1082 1.64129 16.0455 1.51486 15.9325C1.38843 15.8196 1.30773 15.6643 1.28801 15.4959C1.26828 15.3275 1.3109 15.1578 1.40781 15.0187C1.50472 14.8796 1.64921 14.7808 1.81399 14.7409L12.3924 12.2139C12.4814 12.1913 12.5741 12.1867 12.665 12.2002C12.7559 12.2137 12.8432 12.2452 12.9218 12.2927C13.0005 12.3403 13.0689 12.403 13.1231 12.4772C13.1773 12.5514 13.2162 12.6356 13.2375 12.725C13.2589 12.8144 13.2623 12.9071 13.2475 12.9978C13.2328 13.0885 13.2001 13.1754 13.1515 13.2533C13.1029 13.3313 13.0392 13.3989 12.9643 13.452C12.8893 13.5052 12.8046 13.543 12.7149 13.5631L2.13654 16.0901C2.08336 16.1027 2.02888 16.109 1.97422 16.1088Z" fill="white"/>
<path d="M44.2392 36.7072H5.76024C5.57627 36.7072 5.39984 36.6341 5.26975 36.5041C5.13966 36.374 5.06658 36.1975 5.06658 36.0136V29.3904C5.06407 28.5406 5.29706 27.7067 5.7397 26.9812C6.18234 26.2557 6.81731 25.667 7.57418 25.2805C9.39794 24.3762 10.9745 23.0419 12.1679 21.3928C13.3613 19.7437 14.1359 17.8291 14.4248 15.814C14.5169 15.1255 14.8562 14.494 15.3794 14.0371C15.9027 13.5802 16.5742 13.3291 17.2688 13.3307H32.7292C33.4239 13.3291 34.0954 13.5802 34.6187 14.0371C35.1419 14.494 35.4812 15.1255 35.5733 15.814C35.8626 17.8295 36.6378 19.7444 37.832 21.3935C39.0262 23.0427 40.6035 24.3767 42.4281 25.2805C43.1849 25.667 43.8199 26.2557 44.2625 26.9812C44.7052 27.7067 44.9382 28.5406 44.9357 29.3904V36.0136C44.9357 36.1049 44.9176 36.1953 44.8826 36.2797C44.8476 36.364 44.7962 36.4406 44.7315 36.505C44.6668 36.5695 44.59 36.6205 44.5055 36.6552C44.421 36.6899 44.3305 36.7076 44.2392 36.7072ZM6.45391 35.3199H43.5456V29.3904C43.5495 28.799 43.3895 28.2181 43.0834 27.7121C42.7773 27.206 42.337 26.7946 41.8114 26.5235C39.7856 25.5196 38.0344 24.0381 36.7086 22.2067C35.3828 20.3753 34.5223 18.249 34.2012 16.011C34.1547 15.6535 33.9797 15.3252 33.7088 15.0872C33.438 14.8493 33.0898 14.7181 32.7292 14.7181H17.2702C16.9097 14.7181 16.5615 14.8493 16.2906 15.0872C16.0198 15.3252 15.8448 15.6535 15.7983 16.011C15.4774 18.2487 14.6173 20.3749 13.2921 22.2062C11.9668 24.0376 10.2161 25.5193 8.19085 26.5235C7.66522 26.7946 7.22494 27.206 6.91884 27.7121C6.61274 28.2181 6.45278 28.799 6.45668 29.3904L6.45391 35.3199Z" fill="white"/>
<path d="M24.9997 33.2347C23.4707 33.2347 21.976 32.7813 20.7047 31.9318C19.4333 31.0824 18.4424 29.875 17.8573 28.4623C17.2722 27.0497 17.1191 25.4953 17.4174 23.9956C17.7157 22.496 18.452 21.1185 19.5332 20.0373C20.6143 18.9561 21.9919 18.2198 23.4915 17.9215C24.9912 17.6232 26.5456 17.7763 27.9582 18.3614C29.3708 18.9466 30.5783 19.9375 31.4277 21.2088C32.2772 22.4801 32.7306 23.9748 32.7306 25.5038C32.7284 27.5535 31.9132 29.5186 30.4639 30.968C29.0145 32.4173 27.0494 33.2325 24.9997 33.2347ZM24.9997 19.1603C23.7451 19.1603 22.5186 19.5323 21.4754 20.2294C20.4322 20.9264 19.6192 21.9171 19.139 23.0763C18.6589 24.2354 18.5333 25.5109 18.7781 26.7414C19.0228 27.9719 19.627 29.1023 20.5142 29.9894C21.4013 30.8766 22.5316 31.4807 23.7622 31.7255C24.9927 31.9703 26.2682 31.8447 27.4273 31.3645C28.5864 30.8844 29.5772 30.0713 30.2742 29.0281C30.9713 27.9849 31.3433 26.7585 31.3433 25.5038C31.342 23.8216 30.6733 22.2085 29.4841 21.0187C28.2948 19.8289 26.682 19.1595 24.9997 19.1575V19.1603Z" fill="white"/>
<path d="M24.9997 21.9682C24.8158 21.9682 24.6393 21.8952 24.5092 21.7651C24.3791 21.635 24.3061 21.4585 24.3061 21.2746V20.8445C24.3061 20.6605 24.3791 20.4841 24.5092 20.354C24.6393 20.2239 24.8158 20.1508 24.9997 20.1508C25.1837 20.1508 25.3601 20.2239 25.4902 20.354C25.6203 20.4841 25.6934 20.6605 25.6934 20.8445V21.2746C25.6934 21.4585 25.6203 21.635 25.4902 21.7651C25.3601 21.8952 25.1837 21.9682 24.9997 21.9682Z" fill="white"/>
<path d="M22.0086 23.2064C21.825 23.2064 21.6489 23.1335 21.5189 23.0039L21.2144 22.7001C21.15 22.6356 21.0988 22.5592 21.0639 22.475C21.029 22.3909 21.011 22.3006 21.011 22.2095C21.011 22.1184 21.0289 22.0282 21.0637 21.944C21.0986 21.8598 21.1497 21.7833 21.2141 21.7189C21.2785 21.6544 21.3549 21.6033 21.4391 21.5684C21.5233 21.5335 21.6135 21.5155 21.7046 21.5155C21.7957 21.5154 21.8859 21.5334 21.9701 21.5682C22.0543 21.603 22.1308 21.6541 22.1952 21.7185L22.4991 22.0223C22.596 22.1193 22.6621 22.2429 22.6888 22.3775C22.7156 22.512 22.7019 22.6515 22.6494 22.7782C22.5969 22.9049 22.508 23.0133 22.3939 23.0895C22.2799 23.1657 22.1458 23.2064 22.0086 23.2064Z" fill="white"/>
<path d="M20.7698 26.1975H20.3404C20.1564 26.1975 19.98 26.1244 19.8499 25.9943C19.7198 25.8643 19.6467 25.6878 19.6467 25.5038C19.6467 25.3199 19.7198 25.1434 19.8499 25.0133C19.98 24.8833 20.1564 24.8102 20.3404 24.8102H20.7698C20.9537 24.8102 21.1302 24.8833 21.2603 25.0133C21.3903 25.1434 21.4634 25.3199 21.4634 25.5038C21.4634 25.6878 21.3903 25.8643 21.2603 25.9943C21.1302 26.1244 20.9537 26.1975 20.7698 26.1975Z" fill="white"/>
<path d="M21.7048 29.4931C21.5675 29.4932 21.4332 29.4526 21.3191 29.3763C21.2049 29.3001 21.1159 29.1916 21.0633 29.0647C21.0108 28.9379 20.9972 28.7983 21.024 28.6636C21.0509 28.5289 21.1172 28.4053 21.2144 28.3083L21.5189 28.0045C21.6498 27.8782 21.8251 27.8084 22.007 27.8101C22.1889 27.8119 22.3628 27.8849 22.4913 28.0136C22.6198 28.1423 22.6927 28.3164 22.6941 28.4982C22.6956 28.6801 22.6255 28.8553 22.4991 28.986L22.1952 29.2899C22.0652 29.42 21.8888 29.4931 21.7048 29.4931Z" fill="white"/>
<path d="M24.9997 30.8575C24.8158 30.8575 24.6393 30.7845 24.5092 30.6544C24.3791 30.5243 24.3061 30.3479 24.3061 30.1639V29.7338C24.3061 29.5498 24.3791 29.3734 24.5092 29.2433C24.6393 29.1132 24.8158 29.0401 24.9997 29.0401C25.1837 29.0401 25.3601 29.1132 25.4902 29.2433C25.6203 29.3734 25.6934 29.5498 25.6934 29.7338V30.1639C25.6934 30.3479 25.6203 30.5243 25.4902 30.6544C25.3601 30.7845 25.1837 30.8575 24.9997 30.8575Z" fill="white"/>
<path d="M28.2946 29.4931C28.1107 29.4931 27.9343 29.42 27.8042 29.2899L27.5004 28.986C27.4341 28.9221 27.3812 28.8456 27.3448 28.761C27.3084 28.6764 27.2892 28.5854 27.2883 28.4933C27.2874 28.4012 27.3049 28.3098 27.3397 28.2245C27.3746 28.1393 27.426 28.0618 27.4911 27.9966C27.5562 27.9314 27.6336 27.8799 27.7188 27.8449C27.804 27.81 27.8954 27.7924 27.9875 27.7931C28.0796 27.7939 28.1706 27.8129 28.2553 27.8492C28.3399 27.8855 28.4165 27.9383 28.4805 28.0045L28.7851 28.3083C28.8823 28.4053 28.9485 28.5289 28.9754 28.6636C29.0023 28.7983 28.9886 28.9379 28.9361 29.0647C28.8836 29.1916 28.7946 29.3001 28.6804 29.3763C28.5662 29.4526 28.432 29.4932 28.2946 29.4931Z" fill="white"/>
<path d="M29.6591 26.1975H29.2297C29.0457 26.1975 28.8693 26.1244 28.7392 25.9943C28.6091 25.8643 28.536 25.6878 28.536 25.5038C28.536 25.3199 28.6091 25.1434 28.7392 25.0133C28.8693 24.8833 29.0457 24.8102 29.2297 24.8102H29.6591C29.843 24.8102 30.0195 24.8833 30.1496 25.0133C30.2797 25.1434 30.3527 25.3199 30.3527 25.5038C30.3527 25.6878 30.2797 25.8643 30.1496 25.9943C30.0195 26.1244 29.843 26.1975 29.6591 26.1975Z" fill="white"/>
<path d="M27.9908 23.2064C27.8536 23.2064 27.7196 23.1657 27.6055 23.0895C27.4915 23.0133 27.4026 22.9049 27.3501 22.7782C27.2976 22.6515 27.2839 22.512 27.3106 22.3775C27.3374 22.2429 27.4034 22.1193 27.5004 22.0223L27.8042 21.7185C27.8687 21.6541 27.9452 21.603 28.0294 21.5682C28.1135 21.5334 28.2038 21.5154 28.2949 21.5155C28.386 21.5155 28.4762 21.5335 28.5604 21.5684C28.6445 21.6033 28.721 21.6544 28.7854 21.7189C28.8498 21.7833 28.9009 21.8598 28.9357 21.944C28.9706 22.0282 28.9885 22.1184 28.9884 22.2095C28.9884 22.3006 28.9704 22.3909 28.9355 22.475C28.9006 22.5592 28.8495 22.6356 28.7851 22.7001L28.4805 23.0039C28.3505 23.1335 28.1744 23.2064 27.9908 23.2064Z" fill="white"/>
</svg>
