<svg width="38" height="39" viewBox="0 0 38 39" fill="none" xmlns="http://www.w3.org/2000/svg">
<path d="M10.3323 32.7895C10.2427 32.7897 10.1543 32.7701 10.0731 32.7323C9.99201 32.6944 9.92021 32.6392 9.86282 32.5705C9.80544 32.5019 9.76387 32.4214 9.74107 32.3349C9.71827 32.2484 9.71479 32.158 9.73089 32.07C10.9264 25.5303 8.29607 21.6442 8.26875 21.6058C8.1994 21.5058 8.1614 21.3875 8.15961 21.2659C8.15781 21.1444 8.1923 21.025 8.25867 20.9231C8.64959 20.3256 8.93273 18.5937 8.94723 16.7111C8.96494 14.3826 8.58471 13.2608 8.40841 13.1065C8.18879 12.9566 7.93553 12.8633 7.67112 12.8347C7.4067 12.8061 7.13931 12.8432 6.8927 12.9427C6.7048 13.0164 6.54026 13.1394 6.41643 13.2987C6.29259 13.4579 6.21404 13.6476 6.18903 13.8477C6.07028 14.6196 5.70241 15.7132 5.27655 16.9798C4.80672 18.377 4.27401 19.9606 4.02322 21.3083C3.73736 22.9307 3.59998 24.5758 3.61277 26.2232C3.61654 26.3781 3.56114 26.5286 3.45784 26.6442L1.06598 29.3197C1.01257 29.3795 0.947901 29.4281 0.875671 29.4629C0.80344 29.4977 0.725061 29.5179 0.645006 29.5224C0.564952 29.5269 0.484791 29.5157 0.4091 29.4892C0.333409 29.4628 0.263671 29.4217 0.203866 29.3684C0.144062 29.315 0.0953637 29.2504 0.0605509 29.1783C0.0257381 29.1061 0.00549306 29.0278 0.00097158 28.9478C-0.0035499 28.8678 0.00774076 28.7878 0.0341989 28.7122C0.0606571 28.6365 0.101765 28.5669 0.155174 28.5071L2.38921 26.0085C2.38865 24.358 2.53371 22.7107 2.82271 21.0856C3.08937 19.6538 3.63643 18.0271 4.11908 16.5917C4.50999 15.429 4.87923 14.3309 4.98226 13.6626C5.03944 13.2561 5.20244 12.8718 5.45496 12.548C5.70747 12.2242 6.04066 11.9723 6.4212 11.8175C6.86148 11.6374 7.34001 11.5708 7.81281 11.6237C8.28561 11.6766 8.73753 11.8473 9.12704 12.1202C10.5716 13.1624 10.377 19.1436 9.4717 21.2273C10.1244 22.3378 12.0379 26.2406 10.9322 32.2889C10.9066 32.4293 10.8325 32.5562 10.7229 32.6477C10.6133 32.7392 10.4751 32.7894 10.3323 32.7895Z" fill="white"/>
<path d="M9.29022 38.2707C9.17043 38.2707 9.05329 38.2355 8.95338 38.1695C8.85347 38.1034 8.7752 38.0095 8.72833 37.8994C8.68145 37.7893 8.66804 37.6678 8.68975 37.5501C8.71147 37.4325 8.76736 37.3238 8.85046 37.2376L10.9331 35.0771C11.0033 35.0043 11.0905 34.95 11.187 34.9192C11.2834 34.8884 11.386 34.8821 11.4855 34.9007C11.5079 34.905 13.8819 35.3254 15.9058 34.3146C15.9363 34.2993 17.9759 33.3069 18.6881 31.5782C18.7497 31.4286 18.8683 31.3095 19.0178 31.2472C19.1673 31.185 19.3355 31.1846 19.4853 31.2462C19.635 31.3077 19.7542 31.4262 19.8165 31.5756C19.8789 31.7249 19.8793 31.8929 19.8176 32.0425C18.9236 34.2127 16.5421 35.3632 16.4411 35.4111C14.5169 36.3717 12.403 36.2453 11.5957 36.1488L9.73028 38.0839C9.67333 38.143 9.60499 38.1901 9.52936 38.2222C9.45374 38.2543 9.37239 38.2708 9.29022 38.2707Z" fill="white"/>
<path d="M26.2749 18.0559C26.113 18.0559 25.9577 17.9916 25.8432 17.8772C25.7287 17.7628 25.6644 17.6077 25.6644 17.4459V2.68528C25.6644 1.8771 24.8842 1.22035 23.9252 1.22035H11.1187C10.1595 1.22035 9.37859 1.87756 9.37859 2.68528V12.6149C9.37859 12.7766 9.31427 12.9318 9.19976 13.0462C9.08526 13.1606 8.92996 13.2248 8.76803 13.2248C8.6061 13.2248 8.45081 13.1606 8.3363 13.0462C8.2218 12.9318 8.15747 12.7766 8.15747 12.6149V2.68482C8.15747 1.20449 9.48544 0 11.1187 0H23.9252C25.5575 0 26.8855 1.20464 26.8855 2.68482V17.4455C26.8855 17.5256 26.8698 17.605 26.8391 17.679C26.8085 17.7531 26.7635 17.8204 26.7068 17.8771C26.6501 17.9338 26.5828 17.9787 26.5087 18.0094C26.4346 18.0401 26.3551 18.0559 26.2749 18.0559Z" fill="white"/>
<path d="M10.7269 31.62C10.5649 31.62 10.4096 31.5557 10.2951 31.4413C10.1806 31.3269 10.1163 31.1718 10.1163 31.01C10.1163 30.8483 10.1806 30.6931 10.2951 30.5787C10.4096 30.4644 10.5649 30.4001 10.7269 30.4001H15.6522C15.8142 30.4001 15.9695 30.4644 16.084 30.5787C16.1985 30.6931 16.2628 30.8483 16.2628 31.01C16.2628 31.1718 16.1985 31.3269 16.084 31.4413C15.9695 31.5557 15.8142 31.62 15.6522 31.62H10.7269Z" fill="white"/>
<path d="M26.1783 4.50612H8.81245C8.65052 4.50612 8.49522 4.44186 8.38072 4.32747C8.26622 4.21308 8.20189 4.05794 8.20189 3.89617C8.20189 3.73441 8.26622 3.57926 8.38072 3.46488C8.49522 3.35049 8.65052 3.28623 8.81245 3.28623H26.1783C26.3402 3.28623 26.4955 3.35049 26.61 3.46488C26.7245 3.57926 26.7889 3.73441 26.7889 3.89617C26.7889 4.05794 26.7245 4.21308 26.61 4.32747C26.4955 4.44186 26.3402 4.50612 26.1783 4.50612Z" fill="white"/>
<path d="M13.742 28.1528H10.8616C10.6997 28.1528 10.5444 28.0885 10.4299 27.9741C10.3154 27.8597 10.2511 27.7046 10.2511 27.5428C10.2511 27.381 10.3154 27.2259 10.4299 27.1115C10.5444 26.9971 10.6997 26.9329 10.8616 26.9329H13.742C13.9039 26.9329 14.0592 26.9971 14.1737 27.1115C14.2882 27.2259 14.3525 27.381 14.3525 27.5428C14.3525 27.7046 14.2882 27.8597 14.1737 27.9741C14.0592 28.0885 13.9039 28.1528 13.742 28.1528Z" fill="white"/>
<path d="M26.7493 38.9994C26.6307 38.9995 26.5146 38.965 26.4152 38.9002C26.3159 38.8355 26.2376 38.7432 26.1899 38.6346L25.6492 37.405L22.4243 35.9347C22.3541 35.9026 22.2905 35.8575 22.237 35.8019L16.0783 29.3835C16.0718 29.3766 16.0653 29.3695 16.059 29.3624C15.9758 29.2673 15.2555 28.4069 15.5433 27.5079C15.7278 26.9306 16.2477 26.5361 17.088 26.3354C18.5753 25.9803 20.3964 27.0173 21.5971 27.8857L16.6516 16.6397C16.4109 16.099 16.3912 15.4858 16.5968 14.9308C16.6967 14.6563 16.8513 14.4049 17.0513 14.1918C17.2513 13.9788 17.4925 13.8085 17.7604 13.6913C18.3046 13.4611 18.918 13.456 19.4661 13.677C20.0141 13.8979 20.4521 14.327 20.6839 14.8701C20.7476 15.018 20.7502 15.185 20.6912 15.3348C20.6321 15.4846 20.5162 15.605 20.3687 15.6698C20.2212 15.7345 20.054 15.7384 19.9036 15.6805C19.7532 15.6227 19.6318 15.5077 19.5659 15.3608C19.4645 15.1138 19.2693 14.9169 19.0229 14.8134C18.7765 14.7098 18.4991 14.7079 18.2514 14.8081C18.1339 14.86 18.0282 14.9353 17.9406 15.0292C17.853 15.1231 17.7854 15.2338 17.7419 15.3546C17.647 15.6129 17.6569 15.898 17.7695 16.149L23.1475 28.3795C23.1981 28.4945 23.212 28.6223 23.1872 28.7455L23.0403 29.4759C23.019 29.5821 22.9697 29.6808 22.8975 29.7617C22.8253 29.8427 22.7328 29.9029 22.6296 29.9363C22.5264 29.9696 22.4161 29.9749 22.3102 29.9516C22.2042 29.9282 22.1064 29.8771 22.0268 29.8034C21.2148 29.0538 18.794 27.1807 17.3713 27.5225C16.9324 27.6273 16.74 27.7753 16.7062 27.8789C16.652 28.0446 16.827 28.3781 16.9727 28.5538L23.0371 34.874L26.3676 36.3923C26.5039 36.4546 26.6126 36.5649 26.6728 36.702L27.3074 38.1446C27.3482 38.2374 27.3653 38.3389 27.357 38.44C27.3487 38.541 27.3153 38.6384 27.2598 38.7233C27.2043 38.8083 27.1286 38.878 27.0393 38.9263C26.9501 38.9746 26.8502 39 26.7487 39L26.7493 38.9994Z" fill="white"/>
<path d="M24.6763 26.0744C24.5577 26.0744 24.4416 26.04 24.3422 25.9752C24.2429 25.9104 24.1646 25.8181 24.1169 25.7096L19.5664 15.3608C19.5027 15.213 19.5 15.0459 19.5591 14.8962C19.6181 14.7464 19.734 14.626 19.8816 14.5612C20.0291 14.4964 20.1963 14.4926 20.3467 14.5505C20.497 14.6083 20.6184 14.7232 20.6843 14.8701L25.235 25.2189C25.2758 25.3117 25.2929 25.4133 25.2846 25.5143C25.2763 25.6154 25.2429 25.7128 25.1874 25.7977C25.132 25.8826 25.0562 25.9524 24.9669 26.0007C24.8777 26.049 24.7778 26.0743 24.6763 26.0744Z" fill="white"/>
<path d="M23.1949 22.7058C23.0764 22.7058 22.9603 22.6714 22.861 22.6067C22.7617 22.5419 22.6834 22.4497 22.6357 22.3412C22.395 21.8005 22.3753 21.1873 22.5809 20.6323C22.681 20.3579 22.8357 20.1066 23.0357 19.8935C23.2356 19.6805 23.4767 19.5101 23.7444 19.3926C24.012 19.2752 24.3007 19.2131 24.5931 19.2101C24.8854 19.2071 25.1753 19.2632 25.4453 19.3752C25.9934 19.5995 26.4321 20.0288 26.6678 20.5716C26.7012 20.6451 26.7197 20.7245 26.7222 20.8052C26.7246 20.8859 26.711 20.9663 26.6822 21.0417C26.6533 21.1171 26.6097 21.1861 26.554 21.2445C26.4982 21.303 26.4314 21.3498 26.3574 21.3823C26.2834 21.4147 26.2037 21.4322 26.1229 21.4337C26.0421 21.4351 25.9618 21.4205 25.8867 21.3908C25.8116 21.361 25.7431 21.3166 25.6853 21.2602C25.6275 21.2038 25.5815 21.1365 25.5499 21.0621C25.441 20.8094 25.2376 20.6093 24.983 20.5044C24.8646 20.4544 24.7372 20.4291 24.6087 20.43C24.4802 20.4309 24.3532 20.458 24.2355 20.5096C24.1178 20.5613 24.0119 20.6364 23.9243 20.7303C23.8367 20.8243 23.7692 20.9351 23.726 21.056C23.6311 21.3143 23.641 21.5994 23.7538 21.8503C23.7946 21.9432 23.8117 22.0447 23.8034 22.1458C23.795 22.2469 23.7616 22.3443 23.7062 22.4292C23.6507 22.5141 23.5749 22.5839 23.4856 22.6322C23.3964 22.6805 23.2965 22.7058 23.1949 22.7058Z" fill="white"/>
<path d="M27.7035 25.0526C27.5848 25.0526 27.4687 25.0181 27.3694 24.9533C27.27 24.8885 27.1917 24.7962 27.144 24.6877L25.5499 21.0623C25.4861 20.9144 25.4835 20.7474 25.5426 20.5976C25.6016 20.4478 25.7175 20.3274 25.8651 20.2627C26.0126 20.1979 26.1798 20.194 26.3301 20.2519C26.4805 20.3098 26.6019 20.4247 26.6678 20.5716L28.2621 24.1971C28.303 24.2899 28.32 24.3915 28.3117 24.4925C28.3034 24.5936 28.27 24.691 28.2146 24.7759C28.1591 24.8608 28.0833 24.9306 27.9941 24.9789C27.9049 25.0272 27.805 25.0525 27.7035 25.0526Z" fill="white"/>
<path d="M26.6858 22.7378C26.5672 22.7379 26.4511 22.7035 26.3518 22.6387C26.2524 22.574 26.1741 22.4817 26.1264 22.3732C25.8857 21.8325 25.8661 21.2193 26.0716 20.6643C26.1717 20.3899 26.3264 20.1386 26.5263 19.9255C26.7263 19.7124 26.9674 19.542 27.235 19.4245C27.5027 19.3071 27.7914 19.245 28.0838 19.242C28.3761 19.239 28.666 19.2952 28.936 19.4072C29.4841 19.6315 29.9228 20.0608 30.1585 20.6036C30.192 20.6771 30.2104 20.7565 30.2129 20.8372C30.2154 20.9179 30.2018 20.9983 30.1729 21.0737C30.144 21.1492 30.1005 21.2181 30.0447 21.2765C29.989 21.335 29.9222 21.3818 29.8482 21.4143C29.7742 21.4468 29.6945 21.4642 29.6136 21.4657C29.5328 21.4672 29.4525 21.4526 29.3774 21.4228C29.3023 21.393 29.2339 21.3486 29.176 21.2922C29.1182 21.2358 29.0722 21.1685 29.0406 21.0942C28.9317 20.8415 28.7283 20.6413 28.4737 20.5364C28.3553 20.4863 28.2279 20.461 28.0994 20.4619C27.9708 20.4628 27.8438 20.4899 27.7261 20.5415C27.6085 20.5932 27.5026 20.6683 27.415 20.7623C27.3274 20.8563 27.2599 20.9671 27.2167 21.0881C27.1218 21.3463 27.1318 21.6314 27.2445 21.8824C27.2853 21.9752 27.3024 22.0767 27.2941 22.1778C27.2858 22.2788 27.2524 22.3762 27.1969 22.4611C27.1415 22.5461 27.0657 22.6158 26.9764 22.6641C26.8872 22.7125 26.7873 22.7378 26.6858 22.7378Z" fill="white"/>
<path d="M30.9046 24.426C30.786 24.426 30.67 24.3916 30.5706 24.3268C30.4713 24.262 30.393 24.1697 30.3454 24.0612L29.0406 21.0943C28.9769 20.9465 28.9742 20.7794 29.0333 20.6296C29.0923 20.4798 29.2082 20.3594 29.3558 20.2947C29.5033 20.2299 29.6705 20.2261 29.8209 20.2839C29.9712 20.3418 30.0926 20.4567 30.1585 20.6036L31.4633 23.5705C31.5042 23.6634 31.5212 23.7649 31.5129 23.8659C31.5046 23.967 31.4712 24.0644 31.4157 24.1493C31.3603 24.2342 31.2845 24.304 31.1953 24.3523C31.106 24.4006 31.0061 24.4259 30.9046 24.426Z" fill="white"/>
<path d="M30.1517 22.7134C30.0331 22.7135 29.917 22.679 29.8177 22.6142C29.7184 22.5494 29.6401 22.4572 29.5924 22.3487C29.4669 22.0828 29.396 21.7945 29.3839 21.5008C29.3718 21.2071 29.4188 20.914 29.5219 20.6387C29.6251 20.3635 29.7824 20.1116 29.9846 19.8981C30.1868 19.6845 30.4298 19.5136 30.6992 19.3955C30.9686 19.2773 31.259 19.2142 31.5532 19.21C31.8474 19.2058 32.1394 19.2605 32.4121 19.3709C32.6848 19.4813 32.9326 19.6451 33.1409 19.8528C33.3491 20.0604 33.5136 20.3076 33.6247 20.5798C33.6898 20.728 33.6934 20.8959 33.6347 21.0466C33.5759 21.1974 33.4596 21.3186 33.3113 21.3837C33.163 21.4488 32.995 21.4524 32.8441 21.3937C32.6931 21.335 32.5718 21.2188 32.5066 21.0707C32.4596 20.9459 32.3876 20.8319 32.2951 20.7358C32.2026 20.6397 32.0914 20.5635 31.9684 20.5117C31.8453 20.46 31.7131 20.4338 31.5796 20.4348C31.4461 20.4359 31.3142 20.4641 31.192 20.5177C31.0698 20.5713 30.9598 20.6493 30.8688 20.7468C30.7777 20.8443 30.7075 20.9593 30.6624 21.0848C30.6174 21.2103 30.5984 21.3437 30.6066 21.4768C30.6148 21.6099 30.6501 21.7399 30.7103 21.8589C30.7511 21.9517 30.7682 22.0532 30.7598 22.1542C30.7515 22.2553 30.7181 22.3527 30.6627 22.4376C30.6072 22.5225 30.5315 22.5922 30.4422 22.6405C30.353 22.6888 30.2531 22.7141 30.1517 22.7142V22.7134Z" fill="white"/>
<path d="M37.3897 34.5619C37.2711 34.562 37.155 34.5275 37.0556 34.4627C36.9563 34.398 36.878 34.3057 36.8303 34.1971L36.242 32.8591C36.2027 32.7697 36.1854 32.6722 36.1916 32.5747L36.3667 29.8487L32.5066 21.0702C32.4415 20.9221 32.4379 20.7542 32.4967 20.6035C32.5555 20.4528 32.6718 20.3315 32.8201 20.2665C32.9684 20.2014 33.1364 20.1979 33.2873 20.2566C33.4382 20.3154 33.5596 20.4316 33.6247 20.5797L37.5446 29.4945C37.584 29.5839 37.6013 29.6815 37.595 29.779L37.4199 32.505L37.9484 33.7069C37.9892 33.7997 38.0063 33.9013 37.998 34.0023C37.9896 34.1034 37.9563 34.2008 37.9008 34.2857C37.8453 34.3706 37.7696 34.4404 37.6803 34.4887C37.5911 34.537 37.4912 34.5623 37.3897 34.5624V34.5619Z" fill="white"/>
</svg>
