<?xml version="1.0" standalone="no"?>
<!DOCTYPE svg PUBLIC "-//W3C//DTD SVG 20010904//EN"
 "http://www.w3.org/TR/2001/REC-SVG-20010904/DTD/svg10.dtd">
<svg version="1.0" xmlns="http://www.w3.org/2000/svg"
 width="512.000000pt" height="512.000000pt" viewBox="0 0 550.000000 600.000000"
 preserveAspectRatio="xMidYMid meet">

<g transform="translate(0.000000,550.000000) scale(0.100000,-0.100000)"
fill="#684DF4" stroke="none">
<path d="M1648 4082 c-13 -16 -79 -115 -147 -221 -68 -106 -127 -189 -131
-184 -4 4 -74 95 -156 202 -81 106 -158 197 -171 202 -30 11 -68 -4 -88 -35
-15 -23 -13 -38 38 -275 33 -154 49 -251 43 -251 -6 0 -122 14 -258 32 l-248
32 -25 -24 c-32 -30 -34 -79 -2 -107 12 -11 111 -78 221 -148 158 -102 196
-131 184 -139 -8 -6 -101 -78 -206 -159 -190 -146 -192 -148 -192 -186 0 -38
16 -61 52 -74 9 -3 128 18 263 47 236 51 245 52 245 32 0 -11 -14 -127 -31
-258 -30 -223 -31 -239 -15 -263 31 -47 105 -42 126 7 5 13 28 161 50 331 43
333 43 345 -9 367 -22 9 -53 5 -159 -18 -73 -16 -132 -28 -132 -26 0 1 48 40
106 85 58 45 110 92 116 105 21 44 -4 74 -128 153 -63 41 -113 75 -112 76 2 1
62 -5 133 -15 140 -19 164 -16 190 24 16 24 15 33 -12 160 -16 74 -26 133 -22
130 5 -3 43 -50 86 -105 42 -56 87 -105 100 -110 27 -10 61 1 84 27 48 57 339
524 339 546 0 65 -88 92 -132 40z"/>
<path d="M2318 3586 c-69 -25 -96 -51 -227 -221 -73 -93 -135 -171 -139 -172
-4 -2 -17 12 -29 31 -30 47 -84 70 -175 74 -64 3 -85 0 -123 -18 -83 -40 -112
-113 -77 -192 25 -57 76 -96 160 -125 l66 -22 -106 -108 c-138 -139 -153 -171
-168 -348 -6 -71 -23 -195 -37 -275 -15 -80 -28 -183 -28 -230 -1 -47 -12
-134 -24 -194 -25 -121 -23 -161 14 -204 31 -37 54 -46 198 -77 138 -29 177
-31 223 -9 46 22 69 64 90 162 16 75 20 83 38 78 12 -2 343 -73 736 -156 393
-83 716 -152 716 -153 1 -1 -6 -40 -16 -86 -21 -97 -18 -132 18 -180 32 -43
58 -53 227 -87 l141 -28 46 23 c58 28 78 66 108 210 12 57 30 116 41 130 11
15 39 105 63 201 24 96 65 238 91 315 60 176 59 220 -4 368 -23 54 -45 113
-48 132 l-6 34 34 -9 c155 -45 308 63 270 189 -34 114 -236 193 -335 131 -28
-17 -37 -19 -41 -8 -2 7 -27 105 -55 218 -28 112 -57 214 -65 226 -78 120
-288 191 -940 323 -339 68 -552 87 -637 57z m340 -156 c353 -58 832 -168 984
-227 120 -46 122 -49 177 -276 47 -191 48 -198 27 -193 -11 2 -183 39 -381 81
-198 42 -495 105 -660 140 -165 35 -390 83 -500 106 -110 23 -204 45 -208 49
-11 10 229 319 257 330 37 15 177 11 304 -10z m-858 -295 c15 -18 5 -35 -20
-35 -24 0 -90 31 -90 42 0 15 97 9 110 -7z m1133 -360 c507 -108 933 -199 946
-203 21 -7 28 -22 51 -118 15 -61 46 -157 69 -213 22 -57 41 -116 41 -132 0
-15 -22 -95 -49 -176 -27 -81 -64 -211 -82 -288 -17 -77 -35 -144 -39 -148 -4
-5 -47 -1 -95 9 l-87 18 -55 91 c-67 108 -114 161 -168 185 -22 10 -148 41
-280 70 -132 28 -301 64 -375 80 -714 152 -725 154 -785 141 -41 -9 -85 -32
-161 -84 l-105 -70 -86 16 c-48 10 -89 20 -92 22 -3 3 0 36 7 73 6 37 20 117
31 177 11 61 24 168 30 238 6 71 17 140 25 155 8 15 51 63 96 107 45 44 111
117 147 163 35 45 71 82 79 82 8 0 430 -88 937 -195z m1278 -150 c42 -22 26
-38 -33 -33 -55 6 -63 11 -55 33 8 19 50 19 88 0z m-1473 -814 c384 -81 662
-145 677 -155 24 -16 68 -76 61 -83 -2 -2 -43 6 -92 17 -49 11 -376 80 -727
155 -350 74 -651 138 -668 143 l-31 8 48 27 c27 14 56 27 64 27 9 0 309 -62
668 -139z m-1060 -12 c53 -11 104 -22 113 -25 14 -4 15 -11 1 -72 -8 -37 -16
-69 -18 -71 -5 -5 -217 40 -226 48 -6 6 20 141 28 141 2 0 48 -9 102 -21z
m2023 -430 c57 -12 105 -22 107 -24 3 -3 -25 -135 -30 -140 -5 -5 -217 41
-225 48 -10 11 19 137 32 137 7 0 59 -9 116 -21z"/>
<path d="M1895 2805 c-95 -49 -155 -209 -111 -293 40 -77 320 -222 428 -222
20 0 40 10 60 31 l31 30 -5 93 c-5 83 -9 103 -43 170 -45 90 -93 143 -161 175
-63 30 -158 38 -199 16z m155 -163 c14 -10 35 -33 47 -51 27 -40 58 -119 49
-128 -7 -8 -161 67 -199 97 -31 25 -33 39 -11 82 14 28 19 30 52 24 20 -3 48
-14 62 -24z"/>
<path d="M2350 2470 c-38 -38 -21 -102 32 -119 57 -18 884 -191 915 -191 38 0
66 31 66 71 0 61 -6 63 -484 165 -244 52 -458 94 -476 94 -20 0 -41 -8 -53
-20z"/>
<path d="M3635 2428 c-94 -35 -201 -135 -243 -226 -60 -132 -19 -180 163 -189
122 -7 259 11 317 41 55 27 81 78 86 168 5 85 -21 147 -80 186 -34 22 -53 26
-126 29 -48 1 -100 -2 -117 -9z m163 -150 c7 -7 12 -29 12 -50 0 -51 -18 -59
-157 -65 -111 -6 -115 -5 -105 13 13 24 46 54 97 88 30 19 52 26 90 26 28 0
56 -5 63 -12z"/>
<path d="M2411 2234 c-35 -45 -24 -93 26 -112 15 -6 182 -43 370 -83 288 -61
347 -70 368 -61 48 22 55 99 11 127 -23 15 -679 155 -725 155 -20 0 -36 -9
-50 -26z"/>
</g>
</svg>
