<svg width="50" height="50" viewBox="0 0 50 50" fill="none" xmlns="http://www.w3.org/2000/svg">
<path fill-rule="evenodd" clip-rule="evenodd" d="M0.43682 0.0952483C0.315239 0.144308 0.167136 0.27527 0.107813 0.386263C0.0324957 0.52726 0 7.43316 0 23.3331V46.0782L0.234253 46.2987L0.468607 46.519H17.3353H34.2021L34.4118 46.2519C34.6162 45.9918 34.6217 45.8788 34.6217 41.9212V37.8575L35.3564 38.5883C36.0816 39.3094 36.0908 39.3254 36.0543 39.7845C35.9792 40.7295 36.0099 40.7668 40.7199 45.4705C44.9899 49.7347 45.1121 49.8466 45.6087 49.9496C46.2406 50.0805 46.8766 49.9544 47.3976 49.5949C48.0118 49.1711 49.6001 47.4621 49.8099 46.9994C50.0308 46.5122 50.0576 46.0444 49.8987 45.4547C49.806 45.111 49.1397 44.3963 45.5209 40.7593C43.1732 38.3999 41.0834 36.3816 40.8769 36.274C40.6328 36.147 40.2966 36.0786 39.917 36.0786H39.3327L38.3533 35.1016L37.374 34.1248L37.668 33.6464C40.7166 28.6853 39.7595 22.2434 35.3843 18.2756L34.6217 17.5841V13.0149V8.44578L34.3939 8.14158C34.2686 7.97433 32.6547 6.10154 30.8074 3.9797C28.781 1.65229 27.3555 0.0969715 27.2137 0.0589602C26.8435 -0.0402747 0.684942 -0.00479748 0.43682 0.0952483ZM26.3206 5.11659V8.82102L26.5691 9.06977L26.8175 9.31862H30.011H33.2044V12.9796C33.2044 16.4191 33.1937 16.6372 33.0273 16.5863C32.9299 16.5566 32.4815 16.3688 32.0309 16.169C30.4267 15.4577 28.5841 15.1329 26.7255 15.2338C23.5962 15.4038 20.9206 16.6114 18.7183 18.8479C15.4455 22.1716 14.3754 27.0297 15.9497 31.4159C16.5725 33.151 17.4382 34.4999 18.8201 35.8885C20.384 37.4599 22.1419 38.4726 24.3778 39.0901C25.2864 39.3411 25.5048 39.361 27.3329 39.3608C29.143 39.3605 29.3882 39.3385 30.2859 39.0959C30.8242 38.9503 31.6442 38.6644 32.1081 38.4604C32.5718 38.2564 33.0083 38.0655 33.0779 38.0362C33.1777 37.994 33.2044 38.7336 33.2044 41.5414V45.0999H17.3108H1.41726V23.2561V1.41226H13.8689H26.3206V5.11659ZM29.9238 5.13859C31.0233 6.40624 32.0141 7.54607 32.1257 7.67146L32.3287 7.89953H30.0332H27.7378V5.30878C27.7378 3.75123 27.7751 2.74104 27.8313 2.77591C27.8827 2.80763 28.8243 3.87084 29.9238 5.13859ZM8.04802 3.25982C5.95655 4.00636 5.37922 6.73273 6.98265 8.29079C7.21315 8.5149 7.60746 8.77683 7.85872 8.87292L8.31558 9.04757L7.57435 9.2655C6.45036 9.59595 5.79184 9.98366 5.00729 10.7773C4.21494 11.5788 3.74846 12.4139 3.4975 13.4799C3.09388 15.1947 3.49254 16.0675 5.00374 16.7777C6.11842 17.3014 7.15859 17.476 9.11097 17.4674C11.3618 17.4574 12.8293 17.1162 13.7868 16.3802C14.6299 15.7323 14.8151 15.2334 14.6642 14.0166C14.3739 11.6749 12.5584 9.66589 10.3099 9.1983L9.7373 9.0792L10.2593 8.83805C10.9178 8.53376 11.3833 8.0907 11.7248 7.44339C12.0919 6.74763 12.1106 5.54739 11.7653 4.84575C11.2253 3.74819 10.2466 3.13271 9.06035 3.14446C8.67061 3.14832 8.21506 3.20021 8.04802 3.25982ZM9.88672 4.7675C10.076 4.88457 10.3256 5.16626 10.4413 5.39352C11.1223 6.7301 9.6965 8.17686 8.33552 7.53026C7.25709 7.01787 7.19169 5.38713 8.22427 4.75675C8.67334 4.48256 9.43421 4.48743 9.88672 4.7675ZM10.0226 10.5927C11.6926 10.9731 13.0074 12.4055 13.2564 14.1162C13.3595 14.825 13.2391 15.1007 12.6846 15.4259C11.9551 15.8537 10.8701 16.0375 9.06035 16.0397C7.19554 16.0422 6.22431 15.8691 5.33052 15.3755C4.78306 15.073 4.68031 14.7708 4.84764 13.9547C5.25156 11.9857 6.99166 10.5111 8.98979 10.4448C9.17363 10.4386 9.63839 10.5052 10.0226 10.5927ZM29.977 16.9532C31.8871 17.4501 33.4512 18.357 34.8824 19.7974C36.3719 21.2964 37.1841 22.7286 37.7305 24.8197C37.9395 25.6196 37.9856 26.0396 37.9926 27.2093C37.9974 27.994 37.9444 28.9002 37.8741 29.2365C36.9845 33.4928 34.0366 36.6377 29.9258 37.7158C28.7649 38.0203 26.6827 38.0863 25.4657 37.857C23.2592 37.4414 21.5664 36.561 19.9088 34.967C14.684 29.9427 15.9257 21.3164 22.3725 17.849C23.2746 17.3637 24.3842 16.9787 25.4758 16.772C26.6695 16.5459 28.7301 16.6289 29.977 16.9532ZM26.0675 18.2428C22.9757 18.7245 20.405 20.6361 19.0736 23.4431C18.4943 24.6646 18.3099 25.4417 18.2504 26.9134C18.2092 27.9306 18.2367 28.4381 18.3687 29.0927C19.0498 32.4724 21.4806 35.1146 24.8527 36.1409C25.6773 36.3919 25.9127 36.4182 27.3329 36.4182C28.7461 36.4182 28.9904 36.3912 29.791 36.1465C32.0694 35.4503 33.7715 34.1856 35.0382 32.248C35.9907 30.7908 36.4439 29.1846 36.4439 27.2663C36.4439 23.0094 33.5479 19.3837 29.3576 18.3944C28.5209 18.1968 26.8548 18.12 26.0675 18.2428ZM28.4139 19.666C31.3491 20.0723 33.728 22.0957 34.7229 25.0322C35.004 25.8619 35.1139 27.8581 34.9304 28.8036C34.3393 31.8506 31.846 34.3327 28.7878 34.9186C25.8403 35.4833 22.845 34.2906 21.0954 31.8558C19.1012 29.0805 19.1484 25.3409 21.212 22.6098C22.3571 21.094 24.3298 19.9417 26.2676 19.6565C27.0371 19.5433 27.5433 19.5455 28.4139 19.666ZM3.58922 21.2243C3.27732 21.5365 3.27205 21.8891 3.57494 22.1741C3.80909 22.3943 3.81416 22.3945 8.83906 22.3945C13.734 22.3945 13.8744 22.389 14.0714 22.1918C14.345 21.9178 14.3263 21.5256 14.0253 21.2243L13.7769 20.9754H8.80727H3.83764L3.58922 21.2243ZM31.7784 24.0461C31.5883 24.1759 29.9068 25.5245 28.0415 27.0431C24.9743 29.5406 24.6385 29.7869 24.5269 29.6218C24.4592 29.5215 23.9125 28.7096 23.3121 27.8178C22.0986 26.0148 21.8867 25.8382 21.3853 26.2113C20.84 26.6171 20.9123 26.8103 22.4804 29.137C23.2687 30.3067 23.9856 31.3209 24.0735 31.3905C24.5009 31.7293 24.6636 31.6212 28.846 28.2197C32.7063 25.0803 32.9007 24.9061 32.9007 24.5863C32.9007 23.9627 32.3142 23.6805 31.7784 24.0461ZM3.56077 26.3795C3.27246 26.6869 3.28218 27.0079 3.58922 27.3152L3.83764 27.564H8.27742C12.6055 27.564 12.7228 27.5589 12.9387 27.3574C13.2182 27.0967 13.2273 26.6175 12.9578 26.3477C12.7614 26.151 12.6204 26.145 8.2681 26.145H3.78095L3.56077 26.3795ZM3.54315 31.5172C3.28795 31.7728 3.2844 32.1347 3.53414 32.4436L3.7276 32.6829L8.46642 32.7112C11.8793 32.7316 13.2844 32.7067 13.4878 32.6224C13.9179 32.444 14.0231 31.8624 13.6923 31.4919C13.5455 31.3276 13.1729 31.3145 8.63973 31.3145C3.88056 31.3145 3.74005 31.3201 3.54315 31.5172ZM37.5042 37.4983L36.8961 38.1072L36.0907 37.2961L35.2853 36.4848L35.8879 35.875L36.4905 35.2652L37.3015 36.0773L38.1124 36.8893L37.5042 37.4983ZM3.77751 36.4847C3.33087 36.665 3.20554 37.261 3.54315 37.599C3.74137 37.7975 3.88056 37.8018 10.1076 37.8018C16.1424 37.8018 16.4782 37.7922 16.6371 37.6164C16.809 37.4262 16.8597 36.926 16.7272 36.7273C16.5073 36.3975 16.2171 36.3827 10.1047 36.3891C6.74637 36.3926 3.89919 36.4357 3.77751 36.4847ZM44.4156 41.6784C47.9929 45.2597 48.5918 45.9013 48.5918 46.1527C48.5918 46.3872 48.3962 46.6455 47.6161 47.4405C46.5453 48.5318 46.2618 48.6964 45.8008 48.4944C45.6377 48.4229 43.6935 46.5453 41.4802 44.3219C37.7544 40.5788 37.4562 40.2536 37.4562 39.9327C37.4562 39.6283 37.5828 39.4595 38.4991 38.5419C39.4184 37.6215 39.5834 37.4977 39.8907 37.4977C40.2148 37.4977 40.532 37.7908 44.4156 41.6784Z" fill="#684DF4"/>
</svg>
