<svg width="50" height="50" viewBox="0 0 50 50" fill="none" xmlns="http://www.w3.org/2000/svg">
<path fill-rule="evenodd" clip-rule="evenodd" d="M6.9748 0.134507C5.7487 0.362679 4.43896 0.916897 3.504 1.60308C2.80741 2.11431 1.62009 3.40677 1.22002 4.08924C0.353738 5.56699 0.0462842 6.71781 0.0449165 8.48742C0.0438418 9.9344 0.208462 10.7301 0.760649 11.9477C1.64628 13.9006 3.46883 15.6254 5.45638 16.3918C6.8136 16.9151 7.53177 16.9853 11.5242 16.9853C13.5728 16.9853 15.2255 16.9451 15.3654 16.892C15.8581 16.7047 16.0904 15.983 15.8202 15.4783C15.7521 15.3512 15.4389 15.0997 15.1242 14.9196C14.8097 14.7395 14.5509 14.5441 14.5493 14.4853C14.5476 14.4265 14.6395 14.2946 14.7534 14.1922C15.4149 13.5975 16.2635 12.0732 16.6625 10.763C16.8946 10.0004 16.9241 9.74423 16.9241 8.48742C16.9241 7.23062 16.8946 6.97441 16.6625 6.21185C15.7986 3.37522 13.7758 1.28719 11.0292 0.397159C9.74951 -0.0175758 8.29714 -0.111638 6.9748 0.134507ZM28.4683 0.0479652C23.9537 0.694878 20.4318 3.54059 18.9119 7.7695C18.4292 9.11285 18.3361 9.88322 18.2587 13.1759C18.1793 16.5501 18.1379 16.829 17.5256 18.1113C17.3453 18.4888 16.8722 19.2427 16.4744 19.7865C15.4035 21.2506 15.0337 22.2497 15.0363 23.6722C15.0407 26.0925 16.4728 28.2773 18.6288 29.1534C19.2626 29.4109 19.4374 29.2854 16.94 30.3657C15.919 30.8073 14.8478 31.3021 14.5595 31.4652C13.3277 32.1621 12.2617 33.3198 11.6584 34.6159C10.9888 36.0546 10.9995 35.9495 10.9572 41.5247L10.9189 46.5776L11.165 46.8237C11.4641 47.1226 11.796 47.1375 12.1396 46.8672L12.397 46.6648L12.3987 41.959C12.4006 36.6541 12.4239 36.4186 13.0761 35.0956C13.543 34.1484 14.4508 33.1865 15.3099 32.7287C15.9507 32.3872 20.5723 30.367 20.7127 30.367C20.7657 30.367 20.792 31.2609 20.7764 32.5403L20.7502 34.7136L19.2847 34.7624C17.7029 34.8152 17.4697 34.8808 16.9755 35.4131C16.5551 35.8659 16.4026 36.2664 16.4026 36.9181C16.4026 37.4246 17.3569 46.8359 17.5384 48.1197L17.5972 48.5349H9.03309H0.469022L0.229272 48.7746C-0.0764239 49.0802 -0.0764239 49.4547 0.229272 49.7602L0.469022 50H25H49.531L49.7707 49.7602C50.0764 49.4547 50.0764 49.0802 49.7707 48.7746C49.5795 48.5834 49.4311 48.5349 49.038 48.5349H48.5451V42.7805C48.5451 36.5804 48.5187 36.1848 48.0234 34.9589C47.4679 33.5838 46.3409 32.224 45.1692 31.5153C44.6993 31.231 41.8483 29.9467 40.6412 29.4754C40.423 29.3902 40.4541 29.3608 41.0808 29.0593C42.465 28.3932 43.4915 27.2809 44.0654 25.825C44.3215 25.1754 44.3811 24.8704 44.4193 24.0162C44.4457 23.4214 44.4172 22.7584 44.3514 22.4417C44.1924 21.6754 43.6887 20.6779 43.0268 19.8179C42.7167 19.415 42.2941 18.7302 42.0877 18.2961C41.4246 16.9016 41.3941 16.6993 41.3094 13.1271C41.2673 11.3542 41.1872 9.69666 41.1313 9.44358C40.5801 6.94706 39.6355 5.14249 38.0078 3.4772C36.3617 1.79276 34.4369 0.730432 32.1161 0.225053C31.4271 0.0751193 29.0758 -0.0390647 28.4683 0.0479652ZM9.78116 1.59301C13.5819 2.32002 16.1066 6.00829 15.385 9.7792C15.1133 11.1991 14.5333 12.2868 13.4106 13.4819C12.84 14.0894 12.7878 14.181 12.7878 14.5752C12.7878 14.8626 12.855 15.0909 12.9903 15.2628L13.1928 15.5201H10.5565C7.6323 15.5201 6.91423 15.4349 5.76091 14.9504C4.4629 14.4051 3.18912 13.2958 2.44505 12.0625C2.26421 11.7628 1.9807 11.1325 1.8149 10.6618C1.5391 9.87853 1.51321 9.69852 1.50921 8.53626C1.5055 7.47139 1.54164 7.14828 1.73303 6.53389C2.11796 5.29857 2.5871 4.52009 3.50478 3.59373C5.24243 1.83965 7.42812 1.14292 9.78116 1.59301ZM31.3992 1.59858C31.8828 1.67731 32.595 1.84951 32.9819 1.98138C33.7537 2.24452 35.2582 2.99428 35.2582 3.11579C35.2582 3.2376 34.2188 4.65528 33.5117 5.49813C30.5309 9.05072 25.2703 11.6131 20.9577 11.6131C19.5307 11.6131 19.6528 11.7504 19.826 10.3407C20.527 4.63506 25.7614 0.681105 31.3992 1.59858ZM38.0931 5.8526C39.0259 7.22573 39.6708 9.0727 39.808 10.7638L39.8756 11.5973L39.4167 11.666C38.4396 11.8125 36.5609 11.4949 35.4286 10.9917C35.1469 10.8664 34.6313 10.5793 34.283 10.3534C33.5925 9.90579 33.3046 9.88518 32.9868 10.2605C32.7194 10.5765 32.7694 10.9957 33.1117 11.3082C33.5526 11.7109 34.8866 12.3899 35.8365 12.6952L36.6749 12.9647L36.7014 14.9018L36.7281 16.8388L36.416 17.4537C36.2442 17.7919 35.8806 18.3002 35.6077 18.5834C35.1069 19.103 34.1341 19.8179 33.9278 19.8179C33.8662 19.8179 33.702 19.6686 33.5628 19.486C33.0969 18.8753 32.653 18.7435 31.0641 18.7435C29.7395 18.7435 29.6426 18.7569 29.1939 19.0009C27.7191 19.8035 27.7053 21.8551 29.169 22.7152C29.6284 22.9853 29.6772 22.9924 31.0572 22.9924C32.3311 22.9924 32.5145 22.9707 32.8768 22.7769C33.3234 22.538 33.697 22.1396 33.8759 21.7112C33.9538 21.5247 34.1906 21.3211 34.5766 21.1085C34.8974 20.9319 35.448 20.5693 35.8004 20.3027C36.1527 20.036 36.4641 19.8179 36.4924 19.8179C36.6035 19.8179 36.3952 20.4879 36.0736 21.1652C35.4329 22.5143 34.0789 23.6658 32.5716 24.1432C31.9483 24.3406 31.6926 24.3597 29.6895 24.3576C27.6443 24.3556 27.4471 24.3398 26.8563 24.1298C24.9002 23.4346 23.4911 21.9419 22.9956 20.0405C22.8815 19.6022 22.8507 18.7925 22.8507 16.2341V12.9843L23.0705 12.939C24.5424 12.636 25.0188 12.5146 26.0187 12.1878C29.89 10.9222 33.4728 8.25778 35.8507 4.87622L36.4795 3.98209L37.0793 4.61269C37.4093 4.95954 37.8655 5.51747 38.0931 5.8526ZM5.03599 7.98234C4.81744 8.2237 4.82711 8.80517 5.05299 9.0095C5.2944 9.22801 5.876 9.21834 6.08038 8.99251C6.29893 8.75115 6.28926 8.16968 6.06338 7.96534C5.82197 7.74684 5.24038 7.75651 5.03599 7.98234ZM7.96692 7.98234C7.74837 8.2237 7.75804 8.80517 7.98392 9.0095C8.22533 9.22801 8.80692 9.21834 9.01131 8.99251C9.22985 8.75115 9.22018 8.16968 8.99431 7.96534C8.7529 7.74684 8.1713 7.75651 7.96692 7.98234ZM10.8978 7.98234C10.6793 8.2237 10.689 8.80517 10.9148 9.0095C11.1563 9.22801 11.7378 9.21834 11.9422 8.99251C12.1608 8.75115 12.1511 8.16968 11.9252 7.96534C11.6838 7.74684 11.1022 7.75651 10.8978 7.98234ZM21.4079 16.619C21.4421 20.0126 21.453 20.1862 21.6677 20.7947C22.2205 22.3612 23.3437 23.8483 24.5449 24.6041C25.1944 25.0127 25.2243 25.1673 24.8193 26.0204C24.4593 26.7784 23.8292 27.3513 22.8741 27.7891C22.1219 28.1339 22.1118 28.1356 20.9403 28.1036C19.8096 28.0729 19.7336 28.0572 19.0352 27.7114C17.3369 26.8706 16.4259 25.3273 16.5192 23.4494C16.5709 22.4076 16.8536 21.7237 17.6868 20.6242C18.4267 19.6478 19.0602 18.4204 19.3914 17.3211C19.6203 16.5615 19.6604 16.2292 19.7005 14.7631L19.7465 13.0782H20.5593H21.3721L21.4079 16.619ZM39.8745 14.812C39.9169 16.3226 39.9569 16.659 40.1855 17.4248C40.5493 18.6439 41.006 19.5505 41.7666 20.5639C42.1238 21.04 42.5308 21.6713 42.6708 21.9668C42.9008 22.4523 42.9255 22.6169 42.9264 23.6761C42.9274 24.7563 42.9061 24.894 42.6544 25.4312C41.8035 27.2482 40.4292 28.1204 38.4172 28.1204C37.5669 28.1204 37.4216 28.0909 36.6578 27.7628C35.4088 27.2264 34.5721 26.2956 34.418 25.2714C34.3719 24.9652 34.3988 24.9286 34.8715 24.6529C35.653 24.1971 36.803 22.9334 37.2904 21.9948C38.0488 20.534 38.1128 20.1268 38.1647 16.4278L38.2103 13.184L38.908 13.1505C39.2918 13.1321 39.6553 13.1083 39.7158 13.0977C39.7925 13.0841 39.8406 13.6038 39.8745 14.812ZM32.369 20.362C32.7362 20.729 32.6328 21.3066 32.1685 21.4831C31.8311 21.6114 30.2402 21.6002 29.9491 21.4677C29.7363 21.3707 29.4941 21.0171 29.4941 20.8033C29.4941 20.7593 29.5852 20.6075 29.6966 20.466C29.8949 20.2138 29.9224 20.2086 31.0573 20.2086C31.9796 20.2086 32.2469 20.2399 32.369 20.362ZM27.6867 25.7837C28.6091 25.9194 31.301 25.8848 32.1808 25.7259C32.6106 25.6482 32.9734 25.5838 32.9868 25.5828C33.0002 25.5817 33.0112 25.659 33.0112 25.7545C33.0112 25.85 33.165 26.2491 33.353 26.6413C33.8746 27.7292 34.6038 28.4029 35.9158 29.0087C36.4945 29.2759 37.0339 29.5309 37.1145 29.5751C37.2266 29.6368 37.261 29.8471 37.261 30.4692V31.2826L36.1864 31.554C31.8815 32.6409 27.2468 32.664 23.0705 31.6191L22.2645 31.4174V30.5015C22.2645 29.8816 22.3004 29.5856 22.3757 29.5856C22.4369 29.5856 22.9775 29.348 23.577 29.0576C24.409 28.6547 24.7983 28.3985 25.2215 27.9755C25.7567 27.4403 26.4655 26.2447 26.4655 25.877C26.4655 25.6321 26.5762 25.5628 26.8533 25.634C26.9892 25.6688 27.3643 25.7362 27.6867 25.7837ZM41.4132 31.3889C42.5147 31.8591 43.71 32.397 44.0692 32.5841C45.2687 33.2087 46.2972 34.4328 46.8024 35.8369L47.0308 36.4718L47.0594 42.5033L47.0881 48.5349H44.8857C43.189 48.5349 42.6832 48.5068 42.6831 48.4128C42.6829 48.3456 42.9503 45.7853 43.2771 42.7231C43.604 39.6609 43.8535 36.9274 43.8315 36.6486C43.7826 36.026 43.4312 35.4584 42.8609 35.0808C42.4581 34.8139 42.4362 34.811 40.6147 34.7809L38.7754 34.7506V32.5087V30.2667L39.0929 30.4003C39.2676 30.4738 40.3117 30.9186 41.4132 31.3889ZM37.289 33.7613L37.261 34.7136L29.7628 34.7386L22.2645 34.7636V33.8486V32.9334L23.0216 33.1167C25.5238 33.7222 28.6156 33.9785 31.2337 33.7974C32.9958 33.6755 35.1562 33.3461 36.3818 33.0127C37.3921 32.7377 37.3207 32.6789 37.289 33.7613ZM42.1948 36.4229C42.3022 36.5304 42.3902 36.7436 42.3902 36.8968C42.3902 37.0499 42.1266 39.6542 41.8043 42.6841C41.4821 45.714 41.2183 48.27 41.2181 48.3639C41.2178 48.5257 40.6245 48.5349 30.1291 48.5349C24.0304 48.5349 19.0404 48.5172 19.0404 48.4955C19.0404 48.4739 18.7769 45.9795 18.4548 42.9523C18.1326 39.9252 17.8689 37.2542 17.8686 37.0167C17.8683 36.7513 17.9304 36.5159 18.0298 36.4062C18.1847 36.235 18.6872 36.2276 30.0954 36.2276C41.8691 36.2276 42.0015 36.2297 42.1948 36.4229ZM29.3761 39.6802C27.8207 40.117 26.9777 41.7578 27.5085 43.3153C27.7364 43.9841 28.5043 44.7383 29.1886 44.9655C30.2282 45.3107 31.4876 45.0047 32.1551 44.2446C33.1228 43.1427 33.1341 41.6062 32.1823 40.5477C31.4467 39.7297 30.3773 39.3991 29.3761 39.6802ZM30.822 41.2548C31.3653 41.6107 31.5745 42.3296 31.3018 42.904C30.675 44.2247 28.6733 43.663 28.8369 42.2124C28.9442 41.2611 30.031 40.7367 30.822 41.2548Z" fill="#684DF4"/>
</svg>
