<svg width="46" height="40" viewBox="0 0 46 40" fill="none" xmlns="http://www.w3.org/2000/svg">
<path d="M41.7734 0H3.94089C1.76552 0 0 1.792 0 4V36C0 38.208 1.76552 40 3.94089 40H41.7734C43.9488 40 45.7143 38.208 45.7143 36V4C45.7143 1.792 43.9488 0 41.7734 0ZM1.57635 4C1.57635 2.68 2.64039 1.6 3.94089 1.6H41.7734C43.0739 1.6 44.1379 2.68 44.1379 4V6.4H1.57635V4ZM41.7734 38.4H3.94089C2.64039 38.4 1.57635 37.32 1.57635 36V8H44.1379V36C44.1379 37.32 43.0739 38.4 41.7734 38.4Z" fill="#3E66F3"/>
<path d="M33.1035 11.2C28.7606 11.2 25.2217 14.792 25.2217 19.2C25.2217 23.608 28.7606 27.2 33.1035 27.2C37.4463 27.2 40.9852 23.608 40.9852 19.2C40.9852 14.792 37.4463 11.2 33.1035 11.2ZM39.3537 18.4H33.8916V12.856C36.7369 13.216 38.999 15.512 39.3537 18.4ZM32.3153 12.856V18.872L28.13 23.12C27.3025 22.032 26.798 20.68 26.798 19.2C26.798 15.944 29.2099 13.248 32.3153 12.856ZM33.1035 25.6C31.6453 25.6 30.3133 25.096 29.2414 24.248L33.4266 20H39.3537C38.9675 23.152 36.3113 25.6 33.1035 25.6Z" fill="#3E66F3"/>
<path d="M5.51724 23.2C5.69852 23.2 5.88769 23.136 6.03744 23L11.7911 17.896L14.4236 20.568C14.731 20.88 15.2276 20.88 15.535 20.568L20.4926 15.536V16.808C20.4926 17.248 20.8473 17.608 21.2808 17.608C21.7143 17.608 22.069 17.248 22.069 16.808V13.608C22.069 13.168 21.7143 12.808 21.2808 12.808H18.1281C17.6946 12.808 17.3399 13.168 17.3399 13.608C17.3399 14.048 17.6946 14.408 18.1281 14.408H19.3813L14.9754 18.88L12.3823 16.248C12.0906 15.952 11.6177 15.936 11.3025 16.208L4.99705 21.808C4.66601 22.096 4.63448 22.608 4.92611 22.936C5.08374 23.12 5.29655 23.208 5.51724 23.208V23.2Z" fill="#3E66F3"/>
<path d="M22.8571 33.6H5.51724C5.08374 33.6 4.72906 33.96 4.72906 34.4C4.72906 34.84 5.08374 35.2 5.51724 35.2H22.8571C23.2906 35.2 23.6453 34.84 23.6453 34.4C23.6453 33.96 23.2906 33.6 22.8571 33.6Z" fill="#3E66F3"/>
<path d="M40.197 33.6H26.0099C25.5764 33.6 25.2217 33.96 25.2217 34.4C25.2217 34.84 25.5764 35.2 26.0099 35.2H40.197C40.6305 35.2 40.9852 34.84 40.9852 34.4C40.9852 33.96 40.6305 33.6 40.197 33.6Z" fill="#3E66F3"/>
<path d="M22.069 30.4C22.069 30.84 22.4236 31.2 22.8571 31.2H29.1626C29.5961 31.2 29.9507 30.84 29.9507 30.4C29.9507 29.96 29.5961 29.6 29.1626 29.6H22.8571C22.4236 29.6 22.069 29.96 22.069 30.4Z" fill="#3E66F3"/>
<path d="M5.51724 31.2H19.7044C20.1379 31.2 20.4926 30.84 20.4926 30.4C20.4926 29.96 20.1379 29.6 19.7044 29.6H5.51724C5.08374 29.6 4.72906 29.96 4.72906 30.4C4.72906 30.84 5.08374 31.2 5.51724 31.2Z" fill="#3E66F3"/>
<path d="M40.197 29.6H32.3153C31.8818 29.6 31.5271 29.96 31.5271 30.4C31.5271 30.84 31.8818 31.2 32.3153 31.2H40.197C40.6305 31.2 40.9852 30.84 40.9852 30.4C40.9852 29.96 40.6305 29.6 40.197 29.6Z" fill="#3E66F3"/>
<path d="M5.51724 27.2H22.8571C23.2906 27.2 23.6453 26.84 23.6453 26.4C23.6453 25.96 23.2906 25.6 22.8571 25.6H5.51724C5.08374 25.6 4.72906 25.96 4.72906 26.4C4.72906 26.84 5.08374 27.2 5.51724 27.2Z" fill="#3E66F3"/>
</svg>
