<svg width="42" height="50" viewBox="0 0 42 50" fill="none" xmlns="http://www.w3.org/2000/svg">
<path fill-rule="evenodd" clip-rule="evenodd" d="M4.37091 4.42204L0 8.84399L0.0251982 26.0317L0.0503967 43.2195L0.260673 43.6168C0.376238 43.8354 0.645214 44.1735 0.85829 44.3683C1.62052 45.0649 0.760778 45.0264 15.5579 45.0264H28.8582L28.8879 47.0121L28.9175 48.9979L29.1814 49.3475C29.5083 49.7808 30.1616 50.0545 30.6959 49.982C30.9365 49.9493 31.553 49.6399 32.3764 49.1388C33.0916 48.7034 33.7291 48.3472 33.7931 48.3472C33.8571 48.3472 34.4969 48.7048 35.215 49.1419C36.7204 50.0584 37.0947 50.1586 37.769 49.8256C37.9983 49.7124 38.2945 49.4576 38.4272 49.2593L38.6686 48.8988L38.6952 43.5454L38.7216 38.192L38.9898 38.0517C39.3775 37.8489 40.0563 37.0702 40.2686 36.5846C40.3692 36.3546 40.4946 35.8588 40.5473 35.4828C40.6712 34.5994 40.6949 34.5424 41.2417 33.8172C42.2652 32.46 42.2517 30.7907 41.2066 29.4829C40.7219 28.8764 40.6549 28.7127 40.5506 27.8795C40.3317 26.1331 39.2392 25.0408 37.4889 24.8184C36.7336 24.7225 36.594 24.6616 35.8843 24.1172C35.6102 23.907 35.2123 23.6763 34.9999 23.6044L34.6137 23.4738L34.5654 12.5916L34.5172 1.70944L34.2495 1.24882C34.1023 0.995466 33.8386 0.677645 33.6636 0.542664C32.9258 -0.0267554 33.5728 0.000201668 20.6278 0.000201668H8.74191L4.37091 4.42204ZM32.7396 1.94004C32.9187 2.1639 32.9242 2.47986 32.9242 12.7863V23.4019L32.5955 23.5221C32.4148 23.5882 31.973 23.8618 31.6138 24.13C30.9155 24.6516 30.9036 24.6563 29.8962 24.8115C29.0895 24.9357 28.5681 25.1883 28.0164 25.7223C27.4528 26.2675 27.1505 26.9017 27.0274 27.7973C26.8971 28.7449 26.8528 28.8561 26.3686 29.4479C25.7637 30.1876 25.5595 30.8303 25.6084 31.8408C25.6522 32.7456 25.8319 33.2172 26.4084 33.9408C26.854 34.5001 26.91 34.6398 27.026 35.4835C27.0834 35.901 27.2357 36.4506 27.3659 36.7107C27.5856 37.1491 28.5807 38.1894 28.7805 38.1894C28.8323 38.1894 28.8692 39.269 28.8692 40.7787V43.368L15.4893 43.3425L2.10942 43.3171L1.87636 43.0431L1.6434 42.769V26.3658V9.96261H4.74579C6.8444 9.96261 7.9708 9.92549 8.22713 9.84775C8.72463 9.69694 9.39678 9.08963 9.64857 8.56328C9.84011 8.16312 9.84977 7.98663 9.84977 4.90053V1.65826L21.2024 1.68385L32.5551 1.70944L32.7396 1.94004ZM8.2085 5.37648V7.82274L7.97148 8.06243L7.73455 8.30221H5.29301H2.85157L5.50522 5.61626C6.9647 4.139 8.17007 2.93032 8.18368 2.93032C8.1973 2.93032 8.2085 4.03107 8.2085 5.37648ZM5.26917 14.3822C5.13333 14.5031 4.99556 14.743 4.96283 14.9155C4.91311 15.1776 4.95143 15.2776 5.19685 15.5259L5.49035 15.8228H17.3291H29.1677L29.4046 15.5831C29.803 15.1801 29.6993 14.5509 29.1894 14.276C29.0324 14.1915 25.981 14.1624 17.2473 14.1624H5.51603L5.26917 14.3822ZM5.16731 18.6731C4.87005 19.0305 4.88994 19.4436 5.2206 19.7782C5.41041 19.9702 5.55446 19.9742 13.0625 19.9978C19.0593 20.0165 20.7626 19.9951 20.9496 19.8986C21.4715 19.6295 21.5649 18.9818 21.1432 18.5552C20.9565 18.3663 20.7904 18.3623 13.1892 18.3623H5.42586L5.16731 18.6731ZM24.1998 18.5648C24.0155 18.7114 23.9454 18.8573 23.9454 19.0939C23.9454 19.9702 24.1083 20.0227 26.8296 20.0227H29.0476L29.3445 19.7698C29.7284 19.443 29.7535 18.955 29.4046 18.6021L29.1677 18.3623H26.8109C24.5729 18.3623 24.4414 18.3724 24.1998 18.5648ZM5.44932 22.5996C5.04528 22.7823 4.85914 23.2376 5.02404 23.6402C5.09085 23.8034 5.2236 23.9792 5.31898 24.0309C5.41659 24.0837 6.53217 24.1249 7.86865 24.1249H10.2447L10.4817 23.8851C10.7886 23.5747 10.7901 23.1455 10.4858 22.7873L10.2529 22.5133L7.99976 22.4893C6.25499 22.4707 5.67948 22.4956 5.44932 22.5996ZM13.8081 22.5323C13.2242 22.7528 13.029 23.5101 13.4523 23.9125L13.6758 24.1249H19.7804H25.8851L26.122 23.8851C26.429 23.5747 26.4305 23.1454 26.1261 22.7873L25.8931 22.5133L19.923 22.4954C16.6395 22.4856 13.8878 22.5023 13.8081 22.5323ZM34.3277 25.1029C34.4694 25.1574 34.8376 25.4026 35.146 25.6476C35.7388 26.1189 36.6343 26.469 37.2468 26.469C38.0816 26.469 38.91 27.2535 38.91 28.0442C38.91 28.8735 39.2145 29.6093 39.9853 30.6427C40.2201 30.9575 40.3024 31.1788 40.33 31.5706C40.3687 32.12 40.3406 32.1842 39.5655 33.3188C39.2154 33.8314 38.91 34.7421 38.91 35.2735C38.91 35.8362 38.5517 36.4059 38.0226 36.6843C37.8797 36.7595 37.4498 36.866 37.0674 36.9209C36.2219 37.0422 35.6707 37.2788 35.0279 37.7966C34.0725 38.5661 33.4956 38.5452 32.3929 37.7009C31.7535 37.2114 31.0251 36.9197 30.4416 36.9197C29.818 36.9197 29.0978 36.4849 28.8241 35.943C28.7563 35.8087 28.6711 35.4351 28.6348 35.1128C28.5335 34.211 28.3329 33.7115 27.757 32.9262C27.2841 32.2811 27.228 32.1537 27.228 31.7233C27.228 31.1767 27.2967 31.0128 27.8162 30.3221C28.302 29.6761 28.469 29.2523 28.6271 28.2639C28.8322 26.9822 29.1987 26.6168 30.4367 26.4596C31.2333 26.3584 31.827 26.1072 32.4874 25.5917C33.2322 25.0104 33.7378 24.8761 34.3277 25.1029ZM5.26917 26.8841C5.13333 27.005 4.99556 27.2448 4.96283 27.4173C4.91311 27.6795 4.95143 27.7795 5.19685 28.0278L5.49035 28.3247H7.03392H8.57749L8.82745 28.0242C9.15503 27.6304 9.14518 27.3038 8.7952 26.9498L8.513 26.6643H7.01452C5.598 26.6643 5.50252 26.6763 5.26917 26.8841ZM11.8246 26.9041C11.4849 27.2477 11.4934 27.8448 11.842 28.1222C12.0923 28.3215 12.1792 28.3246 17.3209 28.3216C22.8339 28.3183 22.7219 28.3273 22.9642 27.8672C23.1452 27.5232 23.0955 27.2545 22.7943 26.9498L22.5121 26.6643H17.2868H12.0615L11.8246 26.9041ZM5.16731 31.1749C4.87005 31.5324 4.88994 31.9454 5.2206 32.2801C5.41051 32.4722 5.55668 32.4762 13.4005 32.5031C17.7931 32.5183 21.4858 32.5062 21.6066 32.4763C22.2268 32.3228 22.4404 31.4543 21.9532 31.0666C21.7004 30.8654 21.6476 30.8641 13.5623 30.8641H5.42586L5.16731 31.1749ZM5.44932 35.1049C5.04528 35.2828 4.85865 35.7381 5.02404 36.1421C5.09085 36.3053 5.2236 36.4811 5.31898 36.5327C5.41862 36.5867 6.68085 36.6267 8.28187 36.6267H11.0712L11.2812 36.4007C11.519 36.1444 11.5589 35.6021 11.3595 35.3364C11.1148 35.0106 10.735 34.9663 8.22636 34.9701C6.3723 34.9729 5.67157 35.007 5.44932 35.1049ZM14.5157 35.1087C14.125 35.2806 13.9668 35.5798 14.0445 35.9994C14.1345 36.4844 14.4047 36.6267 15.2359 36.6267C16.0581 36.6267 16.2467 36.549 16.4133 36.1421C16.5834 35.7266 16.3923 35.2806 15.9669 35.1008C15.5644 34.9306 14.9121 34.9342 14.5157 35.1087ZM31.6917 39.2368C33.0692 40.3048 34.5359 40.2818 35.9606 39.1698C36.3698 38.8505 36.8618 38.5801 37.0336 38.5801C37.0567 38.5801 37.0756 40.775 37.0756 43.4576V48.3352L35.7119 47.5131C34.9618 47.061 34.2044 46.6637 34.0286 46.6304C33.5754 46.5444 33.2036 46.6949 31.8288 47.5213C31.1625 47.9218 30.5934 48.2495 30.5639 48.2495C30.5346 48.2495 30.5105 46.0769 30.5105 43.4216V38.5938L30.7917 38.6753C30.9463 38.7202 31.3514 38.9728 31.6917 39.2368Z" fill="#684DF4"/>
</svg>
