<svg width="45" height="45" viewBox="0 0 45 45" fill="none" xmlns="http://www.w3.org/2000/svg">
<path d="M44.6341 27.4807L44.6236 27.4635C44.1434 26.7324 43.4104 26.2041 42.5649 25.9798C41.7195 25.7555 40.821 25.8509 40.0415 26.2478L35.2359 28.7061C34.6607 27.8977 33.8139 27.3231 32.8502 27.0871C31.8865 26.8511 30.87 26.9695 29.9864 27.4207L23.9351 30.5225C23.6192 30.6847 23.2688 30.7683 22.9136 30.7661C22.5585 30.7639 22.2091 30.6759 21.8953 30.5097L17.7706 28.3199C16.2097 27.4866 14.4484 27.1021 12.6822 27.2091C10.916 27.316 9.21394 27.9103 7.76495 28.9258L7.29849 26.7045C7.27818 26.6078 7.23897 26.5161 7.1831 26.4347C7.12724 26.3532 7.05583 26.2835 6.97297 26.2297C6.89012 26.1759 6.79745 26.139 6.70029 26.1212C6.60313 26.1033 6.5034 26.1048 6.40682 26.1256L0.591802 27.3802C0.398207 27.422 0.228991 27.5386 0.121087 27.7047C0.013183 27.8708 -0.0246487 28.0728 0.0158493 28.2666L3.40182 44.4001C3.43634 44.5692 3.52816 44.7212 3.66178 44.8305C3.7954 44.9398 3.96263 44.9997 4.13526 45C4.18817 44.9998 4.24093 44.9943 4.29274 44.9835L10.1108 43.7311C10.3047 43.6895 10.4742 43.5728 10.5823 43.4066C10.6903 43.2403 10.7282 43.038 10.6875 42.8439L10.3875 41.3995L12.3756 40.9721C12.9548 40.8486 13.551 40.8258 14.1379 40.9046L23.4889 41.9298C25.4302 42.1869 27.3985 41.7249 29.0227 40.6309L44.0012 30.5817C44.491 30.25 44.8315 29.7398 44.9498 29.1602C45.0681 28.5807 44.9548 27.9778 44.6341 27.4807ZM4.71496 43.3546L1.63646 28.6896L5.9861 27.7522L9.06685 42.418L4.71496 43.3546ZM43.1665 29.3383L28.1888 39.3875C26.8601 40.2777 25.2516 40.6512 23.6666 40.4374L14.3164 39.4122C13.5639 39.3115 12.7997 39.3419 12.0576 39.5022L10.0763 39.9282L8.09943 30.5225L8.61163 30.1655C9.83485 29.3051 11.2728 28.801 12.7654 28.7091C14.258 28.6172 15.7469 28.9412 17.0664 29.645L21.1911 31.8348C21.718 32.1152 22.305 32.2637 22.9018 32.2678C23.4987 32.2718 24.0876 32.1313 24.6183 31.8581L30.6725 28.7526C31.2776 28.4434 31.9782 28.3782 32.6299 28.5705C33.2815 28.7628 33.8345 29.1979 34.1748 29.786C34.2751 29.9581 34.3034 30.1629 34.2537 30.3558C34.204 30.5487 34.0803 30.7142 33.9093 30.8164L25.5655 35.766C24.1064 36.637 22.3679 36.9123 20.7111 36.5347L13.1848 34.7349L12.836 36.1942L20.3699 37.9941C22.4034 38.4599 24.5383 38.1239 26.3304 37.0559L34.675 32.1063C35.0166 31.9011 35.2976 31.6088 35.4891 31.2594C35.6807 30.9099 35.7761 30.5159 35.7654 30.1175L40.7217 27.5812C41.1706 27.3533 41.6875 27.2983 42.1743 27.4268C42.661 27.5552 43.0836 27.8582 43.3615 28.2779L43.3697 28.2914C43.4777 28.4583 43.5168 28.6606 43.4789 28.8558C43.441 29.0509 43.3291 29.2239 43.1665 29.3383Z" fill="#3E66F3"/>
<path d="M4.85491 29.5335L3.38699 29.8414L3.69463 31.3079L5.16255 30.9999L4.85491 29.5335Z" fill="#3E66F3"/>
<path d="M14.2489 19.4984C14.05 19.4984 13.8593 19.5774 13.7186 19.718C13.578 19.8587 13.499 20.0494 13.499 20.2483V24.7479C13.499 24.9468 13.578 25.1376 13.7186 25.2782C13.8593 25.4189 14.05 25.4979 14.2489 25.4979H17.2487C17.4476 25.4979 17.6383 25.4189 17.779 25.2782C17.9196 25.1376 17.9986 24.9468 17.9986 24.7479V20.2483C17.9986 20.0494 17.9196 19.8587 17.779 19.718C17.6383 19.5774 17.4476 19.4984 17.2487 19.4984H14.2489ZM16.4987 23.998H14.9989V20.9983H16.4987V23.998Z" fill="#3E66F3"/>
<path d="M20.9984 14.2488C20.7995 14.2488 20.6087 14.3278 20.4681 14.4685C20.3274 14.6091 20.2484 14.7999 20.2484 14.9988V24.7479C20.2484 24.9468 20.3274 25.1376 20.4681 25.2782C20.6087 25.4189 20.7995 25.4979 20.9984 25.4979H23.9981C24.197 25.4979 24.3877 25.4189 24.5284 25.2782C24.669 25.1376 24.748 24.9468 24.748 24.7479V14.9988C24.748 14.7999 24.669 14.6091 24.5284 14.4685C24.3877 14.3278 24.197 14.2488 23.9981 14.2488H20.9984ZM23.2482 23.998H21.7483V15.7487H23.2482V23.998Z" fill="#3E66F3"/>
<path d="M27.7478 16.4986C27.5489 16.4986 27.3581 16.5776 27.2175 16.7183C27.0769 16.8589 26.9979 17.0497 26.9979 17.2486V24.7479C26.9979 24.9468 27.0769 25.1376 27.2175 25.2782C27.3581 25.4189 27.5489 25.4979 27.7478 25.4979H30.7475C30.9464 25.4979 31.1372 25.4189 31.2778 25.2782C31.4185 25.1376 31.4975 24.9468 31.4975 24.7479V17.2486C31.4975 17.0497 31.4185 16.8589 31.2778 16.7183C31.1372 16.5776 30.9464 16.4986 30.7475 16.4986H27.7478ZM29.9976 23.998H28.4977V17.9985H29.9976V23.998Z" fill="#3E66F3"/>
<path d="M34.4972 12.7489C34.2983 12.7489 34.1076 12.8279 33.9669 12.9686C33.8263 13.1092 33.7473 13.3 33.7473 13.4989V24.7479C33.7473 24.9468 33.8263 25.1376 33.9669 25.2782C34.1076 25.4189 34.2983 25.4979 34.4972 25.4979H37.497C37.6959 25.4979 37.8866 25.4189 38.0273 25.2782C38.1679 25.1376 38.2469 24.9468 38.2469 24.7479V13.4989C38.2469 13.3 38.1679 13.1092 38.0273 12.9686C37.8866 12.8279 37.6959 12.7489 37.497 12.7489H34.4972ZM36.747 23.998H35.2472V14.2488H36.747V23.998Z" fill="#3E66F3"/>
<path d="M14.2489 7.80985L18.9683 12.5292C19.1089 12.6698 19.2996 12.7488 19.4985 12.7488C19.6973 12.7488 19.8881 12.6698 20.0287 12.5292L28.4977 4.06016L34.717 10.2794C34.8576 10.42 35.0483 10.499 35.2472 10.499C35.446 10.499 35.6367 10.42 35.7774 10.2794L43.4965 2.56029V4.49963H44.9964V0.749938C44.9964 0.551042 44.9174 0.360292 44.7767 0.219652C44.6361 0.079011 44.4453 0 44.2464 0H40.4967V1.49988H42.4361L35.2472 8.68878L29.0279 2.46954C28.8873 2.32895 28.6966 2.24997 28.4977 2.24997C28.2989 2.24997 28.1082 2.32895 27.9675 2.46954L19.4985 10.9386L14.7791 6.21923C14.6385 6.07864 14.4478 5.99966 14.2489 5.99966C14.0501 5.99966 13.8593 6.07864 13.7187 6.21923L3.21958 16.7184L4.27999 17.7788L14.2489 7.80985Z" fill="#3E66F3"/>
</svg>
