<svg width="50" height="50" viewBox="0 0 50 50" fill="none" xmlns="http://www.w3.org/2000/svg">
<path fill-rule="evenodd" clip-rule="evenodd" d="M24.3129 0.148009C23.6744 0.379354 23.3863 0.735211 22.5834 2.28348L21.8436 3.70998L21.289 3.82186C20.9839 3.88346 20.273 4.01291 19.7091 4.10953C18.4637 4.32309 17.9441 4.60033 17.5689 5.25121C17.2373 5.82645 17.1919 6.65718 17.4634 7.17894C17.5577 7.36011 18.1341 8.04372 18.7443 8.69811L19.8538 9.88789L19.6564 11.3816C19.4221 13.1544 19.4251 13.5018 19.6786 14.0198C20.0001 14.6764 20.5801 15.063 21.326 15.1179C21.9394 15.163 22.0367 15.1315 23.4826 14.4206L24.997 13.6759L26.4988 14.4076C27.6859 14.9859 28.1058 15.1393 28.5025 15.1393C29.3153 15.1393 30.1286 14.6047 30.3923 13.897C30.5543 13.4624 30.5401 12.877 30.3285 11.2794L30.1446 9.88975L31.2549 8.6991C31.8656 8.04415 32.4401 7.36143 32.5315 7.1818C32.8026 6.64994 32.7595 5.82096 32.4312 5.25132C32.0397 4.57211 31.551 4.33001 30.0216 4.0576C29.3089 3.93078 28.5974 3.80012 28.4406 3.76751C28.2032 3.7181 28.0314 3.46831 27.4147 2.27568C26.6271 0.752778 26.2353 0.291406 25.5699 0.103541C25.0445 -0.0447968 24.8232 -0.0370011 24.3129 0.148009ZM25.2362 1.93607C25.3251 2.0417 25.6768 2.67172 26.0178 3.336C26.6944 4.65413 27.0364 5.0975 27.5486 5.3205C27.7327 5.40065 28.486 5.56952 29.2225 5.69568C29.959 5.82184 30.6421 5.94964 30.7406 5.97973C31.1828 6.11489 31.0441 6.38323 29.9303 7.54699C29.315 8.18997 28.7315 8.87423 28.6337 9.06747C28.4154 9.49843 28.4112 10.1536 28.6177 11.516C28.8425 12.999 28.8326 13.3825 28.5692 13.3825C28.4535 13.3825 27.7184 13.0614 26.9356 12.6689C25.0462 11.7213 24.9538 11.7213 23.0644 12.6689C22.2816 13.0614 21.5465 13.3825 21.4308 13.3825C21.1674 13.3825 21.1575 12.999 21.3823 11.516C21.5839 10.1859 21.5841 9.62953 21.3833 9.14071C21.2946 8.92507 20.7111 8.21533 20.0865 7.56335C18.9262 6.35227 18.7981 6.08788 19.3153 5.97281C19.4424 5.94448 20.1295 5.81701 20.842 5.68931C21.5546 5.56172 22.2836 5.39373 22.4619 5.316C22.9634 5.0975 23.3093 4.64699 23.9822 3.336C24.5897 2.15249 24.8509 1.74393 25 1.74393C25.041 1.74393 25.1473 1.83045 25.2362 1.93607ZM9.28715 8.25837C9.10896 8.34061 8.45292 8.7764 7.82927 9.22668C7.20572 9.67696 6.6419 10.0782 6.57635 10.1184C6.5108 10.1585 5.74125 9.96573 4.8662 9.68981C3.57365 9.28224 3.18726 9.20154 2.80637 9.25962C1.92516 9.3939 1.20626 10.1189 1.0784 11.0024C1.02613 11.3631 1.11631 11.8122 1.50097 13.106L1.98996 14.7507L1.4973 15.4666C0.00885547 17.6292 0 17.6462 0 18.376C0 18.931 0.0535636 19.1355 0.297084 19.5096C0.791793 20.2698 1.19201 20.4049 3.18434 20.4846L4.90788 20.5536L5.85572 21.824C6.84363 23.148 7.28056 23.541 7.89546 23.6582C8.62635 23.7977 9.43931 23.4568 9.9067 22.815C10.0207 22.6584 10.3459 21.8481 10.6293 21.0142L11.1445 19.4981L12.6356 18.9742C13.4558 18.6861 14.2528 18.3555 14.4068 18.2396C15.038 17.7644 15.3733 16.9378 15.2362 16.1947C15.1208 15.5695 14.7343 15.1253 13.4321 14.1208L12.1826 13.1571L12.1148 11.4048C12.0366 9.386 11.9027 8.97162 11.1685 8.47764C10.6515 8.1298 9.78434 8.02867 9.28715 8.25837ZM39.2705 8.22971C38.789 8.42581 38.3855 8.79056 38.1658 9.22844C37.9822 9.59451 37.9349 9.95761 37.8816 11.4121L37.8178 13.1568L36.5683 14.1206C35.2657 15.1253 34.8792 15.5694 34.7638 16.1947C34.6267 16.9378 34.962 17.7644 35.5932 18.2396C35.7472 18.3555 36.5442 18.6861 37.3644 18.9742L38.8555 19.4981L39.3707 21.0142C39.6541 21.8481 39.9793 22.6584 40.0933 22.815C40.5607 23.4568 41.3736 23.7977 42.1045 23.6582C42.7194 23.541 43.1564 23.148 44.1443 21.824L45.0921 20.5536L46.8157 20.4846C48.808 20.4049 49.2082 20.2698 49.7029 19.5096C49.9464 19.1355 50 18.931 50 18.376C50 17.6462 49.9911 17.6292 48.5027 15.4666L48.01 14.7507L48.4997 13.106C48.8778 11.836 48.9742 11.3622 48.9229 11.0269C48.7825 10.1095 48.041 9.37689 47.1347 9.26028C46.7503 9.21076 46.3364 9.29915 45.0981 9.69508C44.2432 9.96837 43.49 10.159 43.4242 10.1187C43.3583 10.0783 42.7943 9.67686 42.1706 9.22646C41.547 8.77618 40.8803 8.34116 40.6892 8.25991C40.2925 8.09137 39.6443 8.07753 39.2705 8.22971ZM10.3322 10.4194C10.3724 10.6904 10.4087 11.477 10.4132 12.1675C10.4245 13.9398 10.5063 14.0857 12.2139 15.3802C13.2117 16.1366 13.5529 16.4554 13.5299 16.6094C13.5058 16.7711 13.168 16.9318 12.0116 17.3313C9.83553 18.083 9.7527 18.1672 9.01339 20.3797C8.62041 21.5555 8.46242 21.8989 8.30335 21.9234C8.15184 21.9468 7.83834 21.5999 7.09438 20.5854C5.80022 18.8205 5.76717 18.8034 3.527 18.7308C2.49438 18.6973 1.82387 18.6297 1.74676 18.5513C1.59806 18.4001 1.62268 18.3551 2.80389 16.6164C3.61415 15.4239 3.66371 15.3174 3.65918 14.7783C3.65626 14.4199 3.48272 13.6569 3.19503 12.7369C2.58337 10.7807 2.56793 10.7975 4.44061 11.3849C6.82873 12.1341 6.72387 12.1479 8.56371 10.8426C9.31804 10.3074 10.0081 9.88251 10.0972 9.89821C10.1991 9.91621 10.2863 10.1095 10.3322 10.4194ZM41.4467 10.8538C42.7359 11.7721 43.3121 12.0184 43.8746 11.8914C44.0363 11.8549 44.7948 11.6283 45.5605 11.3878C47.4447 10.796 47.4161 10.7599 46.7609 12.9001C46.1089 15.0297 46.1108 15.043 47.3235 16.8063C47.8351 17.5502 48.2578 18.2576 48.2629 18.3784C48.2744 18.6508 47.7447 18.7389 46.0114 18.753C44.3295 18.7667 44.1705 18.8606 42.9056 20.5854C42.1617 21.5999 41.8482 21.9468 41.6967 21.9234C41.5376 21.8989 41.3796 21.5555 40.9866 20.3797C40.2473 18.1672 40.1645 18.083 37.9884 17.3313C36.8291 16.9308 36.4942 16.7714 36.47 16.6086C36.4469 16.4536 36.7757 16.1454 37.746 15.4127C38.4667 14.8684 39.1584 14.2532 39.2879 14.0413C39.494 13.704 39.5311 13.4402 39.5917 11.8838C39.6296 10.9086 39.6963 10.0519 39.74 9.98023C39.8658 9.77315 40.0928 9.88931 41.4467 10.8538ZM23.7041 17.2894C21.0375 17.6031 18.8644 18.3024 16.9125 19.475C12.9211 21.8731 10.2406 25.6438 9.21425 30.3046C8.9973 31.2897 8.96328 31.7424 8.96328 33.6403C8.96328 35.5383 8.9973 35.991 9.21425 36.9761C10.6774 43.6203 15.6324 48.5119 22.1922 49.7878C23.729 50.0868 26.4008 50.0673 27.9944 49.7453C34.4634 48.4388 39.3316 43.5789 40.7857 36.9761C41.0027 35.991 41.0367 35.5383 41.0367 33.6403C41.0367 31.7424 41.0027 31.2897 40.7857 30.3046C39.6731 25.2524 36.5814 21.2139 32.043 18.8845C31.0708 18.3856 29.3364 17.8069 28.0665 17.5577C26.972 17.343 24.5272 17.1925 23.7041 17.2894ZM27.6703 19.2565C30.59 19.823 33.2267 21.2923 35.342 23.5314C37.3251 25.6304 38.5094 27.8993 39.1178 30.7645C39.3863 32.0288 39.3863 35.2518 39.1178 36.5162C37.8586 42.4459 33.4464 46.8714 27.6284 48.0403C26.2307 48.321 23.5597 48.2991 22.1908 47.9955C16.3783 46.7062 12.1186 42.3929 10.8878 36.55C10.7389 35.8433 10.6911 35.1368 10.6911 33.6403C10.6911 32.1439 10.7389 31.4373 10.8878 30.7307C11.2898 28.8221 12.0011 27.0941 13.0335 25.5182C13.7205 24.4693 15.3694 22.6925 16.3449 21.9498C18.3132 20.451 20.8621 19.4078 23.3274 19.0922C24.3492 18.9612 26.5842 19.0458 27.6703 19.2565ZM18.6632 27.5239C17.9145 27.7959 17.3996 28.1666 17.0127 28.7119C16.4504 29.5047 16.3754 30.6387 16.8802 30.7117C17.1779 30.7546 17.4406 30.5574 17.4406 30.291C17.4406 30.1849 17.5943 29.9452 17.7822 29.7584C18.889 28.6582 21.3271 28.9529 21.8753 30.2532C22.0562 30.6821 22.1201 30.7409 22.3733 30.7106C23.0508 30.6294 22.8856 29.3922 22.0774 28.4931C21.1709 27.4847 19.8239 27.1023 18.6632 27.5239ZM29.5829 27.4234C28.964 27.5862 28.1047 28.1446 27.7531 28.6129C27.0996 29.4832 27.0266 30.6386 27.6207 30.71C27.8663 30.7396 27.9394 30.6722 28.1536 30.2189C28.518 29.4475 29.1594 29.1386 30.3973 29.1386C31.2125 29.1386 31.3767 29.174 31.8364 29.4488C32.131 29.6248 32.4045 29.8859 32.4689 30.0527C32.6846 30.6106 32.7461 30.6758 33.0571 30.6758C33.3571 30.6758 33.3706 30.6535 33.4017 30.1058C33.4406 29.4222 33.2039 28.89 32.5956 28.293C31.8506 27.5622 30.5184 27.1776 29.5829 27.4234ZM17.7106 35.3836C17.0672 35.6921 16.7739 35.9957 16.4778 36.6598C16.1284 37.4432 16.1767 38.2065 16.6373 39.1836C17.5895 41.204 19.1657 42.7998 21.14 43.7424C22.4227 44.3549 23.4483 44.5767 25 44.5771C27.7079 44.5779 29.8423 43.6299 31.7639 41.5732C33.4416 39.7775 34.1193 37.8873 33.5459 36.6039C33.3229 36.1049 32.6929 35.4975 32.1658 35.2736C31.877 35.1509 30.5404 35.1228 25.0305 35.1237L18.2505 35.1248L17.7106 35.3836ZM31.7695 37.1181C32.2591 37.5857 32.0153 38.4386 30.9993 39.8129C30.723 40.1865 30.3575 40.6116 30.1868 40.7577L29.8766 41.0231L29.1878 40.3399C26.9228 38.0929 23.0811 38.0868 20.8264 40.3267C20.2017 40.9472 20.1352 40.9855 19.9275 40.8445C19.5684 40.6004 18.6812 39.4068 18.3164 38.6771C17.8959 37.8358 17.8822 37.4132 18.2651 37.107C18.5458 36.8825 18.6375 36.8794 25.0346 36.8794H31.5195L31.7695 37.1181ZM26.1145 40.5571C26.4555 40.6474 26.926 40.8207 27.1603 40.9421C27.6625 41.2027 28.3791 41.8996 28.292 42.0428C28.2585 42.0979 27.8322 42.2774 27.3445 42.4417C26.5578 42.7068 26.2936 42.7407 25 42.7429C23.6813 42.7453 23.4596 42.7163 22.6782 42.4402C22.203 42.2723 21.7741 42.0949 21.7249 42.0461C21.6065 41.928 22.3567 41.194 22.8673 40.9284C23.8606 40.4118 25.0515 40.2756 26.1145 40.5571Z" fill="#684DF4"/>
</svg>
