<svg width="45" height="45" viewBox="0 0 45 45" fill="none" xmlns="http://www.w3.org/2000/svg">
<path d="M7.95462 30.7323C7.95462 30.3802 8.2401 30.0947 8.59227 30.0947H24.0083C24.3605 30.0947 24.646 30.3802 24.646 30.7323C24.646 31.0845 24.3605 31.37 24.0083 31.37H8.59227C8.2401 31.37 7.95462 31.0845 7.95462 30.7323ZM8.59227 26.6426H19.8541C20.2063 26.6426 20.4918 26.3571 20.4918 26.005C20.4918 25.6528 20.2063 25.3673 19.8541 25.3673H8.59227C8.2401 25.3673 7.95462 25.6528 7.95462 26.005C7.95462 26.3571 8.2401 26.6426 8.59227 26.6426ZM34.6924 35.9566V43.5228C34.6924 44.3373 34.0297 44.9999 33.2152 44.9999H23.0521C22.2376 44.9999 21.5749 44.3373 21.5749 43.5228V38.9025C19.883 39.2956 18.1128 39.4951 16.3003 39.4951C15.549 39.4951 14.7938 39.4599 14.0519 39.3905L6.1762 44.8853C6.06662 44.9617 5.939 45 5.81138 45C5.68667 45 5.56205 44.9636 5.45402 44.8904C5.23549 44.7425 5.13055 44.4752 5.19021 44.2182L6.77132 37.407C2.52055 35.3217 0 31.9722 0 28.3687C0 25.8973 1.15142 23.5613 3.32973 21.6133C5.41375 19.7496 8.24967 18.4047 11.5309 17.7241C11.8757 17.6528 12.2133 17.8741 12.2848 18.2189C12.3563 18.5638 12.1348 18.9013 11.79 18.9728C8.77208 19.5988 6.06935 20.8742 4.1799 22.5639C2.2797 24.2632 1.2753 26.2704 1.2753 28.3687C1.2753 31.59 3.7043 34.6184 7.77288 36.4697C8.04926 36.5954 8.19856 36.8986 8.12988 37.1943L6.80784 42.8895L13.5154 38.2097C13.641 38.122 13.7938 38.0828 13.9462 38.0984C14.7204 38.1788 15.5123 38.2196 16.3003 38.2196C18.1192 38.2196 19.8909 38.0077 21.5749 37.5907V35.9565C21.5749 35.1419 22.2376 34.4793 23.0521 34.4793H28.0644C30.1689 32.7409 31.3253 30.5782 31.3253 28.3686C31.3253 26.0076 30.0171 23.7188 27.6417 21.9238C27.3607 21.7115 27.3051 21.3117 27.5173 21.0307C27.7297 20.7497 28.1295 20.6941 28.4105 20.9064C31.1125 22.9482 32.6006 25.5982 32.6006 28.3686C32.6006 30.5542 31.6655 32.6782 29.9378 34.4793H33.2151C34.0297 34.4793 34.6924 35.142 34.6924 35.9566ZM33.4171 35.9566C33.4171 35.8472 33.3246 35.7547 33.2152 35.7547H23.0521C22.9427 35.7547 22.8503 35.8472 22.8503 35.9566V43.5228C22.8503 43.6322 22.9427 43.7246 23.0521 43.7246H33.2152C33.3246 43.7246 33.4171 43.6322 33.4171 43.5228V35.9566ZM30.5906 39.7396C30.5906 39.9674 30.4691 40.1779 30.2718 40.2918L26.6332 42.3925C26.5345 42.4494 26.4244 42.4779 26.3143 42.4779C26.2043 42.4779 26.0942 42.4495 25.9955 42.3925C25.7982 42.2786 25.6767 42.0681 25.6767 41.8403V37.6388C25.6767 37.411 25.7982 37.2005 25.9955 37.0866C26.1928 36.9726 26.4359 36.9726 26.6332 37.0866L30.2718 39.1874C30.4691 39.3013 30.5906 39.5118 30.5906 39.7396ZM28.6777 39.7396L26.952 38.7433V40.7359L28.6777 39.7396ZM40.8384 6.66462C40.9466 6.66462 41.0562 6.63711 41.1567 6.57908L43.6194 5.15731C43.9244 4.98123 44.0289 4.59126 43.8528 4.28628C43.6768 3.9813 43.2869 3.87682 42.9817 4.0529L40.519 5.47468C40.2141 5.65076 40.1096 6.04073 40.2857 6.34571C40.4037 6.55021 40.6181 6.66462 40.8384 6.66462ZM36.7337 3.78773C36.8341 3.84576 36.9437 3.87327 37.0519 3.87327C37.2723 3.87327 37.4866 3.75894 37.6047 3.55435L39.1045 0.956567C39.2806 0.651589 39.1761 0.261621 38.8712 0.0855385C38.5662 -0.0905437 38.1762 0.0139397 38.0001 0.318918L36.5003 2.9167C36.3242 3.22168 36.4287 3.61165 36.7337 3.78773ZM40.725 10.7008C40.725 11.0529 41.0105 11.3384 41.3627 11.3384H44.3623C44.7145 11.3384 45 11.0529 45 10.7008C45 10.3486 44.7145 10.0631 44.3623 10.0631H41.3627C41.0105 10.0631 40.725 10.3486 40.725 10.7008ZM13.71 17.6987C14.049 16.4331 14.8567 15.3777 15.9845 14.7267L19.3198 12.8011C19.4661 12.7165 19.6403 12.6935 19.8036 12.7373C19.8681 12.7546 19.9286 12.782 19.9837 12.8175C23.4114 10.2522 26.1141 7.28241 27.6624 4.37564L27.6038 4.27407C26.8812 3.02264 27.3115 1.41668 28.563 0.694038C29.8146 -0.0284186 31.4205 0.401904 32.143 1.65324L34.745 6.15997C36.1271 5.44498 37.8468 5.93843 38.6328 7.2999C39.4187 8.66128 38.9862 10.3971 37.6761 11.2367L40.2781 15.7435C40.6271 16.3479 40.7192 17.0538 40.5376 17.7316C40.356 18.4092 39.9232 18.9746 39.3188 19.3236C38.917 19.5556 38.4703 19.6741 38.0168 19.6741C37.7882 19.6741 37.5579 19.644 37.3308 19.5831C36.6531 19.4016 36.0877 18.9687 35.7388 18.3644L35.6802 18.2628C32.4176 18.1511 28.5334 18.9911 24.6323 20.648L29.2363 26.8452C29.6958 27.4637 29.6152 28.3177 29.0488 28.8317L28.0359 29.7508C27.7615 29.9997 27.4038 30.1364 27.0368 30.1364C26.9896 30.1364 26.9423 30.1341 26.8951 30.1296C26.4845 30.0899 26.1078 29.8782 25.8617 29.5487L21.0451 23.1035L20.877 23.2005C20.1275 23.6332 19.2939 23.8543 18.4475 23.8543C18.0205 23.8543 17.5903 23.798 17.1659 23.6843C15.9003 23.3453 14.8449 22.5374 14.1939 21.4098C13.5427 20.2821 13.3709 18.9641 13.71 17.6987ZM28.2125 27.6057L23.7203 21.5588L22.1572 22.4613L26.8833 28.7853C26.9245 28.8405 26.979 28.8565 27.0176 28.8602C27.0521 28.8635 27.1187 28.8609 27.1789 28.8063L28.1917 27.8872C28.2713 27.815 28.2801 27.6966 28.2125 27.6057ZM35.3844 7.26747L37.0367 10.1293C37.7381 9.64317 37.9626 8.6897 37.5284 7.93755C37.0941 7.18549 36.1561 6.9031 35.3844 7.26747ZM28.7082 3.63642L36.8432 17.7267C37.0218 18.036 37.3121 18.2578 37.6608 18.3512C38.0094 18.4445 38.3717 18.3977 38.6811 18.2191C38.9905 18.0406 39.2123 17.7502 39.3058 17.4015C39.3991 17.0529 39.3522 16.6906 39.1737 16.3812L31.0386 2.29099C30.7897 1.85984 30.3365 1.61854 29.8712 1.61854C29.6431 1.61854 29.4121 1.67647 29.2007 1.79854C28.8914 1.97708 28.6696 2.26748 28.5762 2.6161C28.4828 2.96471 28.5296 3.32707 28.7082 3.63642ZM20.6831 13.887L23.9533 19.5513C27.7779 17.9036 31.6146 17.0077 34.9389 16.9791L28.4036 5.65923C26.7166 8.52382 24.0223 11.3986 20.6831 13.887ZM15.2982 20.7721C15.7789 21.6047 16.5594 22.2015 17.4958 22.4524C18.4321 22.7033 19.4065 22.5767 20.2392 22.096L23.0222 20.4892L19.4051 14.2242L16.622 15.831C15.7894 16.3117 15.1927 17.0922 14.9417 18.0286C14.6908 18.9651 14.8175 19.9395 15.2982 20.7721ZM3.49825 7.37141C3.49825 5.23583 5.23567 3.49833 7.37135 3.49833C9.50702 3.49833 11.2444 5.23574 11.2444 7.37141C11.2444 9.50699 9.50702 11.2444 7.37135 11.2444C5.23567 11.2444 3.49825 9.50699 3.49825 7.37141ZM4.77355 7.37141C4.77355 8.80384 5.93891 9.9691 7.37135 9.9691C8.80379 9.9691 9.96914 8.80384 9.96914 7.37141C9.96914 5.93898 8.80379 4.77363 7.37135 4.77363C5.93891 4.77363 4.77355 5.93898 4.77355 7.37141ZM0 8.04477V6.69805C0 6.10249 0.484433 5.61806 1.07991 5.61806C1.60734 5.61806 1.81539 5.21488 1.8665 5.09127C1.91769 4.96765 2.05579 4.53542 1.68276 4.16249C1.47881 3.95862 1.3664 3.68744 1.3664 3.39885C1.3664 3.11036 1.47871 2.83909 1.68276 2.63513L2.63496 1.68285C3.05599 1.26173 3.74119 1.26173 4.16232 1.68285C4.53534 2.05587 4.96758 1.91778 5.0911 1.86658C5.21472 1.81539 5.61789 1.60742 5.61789 1.08C5.61789 0.484434 6.10233 2.44854e-06 6.6978 2.44854e-06H8.04452C8.64 2.44854e-06 9.12443 0.484434 9.12443 1.08C9.12443 1.60742 9.52761 1.81539 9.65122 1.86658C9.77475 1.91778 10.2072 2.05569 10.58 1.68285C11.0011 1.26173 11.6862 1.26173 12.1074 1.68285L13.0597 2.63513C13.2636 2.83909 13.3759 3.11027 13.3759 3.39876C13.3759 3.68725 13.2636 3.95853 13.0596 4.16249C12.6866 4.53542 12.8247 4.96765 12.8759 5.09127C12.9271 5.21479 13.1351 5.61806 13.6625 5.61806C14.258 5.61806 14.7424 6.10249 14.7424 6.69805V8.04477C14.7424 8.64024 14.258 9.12467 13.6625 9.12467C13.1351 9.12467 12.927 9.52785 12.8759 9.65146C12.8247 9.77498 12.6866 10.2073 13.0597 10.5802C13.4808 11.0014 13.4808 11.6866 13.0597 12.1076L12.1074 13.0599C11.9035 13.2638 11.6322 13.3762 11.3437 13.3762C11.0552 13.3762 10.784 13.2639 10.58 13.0599C10.2071 12.687 9.77493 12.8249 9.65122 12.8762C9.5277 12.9274 9.12443 13.1354 9.12443 13.6629C9.12443 14.2584 8.64 14.7428 8.04452 14.7428H6.69799C6.10251 14.7428 5.61808 14.2584 5.61808 13.6629C5.61808 13.1343 5.21517 12.9263 5.09174 12.8752C4.96813 12.824 4.53625 12.6861 4.1625 13.06C3.95863 13.2639 3.68736 13.3763 3.39887 13.3763C3.11037 13.3763 2.83901 13.264 2.63514 13.06L1.68295 12.1078C1.47899 11.9039 1.36658 11.6326 1.36658 11.3441C1.36658 11.0556 1.4789 10.7843 1.68295 10.5803C2.05588 10.2074 1.91778 9.77517 1.86659 9.65164C1.81539 9.52803 1.60743 9.12485 1.08 9.12485C0.484433 9.12467 0 8.64024 0 8.04477ZM1.2753 7.85785C2.06699 7.9268 2.73434 8.41378 3.04479 9.16348C3.35532 9.91317 3.22779 10.7295 2.71667 11.338L3.4047 12.0261C4.01374 11.5144 4.83021 11.3866 5.57964 11.6969C6.32915 12.0074 6.81595 12.6751 6.88482 13.4676H7.85769C7.92665 12.6759 8.41363 12.0086 9.16333 11.698C9.91294 11.3877 10.7292 11.515 11.3379 12.0261L12.0259 11.338C11.5148 10.7295 11.3874 9.91317 11.6978 9.16348C12.0083 8.41387 12.6756 7.9268 13.4673 7.85785V6.88497C12.6756 6.81602 12.0083 6.32904 11.6978 5.57934C11.3874 4.82965 11.5148 4.01346 12.0258 3.40478L11.3378 2.71675C10.729 3.22778 9.91284 3.35522 9.16324 3.04478C8.41363 2.73424 7.92665 2.06699 7.85769 1.2753H6.88482C6.81586 2.06699 6.32888 2.73433 5.57927 3.04478C4.82958 3.35531 4.01329 3.22778 3.4047 2.71666L2.71667 3.40468C3.2277 4.01346 3.35523 4.82965 3.0447 5.57925C2.73434 6.32904 2.06699 6.81602 1.2753 6.88497V7.85785ZM44.9499 24.8111C44.7248 26.6993 43.8169 28.4955 43.2956 29.3982C42.7744 30.3008 41.6729 31.9852 40.1503 33.1242C39.1631 33.8627 38.169 34.2342 37.2058 34.2342C36.5332 34.2342 35.8755 34.0531 35.2456 33.6894L35.0166 33.5571C34.6392 33.3393 34.3693 32.9871 34.2562 32.565C34.1432 32.1431 34.2008 31.703 34.4186 31.3258L35.3342 29.74C35.7845 28.9599 36.7855 28.6918 37.5655 29.142L38.1026 29.4521C38.2548 29.5401 38.435 29.5103 38.5511 29.3781C39.0518 28.8072 39.513 28.1586 39.9219 27.4503C40.3308 26.7421 40.662 26.0183 40.906 25.2993C40.9625 25.1328 40.8982 24.9618 40.7459 24.8739L40.2089 24.5639C39.8316 24.3461 39.5616 23.9937 39.4485 23.5718C39.3355 23.1499 39.3931 22.7097 39.6109 22.3325L40.5265 20.7466C40.9767 19.9667 41.9777 19.6985 42.7578 20.1487L42.9869 20.281C44.519 21.1655 45.1978 22.7319 44.9499 24.8111ZM42.3493 21.3854L42.1203 21.2531C41.9493 21.1544 41.7297 21.2132 41.631 21.3842L40.7154 22.97C40.668 23.0523 40.6555 23.1487 40.6805 23.2416C40.7053 23.3345 40.7644 23.4118 40.8466 23.4593L41.3837 23.7693C42.0672 24.164 42.3674 24.9616 42.1137 25.709C41.8429 26.507 41.4771 27.3073 41.0264 28.0879C40.5759 28.8683 40.0656 29.5853 39.5099 30.219C38.9894 30.8126 38.1486 30.9512 37.465 30.5566L36.928 30.2466C36.8718 30.2142 36.8103 30.1987 36.7495 30.1987C36.6256 30.1987 36.5049 30.2629 36.4386 30.3777L35.523 31.9635C35.4756 32.0458 35.4631 32.1422 35.4881 32.2351C35.5129 32.328 35.5719 32.4053 35.6542 32.4528L35.8832 32.5851C36.9691 33.212 38.115 33.0543 39.3864 32.1031C40.7766 31.0631 41.811 29.4191 42.1913 28.7605C42.5715 28.102 43.4781 26.3841 43.6836 24.6602C43.8715 23.0835 43.4351 22.0123 42.3493 21.3854Z" fill="#3E66F3"/>
</svg>
