<?xml version="1.0" standalone="no"?>
<!DOCTYPE svg PUBLIC "-//W3C//DTD SVG 20010904//EN"
 "http://www.w3.org/TR/2001/REC-SVG-20010904/DTD/svg10.dtd">
<svg version="1.0" xmlns="http://www.w3.org/2000/svg"
 width="512.000000pt" height="512.000000pt" viewBox="0 0 600.000000 900.000000"
 preserveAspectRatio="xMidYMid meet">

<g transform="translate(0.000000,650.000000) scale(0.100000,-0.100000)"
fill="#684DF4" stroke="none">
<path d="M2449 5102 c-59 -20 -129 -64 -166 -103 -11 -13 -250 -382 -529 -819
-371 -581 -513 -811 -527 -855 -53 -166 38 -367 201 -443 l57 -27 1075 0 1075
0 57 27 c76 35 142 104 181 186 28 60 32 76 31 152 0 51 -7 101 -16 126 -9 23
-244 398 -522 835 -546 857 -555 868 -665 910 -78 30 -181 34 -252 11z m207
-156 c28 -13 63 -39 76 -57 58 -77 1003 -1567 1015 -1599 35 -99 -10 -211
-106 -264 l-49 -26 -1031 0 c-994 0 -1033 1 -1069 19 -104 53 -155 166 -120
266 12 34 949 1514 1014 1601 32 44 116 84 173 84 27 0 67 -10 97 -24z"/>
<path d="M2485 4680 c-45 -14 -101 -65 -124 -113 -20 -41 -21 -60 -21 -336 0
-331 1 -336 81 -404 109 -94 272 -58 340 75 19 37 20 57 17 342 l-3 303 -28
41 c-41 63 -94 94 -169 98 -35 2 -76 -1 -93 -6z m125 -160 c19 -19 20 -33 20
-289 l0 -270 -26 -20 c-15 -12 -34 -21 -44 -21 -10 0 -29 9 -44 21 l-26 20 0
270 c0 256 1 270 20 289 11 11 33 20 50 20 17 0 39 -9 50 -20z"/>
<path d="M2465 3573 c-81 -42 -125 -113 -125 -200 1 -131 91 -223 220 -223
129 0 219 92 220 223 0 87 -43 157 -122 198 -47 24 -150 25 -193 2z m147 -150
c23 -20 24 -80 1 -105 -20 -23 -80 -24 -105 -1 -23 20 -24 80 -1 105 20 23 80
24 105 1z"/>
<path d="M44 2678 c-12 -5 -27 -21 -33 -34 -8 -18 -11 -384 -11 -1300 0 -1358
-1 -1320 45 -1338 9 -3 911 -6 2004 -6 2165 0 2020 -4 2035 55 7 29 -15 79
-39 89 -9 3 -889 6 -1956 6 l-1939 0 0 75 0 74 643 3 642 3 57 27 c37 17 89
57 145 111 48 46 98 87 110 91 32 10 58 -6 149 -95 53 -51 102 -89 140 -106
l59 -28 470 0 470 0 59 28 c40 18 87 55 148 114 120 118 126 118 246 0 61 -59
108 -96 148 -114 l59 -28 638 -3 637 -3 0 -74 0 -75 -339 0 c-327 0 -339 -1
-365 -21 -36 -28 -36 -80 0 -108 26 -20 37 -21 410 -21 210 0 390 3 399 6 46
18 45 -20 45 1338 0 913 -3 1282 -11 1299 -6 14 -22 30 -36 36 -35 16 -3962
16 -3997 0 -51 -23 -55 -103 -7 -128 14 -8 612 -11 1960 -11 l1941 0 0 -75 0
-75 -1432 -2 -1433 -3 -59 -24 c-45 -18 -82 -46 -157 -117 -73 -70 -104 -94
-124 -94 -20 0 -49 22 -113 83 -173 165 -128 157 -889 157 l-613 0 0 75 0 75
343 0 344 0 21 23 c31 33 29 80 -4 106 -26 20 -37 21 -408 20 -241 0 -389 -4
-402 -11z m1395 -462 c19 -10 76 -57 126 -105 71 -68 101 -90 138 -100 95 -27
168 2 272 109 39 39 88 81 110 93 l40 22 1423 3 1422 2 0 -895 0 -895 -606 0
c-448 0 -617 3 -648 12 -29 9 -67 37 -131 99 -110 105 -141 122 -220 122 -79
0 -110 -17 -220 -122 -64 -62 -102 -90 -131 -99 -54 -16 -841 -17 -897 -1 -27
7 -67 37 -131 98 -112 108 -142 124 -221 125 -78 0 -110 -17 -211 -115 -132
-128 -68 -119 -786 -119 l-618 0 0 895 0 896 628 -3 c590 -3 629 -4 661 -22z"/>
<path d="M2516 2069 c-52 -41 -23 -129 44 -129 67 0 96 88 44 129 -15 12 -34
21 -44 21 -10 0 -29 -9 -44 -21z"/>
<path d="M4396 2069 c-34 -27 -36 -77 -3 -107 62 -58 152 11 113 87 -24 46
-67 54 -110 20z"/>
<path d="M4096 1919 c-36 -28 -36 -80 0 -108 54 -42 118 -13 118 54 0 67 -64
96 -118 54z"/>
<path d="M329 1621 l-24 -19 0 -257 0 -257 24 -19 c22 -18 47 -19 630 -19
l608 0 21 23 c21 23 22 30 22 274 l0 252 -26 20 c-26 21 -35 21 -629 21 -579
0 -604 -1 -626 -19z m1131 -276 l0 -145 -505 0 -505 0 0 145 0 145 505 0 505
0 0 -145z"/>
<path d="M1938 1626 c-32 -24 -38 -65 -38 -280 0 -220 7 -268 40 -286 25 -13
1215 -13 1240 0 33 18 40 66 40 286 0 215 -6 256 -38 280 -25 19 -1219 19
-1244 0z m1132 -281 l0 -145 -510 0 -510 0 0 145 0 145 510 0 510 0 0 -145z"/>
<path d="M3536 1619 l-26 -20 0 -254 c0 -249 0 -255 22 -275 21 -20 32 -20
629 -20 582 0 608 1 630 19 24 19 24 21 27 252 2 128 0 244 -3 256 -3 13 -14
32 -25 43 -19 19 -36 20 -624 20 -595 0 -604 0 -630 -21z m1134 -274 l0 -145
-505 0 -505 0 0 145 0 145 505 0 505 0 0 -145z"/>
<path d="M344 890 c-48 -19 -52 -105 -5 -129 78 -42 154 64 85 118 -28 22 -46
25 -80 11z"/>
<path d="M629 731 c-51 -41 -17 -131 50 -131 65 0 95 89 45 129 -33 26 -65 27
-95 2z"/>
</g>
</svg>
