<svg width="60" height="60" viewBox="0 0 60 60" fill="none" xmlns="http://www.w3.org/2000/svg">
<g clip-path="url(#clip0_59_432)">
<path d="M37.2959 11.0322C30.055 3.79146 18.2732 3.79122 11.0322 11.0322C3.79134 18.2732 3.79134 30.055 11.0322 37.2959C14.6527 40.9164 19.4084 42.7265 24.164 42.7265C28.9197 42.7265 33.6754 40.9163 37.2958 37.2959C44.5368 30.0551 44.5368 18.2733 37.2959 11.0322ZM35.6636 35.6637C29.3227 42.0046 19.0052 42.0046 12.6644 35.6637C6.32364 29.3228 6.32352 19.0053 12.6644 12.6645C15.8349 9.49403 19.9994 7.90883 24.1641 7.90883C28.3288 7.90883 32.4933 9.49403 35.6638 12.6645C42.0046 19.0054 42.0046 29.3229 35.6636 35.6637Z" fill="#3E66F3"/>
<path d="M33.3911 14.9375L33.3707 14.9171C32.92 14.4664 32.1892 14.4664 31.7384 14.9171C31.2877 15.3678 31.2877 16.0986 31.7384 16.5494L31.7589 16.5698C31.9843 16.7952 32.2797 16.9079 32.575 16.9079C32.8703 16.9079 33.1658 16.7953 33.3911 16.5698C33.8417 16.1191 33.8417 15.3883 33.3911 14.9375Z" fill="#3E66F3"/>
<path d="M29.7132 12.3509C24.7524 10.0209 18.8147 11.0606 14.9376 14.9375C14.4869 15.3882 14.4869 16.119 14.9376 16.5698C15.163 16.7952 15.4584 16.9079 15.7537 16.9079C16.049 16.9079 16.3445 16.7953 16.5698 16.5698C19.7612 13.3785 24.6488 12.5226 28.7319 14.4402C29.3088 14.7114 29.9962 14.4632 30.2671 13.8862C30.5383 13.3092 30.2901 12.6218 29.7132 12.3509Z" fill="#3E66F3"/>
<path d="M58.0306 48.5056L49.1513 39.6263C48.7006 39.1756 47.9698 39.1756 47.519 39.6263L44.3888 42.7565L42.0548 40.4225C50.6757 30.9466 50.4108 16.2217 41.2586 7.06947C31.8325 -2.35649 16.4954 -2.35649 7.06947 7.06947C-2.35649 16.4954 -2.35649 31.8327 7.06947 41.2586C11.7826 45.9717 17.9734 48.3281 24.1642 48.3281C29.9955 48.3281 35.8263 46.2365 40.4227 42.0548L42.7567 44.3888L39.6266 47.519C39.1759 47.9697 39.1759 48.7005 39.6266 49.1513L48.5058 58.0306C49.8188 59.3436 51.5436 59.9999 53.2682 59.9999C54.993 59.9999 56.7176 59.3434 58.0307 58.0306C60.6566 55.4044 60.6566 51.1317 58.0306 48.5056ZM39.6266 39.6264C31.1007 48.1525 17.228 48.1525 8.70189 39.6264C0.17581 31.1005 0.17581 17.2277 8.70189 8.70177C12.9649 4.43873 18.5646 2.30721 24.1643 2.30721C29.764 2.30721 35.3636 4.43861 39.6267 8.70177C48.1526 17.2277 48.1526 31.1005 39.6266 39.6264ZM56.3984 56.3983C54.6725 58.1243 51.864 58.1245 50.138 56.3983L42.0748 48.3352L48.3353 42.0747L56.3984 50.1379C58.1245 51.8638 58.1245 54.6723 56.3984 56.3983Z" fill="#3E66F3"/>
</g>
<defs>
<clipPath id="clip0_59_432">
<rect width="60" height="60" fill="white"/>
</clipPath>
</defs>
</svg>
