<svg width="76" height="58" viewBox="0 0 76 58" fill="none" xmlns="http://www.w3.org/2000/svg">
<path fill-rule="evenodd" clip-rule="evenodd" d="M29.5532 11.2665C27.6275 10.7959 25.6038 10.5455 23.5161 10.5455C10.5039 10.5455 0 20.2789 0 32.1861C0 38.0941 2.62074 43.7307 7.23644 47.8039L7.24688 47.8144C7.58133 48.1018 7.74726 48.5408 7.68716 48.9797C7.68586 48.9837 7.68585 48.9863 7.68585 48.9889C7.35662 51.5225 6.67467 56.5013 6.67467 56.5013C6.60412 57.018 6.84188 57.5268 7.28085 57.8023C7.71851 58.0765 8.27635 58.0646 8.70356 57.772L15.5729 53.0608C15.8943 52.8407 16.294 52.7761 16.6664 52.8829C16.669 52.8842 16.6716 52.8842 16.6729 52.8855C18.8874 53.5103 21.1946 53.8267 23.5161 53.8267C31.5652 53.8267 38.6657 50.0962 42.8973 44.4412C45.4214 45.2387 48.131 45.6711 50.9516 45.6711C53.426 45.6711 55.8848 45.331 58.2429 44.66C58.2455 44.66 58.2481 44.6587 58.2508 44.6587C58.6244 44.5493 59.0255 44.6139 59.3469 44.834L66.6787 49.8629C67.1059 50.1555 67.6638 50.1674 68.1014 49.8932C68.5404 49.6177 68.7781 49.1089 68.7076 48.5922C68.7076 48.5922 67.9694 43.2127 67.6232 40.5565V40.5486C67.5618 40.107 67.7291 39.6667 68.0648 39.378C68.0687 39.3754 68.0727 39.3728 68.0766 39.3688C72.9849 35.0663 75.7742 29.0963 75.7742 22.8362C75.7742 10.27 64.685 0 50.9516 0C41.8247 0 33.8645 4.53586 29.5532 11.2665ZM28.2167 13.6656C26.7052 13.3492 25.1322 13.1818 23.5161 13.1818C12.0128 13.1818 2.6129 21.6604 2.6129 32.1861C2.6129 37.3467 4.92401 42.2583 8.95311 45.8174C9.95908 46.6887 10.4568 48.0161 10.2765 49.3317C10.1159 50.5681 9.87155 52.3859 9.66383 53.9255L14.1058 50.8792C15.066 50.2214 16.2666 50.0263 17.3771 50.3467C19.3642 50.9069 21.4336 51.1903 23.5161 51.1903C30.3933 51.1903 36.5075 48.1651 40.3249 43.4763C31.9244 39.8038 26.129 31.9198 26.129 22.8362C26.129 19.579 26.8737 16.476 28.2167 13.6656ZM28.7419 22.8362C28.7419 11.6501 38.7271 2.63637 50.9516 2.63637C63.1761 2.63637 73.1613 11.6501 73.1613 22.8362C73.1613 28.3462 70.6843 33.5899 66.3651 37.3771C65.3539 38.2484 64.8522 39.5798 65.0338 40.9098C65.2102 42.2557 65.4885 44.3173 65.7184 46.0164L60.814 42.6524C59.8512 41.9933 58.6466 41.7996 57.527 42.1252C55.4053 42.7289 53.1856 43.0347 50.9516 43.0347C38.7271 43.0347 28.7419 34.021 28.7419 22.8362ZM26.129 39.5455H14.371C13.6498 39.5455 13.0645 40.136 13.0645 40.8637C13.0645 41.5913 13.6498 42.1818 14.371 42.1818H26.129C26.8502 42.1818 27.4355 41.5913 27.4355 40.8637C27.4355 40.136 26.8502 39.5455 26.129 39.5455ZM23.5161 31.6364H14.371C13.6498 31.6364 13.0645 32.2269 13.0645 32.9546C13.0645 33.6822 13.6498 34.2727 14.371 34.2727H23.5161C24.2373 34.2727 24.8226 33.6822 24.8226 32.9546C24.8226 32.2269 24.2373 31.6364 23.5161 31.6364ZM61.4032 19.7727C59.2397 19.7727 57.4839 21.5444 57.4839 23.7273C57.4839 25.9102 59.2397 27.6818 61.4032 27.6818C63.5667 27.6818 65.3226 25.9102 65.3226 23.7273C65.3226 21.5444 63.5667 19.7727 61.4032 19.7727ZM50.9516 19.7727C48.7881 19.7727 47.0323 21.5444 47.0323 23.7273C47.0323 25.9102 48.7881 27.6818 50.9516 27.6818C53.1151 27.6818 54.871 25.9102 54.871 23.7273C54.871 21.5444 53.1151 19.7727 50.9516 19.7727ZM40.5 19.7727C38.3365 19.7727 36.5806 21.5444 36.5806 23.7273C36.5806 25.9102 38.3365 27.6818 40.5 27.6818C42.6635 27.6818 44.4194 25.9102 44.4194 23.7273C44.4194 21.5444 42.6635 19.7727 40.5 19.7727ZM22.2097 23.7273H14.371C13.6498 23.7273 13.0645 24.3178 13.0645 25.0455C13.0645 25.7731 13.6498 26.3637 14.371 26.3637H22.2097C22.9308 26.3637 23.5161 25.7731 23.5161 25.0455C23.5161 24.3178 22.9308 23.7273 22.2097 23.7273ZM61.4032 22.4091C62.1244 22.4091 62.7097 22.9997 62.7097 23.7273C62.7097 24.4549 62.1244 25.0455 61.4032 25.0455C60.6821 25.0455 60.0968 24.4549 60.0968 23.7273C60.0968 22.9997 60.6821 22.4091 61.4032 22.4091ZM50.9516 22.4091C51.6728 22.4091 52.2581 22.9997 52.2581 23.7273C52.2581 24.4549 51.6728 25.0455 50.9516 25.0455C50.2304 25.0455 49.6452 24.4549 49.6452 23.7273C49.6452 22.9997 50.2304 22.4091 50.9516 22.4091ZM40.5 22.4091C41.2212 22.4091 41.8064 22.9997 41.8064 23.7273C41.8064 24.4549 41.2212 25.0455 40.5 25.0455C39.7788 25.0455 39.1935 24.4549 39.1935 23.7273C39.1935 22.9997 39.7788 22.4091 40.5 22.4091Z" fill="#3E66F3"/>
</svg>
