<svg width="61" height="59" viewBox="0 0 61 59" fill="none" xmlns="http://www.w3.org/2000/svg">
<path d="M57.8989 40.1439C59.3771 38.666 60.1278 36.8018 60.07 34.753L59.5105 15.0051C59.4574 13.1294 57.5735 11.4507 55.5487 11.483C54.5705 11.4987 51.3811 12.0331 51.4047 18.251L51.4455 28.9785C51.4471 29.3796 51.4068 29.7623 51.3227 30.1315C51.1842 29.925 51.0206 29.7265 50.8321 29.5379C49.4821 28.1879 47.2688 28.1729 45.7934 29.5035C45.761 29.5327 45.7306 29.5641 45.7025 29.5974C43.9622 31.6549 41.8293 33.4524 40.1156 34.8967C39.5179 35.4004 38.9533 35.8762 38.4912 36.2928C36.5953 38.0015 36.3422 40.3742 36.3447 42.4699L36.3543 50.2911L35.182 50.281C35.1751 50.281 35.1682 50.281 35.1614 50.281C34.5472 50.281 33.9676 50.5186 33.5272 50.9515C33.0819 51.3892 32.8337 51.9727 32.8284 52.5946L32.8027 55.583C32.7974 56.2048 33.0355 56.7924 33.4732 57.2378C33.9109 57.6832 34.4944 57.9314 35.1162 57.9367L50.6403 58.0702H50.6606C51.9382 58.0702 52.9831 57.0365 52.994 55.7565L53.0197 52.768C53.025 52.1462 52.7869 51.5585 52.3492 51.1132C51.9114 50.6679 51.3279 50.4196 50.7061 50.4142L49.2507 50.4018V48.7923L57.8989 40.1439ZM51.0818 52.7513L51.0561 55.7398C51.0543 55.9533 50.8732 56.1323 50.6601 56.1322C50.659 56.1322 50.6579 56.1322 50.6568 56.1322L35.1327 55.9987C34.9922 55.9975 34.8985 55.9234 34.8551 55.8793C34.8117 55.8352 34.7392 55.7403 34.7404 55.5994L34.7661 52.611C34.7673 52.4704 34.8415 52.3767 34.8856 52.3333C34.9293 52.2904 35.0231 52.2187 35.1618 52.2187H35.1653L50.6894 52.3521C50.9039 52.3539 51.0836 52.5368 51.0818 52.7513ZM38.2922 50.3077L38.2827 42.4675C38.2805 40.7149 38.4616 38.9282 39.7887 37.7321C40.2269 37.337 40.7542 36.8928 41.3645 36.3783C43.1191 34.8996 45.299 33.0625 47.1353 30.9038C47.8532 30.2921 48.8441 30.2905 49.4619 30.908C50.2741 31.7202 49.9292 32.598 49.4836 33.2019C48.5626 34.2382 47.5966 35.1734 46.5742 36.1629C46.0871 36.6344 45.5833 37.1219 45.0757 37.6295C44.6973 38.0079 44.6973 38.6213 45.0757 38.9997C45.2649 39.1889 45.5128 39.2835 45.7608 39.2835C46.0089 39.2835 46.2568 39.1889 46.446 38.9996C46.9423 38.5032 47.4402 38.0213 47.9218 37.5553C48.9811 36.5301 49.9816 35.562 50.9595 34.4588C50.9638 34.454 50.9807 34.4342 50.9848 34.429L51.7238 33.5241C52.8468 32.1415 53.3897 30.6522 53.3835 28.971L53.3427 18.2435C53.3313 15.246 54.1677 13.443 55.5799 13.4204C55.5888 13.4203 55.5976 13.4202 55.6066 13.4202C56.5625 13.4202 57.5505 14.24 57.5736 15.0599L58.1332 34.8076C58.1762 36.3318 57.6365 37.6661 56.5289 38.7733L47.5966 47.7056C47.4149 47.8874 47.3128 48.1337 47.3128 48.3908V50.3849L38.2922 50.3077ZM36.0509 53.7809C36.2403 53.3043 36.7802 53.0716 37.2568 53.2611C37.7334 53.4505 37.9661 53.9904 37.7767 54.467C37.5872 54.9436 37.0473 55.1763 36.5707 54.9868C36.0941 54.7974 35.8615 54.2575 36.0509 53.7809ZM26.546 50.9515C26.1006 50.5138 25.5144 50.278 24.891 50.281L23.7189 50.2911L23.7285 42.4699C23.731 40.3742 23.478 38.0015 21.582 36.2928C21.1199 35.8762 20.5552 35.4004 19.9575 34.8967C18.2439 33.4524 16.111 31.6549 14.3707 29.5974C14.3426 29.5641 14.3122 29.5327 14.2797 29.5035C12.8042 28.1732 10.5909 28.1881 9.24098 29.538C9.05252 29.7265 8.88889 29.925 8.75046 30.1315C8.66652 29.7622 8.62619 29.3797 8.62765 28.9785L8.66858 18.251C8.69208 12.0331 5.50262 11.4987 4.52449 11.483C4.50523 11.4826 4.48622 11.4825 4.46696 11.4825C2.46843 11.4825 0.615243 13.1472 0.562679 15.0051L0.00312471 34.7531C-0.0548897 36.8018 0.695906 38.666 2.17412 40.1439L10.8226 48.7923V50.4019L9.3673 50.4144C8.74537 50.4197 8.16183 50.6678 7.72412 51.1133C7.28641 51.5587 7.0483 52.1464 7.05363 52.7681L7.07918 55.7565C7.0902 57.0366 8.13495 58.0703 9.41272 58.0703H9.43294L24.9567 57.9368C25.5786 57.9315 26.1622 57.6833 26.5999 57.2379C27.0376 56.7925 27.2758 56.2049 27.2704 55.5831L27.2447 52.5946C27.2395 51.9727 26.9913 51.3892 26.546 50.9515ZM12.7606 48.391C12.7606 48.134 12.6585 47.8876 12.4768 47.7058L3.54454 38.7736C2.43694 37.6662 1.89725 36.3321 1.94037 34.808L2.49992 15.0601C2.52306 14.24 3.511 13.4204 4.46696 13.4204C4.4758 13.4204 4.48477 13.4206 4.49361 13.4207C5.90581 13.4433 6.74224 15.2463 6.73085 18.2438L6.68992 28.9713C6.68374 30.6527 7.22658 32.1419 8.35114 33.5261L9.08849 34.429C9.09249 34.4339 9.10932 34.4537 9.1138 34.4589C10.0917 35.5621 11.0921 36.5304 12.1515 37.5554C12.6331 38.0214 13.131 38.5034 13.6273 38.9997C13.8165 39.1889 14.0644 39.2836 14.3124 39.2836C14.5604 39.2836 14.8084 39.189 14.9976 38.9998C15.376 38.6214 15.3761 38.008 14.9976 37.6296C14.49 37.122 13.9862 36.6344 13.499 36.163C12.4766 35.1735 11.5106 34.2383 10.5897 33.202C10.1441 32.5981 9.7992 31.7204 10.6114 30.9082C11.2292 30.2905 12.2202 30.2922 12.9381 30.904C14.7744 33.0626 16.9543 34.8997 18.7089 36.3784C19.3194 36.8929 19.8466 37.3371 20.2848 37.7322C21.612 38.9284 21.7929 40.7151 21.7909 42.4676L21.7813 50.3078L12.7608 50.3853L12.7606 48.391ZM25.2181 55.8795C25.1747 55.9235 25.081 55.9978 24.9403 55.9989L9.41659 56.1323C9.4155 56.1323 9.41441 56.1323 9.41332 56.1323C9.20004 56.1323 9.01897 55.9533 9.01715 55.7399L8.9916 52.7514C8.99039 52.6108 9.06293 52.5158 9.10629 52.4716C9.14965 52.4274 9.2434 52.3533 9.38401 52.3522L24.9079 52.2189C25.045 52.2127 25.1435 52.2901 25.1875 52.3334C25.2316 52.3768 25.3059 52.4707 25.3071 52.6111L25.3328 55.5996C25.334 55.7403 25.2614 55.8352 25.2181 55.8795ZM24.0223 53.7809C24.2117 54.2575 23.979 54.7974 23.5025 54.9868C23.0259 55.1763 22.4861 54.9436 22.2965 54.467C22.1071 53.9904 22.3397 53.4505 22.8163 53.2611C23.2929 53.0716 23.8329 53.3044 24.0223 53.7809ZM15.0028 26.1962C13.1359 22.9892 12.355 19.3389 12.7444 15.6398C13.2306 11.0208 15.4864 6.86773 19.0963 3.94545C22.7061 1.02317 27.2381 -0.318182 31.8569 0.167855C34.5414 0.450417 37.0853 1.34013 39.3317 2.76445L39.2977 2.64552C39.151 2.1309 39.449 1.59472 39.9636 1.4478C40.478 1.30089 41.0143 1.5992 41.1612 2.1137L41.9923 5.02653C42.0741 5.31297 42.0195 5.62108 41.8443 5.86198C41.6692 6.10288 41.393 6.24992 41.0953 6.2607L38.0682 6.36946C38.0563 6.36982 38.0444 6.37006 38.0327 6.37006C37.5137 6.37006 37.0839 5.95875 37.0651 5.4359C37.0458 4.90117 37.4638 4.45208 37.9985 4.43282L38.3253 4.42107C36.3224 3.14463 34.0514 2.34733 31.6539 2.09492C27.5497 1.66327 23.523 2.85493 20.3154 5.45152C17.1079 8.04812 15.1035 11.7384 14.6714 15.8426C14.3254 19.1295 15.019 22.3725 16.6774 25.2213C16.9466 25.6838 16.79 26.277 16.3274 26.5461C16.1741 26.6352 16.0064 26.6778 15.8408 26.6778C15.5074 26.6778 15.1827 26.5053 15.0028 26.1962ZM40.977 30.9748C37.8519 33.5047 34.0352 34.8498 30.0697 34.8499C29.4547 34.8499 28.8365 34.8176 28.2164 34.7523C25.5332 34.4698 22.988 33.5794 20.7414 32.1551L20.7754 32.2746C20.9222 32.7892 20.6241 33.3254 20.1095 33.4723C20.0207 33.4977 19.9312 33.5098 19.8432 33.5098C19.4213 33.5098 19.0334 33.2322 18.9119 32.8064L18.0808 29.8936C17.9991 29.6072 18.0537 29.2991 18.2288 29.0582C18.404 28.8173 18.6801 28.6702 18.9778 28.6595L22.005 28.5507C22.5404 28.5366 22.9889 28.9494 23.0081 29.4842C23.0273 30.019 22.6094 30.4681 22.0746 30.4873L21.748 30.4991C23.7509 31.7753 26.023 32.5731 28.4191 32.8252C32.5235 33.2569 36.5501 32.0653 39.7576 29.4686C42.9651 26.8721 44.9696 23.1818 45.4016 19.0775C45.7476 15.7902 45.054 12.5472 43.3956 9.69893C43.1263 9.23651 43.2829 8.64328 43.7454 8.37416C44.2078 8.1048 44.8009 8.26153 45.0702 8.72394C46.9372 11.9305 47.7183 15.5808 47.3288 19.2805C46.8426 23.8994 44.5869 28.0524 40.977 30.9748ZM30.0366 10.9193C26.4301 10.9193 23.4958 13.8536 23.4958 17.4601C23.4958 21.0667 26.4301 24.001 30.0366 24.001C33.6433 24.001 36.5775 21.0667 36.5775 17.4601C36.5775 13.8536 33.6433 10.9193 30.0366 10.9193ZM30.0366 22.0631C27.4985 22.0631 25.4336 19.9982 25.4336 17.4601C25.4336 14.922 27.4985 12.8571 30.0366 12.8571C32.5747 12.8571 34.6396 14.922 34.6396 17.4601C34.6396 19.9982 32.5747 22.0631 30.0366 22.0631ZM39.7487 12.0992L40.3984 10.6362C40.5612 10.27 40.4815 9.84136 40.1981 9.55783L37.9389 7.29866C37.6555 7.01525 37.2268 6.93604 36.8605 7.09833L35.3969 7.74848C34.6722 7.34759 33.9075 7.03051 33.1133 6.80172L32.5384 5.30824C32.3944 4.93424 32.035 4.6874 31.6342 4.6874H28.4393C28.0384 4.6874 27.679 4.93424 27.535 5.30824L26.9601 6.80172C26.1658 7.03063 25.4011 7.34771 24.6766 7.74848L23.213 7.09833C22.8465 6.93567 22.418 7.01525 22.1346 7.29866L19.8754 9.55783C19.592 9.84136 19.5123 10.27 19.675 10.6362L20.325 12.0997C19.9241 12.8243 19.607 13.5893 19.3781 14.3836L17.8848 14.9584C17.5107 15.1023 17.2639 15.4617 17.2639 15.8626V19.0575C17.2639 19.4584 17.5107 19.8178 17.8848 19.9618L19.3777 20.5365C19.6068 21.3312 19.9239 22.0962 20.3247 22.8208L19.675 24.2838C19.5122 24.65 19.5919 25.0787 19.8753 25.3622L22.1346 27.6214C22.4181 27.9048 22.8469 27.9842 23.213 27.8217L24.6767 27.1717C25.4013 27.5726 26.166 27.8896 26.9602 28.1184L27.5351 29.6119C27.679 29.9859 28.0385 30.2327 28.4394 30.2327H31.6343C32.0352 30.2327 32.3945 29.9859 32.5385 29.6119L33.1132 28.1189C33.9079 27.8899 34.6728 27.5728 35.3976 27.1719L36.8605 27.8217C37.2269 27.9845 37.6555 27.9048 37.9389 27.6214L40.1981 25.3622C40.4815 25.0787 40.5612 24.65 40.3986 24.2838L39.7485 22.8201C40.1494 22.0955 40.4664 21.3309 40.6952 20.5366L42.1888 19.9617C42.5628 19.8178 42.8096 19.4583 42.8096 19.0574V15.8624C42.8096 15.4615 42.5628 15.1021 42.1888 14.9581L40.6958 14.3834C40.4668 13.5889 40.1496 12.8238 39.7487 12.0992ZM40.8716 18.3922L39.5363 18.9063C39.2383 19.021 39.0158 19.2754 38.9418 19.5861C38.7176 20.528 38.3458 21.4251 37.8365 22.2523C37.669 22.5245 37.6465 22.8615 37.7761 23.1535L38.3573 24.4624L37.0389 25.7808L35.7308 25.1997C35.4385 25.0698 35.1015 25.0926 34.8293 25.2602C34.0022 25.7696 33.105 26.1416 32.1625 26.3659C31.8517 26.4398 31.5972 26.6621 31.4825 26.9603L30.9688 28.2951H29.1043L28.5904 26.96C28.4757 26.6618 28.2214 26.4394 27.9105 26.3655C26.9685 26.1412 26.0716 25.7694 25.2443 25.2601C24.9722 25.0924 24.635 25.0697 24.343 25.1995L23.0341 25.7809L21.7158 24.4626L22.2968 23.1543C22.4265 22.8623 22.4038 22.5251 22.2362 22.2529C21.7269 21.4261 21.355 20.5288 21.1306 19.586C21.0566 19.2753 20.8343 19.0208 20.5361 18.9061L19.2014 18.3924V16.5278L20.5365 16.0139C20.8345 15.8992 21.057 15.6447 21.131 15.3339C21.3552 14.3919 21.7271 13.4947 22.2364 12.6676C22.4039 12.3956 22.4266 12.0584 22.297 11.7664L21.7158 10.4576L23.0341 9.13925L24.3429 9.7206C24.635 9.85032 24.9721 9.82767 25.2442 9.66017C26.0713 9.15088 26.9683 8.77905 27.9105 8.55475C28.2212 8.48087 28.4757 8.2585 28.5904 7.96031L29.1044 6.62513H30.9689L31.4829 7.96031C31.5976 8.2585 31.8519 8.48087 32.1628 8.55475C33.1049 8.77905 34.0018 9.15088 34.8289 9.66017C35.101 9.82767 35.4383 9.85032 35.7302 9.7206L37.0391 9.13925L38.3574 10.4576L37.7764 11.7659C37.6467 12.0579 37.6693 12.3951 37.837 12.6672C38.3463 13.4942 38.7182 14.3914 38.9425 15.3341C39.0164 15.6449 39.2389 15.8993 39.5371 16.014L40.8719 16.5278V18.3922H40.8716Z" fill="#3E66F3"/>
</svg>
