<svg width="54" height="58" viewBox="0 0 54 58" fill="none" xmlns="http://www.w3.org/2000/svg">
<path d="M11.7486 44.7387C5.10689 44.5296 5.10639 34.8941 11.7487 34.6847C12.6826 34.6963 13.595 34.9663 14.3849 35.4646C15.1748 35.963 15.8113 36.6702 16.2239 37.5081C16.6365 38.346 16.8091 39.2817 16.7225 40.2117C16.636 41.1416 16.2937 42.0294 15.7336 42.7768C15.5722 42.9947 15.5028 43.2671 15.5402 43.5357C15.5777 43.8042 15.7189 44.0473 15.9337 44.2128C16.1485 44.3783 16.4196 44.4529 16.6888 44.4206C16.958 44.3883 17.2037 44.2517 17.3733 44.0402C18.1679 42.986 18.6543 41.7321 18.7785 40.4179C18.9027 39.1037 18.6597 37.7809 18.0767 36.5965C17.4937 35.4122 16.5934 34.413 15.4761 33.71C14.3589 33.0069 13.0684 32.6278 11.7485 32.6147C4.88211 32.6002 2.07623 41.5569 7.61275 45.4674C5.88803 46.0852 4.32437 47.083 3.03756 48.387C1.75074 49.691 0.773738 51.2678 0.17889 53.0006C-0.00293954 53.5753 -0.046933 54.1848 0.0504683 54.7797C0.14787 55.3746 0.38393 55.9382 0.739555 56.4249C1.09518 56.9117 1.56038 57.3079 2.09753 57.5815C2.63468 57.8551 3.22869 57.9985 3.83151 57.9999L19.6658 58C20.2815 57.9989 20.8881 57.8511 21.4354 57.5689C21.9827 57.2867 22.4549 56.8781 22.8129 56.3772C23.1628 55.8967 23.3915 55.3389 23.4795 54.7511C23.5675 54.1633 23.5122 53.5629 23.3183 53.0011C22.4919 50.5896 20.9324 48.4967 18.8579 47.0152C16.7834 45.5337 14.2978 44.7378 11.7486 44.7387ZM21.1284 55.1738C20.9622 55.4069 20.7428 55.5971 20.4884 55.7286C20.2341 55.8601 19.9521 55.9291 19.6657 55.9299H3.83143C3.5451 55.9291 3.26308 55.8601 3.00873 55.7286C2.75437 55.5971 2.53501 55.4069 2.36879 55.1738C2.21202 54.9605 2.10913 54.7125 2.06892 54.4508C2.0287 54.1892 2.05234 53.9217 2.13782 53.6712C2.82517 51.6686 4.1209 49.9308 5.84401 48.7004C7.56711 47.4701 9.6315 46.8088 11.7488 46.8088C13.866 46.8089 15.9304 47.4703 17.6534 48.7007C19.3765 49.9312 20.6721 51.6691 21.3593 53.6717C21.4448 53.9221 21.4684 54.1895 21.4282 54.4511C21.388 54.7126 21.2851 54.9606 21.1284 55.1738Z" fill="#3E66F3"/>
<path d="M53.3777 53.0011C52.7829 51.2682 51.806 49.6914 50.5192 48.3873C49.2324 47.0832 47.6687 46.0853 45.944 45.4674C51.4791 41.5609 48.6743 32.5965 41.8078 32.6147C39.9263 32.6169 38.1224 33.3653 36.7919 34.6959C35.4615 36.0264 34.7132 37.8304 34.7111 39.712C34.6492 41.0382 35.7168 45.3775 37.6348 44.2284C37.7425 44.1454 37.8328 44.0421 37.9006 43.9242C37.9683 43.8064 38.0122 43.6763 38.0296 43.5415C38.0471 43.4067 38.0378 43.2698 38.0023 43.1386C37.9669 43.0073 37.9059 42.8844 37.8229 42.7767C37.1308 41.8771 36.7635 40.7696 36.7808 39.6347C36.7982 38.4997 37.1991 37.404 37.9184 36.5259C38.6376 35.6478 39.6329 35.0389 40.7422 34.7984C41.8515 34.5579 43.0096 34.6998 44.028 35.2012C45.0463 35.7026 45.8651 36.5338 46.3509 37.5597C46.8368 38.5855 46.9612 39.7456 46.7038 40.8512C46.4465 41.9567 45.8226 42.9426 44.9337 43.6485C44.0447 44.3543 42.9431 44.7386 41.808 44.7387C39.2589 44.7378 36.7733 45.5337 34.6988 47.015C32.6243 48.4964 31.0648 50.5891 30.2383 53.0005C30.0564 53.5753 30.0124 54.1847 30.1098 54.7796C30.2072 55.3745 30.4433 55.9382 30.7989 56.4249C31.1546 56.9117 31.6198 57.3079 32.1569 57.5815C32.6941 57.8551 33.2881 57.9984 33.8909 57.9999L49.7251 58C50.3279 57.9985 50.9219 57.8552 51.459 57.5816C51.9961 57.308 52.4612 56.9118 52.8169 56.4251C53.1725 55.9384 53.4085 55.3749 53.506 54.78C53.6034 54.1852 53.5595 53.5758 53.3777 53.0011ZM51.1878 55.1738C51.0216 55.4069 50.8022 55.5971 50.5478 55.7286C50.2935 55.8601 50.0115 55.9291 49.7251 55.9299H33.8908C33.6045 55.9291 33.3225 55.8601 33.0681 55.7286C32.8138 55.5971 32.5944 55.4069 32.4282 55.1738C32.2714 54.9605 32.1685 54.7125 32.1283 54.4508C32.0881 54.1892 32.1117 53.9217 32.1972 53.6712C32.8846 51.6686 34.1803 49.9307 35.9034 48.7004C37.6265 47.4701 39.6909 46.8088 41.8082 46.8088C43.9254 46.8089 45.9898 47.4703 47.7128 48.7007C49.4359 49.9311 50.7315 51.6691 51.4187 53.6717C51.5042 53.9221 51.5278 54.1895 51.4876 54.4511C51.4474 54.7126 51.3445 54.9606 51.1878 55.1738Z" fill="#3E66F3"/>
<path d="M10.3031 23.9595C10.1616 24.1055 10.0659 24.2897 10.0279 24.4894C9.98977 24.6891 10.0109 24.8955 10.0887 25.0833C10.1665 25.2712 10.2976 25.4321 10.4657 25.5464C10.6338 25.6606 10.8317 25.7232 11.035 25.7264L18.622 25.7264C18.8932 25.7213 19.1514 25.61 19.3413 25.4164C19.5312 25.2228 19.6376 24.9625 19.6376 24.6913C19.6376 24.4202 19.5312 24.1598 19.3413 23.9663C19.1514 23.7727 18.8931 23.6614 18.622 23.6563H13.5337L14.2923 22.8977C14.3945 22.7941 14.4739 22.6702 14.5253 22.5341C14.5767 22.3979 14.599 22.2525 14.5907 22.1072C14.5824 21.9619 14.5438 21.8199 14.4772 21.6905C14.4107 21.561 14.3177 21.447 14.2043 21.3557C6.21801 15.1108 10.7342 2.0741 20.8683 2.10649C22.6513 2.0977 24.4074 2.54201 25.9717 3.39773C26.212 3.52286 26.4918 3.54877 26.751 3.46991C27.0102 3.39104 27.2282 3.21368 27.3581 2.97591C27.4881 2.73814 27.5196 2.4589 27.4459 2.19815C27.3723 1.9374 27.1993 1.71592 26.9642 1.58126C13.6629 -5.27223 1.37789 11.7407 12.0439 22.2185L10.3031 23.9595Z" fill="#3E66F3"/>
<path d="M42.5262 30.0219C42.7294 30.0187 42.9273 29.9561 43.0954 29.8418C43.2636 29.7275 43.3946 29.5665 43.4724 29.3787C43.5502 29.1909 43.5713 28.9844 43.5332 28.7847C43.4951 28.5851 43.3994 28.4009 43.2579 28.2549L41.5149 26.5113C49.9106 18.6913 44.1894 4.26244 32.6853 4.33376C15.6468 5.0391 15.6495 29.3178 32.6856 30.0219L42.5262 30.0219ZM21.9112 17.1775C22.5025 2.88673 42.8685 2.88692 43.4591 17.1776C43.4624 18.808 43.0946 20.4178 42.3835 21.8849C41.6724 23.352 40.6366 24.6381 39.3548 25.6456C39.2411 25.7368 39.1479 25.8508 39.0811 25.9803C39.0143 26.1099 38.9754 26.252 38.9669 26.3974C38.9585 26.5429 38.9807 26.6886 39.0321 26.8249C39.0835 26.9613 39.1629 27.0853 39.2653 27.1891L40.0274 27.9517H32.6854C29.8289 27.9485 27.0903 26.8124 25.0704 24.7925C23.0506 22.7726 21.9144 20.034 21.9112 17.1775Z" fill="#3E66F3"/>
<path d="M26.7783 14.9922H35.3666C35.6377 14.9869 35.8958 14.8755 36.0856 14.6819C36.2754 14.4884 36.3817 14.2281 36.3817 13.9571C36.3817 13.686 36.2753 13.4257 36.0855 13.2322C35.8957 13.0387 35.6376 12.9273 35.3666 12.922H26.7783C26.5073 12.9273 26.2491 13.0387 26.0593 13.2322C25.8695 13.4258 25.7632 13.686 25.7632 13.9571C25.7632 14.2282 25.8695 14.4884 26.0593 14.682C26.2491 14.8755 26.5073 14.9869 26.7783 14.9922Z" fill="#3E66F3"/>
<path d="M40.6961 18.251C40.6961 17.9765 40.587 17.7132 40.3929 17.5191C40.1988 17.325 39.9355 17.216 39.661 17.2159H26.7783C26.5038 17.2159 26.2405 17.325 26.0464 17.5191C25.8523 17.7132 25.7432 17.9765 25.7432 18.251C25.7432 18.5255 25.8523 18.7888 26.0464 18.9829C26.2405 19.177 26.5038 19.2861 26.7783 19.2861H39.661C39.9355 19.2861 40.1988 19.177 40.3929 18.9829C40.587 18.7888 40.6961 18.5255 40.6961 18.251Z" fill="#3E66F3"/>
</svg>
