<svg width="60" height="60" viewBox="0 0 60 60" fill="none" xmlns="http://www.w3.org/2000/svg">
<g clip-path="url(#clip0_59_312)">
<path d="M47.5377 7.0882C47.9105 6.55898 47.7836 5.82797 47.2544 5.45531C42.1864 1.88637 36.22 0 30.0004 0C26.1069 0 22.3184 0.735234 18.7398 2.1852C18.1401 2.42824 17.8508 3.11156 18.0939 3.71133C18.3368 4.31109 19.0198 4.60043 19.62 4.35738C22.9177 3.02121 26.41 2.34375 30.0004 2.34375C35.7344 2.34375 41.234 4.08234 45.9049 7.37156C46.1101 7.51594 46.3456 7.58543 46.5787 7.58543C46.947 7.58543 47.3096 7.41223 47.5377 7.0882Z" fill="#3E66F3"/>
<path d="M59.9999 29.9998C59.9999 24.0039 58.2366 18.2163 54.9005 13.2625C54.5389 12.7256 53.8105 12.5837 53.2738 12.9451C52.737 13.3066 52.5948 14.0348 52.9564 14.5716C56.031 19.1373 57.6562 24.4722 57.6562 29.9998C57.6562 35.8778 55.8525 41.4503 52.433 46.1765C51.8726 45.9218 51.2513 45.7787 50.5967 45.7787C48.1413 45.7787 46.1436 47.7764 46.1436 50.2318C46.1436 52.6872 48.1413 54.6849 50.5967 54.6849C53.0521 54.6849 55.0498 52.6872 55.0498 50.2318C55.0498 49.2814 54.7496 48.4003 54.2403 47.6764C58.0105 42.5214 59.9999 36.4289 59.9999 29.9998ZM50.5967 52.3412C49.4336 52.3412 48.4873 51.3949 48.4873 50.2318C48.4873 49.0687 49.4336 48.1224 50.5967 48.1224C51.7598 48.1224 52.7061 49.0687 52.7061 50.2318C52.7061 51.3949 51.7598 52.3412 50.5967 52.3412Z" fill="#3E66F3"/>
<path d="M40.3802 55.6425C37.0828 56.9788 33.5904 57.6563 30 57.6563C14.7503 57.6563 2.34375 45.2497 2.34375 30C2.34375 24.122 4.14738 18.5495 7.56691 13.8233C8.12731 14.0781 8.74863 14.2212 9.40324 14.2212C11.8587 14.2212 13.8564 12.2235 13.8564 9.76807C13.8564 7.31264 11.8587 5.31494 9.40324 5.31494C6.94781 5.31494 4.95012 7.31264 4.95012 9.76807C4.95012 10.7185 5.25035 11.5996 5.75965 12.3235C1.98937 17.4784 0 23.571 0 30C0 38.0133 3.12059 45.5469 8.78672 51.2132C14.4531 56.8796 21.9867 60 30 60C33.8934 60 37.682 59.2648 41.2605 57.8148C41.8603 57.5718 42.1495 56.8885 41.9065 56.2887C41.6633 55.6887 40.9799 55.3996 40.3802 55.6425ZM9.40324 7.65869C10.5663 7.65869 11.5126 8.60498 11.5126 9.76807C11.5126 10.9312 10.5663 11.8774 9.40324 11.8774C8.24016 11.8774 7.29387 10.9312 7.29387 9.76807C7.29387 8.60498 8.24016 7.65869 9.40324 7.65869Z" fill="#3E66F3"/>
<path d="M30.0002 27.395C27.5257 27.395 25.5127 29.4081 25.5127 31.8824C25.5127 32.9082 25.8546 33.8815 26.4845 34.672V38.1715C26.4845 40.11 28.0616 41.6871 30.0002 41.6871C31.9387 41.6871 33.5158 40.11 33.5158 38.1715V34.672C34.1457 33.8813 34.4876 32.9082 34.4876 31.8824C34.4876 29.4081 32.4746 27.395 30.0002 27.395ZM31.5155 33.3985C31.2957 33.6184 31.172 33.9165 31.172 34.2274V38.1715C31.172 38.8176 30.6463 39.3433 30.0002 39.3433C29.354 39.3433 28.8283 38.8176 28.8283 38.1715V34.2274C28.8283 33.9165 28.7046 33.6183 28.4848 33.3985C28.0796 32.9935 27.8564 32.4552 27.8564 31.8824C27.8564 30.7004 28.8181 29.7388 30.0002 29.7388C31.1822 29.7388 32.1439 30.7004 32.1439 31.8824C32.1439 32.4552 31.9207 32.9937 31.5155 33.3985Z" fill="#3E66F3"/>
<path d="M40.7755 22.9242V20.5216C40.7755 14.58 35.9416 9.74609 30 9.74609C24.0584 9.74609 19.2245 14.58 19.2245 20.5216V22.9242C17.7073 23.57 16.6406 25.0757 16.6406 26.8261V42.2555C16.6406 44.5926 18.542 46.494 20.8789 46.494H39.1211C41.458 46.494 43.3594 44.5926 43.3594 42.2555V26.8261C43.3594 25.0757 42.2927 23.57 40.7755 22.9242ZM21.5682 20.5216C21.5682 15.8723 25.3507 12.0898 30 12.0898C34.6493 12.0898 38.4318 15.8723 38.4318 20.5216V22.5877H35.9736V20.5216C35.9736 17.2277 33.2939 14.548 29.9999 14.548C26.7059 14.548 24.0261 17.2278 24.0261 20.5216V22.5877H21.568V20.5216H21.5682ZM26.37 22.5877V20.5216C26.37 18.52 27.9984 16.8917 30 16.8917C32.0016 16.8917 33.63 18.52 33.63 20.5216V22.5877H26.37ZM41.0156 42.2555C41.0156 43.3003 40.1657 44.1502 39.1211 44.1502H20.8789C19.8343 44.1502 18.9844 43.3003 18.9844 42.2555V26.8261C18.9844 25.7813 19.8343 24.9315 20.8789 24.9315H39.1211C40.1657 24.9315 41.0156 25.7814 41.0156 26.8261V42.2555Z" fill="#3E66F3"/>
<path d="M50.5967 11.0018C50.9049 11.0018 51.2072 10.8775 51.4252 10.6596C51.643 10.4416 51.7686 10.1393 51.7686 9.83105C51.7686 9.52168 51.6432 9.21934 51.4252 9.00137C51.2072 8.7834 50.9048 8.65918 50.5967 8.65918C50.2885 8.65918 49.9861 8.7834 49.7682 9.00137C49.5503 9.21934 49.4248 9.52168 49.4248 9.83105C49.4248 10.1393 49.5502 10.4404 49.7682 10.6596C49.9861 10.8775 50.2885 11.0018 50.5967 11.0018Z" fill="#3E66F3"/>
</g>
<defs>
<clipPath id="clip0_59_312">
<rect width="60" height="60" fill="white"/>
</clipPath>
</defs>
</svg>
