<svg width="60" height="60" viewBox="0 0 60 60" fill="none" xmlns="http://www.w3.org/2000/svg">
<g clip-path="url(#clip0_59_445)">
<path d="M52.4476 45.1242C51.3854 44.0621 50.0555 43.4259 48.6723 43.2154C48.7239 42.8846 48.7499 42.5491 48.7499 42.211V26.1702H51.3282C53.9129 26.1702 56.0157 24.0675 56.0157 21.4828V12.7105L59.6567 9.06946C60.1143 8.61184 60.1143 7.86981 59.6567 7.41208C59.199 6.95458 58.4572 6.95458 57.9994 7.41208L54.0151 11.3963C53.7954 11.6162 53.6719 11.9142 53.6719 12.225V21.4828C53.6719 22.7751 52.6205 23.8265 51.3281 23.8265H48.7498V21.8135L50.9849 19.5784C51.4425 19.1208 51.4425 18.3788 50.9849 17.9211C50.5273 17.4637 49.7855 17.4636 49.3275 17.9211L44.3956 22.853C44.1761 23.0725 43.8818 23.1933 43.5671 23.1933C43.2523 23.1933 42.958 23.0724 42.7386 22.8529C42.2816 22.3961 42.2816 21.6525 42.7384 21.1956L46.7754 17.1586C47.2326 16.7015 47.233 15.9603 46.7766 15.5026C45.0455 13.7663 45.0475 10.9434 46.7813 9.20973L53.9904 2.0005C54.448 1.54288 54.448 0.800856 53.9904 0.343124C53.5326 -0.114375 52.7909 -0.114375 52.333 0.343124L45.1239 7.55235C44.0618 8.6143 43.4256 9.94426 43.2153 11.3273C42.8846 11.2759 42.5492 11.2498 42.2106 11.2498H26.1701V8.67172C26.1701 6.08705 24.0673 3.98424 21.4826 3.98424H12.7102L9.06919 0.343241C8.61146 -0.114257 7.86967 -0.114257 7.41182 0.343241C6.9542 0.800856 6.9542 1.54288 7.41182 2.00062L11.3962 5.98486C11.616 6.20458 11.914 6.3281 12.2248 6.3281H21.4826C22.7749 6.3281 23.8263 7.3795 23.8263 8.67184V11.25H21.8132L19.5784 9.01508C19.1207 8.55758 18.3789 8.55758 17.921 9.01508C17.4634 9.4727 17.4634 10.2147 17.921 10.6725L22.853 15.6042C23.3098 16.0611 23.3098 16.8046 22.8528 17.2615C22.6334 17.481 22.3391 17.602 22.0242 17.602C21.7093 17.602 21.4152 17.481 21.1957 17.2615L17.1588 13.2247C16.7016 12.7676 15.9605 12.7668 15.5028 13.2234C13.7664 14.9545 10.9435 14.9524 9.20982 13.2188L2.00059 6.00959C1.54286 5.55209 0.801061 5.55209 0.343212 6.00959C-0.114404 6.4672 -0.114404 7.20923 0.343212 7.66696L7.55244 14.8761C8.61451 15.938 9.94446 16.5743 11.3275 16.7848C11.2762 17.1152 11.2502 17.4504 11.2502 17.7891V33.8299H8.67169C6.08702 33.8299 3.98433 35.9327 3.98433 38.5174V47.2897L0.343212 50.9308C-0.114404 51.3884 -0.114404 52.1304 0.343212 52.5882C0.572078 52.8169 0.871959 52.9314 1.17184 52.9314C1.47172 52.9314 1.7716 52.8169 2.00047 52.5882L5.98483 48.6038C6.20456 48.3839 6.32807 48.0859 6.32807 47.7752V38.5174C6.32807 37.2251 7.37947 36.1736 8.67169 36.1736H11.25V38.1867L9.01494 40.4218C8.55732 40.8794 8.55732 41.6214 9.01494 42.0792C9.47267 42.5367 10.2145 42.5367 10.6723 42.0792L15.6042 37.1472C16.061 36.6904 16.8045 36.6904 17.2614 37.1472C17.481 37.3667 17.6019 37.6611 17.6019 37.976C17.6019 38.2907 17.4811 38.5849 17.2615 38.8044L13.2245 42.8414C12.7674 43.2985 12.7669 44.0396 13.2234 44.4974C14.9544 46.2337 14.9525 49.0567 13.2187 50.7904L6.00944 57.9995C5.55182 58.4571 5.55182 59.1991 6.00944 59.6569C6.23831 59.8856 6.53819 60.0001 6.83807 60.0001C7.13795 60.0001 7.43783 59.8856 7.6667 59.6569L14.8758 52.4478C15.9379 51.3857 16.574 50.0557 16.7843 48.6728C17.115 48.7243 17.4505 48.7503 17.7892 48.7503H33.8296V51.3284C33.8296 53.9131 35.9324 56.0159 38.5171 56.0159H47.2894L50.9305 59.657C51.1594 59.8857 51.4593 60.0002 51.7591 60.0002C52.059 60.0002 52.3589 59.8857 52.5878 59.657C53.0454 59.1994 53.0454 58.4573 52.5878 57.9996L48.6034 54.0153C48.3836 53.7955 48.0856 53.672 47.7748 53.672H38.517C37.2247 53.672 36.1733 52.6206 36.1733 51.3283V48.7502H38.1865L40.4214 50.985C40.8791 51.4425 41.6209 51.4425 42.0788 50.985C42.5364 50.5274 42.5364 49.7854 42.0788 49.3277L37.147 44.3958C36.6901 43.939 36.6901 43.1955 37.147 42.7386C37.3665 42.5191 37.6607 42.3982 37.9756 42.3982C38.2905 42.3982 38.5846 42.5191 38.8041 42.7386L42.841 46.7754C43.298 47.2324 44.0391 47.2331 44.4971 46.7767C46.2334 45.0458 49.0563 45.0475 50.79 46.7813L57.9992 53.9905C58.2281 54.2193 58.528 54.3338 58.8279 54.3338C59.1277 54.3338 59.4276 54.2193 59.6565 53.9905C60.1141 53.5329 60.1141 52.7909 59.6565 52.3332L52.4476 45.1242ZM43.2764 13.7317C43.4588 14.6231 43.8207 15.4846 44.3623 16.2575L41.0813 19.5385C39.7107 20.9092 39.7108 23.1395 41.0814 24.5103C41.7436 25.1724 42.6265 25.5372 43.5673 25.5372C44.5082 25.5372 45.391 25.1725 46.0532 24.5103L46.4063 24.1572V28.8281H42.1438C41.4967 28.8281 40.972 29.3529 40.972 30C40.972 31.2035 39.9929 32.1826 38.7892 32.1826C37.5856 32.1826 36.6065 31.2035 36.6065 30C36.6065 29.3529 36.0817 28.8281 35.4346 28.8281H31.172V25.5835C33.1017 25.0658 34.5264 23.3016 34.5264 21.2109C34.5264 19.1201 33.1017 17.3559 31.172 16.8383V13.5936H42.2107C42.5736 13.5937 42.9304 13.6401 43.2764 13.7317ZM16.2574 15.6378L19.5383 18.9187C20.2238 19.6041 21.124 19.9466 22.0242 19.9466C22.9246 19.9466 23.8248 19.604 24.5102 18.9187C25.8808 17.5481 25.881 15.3176 24.5103 13.9468L24.1571 13.5936H28.8281V17.8563C28.8281 18.5034 29.3529 19.0281 30 19.0281C31.2035 19.0281 32.1826 20.0072 32.1826 21.2109C32.1826 22.4145 31.2035 23.3936 30 23.3936C29.3529 23.3936 28.8281 23.9183 28.8281 24.5655V28.8281H25.5834C25.0658 26.8984 23.3017 25.4736 21.2109 25.4736C19.1202 25.4736 17.356 26.8984 16.8383 28.8281H13.5938V17.7891C13.5938 17.4263 13.6401 17.0698 13.7317 16.7239C14.623 16.5415 15.4845 16.1795 16.2574 15.6378ZM16.7235 46.2684C16.5412 45.377 16.1793 44.5155 15.6378 43.7426L18.9186 40.4618C19.5809 39.7996 19.9457 38.9168 19.9457 37.9759C19.9456 37.0351 19.5809 36.1522 18.9185 35.4899C17.5477 34.1192 15.3175 34.1195 13.9469 35.4899L13.5938 35.8429V31.1721H17.8563C18.5035 31.1721 19.0282 30.6473 19.0282 30.0002C19.0282 28.7967 20.0073 27.8176 21.2109 27.8176C22.4145 27.8176 23.3936 28.7967 23.3936 30.0002C23.3936 30.6473 23.9183 31.1721 24.5654 31.1721H28.8281V34.4168C26.8984 34.9344 25.4736 36.6985 25.4736 38.7893C25.4736 40.88 26.8984 42.6442 28.8281 43.1619V46.4065H17.7893C17.4265 46.4064 17.0696 46.36 16.7235 46.2684ZM43.7426 44.3623L40.4617 41.0814C39.0909 39.7106 36.8606 39.7108 35.4898 41.0814C34.1192 42.4522 34.1192 44.6825 35.4898 46.0533L35.843 46.4065H31.172V42.1439C31.172 41.4967 30.6472 40.972 30.0001 40.972C28.7966 40.972 27.8175 39.9929 27.8175 38.7893C27.8175 37.5858 28.7966 36.6067 30.0001 36.6067C30.6472 36.6067 31.172 36.0819 31.172 35.4348V31.1721H34.4166C34.9342 33.1018 36.6985 34.5266 38.7892 34.5266C40.88 34.5266 42.6442 33.1018 43.1618 31.1721H46.4063V42.2111C46.4063 42.5732 46.36 42.9302 46.2682 43.2765C45.3769 43.4587 44.5155 43.8206 43.7426 44.3623Z" fill="#3E66F3"/>
</g>
<defs>
<clipPath id="clip0_59_445">
<rect width="60" height="60" fill="white"/>
</clipPath>
</defs>
</svg>
