<svg width="50" height="50" viewBox="0 0 50 50" fill="none" xmlns="http://www.w3.org/2000/svg">
<g clip-path="url(#clip0_454_25411)">
<path d="M7.29565 16.6743C5.57018 16.6743 4.17139 18.0731 4.17139 19.7986V34.3785C4.17139 36.1039 5.57018 37.5027 7.29565 37.5027C9.02113 37.5027 10.4199 36.1039 10.4199 34.3785V19.7986C10.4199 18.0731 9.02113 16.6743 7.29565 16.6743Z" fill="url(#paint0_linear_454_25411)"/>
<path d="M42.7039 16.6743C40.9784 16.6743 39.5796 18.0731 39.5796 19.7986V34.3785C39.5796 36.1039 40.9784 37.5027 42.7039 37.5027C44.4293 37.5027 45.8281 36.1039 45.8281 34.3785V19.7986C45.8281 18.0731 44.4294 16.6743 42.7039 16.6743Z" fill="url(#paint1_linear_454_25411)"/>
<path d="M36.4556 16.6743H13.5444C12.9692 16.6743 12.5029 17.1406 12.5029 17.7158V34.3785C12.5024 36.8533 14.2438 38.9865 16.6687 39.4815V46.8755C16.6687 48.601 18.0674 49.9998 19.7929 49.9998C21.5184 49.9998 22.9172 48.601 22.9172 46.8755V39.5855H27.0829V46.8755C27.0829 48.601 28.4817 49.9998 30.2072 49.9998C31.9327 49.9998 33.3314 48.601 33.3314 46.8755V39.4815C35.7563 38.9865 37.4977 36.8533 37.4972 34.3785V17.7158C37.4971 17.1406 37.0308 16.6743 36.4556 16.6743Z" fill="url(#paint2_linear_454_25411)"/>
<path d="M32.5708 4.3274L35.1098 1.7905C35.5235 1.39088 35.5349 0.731664 35.1354 0.317893C34.7358 -0.0957791 34.0765 -0.107202 33.6628 0.292313C33.6541 0.30071 33.6456 0.309204 33.6372 0.317893L30.6796 3.2756C27.0572 1.70204 22.9442 1.70204 19.3218 3.2756L16.3642 0.315843C15.9505 -0.0837703 15.2912 -0.0722495 14.8916 0.341423C14.5018 0.745039 14.5018 1.38483 14.8916 1.78835L17.4285 4.32731C14.3358 6.3737 12.4835 9.84173 12.5026 13.5501C12.5026 14.1253 12.9689 14.5916 13.544 14.5916H36.4554C37.0305 14.5916 37.4968 14.1253 37.4968 13.5501C37.5159 9.84183 35.6636 6.3738 32.5708 4.3274Z" fill="url(#paint3_linear_454_25411)"/>
<path d="M19.7929 10.4262C20.3681 10.4262 20.8344 9.9599 20.8344 9.38472C20.8344 8.80954 20.3681 8.34326 19.7929 8.34326C19.2177 8.34326 18.7515 8.80954 18.7515 9.38472C18.7515 9.9599 19.2177 10.4262 19.7929 10.4262Z" fill="#FAFAFA"/>
<path d="M30.207 10.4262C30.7822 10.4262 31.2484 9.9599 31.2484 9.38472C31.2484 8.80954 30.7822 8.34326 30.207 8.34326C29.6318 8.34326 29.1655 8.80954 29.1655 9.38472C29.1655 9.9599 29.6318 10.4262 30.207 10.4262Z" fill="#FAFAFA"/>
</g>
<defs>
<linearGradient id="paint0_linear_454_25411" x1="7.29565" y1="16.6743" x2="7.29565" y2="37.5027" gradientUnits="userSpaceOnUse">
<stop stop-color="#02CE80"/>
<stop offset="1" stop-color="#7BD706"/>
</linearGradient>
<linearGradient id="paint1_linear_454_25411" x1="42.7039" y1="16.6743" x2="42.7039" y2="37.5027" gradientUnits="userSpaceOnUse">
<stop stop-color="#02CE80"/>
<stop offset="1" stop-color="#7BD706"/>
</linearGradient>
<linearGradient id="paint2_linear_454_25411" x1="25" y1="16.6743" x2="25" y2="49.9998" gradientUnits="userSpaceOnUse">
<stop stop-color="#02CE80"/>
<stop offset="1" stop-color="#7BD706"/>
</linearGradient>
<linearGradient id="paint3_linear_454_25411" x1="24.9997" y1="0" x2="24.9997" y2="14.5916" gradientUnits="userSpaceOnUse">
<stop stop-color="#02CE80"/>
<stop offset="1" stop-color="#7BD706"/>
</linearGradient>
<clipPath id="clip0_454_25411">
<rect width="50" height="50" fill="white"/>
</clipPath>
</defs>
</svg>
