<svg width="50" height="50" viewBox="0 0 50 50" fill="none" xmlns="http://www.w3.org/2000/svg">
<g clip-path="url(#clip0_454_25424)">
<path d="M25 4.6875C36.2 4.6875 45.3125 13.8 45.3125 25C45.3125 36.2 36.2 45.3125 25 45.3125C13.8 45.3125 4.6875 36.2 4.6875 25C4.6875 13.8 13.8 4.6875 25 4.6875ZM25 0C11.193 0 0 11.193 0 25C0 38.807 11.193 50 25 50C38.807 50 50 38.807 50 25C50 11.193 38.807 0 25 0Z" fill="#FF3D2E"/>
<path d="M38.8682 7.44141L42.1817 10.7549L10.3009 42.6356L6.98744 39.3221L38.8682 7.44141Z" fill="#FF3D2E"/>
</g>
<defs>
<clipPath id="clip0_454_25424">
<rect width="50" height="50" fill="white"/>
</clipPath>
</defs>
</svg>
