<svg width="60" height="60" viewBox="0 0 60 60" fill="none" xmlns="http://www.w3.org/2000/svg">
<path d="M10 6.25H7.5C7.16848 6.25 6.85054 6.3817 6.61612 6.61612C6.3817 6.85054 6.25 7.16848 6.25 7.5C6.25 7.83152 6.3817 8.14946 6.61612 8.38388C6.85054 8.6183 7.16848 8.75 7.5 8.75H10C10.3315 8.75 10.6495 8.6183 10.8839 8.38388C11.1183 8.14946 11.25 7.83152 11.25 7.5C11.25 7.16848 11.1183 6.85054 10.8839 6.61612C10.6495 6.3817 10.3315 6.25 10 6.25Z" fill="#3E66F3"/>
<path d="M17.5 6.25H15C14.6685 6.25 14.3505 6.3817 14.1161 6.61612C13.8817 6.85054 13.75 7.16848 13.75 7.5C13.75 7.83152 13.8817 8.14946 14.1161 8.38388C14.3505 8.6183 14.6685 8.75 15 8.75H17.5C17.8315 8.75 18.1495 8.6183 18.3839 8.38388C18.6183 8.14946 18.75 7.83152 18.75 7.5C18.75 7.16848 18.6183 6.85054 18.3839 6.61612C18.1495 6.3817 17.8315 6.25 17.5 6.25Z" fill="#3E66F3"/>
<path d="M52.5 11.25H38.75V7.5C38.7494 5.84258 38.0907 4.25321 36.9188 3.08124C35.7468 1.90927 34.1574 1.2506 32.5 1.25H7.5C5.84258 1.2506 4.25321 1.90927 3.08124 3.08124C1.90927 4.25321 1.2506 5.84258 1.25 7.5V52.5C1.2506 54.1574 1.90927 55.7468 3.08124 56.9188C4.25321 58.0907 5.84258 58.7494 7.5 58.75H32.5C34.1574 58.7494 35.7468 58.0907 36.9188 56.9188C38.0907 55.7468 38.7494 54.1574 38.75 52.5V43.75H52.5C54.1574 43.7494 55.7468 43.0907 56.9188 41.9188C58.0907 40.7468 58.7494 39.1574 58.75 37.5V17.5C58.7494 15.8426 58.0907 14.2532 56.9188 13.0812C55.7468 11.9093 54.1574 11.2506 52.5 11.25ZM36.25 52.5C36.2507 52.9926 36.1541 53.4806 35.9659 53.9358C35.7777 54.3911 35.5015 54.8048 35.1531 55.1531C34.8048 55.5015 34.3911 55.7777 33.9358 55.9659C33.4806 56.1541 32.9926 56.2507 32.5 56.25H7.5C7.00736 56.2507 6.51943 56.1541 6.06416 55.9659C5.60889 55.7777 5.19523 55.5015 4.84688 55.1531C4.49853 54.8048 4.22233 54.3911 4.03411 53.9358C3.84589 53.4806 3.74934 52.9926 3.75 52.5V48.75H36.25V52.5ZM36.25 46.25H3.75V7.5C3.74934 7.00736 3.84589 6.51943 4.03411 6.06416C4.22233 5.60889 4.49853 5.19523 4.84688 4.84688C5.19523 4.49853 5.60889 4.22233 6.06416 4.03411C6.51943 3.84589 7.00736 3.74934 7.5 3.75H32.5C32.9926 3.74934 33.4806 3.84589 33.9358 4.03411C34.3911 4.22233 34.8048 4.49853 35.1531 4.84688C35.5015 5.19523 35.7777 5.60889 35.9659 6.06416C36.1541 6.51943 36.2507 7.00736 36.25 7.5V11.25H25C23.3426 11.2506 21.7532 11.9093 20.5812 13.0812C19.4093 14.2532 18.7506 15.8426 18.75 17.5V37.5C18.7506 39.1574 19.4093 40.7468 20.5812 41.9188C21.7532 43.0907 23.3426 43.7494 25 43.75H36.25V46.25ZM56.25 37.5C56.2507 37.9926 56.1541 38.4806 55.9659 38.9358C55.7777 39.3911 55.5015 39.8048 55.1531 40.1531C54.8048 40.5015 54.3911 40.7777 53.9358 40.9659C53.4806 41.1541 52.9926 41.2507 52.5 41.25H25C24.5074 41.2507 24.0194 41.1541 23.5642 40.9659C23.1089 40.7777 22.6952 40.5015 22.3469 40.1531C21.9985 39.8048 21.7223 39.3911 21.5341 38.9358C21.3459 38.4806 21.2493 37.9926 21.25 37.5V17.5C21.2493 17.0074 21.3459 16.5194 21.5341 16.0642C21.7223 15.6089 21.9985 15.1952 22.3469 14.8469C22.6952 14.4985 23.1089 14.2223 23.5642 14.0341C24.0194 13.8459 24.5074 13.7493 25 13.75H52.5C52.9926 13.7493 53.4806 13.8459 53.9358 14.0341C54.3911 14.2223 54.8048 14.4985 55.1531 14.8469C55.5015 15.1952 55.7777 15.6089 55.9659 16.0642C56.1541 16.5194 56.2507 17.0074 56.25 17.5V37.5Z" fill="#3E66F3"/>
<path d="M47.5 32.5H46.25V26.25C46.25 25.9185 46.1183 25.6005 45.8839 25.3661C45.6495 25.1317 45.3315 25 45 25C44.6685 25 44.3505 25.1317 44.1161 25.3661C43.8817 25.6005 43.75 25.9185 43.75 26.25V32.5H41.25V21.25C41.25 20.9185 41.1183 20.6005 40.8839 20.3661C40.6495 20.1317 40.3315 20 40 20C39.6685 20 39.3505 20.1317 39.1161 20.3661C38.8817 20.6005 38.75 20.9185 38.75 21.25V32.5H36.25V26.25C36.25 25.9185 36.1183 25.6005 35.8839 25.3661C35.6495 25.1317 35.3315 25 35 25C34.6685 25 34.3505 25.1317 34.1161 25.3661C33.8817 25.6005 33.75 25.9185 33.75 26.25V32.5H31.25V21.25C31.25 20.9185 31.1183 20.6005 30.8839 20.3661C30.6495 20.1317 30.3315 20 30 20C29.6685 20 29.3505 20.1317 29.1161 20.3661C28.8817 20.6005 28.75 20.9185 28.75 21.25V33.75C28.75 34.0815 28.8817 34.3995 29.1161 34.6339C29.3505 34.8683 29.6685 35 30 35H47.5C47.8315 35 48.1495 34.8683 48.3839 34.6339C48.6183 34.3995 48.75 34.0815 48.75 33.75C48.75 33.4185 48.6183 33.1005 48.3839 32.8661C48.1495 32.6317 47.8315 32.5 47.5 32.5Z" fill="#3E66F3"/>
</svg>
