<svg width="50" height="50" viewBox="0 0 50 50" fill="none" xmlns="http://www.w3.org/2000/svg">
<path d="M7.8125 31.25C7.8125 35.8083 9.62331 40.1802 12.8466 43.4033C16.0699 46.6267 20.4416 48.4375 25 48.4375C29.5583 48.4375 33.9302 46.6267 37.1533 43.4033C40.3767 40.1802 42.1875 35.8083 42.1875 31.25C42.1875 26.6917 40.3767 22.3198 37.1533 19.0966C33.9302 15.8733 29.5583 14.0625 25 14.0625C20.4416 14.0625 16.0699 15.8733 12.8466 19.0966C9.62331 22.3198 7.8125 26.6917 7.8125 31.25Z" fill="#FED18C" stroke="#1C1C25" stroke-width="2" stroke-linecap="round" stroke-linejoin="round"/>
<path d="M20.3125 31.25C20.3125 32.4931 20.8064 33.6854 21.6854 34.5646C22.5646 35.4435 23.7569 35.9375 25 35.9375C26.2431 35.9375 27.4354 35.4435 28.3146 34.5646C29.1935 33.6854 29.6875 32.4931 29.6875 31.25C29.6875 30.0069 29.1935 28.8146 28.3146 27.9354C27.4354 27.0565 26.2431 26.5625 25 26.5625C23.7569 26.5625 22.5646 27.0565 21.6854 27.9354C20.8064 28.8146 20.3125 30.0069 20.3125 31.25Z" stroke="#1C1C25" stroke-width="2"/>
<path d="M14.0625 17.9896V12.5C14.0625 9.59919 15.2148 6.81721 17.266 4.76602C19.3172 2.71483 22.0992 1.5625 25 1.5625C27.9008 1.5625 30.6827 2.71483 32.734 4.76602C34.7852 6.81721 35.9375 9.59919 35.9375 12.5V17.9896" stroke="#1C1C25" stroke-width="2" stroke-linecap="round" stroke-linejoin="round"/>
</svg>
