<svg width="60" height="60" viewBox="0 0 60 60" fill="none" xmlns="http://www.w3.org/2000/svg">
<path d="M54.9998 14.2747V38.2247C54.9998 45.1247 49.3998 50.7247 42.4998 50.7247H17.4998C16.3498 50.7247 15.2498 50.5747 14.1748 50.2747C12.6248 49.8497 12.1248 47.8747 13.2748 46.7247L39.8498 20.1497C40.3998 19.5997 41.2248 19.4747 41.9998 19.6247C42.7998 19.7747 43.6748 19.5497 44.2998 18.9497L50.7248 12.4997C53.0748 10.1497 54.9998 10.9247 54.9998 14.2747Z" fill="#3E66F3"/>
<path d="M36.6 18.3998L10.425 44.5748C9.225 45.7748 7.225 45.4748 6.425 43.9748C5.5 42.2748 5 40.2998 5 38.2248V14.2748C5 10.9248 6.925 10.1498 9.275 12.4998L15.725 18.9748C16.7 19.9248 18.3 19.9248 19.275 18.9748L28.225 9.9998C29.2 9.0248 30.8 9.0248 31.775 9.9998L36.625 14.8498C37.575 15.8248 37.575 17.4248 36.6 18.3998Z" fill="#3E66F3"/>
</svg>
