<svg width="60" height="60" viewBox="0 0 60 60" fill="none" xmlns="http://www.w3.org/2000/svg">
<path d="M47 24.7754C44.175 24.7754 41.65 26.1504 40.075 28.2504C38.5 26.1504 35.975 24.7754 33.15 24.7754C28.375 24.7754 24.5 28.6754 24.5 33.4754C24.5 35.3254 24.8 37.0504 25.3 38.6254C27.75 46.4004 35.35 51.0754 39.1 52.3504C39.625 52.5254 40.5 52.5254 41.025 52.3504C44.775 51.0754 52.375 46.4254 54.825 38.6254C55.35 37.0254 55.625 35.3254 55.625 33.4754C55.65 28.6754 51.775 24.7754 47 24.7754Z" fill="#3E66F3"/>
<path d="M51.875 20.85C51.875 21.425 51.3 21.8 50.75 21.65C47.375 20.775 43.675 21.5 40.875 23.5C40.325 23.9 39.575 23.9 39.05 23.5C37.075 22.05 34.675 21.25 32.15 21.25C25.7 21.25 20.45 26.525 20.45 33.025C20.45 40.075 23.825 45.35 27.225 48.875C27.4 49.05 27.25 49.35 27.025 49.25C20.2 46.925 5 37.275 5 20.85C5 13.6 10.825 7.75 18.025 7.75C22.3 7.75 26.075 9.8 28.45 12.975C30.85 9.8 34.625 7.75 38.875 7.75C46.05 7.75 51.875 13.6 51.875 20.85Z" fill="#3E66F3"/>
</svg>
