<svg width="36" height="40" viewBox="0 0 36 40" fill="none" xmlns="http://www.w3.org/2000/svg">
<path fill-rule="evenodd" clip-rule="evenodd" d="M10.346 0.127155C9.52917 0.393631 8.82784 1.10762 8.64173 1.8621C8.59392 2.05557 8.55484 2.95255 8.55467 3.8554C8.55451 5.76631 8.61498 5.99174 9.23 6.37117L9.58679 6.5913L14.6252 6.61522C18.0657 6.63155 19.7622 6.61224 19.9744 6.55448C20.3506 6.45208 20.7567 6.14613 20.9291 5.83533C20.9991 5.70932 21.0789 5.30785 21.1065 4.94319L21.1567 4.28032L24.539 4.30237L27.9213 4.32441L28.1414 4.52968C28.3197 4.69594 28.3639 4.81476 28.3739 5.15503C28.3838 5.49311 28.3617 5.56932 28.2604 5.5454C28.1912 5.52906 27.6628 5.4992 27.0862 5.47912C24.8559 5.40126 22.9834 6.05701 21.3669 7.4821C18.0308 10.4233 17.9422 15.1601 21.1673 18.1659C22.9419 19.8198 25.3806 20.5873 27.9053 20.2863L28.4309 20.2236L28.4085 29.3017L28.3862 38.3796L28.1123 38.6077L27.8384 38.8358H14.8776C0.784807 38.8358 1.57562 38.8608 1.35429 38.4081C1.27755 38.2512 1.25406 34.2954 1.25406 21.553C1.25406 3.43869 1.22337 4.58667 1.713 4.37874C1.86632 4.31362 2.6256 4.28533 4.22082 4.28533C6.50387 4.28533 6.50907 4.28494 6.69107 4.10444C6.93429 3.86306 6.92356 3.54327 6.66398 3.30134L6.45455 3.10615L3.99856 3.12898C1.5518 3.15181 1.54099 3.15267 1.1265 3.3516C0.658079 3.57642 0.213312 4.06716 0.0837321 4.50224C0.0251065 4.69884 -0.0019839 10.253 0.000112863 21.5996C0.00279673 35.4362 0.0231772 38.4577 0.115687 38.6992C0.281247 39.1315 0.621427 39.5077 1.06821 39.7525L1.46374 39.9692L14.6696 39.9897C29.3328 40.0125 28.3527 40.0466 28.965 39.4923C29.1318 39.3414 29.3529 39.0703 29.4563 38.89L29.6443 38.5622L29.6672 29.2178L29.6902 19.8733L30.3382 19.5753C31.9451 18.8365 33.3157 17.5401 34.0509 16.0636C34.3944 15.3736 34.6951 14.3406 34.7618 13.6209C34.814 13.0575 34.8027 12.9816 34.637 12.7861C34.503 12.6281 34.3801 12.5712 34.1733 12.5712C33.7666 12.5712 33.5819 12.8281 33.5158 13.4854C33.295 15.6806 31.8016 17.6607 29.6636 18.5932C28.3301 19.1748 26.5527 19.3313 25.1617 18.9897C23.5097 18.5838 22.0723 17.6272 21.1783 16.3384C20.4127 15.2348 20.0986 14.2321 20.096 12.8839C20.0926 11.1382 20.6974 9.78448 22.054 8.50103C22.8867 7.71317 23.603 7.29395 24.7379 6.93008C25.4935 6.68783 25.5974 6.67462 26.7508 6.67353C28.1511 6.67228 28.6617 6.7728 29.7282 7.25971C30.9123 7.80033 31.0393 7.51853 28.5767 9.81371L26.4232 11.8208L25.2221 10.7241C24.2439 9.83099 23.9447 9.60328 23.6096 9.49689C22.6036 9.17742 21.5935 9.52746 21.1118 10.3626C20.8059 10.8928 20.7538 11.3016 20.9228 11.8452C21.0575 12.2786 21.15 12.3788 23.1292 14.2338C24.4297 15.4528 25.3221 16.2274 25.5381 16.3248C26.0021 16.5342 26.8279 16.5345 27.2904 16.3255C27.5155 16.2238 29.0174 14.8757 31.7102 12.3585C36.1042 8.25081 36.0015 8.36619 35.9995 7.53338C35.997 6.48131 35.113 5.66867 33.9636 5.66164C33.2803 5.6575 32.8697 5.84518 32.1467 6.49218L31.6265 6.95775L31.2644 6.72621C31.0653 6.59888 30.6342 6.36898 30.3065 6.21546L29.7105 5.93632L29.6667 5.28666C29.5989 4.2811 29.2551 3.71649 28.4701 3.32088C28.1438 3.1565 28.0388 3.15126 24.6448 3.12914L21.1549 3.10639L21.0998 2.54287C21.0694 2.23293 20.9861 1.81333 20.9144 1.6104C20.7474 1.1374 20.1386 0.506116 19.5889 0.235809L19.1605 0.0251452L14.9669 0.00638475C11.1266 -0.0107341 10.7374 -0.000572243 10.346 0.127155ZM19.1754 1.3612C19.3056 1.45117 19.4977 1.64198 19.6024 1.78534C19.7876 2.03908 19.7921 2.09075 19.7701 3.73236L19.7476 5.41877L14.8924 5.43894C11.3764 5.45355 10.0059 5.43479 9.92311 5.37077C9.83379 5.30159 9.80888 4.94648 9.80888 3.74088C9.80888 2.28249 9.81927 2.18103 10.002 1.85898C10.1348 1.62502 10.3107 1.46165 10.5647 1.33642L10.9343 1.15429L14.9365 1.17594C18.8473 1.1972 18.9441 1.20142 19.1754 1.3612ZM34.4769 6.99066C34.6888 7.16935 34.7853 7.49344 34.7071 7.76382C34.6597 7.92821 33.4654 9.09128 30.714 11.6527L26.7885 15.3071H26.4174H26.0462L24.1346 13.5316C22.1679 11.7049 21.969 11.4607 22.1291 11.0684C22.2418 10.7922 22.6181 10.5388 22.9157 10.5388C23.1293 10.5388 23.3936 10.7465 24.6563 11.9068C25.9806 13.1235 26.1757 13.2747 26.4227 13.2747C26.6762 13.2747 26.9987 12.9977 30.1432 10.0789C32.0369 8.32124 33.6428 6.86293 33.712 6.83823C33.9029 6.76999 34.312 6.85152 34.4769 6.99066ZM3.6183 8.82215C3.49853 8.92611 3.4347 9.07447 3.4347 9.24902C3.4347 9.42357 3.49853 9.57194 3.6183 9.6759C3.79384 9.82841 3.90287 9.83529 6.13819 9.83529H8.47458L8.6804 9.64338C8.79362 9.53786 8.8863 9.36041 8.8863 9.24902C8.8863 9.13763 8.79362 8.96019 8.6804 8.85466L8.47458 8.66276H6.13819C3.90287 8.66276 3.79384 8.66964 3.6183 8.82215ZM4.63607 14.3205C3.86857 14.5546 3.39251 14.9533 3.05175 15.6477C2.85356 16.0516 2.8315 16.1769 2.86472 16.7118C2.91168 17.4677 3.21412 18.0215 3.81212 18.4465C5.107 19.3668 6.87449 18.9681 7.67931 17.574C7.80067 17.3638 7.83724 17.1372 7.83699 16.5969C7.83666 15.8246 7.71093 15.5002 7.20259 14.9606C6.64796 14.3718 5.44877 14.0727 4.63607 14.3205ZM9.0111 14.9173C8.80176 15.1329 8.81643 15.5112 9.0423 15.7218C9.22564 15.8927 9.24082 15.8934 13.0611 15.9166C15.1703 15.9293 17.0187 15.9189 17.1689 15.8934C17.4919 15.8385 17.7766 15.5803 17.7766 15.3419C17.7766 15.2484 17.6983 15.0791 17.6027 14.9659L17.4289 14.7599H13.2964C9.26162 14.7599 9.1603 14.7637 9.0111 14.9173ZM5.98404 15.5624C6.52651 15.8523 6.79037 16.575 6.52769 17.0515C6.08451 17.8554 5.09987 18.012 4.44534 17.3825C4.21034 17.1565 4.15532 17.0369 4.12378 16.6822C4.093 16.3362 4.12127 16.2009 4.27165 15.9742C4.63892 15.4203 5.38319 15.2414 5.98404 15.5624ZM9.26078 17.492C8.8535 17.6459 8.72334 18.1364 9.0111 18.4328C9.1603 18.5864 9.26162 18.5902 13.2964 18.5902H17.4289L17.6027 18.3842C17.885 18.0498 17.8015 17.7159 17.3837 17.5085C17.1679 17.4014 9.54183 17.3859 9.26078 17.492ZM4.81857 21.4724C4.04352 21.6612 3.45081 22.102 3.10517 22.7467C2.46004 23.95 3.0213 25.3985 4.353 25.9672C4.63019 26.0856 4.90697 26.1306 5.36373 26.1318C6.38762 26.1344 7.14674 25.6991 7.64811 24.8219C7.80328 24.5503 7.83682 24.3672 7.83733 23.7884C7.83783 23.1541 7.81342 23.0436 7.58915 22.6662C7.3123 22.2004 6.93387 21.8755 6.3914 21.6379C5.9884 21.4613 5.20312 21.3787 4.81857 21.4724ZM9.0111 22.0306C8.78012 22.2684 8.81425 22.6444 9.08667 22.8627L9.31504 23.0458H14.6314H19.9478L20.1754 22.8634C20.4636 22.6323 20.4778 22.2169 20.2046 22.0107C20.0351 21.8827 19.6482 21.8732 14.5932 21.8732C9.25885 21.8732 9.16123 21.876 9.0111 22.0306ZM6.0274 22.7932C6.84908 23.3602 6.80932 24.3985 5.94973 24.8221C5.51453 25.0366 5.26392 25.043 4.8106 24.8511C4.31459 24.6413 4.07531 24.2478 4.12227 23.7196C4.16597 23.2286 4.36047 22.9524 4.81857 22.7307C5.21477 22.5391 5.6951 22.5638 6.0274 22.7932ZM9.33534 24.585C8.87623 24.6688 8.70229 25.2539 9.0423 25.5711C9.22245 25.7391 9.27898 25.743 11.803 25.7668C13.2202 25.7801 14.5026 25.7697 14.6527 25.7437C15.3703 25.6191 15.4759 24.8489 14.8078 24.6122C14.5884 24.5345 9.74471 24.5104 9.33534 24.585ZM4.93766 28.6017C4.17436 28.7119 3.44971 29.2076 3.08655 29.8681C2.83603 30.3235 2.78051 31.1812 2.96763 31.7061C3.14711 32.2098 3.67164 32.7656 4.22116 33.0344C4.58943 33.2145 4.75265 33.2446 5.36373 33.2447C5.9416 33.2449 6.14373 33.2116 6.43073 33.0695C7.00147 32.7867 7.38635 32.4208 7.64132 31.9186C8.5093 30.2086 6.9613 28.3094 4.93766 28.6017ZM9.11233 29.0734C8.73877 29.2759 8.78616 29.8995 9.18798 30.0701C9.33509 30.1327 10.5822 30.1591 13.3812 30.1591H17.3649L17.5707 29.9672C17.6839 29.8617 17.7766 29.6842 17.7766 29.5728C17.7766 29.4614 17.6839 29.284 17.5707 29.1785L17.3649 28.9866L13.3143 28.9889C10.6411 28.9905 9.21222 29.0192 9.11233 29.0734ZM5.78308 29.8101C6.26358 29.9345 6.62179 30.4275 6.62179 30.9644C6.62179 31.8159 5.61534 32.3684 4.77831 31.9763C3.94547 31.5864 3.86588 30.5138 4.62978 29.9748C5.00686 29.7087 5.25461 29.6733 5.78308 29.8101ZM9.04934 31.8666C8.7729 32.0752 8.79052 32.4745 9.08667 32.7119L9.31504 32.895H14.6314H19.9478L20.1754 32.7126C20.4636 32.4815 20.4778 32.0661 20.2046 31.8599C20.0351 31.7319 19.6499 31.7225 14.6314 31.7225C9.51717 31.7225 9.23059 31.7299 9.04934 31.8666Z" fill="#684DF4"/>
</svg>
