<svg width="40" height="40" viewBox="0 0 40 40" fill="none" xmlns="http://www.w3.org/2000/svg">
<path d="M9.99967 31.6665C5.85754 31.6665 3.33301 28.3086 3.33301 24.1665C3.33301 20.0244 6.69087 16.6665 10.833 16.6665H11.6663V14.9998C11.6663 10.3975 15.3973 6.6665 19.9997 6.6665C24.602 6.6665 28.333 10.3975 28.333 14.9998V16.6665H29.1663C33.3085 16.6665 36.6663 20.0244 36.6663 24.1665C36.6663 28.3086 34.1418 31.6665 29.9997 31.6665" stroke="#3E66F3" stroke-width="2.5" stroke-linecap="round" stroke-linejoin="round"/>
<path d="M15 32.5V25.8333C15 25.3731 15.3731 25 15.8333 25H24.1667C24.6269 25 25 25.3731 25 25.8333V32.5C25 32.9602 24.6269 33.3333 24.1667 33.3333H15.8333C15.3731 33.3333 15 32.9602 15 32.5Z" stroke="#3E66F3" stroke-width="2.5" stroke-linecap="round" stroke-linejoin="round"/>
<path d="M16.666 25V23.3333C16.666 21.4924 18.1584 20 19.9993 20V20C21.8403 20 23.3327 21.4924 23.3327 23.3333V25" stroke="#3E66F3" stroke-width="2.5" stroke-linecap="round" stroke-linejoin="round"/>
</svg>
