<svg width="36" height="40" viewBox="0 0 36 40" fill="none" xmlns="http://www.w3.org/2000/svg">
<path fill-rule="evenodd" clip-rule="evenodd" d="M16.618 0.0653968C16.0819 0.275422 15.7948 0.730021 15.7948 1.36877V1.82705L15.2132 2.04278L14.6315 2.25859L14.235 1.9063C13.4491 1.20815 12.9177 1.30695 11.77 2.36465L10.9775 3.09494L10.4906 2.93877C7.64176 2.02535 4.60177 4.12927 4.60177 7.01437C4.60177 7.33992 4.65074 7.78569 4.71066 8.00501L4.81963 8.40372L3.29095 8.43851C1.62581 8.47642 1.40887 8.52308 0.813 8.97127C0.632182 9.10727 0.396058 9.40234 0.264704 9.65629L0.034011 10.1025L0.0107194 14.3291C-0.0123252 18.5242 -0.0111728 18.5572 0.160756 18.7648C0.377211 19.0261 0.81621 19.0519 1.06279 18.8177C1.22319 18.6653 1.22739 18.5571 1.22756 14.5773C1.22764 10.0731 1.21768 10.1649 1.74762 9.79535C1.96177 9.64598 2.11296 9.63152 3.70287 9.6083L5.42603 9.58306L5.91161 10.0442C7.6718 11.7159 10.4175 11.7386 12.2501 10.0967L12.8135 9.59204L23.4336 9.61276C34.0287 9.63339 34.0544 9.63386 34.2862 9.79535C34.414 9.88438 34.5833 10.0778 34.6624 10.2252C34.797 10.4759 34.8064 11.0854 34.8065 19.6189L34.8066 28.7445H18.017H1.22739V24.8363C1.22739 21.0323 1.22303 20.924 1.06279 20.7718C0.81621 20.5376 0.377211 20.5633 0.160756 20.8247C-0.0121604 21.0334 -0.0124898 21.0475 0.0107194 26.3157L0.034011 31.5974L0.257049 31.999C0.379762 32.2199 0.637367 32.5284 0.829543 32.6847C1.47956 33.2131 1.28113 33.1998 8.48495 33.1998H14.9718V34.3268V35.4539L13.0583 35.4811C11.2495 35.5067 11.1235 35.5182 10.755 35.6908C10.2586 35.9235 9.76779 36.3892 9.52451 36.8582C9.37175 37.1527 9.32863 37.3834 9.30608 38.0264L9.27801 38.8275H4.85033C0.646832 38.8275 0.413012 38.835 0.232441 38.9738C-0.0318307 39.177 -0.0318307 39.6505 0.232441 39.8538C0.41688 39.9956 0.949044 40 18.017 40C35.085 40 35.6171 39.9956 35.8016 39.8538C36.0658 39.6505 36.0658 39.177 35.8016 38.9738C35.621 38.835 35.3872 38.8275 31.1856 38.8275H26.7597L26.7276 38.0264C26.7023 37.3939 26.6558 37.148 26.5074 36.8582C26.2675 36.3905 25.7769 35.9242 25.279 35.6908C24.9105 35.5182 24.7845 35.5067 22.9757 35.4811L21.0622 35.4539V34.3268V33.1998H23.4378C25.7166 33.1998 25.8224 33.1931 26.0303 33.0377C26.3021 32.8348 26.3277 32.4164 26.0826 32.1836C25.9195 32.0287 25.8082 32.0273 14.0048 32.0272C2.82775 32.0271 2.07378 32.0186 1.8035 31.8904C1.36879 31.6842 1.21982 31.334 1.2464 30.5813L1.26854 29.956H18.017H34.7655L34.7876 30.5813C34.8142 31.334 34.6652 31.6842 34.2305 31.8904C33.9731 32.0125 33.6424 32.0271 31.1236 32.0272C28.4146 32.0273 28.2983 32.0334 28.1402 32.1836C27.9756 32.34 27.9183 32.763 28.0385 32.934C28.2092 33.1767 28.4872 33.1998 31.2473 33.1998C34.38 33.1998 34.6072 33.1702 35.2045 32.6847C35.3966 32.5284 35.6542 32.2199 35.777 31.999L36 31.5974V20.8499V10.1025L35.8253 9.74376C35.6023 9.28596 35.1314 8.83871 34.6493 8.62696C34.2854 8.46704 34.1395 8.46016 30.6298 8.4364L26.9879 8.4117L26.9874 7.96742C26.9869 7.33976 26.8688 7.00929 26.5355 6.70257C26.2757 6.46339 26.1892 6.43283 25.6911 6.40391C25.3858 6.38625 25.0939 6.3395 25.0423 6.30011C24.9908 6.26079 24.8659 6.01872 24.7649 5.76234L24.5813 5.2961L24.8725 4.99001C25.2797 4.56207 25.3609 4.3894 25.3609 3.95255C25.3609 3.46848 25.1578 3.18099 24.1896 2.29454C23.1172 1.31273 22.5676 1.22347 21.799 1.9063L21.4025 2.25859L20.8208 2.04278L20.2392 1.82705V1.34509C20.2392 0.815298 20.0694 0.487714 19.6367 0.182877C19.4274 0.035382 19.2784 0.0176389 18.1141 0.00208434C17.3702 -0.00792059 16.7365 0.0188895 16.618 0.0653968ZM19.0064 1.56309C19.0087 2.06873 19.2324 2.55858 19.5633 2.78236C19.7 2.87483 19.837 2.95049 19.8677 2.95049C19.8984 2.95049 20.1767 3.05601 20.4861 3.18498C21.3623 3.55016 21.8981 3.47802 22.4582 2.91946L22.7432 2.63526L23.4252 3.27964C23.8005 3.63411 24.1074 3.95872 24.1074 4.00101C24.1074 4.04329 23.9531 4.22721 23.7647 4.40957C23.4672 4.69737 23.4173 4.79593 23.3867 5.15509C23.3576 5.49776 23.4028 5.68934 23.6499 6.26916C24.0823 7.28419 24.2943 7.45537 25.2207 7.53752L25.7534 7.58473V8.00337V8.42194H23.587H21.4204L21.3257 7.93834C21.1223 6.89939 20.4538 6.06812 19.4409 5.59453C18.9176 5.34988 18.8334 5.33448 18.0187 5.33448C17.2205 5.33448 17.1106 5.35347 16.6128 5.57749C15.6139 6.02708 14.9122 6.89681 14.7083 7.93834L14.6136 8.42194H14.0021C13.4608 8.42194 13.3967 8.4067 13.4441 8.28937C13.4735 8.21652 13.5396 7.89996 13.591 7.5859C13.778 6.44354 13.3244 5.04433 12.4787 4.15554L12.1008 3.75831L12.6959 3.19686L13.2911 2.63541L13.5759 2.91954C14.1359 3.47802 14.6718 3.55016 15.5479 3.18498C15.8573 3.05601 16.1356 2.95049 16.1663 2.95049C16.197 2.95049 16.334 2.87483 16.4707 2.78236C16.8017 2.55858 17.0253 2.06873 17.0276 1.56309L17.0294 1.15273H18.017H19.0046L19.0064 1.56309ZM9.91026 3.99468C10.5239 4.15038 10.9993 4.40715 11.4286 4.815C13.0269 6.33286 12.5817 8.85285 10.5467 9.80762C9.94466 10.09 9.88342 10.1024 9.09119 10.1008C8.33055 10.0993 8.22084 10.0792 7.72316 9.84936C7.06302 9.54452 6.41061 8.91616 6.09934 8.28539C5.90248 7.88652 5.87746 7.74301 5.87746 7.01499C5.87746 6.28815 5.90272 6.14316 6.09802 5.74734C6.35802 5.22052 6.94483 4.59872 7.44457 4.32062C8.16241 3.92105 9.12065 3.79442 9.91026 3.99468ZM10.1851 5.78392C9.96556 6.00965 9.53611 6.46449 9.23085 6.79473C8.92551 7.12497 8.63869 7.3944 8.59342 7.39354C8.54816 7.3926 8.28652 7.13998 8.01196 6.83217C7.61378 6.38562 7.46012 6.26752 7.25206 6.24805C6.93495 6.21835 6.57702 6.51654 6.57702 6.81036C6.57702 7.04415 8.14331 8.85285 8.40125 8.91695C8.494 8.94 8.65474 8.9282 8.75836 8.89076C8.93901 8.82557 11.0715 6.66537 11.3727 6.24242C11.6452 5.85981 11.3652 5.37356 10.8723 5.37356C10.6302 5.37356 10.5203 5.43922 10.1851 5.78392ZM18.6913 6.55977C19.3361 6.74322 19.9848 7.45842 20.118 8.1325L20.1752 8.42194H18.017H15.8588L15.916 8.1325C16.044 7.48483 16.6907 6.74971 17.294 6.5661C17.6669 6.45261 18.3046 6.44972 18.6913 6.55977ZM5.57343 12.7521C5.1662 12.8562 5.05814 12.9184 4.61511 13.3031C4.14294 13.7132 3.98739 14.0821 3.98739 14.7923C3.98739 15.5298 4.14738 15.8858 4.6872 16.3489C5.39072 16.9525 4.19109 16.9027 18.017 16.9027C31.8429 16.9027 30.6433 16.9525 31.3468 16.3489C31.8866 15.8858 32.0466 15.5298 32.0466 14.7923C32.0466 14.0547 31.8866 13.6988 31.3468 13.2356C30.8358 12.7971 30.5254 12.7007 29.4981 12.6611C28.6619 12.6288 28.5755 12.6391 28.3665 12.7964C28.0853 13.008 28.0557 13.4224 28.3048 13.6589C28.4451 13.7922 28.5791 13.8152 29.2127 13.8152C30.0924 13.8152 30.4551 13.934 30.6894 14.2991C30.9005 14.6278 30.9005 14.9567 30.6894 15.2855C30.3923 15.7482 30.2453 15.7693 27.3198 15.7693H24.6835V14.7923V13.8152H25.383C25.9729 13.8152 26.1084 13.7907 26.2472 13.6589C26.4923 13.4261 26.4667 13.0078 26.1949 12.8048C25.9782 12.6428 25.9745 12.6428 15.9689 12.648C8.17656 12.6521 5.87416 12.6752 5.57343 12.7521ZM23.4078 14.7923V15.7302L14.8072 15.753C9.1046 15.7682 6.10798 15.7489 5.91367 15.6958C5.43673 15.5653 5.21904 15.2827 5.21904 14.7941C5.21904 14.4893 5.26282 14.3322 5.38364 14.2035C5.75606 13.8072 5.43311 13.8198 14.7249 13.8377L23.4078 13.8543V14.7923ZM4.97329 18.0492C4.52128 18.3868 4.51947 18.4053 4.51947 22.6086C4.51947 26.8119 4.52128 26.8305 4.97329 27.1681C5.19698 27.3352 5.24348 27.3375 8.34652 27.3375C11.4495 27.3375 11.496 27.3352 11.7197 27.1681C12.1627 26.8372 12.1736 26.7465 12.1736 23.3903C12.1736 20.9315 12.1503 20.2462 12.0597 20.0463C11.9972 19.9079 11.4846 19.3639 10.9208 18.8372L9.89561 17.8797H7.54786C5.26406 17.8797 5.19394 17.8843 4.97329 18.0492ZM10.1762 19.7736L10.939 20.4951V23.3301V26.1651H8.34652H5.754V22.6086V19.0522H7.58366H9.41332L10.1762 19.7736ZM14.4141 19.8773C14.1656 20.0426 14.1602 20.5302 14.4044 20.7401C14.5645 20.8778 14.7257 20.889 16.5419 20.889C18.4545 20.889 18.511 20.8845 18.6869 20.7175C18.9086 20.5069 18.9231 20.1286 18.7176 19.913C18.5752 19.7636 18.4674 19.7556 16.5823 19.7556C14.9186 19.7556 14.5673 19.7753 14.4141 19.8773ZM19.9243 19.9365C19.5957 20.2687 19.7734 20.7767 20.2577 20.8896C20.3606 20.9136 22.8462 20.9233 25.7811 20.9111L31.1173 20.889L31.3159 20.6697C31.5592 20.401 31.5661 20.2297 31.3439 19.9616L31.1734 19.7556H25.6383H20.1033L19.9243 19.9365ZM6.66253 20.3176C6.33703 20.6494 6.52896 21.1674 7.02088 21.2848C7.13157 21.3111 7.6472 21.3208 8.16685 21.3063C9.27381 21.2753 9.45759 21.187 9.45759 20.686C9.45759 20.2063 9.29167 20.1465 7.96101 20.1465C6.90384 20.1465 6.8194 20.1576 6.66253 20.3176ZM6.69677 22.2143C6.58566 22.3198 6.49472 22.4972 6.49472 22.6086C6.49472 22.72 6.58566 22.8974 6.69677 23.003C6.89578 23.192 6.92006 23.1948 8.3317 23.1948C9.65668 23.1948 9.78096 23.1826 9.98145 23.0328C10.2814 22.8088 10.2814 22.4084 9.98145 22.1844C9.78096 22.0346 9.65668 22.0224 8.3317 22.0224C6.92006 22.0224 6.89578 22.0252 6.69677 22.2143ZM14.3957 22.804C14.1506 23.0368 14.1762 23.4551 14.448 23.6581C14.95 24.0332 15.7948 23.7636 15.7948 23.2282C15.7948 22.82 15.5628 22.6477 15.013 22.6477C14.67 22.6477 14.5204 22.6856 14.3957 22.804ZM16.8648 22.804C16.6197 23.0368 16.6453 23.4551 16.917 23.6581C17.4191 24.0332 18.2639 23.7636 18.2639 23.2282C18.2639 22.82 18.0318 22.6477 17.482 22.6477C17.1391 22.6477 16.9895 22.6856 16.8648 22.804ZM19.3338 22.804C19.0887 23.0368 19.1143 23.4551 19.3861 23.6581C19.8881 24.0332 20.733 23.7636 20.733 23.2282C20.733 22.82 20.5009 22.6477 19.9511 22.6477C19.6082 22.6477 19.4585 22.6856 19.3338 22.804ZM21.8029 22.804C21.5578 23.0368 21.5834 23.4551 21.8552 23.6581C22.3572 24.0332 23.202 23.7636 23.202 23.2282C23.202 22.82 22.9699 22.6477 22.4202 22.6477C22.0772 22.6477 21.9276 22.6856 21.8029 22.804ZM24.272 22.804C24.0269 23.0368 24.0525 23.4551 24.3242 23.6581C24.5352 23.8157 24.6284 23.8202 27.7359 23.8202C29.935 23.8202 30.9943 23.7926 31.1347 23.7318C31.5523 23.5512 31.5894 22.9313 31.1947 22.7306C31.0875 22.6762 29.901 22.6477 27.7341 22.6477C24.5463 22.6477 24.431 22.6529 24.272 22.804ZM6.84985 23.9744C6.46855 24.1258 6.37925 24.6279 6.68517 24.9008C6.86631 25.0624 6.94903 25.0708 8.36915 25.0708C9.79956 25.0708 9.86976 25.0636 10.0305 24.8997C10.2411 24.685 10.2456 24.3619 10.0411 24.1219C9.88803 23.9422 9.84713 23.9369 8.4568 23.9203C7.67189 23.9108 6.94878 23.9352 6.84985 23.9744ZM14.3957 25.6961C14.1506 25.9288 14.1762 26.3472 14.448 26.5502C14.664 26.7116 14.6945 26.7122 22.7978 26.7122C28.667 26.7122 30.9875 26.6877 31.1347 26.6239C31.5523 26.4432 31.5894 25.8233 31.1947 25.6227C31.0828 25.5658 28.4437 25.5397 22.796 25.5397C14.67 25.5397 14.5581 25.5419 14.3957 25.6961ZM19.8277 34.3331V35.4665H18.017H16.2064V34.3331V33.1998H18.017H19.8277V34.3331ZM24.9038 36.8416C25.378 37.1753 25.5065 37.4595 25.5065 38.1747V38.8275H18.017H10.5275V38.1983C10.5275 37.3799 10.7687 36.9485 11.3506 36.726C11.4837 36.6752 13.8695 36.6528 18.1139 36.6627C24.6261 36.678 24.6731 36.6791 24.9038 36.8416Z" fill="#684DF4"/>
</svg>
