<svg width="40" height="40" viewBox="0 0 40 40" fill="none" xmlns="http://www.w3.org/2000/svg">
<path fill-rule="evenodd" clip-rule="evenodd" d="M35.3468 0.0479005C34.0626 0.470953 33.3274 1.73377 33.6557 2.95262C33.7195 3.1893 33.7477 3.40446 33.7185 3.43075C33.5531 3.57972 26.9228 8.87981 26.8399 8.92941C26.7836 8.96298 26.5834 8.9133 26.3817 8.81565C25.8879 8.57647 25.0891 8.52569 24.564 8.70017C24.0228 8.88004 23.379 9.47444 23.1427 10.0124C22.945 10.4624 22.899 11.3383 23.0529 11.7237C23.1451 11.9549 23.6229 11.5406 18.7434 15.4615L16.1777 17.523L15.6933 17.3047C15.1067 17.0403 14.4439 17.0119 13.8809 17.227L13.5093 17.3689L12.7835 16.6353C12.3843 16.2318 10.7195 14.518 9.08391 12.8269L6.11008 9.75228L6.27556 9.38431C6.52723 8.82465 6.50877 8.0445 6.23036 7.47529C5.80406 6.60353 5.03898 6.12837 4.0647 6.13032C3.10911 6.13228 2.38125 6.58005 1.95871 7.426C1.64182 8.06038 1.61969 8.87895 1.90287 9.48735C2.131 9.97754 2.7708 10.5643 3.25794 10.7305C3.72302 10.889 4.40865 10.8897 4.89641 10.7321L5.27688 10.6092L6.56727 11.9243C7.27698 12.6476 8.43786 13.8384 9.14702 14.5705C9.85611 15.3026 10.9395 16.4138 11.5545 17.0397L12.6726 18.1778L12.502 18.5636C12.1363 19.3907 12.3547 20.4738 13.0218 21.1412C14.1044 22.2243 15.9877 21.9948 16.7336 20.689C17.1275 19.9993 17.1945 19.2811 16.9295 18.5901C16.892 18.4924 17.6708 17.8267 20.2245 15.7736C22.0637 14.2948 23.6324 13.0386 23.7106 12.9819C23.8325 12.8936 23.9169 12.9103 24.3014 13.0992C25.2443 13.5625 26.4278 13.3228 27.1282 12.5266C27.6498 11.9339 27.855 10.9463 27.6103 10.2067C27.5167 9.92402 27.522 9.90282 27.7265 9.74195C27.8442 9.64924 29.4175 8.38681 31.2226 6.93644L34.5045 4.29955L34.9028 4.50626C35.2432 4.68301 35.3983 4.7129 35.9691 4.71196C36.5415 4.71102 36.6946 4.68074 37.0378 4.50047C37.5488 4.23226 38.0392 3.67557 38.2053 3.17522C38.3889 2.62236 38.335 1.7804 38.0844 1.28373C37.8537 0.826717 37.408 0.408751 36.9218 0.193586C36.5331 0.0216113 35.6692 -0.0582733 35.3468 0.0479005ZM36.526 1.31268C36.9438 1.52596 37.1449 1.87046 37.1452 2.37379C37.1457 3.11677 36.6039 3.61806 35.8689 3.55469C35.3945 3.51377 35.1236 3.3191 34.8885 2.85012C34.6749 2.42394 34.6994 2.10831 34.9788 1.68996C35.323 1.17442 35.9537 1.0206 36.526 1.31268ZM4.61511 7.43195C5.07527 7.66409 5.35712 8.18917 5.2768 8.6648C5.09224 9.7576 3.62042 10.0548 3.04764 9.11485C2.83883 8.7723 2.83993 8.17955 3.04991 7.83959C3.22267 7.56011 3.75274 7.25606 4.06767 7.25598C4.17685 7.2559 4.42319 7.33516 4.61511 7.43195ZM25.9659 9.93591C26.3253 10.1782 26.5227 10.5456 26.5227 10.9724C26.5227 11.4471 26.31 11.7928 25.8822 12.0142C25.2083 12.3627 24.4708 12.0772 24.1979 11.3623C23.9832 10.7999 24.1914 10.2504 24.75 9.90524C25.0823 9.69986 25.6365 9.71386 25.9659 9.93591ZM33.8 9.86996C33.0092 10.0673 32.2898 10.7315 32.0312 11.5032C31.918 11.8409 31.9058 13.1596 31.9058 24.9383C31.9058 37.9671 31.9061 38.0001 32.0681 38.4331C32.2654 38.9608 32.8038 39.5367 33.3526 39.8072C33.7404 39.9984 33.7617 40 35.9724 40H38.2013L38.6093 39.7848C39.1274 39.5116 39.5118 39.127 39.7849 38.6086L40 38.2004V24.9385V11.6766L39.781 11.2303C39.517 10.6926 38.9294 10.1404 38.4159 9.94781C38.104 9.83076 37.7395 9.80525 36.1288 9.7878C34.7442 9.7727 34.0983 9.79555 33.8 9.86996ZM38.1386 11.1092C38.2761 11.1845 38.4873 11.3754 38.6078 11.5334L38.8269 11.8208L38.8493 24.6977C38.8616 31.7799 38.8511 37.6897 38.8259 37.8304C38.769 38.1483 38.3652 38.6193 38.0291 38.7598C37.8411 38.8383 37.3065 38.8655 35.9481 38.8655C34.1859 38.8655 34.1077 38.8589 33.7754 38.6836C33.5606 38.5702 33.365 38.386 33.2561 38.1946L33.0814 37.8875L33.0801 24.9556C33.0788 10.9734 33.0556 11.7392 33.4914 11.3374C33.8863 10.9733 34.1565 10.9334 36.0897 10.9536C37.6314 10.9697 37.9242 10.9919 38.1386 11.1092ZM1.42473 15.3958C0.883234 15.6666 0.447475 16.1092 0.204256 16.6353C0.0377574 16.9956 0.0370535 17.0243 0.0160163 24.4479C-0.00486446 31.8329 -0.00361317 31.9004 0.152875 32.0569C0.36184 32.266 0.806515 32.2668 1.0147 32.0585C1.16884 31.9043 1.17111 31.7977 1.17111 24.6662C1.17111 16.5391 1.13897 16.9957 1.74193 16.5587L2.05483 16.3319H4.06486C6.02061 16.3319 6.08193 16.3367 6.33343 16.508C6.47561 16.6048 6.66557 16.7834 6.75559 16.9049L6.91919 17.1258L6.9396 27.4983L6.96001 37.8708L6.76474 38.2041C6.63429 38.4269 6.45715 38.5919 6.23083 38.7015C5.91699 38.8535 5.76003 38.8655 4.08417 38.8655C2.1665 38.8655 1.98405 38.8377 1.61117 38.4888C1.21373 38.1171 1.17111 37.9074 1.17111 36.3251C1.17111 34.9795 1.15985 34.8639 1.0147 34.7187C0.803934 34.5078 0.361762 34.5113 0.147792 34.7253C-0.00900935 34.8822 -0.0141709 34.9515 0.0119497 36.5445C0.0386959 38.1727 0.0427625 38.2073 0.253213 38.6086C0.524741 39.1264 0.90912 39.5112 1.42786 39.7848L1.83585 40H4.0647C6.20815 40 6.30794 39.9933 6.66909 39.825C7.19729 39.5788 7.77022 38.9646 7.97011 38.4302C8.13333 37.9937 8.13356 37.9783 8.11292 27.4559L8.09227 16.9187L7.88151 16.5191C7.61279 16.0094 7.0146 15.471 6.52152 15.2948C6.19087 15.1767 5.84105 15.1576 4.01856 15.1579L1.8999 15.1583L1.42473 15.3958ZM22.8367 17.5996C22.2502 17.8249 21.6601 18.4239 21.4371 19.0204L21.2673 19.474L21.2881 28.8373L21.309 38.2004L21.5004 38.5896C21.7443 39.0855 22.2176 39.559 22.7166 39.8063C23.1051 39.9987 23.1222 40 25.3365 40H27.5654L28.0737 39.72C28.4051 39.5374 28.681 39.3097 28.8663 39.0655C29.4266 38.3275 29.4032 38.6685 29.4032 31.2279C29.4032 24.6516 29.4008 24.5449 29.2468 24.3908C29.029 24.1729 28.6167 24.1849 28.4001 24.4154L28.2301 24.5965V31.1859C28.2301 38.3495 28.2475 38.0609 27.7901 38.4888C27.4172 38.8377 27.2347 38.8655 25.317 38.8655C23.6412 38.8655 23.4842 38.8535 23.1704 38.7015C22.9446 38.5921 22.7669 38.4269 22.6373 38.2056L22.4429 37.8737V28.7428C22.4429 19.8011 22.4461 19.6056 22.5975 19.3085C22.6826 19.1418 22.8673 18.9231 23.0081 18.8227C23.2582 18.6443 23.3101 18.6396 25.2583 18.6197C27.2045 18.5999 27.2601 18.6037 27.5654 18.7765C28.0826 19.0694 28.2301 19.465 28.2301 20.5599C28.2301 21.4086 28.2421 21.4798 28.4111 21.6387C28.6451 21.8587 29.0376 21.8616 29.254 21.6452C29.4073 21.4917 29.4159 21.4125 29.3908 20.3737C29.366 19.3467 29.3481 19.2334 29.1446 18.8189C28.8755 18.2704 28.3568 17.799 27.789 17.5864C27.4001 17.4408 27.1896 17.4276 25.314 17.4314C23.4257 17.4351 23.2304 17.4484 22.8367 17.5996ZM15.3392 18.4249C15.9601 18.7905 16.0896 19.6915 15.5993 20.2345C15.1024 20.7847 14.3394 20.8106 13.8646 20.2935C13.2829 19.66 13.3872 18.8828 14.1141 18.4336C14.4167 18.2465 15.0288 18.2422 15.3392 18.4249ZM12.6991 24.3897C11.8905 24.5589 11.1776 25.1131 10.8574 25.8215L10.673 26.2295L10.6515 32.0559C10.6275 38.5593 10.6104 38.3272 11.1689 39.063C11.3562 39.3097 11.6307 39.5367 11.9634 39.72L12.4718 40H14.7006C16.9149 40 16.932 39.9987 17.3205 39.8063C17.8195 39.559 18.2928 39.0855 18.5367 38.5896L18.7282 38.2004V32.1758V26.1512L18.5174 25.7516C18.2529 25.2501 17.6288 24.6822 17.1441 24.5021C16.835 24.3873 16.4598 24.3608 14.8961 24.3435C13.8638 24.3321 12.8751 24.3529 12.6991 24.3897ZM16.5947 25.5679C16.9675 25.6715 17.3515 25.9955 17.4875 26.3211C17.5743 26.5288 17.5942 27.6275 17.5942 32.2002V37.8237L17.4141 38.1645C17.2898 38.3996 17.1263 38.5622 16.8864 38.6891C16.5449 38.8697 16.5057 38.8725 14.6167 38.8496C12.7133 38.8266 12.6917 38.8244 12.406 38.6308C12.2473 38.5232 12.0477 38.292 11.9623 38.117C11.8118 37.8088 11.807 37.626 11.807 32.1877C11.807 26.1367 11.7976 26.2793 12.2196 25.8903C12.5952 25.5441 12.9053 25.4932 14.6615 25.49C15.5648 25.4884 16.4347 25.5234 16.5947 25.5679Z" fill="#684DF4"/>
</svg>
