<svg width="36" height="40" viewBox="0 0 36 40" fill="none" xmlns="http://www.w3.org/2000/svg">
<path fill-rule="evenodd" clip-rule="evenodd" d="M9.17471 0.124265C8.8044 0.312916 8.68809 0.487266 8.27754 1.46819L7.89649 2.37878L7.29447 2.64042L6.69245 2.90206L5.84248 2.5443C4.93215 2.16105 4.47071 2.09557 4.09866 2.29703C3.98636 2.35783 3.5163 2.80617 3.0541 3.29343C2.16087 4.23496 1.98414 4.54912 2.08336 5.01958C2.18318 5.49347 2.80796 6.99197 2.96298 7.12936C3.29654 7.42507 3.85667 7.15976 3.85667 6.70603C3.85667 6.59693 3.70218 6.12655 3.51327 5.66071L3.16995 4.81373L3.87104 4.08625C4.25663 3.68605 4.61666 3.35868 4.67118 3.35868C4.72571 3.35868 5.14185 3.51693 5.59595 3.71035C6.05005 3.90377 6.53358 4.06218 6.67045 4.06233C7.02277 4.06288 8.43711 3.45832 8.68643 3.20067C8.80183 3.08141 9.05712 2.58032 9.2585 2.0779L9.62209 1.17052H10.6568H11.6916L12.0605 2.08877C12.2723 2.61604 12.5156 3.09087 12.6318 3.20395C12.8894 3.45449 14.3259 4.06398 14.6561 4.06288C14.7938 4.06241 15.2803 3.90377 15.7373 3.71035C16.1942 3.51693 16.6098 3.35868 16.6607 3.35868C16.7947 3.35868 18.0734 4.70714 18.0734 4.84843C18.0734 4.91392 17.9203 5.36124 17.7331 5.8424C17.546 6.32357 17.3928 6.80809 17.3928 6.91906C17.3928 7.22228 18.0036 8.74102 18.2224 8.98179C18.3326 9.10308 18.7912 9.35519 19.3042 9.57651L20.1947 9.96068L20.1739 11.0408L20.153 12.1209L19.2947 12.5005C18.8227 12.7093 18.3559 12.9584 18.2575 13.054C18.0382 13.2668 17.3922 14.8214 17.3945 15.1305C17.3954 15.2537 17.5607 15.7821 17.7619 16.3048L18.1275 17.2552L17.3991 18.0052L16.6706 18.7551L15.8029 18.3921C15.2726 18.1702 14.8175 18.029 14.6327 18.029C14.2606 18.0289 12.899 18.6039 12.6217 18.8782C12.5139 18.9849 12.2787 19.4434 12.099 19.8971C11.9192 20.3508 11.7243 20.7715 11.6657 20.8321C11.5218 20.9807 9.71941 20.9917 9.62723 20.8445C9.59358 20.7908 9.4254 20.3981 9.25351 19.9718C9.08162 19.5456 8.85537 19.086 8.75071 18.9504C8.51167 18.6407 7.14648 18.0299 6.69245 18.0294C6.50681 18.0291 6.05452 18.1694 5.52162 18.3924L4.65326 18.7556L3.92019 17.9929L3.1872 17.2301L3.55872 16.2923C3.76297 15.7765 3.93063 15.2728 3.93123 15.1728C3.93289 14.8814 3.32732 13.3639 3.10999 13.1152C2.98642 12.9737 2.58283 12.7429 2.04177 12.5043L1.17212 12.1209L1.15125 11.0387L1.13038 9.95662L1.92841 9.61785C2.73748 9.27454 2.94922 9.09847 2.94922 8.76907C2.94922 8.54369 2.63168 8.2039 2.421 8.2039C2.20798 8.2039 0.655634 8.88262 0.407673 9.08425C0.0570939 9.36918 0 9.64559 0 11.0577C0 12.8245 0.0430282 12.898 1.43597 13.5075L2.28685 13.8798L2.53791 14.5232L2.78905 15.1666L2.46071 15.9765C1.86088 17.4561 1.88092 17.56 2.99731 18.7541C3.80714 19.6204 4.24158 19.9271 4.65568 19.9251C4.77773 19.9246 5.2859 19.754 5.785 19.546L6.69245 19.168L7.29553 19.4345C7.62721 19.581 7.90443 19.7076 7.91146 19.7158C7.9185 19.7241 8.08403 20.1253 8.27921 20.6074C8.70624 21.6624 8.92388 21.9147 9.51607 22.0417C10.0611 22.1587 11.8419 22.1053 12.0994 21.9643C12.4982 21.7459 12.7014 21.451 13.0467 20.5891L13.4 19.7078L14.0125 19.4407L14.6251 19.1738L15.5363 19.5483C16.0375 19.7542 16.5422 19.9235 16.6579 19.9245C17.0516 19.9277 17.3541 19.7089 18.238 18.7816C19.4527 17.5072 19.4598 17.4703 18.8025 15.8403L18.5258 15.1539L18.7805 14.5175L19.0354 13.8812L19.8877 13.5082C21.2829 12.8976 21.3251 12.8255 21.3251 11.0525C21.3251 9.22913 21.2919 9.1699 19.9458 8.59191C19.5191 8.40873 19.1306 8.22008 19.0826 8.17272C19.0345 8.12544 18.8894 7.82668 18.76 7.50893L18.5247 6.93125L18.8389 6.14132C19.4604 4.57921 19.4507 4.53029 18.2737 3.29343C17.81 2.80617 17.3388 2.35783 17.2265 2.29703C16.8554 2.09611 16.4008 2.16129 15.4934 2.54531L14.6454 2.90425L14.1242 2.68739C13.8375 2.56813 13.552 2.43207 13.4899 2.38503C13.4276 2.33806 13.2281 1.93802 13.0464 1.49609C12.6291 0.481249 12.543 0.34863 12.1769 0.155603C11.9136 0.0167329 11.734 -0.00147575 10.6467 8.72244e-05C9.68394 0.0014939 9.36233 0.0286115 9.17471 0.124265ZM26.4989 0.0740159C26.2543 0.176313 25.9898 0.547988 25.788 1.07291C25.6234 1.50117 25.5699 1.56595 25.2888 1.67685C24.9901 1.79477 24.9529 1.79251 24.5674 1.63324C23.553 1.21428 23.3969 1.25015 22.5958 2.08666C21.7723 2.94645 21.7215 3.16441 22.125 4.10719C22.3086 4.53623 22.3105 4.55858 22.191 4.88204C22.0781 5.18721 22.0253 5.2323 21.5576 5.42189C21.277 5.53567 20.9483 5.73558 20.8271 5.86624C20.612 6.09803 20.6061 6.12655 20.5809 7.05613C20.5468 8.31745 20.6038 8.4346 21.4471 8.83745C21.9915 9.09745 22.0739 9.16497 22.1793 9.43717C22.2945 9.73468 22.291 9.76281 22.0636 10.3784C21.7456 11.2393 21.7953 11.4024 22.6313 12.2458C23.4293 13.0508 23.596 13.0982 24.4033 12.75C24.9533 12.5127 24.9716 12.5102 25.268 12.6328C25.538 12.7445 25.6015 12.8264 25.8564 13.392C26.2406 14.2448 26.3389 14.2995 27.4882 14.2995C28.626 14.2995 28.7202 14.2469 29.1135 13.3921C29.3711 12.8323 29.4401 12.7438 29.7032 12.6349C29.9933 12.515 30.0164 12.5182 30.5668 12.7523C31.3945 13.1044 31.5523 13.0565 32.3785 12.2026C33.1986 11.3552 33.2347 11.2259 32.8977 10.3446C32.6685 9.74531 32.6648 9.71639 32.7796 9.43232C32.8829 9.17685 32.9796 9.10003 33.5255 8.83941C34.3659 8.43819 34.4294 8.30604 34.3948 7.03081C34.3704 6.1289 34.3638 6.09725 34.1494 5.86624C34.0281 5.73558 33.6999 5.53591 33.4201 5.42243C32.962 5.23667 32.899 5.18431 32.7905 4.89868C32.6726 4.58859 32.6754 4.56639 32.9083 3.93245C33.2323 3.05109 33.1831 2.88752 32.3428 2.05383C31.5222 1.23976 31.4171 1.21686 30.4091 1.63324C30.02 1.79391 29.9886 1.79563 29.678 1.67309C29.3849 1.55736 29.3372 1.50007 29.1857 1.0812C28.8461 0.142865 28.6133 -0.00366391 27.4731 0.00321317C27.0239 0.00594838 26.5855 0.037833 26.4989 0.0740159ZM28.2305 1.7371C28.5335 2.40957 28.6239 2.49983 29.2594 2.76514C29.8703 3.02022 30.122 3.0196 30.7462 2.76131L31.2455 2.55477L31.5924 2.91324L31.9393 3.2717L31.7366 3.80554C31.4844 4.46988 31.4835 4.68752 31.7302 5.3185C31.9869 5.97526 32.0742 6.06865 32.725 6.38179L33.2732 6.6457V7.17218V7.69867L32.8109 7.88842C32.1813 8.14685 32.0457 8.274 31.8023 8.83456C31.4883 9.55775 31.4753 9.83447 31.7256 10.4769L31.9383 11.0228L31.6069 11.3717C31.4247 11.5636 31.2375 11.7206 31.1909 11.7206C31.1444 11.7206 30.8884 11.6292 30.6223 11.5173C30.0328 11.2698 29.7813 11.2918 29.0664 11.6533C28.5593 11.9097 28.5401 11.9304 28.2623 12.5216L27.9776 13.1273H27.467H26.9562L26.7726 12.6495C26.5138 11.9759 26.3903 11.8452 25.7543 11.5716C25.079 11.2811 24.9021 11.2756 24.3121 11.5267C24.0626 11.633 23.8229 11.72 23.7796 11.7202C23.7363 11.7204 23.5518 11.5636 23.3696 11.3718L23.0383 11.023L23.2404 10.4907C23.4975 9.81353 23.4941 9.64973 23.2085 8.94077C22.9438 8.28354 22.8173 8.15592 22.1656 7.88842L21.7032 7.69867V7.17531V6.65195L22.2893 6.35342C22.853 6.06622 22.8849 6.03504 23.127 5.53708C23.4784 4.81428 23.5027 4.51771 23.2615 3.89471C23.1531 3.61462 23.0644 3.35165 23.0644 3.31023C23.0644 3.26881 23.2168 3.0804 23.403 2.89151L23.7417 2.54805L24.2364 2.75795C24.853 3.01967 25.1044 3.02092 25.717 2.76514C26.3527 2.49975 26.4427 2.40941 26.7412 1.7371L26.9929 1.17052H27.484H27.9751L28.2305 1.7371ZM26.6376 3.79202C26.0545 3.95425 25.6594 4.18612 25.1989 4.6361C23.4479 6.34756 23.8974 9.22577 26.0843 10.3051C26.6348 10.5767 26.688 10.5874 27.4921 10.5874C28.3076 10.5874 28.3421 10.5802 28.9098 10.2902C30.1834 9.63973 30.9349 8.32855 30.8369 6.92812C30.7999 6.39859 30.621 6.17204 30.24 6.17204C29.8725 6.17204 29.719 6.40953 29.719 6.97837C29.719 7.77948 29.5455 8.23954 29.0506 8.7504C28.5642 9.2525 28.1134 9.45428 27.4776 9.45428C26.2933 9.45428 25.2574 8.39701 25.2574 7.1882C25.2574 6.31098 25.7321 5.50863 26.4958 5.0953C26.8223 4.91861 26.9785 4.88563 27.4882 4.88571C28.0223 4.88579 28.1483 4.91541 28.5636 5.13821C29.1175 5.43533 29.1817 5.44189 29.4442 5.22855C29.6921 5.027 29.7174 4.60734 29.4953 4.37782C28.9393 3.80327 27.5907 3.52678 26.6376 3.79202ZM9.39333 6.01722C7.66078 6.48627 6.17944 8.04323 5.77941 9.81564C5.62537 10.4979 5.62786 11.6927 5.78455 12.3067C6.23495 14.0712 7.47929 15.4191 9.18795 15.9931C9.69657 16.164 9.93138 16.1964 10.6626 16.1964C11.3952 16.1964 11.6276 16.1643 12.1372 15.9924C13.6995 15.4655 14.9101 14.2408 15.4331 12.6584C15.6635 11.9613 15.7211 10.5559 15.5484 9.84299C15.0973 7.98008 13.6696 6.48072 11.9021 6.01355C11.1468 5.81396 10.1386 5.81537 9.39333 6.01722ZM11.5925 7.14804C12.9745 7.52002 14.049 8.61238 14.4093 10.0116C14.4688 10.2423 14.5179 10.7149 14.5183 11.0616C14.5199 12.1441 14.1996 12.9626 13.451 13.7896C12.8596 14.4429 12.0417 14.8826 11.1775 15.0117C9.30932 15.2908 7.49139 14.0634 6.91576 12.1345C6.74872 11.5746 6.76656 10.4617 6.95259 9.8394C7.54795 7.84786 9.654 6.62624 11.5925 7.14804ZM20.1562 20.7292C19.9915 20.8255 19.7533 21.0565 19.6268 21.2425L19.3968 21.5808L19.3764 29.1209C19.3627 34.1874 19.382 36.7607 19.4351 36.9646C19.5364 37.3536 19.8246 37.7055 20.2192 37.9224C20.5058 38.0798 20.6588 38.0959 22.1092 38.1213C22.9772 38.1364 23.8043 38.1261 23.9473 38.0984C24.4381 38.0032 24.6558 37.5326 24.3822 37.158C24.2754 37.0115 24.1558 36.9992 22.4879 36.9626C20.8371 36.9264 20.6999 36.9125 20.6005 36.7719C20.5098 36.6435 20.4933 35.4973 20.4933 29.323C20.4933 24.4424 20.5192 21.9759 20.5715 21.8748C20.6478 21.7275 20.7875 21.7236 25.9741 21.7236H31.2985L31.4162 21.8973C31.52 22.0504 31.5338 22.7042 31.5324 27.4264L31.5309 32.7817L30.9855 33.0466C30.6071 33.2304 30.2928 33.4637 29.9591 33.8085L29.4782 34.3056H27.3678C25.3582 34.3056 25.2501 34.3131 25.1062 34.4619C24.881 34.6946 24.9045 35.1128 25.1542 35.3158C25.3434 35.4697 25.4463 35.4778 27.204 35.4778C28.8604 35.4778 29.0498 35.4908 29.0087 35.6014C28.9835 35.6694 28.9628 36.0035 28.9628 36.3438V36.9626H27.4181H25.8733L25.7166 37.1685C25.4479 37.5215 25.5527 37.8905 25.968 38.0537C26.0874 38.1005 26.8521 38.1348 27.7793 38.1348H29.384L29.5125 38.3598C29.7209 38.7242 30.5127 39.4335 30.9445 39.6425C32.59 40.4387 34.465 39.8716 35.4696 38.2739C36.0971 37.276 36.1743 35.9167 35.6665 34.8117C35.1972 33.7905 34.1853 32.9452 33.2354 32.7812C33.069 32.7524 32.8745 32.7124 32.803 32.6922C32.682 32.658 32.6717 32.2775 32.6518 27.1638L32.6304 21.6721L32.4036 21.2936C32.2546 21.0451 32.0623 20.8527 31.8435 20.7333L31.5101 20.5514L25.9828 20.5526L20.4555 20.554L20.1562 20.7292ZM10.3076 23.2407L10.0954 23.4294V27.0288V30.6282L10.2676 30.8062C10.4385 30.983 10.4585 30.9846 13.045 31.0233L15.6502 31.0624L15.2375 31.4141C15.0105 31.6075 14.7884 31.856 14.7441 31.9663C14.6451 32.213 14.7492 32.5407 14.9643 32.6597C15.3011 32.846 15.4618 32.7564 16.6053 31.7449C17.63 30.8385 17.7352 30.7217 17.7559 30.4676C17.7764 30.2149 17.7361 30.1473 17.3368 29.7655C17.0938 29.5332 16.5805 29.0705 16.196 28.7375C15.6328 28.2494 15.4485 28.1318 15.2468 28.1318C14.9336 28.1318 14.7209 28.3598 14.7209 28.6953C14.7209 28.902 14.803 29.0207 15.2061 29.397L15.6913 29.8501L13.4605 29.8311L11.2297 29.812L11.21 26.5934L11.1902 23.3748L10.9918 23.2135C10.7333 23.0032 10.5673 23.0099 10.3076 23.2407ZM21.7512 23.2923C21.5015 23.4953 21.478 23.9135 21.7032 24.1462C21.8383 24.2859 21.9553 24.3025 22.7997 24.3025C23.6442 24.3025 23.7611 24.2859 23.8962 24.1462C24.1214 23.9135 24.0979 23.4953 23.8482 23.2923C23.6735 23.1502 23.5444 23.1303 22.7997 23.1303C22.0551 23.1303 21.9259 23.1502 21.7512 23.2923ZM25.1542 23.2923C24.9045 23.4953 24.881 23.9135 25.1062 24.1462C25.2512 24.2961 25.3582 24.3025 27.7096 24.3025H30.1618L30.3185 24.0966C30.5264 23.8235 30.5165 23.5565 30.2896 23.3222L30.104 23.1303H27.7287C25.4402 23.1303 25.3461 23.1362 25.1542 23.2923ZM21.7032 25.5529C21.478 25.7856 21.5015 26.2039 21.7512 26.4068C21.9259 26.5489 22.0551 26.5688 22.7997 26.5688C23.5444 26.5688 23.6735 26.5489 23.8482 26.4068C24.0022 26.2817 24.0475 26.1761 24.0475 25.9424C24.0475 25.4651 23.8889 25.3966 22.7829 25.3966C21.9553 25.3966 21.838 25.4136 21.7032 25.5529ZM25.1062 25.5529C24.8794 25.7873 24.9045 26.2039 25.158 26.41C25.3563 26.5712 25.4161 26.5745 27.7736 26.5524L30.1863 26.5298L30.3307 26.3453C30.5264 26.0954 30.5138 25.7739 30.3003 25.5665C30.128 25.3993 30.0862 25.3966 27.6913 25.3966C25.3582 25.3966 25.2511 25.4031 25.1062 25.5529ZM21.7512 27.7468C21.5015 27.9497 21.478 28.368 21.7032 28.6007C21.8383 28.7404 21.9553 28.757 22.7997 28.757C23.6442 28.757 23.7611 28.7404 23.8962 28.6007C24.1214 28.368 24.0979 27.9497 23.8482 27.7468C23.6735 27.6047 23.5444 27.5848 22.7997 27.5848C22.0551 27.5848 21.9259 27.6047 21.7512 27.7468ZM25.158 27.7437C24.9045 27.9497 24.8794 28.3663 25.1062 28.6007C25.2512 28.7506 25.3582 28.757 27.7019 28.757H30.1464L30.3108 28.5762C30.5137 28.3529 30.5215 28.0519 30.3307 27.8084L30.1863 27.6238L27.7736 27.6013C25.4161 27.5791 25.3563 27.5824 25.158 27.7437ZM21.7032 30.0074C21.478 30.2401 21.5015 30.6584 21.7512 30.8613C21.9259 31.0034 22.0551 31.0233 22.7997 31.0233C23.5444 31.0233 23.6735 31.0034 23.8482 30.8613C24.0979 30.6584 24.1214 30.2401 23.8962 30.0074C23.7611 29.8677 23.6442 29.8511 22.7997 29.8511C21.9553 29.8511 21.8383 29.8677 21.7032 30.0074ZM25.1062 30.0074C24.881 30.2401 24.9045 30.6584 25.1542 30.8613C25.3461 31.0174 25.4402 31.0233 27.7287 31.0233H30.104L30.2896 30.8315C30.5165 30.5971 30.5264 30.3301 30.3185 30.057L30.1618 29.8511H27.7096C25.3582 29.8511 25.2512 29.8575 25.1062 30.0074ZM21.9301 32.0914C21.5384 32.2516 21.4185 32.761 21.7032 33.0552C21.838 33.1945 21.9553 33.2115 22.7829 33.2115C23.885 33.2115 24.0475 33.1422 24.0475 32.6721C24.0475 32.171 23.8768 32.0812 22.8865 32.0617C22.4229 32.0525 21.9925 32.0659 21.9301 32.0914ZM25.333 32.0947C25.0798 32.1909 24.9549 32.3816 24.9549 32.6721C24.9549 33.2091 24.9668 33.2115 27.7187 33.2115H30.1464L30.3108 33.0306C30.5824 32.7319 30.5184 32.3412 30.1673 32.1536C29.9928 32.0603 29.5385 32.0404 27.7 32.0454C26.4605 32.0488 25.3954 32.071 25.333 32.0947ZM33.5601 34.1569C34.439 34.5999 34.9113 35.47 34.8447 36.5233C34.7868 37.4392 34.3088 38.1776 33.5123 38.5819C32.9482 38.8681 32.0686 38.889 31.5206 38.6291C30.9914 38.378 30.5267 37.8932 30.2875 37.3423C30.1015 36.9141 30.0828 36.7951 30.1129 36.229C30.1619 35.3068 30.5145 34.6736 31.2152 34.2493C31.9961 33.7763 32.7463 33.7468 33.5601 34.1569ZM21.7175 34.4649C21.4776 34.6959 21.4938 35.1066 21.7512 35.3158C21.9249 35.457 22.0555 35.4778 22.7686 35.4778C23.677 35.4778 23.9305 35.4003 24.0351 35.0903C24.1193 34.8406 23.9808 34.434 23.785 34.3564C23.7146 34.3284 23.2578 34.3056 22.77 34.3056C21.9819 34.3056 21.8645 34.3233 21.7175 34.4649ZM33.122 35.2205C33.0596 35.2432 32.832 35.439 32.6161 35.6554C32.2249 36.048 32.2233 36.0487 32.0259 35.9151C31.7498 35.7282 31.3943 35.7816 31.2102 36.0376C31.0156 36.3081 31.0762 36.5584 31.4356 36.9697C31.7656 37.347 32.0956 37.538 32.3172 37.4797C32.547 37.4192 33.7838 36.1049 33.8414 35.86C33.9214 35.5189 33.4509 35.1006 33.122 35.2205Z" fill="#684DF4"/>
</svg>
