<svg width="40" height="40" viewBox="0 0 40 40" fill="none" xmlns="http://www.w3.org/2000/svg">
<path d="M33.9182 14.4067C35.1792 17.5446 35.3429 21.0165 34.3827 24.2591C33.4225 27.5016 31.3947 30.3246 28.6285 32.2699C25.8622 34.2152 22.5198 35.1686 19.1435 34.9755C17.7201 34.8941 16.326 34.6109 15 34.1421M23.3334 5.37506C20.2493 4.67207 17.0157 4.96115 14.0979 6.20996C10.989 7.54059 8.42085 9.88274 6.81031 12.8564C6.53705 13.3609 6.29408 13.8786 6.08183 14.4067C5.04317 16.9913 4.74046 19.8258 5.22558 22.5915C5.40694 23.6254 5.69509 24.6309 6.08183 25.5933" stroke="#3E66F3" stroke-width="2.5" stroke-linecap="round"/>
<circle cx="26.6663" cy="6.66683" r="3.33333" stroke="#3E66F3" stroke-width="2.5"/>
<circle cx="11.6663" cy="33.3333" r="3.33333" stroke="#3E66F3" stroke-width="2.5"/>
<path d="M15.6671 16.685L19.3959 15.2349C19.7845 15.0838 20.2155 15.0838 20.6041 15.2349L24.3329 16.685C24.7351 16.8414 25 17.2287 25 17.6602V19.2492C25 21.4756 23.9721 23.5773 22.2147 24.9441C20.912 25.9573 19.088 25.9573 17.7853 24.9441C16.0279 23.5773 15 21.4756 15 19.2492V17.6602C15 17.2287 15.2649 16.8414 15.6671 16.685Z" stroke="#3E66F3" stroke-width="2.5" stroke-linecap="round" stroke-linejoin="round"/>
</svg>
