<svg width="68" height="60" viewBox="0 0 68 60" fill="none" xmlns="http://www.w3.org/2000/svg">
<path opacity="0.15" d="M61.625 30H51V21.4286C51 16.7009 54.8117 12.8571 59.5 12.8571H60.5625C62.3289 12.8571 63.75 11.4241 63.75 9.64286V3.21429C63.75 1.43304 62.3289 0 60.5625 0H59.5C47.7594 0 38.25 9.58928 38.25 21.4286V53.5714C38.25 57.1205 41.1055 60 44.625 60H61.625C65.1445 60 68 57.1205 68 53.5714V36.4286C68 32.8795 65.1445 30 61.625 30ZM23.375 30H12.75V21.4286C12.75 16.7009 16.5617 12.8571 21.25 12.8571H22.3125C24.0789 12.8571 25.5 11.4241 25.5 9.64286V3.21429C25.5 1.43304 24.0789 0 22.3125 0H21.25C9.50937 0 0 9.58928 0 21.4286V53.5714C0 57.1205 2.85547 60 6.375 60H23.375C26.8945 60 29.75 57.1205 29.75 53.5714V36.4286C29.75 32.8795 26.8945 30 23.375 30Z" fill="#684DF4"/>
</svg>
