<svg width="75" height="54" viewBox="0 0 75 54" fill="none" xmlns="http://www.w3.org/2000/svg">
<path fill-rule="evenodd" clip-rule="evenodd" d="M59.1674 14.8052C61.8809 11.0036 67.0099 6.91112 73.9924 3.50415C75.807 2.61877 74.9884 -0.125443 72.9853 0.127934C58.3143 1.98369 48.8053 8.409 43.6126 17.9642C41.6812 21.518 40.4678 25.3008 39.8217 29.1622C39.3956 31.7082 39.2831 33.6189 39.2831 35.8257C39.2831 45.6873 47.2774 53.6816 57.139 53.6816C67.0006 53.6816 74.9949 45.6873 74.9949 35.8257C74.9949 25.9641 66.873 17.9642 57.5396 17.9642C58.032 16.6122 58.1503 16.2302 59.1674 14.8052ZM19.8843 14.8052C22.5978 11.0036 27.7268 6.91112 34.7093 3.50415C36.5239 2.61877 35.7053 -0.125443 33.7022 0.127934C19.0313 1.98369 9.52222 8.409 4.3295 17.9642C2.39818 21.518 1.18478 25.3008 0.538597 29.1622C0.112541 31.7082 0 33.6189 0 35.8257C0 45.6873 7.99438 53.6816 17.8559 53.6816C27.7175 53.6816 35.7119 45.6873 35.7119 35.8257C35.7119 25.9641 27.59 17.9642 18.2566 17.9642C18.7489 16.6122 18.8672 16.2302 19.8843 14.8052Z" fill="#3E66F3" fill-opacity="0.13"/>
</svg>
