<svg width="20" height="16" viewBox="0 0 20 16" fill="none" xmlns="http://www.w3.org/2000/svg">
<path d="M0.649094 12.0986L0.571413 11.7092C0.560232 11.61 0.551018 11.5106 0.543779 11.411L0.543859 11.411L0.543049 11.402C0.503479 10.9657 0.483698 10.3511 0.51659 9.60444C0.556206 8.86402 0.658173 8.00329 0.884186 7.10055C1.00394 6.6491 1.14918 6.1888 1.32762 5.74166C1.34865 5.69407 1.36932 5.64706 1.38976 5.60061C1.57871 5.17101 1.74686 4.78869 1.98194 4.4378L1.99396 4.41986L2.00439 4.40096C2.23043 3.99106 2.527 3.62152 2.85195 3.24365L2.86414 3.22947L2.87524 3.21442C2.995 3.05204 3.14187 2.90739 3.31388 2.75511C3.36678 2.70827 3.42723 2.65648 3.49085 2.60197C3.61188 2.49827 3.74439 2.38473 3.85835 2.27671C4.00074 2.15017 4.15797 2.04216 4.33223 1.93244C4.38504 1.89919 4.44334 1.86348 4.50415 1.82624C4.63034 1.74895 4.76734 1.66504 4.88842 1.58279L4.88852 1.58293L4.89901 1.57539C5.02729 1.48333 5.16718 1.41334 5.32727 1.34431C5.37233 1.32488 5.42544 1.30304 5.48237 1.27963C5.59663 1.23265 5.72626 1.17935 5.83694 1.12654C5.93748 1.08457 6.02547 1.04623 6.10437 1.01184C6.31525 0.919955 6.46129 0.856319 6.60878 0.82715L6.62581 0.823782L6.64256 0.819242C6.79781 0.777169 6.93011 0.742297 7.05344 0.709787C7.14753 0.684988 7.2364 0.661563 7.32627 0.637362L7.42315 0.612313L7.6959 1.78356L7.60197 1.82541L7.60044 1.82609L7.08123 2.05531C6.92894 2.11088 6.79445 2.18846 6.68338 2.25791C6.63062 2.2909 6.5777 2.32559 6.52915 2.35742L6.513 2.368C6.45829 2.40385 6.40771 2.43677 6.35668 2.46813L6.34188 2.47723L6.32775 2.48733C6.26891 2.52938 6.21448 2.56143 6.14235 2.60392C6.10127 2.62812 6.05445 2.6557 5.9978 2.69044C5.86339 2.77285 5.69933 2.88228 5.5496 3.03878C5.48545 3.10198 5.41886 3.15759 5.33501 3.22761C5.3034 3.254 5.26935 3.28244 5.23205 3.3141C5.10541 3.4216 4.9545 3.55645 4.82141 3.72822L4.81595 3.73526L4.81075 3.74249C4.75556 3.81921 4.69872 3.8836 4.62549 3.96654C4.59425 4.00192 4.56003 4.04069 4.52168 4.08523C4.4109 4.2139 4.27996 4.37661 4.17848 4.58144C4.17565 4.58604 4.17282 4.59065 4.16998 4.59528C4.00806 4.85875 3.81721 5.1693 3.68809 5.53C3.55958 5.79528 3.48111 6.07813 3.41726 6.3083L3.41479 6.31719L3.20746 7.06443L3.97366 6.9449C3.9866 6.94288 3.99936 6.94088 4.01195 6.93891C4.21835 6.90662 4.3795 6.8814 4.54465 6.8814H4.54483C5.29002 6.88114 6.02281 7.10688 6.65865 7.53649C7.29492 7.9664 7.80932 8.58394 8.13791 9.32133C8.46658 10.0589 8.59446 10.8833 8.505 11.6982C8.41554 12.5131 8.11293 13.2809 7.63592 13.9133C7.15913 14.5454 6.52874 15.0153 5.82071 15.2737C5.11309 15.5319 4.35316 15.5699 3.62726 15.3839C2.90103 15.1978 2.23403 14.794 1.70555 14.2137C1.17679 13.6332 0.809044 12.9004 0.649094 12.0986ZM18.3894 0.61445L18.6619 1.78474C18.633 1.79746 18.6025 1.81083 18.5705 1.82482L18.5692 1.82541L18.0485 2.05531C17.8962 2.11088 17.7617 2.18846 17.6506 2.25791C17.5979 2.2909 17.5449 2.3256 17.4964 2.35744L17.4802 2.368C17.4255 2.40385 17.375 2.43677 17.3239 2.46813L17.3091 2.47723L17.295 2.48732C17.2361 2.52937 17.1817 2.56143 17.1096 2.60392C17.0685 2.62812 17.0217 2.6557 16.965 2.69044C16.8306 2.77285 16.6666 2.88227 16.5169 3.03877C16.4527 3.10197 16.3861 3.15757 16.3023 3.2276C16.2707 3.25399 16.2366 3.28243 16.1993 3.3141C16.0727 3.4216 15.9217 3.55645 15.7886 3.72822L15.7832 3.73526L15.778 3.74249C15.7228 3.81921 15.666 3.8836 15.5927 3.96654C15.5615 4.00192 15.5273 4.04069 15.4889 4.08523C15.3781 4.2139 15.2472 4.37662 15.1457 4.58145C15.1429 4.58605 15.1401 4.59066 15.1372 4.59528C14.9753 4.85875 14.7845 5.1693 14.6553 5.53C14.5268 5.79527 14.4484 6.07811 14.3845 6.30828L14.382 6.31719L14.1747 7.06443L14.9409 6.9449C14.9538 6.94288 14.9666 6.94088 14.9792 6.93891C15.1856 6.90662 15.3467 6.8814 15.5119 6.8814H15.5121C16.2573 6.88114 16.99 7.10688 17.6259 7.53649C18.2622 7.9664 18.7766 8.58394 19.1051 9.32133C19.4338 10.0589 19.5617 10.8833 19.4722 11.6982C19.3828 12.5131 19.0802 13.2809 18.6032 13.9133C18.1264 14.5454 17.496 15.0153 16.788 15.2737C16.0803 15.5319 15.3204 15.5699 14.5945 15.3839C13.8683 15.1978 13.2013 14.794 12.6728 14.2137C12.144 13.6332 11.7763 12.9004 11.6163 12.0986L11.5383 11.7074C11.527 11.6087 11.5175 11.5098 11.5098 11.4107L11.5099 11.4107L11.5093 11.4042C11.4697 10.9679 11.4499 10.3533 11.4828 9.60667C11.5224 8.86621 11.6244 8.00541 11.8504 7.10261C11.9702 6.65119 12.1154 6.19092 12.2939 5.74381C12.3149 5.69623 12.3356 5.64923 12.356 5.60277C12.5449 5.17316 12.7131 4.79084 12.9482 4.43994L12.9602 4.422L12.9706 4.4031C13.1967 3.99319 13.4932 3.62366 13.8182 3.24578L13.8304 3.23161L13.8415 3.21656C13.9612 3.05418 14.1081 2.90952 14.2801 2.75724C14.333 2.7104 14.3935 2.65862 14.4571 2.60411C14.5781 2.50041 14.7106 2.38687 14.8246 2.27885C14.967 2.15231 15.1242 2.0443 15.2985 1.93458C15.3513 1.90133 15.4096 1.86562 15.4704 1.82838C15.5966 1.75109 15.7336 1.66718 15.8547 1.58493L15.8548 1.58507L15.8653 1.57753C15.9935 1.48546 16.1334 1.41548 16.2935 1.34645C16.3386 1.32702 16.3917 1.30518 16.4486 1.28177C16.5629 1.23479 16.6925 1.1815 16.8032 1.12868C16.9037 1.08671 16.9917 1.04837 17.0706 1.01398C17.2815 0.922093 17.4275 0.858458 17.575 0.829288L17.5921 0.82592L17.6088 0.821381C17.7641 0.779302 17.8964 0.744424 18.0197 0.711908C18.1138 0.68711 18.2027 0.663686 18.2926 0.639488L18.3894 0.61445Z" stroke="white"/>
</svg>
