<svg width="26" height="20" viewBox="0 0 26 20" fill="none" xmlns="http://www.w3.org/2000/svg">
<path d="M0.695951 15.1439L0.594057 14.6528C0.579117 14.5259 0.566828 14.3987 0.557198 14.2713L0.557283 14.2713L0.556408 14.262C0.504461 13.7113 0.47871 12.9381 0.521698 12.0003C0.573479 11.0694 0.706856 9.98608 1.00298 8.84907C1.15977 8.28067 1.35025 7.70002 1.58479 7.13519C1.61245 7.07502 1.63969 7.01544 1.66668 6.95643C1.91151 6.42105 2.13458 5.93326 2.44675 5.48522L2.45931 5.4672L2.47024 5.44814C2.77073 4.92419 3.16366 4.45415 3.58739 3.98037L3.59995 3.96632L3.61143 3.95136C3.77537 3.73763 3.97466 3.54957 4.20128 3.35666C4.27385 3.29488 4.35446 3.22849 4.43821 3.15951C4.59418 3.03105 4.76103 2.89362 4.90712 2.76035C5.10151 2.59398 5.31444 2.45367 5.54453 2.31437C5.61662 2.27073 5.69432 2.22498 5.77439 2.17783C5.93663 2.0823 6.10857 1.98106 6.26313 1.88011L6.26322 1.88024L6.27371 1.873C6.45331 1.74905 6.64678 1.65657 6.85957 1.56834C6.92354 1.54182 6.99573 1.5133 7.07151 1.48335C7.21881 1.42515 7.37968 1.36157 7.52017 1.29691C7.64238 1.24788 7.75239 1.20177 7.85336 1.15946C8.13634 1.04085 8.34829 0.952028 8.55872 0.912012L8.57518 0.908882L8.59139 0.904655C8.79189 0.852407 8.96665 0.808107 9.12871 0.767025C9.25163 0.735865 9.36724 0.706558 9.48124 0.67704C9.48206 0.676826 9.48289 0.676613 9.48371 0.676399L9.76458 0.606598L10.174 2.29719L9.94971 2.39327L9.94821 2.39391L9.26778 2.68276C9.08382 2.74669 8.9183 2.83787 8.77537 2.9238C8.70832 2.96412 8.64097 3.00657 8.5777 3.04646L8.55661 3.05974C8.48547 3.10456 8.41807 3.14676 8.34964 3.18719L8.33492 3.19589L8.32083 3.20557C8.23917 3.26168 8.1602 3.30645 8.06189 3.36218C8.00899 3.39217 7.9505 3.42533 7.88297 3.46515C7.71192 3.56599 7.5107 3.69561 7.32835 3.87924C7.23989 3.96319 7.14681 4.03792 7.03524 4.1275C6.99485 4.15992 6.95204 4.19429 6.90615 4.23175C6.74355 4.36448 6.55641 4.52572 6.39231 4.72935L6.38667 4.73636L6.38128 4.74357C6.30548 4.84489 6.22556 4.93193 6.12802 5.03817C6.08804 5.08172 6.0451 5.12849 5.99827 5.18079C5.85569 5.34003 5.6927 5.53552 5.56753 5.78005C5.56336 5.78658 5.55917 5.79313 5.55498 5.79969C5.34267 6.13193 5.0993 6.51278 4.93578 6.95444C4.77181 7.27811 4.67143 7.626 4.58725 7.91775L4.58516 7.92497L4.36912 8.67366L5.13974 8.55806C5.15793 8.55533 5.17591 8.55262 5.1937 8.54994C5.45784 8.51016 5.6797 8.47676 5.90805 8.47676H5.90822C6.91195 8.47641 7.89639 8.76892 8.74775 9.32203C9.59927 9.87525 10.2835 10.6671 10.7194 11.6075C11.1552 12.5481 11.3242 13.5976 11.2058 14.6342C11.0875 15.6709 10.6869 16.6503 10.0522 17.4594C9.41766 18.2684 8.57541 18.8737 7.6242 19.2074C6.67314 19.5412 5.65041 19.5904 4.67372 19.3498C3.69691 19.1092 2.80418 18.5879 2.09966 17.8442C1.39502 17.1003 0.90766 16.1643 0.695951 15.1439ZM24.0207 0.609268L24.43 2.29916C24.3638 2.3272 24.2897 2.35847 24.2084 2.39272L24.2071 2.39327L23.5252 2.68276C23.3412 2.74669 23.1757 2.83787 23.0328 2.9238C22.9656 2.96418 22.8982 3.0067 22.8348 3.04664L22.814 3.05974C22.7429 3.10456 22.6755 3.14676 22.6071 3.18719L22.5923 3.19589L22.5782 3.20557C22.4966 3.26168 22.4176 3.30645 22.3193 3.36218C22.2664 3.39217 22.2079 3.42533 22.1404 3.46515C21.9693 3.56599 21.7681 3.69561 21.5858 3.87924C21.4973 3.96319 21.4042 4.03792 21.2926 4.1275C21.2523 4.15993 21.2095 4.1943 21.1636 4.23175C21.001 4.36447 20.8138 4.52572 20.6497 4.72935L20.6441 4.73636L20.6387 4.74357C20.5629 4.84489 20.483 4.93193 20.3854 5.03817C20.3455 5.08171 20.3025 5.12849 20.2557 5.18079C20.1131 5.34003 19.9501 5.53552 19.8249 5.78006C19.8208 5.78658 19.8166 5.79313 19.8124 5.79969C19.6001 6.13193 19.3567 6.51278 19.1932 6.95445C19.0292 7.27813 18.9288 7.62603 18.8446 7.91778L18.8426 7.92497L18.6265 8.67366L19.3972 8.55806C19.4153 8.55533 19.4333 8.55262 19.4511 8.54994C19.7152 8.51017 19.9371 8.47676 20.1655 8.47676H20.1656C21.1694 8.47641 22.1538 8.76892 23.0052 9.32203C23.8567 9.87525 24.5409 10.6671 24.9768 11.6075C25.4126 12.5481 25.5816 13.5976 25.4633 14.6342C25.3449 15.6709 24.9443 16.6503 24.3096 17.4594C23.6751 18.2684 22.8328 18.8737 21.8816 19.2074C20.9305 19.5412 19.9078 19.5904 18.9311 19.3498C17.9543 19.1092 17.0616 18.5879 16.3571 17.8442C15.6524 17.1003 15.1651 16.1643 14.9534 15.1439L14.851 14.6507C14.836 14.5245 14.8233 14.3981 14.8131 14.2715L14.8132 14.2715L14.8125 14.2647C14.7606 13.714 14.7348 12.9408 14.7778 12.0031C14.8296 11.0721 14.963 9.98876 15.2591 8.85168C15.4159 8.28331 15.6064 7.70268 15.8409 7.13789C15.8686 7.07771 15.8958 7.01813 15.9228 6.95912C16.1676 6.42373 16.3907 5.93594 16.7029 5.48789L16.7154 5.46987L16.7264 5.45081C17.0269 4.92686 17.4198 4.45682 17.8435 3.98304L17.8561 3.96899L17.8675 3.95403C18.0315 3.7403 18.2308 3.55224 18.4574 3.35933C18.53 3.29755 18.6106 3.23116 18.6943 3.16218C18.8503 3.03372 19.0171 2.8963 19.1632 2.76302C19.3576 2.59665 19.5705 2.45634 19.8006 2.31705C19.8727 2.2734 19.9504 2.22765 20.0305 2.1805C20.1927 2.08497 20.3647 1.98373 20.5192 1.88278L20.5193 1.88291L20.5298 1.87568C20.7094 1.75172 20.9029 1.65925 21.1157 1.57102C21.1797 1.54449 21.2518 1.51597 21.3276 1.48602C21.4749 1.42782 21.6358 1.36425 21.7763 1.29958C21.8985 1.25056 22.0085 1.20445 22.1094 1.16214C22.3924 1.04353 22.6044 0.954702 22.8148 0.914684L22.8313 0.911554L22.8475 0.907328C23.048 0.855083 23.2227 0.810783 23.3848 0.769703C23.5077 0.738537 23.6234 0.709225 23.7374 0.679699C23.7382 0.679489 23.739 0.679279 23.7398 0.67907L24.0207 0.609268Z" stroke="white"/>
</svg>
