<svg width="42" height="50" viewBox="0 0 42 50" fill="none" xmlns="http://www.w3.org/2000/svg">
<path d="M22.5158 39.8776C22.5158 39.473 22.1879 39.1451 21.7834 39.1451H2.21284C2.18501 39.1451 2.16245 39.1226 2.16245 39.0947V9.53738C2.16245 9.45604 2.17036 9.37606 2.18208 9.29705H7.69261C8.9598 9.29705 9.99075 8.2661 9.99075 6.99901V1.48838C10.0698 1.47666 10.1497 1.46875 10.2311 1.46875H31.9601C31.988 1.46875 32.0105 1.49131 32.0105 1.51914V28.9179C32.0105 29.3224 32.3385 29.6503 32.743 29.6503C33.1474 29.6503 33.4754 29.3224 33.4754 28.9179V1.51914C33.4753 0.683592 32.7956 0.00390625 31.96 0.00390625H10.231C9.40804 0.00390625 8.63441 0.324316 8.05248 0.906248L1.59995 7.35878C1.01802 7.94061 0.69751 8.71434 0.69751 9.53729V39.0947C0.69751 39.9302 1.3772 40.61 2.21274 40.61H21.7833C22.1879 40.61 22.5158 40.282 22.5158 39.8776ZM8.52582 2.50449V6.99881C8.52582 7.45829 8.15199 7.83202 7.69252 7.83202H3.19819L8.52582 2.50449Z" fill="#3E66F3"/>
<path d="M27.9175 6.27782L18.5236 7.95174C18.1742 8.01405 17.9197 8.31795 17.9197 8.67283V12.5291H6.12689C5.7224 12.5291 5.39447 12.857 5.39447 13.2615V33.615C5.39447 33.8318 5.49047 34.0373 5.65678 34.1765C5.78959 34.2878 5.95639 34.3474 6.12689 34.3474C6.16967 34.3474 6.21283 34.3436 6.2556 34.336L28.1747 30.4218C28.524 30.3594 28.7784 30.0556 28.7784 29.7008V6.99891C28.7784 6.78221 28.6824 6.57665 28.5163 6.43739C28.3501 6.29833 28.1311 6.23983 27.9175 6.27782ZM6.85931 32.7402V26.5191H9.25823C9.66273 26.5191 9.99066 26.1912 9.99066 25.7867C9.99066 25.3822 9.66273 25.0542 9.25823 25.0542H6.85931V13.9939H16.354V17.1757C16.354 17.5801 16.682 17.9081 17.0864 17.9081C17.4909 17.9081 17.8189 17.5801 17.8189 17.1757V13.9939H21.0006C21.4051 13.9939 21.733 13.6661 21.733 13.2615C21.733 12.857 21.4051 12.5291 21.0006 12.5291H19.3846V9.28631L27.3136 7.87342V12.5291H25.6976C25.2931 12.5291 24.9651 12.857 24.9651 13.2615C24.9651 13.6661 25.2931 13.9939 25.6976 13.9939H27.3136V25.0542H17.8189V21.8725C17.8189 21.468 17.4909 21.1401 17.0864 21.1401C16.682 21.1401 16.354 21.468 16.354 21.8725V25.0542H13.9552C13.5507 25.0542 13.2228 25.3822 13.2228 25.7867C13.2228 26.1912 13.5507 26.5191 13.9552 26.5191H27.3136V29.0875L6.85931 32.7402Z" fill="#3E66F3"/>
<path d="M40.6304 29.9658L39.5234 28.8586C38.6273 27.9626 37.1694 27.9627 36.2734 28.8586L21.2669 43.8652C20.8722 44.26 20.592 44.7549 20.4566 45.2965L19.5072 49.0938C19.4448 49.3434 19.518 49.6074 19.6999 49.7894C19.839 49.9284 20.026 50.0039 20.2179 50.0039C20.277 50.0039 20.3366 49.9968 20.3954 49.982L24.1927 49.0327C24.7343 48.8974 25.2292 48.6171 25.624 48.2224L40.6305 33.2158C41.5264 32.3197 41.5264 30.8618 40.6304 29.9658ZM25.7531 46.0215L23.4677 43.736L35.6843 31.5195L37.9697 33.8049L25.7531 46.0215ZM23.8374 47.6115L21.2244 48.2647L21.8776 45.6518C21.9487 45.3676 22.0956 45.108 22.3027 44.901L22.4319 44.7718L24.7174 47.0572L24.5882 47.1864C24.3811 47.3936 24.1215 47.5404 23.8374 47.6115ZM39.5947 32.1798L39.0055 32.7691L36.7201 30.4836L37.3092 29.8945C37.4717 29.732 37.685 29.6508 37.8985 29.6508C38.1119 29.6508 38.3253 29.7321 38.4877 29.8945L39.5947 31.0015C39.9196 31.3264 39.9196 31.855 39.5947 32.1798Z" fill="#3E66F3"/>
</svg>
