<svg width="50" height="50" viewBox="0 0 50 50" fill="none" xmlns="http://www.w3.org/2000/svg">
<path d="M48.4375 19.5313C48.4349 21.8097 47.5287 23.994 45.9176 25.6051C44.3065 27.2162 42.1222 28.1224 39.8438 28.125H38.2812C38.0741 28.125 37.8753 28.0427 37.7288 27.8962C37.5823 27.7497 37.5 27.551 37.5 27.3438C37.5 27.1366 37.5823 26.9378 37.7288 26.7913C37.8753 26.6448 38.0741 26.5625 38.2812 26.5625H39.8438C41.7086 26.5625 43.497 25.8217 44.8156 24.5031C46.1342 23.1845 46.875 21.3961 46.875 19.5313C46.875 17.6665 46.1342 15.878 44.8156 14.5594C43.497 13.2408 41.7086 12.5 39.8438 12.5L39.6858 12.5088C39.5047 12.5155 39.327 12.4581 39.184 12.3467C39.0409 12.2354 38.9417 12.0772 38.9038 11.8999C38.6684 10.8586 38.1699 9.89505 37.4562 9.10118C36.7423 8.3073 35.837 7.70962 34.8265 7.36521C33.816 7.0208 32.734 6.94114 31.684 7.13385C30.6339 7.32655 29.6508 7.78519 28.8284 8.46596C28.7329 8.54513 28.6199 8.6004 28.4988 8.6272C28.3777 8.65401 28.252 8.65158 28.132 8.62011C28.012 8.58864 27.9012 8.52904 27.8089 8.44625C27.7165 8.36345 27.6452 8.25984 27.6008 8.144C26.9489 6.43923 25.7203 5.01672 24.1285 4.12363C22.5368 3.23054 20.6824 2.92331 18.8877 3.25532C17.0929 3.58733 15.4712 4.53759 14.3043 5.94101C13.1374 7.34443 12.499 9.11231 12.5 10.9375C12.5007 11.2261 12.5178 11.5145 12.5511 11.8012C12.565 11.9241 12.5494 12.0485 12.5058 12.1642C12.4621 12.2799 12.3916 12.3837 12.3001 12.4668C12.2086 12.55 12.0986 12.6102 11.9792 12.6426C11.8598 12.675 11.7345 12.6785 11.6135 12.653C10.6497 12.4488 9.65381 12.4494 8.69031 12.6548C7.72682 12.8602 6.81723 13.2657 6.02052 13.8452C5.22381 14.4246 4.55776 15.165 4.06555 16.0184C3.57333 16.8717 3.26594 17.819 3.16329 18.7988C3.06065 19.7786 3.16504 20.769 3.46971 21.7058C3.77437 22.6427 4.27251 23.5051 4.93183 24.237C5.59115 24.969 6.39693 25.5543 7.29694 25.9549C8.19696 26.3555 9.17111 26.5625 10.1562 26.5625H11.7188C11.926 26.5625 12.1247 26.6448 12.2712 26.7913C12.4177 26.9378 12.5 27.1366 12.5 27.3438C12.5 27.551 12.4177 27.7497 12.2712 27.8962C12.1247 28.0427 11.926 28.125 11.7188 28.125H10.1562C7.87705 28.125 5.69119 27.2196 4.07955 25.608C2.46791 23.9963 1.5625 21.8105 1.5625 19.5313C1.5625 17.252 2.46791 15.0662 4.07955 13.4546C5.69119 11.8429 7.87705 10.9375 10.1562 10.9375C10.4156 10.9375 10.6766 10.9497 10.9375 10.9737V10.9375C10.9362 8.83329 11.6433 6.7899 12.9448 5.1365C14.2464 3.48311 16.0666 2.31598 18.1123 1.82313C20.158 1.33028 22.31 1.5404 24.2217 2.41965C26.1334 3.29889 27.6935 4.79607 28.6507 6.67C29.6627 6.03265 30.8076 5.63627 31.9971 5.51143C33.1865 5.38659 34.3888 5.53663 35.5111 5.94997C36.6334 6.36332 37.6458 7.02892 38.4701 7.89545C39.2945 8.76198 39.9088 9.80628 40.2656 10.9478C42.4682 11.0587 44.5442 12.0111 46.0649 13.6083C47.5856 15.2056 48.4349 17.3258 48.4375 19.5313ZM35.9375 24.2188C35.9375 33.8825 25.3479 37.4271 25.2411 37.4619C25.0844 37.5127 24.9156 37.5127 24.7589 37.4619C24.6521 37.4271 14.0625 33.8825 14.0625 24.2188V16.4063C14.0625 16.3036 14.0827 16.202 14.1219 16.1072C14.1612 16.0125 14.2187 15.9263 14.2913 15.8538C14.3638 15.7812 14.4499 15.7237 14.5447 15.6844C14.6395 15.6452 14.7411 15.625 14.8438 15.625C18.2926 15.5693 21.6551 14.5374 24.5415 12.6488C24.675 12.5524 24.8354 12.5006 25 12.5006C25.1646 12.5006 25.325 12.5524 25.4585 12.6488C28.3449 14.5374 31.7074 15.5693 35.1562 15.625C35.2589 15.625 35.3605 15.6452 35.4553 15.6844C35.5501 15.7237 35.6362 15.7812 35.7087 15.8538C35.7813 15.9263 35.8388 16.0125 35.8781 16.1072C35.9173 16.202 35.9375 16.3036 35.9375 16.4063V24.2188ZM34.375 17.17C31.0518 16.9901 27.8276 15.9756 25 14.2204C22.1724 15.9756 18.9482 16.9901 15.625 17.17V24.2188C15.625 31.9702 23.5077 35.3233 25 35.8883C26.4923 35.3233 34.375 31.9702 34.375 24.2188V17.17ZM28.125 45.3125C28.1272 45.8975 27.9651 46.4713 27.6573 46.9687C27.3495 47.4662 26.9082 47.8672 26.3837 48.1262C25.8591 48.3852 25.2725 48.4918 24.6904 48.4338C24.1083 48.3759 23.5541 48.1557 23.091 47.7983C22.6279 47.441 22.2743 46.9608 22.0706 46.4124C21.8669 45.8641 21.8212 45.2695 21.9387 44.6965C22.0562 44.1234 22.3322 43.5949 22.7353 43.1709C23.1384 42.747 23.6523 42.4447 24.2188 42.2984V39.8438C24.2188 39.6366 24.3011 39.4378 24.4476 39.2913C24.5941 39.1448 24.7928 39.0625 25 39.0625C25.2072 39.0625 25.4059 39.1448 25.5524 39.2913C25.6989 39.4378 25.7812 39.6366 25.7812 39.8438V42.2984C26.4504 42.4706 27.0435 42.86 27.4676 43.4054C27.8917 43.9508 28.123 44.6216 28.125 45.3125ZM26.5625 45.3125C26.5625 45.0035 26.4709 44.7014 26.2992 44.4444C26.1275 44.1875 25.8835 43.9872 25.5979 43.8689C25.3124 43.7507 24.9983 43.7197 24.6952 43.78C24.3921 43.8403 24.1137 43.9891 23.8951 44.2076C23.6766 44.4262 23.5278 44.7046 23.4675 45.0077C23.4072 45.3108 23.4382 45.6249 23.5564 45.9104C23.6747 46.196 23.875 46.44 24.1319 46.6117C24.3889 46.7834 24.691 46.875 25 46.875C25.4143 46.8745 25.8114 46.7098 26.1043 46.4168C26.3973 46.1239 26.562 45.7268 26.5625 45.3125ZM45.3125 45.3125C45.3141 46.0725 45.0381 46.807 44.5364 47.3778C44.0347 47.9487 43.3417 48.3167 42.5878 48.4126C41.8338 48.5086 41.0708 48.3259 40.4421 47.8989C39.8134 47.4719 39.3622 46.83 39.1734 46.0938H36.7188C35.6831 46.0925 34.6903 45.6806 33.958 44.9483C33.2257 44.216 32.8137 43.2231 32.8125 42.1875V35.1563C32.8125 34.9491 32.8948 34.7503 33.0413 34.6038C33.1878 34.4573 33.3865 34.375 33.5938 34.375C33.8009 34.375 33.9997 34.4573 34.1462 34.6038C34.2927 34.7503 34.375 34.9491 34.375 35.1563V42.1875C34.3757 42.8089 34.6228 43.4046 35.0622 43.844C35.5016 44.2834 36.0974 44.5306 36.7188 44.5313H39.1734C39.3622 43.7951 39.8134 43.1531 40.4421 42.7261C41.0708 42.2991 41.8338 42.1164 42.5878 42.2124C43.3417 42.3083 44.0347 42.6763 44.5364 43.2472C45.0381 43.818 45.3141 44.5525 45.3125 45.3125ZM43.75 45.3125C43.75 45.0035 43.6584 44.7014 43.4867 44.4444C43.315 44.1875 43.0709 43.9872 42.7854 43.8689C42.4999 43.7507 42.1858 43.7197 41.8827 43.78C41.5796 43.8403 41.3012 43.9891 41.0826 44.2076C40.8641 44.4262 40.7153 44.7046 40.655 45.0077C40.5947 45.3108 40.6257 45.6249 40.7439 45.9104C40.8622 46.196 41.0625 46.44 41.3194 46.6117C41.5764 46.7834 41.8785 46.875 42.1875 46.875C42.6018 46.8745 42.9989 46.7098 43.2918 46.4168C43.5848 46.1239 43.7495 45.7268 43.75 45.3125ZM17.1875 35.1563V42.1875C17.1863 43.2231 16.7743 44.216 16.042 44.9483C15.3097 45.6806 14.3169 46.0925 13.2812 46.0938H10.8266C10.6364 46.8302 10.1842 47.472 9.55468 47.8989C8.92517 48.3258 8.16157 48.5084 7.40703 48.4126C6.65249 48.3168 5.9588 47.949 5.456 47.3783C4.95319 46.8076 4.67579 46.0731 4.67579 45.3125C4.67579 44.5519 4.95319 43.8174 5.456 43.2467C5.9588 42.676 6.65249 42.3082 7.40703 42.2124C8.16157 42.1166 8.92517 42.2992 9.55468 42.7261C10.1842 43.153 10.6364 43.7948 10.8266 44.5313H13.2812C13.9026 44.5306 14.4984 44.2834 14.9378 43.844C15.3772 43.4046 15.6243 42.8089 15.625 42.1875V35.1563C15.625 34.9491 15.7073 34.7503 15.8538 34.6038C16.0003 34.4573 16.199 34.375 16.4062 34.375C16.6135 34.375 16.8122 34.4573 16.9587 34.6038C17.1052 34.7503 17.1875 34.9491 17.1875 35.1563ZM9.375 45.3125C9.375 45.0035 9.28336 44.7014 9.11167 44.4444C8.93998 44.1875 8.69595 43.9872 8.41044 43.8689C8.12493 43.7507 7.81077 43.7197 7.50767 43.78C7.20458 43.8403 6.92617 43.9891 6.70765 44.2076C6.48913 44.4262 6.34031 44.7046 6.28002 45.0077C6.21973 45.3108 6.25068 45.6249 6.36894 45.9104C6.4872 46.196 6.68747 46.44 6.94442 46.6117C7.20137 46.7834 7.50347 46.875 7.8125 46.875C8.22676 46.8745 8.62391 46.7098 8.91683 46.4168C9.20975 46.1239 9.37453 45.7268 9.375 45.3125ZM20.0836 24.4477C20.0113 24.374 19.9251 24.3155 19.8301 24.2753C19.735 24.2352 19.633 24.2143 19.5298 24.2138C19.4266 24.2134 19.3244 24.2334 19.2289 24.2726C19.1335 24.3119 19.0468 24.3697 18.9739 24.4426C18.9009 24.5156 18.8431 24.6023 18.8039 24.6977C18.7646 24.7931 18.7446 24.8954 18.7451 24.9985C18.7456 25.1017 18.7665 25.2038 18.8066 25.2988C18.8467 25.3939 18.9053 25.4801 18.9789 25.5523L22.8852 29.4586C22.9577 29.5312 23.0438 29.5887 23.1386 29.628C23.2333 29.6673 23.3349 29.6875 23.4375 29.6875C23.5401 29.6875 23.6417 29.6673 23.7365 29.628C23.8313 29.5887 23.9174 29.5312 23.9899 29.4586L31.0211 22.4273C31.0944 22.355 31.1527 22.2688 31.1925 22.1739C31.2324 22.0789 31.2531 21.977 31.2534 21.874C31.2537 21.771 31.2337 21.6689 31.1944 21.5737C31.1551 21.4785 31.0974 21.392 31.0246 21.3191C30.9518 21.2463 30.8653 21.1886 30.77 21.1493C30.6748 21.1101 30.5728 21.09 30.4698 21.0904C30.3668 21.0907 30.2649 21.1114 30.1699 21.1513C30.0749 21.1911 29.9888 21.2494 29.9164 21.3227L23.4375 27.8015L20.0836 24.4477Z" fill="#3E66F3"/>
</svg>
