<svg width="40" height="40" viewBox="0 0 40 40" fill="none" xmlns="http://www.w3.org/2000/svg">
<path fill-rule="evenodd" clip-rule="evenodd" d="M8.86567 0.0940758C8.00418 0.395171 7.52684 1.25814 7.727 2.15252C7.80926 2.5201 7.89653 2.67089 8.20622 2.98058C8.41442 3.18878 8.63919 3.35917 8.70567 3.35917C8.80716 3.35917 8.82661 3.49152 8.82661 4.183C8.82661 4.95363 8.83903 5.01934 9.01841 5.19864L9.21013 5.39043H11.9481H14.686V5.97637V6.56231L8.06489 6.56403C1.56923 6.56575 1.43712 6.5688 1.09219 6.72513C0.619691 6.93935 0.403674 7.15154 0.184142 7.61701L0 8.00764L0.000937505 19.6483C0.00187501 31.1973 0.00312504 31.2917 0.161251 31.6406C0.359533 32.0779 0.573441 32.311 0.975005 32.5271C1.2861 32.6945 1.31673 32.6954 7.89567 32.7343L14.5038 32.7734L14.3947 33.3133C14.1923 34.3141 13.5497 35.4466 12.7829 36.1534L12.4239 36.4844H10.9858C9.56318 36.4844 9.54302 36.4867 9.12982 36.7026C8.86903 36.8388 8.62349 37.0469 8.47638 37.2562C8.25989 37.5642 8.24067 37.6447 8.24067 38.2422C8.24067 38.8397 8.25989 38.9201 8.47638 39.2281C8.62349 39.4375 8.86903 39.6455 9.12982 39.7818L9.54755 40H19.9935H30.4393L30.863 39.7852C31.1406 39.6445 31.3678 39.4534 31.5216 39.2316C31.7367 38.9212 31.7564 38.8382 31.7564 38.2422C31.7564 37.6462 31.7367 37.5631 31.5216 37.2528C31.3678 37.0309 31.1406 36.8399 30.863 36.6992C30.4466 36.488 30.4149 36.4844 29.0063 36.4844H27.5732L27.2142 36.1534C26.4474 35.4466 25.8048 34.3141 25.6024 33.3133L25.4933 32.7734L32.1014 32.7343C38.6804 32.6954 38.711 32.6945 39.0221 32.5271C39.4237 32.311 39.6376 32.0779 39.8358 31.6406C39.994 31.2917 39.9952 31.1983 39.9952 19.6483C39.9952 8.09834 39.994 8.0049 39.8358 7.65607C39.6216 7.18357 39.4094 6.96755 38.944 6.74802L38.5533 6.56388L34.1735 6.5631C29.8732 6.56231 29.7906 6.56521 29.6227 6.72161C29.3929 6.93575 29.3929 7.36076 29.6227 7.5749C29.7905 7.73123 29.8742 7.7342 34.1185 7.7342H38.4433L38.635 7.92599L38.8268 8.11771V19.6483V31.1789L38.635 31.3707L38.4433 31.5625H19.9985H1.55384L1.36212 31.3707L1.17032 31.1789V19.6483V8.11771L1.36212 7.92599L1.55384 7.7342H8.11997H14.686V8.32014V8.90608H8.70591H2.72572L2.534 9.09788L2.3422 9.28959V17.2124C2.3422 25.1093 2.34275 25.1358 2.50415 25.3409C2.72806 25.6256 3.12822 25.6256 3.35213 25.3409C3.51346 25.1359 3.51408 25.1047 3.51408 17.6065V10.078H9.10005H14.686V11.6452V13.2124L13.3242 13.8656C11.99 14.5056 11.9607 14.5249 11.8793 14.8179C11.7564 15.2605 11.7731 24.3244 11.8974 24.6822C11.9876 24.9416 12.1167 25.0105 15.8879 26.8111C18.0314 27.8345 19.881 28.6718 19.9982 28.6718C20.1154 28.6718 20.6468 28.4652 21.1792 28.2127C23.8808 26.9313 24.6393 26.5499 24.7339 26.4253C24.9615 26.1255 24.8251 25.6887 24.4647 25.563C24.2028 25.4717 23.9954 25.5524 21.9322 26.5478L20.6236 27.1791V23.0526V18.9261L23.6856 17.4625C25.3698 16.6575 26.7936 15.9814 26.8497 15.9598C26.9328 15.9279 26.9517 16.6813 26.9517 20.0295V24.1383L26.4886 24.3721C25.791 24.7242 25.633 25.0266 25.9418 25.4191C26.1762 25.717 26.4873 25.6854 27.3234 25.2784C27.9818 24.958 28.0416 24.9095 28.1181 24.6339C28.2324 24.2222 28.2318 15.2285 28.1174 14.8167C28.0356 14.522 28.0081 14.5038 26.6726 13.8632L25.3111 13.2102V11.6441V10.078H30.897H36.483V19.6483V29.2187H19.9985H3.51408V28.2386C3.51408 27.3021 3.50557 27.2499 3.32228 27.0667C3.07791 26.8223 2.77837 26.8223 2.534 27.0667C2.34493 27.2558 2.3422 27.2778 2.3422 28.6327C2.3422 29.9877 2.34493 30.0097 2.534 30.1988L2.72572 30.3906H19.9985H37.2714L37.4631 30.1988L37.6549 30.0071V19.6483V9.28959L37.4631 9.09788L37.2714 8.90608H31.2912H25.3111V8.32014V7.7342H26.5073C27.6031 7.7342 27.7179 7.72084 27.8745 7.5749C27.986 7.47099 28.0455 7.32271 28.0455 7.14826C28.0455 6.9738 27.986 6.82552 27.8745 6.72161C27.7179 6.57567 27.6031 6.56231 26.5073 6.56231H25.3111V5.97637V5.39043H28.049H30.787L30.9787 5.19864C31.1581 5.01934 31.1705 4.95363 31.1705 4.183C31.1705 3.56839 31.1957 3.35917 31.2699 3.35917C31.4478 3.35917 31.9521 2.88315 32.1263 2.55081C32.3587 2.10721 32.3587 1.40799 32.1263 0.964393C31.589 -0.0611594 30.2806 -0.30913 29.434 0.454234C28.8887 0.945799 28.7105 1.57057 28.9105 2.29049C29.004 2.62721 29.4461 3.15558 29.7779 3.32714C29.9752 3.42925 29.9986 3.48245 29.9986 3.82996V4.21855H27.2607H24.5227L24.331 4.41035C24.1477 4.59355 24.1392 4.64574 24.1392 5.58223V6.56231H22.3814H20.6236L20.6278 4.98027L20.6321 3.39823L20.9947 3.16386C21.5314 2.81698 21.7366 2.3826 21.7024 1.66487C21.668 0.94119 21.4083 0.530797 20.7848 0.214623C20.2184 -0.0725658 19.7625 -0.0716283 19.208 0.217983C18.5869 0.542516 18.3286 0.951659 18.2947 1.66487C18.2605 2.3826 18.4656 2.81698 19.0024 3.16386L19.365 3.39823L19.3693 4.98027L19.3735 6.56231H17.6157H15.8579V5.58223C15.8579 4.64574 15.8494 4.59355 15.6661 4.41035L15.4744 4.21855H12.7364H9.99849V3.82996C9.99849 3.48245 10.0219 3.42925 10.2192 3.32714C10.7817 3.03628 11.171 2.36042 11.1682 1.67948C11.1637 0.580953 9.92084 -0.274833 8.86567 0.0940758ZM9.80669 1.36346C9.91216 1.46893 9.99849 1.64627 9.99849 1.7576C9.99849 2.01807 9.67302 2.34354 9.41255 2.34354C9.15208 2.34354 8.82661 2.01807 8.82661 1.7576C8.82661 1.49713 9.15208 1.17166 9.41255 1.17166C9.52388 1.17166 9.70123 1.25799 9.80669 1.36346ZM20.3744 1.33096C20.7382 1.66987 20.4882 2.34354 19.9985 2.34354C19.6992 2.34354 19.4517 2.07831 19.4517 1.7576C19.4517 1.4369 19.6992 1.17166 19.9985 1.17166C20.1113 1.17166 20.2804 1.24338 20.3744 1.33096ZM30.9787 1.36346C31.0842 1.46893 31.1705 1.64627 31.1705 1.7576C31.1705 2.01807 30.845 2.34354 30.5845 2.34354C30.3241 2.34354 29.9986 2.01807 29.9986 1.7576C29.9986 1.49713 30.3241 1.17166 30.5845 1.17166C30.6959 1.17166 30.8732 1.25799 30.9787 1.36346ZM19.3735 8.32014V8.90608H17.6157H15.8579V8.32014V7.7342H17.6157H19.3735V8.32014ZM24.1392 8.32014V8.90608H22.3814H20.6236V8.32014V7.7342H22.3814H24.1392V8.32014ZM19.3735 10.534V10.99L18.5337 11.3842C18.0718 11.601 17.2808 11.9746 16.7759 12.2143L15.8579 12.6502V11.3641V10.078H17.6157H19.3735V10.534ZM24.1392 11.3636V12.6492L22.9087 12.0598C22.2319 11.7357 21.4409 11.3634 21.1509 11.2325L20.6236 10.9945V10.5362V10.078H22.3814H24.1392V11.3636ZM23.0834 13.4469C24.7169 14.2256 26.0805 14.8874 26.1138 14.9176C26.1638 14.9629 20.788 17.5903 20.1548 17.83C19.9866 17.8936 19.536 17.7011 16.9126 16.4445C15.2368 15.6418 13.8513 14.9711 13.8338 14.9541C13.8163 14.937 14.0273 14.8206 14.3026 14.6952C14.5779 14.5699 15.9458 13.9199 17.3423 13.2507C18.7388 12.5816 19.9336 12.0334 19.9975 12.0326C20.0613 12.0318 21.45 12.6682 23.0834 13.4469ZM16.232 17.4189L19.3345 18.9003L19.3547 23.0387L19.3749 27.1772L18.4953 26.7584C18.0115 26.5282 16.5962 25.8516 15.3501 25.2551L13.0844 24.1705L13.0642 20.0539C13.0531 17.7898 13.0633 15.9374 13.0868 15.9374C13.1104 15.9374 14.5257 16.604 16.232 17.4189ZM24.3376 33.0273C24.5224 34.1279 24.904 35.0836 25.4996 35.9375L25.8538 36.4453L22.9262 36.4658C21.316 36.477 18.6802 36.477 17.0688 36.4658L14.1391 36.4453L14.4441 36.0154C15.0605 35.1466 15.4224 34.237 15.6643 32.9492L15.7046 32.7343H19.9965H24.2883L24.3376 33.0273ZM30.4526 37.8155C30.6824 38.0297 30.6824 38.4547 30.4526 38.6688C30.2824 38.8275 30.2392 38.8281 19.9985 38.8281C9.75795 38.8281 9.71474 38.8275 9.54451 38.6688C9.43294 38.5649 9.37349 38.4166 9.37349 38.2422C9.37349 38.0677 9.43294 37.9194 9.54451 37.8155C9.71474 37.6569 9.75795 37.6562 19.9985 37.6562C30.2392 37.6562 30.2824 37.6569 30.4526 37.8155Z" fill="#684DF4"/>
</svg>
