<svg width="40" height="38" viewBox="0 0 40 38" fill="none" xmlns="http://www.w3.org/2000/svg">
<path fill-rule="evenodd" clip-rule="evenodd" d="M31.1593 0.136462C30.8959 0.300339 30.8072 0.533225 30.3579 2.23794C29.9725 3.70041 29.9388 4.03264 30.1481 4.30585C30.4289 4.67243 31.2036 4.63745 31.4106 4.24886C31.5869 3.91812 32.357 0.78686 32.3091 0.595396C32.241 0.322739 31.8449 -0.00265598 31.5842 1.63518e-05C31.4692 0.00111672 31.2779 0.0625802 31.1593 0.136462ZM21.1563 1.80769C20.7118 1.88173 20.2336 2.12177 19.9391 2.41863C19.8157 2.54297 17.3807 5.63219 14.5278 9.28361L9.34074 15.9225L6.23264 17.7184C4.52321 18.7062 2.83679 19.7038 2.48502 19.9354C1.34123 20.6887 0.591068 21.6941 0.178266 23.0271C0.0264493 23.5173 -0.00352286 23.7821 0.000311699 24.599C0.00422451 25.4574 0.0319272 25.661 0.219273 26.2103C1.01522 28.5441 3.04573 30.0223 5.45555 30.0223C6.01845 30.0223 6.42546 29.9529 7.37166 29.6957C7.43223 29.6792 8.24969 31.0219 9.46055 33.1269C11.668 36.9643 11.9252 37.323 12.7699 37.7406C13.2627 37.9843 13.3446 38 14.1179 38C14.8474 38 14.9922 37.976 15.3887 37.7894C15.9161 37.5411 16.5387 36.9807 16.8171 36.5034C17.2727 35.7225 17.3561 34.664 17.0278 33.8275C16.944 33.6142 16.3571 32.5394 15.7235 31.4393C15.0899 30.3391 14.5561 29.3987 14.5373 29.3496C14.5185 29.3002 14.9789 28.9866 15.5658 28.6491C16.1502 28.313 16.6802 27.9637 16.7434 27.873C16.972 27.5453 16.8871 27.1952 16.3498 26.2496C15.858 25.3839 15.7876 25.2278 15.8887 25.2278C15.9149 25.2278 18.7057 24.6815 22.0906 24.0137C25.4754 23.346 28.9762 22.6568 29.8702 22.4822C30.7641 22.3078 31.5934 22.1141 31.7129 22.052C32.0731 21.865 32.5933 21.3058 32.7606 20.9262C32.9575 20.4788 33.0235 19.7863 32.9094 19.3627C32.8614 19.1845 32.3082 18.1411 31.68 17.0441C31.0518 15.947 30.434 14.8668 30.3072 14.6437L30.0766 14.2379L30.9333 12.9408C31.4045 12.2274 31.8134 11.5372 31.8418 11.407C31.9026 11.1292 31.8938 11.1104 30.8879 9.37141C30.4817 8.66937 30.0554 8.01976 29.9405 7.92788C29.7487 7.77453 29.6677 7.76471 28.9491 7.80715C28.5187 7.83262 27.7792 7.87545 27.3057 7.90233L26.4449 7.9513L24.9971 5.41078C24.2009 4.01346 23.4136 2.7199 23.2476 2.53614C22.7311 1.96449 21.9171 1.68099 21.1563 1.80769ZM22.0058 3.51869C22.2173 3.67785 31.3265 19.502 31.3899 19.8203C31.4868 20.307 31.1111 20.6974 30.4853 20.7605L30.2216 20.787L25.4186 12.4301C21.7188 5.99287 20.6319 4.04302 20.6867 3.94155C20.778 3.77248 21.1669 3.41046 21.3191 3.35269C21.4884 3.28848 21.7999 3.36377 22.0058 3.51869ZM36.8138 4.58C34.1819 6.04962 34.2515 6.00356 34.1591 6.33981C34.0194 6.84794 34.3432 7.3075 34.8411 7.3075C35.2575 7.3075 39.6609 4.87018 39.882 4.51728C40.1968 4.01511 39.8457 3.37729 39.255 3.37792C39.0285 3.37816 38.5001 3.63839 36.8138 4.58ZM24.1238 13.3165C26.581 17.5941 28.5816 21.1037 28.5696 21.1158C28.5361 21.1495 14.9585 23.8179 14.9404 23.7944C14.7892 23.5981 10.835 16.6157 10.8503 16.5721C10.9199 16.3734 19.5532 5.42485 19.5997 5.47633C19.6308 5.51083 21.6666 9.03886 24.1238 13.3165ZM29.6283 10.3238L30.1693 11.2572L29.7157 11.9533C29.4662 12.3362 29.2339 12.6407 29.1995 12.6298C29.1651 12.6191 28.7355 11.9126 28.2449 11.0598C27.2307 9.29705 27.2271 9.44985 28.2839 9.40552C28.6067 9.392 28.9196 9.38304 28.9791 9.38563C29.0387 9.38823 29.3308 9.81038 29.6283 10.3238ZM34.6614 10.9555C34.3045 11.314 34.3258 11.8325 34.7092 12.1201C34.8159 12.2001 35.6236 12.4606 36.5042 12.699C37.7738 13.0428 38.1602 13.1194 38.3714 13.0692C38.9265 12.9372 39.151 12.2129 38.7589 11.8191C38.6018 11.6613 38.2258 11.529 36.9778 11.1924C35.1791 10.7074 34.9335 10.6823 34.6614 10.9555ZM11.5655 21.0601C12.621 22.8961 13.4778 24.405 13.4695 24.413C13.4252 24.4556 7.44561 27.9083 7.18267 28.0431C4.90979 29.2076 2.09554 27.7969 1.5951 25.2421C1.33317 23.905 1.91634 22.3301 2.97937 21.504C3.522 21.0823 9.52597 17.6019 9.59398 17.6695C9.62285 17.6982 10.51 19.224 11.5655 21.0601ZM9.87413 22.8762C9.64641 23.0094 9.48309 23.4097 9.53755 23.7013C9.62575 24.1738 10.2368 24.4423 10.6806 24.2037C11.1027 23.9769 11.1603 23.2522 10.7802 22.9519C10.5611 22.7789 10.1055 22.7408 9.87413 22.8762ZM7.03617 24.5297C6.86463 24.6212 6.51671 24.8177 6.26292 24.9663C6.00914 25.1148 5.7012 25.2565 5.57865 25.2811C5.29074 25.339 4.92701 25.1855 4.76565 24.9382C4.606 24.6935 4.16315 24.5022 3.90624 24.567C3.42433 24.6885 3.17094 25.3617 3.44953 25.7801C3.99349 26.5971 4.87904 26.9915 5.84347 26.8462C6.26488 26.7827 7.8102 25.9454 8.11337 25.6162C8.41246 25.2915 8.4073 24.9018 8.09983 24.593C7.81983 24.3118 7.48215 24.2917 7.03617 24.5297ZM14.6953 26.5055L15.0516 27.1152L14.879 27.2217C13.8828 27.8367 13.7099 27.9191 13.6403 27.8127C13.4493 27.5206 12.9327 26.5513 12.9571 26.5308C13.1464 26.3714 14.2492 25.7992 14.2875 25.8405C14.3158 25.871 14.4992 26.1702 14.6953 26.5055ZM13.5691 30.8265C15.685 34.5141 15.7966 34.7606 15.6185 35.3573C15.2816 36.4869 13.7974 36.8584 13.0035 36.0118C12.828 35.8246 9.02497 29.2891 8.92144 28.9968C8.89272 28.9156 9.25967 28.6623 10.1895 28.1213C10.9091 27.7025 11.5156 27.3584 11.5371 27.3566C11.5586 27.3548 12.473 28.9162 13.5691 30.8265Z" fill="#684DF4"/>
</svg>
