<svg width="50" height="50" viewBox="0 0 50 50" fill="none" xmlns="http://www.w3.org/2000/svg">
<path d="M43.7108 39H39.6326C39.2108 39 38.8748 38.6641 38.8748 38.2422C38.8748 37.8203 39.2108 37.4844 39.6326 37.4844H43.7108C43.8748 37.4844 44.0233 37.4219 44.1248 37.3047C44.2342 37.1953 44.2889 37.0391 44.2733 36.8828L43.9451 31.3281C43.8748 31.0469 43.7889 30.7734 43.6873 30.5078C43.5467 30.1172 43.7498 29.6797 44.1404 29.5391C44.5311 29.3984 44.9686 29.5938 45.1092 29.9922C45.2264 30.3125 45.3358 30.6641 45.4295 31.0234C45.4451 31.0703 45.4529 31.1172 45.4529 31.1641L45.7889 36.7891C45.8201 37.3672 45.6248 37.9219 45.2264 38.3359C44.8436 38.7578 44.2889 39 43.7108 39ZM10.2186 39H5.69514C5.11701 39 4.57014 38.7578 4.1717 38.3438C3.77326 37.9219 3.57795 37.375 3.6092 36.7969L3.94514 31.1719C3.94514 31.125 3.95295 31.0781 3.96857 31.0312C4.44514 29.1797 5.34357 27.4609 6.55451 26.0625C7.46076 24.9922 8.56232 24.0859 9.7967 23.3828C8.83576 22.6719 8.2342 21.8125 7.99201 20.8203C7.49201 18.7891 8.75764 17.0156 8.81232 16.9375L12.8123 11.5625C14.2889 9.46094 15.7186 7.24219 17.1014 5.09375L18.2029 3.35938C19.6092 1.19531 21.9139 0 24.7029 0C27.492 0 29.8045 1.19531 31.2029 3.35938L32.3123 5.08594C33.6951 7.23438 35.117 9.45312 36.6092 11.5703L40.5936 16.9219C40.6561 17.0156 42.0779 19.0078 41.3045 21.1797C41.1639 21.5703 40.7264 21.7812 40.3358 21.6406C39.9451 21.5 39.7342 21.0703 39.8748 20.6719C40.3748 19.2656 39.3826 17.8359 39.367 17.8203L35.3826 12.4531C33.8592 10.2891 32.4295 8.0625 31.0389 5.89844L29.9295 4.17969C28.8201 2.46094 26.9608 1.50781 24.7029 1.50781C22.4451 1.50781 20.5858 2.45312 19.4764 4.17969L18.367 5.89844C16.9764 8.0625 15.5467 10.2891 14.0311 12.4375L10.0233 17.8281C10.0233 17.8359 9.11701 19.1172 9.45295 20.4609C9.67951 21.3672 10.4373 22.1406 11.6951 22.7656C11.9608 22.8984 12.1248 23.1719 12.117 23.4688C12.1092 23.7656 11.9295 24.0312 11.6561 24.1406C10.1326 24.7812 8.75764 25.7812 7.69514 27.0391C6.64045 28.25 5.86701 29.7266 5.44513 31.3281L5.11701 36.8828C5.1092 37.0391 5.16388 37.1875 5.26545 37.3047C5.37482 37.4219 5.52326 37.4844 5.67951 37.4844H10.2029C10.6248 37.4844 10.9608 37.8203 10.9608 38.2422C10.9764 38.6641 10.6404 39 10.2186 39Z" fill="#3E66F3"/>
<path d="M24.7031 25.3279C24.6719 25.3279 24.6406 25.3279 24.6094 25.3201C24.5313 25.3123 24.4453 25.2967 24.3672 25.281C20.5234 24.7342 19.2734 21.7732 18.9141 20.5232C18.8047 20.1326 18.5859 19.7654 18.2813 19.4685C17.5156 18.7029 17.1016 17.6873 17.1016 16.617V11.1404C17.1016 10.3123 17.5078 9.54665 18.1953 9.0779C18.875 8.61696 19.7266 8.52321 20.4766 8.8279C22.1875 9.5154 24.3125 9.74196 24.7031 9.77321C25.0859 9.73415 27.2188 9.50759 28.9219 8.8279C29.6797 8.52321 30.5312 8.61696 31.2031 9.0779C31.8906 9.53884 32.2969 10.3123 32.2969 11.1404V16.617C32.2969 17.6951 31.875 18.7029 31.1172 19.4685C30.8125 19.7654 30.6016 20.1326 30.4844 20.5232C30.125 21.7732 28.875 24.7342 25 25.2888L24.7891 25.3201C24.7734 25.3279 24.7344 25.3279 24.7031 25.3279ZM19.5781 10.1717C19.3906 10.1717 19.2109 10.2263 19.0547 10.3357C18.7812 10.5232 18.625 10.8123 18.625 11.1404V16.617C18.625 17.2888 18.8906 17.9217 19.3594 18.3982C19.8359 18.8748 20.1875 19.4685 20.375 20.1092C20.7188 21.3045 21.7266 23.3748 24.6172 23.7888C24.6484 23.7967 24.6797 23.7967 24.7109 23.8045L24.7891 23.7967C27.6875 23.3826 28.6953 21.3123 29.0469 20.117C29.2266 19.4763 29.5859 18.8826 30.0625 18.406C30.5391 17.9295 30.7969 17.2967 30.7969 16.6248V11.1482C30.7969 10.8201 30.6406 10.531 30.3672 10.3435C30.1016 10.1638 29.7891 10.1326 29.4922 10.2498C27.4062 11.0857 24.875 11.2967 24.7734 11.3045C24.7344 11.3045 24.6953 11.3045 24.6484 11.3045C24.5391 11.2967 22.0156 11.0857 19.9219 10.2498C19.8047 10.1951 19.6953 10.1717 19.5781 10.1717Z" fill="#3E66F3"/>
<path d="M29.1641 15.7027C28.9219 15.7027 28.6875 15.5855 28.5391 15.3745C28.1719 14.8355 27.7891 14.5464 27.5234 14.5464C27.1562 14.562 26.7578 15.0699 26.625 15.312C26.4219 15.6792 25.9609 15.812 25.5937 15.6089C25.2266 15.4058 25.0937 14.9527 25.2891 14.5855C25.375 14.4292 26.1328 13.0933 27.4375 13.0308C28.2891 12.9761 29.0781 13.4917 29.7812 14.523C30.0156 14.8667 29.9297 15.3433 29.5859 15.5777C29.4609 15.6558 29.3125 15.7027 29.1641 15.7027Z" fill="#3E66F3"/>
<path d="M23.4532 15.7027C23.1875 15.7027 22.9297 15.5621 22.7891 15.3121C22.6563 15.0699 22.2578 14.5621 21.8907 14.5464C21.8828 14.5464 21.8828 14.5464 21.875 14.5464C21.6016 14.5464 21.2344 14.8511 20.875 15.3746C20.6407 15.7183 20.1719 15.8121 19.8203 15.5699C19.4766 15.3355 19.3828 14.8667 19.625 14.5152C20.3282 13.4839 21.125 12.9761 21.9688 13.023C23.2735 13.0855 24.0391 14.4292 24.1172 14.5777C24.3203 14.9449 24.1797 15.4058 23.8125 15.6011C23.6953 15.6714 23.5782 15.7027 23.4532 15.7027Z" fill="#3E66F3"/>
<path d="M39.6329 45.9062C39.586 45.9062 39.5313 45.8984 39.4766 45.8906C39.0704 45.8047 38.8047 45.4062 38.8907 45L38.8829 30.25C38.8829 29.8281 39.2188 29.4922 39.6407 29.4922C40.0626 29.4922 40.3985 29.8281 40.3985 30.25V45.0391C40.3985 45.0938 40.3985 45.1953 40.3751 45.3047C40.2969 45.6641 39.9844 45.9062 39.6329 45.9062Z" fill="#3E66F3"/>
<path d="M10.2344 45.9062C9.9375 45.9062 9.64844 45.7266 9.53125 45.4297C9.46094 45.2578 9.46094 45.1094 9.46094 45.0312V28.0156C9.46094 26.9766 10.3047 26.1328 11.3359 26.1328H35.2344C35.6562 26.1328 35.9922 26.4687 35.9922 26.8906C35.9922 27.3125 35.6562 27.6484 35.2344 27.6484H11.3438C11.1406 27.6484 10.9766 27.8125 10.9766 28.0234V45C11.0469 45.3516 10.8594 45.7187 10.5156 45.8516C10.4219 45.8906 10.3281 45.9062 10.2344 45.9062Z" fill="#3E66F3"/>
<path d="M38.8516 50H10.9922C9.375 50 8.05469 48.6797 8.05469 47.0625V45.1562C8.05469 44.7344 8.39062 44.3984 8.8125 44.3984H41.0391C41.4609 44.3984 41.7969 44.7344 41.7969 45.1562V47.0547C41.7969 48.6797 40.4766 50 38.8516 50ZM9.57031 45.9141V47.0547C9.57031 47.8437 10.2109 48.4766 10.9922 48.4766H38.8516C39.6406 48.4766 40.2812 47.8359 40.2812 47.0547V45.9141H9.57031Z" fill="#3E66F3"/>
<path d="M45.1562 31.0078H34.1172C33.6719 31.0078 33.2734 30.7813 33.0469 30.3906C32.8281 30.0078 32.8281 29.5391 33.0469 29.1563L38.5625 19.6016C38.7813 19.2188 39.1875 18.9844 39.6328 18.9844C40.0703 18.9844 40.4844 19.2188 40.7031 19.6016L46.2188 29.1563C46.4453 29.5469 46.4375 30 46.2188 30.3906C46 30.7813 45.6016 31.0078 45.1562 31.0078ZM34.6094 29.4922H44.6641L39.6328 20.7891L34.6094 29.4922Z" fill="#3E66F3"/>
<path d="M39.6406 27.0312C39.2188 27.0312 38.8828 26.6953 38.8828 26.2734V23.2187C38.8828 22.7969 39.2188 22.4609 39.6406 22.4609C40.0625 22.4609 40.3984 22.7969 40.3984 23.2187V26.2734C40.3984 26.6953 40.0547 27.0312 39.6406 27.0312Z" fill="#3E66F3"/>
<path d="M39.6328 29.0703C39.2109 29.0703 38.875 28.7344 38.875 28.3125V28.0703C38.875 27.6484 39.2109 27.3125 39.6328 27.3125C40.0547 27.3125 40.3906 27.6484 40.3906 28.0703V28.3125C40.3906 28.7266 40.0547 29.0703 39.6328 29.0703Z" fill="#3E66F3"/>
<path d="M24.9297 40.1641C22.9844 40.1641 21.3984 38.5781 21.3984 36.6328C21.3984 34.6875 22.9844 33.1016 24.9297 33.1016C26.875 33.1016 28.4609 34.6875 28.4609 36.6328C28.4609 38.5859 26.875 40.1641 24.9297 40.1641ZM24.9297 34.6172C23.8203 34.6172 22.9141 35.5234 22.9141 36.6328C22.9141 37.7422 23.8203 38.6484 24.9297 38.6484C26.0391 38.6484 26.9453 37.7422 26.9453 36.6328C26.9453 35.5234 26.0391 34.6172 24.9297 34.6172Z" fill="#3E66F3"/>
<path d="M24.703 20.7655C23.8749 20.7655 23.0467 20.4686 22.2421 19.8749C21.9061 19.6249 21.8358 19.1483 22.0858 18.8124C22.3358 18.4764 22.8046 18.4061 23.1483 18.6561C24.2264 19.453 25.1874 19.453 26.2733 18.6561C26.6092 18.4061 27.0858 18.4764 27.3358 18.8124C27.5858 19.1483 27.5155 19.6249 27.1717 19.8749C26.3592 20.4686 25.5311 20.7655 24.703 20.7655Z" fill="#3E66F3"/>
</svg>
