<svg width="40" height="40" viewBox="0 0 40 40" fill="none" xmlns="http://www.w3.org/2000/svg">
<path fill-rule="evenodd" clip-rule="evenodd" d="M8.86673 0.0940758C8.00514 0.395171 7.52774 1.25814 7.72792 2.15252C7.8102 2.5201 7.89747 2.67089 8.2072 2.98058C8.41543 3.18878 8.64022 3.35917 8.70671 3.35917C8.80821 3.35917 8.82767 3.49152 8.82767 4.183C8.82767 4.95363 8.84009 5.01934 9.01949 5.19864L9.21123 5.39043H11.9495H14.6878V5.97637V6.56231L8.06585 6.56403C1.56942 6.56575 1.43729 6.5688 1.09232 6.72513C0.619765 6.93935 0.403722 7.15154 0.184164 7.61701L0 8.00764L0.000937617 19.6483C0.00187523 31.1973 0.00312542 31.2917 0.16127 31.6406C0.359576 32.0779 0.573509 32.311 0.975122 32.5271C1.28625 32.6945 1.31688 32.6954 7.89661 32.7343L14.5056 32.7734L14.3964 33.3133C14.194 34.3141 13.5513 35.4466 12.7844 36.1534L12.4254 36.4844H10.9871C9.56432 36.4844 9.54416 36.4867 9.13091 36.7026C8.87009 36.8388 8.62452 37.0469 8.47739 37.2562C8.26088 37.5642 8.24166 37.6447 8.24166 38.2422C8.24166 38.8397 8.26088 38.9201 8.47739 39.2281C8.62452 39.4375 8.87009 39.6455 9.13091 39.7818L9.54869 40H19.9959H30.4429L30.8667 39.7852C31.1443 39.6445 31.3715 39.4534 31.5253 39.2316C31.7405 38.9212 31.7602 38.8382 31.7602 38.2422C31.7602 37.6462 31.7405 37.5631 31.5253 37.2528C31.3715 37.0309 31.1443 36.8399 30.8667 36.6992C30.4502 36.488 30.4185 36.4844 29.0097 36.4844H27.5765L27.2175 36.1534C26.4506 35.4466 25.8078 34.3141 25.6055 33.3133L25.4963 32.7734L32.1053 32.7343C38.685 32.6954 38.7156 32.6945 39.0268 32.5271C39.4284 32.311 39.6423 32.0779 39.8406 31.6406C39.9988 31.2917 40 31.1983 40 19.6483C40 8.09834 39.9988 8.0049 39.8406 7.65607C39.6264 7.18357 39.4141 6.96755 38.9486 6.74802L38.558 6.56388L34.1776 6.5631C29.8768 6.56231 29.7941 6.56521 29.6263 6.72161C29.3964 6.93575 29.3964 7.36076 29.6263 7.5749C29.794 7.73123 29.8777 7.7342 34.1226 7.7342H38.4479L38.6396 7.92599L38.8314 8.11771V19.6483V31.1789L38.6396 31.3707L38.4479 31.5625H20.0009H1.55402L1.36228 31.3707L1.17046 31.1789V19.6483V8.11771L1.36228 7.92599L1.55402 7.7342H8.12094H14.6878V8.32014V8.90608H8.70695H2.72604L2.5343 9.09788L2.34248 9.28959V17.2124C2.34248 25.1093 2.34303 25.1358 2.50445 25.3409C2.72839 25.6256 3.12859 25.6256 3.35253 25.3409C3.51388 25.1359 3.5145 25.1047 3.5145 17.6065V10.078H9.10114H14.6878V11.6452V13.2124L13.3258 13.8656C11.9914 14.5056 11.9621 14.5249 11.8807 14.8179C11.7578 15.2605 11.7745 24.3244 11.8988 24.6822C11.9891 24.9416 12.1182 25.0105 15.8898 26.8111C18.0336 27.8345 19.8834 28.6718 20.0006 28.6718C20.1178 28.6718 20.6493 28.4652 21.1817 28.2127C23.8836 26.9313 24.6422 26.5499 24.7368 26.4253C24.9645 26.1255 24.828 25.6887 24.4677 25.563C24.2057 25.4717 23.9983 25.5524 21.9348 26.5478L20.626 27.1791V23.0526V18.9261L23.6884 17.4625C25.3728 16.6575 26.7968 15.9814 26.8529 15.9598C26.936 15.9279 26.9549 16.6813 26.9549 20.0295V24.1383L26.4918 24.3721C25.7941 24.7242 25.6361 25.0266 25.9449 25.4191C26.1793 25.717 26.4904 25.6854 27.3267 25.2784C27.9851 24.958 28.0449 24.9095 28.1215 24.6339C28.2358 24.2222 28.2352 15.2285 28.1208 14.8167C28.039 14.522 28.0115 14.5038 26.6758 13.8632L25.3141 13.2102V11.6441V10.078H30.9007H36.4874V19.6483V29.2187H20.0009H3.5145V28.2386C3.5145 27.3021 3.50599 27.2499 3.32268 27.0667C3.07828 26.8223 2.77871 26.8223 2.5343 27.0667C2.34522 27.2558 2.34248 27.2778 2.34248 28.6327C2.34248 29.9877 2.34522 30.0097 2.5343 30.1988L2.72604 30.3906H20.0009H37.2758L37.4676 30.1988L37.6594 30.0071V19.6483V9.28959L37.4676 9.09788L37.2758 8.90608H31.2949H25.3141V8.32014V7.7342H26.5104C27.6064 7.7342 27.7212 7.72084 27.8778 7.5749C27.9894 7.47099 28.0488 7.32271 28.0488 7.14826C28.0488 6.9738 27.9894 6.82552 27.8778 6.72161C27.7212 6.57567 27.6064 6.56231 26.5104 6.56231H25.3141V5.97637V5.39043H28.0523H30.7906L30.9824 5.19864C31.1618 5.01934 31.1742 4.95363 31.1742 4.183C31.1742 3.56839 31.1995 3.35917 31.2736 3.35917C31.4516 3.35917 31.956 2.88315 32.1301 2.55081C32.3626 2.10721 32.3626 1.40799 32.1301 0.964393C31.5928 -0.0611594 30.2843 -0.30913 29.4375 0.454234C28.8921 0.945799 28.714 1.57057 28.9139 2.29049C29.0075 2.62721 29.4496 3.15558 29.7815 3.32714C29.9788 3.42925 30.0022 3.48245 30.0022 3.82996V4.21855H27.264H24.5256L24.3339 4.41035C24.1506 4.59355 24.1421 4.64574 24.1421 5.58223V6.56231H22.3841H20.626L20.6302 4.98027L20.6345 3.39823L20.9972 3.16386C21.534 2.81698 21.7392 2.3826 21.705 1.66487C21.6706 0.94119 21.4109 0.530797 20.7873 0.214623C20.2208 -0.0725658 19.7648 -0.0716283 19.2103 0.217983C18.5891 0.542516 18.3308 0.951659 18.2969 1.66487C18.2627 2.3826 18.4679 2.81698 19.0046 3.16386L19.3673 3.39823L19.3716 4.98027L19.3759 6.56231H17.6178H15.8598V5.58223C15.8598 4.64574 15.8513 4.59355 15.668 4.41035L15.4762 4.21855H12.7379H9.99969V3.82996C9.99969 3.48245 10.023 3.42925 10.2204 3.32714C10.783 3.03628 11.1723 2.36042 11.1695 1.67948C11.1651 0.580953 9.92202 -0.274833 8.86673 0.0940758ZM9.80787 1.36346C9.91335 1.46893 9.99969 1.64627 9.99969 1.7576C9.99969 2.01807 9.67418 2.34354 9.41368 2.34354C9.15318 2.34354 8.82767 2.01807 8.82767 1.7576C8.82767 1.49713 9.15318 1.17166 9.41368 1.17166C9.52502 1.17166 9.70239 1.25799 9.80787 1.36346ZM20.3768 1.33096C20.7407 1.66987 20.4906 2.34354 20.0009 2.34354C19.7016 2.34354 19.454 2.07831 19.454 1.7576C19.454 1.4369 19.7016 1.17166 20.0009 1.17166C20.1137 1.17166 20.2829 1.24338 20.3768 1.33096ZM30.9824 1.36346C31.0879 1.46893 31.1742 1.64627 31.1742 1.7576C31.1742 2.01807 30.8487 2.34354 30.5882 2.34354C30.3277 2.34354 30.0022 2.01807 30.0022 1.7576C30.0022 1.49713 30.3277 1.17166 30.5882 1.17166C30.6995 1.17166 30.8769 1.25799 30.9824 1.36346ZM19.3759 8.32014V8.90608H17.6178H15.8598V8.32014V7.7342H17.6178H19.3759V8.32014ZM24.1421 8.32014V8.90608H22.3841H20.626V8.32014V7.7342H22.3841H24.1421V8.32014ZM19.3759 10.534V10.99L18.5359 11.3842C18.074 11.601 17.2829 11.9746 16.7779 12.2143L15.8598 12.6502V11.3641V10.078H17.6178H19.3759V10.534ZM24.1421 11.3636V12.6492L22.9115 12.0598C22.2346 11.7357 21.4435 11.3634 21.1534 11.2325L20.626 10.9945V10.5362V10.078H22.3841H24.1421V11.3636ZM23.0862 13.4469C24.7198 14.2256 26.0837 14.8874 26.1169 14.9176C26.1669 14.9629 20.7905 17.5903 20.1572 17.83C19.989 17.8936 19.5384 17.7011 16.9146 16.4445C15.2386 15.6418 13.853 14.9711 13.8355 14.9541C13.818 14.937 14.0289 14.8206 14.3043 14.6952C14.5796 14.5699 15.9477 13.9199 17.3444 13.2507C18.741 12.5816 19.936 12.0334 19.9998 12.0326C20.0637 12.0318 21.4525 12.6682 23.0862 13.4469ZM16.234 17.4189L19.3368 18.9003L19.357 23.0387L19.3772 27.1772L18.4975 26.7584C18.0137 26.5282 16.5982 25.8516 15.3519 25.2551L13.086 24.1705L13.0658 20.0539C13.0547 17.7898 13.0648 15.9374 13.0884 15.9374C13.112 15.9374 14.5274 16.604 16.234 17.4189ZM24.3405 33.0273C24.5253 34.1279 24.907 35.0836 25.5026 35.9375L25.8569 36.4453L22.929 36.4658C21.3185 36.477 18.6824 36.477 17.0709 36.4658L14.1408 36.4453L14.4458 36.0154C15.0623 35.1466 15.4243 34.237 15.6662 32.9492L15.7065 32.7343H19.9989H24.2912L24.3405 33.0273ZM30.4562 37.8155C30.6861 38.0297 30.6861 38.4547 30.4562 38.6688C30.286 38.8275 30.2428 38.8281 20.0009 38.8281C9.75911 38.8281 9.7159 38.8275 9.54565 38.6688C9.43407 38.5649 9.37461 38.4166 9.37461 38.2422C9.37461 38.0677 9.43407 37.9194 9.54565 37.8155C9.7159 37.6569 9.75911 37.6562 20.0009 37.6562C30.2428 37.6562 30.286 37.6569 30.4562 37.8155Z" fill="#684DF4"/>
</svg>
