<svg width="60" height="60" viewBox="0 0 60 60" fill="none" xmlns="http://www.w3.org/2000/svg">
<path d="M22.5 31.875V13.125H28.125V16.875H31.875V9.375H9.375V16.875H13.125V13.125H18.75V31.875H14.0625V35.625H27.1875V31.875H22.5Z" stroke="url(#paint0_linear_394_374)" stroke-width="1.5" stroke-linejoin="round"/>
<path d="M1.875 1.875H7.5V7.5H1.875V1.875Z" stroke="url(#paint1_linear_394_374)" stroke-width="1.5" stroke-linejoin="round"/>
<path d="M1.875 37.5H7.5V43.125H1.875V37.5Z" stroke="url(#paint2_linear_394_374)" stroke-width="1.5" stroke-linejoin="round"/>
<path d="M33.75 1.875H39.375V7.5H33.75V1.875Z" stroke="url(#paint3_linear_394_374)" stroke-width="1.5" stroke-linejoin="round"/>
<path d="M36.5625 52.5V38.9062C36.5625 37.0414 37.3033 35.253 38.6219 33.9344C39.9405 32.6158 41.7289 31.875 43.5938 31.875C45.4586 31.875 47.247 32.6158 48.5656 33.9344C49.8842 35.253 50.625 37.0414 50.625 38.9062V52.5H46.875V45.9375H40.3125V52.5H36.5625Z" stroke="url(#paint4_linear_394_374)" stroke-width="1.5" stroke-linejoin="round"/>
<path d="M46.875 42.1875H40.3125V38.9062C40.3125 38.036 40.6582 37.2014 41.2736 36.5861C41.8889 35.9707 42.7235 35.625 43.5938 35.625C44.464 35.625 45.2986 35.9707 45.9139 36.5861C46.5293 37.2014 46.875 38.036 46.875 38.9062V42.1875Z" stroke="url(#paint5_linear_394_374)" stroke-width="1.5" stroke-linejoin="round"/>
<path d="M29.0625 26.25H32.8125V30H29.0625V26.25Z" stroke="url(#paint6_linear_394_374)" stroke-width="1.5" stroke-linejoin="round"/>
<path d="M29.0625 54.375H32.8125V58.125H29.0625V54.375Z" stroke="url(#paint7_linear_394_374)" stroke-width="1.5" stroke-linejoin="round"/>
<path d="M54.375 26.25H58.125V30H54.375V26.25Z" stroke="url(#paint8_linear_394_374)" stroke-width="1.5" stroke-linejoin="round"/>
<path d="M54.375 54.375H58.125V58.125H54.375V54.375Z" stroke="url(#paint9_linear_394_374)" stroke-width="1.5" stroke-linejoin="round"/>
<path d="M32.8125 28.125H54.375" stroke="url(#paint10_linear_394_374)" stroke-width="1.5" stroke-linejoin="round"/>
<path d="M32.8125 56.25H54.375" stroke="url(#paint11_linear_394_374)" stroke-width="1.5" stroke-linejoin="round"/>
<path d="M30.9375 30V54.375" stroke="url(#paint12_linear_394_374)" stroke-width="1.5" stroke-linejoin="round"/>
<path d="M56.25 30V54.375" stroke="url(#paint13_linear_394_374)" stroke-width="1.5" stroke-linejoin="round"/>
<path d="M4.6875 37.5V34.6875" stroke="url(#paint14_linear_394_374)" stroke-width="1.5" stroke-linejoin="round"/>
<path d="M4.6875 32.8125V30.9375" stroke="url(#paint15_linear_394_374)" stroke-width="1.5" stroke-linejoin="round"/>
<path d="M4.6875 29.0625V27.1875" stroke="url(#paint16_linear_394_374)" stroke-width="1.5" stroke-linejoin="round"/>
<path d="M4.6875 25.3125V23.4375" stroke="url(#paint17_linear_394_374)" stroke-width="1.5" stroke-linejoin="round"/>
<path d="M4.6875 21.5625V19.6875" stroke="url(#paint18_linear_394_374)" stroke-width="1.5" stroke-linejoin="round"/>
<path d="M4.6875 17.8125V15.9375" stroke="url(#paint19_linear_394_374)" stroke-width="1.5" stroke-linejoin="round"/>
<path d="M4.6875 14.0625V12.1875" stroke="url(#paint20_linear_394_374)" stroke-width="1.5" stroke-linejoin="round"/>
<path d="M4.6875 7.5V10.3125" stroke="url(#paint21_linear_394_374)" stroke-width="1.5" stroke-linejoin="round"/>
<path d="M36.5625 25.3125V23.4375" stroke="url(#paint22_linear_394_374)" stroke-width="1.5" stroke-linejoin="round"/>
<path d="M36.5625 21.5625V19.6875" stroke="url(#paint23_linear_394_374)" stroke-width="1.5" stroke-linejoin="round"/>
<path d="M36.5625 17.8125V15.9375" stroke="url(#paint24_linear_394_374)" stroke-width="1.5" stroke-linejoin="round"/>
<path d="M36.5625 14.0625V12.1875" stroke="url(#paint25_linear_394_374)" stroke-width="1.5" stroke-linejoin="round"/>
<path d="M36.5625 7.5V10.3125" stroke="url(#paint26_linear_394_374)" stroke-width="1.5" stroke-linejoin="round"/>
<path d="M7.5 4.6875H10.3125" stroke="url(#paint27_linear_394_374)" stroke-width="1.5" stroke-linejoin="round"/>
<path d="M12.1875 4.6875H14.0625" stroke="url(#paint28_linear_394_374)" stroke-width="1.5" stroke-linejoin="round"/>
<path d="M15.9375 4.6875H17.8125" stroke="url(#paint29_linear_394_374)" stroke-width="1.5" stroke-linejoin="round"/>
<path d="M19.6875 4.6875H21.5625" stroke="url(#paint30_linear_394_374)" stroke-width="1.5" stroke-linejoin="round"/>
<path d="M23.4375 4.6875H25.3125" stroke="url(#paint31_linear_394_374)" stroke-width="1.5" stroke-linejoin="round"/>
<path d="M27.1875 4.6875H29.0625" stroke="url(#paint32_linear_394_374)" stroke-width="1.5" stroke-linejoin="round"/>
<path d="M33.75 4.6875H30.9375" stroke="url(#paint33_linear_394_374)" stroke-width="1.5" stroke-linejoin="round"/>
<path d="M7.5 40.3125H10.3125" stroke="url(#paint34_linear_394_374)" stroke-width="1.5" stroke-linejoin="round"/>
<path d="M12.1875 40.3125H14.0625" stroke="url(#paint35_linear_394_374)" stroke-width="1.5" stroke-linejoin="round"/>
<path d="M15.9375 40.3125H17.8125" stroke="url(#paint36_linear_394_374)" stroke-width="1.5" stroke-linejoin="round"/>
<path d="M19.6875 40.3125H21.5625" stroke="url(#paint37_linear_394_374)" stroke-width="1.5" stroke-linejoin="round"/>
<path d="M23.4375 40.3125H25.3125" stroke="url(#paint38_linear_394_374)" stroke-width="1.5" stroke-linejoin="round"/>
<path d="M27.1875 40.3125H30.9375" stroke="url(#paint39_linear_394_374)" stroke-width="1.5" stroke-linejoin="round"/>
<defs>
<linearGradient id="paint0_linear_394_374" x1="20.625" y1="9.375" x2="20.625" y2="35.625" gradientUnits="userSpaceOnUse">
<stop stop-color="#02CE80"/>
<stop offset="1" stop-color="#7BD706"/>
</linearGradient>
<linearGradient id="paint1_linear_394_374" x1="4.6875" y1="1.875" x2="4.6875" y2="7.5" gradientUnits="userSpaceOnUse">
<stop stop-color="#02CE80"/>
<stop offset="1" stop-color="#7BD706"/>
</linearGradient>
<linearGradient id="paint2_linear_394_374" x1="4.6875" y1="37.5" x2="4.6875" y2="43.125" gradientUnits="userSpaceOnUse">
<stop stop-color="#02CE80"/>
<stop offset="1" stop-color="#7BD706"/>
</linearGradient>
<linearGradient id="paint3_linear_394_374" x1="36.5625" y1="1.875" x2="36.5625" y2="7.5" gradientUnits="userSpaceOnUse">
<stop stop-color="#02CE80"/>
<stop offset="1" stop-color="#7BD706"/>
</linearGradient>
<linearGradient id="paint4_linear_394_374" x1="43.5938" y1="31.875" x2="43.5938" y2="52.5" gradientUnits="userSpaceOnUse">
<stop stop-color="#02CE80"/>
<stop offset="1" stop-color="#7BD706"/>
</linearGradient>
<linearGradient id="paint5_linear_394_374" x1="43.5938" y1="35.625" x2="43.5938" y2="42.1875" gradientUnits="userSpaceOnUse">
<stop stop-color="#02CE80"/>
<stop offset="1" stop-color="#7BD706"/>
</linearGradient>
<linearGradient id="paint6_linear_394_374" x1="30.9375" y1="26.25" x2="30.9375" y2="30" gradientUnits="userSpaceOnUse">
<stop stop-color="#02CE80"/>
<stop offset="1" stop-color="#7BD706"/>
</linearGradient>
<linearGradient id="paint7_linear_394_374" x1="30.9375" y1="54.375" x2="30.9375" y2="58.125" gradientUnits="userSpaceOnUse">
<stop stop-color="#02CE80"/>
<stop offset="1" stop-color="#7BD706"/>
</linearGradient>
<linearGradient id="paint8_linear_394_374" x1="56.25" y1="26.25" x2="56.25" y2="30" gradientUnits="userSpaceOnUse">
<stop stop-color="#02CE80"/>
<stop offset="1" stop-color="#7BD706"/>
</linearGradient>
<linearGradient id="paint9_linear_394_374" x1="56.25" y1="54.375" x2="56.25" y2="58.125" gradientUnits="userSpaceOnUse">
<stop stop-color="#02CE80"/>
<stop offset="1" stop-color="#7BD706"/>
</linearGradient>
<linearGradient id="paint10_linear_394_374" x1="43.5938" y1="28.125" x2="43.5938" y2="29.125" gradientUnits="userSpaceOnUse">
<stop stop-color="#02CE80"/>
<stop offset="1" stop-color="#7BD706"/>
</linearGradient>
<linearGradient id="paint11_linear_394_374" x1="43.5938" y1="56.25" x2="43.5938" y2="57.25" gradientUnits="userSpaceOnUse">
<stop stop-color="#02CE80"/>
<stop offset="1" stop-color="#7BD706"/>
</linearGradient>
<linearGradient id="paint12_linear_394_374" x1="31.4375" y1="30" x2="31.4375" y2="54.375" gradientUnits="userSpaceOnUse">
<stop stop-color="#02CE80"/>
<stop offset="1" stop-color="#7BD706"/>
</linearGradient>
<linearGradient id="paint13_linear_394_374" x1="56.75" y1="30" x2="56.75" y2="54.375" gradientUnits="userSpaceOnUse">
<stop stop-color="#02CE80"/>
<stop offset="1" stop-color="#7BD706"/>
</linearGradient>
<linearGradient id="paint14_linear_394_374" x1="5.1875" y1="34.6875" x2="5.1875" y2="37.5" gradientUnits="userSpaceOnUse">
<stop stop-color="#02CE80"/>
<stop offset="1" stop-color="#7BD706"/>
</linearGradient>
<linearGradient id="paint15_linear_394_374" x1="5.1875" y1="30.9375" x2="5.1875" y2="32.8125" gradientUnits="userSpaceOnUse">
<stop stop-color="#02CE80"/>
<stop offset="1" stop-color="#7BD706"/>
</linearGradient>
<linearGradient id="paint16_linear_394_374" x1="5.1875" y1="27.1875" x2="5.1875" y2="29.0625" gradientUnits="userSpaceOnUse">
<stop stop-color="#02CE80"/>
<stop offset="1" stop-color="#7BD706"/>
</linearGradient>
<linearGradient id="paint17_linear_394_374" x1="5.1875" y1="23.4375" x2="5.1875" y2="25.3125" gradientUnits="userSpaceOnUse">
<stop stop-color="#02CE80"/>
<stop offset="1" stop-color="#7BD706"/>
</linearGradient>
<linearGradient id="paint18_linear_394_374" x1="5.1875" y1="19.6875" x2="5.1875" y2="21.5625" gradientUnits="userSpaceOnUse">
<stop stop-color="#02CE80"/>
<stop offset="1" stop-color="#7BD706"/>
</linearGradient>
<linearGradient id="paint19_linear_394_374" x1="5.1875" y1="15.9375" x2="5.1875" y2="17.8125" gradientUnits="userSpaceOnUse">
<stop stop-color="#02CE80"/>
<stop offset="1" stop-color="#7BD706"/>
</linearGradient>
<linearGradient id="paint20_linear_394_374" x1="5.1875" y1="12.1875" x2="5.1875" y2="14.0625" gradientUnits="userSpaceOnUse">
<stop stop-color="#02CE80"/>
<stop offset="1" stop-color="#7BD706"/>
</linearGradient>
<linearGradient id="paint21_linear_394_374" x1="5.1875" y1="7.5" x2="5.1875" y2="10.3125" gradientUnits="userSpaceOnUse">
<stop stop-color="#02CE80"/>
<stop offset="1" stop-color="#7BD706"/>
</linearGradient>
<linearGradient id="paint22_linear_394_374" x1="37.0625" y1="23.4375" x2="37.0625" y2="25.3125" gradientUnits="userSpaceOnUse">
<stop stop-color="#02CE80"/>
<stop offset="1" stop-color="#7BD706"/>
</linearGradient>
<linearGradient id="paint23_linear_394_374" x1="37.0625" y1="19.6875" x2="37.0625" y2="21.5625" gradientUnits="userSpaceOnUse">
<stop stop-color="#02CE80"/>
<stop offset="1" stop-color="#7BD706"/>
</linearGradient>
<linearGradient id="paint24_linear_394_374" x1="37.0625" y1="15.9375" x2="37.0625" y2="17.8125" gradientUnits="userSpaceOnUse">
<stop stop-color="#02CE80"/>
<stop offset="1" stop-color="#7BD706"/>
</linearGradient>
<linearGradient id="paint25_linear_394_374" x1="37.0625" y1="12.1875" x2="37.0625" y2="14.0625" gradientUnits="userSpaceOnUse">
<stop stop-color="#02CE80"/>
<stop offset="1" stop-color="#7BD706"/>
</linearGradient>
<linearGradient id="paint26_linear_394_374" x1="37.0625" y1="7.5" x2="37.0625" y2="10.3125" gradientUnits="userSpaceOnUse">
<stop stop-color="#02CE80"/>
<stop offset="1" stop-color="#7BD706"/>
</linearGradient>
<linearGradient id="paint27_linear_394_374" x1="8.90625" y1="4.6875" x2="8.90625" y2="5.6875" gradientUnits="userSpaceOnUse">
<stop stop-color="#02CE80"/>
<stop offset="1" stop-color="#7BD706"/>
</linearGradient>
<linearGradient id="paint28_linear_394_374" x1="13.125" y1="4.6875" x2="13.125" y2="5.6875" gradientUnits="userSpaceOnUse">
<stop stop-color="#02CE80"/>
<stop offset="1" stop-color="#7BD706"/>
</linearGradient>
<linearGradient id="paint29_linear_394_374" x1="16.875" y1="4.6875" x2="16.875" y2="5.6875" gradientUnits="userSpaceOnUse">
<stop stop-color="#02CE80"/>
<stop offset="1" stop-color="#7BD706"/>
</linearGradient>
<linearGradient id="paint30_linear_394_374" x1="20.625" y1="4.6875" x2="20.625" y2="5.6875" gradientUnits="userSpaceOnUse">
<stop stop-color="#02CE80"/>
<stop offset="1" stop-color="#7BD706"/>
</linearGradient>
<linearGradient id="paint31_linear_394_374" x1="24.375" y1="4.6875" x2="24.375" y2="5.6875" gradientUnits="userSpaceOnUse">
<stop stop-color="#02CE80"/>
<stop offset="1" stop-color="#7BD706"/>
</linearGradient>
<linearGradient id="paint32_linear_394_374" x1="28.125" y1="4.6875" x2="28.125" y2="5.6875" gradientUnits="userSpaceOnUse">
<stop stop-color="#02CE80"/>
<stop offset="1" stop-color="#7BD706"/>
</linearGradient>
<linearGradient id="paint33_linear_394_374" x1="32.3438" y1="4.6875" x2="32.3438" y2="5.6875" gradientUnits="userSpaceOnUse">
<stop stop-color="#02CE80"/>
<stop offset="1" stop-color="#7BD706"/>
</linearGradient>
<linearGradient id="paint34_linear_394_374" x1="8.90625" y1="40.3125" x2="8.90625" y2="41.3125" gradientUnits="userSpaceOnUse">
<stop stop-color="#02CE80"/>
<stop offset="1" stop-color="#7BD706"/>
</linearGradient>
<linearGradient id="paint35_linear_394_374" x1="13.125" y1="40.3125" x2="13.125" y2="41.3125" gradientUnits="userSpaceOnUse">
<stop stop-color="#02CE80"/>
<stop offset="1" stop-color="#7BD706"/>
</linearGradient>
<linearGradient id="paint36_linear_394_374" x1="16.875" y1="40.3125" x2="16.875" y2="41.3125" gradientUnits="userSpaceOnUse">
<stop stop-color="#02CE80"/>
<stop offset="1" stop-color="#7BD706"/>
</linearGradient>
<linearGradient id="paint37_linear_394_374" x1="20.625" y1="40.3125" x2="20.625" y2="41.3125" gradientUnits="userSpaceOnUse">
<stop stop-color="#02CE80"/>
<stop offset="1" stop-color="#7BD706"/>
</linearGradient>
<linearGradient id="paint38_linear_394_374" x1="24.375" y1="40.3125" x2="24.375" y2="41.3125" gradientUnits="userSpaceOnUse">
<stop stop-color="#02CE80"/>
<stop offset="1" stop-color="#7BD706"/>
</linearGradient>
<linearGradient id="paint39_linear_394_374" x1="29.0625" y1="40.3125" x2="29.0625" y2="41.3125" gradientUnits="userSpaceOnUse">
<stop stop-color="#02CE80"/>
<stop offset="1" stop-color="#7BD706"/>
</linearGradient>
</defs>
</svg>
