<svg width="40" height="38" viewBox="0 0 40 38" fill="none" xmlns="http://www.w3.org/2000/svg">
<path fill-rule="evenodd" clip-rule="evenodd" d="M13.2223 0.0432549C11.6885 0.347598 10.8351 2.0039 11.5119 3.36247C11.7638 3.86819 12.2874 4.35281 12.7823 4.53845L13.1287 4.66836L13.1081 7.28714L13.0876 9.90592L11.819 9.9443C10.1563 9.99459 10.2052 9.95482 10.169 11.2898L10.1431 12.2476H7.45806H4.77301L4.57975 11.8332C3.96261 10.5093 2.30655 10.0225 1.11002 10.8133C-0.501324 11.8784 -0.302984 14.173 1.46847 14.9588C1.96756 15.1802 2.85864 15.1763 3.37259 14.9505C3.85386 14.7389 4.38032 14.2165 4.57099 13.7615L4.72243 13.3998L7.43914 13.3996L10.1559 13.3993V15.8945V18.3897L7.43914 18.3894L4.72243 18.3892L4.58342 18.0572C4.50704 17.8746 4.29909 17.5767 4.12131 17.395C2.96645 16.2147 1.02293 16.499 0.242157 17.9626C0.0685997 18.2879 0.0345138 18.4516 0.0331847 18.9656C0.0319339 19.4842 0.065629 19.6477 0.249818 20.016C0.506401 20.5291 0.879626 20.8738 1.46284 21.136C1.83106 21.3015 1.966 21.3213 2.52185 21.2916C3.50542 21.2389 4.126 20.8519 4.53495 20.0361L4.78302 19.5414H7.4694H10.1559V22.075V24.6087H7.43195H4.70812L4.6104 24.2883C4.54598 24.0774 4.36148 23.8196 4.06956 23.5329C3.50518 22.9787 3.03799 22.808 2.22493 22.8593C0.179145 22.9882 -0.745241 25.4015 0.705444 26.8261C1.21173 27.3234 1.63679 27.4878 2.41615 27.4878C3.00664 27.4878 3.12734 27.4624 3.49932 27.2601C4.00631 26.9843 4.49524 26.4581 4.61775 26.0564L4.70812 25.7603H7.42561H10.1431L10.169 26.7181C10.2052 28.0531 10.1563 28.0133 11.819 28.0636L13.0876 28.102L13.1081 30.7208L13.1287 33.3396L12.7823 33.4695C12.2866 33.6554 11.7638 34.1397 11.511 34.6472C11.1062 35.4598 11.2658 36.5104 11.9072 37.2552C12.0242 37.391 12.3456 37.6113 12.6214 37.7446C14.0046 38.4133 15.5624 37.7187 15.9835 36.2452C16.2891 35.1754 15.7074 33.9518 14.6884 33.5213L14.2993 33.3569V30.7093V28.0615L16.8597 28.0817L19.42 28.102L19.4406 30.7208L19.4612 33.3396L19.1148 33.4695C18.6191 33.6554 18.0963 34.1397 17.8435 34.6472C17.4387 35.4598 17.5982 36.5104 18.2397 37.2552C18.3567 37.391 18.6797 37.612 18.9574 37.7463C20.1889 38.3417 21.591 37.8406 22.1855 36.5924C22.4759 35.9828 22.4739 35.1738 22.1806 34.628C21.917 34.1373 21.4748 33.7194 21.0032 33.515L20.6318 33.354V30.7088V28.0636H23.1726H25.7134V30.6987V33.3338L25.3109 33.5125C24.4852 33.879 23.9922 34.5833 23.9324 35.4819C23.8846 36.2006 24.0502 36.6906 24.5109 37.1939C24.9848 37.7116 25.5518 37.9776 26.195 37.9841C27.1287 37.9935 27.7731 37.67 28.2727 36.9408C28.601 36.4618 28.7107 36.0453 28.6633 35.4583C28.5949 34.6138 28.0726 33.8807 27.279 33.5157L26.8861 33.3349V30.6993V28.0636H28.143H29.3999L29.6284 27.8392C29.8557 27.6159 29.8569 27.61 29.8569 26.6875V25.7603H32.5504H35.2439L35.4078 26.125C36.0545 27.5641 37.9828 27.9753 39.1698 26.9272C40.4233 25.8205 40.228 23.9239 38.7782 23.125C38.2034 22.8082 37.3696 22.7525 36.7333 22.9884C36.1897 23.1899 35.6806 23.663 35.4309 24.1987L35.2398 24.6087H32.5473H29.8548L29.8754 22.0942L29.896 19.5798L32.5592 19.5596L35.2225 19.5394L35.4049 19.9357C35.6187 20.4004 36.0477 20.8462 36.5184 21.0927C36.8002 21.2403 36.9728 21.2685 37.5966 21.2686C38.2757 21.2689 38.3756 21.2491 38.7632 21.0385C40.1748 20.2716 40.4276 18.3886 39.2646 17.3038C38.7365 16.8112 38.3529 16.6641 37.5966 16.6643C37.0288 16.6644 36.8745 16.6941 36.5363 16.8685C36.0652 17.1114 35.6038 17.5907 35.3952 18.0541L35.2439 18.3897H32.5504H29.8569V15.8945V13.3993H32.5504H35.2439L35.3952 13.7349C35.6137 14.2202 36.0602 14.6686 36.5673 14.9123C37.1397 15.1874 37.9844 15.2073 38.5443 14.9588C39.0392 14.7393 39.523 14.2916 39.7679 13.8264C40.0435 13.3031 40.0645 12.3899 39.8133 11.8544C39.5745 11.3452 39.1352 10.9025 38.6259 10.6578C38.0284 10.3706 37.2027 10.3624 36.6194 10.6378C36.1 10.883 35.5447 11.4383 35.3702 11.8869L35.2292 12.2496L32.5626 12.2294L29.896 12.2092L29.8569 11.2618C29.8188 10.3398 29.812 10.3094 29.5984 10.1293C29.3865 9.95052 29.3369 9.9443 28.1326 9.9443H26.8861V7.30864V4.67297L27.2847 4.48963C28.8236 3.78174 29.1491 1.73111 27.8985 0.621614C27.1925 -0.00488418 26.1962 -0.172104 25.3405 0.192048C24.8243 0.411783 24.2144 1.04826 24.0409 1.54823C23.6403 2.70272 24.1984 4.00163 25.3063 4.49339L25.7134 4.67412V7.30917V9.9443H23.1726H20.6318V7.30449V4.66475L21.0565 4.46068C21.8597 4.07472 22.2817 3.41045 22.3356 2.44721C22.3661 1.9011 22.346 1.76904 22.1773 1.40719C21.8119 0.623457 21.2656 0.201799 20.4085 0.0421801C19.7092 -0.0880333 18.9295 0.143832 18.3309 0.660079C17.6211 1.27199 17.403 2.47662 17.8423 3.3584C18.0963 3.86827 18.6181 4.35212 19.1148 4.53845L19.4612 4.66836L19.4406 7.28714L19.42 9.90592L16.8597 9.92619L14.2993 9.94638V7.30556V4.66475L14.7224 4.46152C15.5734 4.05253 16.0488 3.29605 16.0534 2.34295C16.0559 1.86448 16.0193 1.69234 15.838 1.32842C15.3663 0.381764 14.2588 -0.16243 13.2223 0.0432549ZM14.3054 1.28957C14.7621 1.59176 14.9432 1.93258 14.9083 2.42364C14.8734 2.9144 14.7076 3.1792 14.2887 3.41306C13.3559 3.93399 12.2552 3.13114 12.4565 2.07692C12.606 1.29479 13.6449 0.852405 14.3054 1.28957ZM20.6326 1.28773C21.0835 1.58908 21.2182 1.83768 21.2182 2.36821C21.2182 2.91386 21.079 3.1574 20.6212 3.41306C19.6944 3.93061 18.5889 3.12438 18.789 2.07692C18.938 1.29717 19.9796 0.851253 20.6326 1.28773ZM26.8617 1.24212C27.1955 1.39767 27.4888 1.81687 27.5517 2.22824C27.6068 2.58894 27.363 3.12807 27.0407 3.35824C26.3656 3.84017 25.3118 3.46665 25.0928 2.66787C24.8105 1.63837 25.8735 0.781617 26.8617 1.24212ZM28.7624 19.0013V26.9834L20.0259 26.9669L11.2894 26.9503L11.2695 18.9848L11.2497 11.0192H20.006H28.7624V19.0013ZM2.93205 11.7029C3.41442 11.918 3.62792 12.2619 3.62792 12.8234C3.62792 13.1828 3.5879 13.3392 3.44585 13.5348C2.95285 14.2136 1.88923 14.2136 1.37395 13.5346C1.2706 13.3984 1.20344 13.169 1.18296 12.882C1.14379 12.3315 1.34846 11.9864 1.86656 11.7294C2.28739 11.5206 2.51083 11.515 2.93205 11.7029ZM38.1423 11.7294C38.6178 11.968 38.7917 12.2299 38.8298 12.7649C38.8561 13.1339 38.831 13.2512 38.6782 13.4719C38.12 14.2785 36.9856 14.2276 36.497 13.374C36.1568 12.7794 36.4317 11.9924 37.0807 11.7029C37.5021 11.515 37.7262 11.5206 38.1423 11.7294ZM18.8082 13.1381C18.6256 13.3175 18.6028 13.4045 18.5825 13.9989L18.5601 14.6601L18.27 14.7683L17.9801 14.8765L17.4945 14.445C17.0769 14.0738 16.9657 14.0135 16.6995 14.0135C16.416 14.0135 16.3317 14.0694 15.6976 14.6789C14.7289 15.6098 14.7035 15.8467 15.4972 16.5519L15.8914 16.9021L15.7689 17.2045L15.6463 17.5068L15.0706 17.5262C14.2764 17.553 14.1605 17.5901 13.9845 17.8736C13.8568 18.0791 13.8308 18.2614 13.8306 18.9502C13.8301 20.21 13.9682 20.3859 14.9571 20.3859H15.547L15.7119 20.7033L15.8767 21.0207L15.4008 21.4924C14.9837 21.9056 14.9248 22.0006 14.9248 22.2598C14.9248 22.5278 14.9882 22.6191 15.6023 23.2355C16.5477 24.1842 16.7517 24.2059 17.552 23.4426L17.9512 23.0618L18.2361 23.1787L18.521 23.2956V23.9125C18.521 24.4855 18.5372 24.5473 18.749 24.7802L18.9768 25.0309L19.863 25.0559C20.3611 25.0699 20.8432 25.0456 20.9641 25.0002C21.3214 24.8662 21.4912 24.4989 21.4915 23.8589L21.4918 23.301L21.7639 23.1735L22.0361 23.046L22.539 23.5203C22.971 23.9277 23.0827 23.9944 23.3323 23.9944C23.5918 23.9944 23.6964 23.9237 24.3152 23.329C25.282 22.3998 25.3037 22.2006 24.523 21.4113C24.1376 21.0216 24.1336 21.0125 24.2253 20.7395L24.3183 20.4627H24.9025C25.5255 20.4627 25.8829 20.3417 26.0238 20.0831C26.0681 20.0018 26.1043 19.487 26.1043 18.9391V17.9427L25.8638 17.744C25.6477 17.5654 25.5579 17.5452 24.9804 17.5452H24.3376L24.2355 17.2677L24.1333 16.9903L24.5626 16.5575C25.3654 15.7485 25.3523 15.6123 24.3817 14.6634C23.7344 14.0307 23.6573 13.9785 23.3689 13.9785C23.0937 13.9785 23.003 14.0307 22.6043 14.4183C22.3553 14.6602 22.107 14.858 22.0524 14.858C21.9978 14.858 21.8493 14.8053 21.7224 14.7409C21.495 14.6254 21.4918 14.6148 21.4918 13.9836C21.4918 13.3943 21.4754 13.3273 21.2857 13.141C21.0838 12.9427 21.0585 12.9386 20.0455 12.9386C19.0362 12.9386 19.0065 12.9434 18.8082 13.1381ZM20.3203 14.6469C20.3218 15.3705 20.4194 15.5492 20.9068 15.7204C21.1211 15.7958 21.4953 15.9482 21.7386 16.0593L22.1808 16.2614L22.4422 16.1019C22.5859 16.0143 22.8423 15.8024 23.012 15.6312L23.3203 15.32L23.5006 15.4863C23.5997 15.5777 23.6808 15.6866 23.6808 15.7282C23.6808 15.7698 23.4873 16.0031 23.2508 16.2465C22.773 16.7385 22.732 16.9021 22.9848 17.3093C23.0746 17.4541 23.224 17.7813 23.3167 18.0365C23.5232 18.6047 23.6761 18.6942 24.443 18.6957L25.0098 18.6968V19.004V19.3111H24.4018C23.6574 19.3111 23.5058 19.4002 23.3246 19.9445C23.2507 20.1662 23.1072 20.4888 23.0056 20.6614C22.9039 20.834 22.8208 21.0299 22.8208 21.0967C22.8208 21.1635 23.0203 21.4476 23.2639 21.7279L23.7071 22.2377L23.5036 22.4374L23.3003 22.6372L22.8702 22.2512C22.6337 22.0389 22.3696 21.8472 22.2834 21.825C22.1972 21.8029 21.9574 21.8617 21.7506 21.9558C21.5438 22.0498 21.1899 22.187 20.9642 22.2607C20.4095 22.4415 20.3191 22.59 20.3191 23.3206V23.9177H20.0064H19.6937V23.3852C19.6937 22.6853 19.6086 22.486 19.2459 22.3365C19.0837 22.2695 18.7385 22.1142 18.4788 21.9913C17.8065 21.6733 17.7046 21.6916 17.1514 22.23L16.6767 22.6921L16.4494 22.4591L16.2221 22.2261L16.6679 21.7837C17.1734 21.282 17.2002 21.1628 16.9272 20.6329C16.8245 20.4338 16.696 20.1245 16.6415 19.9457C16.4877 19.4407 16.3396 19.3537 15.5811 19.3223L14.9248 19.2953V18.996V18.6968H15.5757C16.1499 18.6968 16.2459 18.6765 16.3908 18.5241C16.4811 18.4291 16.5802 18.2477 16.6111 18.121C16.642 17.9943 16.7677 17.693 16.8905 17.4515C17.0133 17.2098 17.1138 16.9344 17.1138 16.8395C17.1138 16.7324 16.9454 16.4996 16.6708 16.2271C16.2859 15.8451 16.2414 15.7713 16.3321 15.664C16.598 15.3494 16.7133 15.3643 17.1501 15.77C17.6966 16.2775 17.8425 16.307 18.4136 16.0251C18.6662 15.9004 18.9867 15.7742 19.1259 15.7446C19.552 15.654 19.6937 15.3918 19.6937 14.6941V14.0902H20.0064H20.3191L20.3203 14.6469ZM19.555 16.3304C18.702 16.4595 17.8907 17.0639 17.512 17.8523C17.3377 18.2152 17.3094 18.3771 17.3105 19.004C17.3114 19.6113 17.3421 19.7939 17.4937 20.0954C17.7838 20.6723 18.2385 21.1209 18.8167 21.4004C19.2849 21.6268 19.407 21.6525 20.0047 21.6504C20.5692 21.6484 20.746 21.6144 21.1627 21.4273C21.7868 21.1473 22.3528 20.5583 22.5877 19.9442C22.7899 19.4159 22.8102 18.5896 22.633 18.101C22.1803 16.8521 20.9154 16.1245 19.555 16.3304ZM20.6765 17.537C21.2959 17.8133 21.7301 18.5896 21.6116 19.2094C21.3776 20.4342 19.942 20.9764 19.0091 20.1922C18.606 19.8533 18.4215 19.4639 18.4262 18.9616C18.4367 17.8046 19.6105 17.0615 20.6765 17.537ZM3.10123 17.9807C3.64755 18.3812 3.82181 19.0606 3.51456 19.5916C3.27479 20.006 3.00382 20.1781 2.53014 20.2166C2.04261 20.2563 1.63053 20.0899 1.38787 19.7552C1.21024 19.5103 1.11565 18.9782 1.19469 18.669C1.26255 18.4036 1.61967 18.006 1.90408 17.8793C2.22055 17.7383 2.84246 17.791 3.10123 17.9807ZM38.2865 17.983C39.0514 18.5394 39.034 19.6186 38.253 20.0584C37.2923 20.5993 36.1741 19.8111 36.3792 18.7375C36.4411 18.4134 36.762 18.023 37.0845 17.8793C37.4027 17.7375 38.0226 17.791 38.2865 17.983ZM3.01289 24.1196C3.1737 24.1945 3.36266 24.3809 3.48384 24.5839C3.65075 24.8636 3.6796 24.9905 3.64841 25.309C3.58055 26.0028 3.12281 26.4129 2.41615 26.4129C1.90142 26.4129 1.645 26.2748 1.33424 25.83C1.09907 25.4934 1.12206 24.8381 1.38177 24.4801C1.71442 24.0212 2.45204 23.8582 3.01289 24.1196ZM38.1923 24.1191C38.5855 24.3023 38.7951 24.6378 38.8309 25.1411C38.856 25.4938 38.8294 25.614 38.6785 25.83C38.3693 26.2726 38.1107 26.4129 37.6044 26.4129C37.229 26.4129 37.1055 26.3762 36.8591 26.1916C36.3264 25.7926 36.1971 25.14 36.5378 24.569C36.6435 24.392 36.8457 24.1911 36.9874 24.1226C37.3188 23.9621 37.8522 23.9606 38.1923 24.1191ZM14.3669 34.6458C15.1037 35.1817 15.114 36.2207 14.3873 36.7057C13.9924 36.9692 13.3536 36.968 12.9566 36.7031C12.4149 36.3415 12.2725 35.5047 12.6615 34.9681C13.0289 34.4613 13.8896 34.2987 14.3669 34.6458ZM20.6994 34.6458C21.4362 35.1817 21.4465 36.2207 20.7198 36.7057C20.3687 36.9399 19.7789 36.9597 19.3817 36.7505C18.7843 36.4359 18.5848 35.5324 18.9894 34.9744C19.3612 34.4616 20.2193 34.2967 20.6994 34.6458ZM26.8585 34.5951C27.4045 34.8547 27.6874 35.479 27.5081 36.029C27.3281 36.5808 26.8917 36.8929 26.2998 36.8929C25.7079 36.8929 25.2714 36.5808 25.0914 36.029C24.9125 35.4801 25.2104 34.8207 25.7451 34.5823C26.1616 34.3965 26.4476 34.3998 26.8585 34.5951Z" fill="#684DF4"/>
</svg>
