<svg width="40" height="36" viewBox="0 0 40 36" fill="none" xmlns="http://www.w3.org/2000/svg">
<path fill-rule="evenodd" clip-rule="evenodd" d="M3.51455 0.118831C1.8235 0.490466 0.383018 1.99031 0.0822174 3.69293C0.0250261 4.01662 -0.000913055 8.53359 2.4506e-05 18.0295C0.00119646 29.6158 0.0194008 31.98 0.110969 32.4203C0.3863 33.7445 1.31839 34.9448 2.51269 35.5131C2.87037 35.6833 3.37157 35.8614 3.62659 35.9089C4.27874 36.0304 35.7213 36.0304 36.3734 35.9089C38.0637 35.5941 39.5321 34.137 39.889 32.4203C39.9806 31.98 39.9988 29.6158 40 18.0295C40.0009 8.53359 39.975 4.01662 39.9178 3.69293C39.6915 2.41212 38.7193 1.09738 37.5735 0.522564C36.4575 -0.0373576 37.6146 -0.00318894 19.9609 0.00230674C6.60069 0.00644841 3.94028 0.0253248 3.51455 0.118831ZM36.0979 1.42887C37.1121 1.62489 37.9376 2.27911 38.3846 3.24093L38.634 3.77784L38.6581 6.62523L38.6821 9.47263H20H1.31792L1.34191 6.62523L1.36597 3.77784L1.61544 3.24093C2.04844 2.30914 2.89201 1.62417 3.84082 1.43381C4.33773 1.33409 35.5831 1.32931 36.0979 1.42887ZM4.4636 3.34702C3.1482 3.60588 2.42112 5.08358 2.99756 6.32656C3.61339 7.65444 5.34272 7.94228 6.35036 6.88465C6.67733 6.54137 6.95227 5.86818 6.95227 5.41061C6.95227 4.8933 6.67507 4.26942 6.28059 3.89866C5.73782 3.38868 5.15341 3.21122 4.4636 3.34702ZM10.4681 3.50536C9.69777 3.86035 9.21883 4.60713 9.22055 5.45043C9.2243 7.32964 11.4344 8.25626 12.7394 6.92582C14.0448 5.59507 13.1329 3.34328 11.2885 3.34328C10.9843 3.34328 10.6963 3.40015 10.4681 3.50536ZM16.9571 3.47741C16.7594 3.54853 16.4536 3.76159 16.2475 3.9717C14.9427 5.30173 15.8521 7.55472 17.6952 7.55854C18.8478 7.56093 19.7622 6.62842 19.7622 5.45043C19.7622 3.98054 18.3395 2.97985 16.9571 3.47741ZM5.40921 4.94165C5.6393 5.19062 5.6779 5.44199 5.53507 5.76146C5.41866 6.0219 4.98051 6.23305 4.69096 6.16822C4.02771 6.01975 3.91637 5.06613 4.52602 4.75591C4.86409 4.58387 5.13036 4.63994 5.40921 4.94165ZM11.8285 4.93886C12.1114 5.28166 12.1017 5.66915 11.8024 5.97428C11.6333 6.14663 11.4998 6.20708 11.2885 6.20708C10.6386 6.20708 10.2944 5.37055 10.7522 4.90373C11.0602 4.58984 11.5537 4.60593 11.8285 4.93886ZM18.209 4.92659C18.518 5.24152 18.5274 5.69535 18.2314 5.99713C17.7735 6.46387 16.9529 6.11294 16.9529 5.45043C16.9529 5.23499 17.0122 5.09895 17.1813 4.92659C17.4965 4.60529 17.8938 4.60529 18.209 4.92659ZM38.6731 21.3234C38.6731 32.9105 38.6975 32.3251 38.1786 33.1517C37.8376 33.6945 37.4297 34.0509 36.8016 34.3543L36.2901 34.6014H20H3.70988L3.19836 34.3543C2.57027 34.0509 2.16235 33.6945 1.82139 33.1517C1.30245 32.3251 1.32691 32.9105 1.32691 21.3234V10.8266H20H38.6731V21.3234ZM20.7429 14.9086C20.5525 15.0763 20.4519 15.5114 19.17 21.7149C17.9276 27.7271 17.8102 28.3627 17.9049 28.5639C18.1235 29.029 18.7 29.0813 18.9938 28.6627C19.0824 28.5366 19.5972 26.2063 20.4635 22.0102C21.197 18.4581 21.797 15.4939 21.797 15.4231C21.797 15.1907 21.627 14.9079 21.4331 14.8178C21.149 14.6858 20.9688 14.7095 20.7429 14.9086ZM15.3882 17.5744C14.957 17.8801 11.0099 21.3604 10.9371 21.4989C10.7917 21.776 10.8507 22.0434 11.1167 22.3132C11.5421 22.7445 15.3134 25.9912 15.5199 26.1038C15.7556 26.2324 16.2091 26.1061 16.3285 25.8789C16.472 25.6055 16.4167 25.2569 16.1912 25.0129C16.073 24.885 15.2204 24.1272 14.2965 23.3289C13.3726 22.5306 12.6067 21.8514 12.5945 21.8196C12.5823 21.7878 13.3661 21.0723 14.3362 20.2297C15.3064 19.3871 16.169 18.6225 16.2531 18.5305C16.4707 18.2923 16.4527 17.876 16.2142 17.6329C15.9879 17.4021 15.6635 17.3791 15.3882 17.5744ZM23.7858 17.6329C23.5473 17.876 23.5293 18.2923 23.7469 18.5305C23.831 18.6225 24.6936 19.3871 25.6638 20.2297C26.6339 21.0723 27.4177 21.7878 27.4055 21.8196C27.3933 21.8514 26.6274 22.5306 25.7035 23.3289C24.7796 24.1272 23.927 24.885 23.8088 25.0129C23.5833 25.2569 23.528 25.6055 23.6715 25.8789C23.7909 26.1061 24.2444 26.2324 24.4801 26.1038C24.6866 25.9912 28.4579 22.7445 28.8833 22.3132C29.1493 22.0434 29.2083 21.776 29.0629 21.4989C28.9901 21.3604 25.043 17.8801 24.6118 17.5744C24.3365 17.3791 24.0121 17.4021 23.7858 17.6329Z" fill="#684DF4"/>
</svg>
