<svg width="60" height="60" viewBox="0 0 60 60" fill="none" xmlns="http://www.w3.org/2000/svg">
<path d="M54.8641 28.8682C54.368 28.8682 53.9658 29.2704 53.9658 29.7664V30.2335C53.9658 30.7296 54.368 31.1318 54.8641 31.1318C55.3601 31.1318 55.7623 30.7296 55.7623 30.2335V29.7664C55.7623 29.2704 55.3601 28.8682 54.8641 28.8682Z" fill="url(#paint0_linear_397_350)"/>
<path d="M7.47158 46.7313L26.7732 57.8775C27.7688 58.456 28.8847 58.745 30.0004 58.745C31.1158 58.745 32.2307 58.456 33.2246 57.8788L52.5257 46.7326C54.5223 45.5887 55.7622 43.4488 55.7622 41.1474V34.3386C55.7622 33.8426 55.36 33.4404 54.864 33.4404C54.3679 33.4404 53.9657 33.8426 53.9657 34.3386V41.1474C53.9657 42.8062 53.0718 44.3492 51.6302 45.1752L32.3242 56.3241C30.8909 57.1574 29.1097 57.1578 27.6738 56.3228L8.36725 45.1738C6.92818 44.3492 6.03428 42.8062 6.03428 41.1474V18.8529C6.03428 17.1941 6.92818 15.6511 8.36982 14.8251L27.6758 3.67639C29.1091 2.84307 30.8902 2.8426 32.3262 3.67768L51.6326 14.8265C53.0717 15.6511 53.9656 17.1941 53.9656 18.8529V25.6617C53.9656 26.1578 54.3678 26.5599 54.8638 26.5599C55.3599 26.5599 55.7621 26.1578 55.7621 25.6617V18.8529C55.7621 16.5515 54.5221 14.4116 52.5283 13.269L33.2267 2.12284C31.2359 0.966196 28.7635 0.966665 26.7753 2.12155L7.47428 13.2677C5.47775 14.4116 4.23779 16.5515 4.23779 18.8529V41.1474C4.23779 43.4488 5.47775 45.5887 7.47158 46.7313Z" fill="url(#paint1_linear_397_350)"/>
<path d="M30.4491 10.1395C30.171 9.97891 29.829 9.97891 29.5509 10.1395L13.0249 19.6807C12.7468 19.8413 12.5757 20.1378 12.5757 20.4589V39.5411C12.5757 39.8622 12.7468 40.1587 13.0249 40.3192L29.5509 49.8605C29.6899 49.9408 29.8448 49.9807 30.0001 49.9807C30.1553 49.9807 30.3101 49.9408 30.4492 49.8605L46.9754 40.3192C47.2535 40.1587 47.4246 39.8622 47.4246 39.5411V20.4589C47.4246 20.1378 47.2535 19.8413 46.9754 19.6807L30.4491 10.1395ZM45.6277 39.0227L29.9999 48.0452L14.3722 39.0227V20.9773L29.9999 11.9548L45.6277 20.9773V39.0227Z" fill="url(#paint2_linear_397_350)"/>
<path d="M24.426 24.6652C23.9299 24.6652 23.5278 25.0674 23.5278 25.5634V31.4245L19.3694 25.0712C19.1514 24.7393 18.7399 24.5893 18.361 24.7023C17.9802 24.8159 17.7192 25.1659 17.7192 25.5633V34.4366C17.7192 34.9327 18.1214 35.3349 18.6175 35.3349C19.1135 35.3349 19.5157 34.9327 19.5157 34.4366V28.5756L23.6741 34.9288C24.161 35.6706 25.3241 35.3315 25.3241 34.4368V25.5634C25.3242 25.0674 24.9221 24.6652 24.426 24.6652Z" fill="url(#paint3_linear_397_350)"/>
<path d="M35.0745 26.4615H37.3298V34.4366C37.3298 34.9327 37.732 35.3348 38.228 35.3348C38.7241 35.3348 39.1263 34.9327 39.1263 34.4366V26.4615H41.382C41.8781 26.4615 42.2803 26.0593 42.2803 25.5633C42.2803 25.0672 41.8781 24.665 41.382 24.665H35.0745C34.5785 24.665 34.1763 25.0672 34.1763 25.5633C34.1763 26.0593 34.5785 26.4615 35.0745 26.4615Z" fill="url(#paint4_linear_397_350)"/>
<path d="M27.0913 25.5633V34.4366C27.0913 34.9327 27.4935 35.3348 27.9896 35.3348C28.4856 35.3348 28.8878 34.9327 28.8878 34.4366V30.8984H32.4317C32.9277 30.8984 33.3299 30.4962 33.3299 30.0001C33.3299 29.5041 32.9277 29.1019 32.4317 29.1019H28.8878V26.4615H32.4317C32.9277 26.4615 33.3299 26.0593 33.3299 25.5633C33.3299 25.0672 32.9277 24.665 32.4317 24.665H27.9896C27.4935 24.665 27.0913 25.0672 27.0913 25.5633Z" fill="url(#paint5_linear_397_350)"/>
<defs>
<linearGradient id="paint0_linear_397_350" x1="54.8641" y1="28.8682" x2="54.8641" y2="31.1318" gradientUnits="userSpaceOnUse">
<stop stop-color="#02CE80"/>
<stop offset="1" stop-color="#7BD706"/>
</linearGradient>
<linearGradient id="paint1_linear_397_350" x1="30" y1="1.25537" x2="30" y2="58.745" gradientUnits="userSpaceOnUse">
<stop stop-color="#02CE80"/>
<stop offset="1" stop-color="#7BD706"/>
</linearGradient>
<linearGradient id="paint2_linear_397_350" x1="30.0001" y1="10.019" x2="30.0001" y2="49.9807" gradientUnits="userSpaceOnUse">
<stop stop-color="#02CE80"/>
<stop offset="1" stop-color="#7BD706"/>
</linearGradient>
<linearGradient id="paint3_linear_397_350" x1="21.5217" y1="24.665" x2="21.5217" y2="35.3351" gradientUnits="userSpaceOnUse">
<stop stop-color="#02CE80"/>
<stop offset="1" stop-color="#7BD706"/>
</linearGradient>
<linearGradient id="paint4_linear_397_350" x1="38.2283" y1="24.665" x2="38.2283" y2="35.3348" gradientUnits="userSpaceOnUse">
<stop stop-color="#02CE80"/>
<stop offset="1" stop-color="#7BD706"/>
</linearGradient>
<linearGradient id="paint5_linear_397_350" x1="30.2106" y1="24.665" x2="30.2106" y2="35.3348" gradientUnits="userSpaceOnUse">
<stop stop-color="#02CE80"/>
<stop offset="1" stop-color="#7BD706"/>
</linearGradient>
</defs>
</svg>
