<svg width="40" height="40" viewBox="0 0 40 40" fill="none" xmlns="http://www.w3.org/2000/svg">
<path fill-rule="evenodd" clip-rule="evenodd" d="M17.6925 0.0860933C14.2902 0.343774 11.9298 1.1208 11.4692 2.13479C11.3373 2.42547 11.3203 2.66227 11.3188 4.23901L11.3171 6.01572L7.97292 6.03769L4.62876 6.05967L4.19851 6.26253C3.65382 6.51943 3.16945 7.00429 2.89065 7.57181L2.6731 8.01476L2.65065 12.6777L2.6282 17.3407L2.22925 17.3936C1.08628 17.5452 0.113073 18.5255 0.000740745 19.6384C-0.0567555 20.2087 3.25119 37.9033 3.53171 38.5257C3.76663 39.0469 4.25796 39.5329 4.81274 39.7929L5.25457 40H20.0002H34.7458L35.1876 39.7929C35.7416 39.5333 36.233 39.0477 36.47 38.5257C36.7504 37.9081 40.0568 20.2137 39.9993 19.6384C39.8882 18.5273 38.9143 17.5452 37.7734 17.3939L37.3767 17.3413L37.352 15.0241L37.3273 12.707L37.1158 12.2557C36.8354 11.6576 36.2392 11.0834 35.6825 10.8751C35.2685 10.7203 35.0971 10.7128 31.9658 10.7128H28.6833L28.6816 6.58754C28.6796 1.90104 28.6971 2.03938 28.044 1.55757C26.4615 0.390461 22.0167 -0.241423 17.6925 0.0860933ZM23.3622 1.52254C25.5218 1.79922 27.4461 2.3963 27.2421 2.7264C27.0699 3.00496 25.7083 3.44188 24.2927 3.6729C21.5294 4.12382 17.5251 4.07322 15.0351 3.55591C13.8479 3.30925 12.7252 2.87772 12.7252 2.66798C12.7252 2.44612 13.8752 2.02163 15.1775 1.76278C16.0045 1.59839 16.8721 1.48695 18.201 1.37426C19.0091 1.30576 22.4391 1.40429 23.3622 1.52254ZM13.4683 4.50663C14.1349 4.73795 15.5922 5.03395 16.7538 5.17394C17.2936 5.239 18.5034 5.27763 20.0002 5.27763C21.497 5.27763 22.7067 5.239 23.2466 5.17394C24.7914 4.98781 26.2599 4.65005 27.2166 4.26083C27.3447 4.20875 27.3535 4.32527 27.3535 6.07828C27.3535 7.76427 27.3398 7.96346 27.2166 8.07177C26.7827 8.45301 25.5745 8.82072 23.896 9.08224C22.4401 9.30903 18.738 9.37268 17.0978 9.19907C15.2288 9.00122 13.5482 8.60559 12.9012 8.21113L12.6469 8.05613V6.13068C12.6469 4.32777 12.6556 4.20867 12.7838 4.26083C12.8592 4.29149 13.1671 4.40207 13.4683 4.50663ZM14.843 6.53945C14.6224 6.81981 14.6325 7.19917 14.8664 7.41892C15.0012 7.54546 15.2426 7.62421 15.7465 7.70601C16.7285 7.86531 16.8471 7.8553 17.1118 7.59066C17.3893 7.31319 17.4045 7.04214 17.1585 6.75615C17.0096 6.58316 16.8632 6.526 16.3567 6.4431C15.3456 6.27762 15.0333 6.29749 14.843 6.53945ZM23.6059 6.44599C23.139 6.5231 22.9908 6.58309 22.8432 6.75474C22.596 7.04206 22.6106 7.3128 22.8885 7.59066C23.1533 7.8553 23.2719 7.86531 24.2539 7.70601C24.7578 7.62421 24.9992 7.54546 25.1339 7.41892C25.3679 7.19917 25.378 6.81981 25.1574 6.53945C25.0175 6.36154 24.9399 6.33455 24.5903 6.34183C24.3676 6.34644 23.9246 6.39329 23.6059 6.44599ZM18.9057 6.86806C18.6071 7.16656 18.5908 7.51214 18.8624 7.78367C19.0451 7.96635 19.1003 7.97566 20.0002 7.97566C20.9001 7.97566 20.9553 7.96635 21.138 7.78367C21.3866 7.53521 21.3879 7.19151 21.1414 6.90474C20.9579 6.69124 20.9282 6.68459 20.047 6.65902L19.1411 6.63274L18.9057 6.86806ZM11.3171 12.3551V17.3601H7.64046H3.96383V12.9606C3.96383 10.3205 3.9945 8.45426 4.0405 8.29387C4.13233 7.97386 4.46206 7.60505 4.78521 7.46084C4.96826 7.3792 5.71219 7.3555 8.16849 7.35308L11.3171 7.35003V12.3551ZM14.2619 10.0778C15.7647 10.4556 17.6847 10.6433 20.0344 10.6417C22.7744 10.64 25.1742 10.3331 26.7174 9.78716L27.3535 9.56217V11.4681V13.374L27.0992 13.5299C26.4538 13.9255 24.9444 14.3004 23.1292 14.5156C20.8615 14.7844 17.1855 14.6682 15.1502 14.2631C14.2653 14.087 13.0895 13.7084 12.8552 13.5241L12.6469 13.3604V11.4535V9.54676L13.1472 9.735C13.4223 9.83854 13.924 9.99276 14.2619 10.0778ZM14.8729 11.8432C14.5197 12.1962 14.6938 12.8341 15.1719 12.9385C16.02 13.1238 16.7382 13.1832 16.985 13.0885C17.1366 13.0303 17.3405 12.6593 17.3405 12.4415C17.3405 12.3558 17.2613 12.1941 17.1645 12.0823C17.0162 11.911 16.8716 11.8614 16.2453 11.7665C15.2267 11.6123 15.0965 11.6195 14.8729 11.8432ZM23.6768 11.7727C23.1285 11.8582 22.9811 11.9123 22.8359 12.0809C22.7391 12.1935 22.6599 12.3558 22.6599 12.4415C22.6599 12.7166 22.8876 13.0542 23.111 13.1102C23.372 13.1757 24.7197 13.014 24.9543 12.8891C25.3664 12.6697 25.4499 12.1654 25.1275 11.8432C24.9061 11.6219 24.7072 11.6122 23.6768 11.7727ZM18.8624 12.2342C18.6137 12.4828 18.6125 12.8265 18.8591 13.1132C19.0468 13.3313 19.0538 13.3326 20.0002 13.3326C20.9466 13.3326 20.9536 13.3313 21.1413 13.1132C21.3879 12.8265 21.3867 12.4828 21.138 12.2342C20.9553 12.0515 20.9001 12.0422 20.0002 12.0422C19.1003 12.0422 19.0451 12.0515 18.8624 12.2342ZM35.3081 12.1717C35.4583 12.243 35.6748 12.4427 35.7893 12.6155L35.9974 12.9298L36.0215 15.1449L36.0455 17.3601H32.3644H28.6833V14.7012V12.0422H31.8592C34.6534 12.0422 35.0679 12.0578 35.3081 12.1717ZM13.1642 15.0878C14.9455 15.7646 18.5547 16.141 21.5534 15.9627C23.8799 15.8243 25.6842 15.5255 26.8362 15.0878C27.0562 15.0042 27.2625 14.9358 27.2948 14.9358C27.3271 14.9358 27.3535 15.4812 27.3535 16.1479V17.3601H20.0002H12.6469V16.1479C12.6469 15.4812 12.6734 14.9358 12.7056 14.9358C12.7378 14.9358 12.9442 15.0042 13.1642 15.0878ZM37.9593 18.8378C38.3367 19.0092 38.5958 19.3128 38.661 19.66C38.6922 19.8261 38.1512 22.8798 37.0591 28.7041C36.1521 33.5405 35.3892 37.5969 35.3638 37.7183C35.3028 38.0096 34.8905 38.4716 34.5736 38.604C34.1972 38.7612 5.80317 38.7612 5.42682 38.604C5.11008 38.4717 4.69775 38.0097 4.63627 37.7183C4.15846 35.4522 1.30344 19.8466 1.33645 19.6816C1.40553 19.3361 1.68706 18.9986 2.03955 18.8385C2.34925 18.698 2.96465 18.693 20.0002 18.693C37.0047 18.693 37.6517 18.6982 37.9593 18.8378ZM18.5139 20.8298C15.6755 21.4894 13.6162 23.4487 12.8671 26.2024C12.7146 26.7633 12.6886 27.0428 12.6932 28.074C12.698 29.1584 12.721 29.3603 12.911 29.9899C13.4906 31.9106 14.749 33.5057 16.421 34.4389C17.0825 34.8081 18.2236 35.1796 19.0256 35.2868L19.6856 35.3751L19.178 35.9008C18.7561 36.3377 18.6707 36.4708 18.6729 36.6883C18.6766 37.0848 18.9797 37.3802 19.3829 37.3802C19.5813 37.3802 21.8419 35.201 21.9626 34.8935C22.0863 34.5779 21.8567 34.2516 20.7265 33.1376C19.7992 32.2236 19.5994 32.0623 19.3941 32.0623C19.0454 32.0623 18.9139 32.131 18.7848 32.3808C18.588 32.7613 18.6434 32.9097 19.1984 33.4878L19.7264 34.0378L19.3353 33.9843C16.8011 33.6372 14.8255 31.9105 14.2056 29.5011C14.0133 28.7537 13.9959 27.4537 14.1683 26.7106C15 23.1256 18.8696 21.1077 22.2666 22.4876C24.844 23.5346 26.3856 26.2886 25.9132 29.0021C25.7658 29.8497 25.4519 30.6523 25.0071 31.3194C24.633 31.8805 24.5991 32.2094 24.8858 32.496C25.3456 32.9557 25.8818 32.6077 26.4678 31.4692C27.5891 29.2907 27.625 26.9811 26.5711 24.8164C25.6583 22.9412 23.9807 21.5367 21.9558 20.9522C21.2248 20.7412 19.2043 20.6694 18.5139 20.8298Z" fill="#684DF4"/>
</svg>
