<svg width="42" height="47" viewBox="0 0 42 47" fill="none" xmlns="http://www.w3.org/2000/svg">
<path d="M28.1633 9.68217C28.0692 9.68214 27.9761 9.70065 27.8892 9.73664C27.8023 9.77262 27.7233 9.82538 27.6568 9.89189C27.5903 9.9584 27.5375 10.0374 27.5015 10.1243C27.4655 10.2112 27.447 10.3043 27.4471 10.3984C27.4765 10.9727 27.7085 11.518 28.1018 11.9374C28.4952 12.3569 29.0245 12.6233 29.5957 12.6895V13.1094C29.5957 13.2994 29.6712 13.4815 29.8055 13.6159C29.9398 13.7502 30.122 13.8256 30.312 13.8256C30.5019 13.8256 30.6841 13.7502 30.8184 13.6159C30.9527 13.4815 31.0282 13.2994 31.0282 13.1094V12.6884C31.459 12.6526 31.8727 12.5039 32.2276 12.2571C32.5825 12.0103 32.8661 11.6742 33.0496 11.2828C33.188 10.9145 33.2101 10.5126 33.1129 10.1313C33.0157 9.75002 32.8039 9.40772 32.5061 9.1506C32.068 8.78175 31.5675 8.49415 31.0282 8.30135V6.40631C31.2194 6.44849 31.3921 6.55081 31.521 6.69827C31.6499 6.84572 31.7282 7.03057 31.7444 7.22575C31.7444 7.4157 31.8199 7.59787 31.9542 7.73219C32.0885 7.86651 32.2707 7.94197 32.4606 7.94197C32.6506 7.94197 32.8328 7.86651 32.9671 7.73219C33.1014 7.59787 33.1768 7.4157 33.1768 7.22575C33.1474 6.65145 32.9154 6.10617 32.5221 5.68672C32.1287 5.26726 31.5994 5.00079 31.0282 4.9346V4.51472C31.0282 4.32477 30.9527 4.14259 30.8184 4.00827C30.6841 3.87396 30.5019 3.7985 30.312 3.7985C30.122 3.7985 29.9398 3.87396 29.8055 4.00827C29.6712 4.14259 29.5957 4.32477 29.5957 4.51472V4.93578C29.1649 4.97151 28.7512 5.12028 28.3963 5.36706C28.0414 5.61384 27.7578 5.9499 27.5743 6.3413C27.4359 6.70962 27.4138 7.11154 27.511 7.49283C27.6082 7.87411 27.82 8.21641 28.1178 8.47354C28.5559 8.84238 29.0564 9.12998 29.5957 9.32279V11.2179C29.403 11.1747 29.2294 11.0706 29.1004 10.9211C28.9714 10.7716 28.894 10.5845 28.8795 10.3876C28.8767 10.1995 28.7999 10.0201 28.6659 9.88813C28.5319 9.75614 28.3514 9.68216 28.1633 9.68217ZM31.5283 10.1984C31.6113 10.2627 31.6735 10.3501 31.7071 10.4497C31.7407 10.5492 31.7442 10.6564 31.7171 10.7579C31.6447 10.8831 31.5453 10.9905 31.4261 11.0723C31.3069 11.1541 31.171 11.2082 31.0282 11.2308V9.87516C31.2079 9.96117 31.376 10.0698 31.5283 10.1984ZM29.0956 7.42578C29.0126 7.36142 28.9504 7.27401 28.9168 7.17448C28.8832 7.07496 28.8797 6.96773 28.9068 6.86623C28.9792 6.74109 29.0786 6.6337 29.1978 6.55189C29.317 6.47009 29.4529 6.41595 29.5957 6.39341V7.74901C29.416 7.66299 29.2479 7.55436 29.0956 7.42578Z" fill="#3E66F3"/>
<path d="M30.312 16.6905C31.8702 16.6905 33.3934 16.2285 34.689 15.3628C35.9846 14.4971 36.9944 13.2666 37.5907 11.827C38.187 10.3874 38.343 8.80333 38.039 7.27505C37.735 5.74678 36.9847 4.34297 35.8829 3.24115C34.781 2.13932 33.3772 1.38897 31.849 1.08498C30.3207 0.780987 28.7366 0.937007 27.297 1.53331C25.8574 2.12961 24.6269 3.13942 23.7612 4.43502C22.8955 5.73063 22.4335 7.25385 22.4335 8.81207C22.4358 10.9008 23.2666 12.9034 24.7436 14.3804C26.2206 15.8574 28.2232 16.6882 30.312 16.6905ZM30.312 2.36605C31.5869 2.36605 32.8331 2.7441 33.8932 3.4524C34.9532 4.1607 35.7794 5.16743 36.2673 6.34528C36.7552 7.52314 36.8828 8.81922 36.6341 10.0696C36.3854 11.32 35.7715 12.4686 34.87 13.3701C33.9685 14.2716 32.8199 14.8855 31.5695 15.1342C30.3191 15.383 29.023 15.2553 27.8452 14.7674C26.6673 14.2795 25.6606 13.4533 24.9523 12.3933C24.244 11.3332 23.8659 10.087 23.8659 8.81207C23.8679 7.10307 24.5476 5.46462 25.7561 4.25617C26.9645 3.04772 28.603 2.36797 30.312 2.36605Z" fill="#3E66F3"/>
<path d="M28.1633 20.3289V17.6645C28.1633 17.4746 28.0878 17.2924 27.9535 17.1581C27.8192 17.0238 27.637 16.9483 27.4471 16.9483C27.2571 16.9483 27.0749 17.0238 26.9406 17.1581C26.8063 17.2924 26.7308 17.4746 26.7308 17.6645V35.3124H22.4335V15.2581H22.9776C23.1676 15.2581 23.3498 15.1826 23.4841 15.0483C23.6184 14.914 23.6939 14.7318 23.6939 14.5419C23.6939 14.3519 23.6184 14.1697 23.4841 14.0354C23.3498 13.9011 23.1676 13.8256 22.9776 13.8256H21.7173C21.6232 13.8256 21.53 13.8441 21.4431 13.8801C21.3562 13.9161 21.2773 13.9689 21.2108 14.0354C21.1442 14.1019 21.0915 14.1808 21.0555 14.2677C21.0195 14.3547 21.001 14.4478 21.001 14.5419C21.0004 15.1115 20.7738 15.6577 20.371 16.0605C19.9682 16.4633 19.422 16.6899 18.8524 16.6905H8.82521C6.67063 16.6893 4.59426 17.4978 3.00785 18.9557C1.42145 20.4136 0.440882 22.4145 0.260606 24.5615C0.0803299 26.7086 0.713512 28.8449 2.03459 30.547C3.35566 32.2491 5.26814 33.3925 7.39276 33.7505V43.549C7.39276 44.4038 7.73233 45.2235 8.33676 45.828C8.94119 46.4324 9.76098 46.772 10.6158 46.772C11.4706 46.772 12.2904 46.4324 12.8948 45.828C13.4992 45.2235 13.8388 44.4038 13.8388 43.549V38.1773H14.555C15.5044 38.1762 16.4147 37.7985 17.086 37.1272C17.7574 36.4558 18.135 35.5456 18.1361 34.5962V33.8799H18.8524C19.422 33.8806 19.9682 34.1071 20.371 34.5099C20.7738 34.9128 21.0004 35.4589 21.001 36.0286C21.001 36.1227 21.0195 36.2158 21.0555 36.3027C21.0915 36.3896 21.1442 36.4686 21.2108 36.5351C21.2773 36.6016 21.3562 36.6544 21.4431 36.6904C21.53 36.7263 21.6232 36.7449 21.7173 36.7448H27.4471C27.5411 36.7449 27.6343 36.7263 27.7212 36.6904C27.8081 36.6544 27.887 36.6016 27.9536 36.5351C28.0201 36.4686 28.0728 36.3896 28.1088 36.3027C28.1448 36.2158 28.1633 36.1227 28.1633 36.0286V30.2416C29.3561 30.0708 30.4473 29.4756 31.2367 28.5652C32.0261 27.6548 32.4606 26.4902 32.4606 25.2852C32.4606 24.0803 32.0261 22.9157 31.2367 22.0053C30.4473 21.0949 29.3561 20.4996 28.1633 20.3289ZM1.66297 25.2852C1.66514 23.3864 2.42043 21.5659 3.76314 20.2232C5.10585 18.8804 6.92633 18.1252 8.82521 18.123H9.54144V32.4475H8.82521C6.92633 32.4453 5.10585 31.69 3.76314 30.3473C2.42043 29.0046 1.66514 27.1841 1.66297 25.2852ZM12.4063 43.549C12.4063 44.0238 12.2177 44.4793 11.8819 44.8151C11.5461 45.1509 11.0907 45.3395 10.6158 45.3395C10.1409 45.3395 9.68545 45.1509 9.34966 44.8151C9.01386 44.4793 8.82521 44.0238 8.82521 43.549V33.8799H12.4063V43.549ZM16.7037 34.5962C16.7031 35.1658 16.4765 35.712 16.0737 36.1148C15.6708 36.5176 15.1247 36.7442 14.555 36.7448H13.8388V33.8799H16.7037V34.5962ZM18.8524 32.4475H10.9739V18.123H18.8524C19.6297 18.1203 20.3847 17.8622 21.001 17.3885V33.182C20.3847 32.7083 19.6297 32.4502 18.8524 32.4475ZM28.1633 28.794V21.7765C28.972 21.9416 29.6989 22.381 30.221 23.0203C30.743 23.6597 31.0282 24.4598 31.0282 25.2852C31.0282 26.1107 30.743 26.9107 30.221 27.5501C29.6989 28.1895 28.972 28.6289 28.1633 28.794Z" fill="#3E66F3"/>
<path d="M41.0553 24.569H34.6093C34.4193 24.569 34.2372 24.6445 34.1029 24.7788C33.9685 24.9131 33.8931 25.0953 33.8931 25.2852C33.8931 25.4752 33.9685 25.6574 34.1029 25.7917C34.2372 25.926 34.4193 26.0015 34.6093 26.0015H41.0553C41.2453 26.0015 41.4275 25.926 41.5618 25.7917C41.6961 25.6574 41.7715 25.4752 41.7715 25.2852C41.7715 25.0953 41.6961 24.9131 41.5618 24.7788C41.4275 24.6445 41.2453 24.569 41.0553 24.569Z" fill="#3E66F3"/>
<path d="M37.1539 20.3472L34.289 21.7797C34.1195 21.8649 33.9908 22.0138 33.931 22.1939C33.8712 22.3739 33.8853 22.5703 33.9701 22.7399C34.055 22.9096 34.2036 23.0387 34.3835 23.0989C34.5634 23.1591 34.7598 23.1454 34.9296 23.061L37.7945 21.6286C37.964 21.5433 38.0927 21.3944 38.1525 21.2144C38.2123 21.0343 38.1982 20.838 38.1134 20.6683C38.0285 20.4986 37.8799 20.3696 37.7 20.3094C37.5201 20.2492 37.3237 20.2628 37.1539 20.3472Z" fill="#3E66F3"/>
<path d="M37.7945 28.9419L34.9296 27.5094C34.8455 27.4671 34.7538 27.4418 34.6598 27.435C34.5659 27.4281 34.4715 27.4399 34.3821 27.4695C34.2927 27.4992 34.21 27.5463 34.1388 27.608C34.0676 27.6696 34.0092 27.7448 33.9671 27.829C33.925 27.9133 33.8999 28.005 33.8932 28.099C33.8866 28.193 33.8986 28.2874 33.9285 28.3767C33.9584 28.466 34.0056 28.5486 34.0675 28.6197C34.1293 28.6907 34.2046 28.7489 34.289 28.7908L37.1539 30.2233C37.3237 30.3077 37.5201 30.3213 37.7 30.2611C37.8799 30.2009 38.0285 30.0718 38.1134 29.9022C38.1982 29.7325 38.2123 29.5361 38.1525 29.3561C38.0927 29.1761 37.964 29.0271 37.7945 28.9419Z" fill="#3E66F3"/>
</svg>
