<svg width="50" height="50" viewBox="0 0 50 50" fill="none" xmlns="http://www.w3.org/2000/svg">
<path d="M49.5604 36.384L44.4369 33.8223L41.1762 25.3405C41.1378 25.2402 41.0792 25.1489 41.0039 25.0723C40.9286 24.9957 40.8384 24.9354 40.7388 24.8953L20.5066 16.8079C20.3652 16.7515 20.2103 16.7378 20.0611 16.7683C19.912 16.7989 19.775 16.8723 19.667 16.9797L16.9686 19.6781C16.8627 19.7861 16.7904 19.9226 16.7606 20.071C16.7308 20.2194 16.7447 20.3732 16.8007 20.5138L24.8881 40.746C24.9283 40.8456 24.9885 40.9358 25.0651 41.0111C25.1417 41.0863 25.233 41.145 25.3333 41.1833L33.8151 44.4441L36.3768 49.5675C36.4308 49.6805 36.5111 49.7789 36.611 49.8543C36.7109 49.9297 36.8275 49.9801 36.9509 50.001C36.9925 50.0049 37.0343 50.0049 37.0759 50.001C37.2827 50.0001 37.4807 49.9173 37.6265 49.7706L49.7635 37.6336C49.8528 37.5474 49.9203 37.4412 49.9603 37.3237C50.0004 37.2062 50.0119 37.0809 49.9939 36.9581C49.9729 36.8346 49.9226 36.7181 49.8471 36.6182C49.7717 36.5183 49.6734 36.4379 49.5604 36.384ZM18.4369 20.4122L18.8704 19.9827L28.9416 30.0539C28.2779 30.9944 27.9912 32.1497 28.1383 33.2914C28.2854 34.4331 28.8555 35.478 29.736 36.2196C30.6164 36.9611 31.7431 37.3453 32.8931 37.2961C34.0432 37.247 35.133 36.7681 35.9469 35.9541C36.7609 35.1401 37.2398 34.0504 37.289 32.9003C37.3381 31.7502 36.9539 30.6236 36.2124 29.7431C35.4708 28.8627 34.4259 28.2926 33.2842 28.1455C32.1425 27.9984 30.9872 28.285 30.0467 28.9487L19.9755 18.8775L20.4051 18.4441L39.8406 26.2191L42.9061 34.1933L34.1861 42.9133L26.2119 39.8478L18.4369 20.4122ZM32.6944 29.6673C33.3963 29.6683 34.0761 29.9127 34.6181 30.3588C35.1601 30.8049 35.5306 31.425 35.6666 32.1137C35.8026 32.8023 35.6956 33.5168 35.3639 34.1354C35.0322 34.754 34.4963 35.2385 33.8474 35.5063C33.1986 35.7741 32.477 35.8086 31.8055 35.604C31.1341 35.3995 30.5543 34.9684 30.165 34.3843C29.7757 33.8002 29.601 33.0992 29.6705 32.4008C29.7401 31.7023 30.0497 31.0495 30.5466 30.5537C31.1168 29.9853 31.8893 29.6665 32.6944 29.6673ZM37.2906 47.9001L35.3381 43.995L43.98 35.3531L47.8851 37.3056L37.2906 47.9001Z" fill="#3E66F3"/>
<path d="M14.9458 41.8004C14.7964 41.6592 14.5987 41.5805 14.3932 41.5805C14.1877 41.5805 13.99 41.6592 13.8407 41.8004L12.8488 42.7922C10.2018 39.1998 8.74159 34.871 8.67159 30.4092C8.60159 25.9475 9.92531 21.575 12.4583 17.9013C13.2171 18.3188 14.0909 18.4793 14.9486 18.3584C15.8063 18.2376 16.6018 17.8421 17.2158 17.2312C17.8298 16.6203 18.2293 15.8268 18.3544 14.9697C18.4795 14.1126 18.3235 13.2381 17.9097 12.4771C21.5835 9.94418 25.9559 8.62047 30.4177 8.69046C34.8794 8.76046 39.2082 10.2207 42.8007 12.8676L41.7932 13.8478C41.6479 13.9942 41.5665 14.1922 41.5667 14.3984C41.5661 14.5012 41.5858 14.6031 41.6247 14.6983C41.6635 14.7934 41.7208 14.88 41.7932 14.9529L45.2375 18.3699C45.3838 18.5154 45.5817 18.597 45.7881 18.597C45.9944 18.597 46.1924 18.5154 46.3387 18.3699L49.7635 14.9451C49.8361 14.8726 49.8937 14.7865 49.933 14.6916C49.9723 14.5968 49.9925 14.4952 49.9925 14.3926C49.9925 14.2899 49.9723 14.1883 49.933 14.0935C49.8937 13.9987 49.8361 13.9125 49.7635 13.84L46.3387 10.4152C46.1924 10.2698 45.9944 10.1881 45.7881 10.1881C45.5817 10.1881 45.3838 10.2698 45.2375 10.4152L43.9136 11.7313C40.651 9.27612 36.7936 7.73361 32.7377 7.26214C28.6818 6.79067 24.5735 7.40721 20.8346 9.04847L25.3372 4.55763C25.8477 4.80157 26.4282 4.85679 26.9755 4.71349C27.5229 4.57019 28.0018 4.23763 28.3273 3.77482C28.6528 3.312 28.8038 2.74885 28.7536 2.18527C28.7034 1.62169 28.4552 1.09412 28.053 0.69614C27.6508 0.298165 27.1206 0.0555182 26.5565 0.011248C25.9925 -0.0330223 25.4309 0.123946 24.9716 0.454305C24.5122 0.784664 24.1847 1.26706 24.0472 1.8159C23.9097 2.36475 23.971 2.94457 24.2203 3.45249L16.6211 11.0635C15.8495 10.5459 14.9221 10.3123 13.9974 10.4025C13.0727 10.4927 12.208 10.9012 11.5511 11.5582C10.8941 12.2152 10.4856 13.0799 10.3954 14.0046C10.3051 14.9293 10.5388 15.8566 11.0563 16.6282L3.44534 24.2275C2.93542 23.979 2.35393 23.9194 1.80419 24.0592C1.25445 24.1989 0.77207 24.5291 0.442762 24.9909C0.113454 25.4528 -0.0414519 26.0164 0.00557111 26.5817C0.0525942 27.147 0.2985 27.6773 0.699593 28.0784C1.10069 28.4795 1.63099 28.7254 2.19627 28.7724C2.76154 28.8194 3.32519 28.6645 3.78704 28.3352C4.24889 28.0059 4.57904 27.5235 4.71881 26.9738C4.85859 26.424 4.79894 25.8426 4.55047 25.3326L9.05303 20.8418C7.41013 24.5796 6.79164 28.6874 7.26105 32.7433C7.73046 36.7992 9.27087 40.657 11.7241 43.9208L10.4042 45.2446C10.2587 45.391 10.1771 45.5889 10.1771 45.7952C10.1771 46.0016 10.2587 46.1995 10.4042 46.3459L13.8289 49.7706C13.9747 49.9173 14.1727 50.0001 14.3796 50.001C14.4826 50.0011 14.5847 49.9808 14.6798 49.9412C14.775 49.9017 14.8614 49.8437 14.9341 49.7706L18.3627 46.3459C18.5082 46.1995 18.5898 46.0016 18.5898 45.7952C18.5898 45.5889 18.5082 45.391 18.3627 45.2446L14.9458 41.8004ZM45.7959 12.0632L48.1155 14.3828L45.7959 16.7024L43.4763 14.3828L45.7959 12.0632ZM25.7824 1.82408C25.8984 1.70707 26.0466 1.62718 26.2082 1.59454C26.3697 1.56189 26.5373 1.57797 26.6897 1.64073C26.842 1.70348 26.9724 1.81009 27.064 1.94702C27.1557 2.08395 27.2047 2.24504 27.2047 2.40984C27.2047 2.57464 27.1557 2.73572 27.064 2.87265C26.9724 3.00959 26.842 3.11619 26.6897 3.17895C26.5373 3.2417 26.3697 3.25778 26.2082 3.22514C26.0466 3.19249 25.8984 3.1126 25.7824 2.9956C25.7054 2.91871 25.6443 2.8274 25.6026 2.72689C25.561 2.62638 25.5395 2.51864 25.5395 2.40984C25.5395 2.30103 25.561 2.19329 25.6026 2.09278C25.6443 1.99227 25.7054 1.90096 25.7824 1.82408ZM12.6613 12.6685C12.8881 12.4406 13.1577 12.2598 13.4546 12.1364C13.7514 12.013 14.0698 11.9495 14.3913 11.9495C14.7128 11.9495 15.0311 12.013 15.328 12.1364C15.6249 12.2598 15.8944 12.4406 16.1212 12.6685C16.464 13.0107 16.6976 13.447 16.7924 13.9221C16.8872 14.3971 16.839 14.8897 16.6537 15.3373C16.4685 15.7849 16.1547 16.1676 15.752 16.4368C15.3492 16.706 14.8757 16.8497 14.3913 16.8497C13.9068 16.8497 13.4333 16.706 13.0306 16.4368C12.6278 16.1676 12.314 15.7849 12.1288 15.3373C11.9436 14.8897 11.8953 14.3971 11.9901 13.9221C12.0849 13.447 12.3185 13.0107 12.6613 12.6685ZM2.99235 26.9611C2.8329 27.094 2.62949 27.1626 2.42208 27.1532C2.21468 27.1438 2.01828 27.0572 1.87147 26.9104C1.72466 26.7636 1.63807 26.5672 1.6287 26.3598C1.61932 26.1524 1.68786 25.949 1.82082 25.7895C1.97711 25.6359 2.18746 25.5499 2.40659 25.5499C2.62571 25.5499 2.83606 25.6359 2.99235 25.7895C3.06933 25.8664 3.13041 25.9577 3.17207 26.0582C3.21374 26.1588 3.23519 26.2665 3.23519 26.3753C3.23519 26.4841 3.21374 26.5918 3.17207 26.6923C3.13041 26.7929 3.06933 26.8842 2.99235 26.9611ZM14.3913 48.0992L12.0717 45.7796L14.3913 43.46L16.7109 45.7796L14.3913 48.0992Z" fill="#3E66F3"/>
</svg>
