<svg width="50" height="50" viewBox="0 0 50 50" fill="none" xmlns="http://www.w3.org/2000/svg">
<path d="M43.5483 35.4926V32.262C43.547 31.1929 43.1217 30.1681 42.3658 29.4121C41.6099 28.6562 40.585 28.231 39.516 28.2297H32.7273C33.4737 26.8527 34.0759 25.4023 34.5241 23.9015L37.5886 21.4491C38.0649 21.0688 38.4132 20.5515 38.5863 19.9671C38.7594 19.3827 38.7491 18.7592 38.5567 18.1808C38.3644 17.6025 37.9992 17.097 37.5106 16.7327C37.0219 16.3684 36.4333 16.1627 35.8241 16.1434L37.6208 11.2031C38.0793 9.94231 38.2271 8.58958 38.0517 7.25953C37.8764 5.92948 37.383 4.6613 36.6134 3.56244C35.8437 2.46357 34.8206 1.56641 33.6306 0.946959C32.4406 0.327507 31.1189 0.00402074 29.7773 0.0039071H22.9305C17.8074 0.00262936 12.7872 1.4424 8.44343 4.15875C8.31291 4.23959 8.20819 4.35601 8.14156 4.49432C8.07493 4.63263 8.04917 4.78708 8.06729 4.93953C8.08541 5.09198 8.14668 5.23609 8.24388 5.35492C8.34108 5.47375 8.47018 5.56237 8.61601 5.61036L10.5604 6.25552C10.828 6.34479 11.0745 6.4878 11.2849 6.67577C11.4953 6.86374 11.665 7.0927 11.7837 7.34862C11.9024 7.60454 11.9676 7.88201 11.9752 8.16402C11.9829 8.44603 11.9328 8.72662 11.8281 8.98858C11.6349 9.47153 11.5461 9.98992 11.5677 10.5096C11.5892 11.0294 11.7206 11.5386 11.9531 12.0039L14.0321 16.1579C13.4374 16.2053 12.8706 16.4304 12.4054 16.804C11.9402 17.1776 11.5981 17.6824 11.4235 18.2529C11.2489 18.8234 11.2498 19.4333 11.4262 20.0032C11.6027 20.5732 11.9464 21.077 12.4128 21.4491L15.4773 23.9015C15.925 25.4022 16.5266 26.8527 17.2725 28.2297H10.4837C9.41472 28.231 8.38984 28.6562 7.63393 29.4121C6.87801 30.1681 6.45277 31.1929 6.45149 32.262V35.4926C4.54282 36.29 2.91222 37.6334 1.76441 39.3542C0.616605 41.0751 0.00273795 43.0967 -0.00012207 45.1652V49.1975C-0.00012207 49.4113 0.0848431 49.6165 0.236082 49.7677C0.387321 49.9189 0.592445 50.0039 0.80633 50.0039H49.1934C49.4073 50.0039 49.6124 49.9189 49.7637 49.7677C49.9149 49.6165 49.9999 49.4113 49.9999 49.1975V45.1652C49.997 43.0967 49.3832 41.0751 48.2353 39.3542C47.0875 37.6334 45.4569 36.29 43.5483 35.4926ZM26.6128 16.1329C26.3989 16.1329 26.1938 16.2179 26.0425 16.3691C25.8913 16.5204 25.8063 16.7255 25.8063 16.9394V17.7458H24.1934V16.9394C24.1934 16.7255 24.1085 16.5204 23.9572 16.3691C23.806 16.2179 23.6009 16.1329 23.387 16.1329H16.1289V14.9515L21.1628 11.5958C22.246 10.8722 23.5197 10.4865 24.8225 10.4878C26.6862 10.4856 28.4941 9.85132 29.9507 8.68858L31.2684 7.63455L32.6515 9.71036C33.4478 10.9019 33.8722 12.3031 33.8708 13.7362V16.1329H26.6128ZM30.645 17.7458V20.1652C30.645 20.3791 30.5601 20.5842 30.4088 20.7354C30.2576 20.8867 30.0525 20.9716 29.8386 20.9716H28.2257C28.0118 20.9716 27.8067 20.8867 27.6554 20.7354C27.5042 20.5842 27.4192 20.3791 27.4192 20.1652V17.7458H30.645ZM22.5805 17.7458V20.1652C22.5805 20.3791 22.4956 20.5842 22.3443 20.7354C22.1931 20.8867 21.988 20.9716 21.7741 20.9716H20.1612C19.9473 20.9716 19.7422 20.8867 19.5909 20.7354C19.4397 20.5842 19.3547 20.3791 19.3547 20.1652V17.7458H22.5805ZM37.0967 19.1168C37.0971 19.3225 37.051 19.5257 36.9619 19.7112C36.8728 19.8966 36.743 20.0595 36.5821 20.1878L35.12 21.3571C35.3332 20.1647 35.4505 18.957 35.4708 17.7458H35.7257C35.9057 17.7458 36.084 17.7813 36.2503 17.8502C36.4167 17.9191 36.5678 18.0201 36.6951 18.1474C36.8224 18.2747 36.9234 18.4258 36.9923 18.5922C37.0612 18.7585 37.0967 18.9368 37.0967 19.1168ZM13.3249 9.58778C13.5112 9.12183 13.6004 8.62273 13.5869 8.12109C13.5734 7.61945 13.4576 7.12585 13.2465 6.67057C13.0355 6.2153 12.7336 5.80794 12.3595 5.4735C11.9854 5.13906 11.5468 4.88458 11.0708 4.72568L10.8241 4.64504C14.5494 2.65614 18.7075 1.61606 22.9305 1.61681H29.7773C30.8593 1.61701 31.9253 1.87795 32.8851 2.37752C33.8449 2.87709 34.6702 3.60059 35.291 4.48675C35.9119 5.3729 36.3101 6.39562 36.4518 7.4683C36.5936 8.54098 36.4748 9.63204 36.1055 10.6491L35.4047 12.5765C35.2295 11.2299 34.7466 9.94182 33.9934 8.81197L32.1225 6.00471C32.0604 5.91173 31.9796 5.83267 31.8854 5.77256C31.7911 5.71245 31.6854 5.67259 31.5749 5.65552C31.4644 5.63884 31.3518 5.64505 31.2438 5.67377C31.1359 5.70249 31.035 5.7531 30.9475 5.82246L28.9434 7.42971C27.7726 8.36334 26.32 8.87275 24.8225 8.87488C23.2011 8.8734 21.6159 9.35336 20.2676 10.2539L14.8749 13.8491C14.8249 13.883 14.7789 13.9225 14.7378 13.9668L13.3958 11.2821C13.2651 11.0207 13.1911 10.7346 13.1789 10.4426C13.1667 10.1505 13.2164 9.8592 13.3249 9.58778ZM13.4184 20.1894C13.1958 20.0122 13.0339 19.7701 12.955 19.4967C12.8762 19.2234 12.8844 18.9322 12.9784 18.6637C13.0724 18.3952 13.2477 18.1626 13.4798 17.9981C13.712 17.8336 13.9896 17.7455 14.2741 17.7458H14.5273C14.5476 18.9576 14.6649 20.1657 14.8781 21.3587L13.4184 20.1894ZM16.1418 17.7458H17.7418V20.1652C17.7418 20.8069 17.9967 21.4222 18.4504 21.8759C18.9041 22.3297 19.5195 22.5846 20.1612 22.5846H21.7741C22.4157 22.5846 23.0311 22.3297 23.4848 21.8759C23.9385 21.4222 24.1934 20.8069 24.1934 20.1652V19.3587H25.8063V20.1652C25.8063 20.8069 26.0612 21.4222 26.5149 21.8759C26.9687 22.3297 27.584 22.5846 28.2257 22.5846H29.8386C30.4802 22.5846 31.0956 22.3297 31.5493 21.8759C32.003 21.4222 32.2579 20.8069 32.2579 20.1652V17.7458H33.8579C33.7953 21.4422 32.7633 25.0573 30.8652 28.2297H19.1346C17.2364 25.0573 16.2044 21.4422 16.1418 17.7458ZM10.4837 29.8426H39.516C40.1577 29.8426 40.773 30.0975 41.2267 30.5512C41.6805 31.0049 41.9354 31.6203 41.9354 32.262V48.391H8.06439V32.262C8.06439 31.6203 8.31929 31.0049 8.77301 30.5512C9.22672 30.0975 9.8421 29.8426 10.4837 29.8426ZM1.61278 45.1652C1.61497 43.5311 2.06781 41.9293 2.9215 40.5359C3.77519 39.1426 4.99664 38.0117 6.45149 37.2676V48.391H1.61278V45.1652ZM48.387 48.391H43.5483V37.2676C45.0031 38.0117 46.2245 39.1427 47.0781 40.536C47.9318 41.9294 48.3847 43.5311 48.387 45.1652V48.391Z" fill="#3E66F3"/>
<path d="M24.9999 45.9716C25.6379 45.9716 26.2616 45.7825 26.792 45.428C27.3225 45.0735 27.736 44.5697 27.9801 43.9803C28.2243 43.3909 28.2882 42.7423 28.1637 42.1165C28.0392 41.4908 27.732 40.916 27.2809 40.4649C26.8297 40.0137 26.2549 39.7065 25.6292 39.582C25.0035 39.4576 24.3549 39.5214 23.7654 39.7656C23.176 40.0097 22.6722 40.4232 22.3177 40.9537C21.9633 41.4842 21.7741 42.1078 21.7741 42.7458C21.7741 43.6014 22.1139 44.4219 22.7189 45.0268C23.3238 45.6318 24.1443 45.9716 24.9999 45.9716ZM24.9999 41.1329C25.3189 41.1329 25.6307 41.2275 25.896 41.4048C26.1612 41.582 26.3679 41.8339 26.49 42.1286C26.6121 42.4233 26.644 42.7476 26.5818 43.0605C26.5196 43.3734 26.3659 43.6608 26.1404 43.8863C25.9148 44.1119 25.6274 44.2655 25.3145 44.3278C25.0017 44.39 24.6774 44.358 24.3826 44.236C24.0879 44.1139 23.836 43.9072 23.6588 43.6419C23.4816 43.3767 23.387 43.0648 23.387 42.7458C23.387 42.3181 23.5569 41.9078 23.8594 41.6053C24.1619 41.3029 24.5721 41.1329 24.9999 41.1329Z" fill="#3E66F3"/>
<path d="M19.591 38.4773L20.7313 37.337L18.0757 34.6813L20.7313 32.0257L19.591 30.8854L16.3652 34.1112C16.214 34.2624 16.1291 34.4675 16.1291 34.6813C16.1291 34.8952 16.214 35.1003 16.3652 35.2515L19.591 38.4773Z" fill="#3E66F3"/>
<path d="M30.4088 38.4773L33.6346 35.2515C33.7857 35.1003 33.8707 34.8952 33.8707 34.6813C33.8707 34.4675 33.7857 34.2624 33.6346 34.1112L30.4088 30.8854L29.2684 32.0257L31.9241 34.6813L29.2684 37.337L30.4088 38.4773Z" fill="#3E66F3"/>
<path d="M26.7747 30.9716L21.9347 37.4223L23.2248 38.3903L28.0648 31.9396L26.7747 30.9716Z" fill="#3E66F3"/>
</svg>
