<svg width="40" height="40" viewBox="0 0 40 40" fill="none" xmlns="http://www.w3.org/2000/svg">
<path fill-rule="evenodd" clip-rule="evenodd" d="M20.5875 0.0291371C19.9228 0.134581 18.7381 0.436955 18.2485 0.626148C15.882 1.5405 13.8922 3.31287 12.6182 5.64121C12.0071 6.75788 12.0508 6.72971 10.83 6.79714C8.64008 6.91814 7.10974 7.62506 5.65703 9.18645C4.83796 10.0668 4.37045 10.8142 3.93773 11.9345C3.68538 12.588 3.53895 12.7493 2.97849 12.9921C0.807714 13.9322 -0.43782 16.5771 0.141949 19.0154C0.371246 19.9796 0.712963 20.608 1.43095 21.3857C2.49801 22.5415 3.39463 22.9039 5.40139 22.9907L6.63269 23.0438V24.1659V25.2878H5.82347H5.01433L4.77643 24.8762C4.29876 24.0497 3.23968 23.6995 2.45423 24.1085C1.35441 24.6812 1.04905 26.2032 1.84412 27.1498C2.23838 27.6191 2.63693 27.8188 3.18527 27.8216C3.89958 27.8252 4.48545 27.4737 4.79488 26.8556L4.94287 26.5601L6.20983 26.5336C7.92451 26.4978 7.80537 26.642 7.80537 24.6021V23.0175H10.4634H13.1215V27.2218V31.4261H11.3709H9.62043L9.57509 31.2318C9.49628 30.8941 9.07561 30.3524 8.71646 30.126C8.17163 29.7825 7.62243 29.6909 7.09676 29.8558C6.13884 30.1563 5.61747 30.8459 5.55485 31.8953C5.52217 32.4437 5.54211 32.5682 5.72825 32.9774C6.08193 33.755 6.84471 34.2851 7.60992 34.2851C8.33487 34.2851 9.10328 33.7803 9.45071 33.0758L9.63865 32.6947L11.8171 32.67L13.9954 32.6454L14.1448 32.4469C14.2877 32.2568 14.2942 32.0509 14.2942 27.6329V23.0175H16.9522H19.6103V28.8554V34.6931L19.1962 34.897C18.614 35.1838 18.2485 35.559 17.9722 36.1536C17.7732 36.5818 17.734 36.7656 17.734 37.2686C17.734 38.0557 17.9021 38.5598 18.3386 39.0822C19.2812 40.2098 20.7843 40.3107 21.834 39.3168C22.3371 38.8405 22.5963 38.2616 22.6419 37.5122C22.7116 36.3701 22.225 35.446 21.2945 34.9533L20.7829 34.6824V28.86V23.0376L21.5359 23.0021C22.2414 22.969 22.3005 22.9522 22.474 22.7352C22.7018 22.4504 22.7074 22.2652 22.4972 21.9778L22.3352 21.7562L13.7607 21.7556C8.89212 21.7552 4.90894 21.7207 4.54448 21.6756C2.27066 21.3943 0.728364 19.1184 1.27686 16.8534C1.57683 15.6147 2.27958 14.7387 3.44373 14.1525C4.33746 13.7025 4.66776 13.3512 4.99064 12.5068C5.3838 11.4789 5.83356 10.7471 6.51519 10.0262C7.7551 8.71506 8.95881 8.18044 10.9445 8.05911C11.8717 8.00243 12.0682 7.96417 12.4416 7.76767C12.9138 7.51919 13.0707 7.32588 13.6111 6.32643C14.3841 4.89697 15.3648 3.79527 16.6981 2.85889C19.4653 0.915237 23.1611 0.706619 26.0758 2.32956C26.4111 2.51624 26.871 2.7801 27.0978 2.91598C27.4523 3.12838 27.543 3.15067 27.7444 3.07516C28.004 2.97787 28.1329 2.78001 28.1292 2.48504C28.1258 2.21243 28.004 2.06747 27.4708 1.70052C26.5211 1.04717 25.1871 0.478325 23.9101 0.182174C23.3421 0.050411 21.1032 -0.0526787 20.5875 0.0291371ZM29.329 3.93056C29.1364 4.01398 28.9917 4.25934 28.9917 4.5021C28.9917 4.59165 29.1697 4.92522 29.3874 5.2434C29.605 5.56158 29.9211 6.0735 30.0897 6.38092C30.6494 7.40105 31.1187 7.68106 32.3951 7.75631C34.3082 7.86916 35.5975 8.44002 36.838 9.72326C37.7241 10.64 38.3444 11.7776 38.6537 13.0533C38.8707 13.9485 38.8542 15.6162 38.6195 16.5008C37.9798 18.9128 36.1529 20.8195 33.8448 21.4845L33.096 21.7001L28.8084 21.736C24.7196 21.7703 24.5139 21.7794 24.3718 21.9323C24.2099 22.1064 24.178 22.434 24.2993 22.6779C24.4134 22.9071 24.7989 23.0175 25.4853 23.0175H26.0991V27.6713C26.0991 32.2943 26.1002 32.3261 26.2635 32.4852C26.4155 32.6333 26.5921 32.6472 28.5985 32.6701L30.7691 32.6948L30.9114 33.0343C31.2323 33.7996 32.1461 34.349 32.9499 34.2598C35.0367 34.0281 35.5783 31.0149 33.7106 30.0285C32.6201 29.4525 31.4323 29.9 30.8626 31.1011L30.7084 31.4261H28.9901H27.2717V27.2218V23.0175L29.6366 23.0166C30.9373 23.0161 32.1335 22.9922 32.2947 22.9635L32.5879 22.9114V24.4711C32.5879 25.329 32.6097 26.0921 32.6364 26.167C32.745 26.4713 33.083 26.5491 34.2964 26.5491H35.4656L35.6706 26.9253C36.0262 27.578 36.8235 27.9485 37.5561 27.8013C38.9722 27.5168 39.4956 25.5483 38.4412 24.4723C37.9213 23.9417 37.0962 23.7866 36.4577 24.0994C36.1225 24.2635 35.6081 24.8196 35.5223 25.1103C35.4732 25.2767 35.4162 25.2878 34.6152 25.2878H33.7605V24.0399V22.792L34.171 22.6923C35.608 22.3431 37.259 21.2167 38.2568 19.905C40.968 16.3407 40.4613 11.1564 37.1222 8.29598C35.8004 7.16359 34.3638 6.60593 32.4872 6.49687C31.5713 6.44356 31.4512 6.37385 31.0618 5.66947C30.6021 4.83777 29.9991 4.00624 29.7952 3.92283C29.5748 3.83277 29.5539 3.83311 29.329 3.93056ZM3.64621 25.3743C4.13373 25.8627 3.75269 26.6554 3.07559 26.5616C2.84144 26.5291 2.56743 26.1551 2.56743 25.868C2.56743 25.3092 3.26345 24.9907 3.64621 25.3743ZM37.6449 25.3866C38.0481 25.794 37.7664 26.5491 37.2113 26.5491C36.8376 26.5491 36.5749 26.2764 36.5749 25.8882C36.5749 25.2769 37.2316 24.969 37.6449 25.3866ZM7.99245 31.1332C8.84686 31.5692 8.55259 33.0238 7.60992 33.0238C6.67499 33.0238 6.37353 31.5829 7.21504 31.1361C7.51845 30.9751 7.68145 30.9744 7.99245 31.1332ZM33.0854 31.1217C33.885 31.481 33.8733 32.6865 33.0677 32.9462C32.6768 33.0721 32.3941 32.9964 32.1088 32.6896C31.9228 32.4896 31.8846 32.3784 31.886 32.0422C31.8879 31.5871 32.0267 31.339 32.3924 31.1365C32.681 30.9769 32.7594 30.9752 33.0854 31.1217ZM20.9156 36.1586C21.6504 36.6988 21.68 37.8775 20.9732 38.4572C20.7205 38.6646 20.6073 38.6996 20.1889 38.6996C19.642 38.6996 19.3905 38.5564 19.0826 38.0698C18.8685 37.7315 18.8462 37.0961 19.0336 36.6715C19.3538 35.9456 20.2818 35.6927 20.9156 36.1586Z" fill="#684DF4"/>
</svg>
