<svg width="40" height="40" viewBox="0 0 40 40" fill="none" xmlns="http://www.w3.org/2000/svg">
<path fill-rule="evenodd" clip-rule="evenodd" d="M15.0477 0.126037C14.416 0.464526 14.2268 0.869201 14.2268 1.88177V2.6459L10.3505 2.66815L6.47414 2.6904L6.32475 2.88005C6.12159 3.13789 6.13707 3.42144 6.36728 3.65791L6.5591 3.85511H19.9722H33.3854L33.5772 4.05231L33.7691 4.24942V7.2914V10.3334L33.95 10.5081C34.1733 10.7236 34.4744 10.7319 34.718 10.5292L34.9026 10.3758L34.9268 7.49695C34.9402 5.91367 34.9292 4.4312 34.9024 4.20267C34.8401 3.67109 34.507 3.14753 34.0657 2.88792L33.73 2.6904L27.2295 2.66855L20.729 2.64671L20.7023 1.81896C20.6784 1.07483 20.654 0.957478 20.4607 0.657626C20.0538 0.0262742 19.931 -0.000554156 17.4544 8.11632e-06C15.6372 0.00040974 15.2438 0.0210532 15.0477 0.126037ZM19.4949 1.33147C19.521 1.40135 19.5423 1.72667 19.5423 2.05439V2.65024H17.4708H15.3993V1.98089C15.3993 1.61269 15.4228 1.28737 15.4515 1.25797C15.4801 1.22849 16.3909 1.2044 17.4755 1.2044C19.2015 1.2044 19.4534 1.22022 19.4949 1.33147ZM1.13799 2.76784C0.664595 2.94463 0.449239 3.14167 0.214965 3.61253L0 4.0446V16.7496C0 26.0339 0.0239198 29.5282 0.0889566 29.7278C0.235055 30.1762 0.543589 30.5285 0.96797 30.7316C1.35897 30.9187 1.41666 30.923 3.53716 30.9237L5.70636 30.9245V31.7318C5.70636 32.5514 5.78257 32.8459 6.08688 33.2019C6.4331 33.607 6.48031 33.6127 9.77366 33.6556L12.8639 33.6957L11.477 36.4669C10.7141 37.9911 10.0886 39.3312 10.0869 39.445C10.0798 39.9246 10.7575 40.1819 11.0754 39.8205C11.1628 39.7211 11.8988 38.2936 12.711 36.6482L14.1877 33.6567L17.4625 33.6762L20.7371 33.6957L22.277 36.7756C23.124 38.4696 23.8664 39.8878 23.927 39.9271C23.9875 39.9665 24.1488 39.9993 24.2854 40C24.6024 40.0015 24.8908 39.661 24.8277 39.3599C24.8044 39.2487 24.1717 37.9288 23.4216 36.4268L22.058 33.6957L25.119 33.6556C28.5751 33.6102 28.5875 33.6081 28.9882 32.9865C29.1754 32.6962 29.1989 32.577 29.2226 31.7942L29.2491 30.9245H31.0687C32.7911 30.9245 32.8992 30.9156 33.0941 30.758C33.379 30.5278 33.379 30.1164 33.0941 29.8862L32.8882 29.7196H17.1867C1.58942 29.7196 1.4842 29.7186 1.32888 29.559C1.17387 29.3997 1.17254 29.2913 1.17254 16.7874C1.17254 4.28348 1.17387 4.17504 1.32888 4.01576C1.47482 3.86579 1.58942 3.85511 3.05212 3.85511C4.6116 3.85511 4.62004 3.85415 4.81093 3.65791C5.04106 3.42152 5.05661 3.13797 4.85353 2.88005C4.70626 2.69289 4.68265 2.69016 3.07518 2.67153C1.81962 2.65707 1.37547 2.67908 1.13799 2.76784ZM24.8251 6.26107C24.0295 6.59049 23.5658 7.34795 23.6217 8.22718C23.6386 8.4953 23.7126 8.83781 23.7862 8.98818C23.8597 9.13854 23.9198 9.291 23.9198 9.32691C23.9198 9.36289 23.2186 10.3998 22.3616 11.6311L20.8035 13.8699L20.23 13.8647C19.7267 13.8602 19.6033 13.8903 19.223 14.1109L18.7896 14.3622L17.7522 13.7474L16.7148 13.1326L16.6958 12.6507C16.6521 11.5398 15.8527 10.7408 14.774 10.7296C14.352 10.7253 14.1951 10.7646 13.8478 10.9616C13.2033 11.3273 12.8198 12.0036 12.8198 12.7744V13.1555L11.784 13.7548L10.7483 14.3541L10.3574 14.1323C9.82064 13.8278 9.40806 13.7723 8.8719 13.9325C7.82216 14.2461 7.22988 15.3338 7.53169 16.3936C7.69061 16.952 8.02572 17.3624 8.53569 17.6236C9.81783 18.2801 11.3275 17.3094 11.3353 15.8235L11.3377 15.3817L12.3697 14.7891L13.4017 14.1964L13.7947 14.4276C14.1318 14.6258 14.2712 14.6588 14.774 14.6588C15.2763 14.6588 15.4164 14.6258 15.752 14.4283L16.1438 14.1979L17.1755 14.7898L18.2072 15.3817L18.212 15.8235C18.2209 16.6287 18.6374 17.2955 19.3469 17.6402C21.0026 18.4445 22.7036 16.6129 21.8746 14.9185L21.7265 14.6159L23.3117 12.3325L24.8969 10.0491L25.3453 10.0961C25.9011 10.1543 26.3889 9.98123 26.8366 9.56692C27.6218 8.84014 27.672 7.53928 26.9449 6.75981C26.3894 6.16436 25.5408 5.96468 24.8251 6.26107ZM25.884 7.43486C26.511 7.76804 26.3711 8.7472 25.6774 8.88094C25.3863 8.93701 24.9856 8.75925 24.8602 8.51836C24.7378 8.28349 24.767 7.8515 24.9182 7.66089C25.203 7.30176 25.5019 7.23188 25.884 7.43486ZM29.2353 11.2048C28.4372 11.3885 27.9986 11.5531 27.2477 11.9506C25.0683 13.1047 23.6074 15.1831 23.2146 17.6892C23.0643 18.6475 23.1509 20.1949 23.4037 21.0677C24.3971 24.4976 27.3184 26.7577 30.7552 26.7552C31.2306 26.7549 31.809 26.7169 32.0405 26.6708C32.2721 26.6247 32.4708 26.587 32.482 26.587C32.4932 26.587 33.2793 27.972 34.2289 29.6648C35.2067 31.4081 36.0781 32.8688 36.2385 33.0336C36.676 33.4831 37.1489 33.6788 37.8019 33.6808C38.2142 33.6819 38.4464 33.6374 38.7086 33.507C39.6957 33.016 40.2129 31.8733 39.9171 30.8375C39.8462 30.5896 39.0549 29.0897 38.0778 27.3514L36.3629 24.3003L36.5942 24.0179C36.9418 23.5932 37.4778 22.7341 37.6746 22.2858C38.1173 21.2779 38.284 20.6192 38.3783 19.5068C38.6898 15.8291 36.4045 12.449 32.8702 11.3601C32.2658 11.1738 31.9959 11.1394 30.955 11.1156C30.092 11.0958 29.5972 11.1214 29.2353 11.2048ZM15.2912 12.1374C15.778 12.6073 15.4448 13.4941 14.7816 13.4941C14.1527 13.4941 13.7794 12.7496 14.1594 12.2532C14.4662 11.8526 14.9454 11.8035 15.2912 12.1374ZM32.7558 12.6033C34.4608 13.1662 35.7846 14.3502 36.5857 16.0286C37.0471 16.9953 37.2194 17.7706 37.2196 18.8809C37.2202 21.8649 35.4682 24.338 32.6909 25.2734C32.061 25.4855 31.92 25.5026 30.7987 25.5026C29.3791 25.5026 28.9401 25.4061 27.8673 24.858C26.2992 24.0568 25.159 22.6919 24.5802 20.9229C24.2781 19.9997 24.2223 18.4196 24.4563 17.4132C25.346 13.5856 29.115 11.4014 32.7558 12.6033ZM29.8216 13.2879C27.3406 13.791 25.577 15.7043 25.2472 18.2504C24.9824 20.2956 25.9677 22.4909 27.6737 23.6564C30.602 25.6568 34.585 24.3894 35.9182 21.0329C36.2422 20.2172 36.3876 19.1505 36.2879 18.3213C36.1864 17.4778 35.9192 16.6137 35.6768 16.3449C35.4449 16.0878 35.1046 16.0818 34.8771 16.3307C34.676 16.5507 34.6612 16.8418 34.8303 17.2518C35.0836 17.8658 35.184 18.6867 35.0953 19.4197C34.8396 21.5347 33.3759 23.068 31.3112 23.3836C30.309 23.5367 29.2121 23.266 28.3007 22.6407C26.034 21.0853 25.7239 17.7317 27.6635 15.7491C29.1346 14.2453 31.2901 13.9858 33.0808 15.0971C33.3687 15.2757 33.6941 15.4219 33.8039 15.4219C34.0878 15.4219 34.3163 15.1558 34.3163 14.8253C34.3163 14.4891 34.0133 14.2053 33.2348 13.8122C32.1794 13.2792 30.8621 13.0769 29.8216 13.2879ZM9.94704 15.3505C10.5203 15.9759 9.81103 16.8981 9.03598 16.5352C8.6241 16.3424 8.49528 15.6155 8.8196 15.3139C9.18716 14.9721 9.61287 14.9859 9.94704 15.3505ZM20.6102 15.2236C20.7031 15.2854 20.8197 15.4623 20.8693 15.6168C21.117 16.3881 20.1763 16.9692 19.6145 16.3919C18.9421 15.701 19.8048 14.6887 20.6102 15.2236ZM13.3587 17.9184C13.2466 17.9621 13.1148 18.0887 13.0655 18.1996C12.9414 18.4797 12.9389 26.8168 13.0629 27.0965C13.2056 27.4183 13.4448 27.4706 14.774 27.4706C16.1978 27.4706 16.378 27.4209 16.4986 26.9954C16.5522 26.8065 16.5721 25.2506 16.5566 22.4725L16.5328 18.2376L16.355 18.0547C16.1855 17.8804 16.1152 17.871 14.8698 17.8554C14.1507 17.8464 13.4708 17.8747 13.3587 17.9184ZM15.3806 22.6712L15.401 26.2657H14.7748H14.1486V22.6477V19.0297L14.7544 19.0532L15.3603 19.0766L15.3806 22.6712ZM7.77042 21.1333C7.62979 21.2929 7.6215 21.4632 7.6215 24.1926V27.0828L7.84085 27.2767C8.05339 27.4646 8.09959 27.4706 9.34193 27.4706C10.7111 27.4706 10.948 27.4199 11.0914 27.0965C11.1497 26.9652 11.1782 25.9933 11.1782 24.1442C11.1782 21.477 11.173 21.3807 11.0162 21.1759L10.8542 20.9643H9.38672C7.99429 20.9643 7.91175 20.9729 7.77042 21.1333ZM18.5318 21.1759C18.3749 21.3808 18.3698 21.4766 18.3698 24.1815C18.3698 25.7182 18.3917 27.034 18.4183 27.1055C18.5294 27.4028 18.8594 27.4706 20.1985 27.4706C21.4486 27.4706 21.4945 27.4646 21.7071 27.2768L21.9265 27.0831L21.9511 24.5257C21.9779 21.7408 21.9521 21.3521 21.7254 21.1191C21.5875 20.9774 21.4525 20.9643 20.1343 20.9643H18.6938L18.5318 21.1759ZM10.0057 24.2174V26.2657H9.38031H8.75496V24.2174V22.1691H9.38031H10.0057V24.2174ZM20.7149 24.2174V26.2657H20.1286H19.5423V24.2174V22.1691H20.1286H20.7149V24.2174ZM23.9255 24.7102C23.7801 24.9001 23.7635 25.031 23.7635 25.9865C23.7635 27.4988 23.6765 27.4235 25.4595 27.4554C26.7873 27.4791 26.8676 27.4718 27.0691 27.3089C27.3444 27.0864 27.3585 26.6898 27.1002 26.4403C26.934 26.28 26.8382 26.2657 25.9277 26.2657H24.936V25.5793C24.936 24.9576 24.9179 24.8743 24.7441 24.6957C24.483 24.4274 24.1373 24.4335 23.9255 24.7102ZM37.1725 28.1487C38.9539 31.3194 39.0107 31.4632 38.6801 31.9687C38.2805 32.5799 37.587 32.6745 37.0948 32.1848C36.8801 31.9711 33.691 26.401 33.691 26.2397C33.691 26.2109 33.9284 26.0625 34.2186 25.9097C34.5088 25.757 34.9037 25.5225 35.0961 25.3887C35.2886 25.2549 35.4695 25.1715 35.4982 25.2035C35.527 25.2354 36.2804 26.5608 37.1725 28.1487ZM28.0628 31.5912C28.0628 32.0026 28.0269 32.2948 27.969 32.3543C27.897 32.4283 25.4655 32.4507 17.5007 32.4507C11.7947 32.4507 7.07057 32.4288 7.00256 32.4019C6.90258 32.3625 6.8789 32.2161 6.8789 31.6388V30.9245H17.4708H28.0628V31.5912Z" fill="#684DF4"/>
</svg>
