<svg width="42" height="44" viewBox="0 0 42 44" fill="none" xmlns="http://www.w3.org/2000/svg">
<path d="M40.0461 32.4552L32.5946 25.0037C32.3285 24.7376 31.9293 24.7376 31.6632 25.0037L31.3305 25.3364L29.4011 23.407C33.393 17.6853 32.7277 9.83468 27.7379 4.84486C22.0827 -0.810266 12.8349 -0.810266 7.17981 4.84486C2.65571 9.36896 1.72428 16.2216 4.51857 21.6772L3.18796 23.0078C2.92183 23.2739 2.92183 23.6066 3.12143 23.8727L4.85123 26.1348C4.58511 26.6005 4.38551 27.1327 4.25245 27.5984L1.45815 27.9976C1.1255 28.0641 0.859375 28.3303 0.859375 28.6629V32.3887C0.859375 32.7213 1.1255 32.9874 1.45815 33.054L4.25245 33.4531C4.31898 34.0519 4.51857 34.5176 4.7847 34.9834L3.05489 37.2454C2.8553 37.5115 2.8553 37.9107 3.12143 38.1103L5.78266 40.7715C6.04878 41.0377 6.38144 41.0377 6.64756 40.8381L8.90961 39.1083C9.37533 39.3744 9.90758 39.574 10.3733 39.7071L10.7725 42.5013C10.839 42.834 11.1051 43.1001 11.4378 43.1001H15.1635C15.4962 43.1001 15.7623 42.834 15.8288 42.5013L16.228 39.7071C16.7603 39.574 17.226 39.3744 17.6917 39.1083L19.9537 40.8381C20.2199 41.0377 20.6191 41.0377 20.8186 40.7715L23.4799 38.1103C23.746 37.8442 23.746 37.5115 23.5464 37.2454L21.8166 34.9834C22.0827 34.5176 22.2823 33.9854 22.4154 33.5197L25.2097 33.1205C25.5423 33.054 25.8085 32.7878 25.8085 32.4552V28.7295C25.8085 28.3968 25.5423 28.1307 25.2097 28.0641L24.2783 27.9311C24.744 27.665 25.2762 27.3988 25.7419 27.0662L27.6713 28.9956L27.3387 29.3282C27.0725 29.5944 27.0725 29.9935 27.3387 30.2597L34.7901 37.7111C36.2538 39.1748 38.5824 39.1748 40.0461 37.7111C41.5098 36.2474 41.5098 33.9189 40.0461 32.4552ZM21.8831 28.929L24.5444 29.3282V31.9229L21.8831 32.3221C21.617 32.3887 21.4174 32.5217 21.3509 32.7878C21.1513 33.4531 20.8852 34.1185 20.5525 34.7838C20.4195 34.9834 20.4195 35.316 20.6191 35.5156L22.2158 37.6446L20.3529 39.5075L18.2239 37.8442C18.0243 37.7111 17.6917 37.6446 17.4921 37.7777C16.8933 38.1103 16.228 38.443 15.4962 38.576C15.23 38.6426 15.0305 38.8421 15.0305 39.1083L14.6313 41.7695H12.0366L11.6374 39.1748C11.5709 38.9087 11.4378 38.7091 11.1717 38.6426C10.5064 38.443 9.84105 38.1768 9.17574 37.8442C8.97614 37.7111 8.64349 37.7111 8.4439 37.9107L6.31491 39.4409L4.45204 37.5781L6.04879 35.4491C6.18185 35.2495 6.24838 34.9168 6.11532 34.7172C5.78266 34.1185 5.45001 33.4531 5.31695 32.7213C5.25041 32.4552 5.05082 32.2556 4.7847 32.2556L2.12346 31.8564V29.2617L4.7847 28.8625C5.05082 28.796 5.25041 28.6629 5.31695 28.3968C5.51654 27.7315 5.78266 27.0662 6.11532 26.4009C6.24838 26.2013 6.24838 25.8686 6.04879 25.669L4.45204 23.54L5.11735 22.8747C6.24838 24.7376 7.64553 26.0682 9.44186 27.2658C8.64349 28.1972 8.17777 29.3948 8.17777 30.5923C8.17777 33.4531 10.5064 35.7152 13.3007 35.7152C16.095 35.7152 18.4235 33.3866 18.4235 30.5923C18.4235 30.2597 18.357 29.927 18.2905 29.5944C19.5546 29.5278 20.7521 29.2617 21.8831 28.929ZM17.0264 29.5944C17.0929 29.927 17.1594 30.2597 17.1594 30.5923C17.1594 32.6548 15.4296 34.3846 13.3672 34.3846C11.3047 34.3846 9.57492 32.6548 9.57492 30.5923C9.57492 29.5944 9.97411 28.6629 10.6394 27.9311C12.6353 28.9956 14.7643 29.5278 17.0264 29.5944ZM25.3427 25.669C20.1533 29.5944 12.7019 29.1286 8.04471 24.4715C2.92183 19.3486 2.92183 10.9657 8.04471 5.77629C10.6394 3.18159 14.0325 1.9175 17.359 1.9175C20.6856 1.9175 24.1452 3.18159 26.6734 5.77629C31.3305 10.4335 31.7962 17.8184 27.8709 23.0743C27.6713 23.3405 27.6713 23.7396 27.9375 23.9392L30.266 26.2678L28.4697 28.0641L26.1411 25.7356C26.0081 25.4694 25.6089 25.4694 25.3427 25.669ZM39.1146 36.7797C38.1832 37.7111 36.653 37.7111 35.7216 36.7797L28.7358 29.7939L32.1289 26.4009L39.1146 33.3866C40.0461 34.318 40.0461 35.8483 39.1146 36.7797Z" fill="#3E66F3"/>
<path d="M28.5362 20.6127C28.5362 20.2135 28.2701 19.9474 27.8709 19.9474H26.6734V16.7539C26.6734 16.3547 26.4072 16.0886 26.0081 16.0886C25.6089 16.0886 25.3427 16.3547 25.3427 16.7539V19.9474H22.2823V15.2237C22.2823 14.8245 22.0162 14.5584 21.617 14.5584C21.2178 14.5584 20.9517 14.8245 20.9517 15.2237V19.9474H17.8913V12.8951C17.8913 12.4959 17.6252 12.2298 17.226 12.2298C16.8268 12.2298 16.5607 12.4959 16.5607 12.8951V19.9474H13.5002V11.2318C13.5002 10.8326 13.2341 10.5665 12.8349 10.5665C12.4358 10.5665 12.1696 10.8326 12.1696 11.2318V19.9474H9.10921V8.63712C9.10921 8.23794 8.84308 7.97181 8.4439 7.97181C8.04471 7.97181 7.77859 8.23794 7.77859 8.63712V20.6127C7.77859 21.0119 8.04471 21.278 8.4439 21.278H27.8709C28.2036 21.278 28.5362 21.0119 28.5362 20.6127Z" fill="#3E66F3"/>
</svg>
