<svg width="40" height="40" viewBox="0 0 40 40" fill="none" xmlns="http://www.w3.org/2000/svg">
<path fill-rule="evenodd" clip-rule="evenodd" d="M19.4639 0.0413619C19.0101 0.135268 18.5267 0.428853 18.1668 0.829075C17.8668 1.16266 17.5797 1.70166 17.5765 1.93725C17.5752 2.03791 17.4455 2.08876 17.0077 2.16011C16.1247 2.30415 14.7184 2.67066 13.8588 2.98075C12.7537 3.3794 11.033 4.24853 10.0415 4.90894L9.19688 5.47143L8.8554 5.30539C7.56614 4.67845 6.01489 5.24173 5.42393 6.55147C5.17719 7.09809 5.19198 8.03975 5.45546 8.56115L5.65206 8.95029L5.00493 9.9145C4.64897 10.4449 4.33472 10.9712 4.30648 11.0842C4.24319 11.3373 4.48305 11.696 4.74113 11.7344C5.12556 11.7914 5.26379 11.6766 5.78779 10.8653C6.57198 9.65101 6.46199 9.74288 6.94037 9.90248C7.51615 10.0946 8.35722 10.0337 8.83529 9.76527L9.19116 9.56551L9.56918 9.8371C9.77712 9.98648 9.99397 10.1356 10.0511 10.1684C10.136 10.2174 10.1308 10.3113 10.0219 10.6875C9.84925 11.284 9.9051 11.9327 10.1773 12.4915C10.3634 12.8735 10.7891 13.3481 11.1051 13.5257C11.2165 13.5883 11.2139 13.679 11.0785 14.4766C10.9961 14.9616 10.8763 15.859 10.8124 16.4708C10.7484 17.0827 10.6859 17.5911 10.6736 17.6006C10.6614 17.6101 10.45 17.7091 10.2039 17.8206C9.63607 18.0778 9.09197 18.634 8.91297 19.1404L8.77623 19.5272H6.84939H4.92263L4.78901 19.1758C4.61291 18.7127 4.07053 18.1162 3.62 17.8902C3.37193 17.7657 3.25849 17.6598 3.25849 17.5526C3.25849 17.1938 3.61037 15.7224 3.9312 14.74C4.12052 14.16 4.2755 13.6432 4.2755 13.5915C4.2755 13.5398 4.20251 13.4044 4.11332 13.2905C3.90319 13.0221 3.51141 13.0079 3.28032 13.2602C2.99235 13.5746 2.35562 15.6877 2.15793 16.9849L2.06116 17.6201L1.64575 17.7516C1.09532 17.9259 0.447403 18.5185 0.200192 19.0738C-0.0780766 19.6988 -0.0649338 20.5881 0.231407 21.1943C0.50592 21.7558 1.02858 22.2261 1.61821 22.442L2.0689 22.6071L2.12312 23.0429C2.20464 23.6985 2.58648 25.1992 2.90817 26.1282C3.4277 27.6285 4.39034 29.4821 5.30753 30.7483L5.66019 31.2351L5.45875 31.6439C5.29681 31.9726 5.25699 32.1694 5.25535 32.6478C5.25362 33.1656 5.28726 33.3119 5.51421 33.7751C5.81845 34.3962 6.31608 34.8407 6.94029 35.049C7.50254 35.2365 8.26733 35.1834 8.7975 34.9198L9.20532 34.7171L9.45895 34.9073C10.4089 35.6195 12.3936 36.6803 13.6633 37.1543C14.4839 37.4607 15.9271 37.8584 16.7143 37.9951C16.994 38.0437 17.2944 38.0975 17.3818 38.1146C17.4929 38.1364 17.5681 38.2474 17.6309 38.4826C17.7534 38.9402 17.9841 39.1729 18.3154 39.1729C18.5086 39.1729 18.6245 39.1167 18.7426 38.9658C18.9385 38.7158 18.9419 38.6311 18.7754 38.1601C18.5633 37.5603 18.788 36.9019 19.3148 36.5793C19.6811 36.3549 20.36 36.3649 20.7121 36.5999C21.0162 36.803 21.3299 37.3671 21.3299 37.711C21.3299 38.0519 21.0409 38.5961 20.756 38.7916C20.404 39.0333 20.3129 39.1687 20.3129 39.4508C20.3129 39.6993 20.4609 39.8899 20.728 39.9853C20.9256 40.0559 21.3357 39.8669 21.6977 39.5384C21.9951 39.2685 22.4252 38.5221 22.4252 38.2756C22.4252 38.1492 22.4553 38.1394 23.2857 37.9951C24.1027 37.8532 25.5025 37.4629 26.3747 37.1338C27.6759 36.6429 29.5919 35.619 30.541 34.9073L30.7947 34.7171L31.2025 34.9198C31.7327 35.1834 32.4975 35.2365 33.0597 35.049C33.6839 34.8407 34.1815 34.3962 34.4858 33.7751C34.7127 33.3119 34.7464 33.1656 34.7447 32.6478C34.743 32.1694 34.7032 31.9726 34.5413 31.6439L34.3398 31.2351L34.6925 30.7483C35.6097 29.4821 36.5723 27.6285 37.0918 26.1282C37.4135 25.1992 37.7954 23.6985 37.8769 23.0429L37.9311 22.6071L38.3818 22.442C38.9714 22.2261 39.4941 21.7558 39.7686 21.1943C40.0649 20.5881 40.0781 19.6988 39.7998 19.0738C39.5517 18.5164 38.9049 17.9259 38.3499 17.7502L37.93 17.6173L37.8763 17.1858C37.8468 16.9485 37.7226 16.3439 37.6003 15.8422C37.0511 13.5897 36.2029 11.6802 34.9082 9.78225L34.3449 8.95634L34.5431 8.56421C34.809 8.03771 34.8235 7.09982 34.5743 6.54723C33.983 5.23655 32.4372 4.6768 31.1446 5.30539L30.8031 5.47143L29.9585 4.90894C28.9688 4.2497 27.2458 3.37909 26.1489 2.98381C25.2851 2.67255 23.8548 2.29904 22.9923 2.15948C22.5446 2.08695 22.4252 2.03933 22.4252 1.93301C22.4252 1.44304 21.6256 0.474039 20.9917 0.195541C20.5843 0.0166869 19.9112 -0.0512872 19.4639 0.0413619ZM20.4159 1.25272C20.8057 1.39236 21.0067 1.57876 21.1828 1.96397C21.3708 2.37527 21.3665 2.66367 21.166 3.07969C20.6396 4.17191 19.0708 3.99384 18.7104 2.80095C18.5397 2.23618 18.9666 1.46882 19.5697 1.25609C19.9576 1.11928 20.0426 1.11897 20.4159 1.25272ZM15.4123 4.22322C14.4908 5.18767 13.3538 6.9979 12.8013 8.38049L12.6238 8.82464L12.1852 8.87752C11.944 8.90652 11.5566 9.01646 11.3245 9.12176L10.9025 9.31319L10.5099 9.05693C10.294 8.91603 10.085 8.77914 10.0455 8.75281C10.0038 8.72499 10.0255 8.52987 10.0974 8.28674C10.1655 8.05665 10.2211 7.72212 10.2211 7.54334C10.2211 7.36457 10.1655 7.03004 10.0974 6.79995C10.0294 6.56994 10.003 6.35997 10.0387 6.33333C10.7957 5.77005 12.1134 5.00638 13.064 4.58022C13.7596 4.26841 15.704 3.58757 15.9232 3.57908C15.9829 3.5768 15.753 3.86661 15.4123 4.22322ZM25.3139 3.96076C26.6313 4.39705 27.9042 4.99577 28.9966 5.69296C30.1218 6.41112 30.0453 6.31722 29.9014 6.80388C29.746 7.32976 29.7463 7.75803 29.9026 8.28674C29.9745 8.52987 29.9962 8.72499 29.9545 8.75281C29.915 8.77914 29.7014 8.91901 29.4798 9.06361L29.0769 9.32647L28.7237 9.15476C28.5295 9.06031 28.1454 8.94424 27.8704 8.89693L27.3703 8.81088L27.116 8.1922C26.8104 7.44865 26.0449 6.08438 25.5136 5.3365C25.3013 5.03758 24.8668 4.51893 24.5483 4.18393C24.2297 3.84893 24.0094 3.57491 24.0588 3.57491C24.1082 3.57491 24.6729 3.74858 25.3139 3.96076ZM17.9723 3.94174C18.1176 4.21615 18.751 4.71641 19.0992 4.83185L19.3741 4.923L19.3738 7.52983L19.3736 10.1366L19.026 10.2801C18.42 10.5305 17.94 11.0467 17.6036 11.8103C17.5881 11.8454 15.7129 11.451 15.3061 11.3273C15.0288 11.2429 14.9391 11.1718 14.8838 10.9927C14.6538 10.2482 14.5335 10.0238 14.1518 9.62752C13.6707 9.12797 13.6563 9.26478 14.3335 7.89697C14.8921 6.7686 15.5766 5.74663 16.2593 5.02162C16.7778 4.47099 17.6635 3.73208 17.8049 3.73208C17.836 3.73208 17.9113 3.82646 17.9723 3.94174ZM22.7099 4.07297C23.7657 4.85801 24.8735 6.29003 25.6659 7.89398C26.3477 9.27413 26.3315 9.16207 25.9069 9.55522C25.4976 9.93415 25.3505 10.1811 25.1675 10.7965C25.0485 11.1967 25.0214 11.2268 24.6916 11.3276C24.2797 11.4533 22.4146 11.8445 22.3895 11.8103C22.38 11.7974 22.2932 11.6193 22.1966 11.4144C21.988 10.9723 21.4571 10.4797 20.974 10.2801L20.6264 10.1366L20.6262 7.52983L20.6259 4.923L20.9008 4.83185C21.249 4.71641 21.8824 4.21615 22.0277 3.94174C22.0887 3.82646 22.164 3.73208 22.1951 3.73208C22.2262 3.73208 22.4578 3.88547 22.7099 4.07297ZM8.35902 6.37576C8.91642 6.65709 9.17255 7.38861 8.93363 8.01681C8.56594 8.984 7.21183 9.1392 6.64513 8.27904C6.36295 7.85076 6.33306 7.39357 6.55868 6.95861C6.92363 6.25514 7.65267 6.01915 8.35902 6.37576ZM32.9208 6.37427C33.3557 6.59375 33.6657 7.22163 33.5851 7.72C33.5605 7.87268 33.454 8.12855 33.3485 8.28862C32.7879 9.1396 31.4318 8.97811 31.0664 8.01681C30.6229 6.85048 31.7995 5.80839 32.9208 6.37427ZM32.0869 10.0016C32.4968 10.028 32.7667 10.0002 33.0637 9.90114C33.2895 9.82586 33.4969 9.79498 33.5246 9.83254C34.5087 11.164 35.5392 13.1351 36.0413 14.6463C36.3425 15.5527 36.7415 17.2115 36.7415 17.5575C36.7415 17.6588 36.6223 17.7686 36.38 17.8902C35.9295 18.1162 35.3871 18.7127 35.211 19.1758L35.0774 19.5272H34.6433C34.1117 19.5272 33.8469 19.7258 33.8469 20.1246C33.8469 20.497 34.1421 20.706 34.6682 20.706H35.0771L35.3292 21.2201C35.5928 21.758 36.1623 22.3058 36.563 22.4068C36.7517 22.4544 36.7583 22.4753 36.7114 22.8766C36.6315 23.559 36.1444 25.3588 35.8005 26.2425C35.2754 27.5915 34.4304 29.137 33.641 30.1922C33.4707 30.4197 33.4307 30.4367 33.2387 30.3633C32.5263 30.0909 31.7032 30.1305 31.1006 30.4663L30.8185 30.6236L30.4221 30.3601L30.0257 30.0966L30.0681 29.7365C30.1575 28.978 29.6904 27.9888 29.0189 27.5147C28.621 27.2337 28.6328 27.4168 28.907 25.7745C29.0493 24.9226 29.125 24.3405 29.2724 22.9652C29.3069 22.6435 29.3537 22.5134 29.4351 22.5134C29.6696 22.5134 30.3041 22.1232 30.6077 21.7924C30.7804 21.6042 30.9902 21.2829 31.074 21.0784C31.2107 20.7444 31.2517 20.7065 31.4768 20.7063C32.0287 20.7056 32.3731 20.3275 32.2114 19.9001C32.1129 19.6398 31.9051 19.5272 31.5235 19.5272C31.2352 19.5272 31.2186 19.5125 31.087 19.1404C30.908 18.634 30.3639 18.0778 29.7961 17.8206C29.55 17.7091 29.3386 17.6101 29.3263 17.6006C29.3141 17.5911 29.2516 17.0827 29.1876 16.4708C29.1237 15.859 29.0028 14.9614 28.9191 14.4762L28.7668 13.5942L28.9371 13.4763C29.3659 13.1796 29.5561 12.9606 29.7778 12.5081C30.0882 11.8748 30.1456 11.3727 29.9811 10.7278C29.8782 10.3242 29.8725 10.2125 29.9527 10.1664C30.0077 10.1346 30.2229 9.98648 30.4308 9.8371L30.8088 9.56551L31.1647 9.76527C31.4237 9.91065 31.6746 9.97501 32.0869 10.0016ZM12.8274 10.1326C13.226 10.2754 13.4207 10.4608 13.604 10.8723C13.9798 11.7163 13.3305 12.6928 12.3959 12.6893C11.278 12.6849 10.6697 11.321 11.4194 10.4995C11.6157 10.2842 12.1426 10.0214 12.3724 10.0239C12.4585 10.0248 12.6632 10.0737 12.8274 10.1326ZM27.9185 10.1007C28.7922 10.3445 29.1669 11.3633 28.6599 12.1166C28.0127 13.0782 26.5047 12.7559 26.2892 11.61C26.1718 10.9864 26.5445 10.3547 27.1582 10.1367C27.5411 10.0007 27.5572 10 27.9185 10.1007ZM20.777 11.508C21.0672 11.7155 21.3256 12.2161 21.3282 12.5756C21.3307 12.9224 21.0191 13.4868 20.7121 13.6918C20.36 13.9269 19.6811 13.9369 19.3148 13.7125C18.4557 13.1864 18.4992 11.8592 19.3905 11.4027C19.7575 11.2147 20.4393 11.2664 20.777 11.508ZM15.3843 12.5647C15.7376 12.6623 17.415 13.0048 17.5397 13.0048C17.559 13.0048 17.5756 13.0667 17.5765 13.1424C17.583 13.66 18.3024 14.5438 18.9443 14.8229L19.3715 15.0087L19.3728 16.3518L19.3741 17.6949L19.0478 17.7931C18.6104 17.9248 17.8846 18.6549 17.6952 19.1539L17.5535 19.5272H15.6141H13.6748L13.4797 19.0993C13.2346 18.5615 12.712 18.0307 12.2329 17.8327L11.8643 17.6805L11.9101 17.1697C11.9353 16.8888 12.0408 16.0517 12.1446 15.3096C12.2484 14.5675 12.3333 13.9397 12.3333 13.9148C12.3333 13.8898 12.4333 13.8693 12.5556 13.8693C13.2217 13.8693 14.0554 13.3857 14.4536 12.7683C14.6228 12.506 14.749 12.3863 14.8309 12.4101C14.8987 12.4298 15.1477 12.4993 15.3843 12.5647ZM25.4359 12.6592C25.7642 13.2716 26.7273 13.8693 27.386 13.8693H27.647L27.7752 14.6956C27.915 15.5974 28.1526 17.6587 28.1183 17.6721C27.3373 17.9781 26.792 18.4768 26.491 19.1602L26.3294 19.5272H24.3879H22.4465L22.3048 19.1539C22.1154 18.6549 21.3896 17.9248 20.9522 17.7931L20.6259 17.6949L20.6262 16.3518L20.6264 15.0087L20.974 14.8651C21.1652 14.7862 21.479 14.5825 21.6713 14.4124C22.0168 14.1068 22.4252 13.4213 22.4252 13.1466C22.4252 13.0687 22.4425 13.0048 22.4637 13.0048C22.6061 13.0048 24.5649 12.5894 24.8503 12.4986C25.044 12.4371 25.2208 12.3844 25.2433 12.3814C25.2658 12.3785 25.3524 12.5036 25.4359 12.6592ZM2.80624 18.8234C3.42262 18.9954 3.87887 19.6749 3.78178 20.2763C3.5747 21.558 1.82169 21.8386 1.29527 20.6744C0.952387 19.916 1.28018 19.1346 2.05803 18.856C2.42744 18.7237 2.4459 18.7229 2.80624 18.8234ZM11.8459 18.9558C12.2406 19.1399 12.4407 19.4832 12.4744 20.0346C12.4989 20.4337 12.474 20.5531 12.3188 20.7827C12.2172 20.9329 12.0116 21.1393 11.8621 21.2415C11.6346 21.3967 11.5163 21.4219 11.1393 21.3954C10.3911 21.3429 9.90792 20.8439 9.90847 20.1246C9.90917 19.0843 10.8737 18.5025 11.8459 18.9558ZM20.3301 18.8234C20.7389 18.9375 21.0615 19.2368 21.2173 19.6466C21.6486 20.7812 20.4608 21.8129 19.368 21.2529C18.3814 20.7473 18.5088 19.2362 19.5697 18.8594C19.9527 18.7234 19.9688 18.7227 20.3301 18.8234ZM29.3486 18.9059C30.0219 19.1894 30.3224 20.1853 29.9158 20.7853C29.6326 21.2033 29.3612 21.3602 28.8607 21.3954C28.4837 21.4219 28.3654 21.3967 28.1379 21.2415C27.542 20.8348 27.3372 20.1136 27.6372 19.4786C27.9188 18.8824 28.6845 18.6262 29.3486 18.9059ZM38.1625 18.9445C38.7248 19.2366 38.979 19.961 38.7398 20.59C38.5561 21.0732 38.1789 21.3521 37.6491 21.3961C36.6612 21.4784 35.9564 20.5676 36.3029 19.6562C36.5999 18.8748 37.4224 18.56 38.1625 18.9445ZM8.87965 21.0128C9.05105 21.5874 10.091 22.5134 10.5649 22.5134C10.6463 22.5134 10.6931 22.6435 10.7276 22.9652C10.875 24.3405 10.9507 24.9226 11.093 25.7745C11.3667 27.4138 11.3658 27.2772 11.1047 27.4128C10.7816 27.5806 10.3116 28.1247 10.1184 28.5546C10.0084 28.7997 9.94954 29.1096 9.93765 29.5072L9.92012 30.0966L9.55658 30.3633L9.19304 30.6301L8.90515 30.4696C8.29659 30.1303 7.47626 30.0898 6.76013 30.3637C6.55837 30.4409 6.52817 30.4217 6.24427 30.0354C4.9759 28.3095 3.98041 26.0574 3.4525 23.7198C3.20498 22.6236 3.20428 22.4655 3.44656 22.4044C3.8385 22.3056 4.40959 21.7532 4.6708 21.2201L4.92286 20.706H6.85549H8.78812L8.87965 21.0128ZM17.7009 21.0718C17.8863 21.5592 18.5287 22.2111 19.0026 22.3925L19.3741 22.5347V23.8578V25.1808L18.9954 25.3445C18.4741 25.5698 17.9241 26.1523 17.6933 26.7235L17.5053 27.189L16.4843 27.3974C15.9227 27.512 15.2144 27.6817 14.9103 27.7744L14.3574 27.9431L14.0864 27.7041C13.7152 27.3767 13.2622 27.1561 12.8421 27.0983C12.6483 27.0716 12.4892 27.0281 12.4886 27.0015C12.4879 26.975 12.4189 26.5749 12.3352 26.1124C12.1945 25.3346 12.0184 24.0355 11.9104 22.9783L11.8657 22.5394L12.2635 22.3522C12.7505 22.1231 13.3906 21.4409 13.5173 21.016L13.6098 20.706H15.5859H17.5619L17.7009 21.0718ZM26.4827 21.016C26.6094 21.4409 27.2495 22.1231 27.7365 22.3522L28.1343 22.5394L28.0897 22.9783C27.9779 24.0755 27.8094 25.299 27.6546 26.1388L27.4861 27.0531L27.1459 27.1C26.7378 27.1561 26.2817 27.3794 25.9159 27.7021L25.6471 27.9391L24.9553 27.7376C24.5749 27.6268 23.8499 27.4595 23.3444 27.3659C22.6424 27.2359 22.425 27.167 22.4244 27.0745C22.4228 26.8203 22.0385 26.154 21.7107 25.8373C21.5228 25.6556 21.2019 25.4329 20.9974 25.3424L20.6259 25.1778V23.8563V22.5347L20.9944 22.3934C21.4641 22.2132 22.03 21.6461 22.2679 21.1174L22.4531 20.706H24.4216H26.3902L26.4827 21.016ZM20.5085 26.4339C21.2721 26.7879 21.5324 27.5262 21.1498 28.253C20.9386 28.6541 20.4439 28.9571 20 28.9571C19.1189 28.9571 18.4448 27.9931 18.7535 27.1745C18.9235 26.7238 19.5358 26.2888 20 26.2888C20.1076 26.2888 20.3364 26.3541 20.5085 26.4339ZM13.013 28.38C13.5781 28.6494 13.86 29.4085 13.6248 30.0272C13.4286 30.5433 12.9914 30.8431 12.435 30.8431C11.9285 30.8431 11.6314 30.7027 11.3477 30.3291C10.853 29.6777 11.1242 28.6347 11.8656 28.3376C12.1674 28.2166 12.7124 28.2368 13.013 28.38ZM28.1899 28.38C28.7628 28.6532 29.0406 29.3987 28.8027 30.0245C28.6054 30.5435 28.1695 30.8431 27.6119 30.8431C27.1054 30.8431 26.8082 30.7027 26.5246 30.3291C26.0131 29.6555 26.321 28.6078 27.1191 28.3066C27.3604 28.2155 27.9261 28.2543 28.1899 28.38ZM17.778 28.741C17.9796 29.1938 18.4758 29.6775 18.9676 29.9008L19.3741 30.0854L19.3728 32.6842L19.3715 35.2831L18.9386 35.4713C18.649 35.5972 18.3833 35.7975 18.1357 36.0766L17.7657 36.4937L17.2439 36.1011C16.2265 35.3358 15.1445 33.934 14.3258 32.3206L13.9391 31.5585L14.1406 31.3384C14.6598 30.7712 14.9494 30.0238 14.9021 29.3732L14.8758 29.0115L15.3843 28.8653C15.9902 28.6911 17.2341 28.4205 17.4651 28.4126C17.5852 28.4086 17.6693 28.4969 17.778 28.741ZM24.1314 28.7495L25.0943 28.9964L25.1133 29.5858C25.1355 30.2803 25.3168 30.744 25.7577 31.2342L26.0567 31.5667L25.6721 32.3247C24.8555 33.9339 23.7726 35.3366 22.7561 36.1011L22.2343 36.4937L21.8643 36.0766C21.6166 35.7975 21.351 35.5972 21.0614 35.4713L20.6285 35.2831L20.6272 32.6842L20.6259 30.0854L21.0324 29.9008C21.5261 29.6766 22.0206 29.1934 22.2244 28.7356L22.3756 28.3963L22.772 28.4494C22.99 28.4787 23.6017 28.6137 24.1314 28.7495ZM11.3163 31.7985C11.5726 31.9318 11.8337 31.9894 12.2759 32.0102L12.8835 32.0386L13.2802 32.8358C13.8271 33.9347 14.7062 35.238 15.4185 36.0058L16.016 36.6498L15.485 36.5019C14.6404 36.2664 13.6054 35.8826 12.8134 35.5111C12.0077 35.1333 10.6409 34.3306 10.2315 33.9949L9.97004 33.7806L10.0956 33.4093C10.2522 32.9457 10.2552 32.4742 10.1046 31.9754C9.954 31.4767 9.94649 31.5127 10.2403 31.3257L10.4943 31.1641L10.7293 31.3897C10.8585 31.5138 11.1227 31.6976 11.3163 31.7985ZM29.8842 31.4116C30.0212 31.5144 30.0222 31.5419 29.9038 31.9423C29.7478 32.47 29.7454 32.9079 29.8958 33.4042L30.0127 33.79L29.7599 33.9996C29.3651 34.3271 27.9938 35.1326 27.1866 35.5111C26.3946 35.8826 25.3596 36.2664 24.515 36.5019L23.984 36.6498L24.5811 36.0058C25.3127 35.2167 26.1296 34.0063 26.6952 32.8734L27.1204 32.0219H27.6549C28.0915 32.0219 28.2748 31.979 28.6563 31.7875C28.9131 31.6585 29.2052 31.4654 29.3055 31.3583C29.4928 31.1579 29.5539 31.1635 29.8842 31.4116ZM8.35104 31.515C9.54892 32.1372 9.06787 33.9864 7.70813 33.9864C7.03746 33.9864 6.38454 33.3419 6.38947 32.6846C6.39166 32.3954 6.62721 31.8713 6.84094 31.6804C7.23476 31.3287 7.86037 31.2601 8.35104 31.515ZM32.6982 31.4285C33.088 31.5681 33.289 31.7545 33.4651 32.1397C33.6532 32.5511 33.6488 32.8395 33.4483 33.2555C32.907 34.3787 31.215 34.1388 30.9831 32.9059C30.8657 32.2824 31.2384 31.6507 31.852 31.4327C32.2395 31.2951 32.3246 31.2946 32.6982 31.4285Z" fill="#684DF4"/>
</svg>
