<svg width="48" height="60" viewBox="0 0 48 60" fill="none" xmlns="http://www.w3.org/2000/svg">
<path fill-rule="evenodd" clip-rule="evenodd" d="M30.6934 0.149938C30.1038 0.337201 29.0983 1.38646 28.9175 2.00308C28.8372 2.27713 28.7715 3.01989 28.7715 3.65371V4.80621L28.206 4.89168C26.9662 5.07906 25.8484 5.91551 25.2912 7.0731C25.0532 7.56747 24.9997 7.86694 24.9986 8.70727C24.9976 9.58621 25.0439 9.82637 25.3162 10.3544C25.4916 10.6945 25.7704 11.1348 25.9358 11.3329C26.3343 11.8101 27.49 12.4175 28.2009 12.5233L28.7715 12.6083V15.0156V17.4228H32.6047H36.4379L36.4786 16.0997C36.5225 14.67 36.6269 14.4006 37.3463 13.8594C37.8114 13.5094 38.9508 13.5094 39.4159 13.8594C40.1353 14.4006 40.2397 14.67 40.2836 16.0997L40.3243 17.4228H42.9123C44.5933 17.4228 45.6737 17.3712 45.9948 17.2756C46.6546 17.0791 47.6497 16.0764 47.8447 15.4115C48.0497 14.712 48.0527 2.70964 47.8479 2.021C47.7694 1.75687 47.4715 1.27884 47.1858 0.958668C46.2939 -0.0409566 46.581 -0.010089 38.3297 0.00407379C33.4362 0.0124262 30.9785 0.0593932 30.6934 0.149938ZM45.7739 2.22569L46.0688 2.52274V8.70727V14.8918L45.7739 15.1888C45.4902 15.4749 45.4186 15.486 43.8657 15.486H42.2522L42.1679 14.911C42.0629 14.1947 41.4601 13.0301 40.9866 12.6284C40.79 12.4617 40.3531 12.1808 40.0156 12.004C39.4916 11.7296 39.2533 11.683 38.3811 11.684C37.5472 11.6851 37.25 11.7391 36.7595 11.9789C35.6108 12.5404 34.7807 13.6668 34.5948 14.9162L34.51 15.486H32.6016H30.6934V13.0757V10.6655L29.3805 10.6244C28.2817 10.5902 28.0134 10.5429 27.7363 10.3339C27.1061 9.85929 26.9096 9.47254 26.9096 8.70727C26.9096 7.94199 27.1061 7.55524 27.7363 7.08061C28.0134 6.87168 28.2817 6.82435 29.3805 6.79009L30.6934 6.74905V4.6359C30.6934 2.55373 30.6977 2.51839 30.9883 2.22569L31.2831 1.92851H38.3811H45.4791L45.7739 2.22569ZM16.2897 5.93754C11.8946 6.45103 7.4151 8.83703 4.55226 12.1894C2.38301 14.7296 0.999819 17.5669 0.289306 20.9332C-0.0658908 22.6164 -0.100486 26.1001 0.221437 27.7725C0.738436 30.4581 1.93231 33.3213 3.38049 35.3481C4.49581 36.9092 5.75119 38.1649 8.21078 40.1801L10.5009 42.0563L10.507 43.4035L10.5131 44.7505L10.1487 44.9027C9.34123 45.2397 8.5912 46.4631 8.5912 47.443C8.5912 48.4726 9.32297 49.6139 10.2547 50.0373C10.692 50.236 10.7261 50.2835 10.6248 50.5521C10.2097 51.6524 10.9142 53.262 12.071 53.8567C12.4453 54.0491 12.5328 54.1668 12.5859 54.5486C12.8053 56.1245 14.0031 57.9268 15.4855 58.9111C18.0447 60.6105 21.601 60.2901 23.7711 58.1647C24.7706 57.1858 25.7684 55.2961 25.7684 54.3823C25.7684 54.1827 25.8987 54.0387 26.2361 53.8653C27.4092 53.2622 28.1167 51.6596 27.6988 50.5521C27.5975 50.2835 27.6316 50.236 28.0689 50.0373C29.0006 49.6139 29.7324 48.4726 29.7324 47.443C29.7324 46.4631 28.9824 45.2397 28.1749 44.9027L27.8105 44.7505L27.8172 43.4035L27.8239 42.0563L29.703 40.5432C31.9608 38.7253 33.9825 36.7266 34.9417 35.3646C37.0284 32.4013 38.2009 28.8405 38.3485 25.0186L38.4176 23.2332H35.53H32.6426L32.5583 22.6582C32.4533 21.9418 31.8505 20.7772 31.377 20.3756C31.1804 20.2089 30.7435 19.9279 30.4059 19.7512C29.882 19.4768 29.6436 19.4302 28.7715 19.4311C27.9376 19.4322 27.6404 19.4862 27.1498 19.726C26.0011 20.2876 25.1711 21.4139 24.9851 22.6634L24.9003 23.2332H22.992H21.0837V20.8228V18.4126L19.7708 18.3716C18.3521 18.3274 18.0847 18.2222 17.5476 17.4973C17.2004 17.0286 17.2004 15.8803 17.5476 15.4116C18.0847 14.6866 18.3521 14.5814 19.7708 14.5372L21.0837 14.4962V10.1492V5.80209L19.1318 5.81782C18.0583 5.82642 16.7793 5.88028 16.2897 5.93754ZM19.1618 10.1461V12.5534L18.5964 12.6388C17.3565 12.8262 16.2388 13.6627 15.6816 14.8203C15.4436 15.3146 15.39 15.6141 15.3889 16.4544C15.388 17.3334 15.4342 17.5735 15.7065 18.1015C15.8819 18.4417 16.1607 18.8819 16.3261 19.0801C16.7247 19.5573 17.8804 20.1647 18.5912 20.2705L19.1618 20.3555V21.7944V23.2332H17.2536H15.3452L15.2609 22.6582C15.1559 21.9418 14.5531 20.7772 14.0796 20.3756C13.883 20.2089 13.4461 19.9279 13.1086 19.7512C12.5846 19.4768 12.3463 19.4302 11.4741 19.4311C10.6402 19.4322 10.343 19.4862 9.85246 19.726C8.70375 20.2876 7.87372 21.4139 7.68777 22.6634L7.60297 23.2332H4.75539H1.90793L2.01159 22.3556C2.20823 20.6926 2.84715 18.5877 3.63755 16.9991C5.15827 13.9424 8.03324 11.0447 11.0537 9.52411C13.2527 8.41711 15.7691 7.79129 18.1708 7.75413L19.1618 7.73887V10.1461ZM12.5267 21.6198C13.2269 22.1466 13.333 22.4246 13.3766 23.8469L13.4173 25.17H16.2895H19.1618V27.0929V29.016L18.5964 29.1015C17.3565 29.2889 16.2388 30.1253 15.6816 31.2829C15.4447 31.7751 15.3895 32.0803 15.3864 32.9171C15.3828 33.8606 15.4164 34.0094 15.7906 34.7087C16.0151 35.1283 16.3598 35.608 16.5563 35.7747C17.0927 36.2295 17.9586 36.6363 18.595 36.7324L19.1618 36.8182V40.678V44.5378H15.7984H12.4351V42.8492V41.1604L9.93607 39.1071C8.56165 37.9778 6.97233 36.5615 6.40428 35.96C3.84992 33.2552 2.30193 29.8077 1.92571 25.987L1.84535 25.17H5.6987H9.55216V24.0279C9.55216 22.4715 9.82051 21.8677 10.6933 21.4605C11.172 21.2372 12.1286 21.3203 12.5267 21.6198ZM29.8241 21.6198C30.5243 22.1466 30.6303 22.4246 30.6739 23.8469L30.7146 25.17H33.5965H36.4783L36.3979 25.987C36.024 29.7851 34.4569 33.2729 31.915 35.9646C31.3444 36.5688 29.7551 37.9885 28.3831 39.1194L25.8886 41.1757V42.8567V44.5378H23.4861H21.0837V39.7065V34.8753L19.7708 34.8343C18.3521 34.7901 18.0847 34.6849 17.5476 33.9599C17.2004 33.4912 17.2004 32.343 17.5476 31.8743C18.0847 31.1493 18.3521 31.0441 19.7708 30.9999L21.0837 30.9589V28.0645V25.17H23.9666H26.8495V24.0279C26.8495 22.4715 27.1179 21.8677 27.9907 21.4605C28.4694 21.2372 29.426 21.3203 29.8241 21.6198ZM27.5156 46.7718C27.9057 47.1648 27.9057 47.7212 27.5156 48.1142L27.2208 48.4114H19.1618H11.1028L10.808 48.1142C10.6221 47.927 10.5131 47.6788 10.5131 47.443C10.5131 47.2072 10.6221 46.959 10.808 46.7718L11.1028 46.4746H19.1618H27.2208L27.5156 46.7718ZM25.5937 50.6454C25.7796 50.8326 25.8886 51.0808 25.8886 51.3166C25.8886 51.5524 25.7796 51.8005 25.5937 51.9878L25.2989 52.285H19.1618H13.0247L12.73 51.9878C12.544 51.8005 12.4351 51.5524 12.4351 51.3166C12.4351 51.0808 12.544 50.8326 12.73 50.6454L13.0247 50.3482H19.1618H25.2989L25.5937 50.6454ZM23.8465 54.3871C23.8465 54.478 23.6567 54.9346 23.4249 55.4017C22.9125 56.4338 22.1916 57.1331 21.1054 57.6517C20.3797 57.9981 20.1938 58.0348 19.1618 58.0348C18.1323 58.0348 17.9443 57.998 17.2399 57.6583C16.1274 57.1219 15.4102 56.432 14.9033 55.4108C14.6688 54.9386 14.4771 54.478 14.4771 54.3871C14.4771 54.2502 15.2825 54.2218 19.1618 54.2218C23.0411 54.2218 23.8465 54.2502 23.8465 54.3871Z" fill="white"/>
</svg>
