<svg width="40" height="40" viewBox="0 0 40 40" fill="none" xmlns="http://www.w3.org/2000/svg">
<path d="M17.3061 2.50408C17.2499 2.43846 17.2071 2.36241 17.1802 2.28027C17.1534 2.19813 17.143 2.1115 17.1496 2.02533C17.1562 1.93916 17.1797 1.85515 17.2188 1.77807C17.2579 1.701 17.3118 1.63238 17.3774 1.57613L18.413 0.688361C18.8602 0.321561 19.4206 0.121094 19.999 0.121094C20.5773 0.121094 21.1378 0.321561 21.585 0.688361L22.6209 1.57613C22.7528 1.6899 22.8342 1.85133 22.8473 2.02503C22.8604 2.19873 22.8041 2.37053 22.6907 2.50278C22.5773 2.63504 22.4161 2.71694 22.2425 2.73056C22.0688 2.74417 21.8969 2.68838 21.7643 2.57541L20.7284 1.68763C20.5228 1.51874 20.265 1.42641 19.999 1.42641C19.733 1.42641 19.4752 1.51874 19.2696 1.68763L18.234 2.57541C18.1014 2.6887 17.9293 2.7448 17.7553 2.73143C17.5814 2.71806 17.4199 2.63631 17.3061 2.50408ZM39.7402 17.7633V36.2938C39.7391 37.1661 39.3922 38.0024 38.7754 38.6192C38.1586 39.236 37.3223 39.583 36.45 39.584H3.54801C2.67571 39.583 1.83943 39.236 1.22262 38.6192C0.605811 38.0024 0.258837 37.1661 0.257813 36.2938V17.7633C0.257545 17.2886 0.360114 16.8195 0.558462 16.3883C0.756811 15.957 1.04623 15.5739 1.40681 15.2652L2.46165 14.361C2.59421 14.2479 2.76625 14.1919 2.94001 14.2055C3.11377 14.219 3.27507 14.3009 3.3885 14.4333C3.50193 14.5656 3.55825 14.7375 3.54508 14.9113C3.53192 15.0851 3.45035 15.2465 3.31827 15.3603L2.26344 16.2644C2.15275 16.3596 2.05297 16.4667 1.96594 16.5839L19.2696 31.4176C19.4752 31.5865 19.733 31.6789 19.999 31.6789C20.265 31.6789 20.5228 31.5865 20.7284 31.4176L38.0321 16.5839C37.945 16.4667 37.8452 16.3596 37.7346 16.2644L36.6797 15.3603C36.5478 15.2465 36.4664 15.0851 36.4533 14.9114C36.4402 14.7377 36.4965 14.5659 36.6099 14.4336C36.7233 14.3014 36.8845 14.2195 37.0581 14.2059C37.2318 14.1922 37.4037 14.248 37.5363 14.361L38.5912 15.2651C38.9518 15.5739 39.2412 15.957 39.4395 16.3883C39.6379 16.8195 39.7404 17.2886 39.7402 17.7633ZM38.4241 36.2938V17.9815L27.0397 27.7409L38.1553 37.2703C38.3293 36.9742 38.422 36.6373 38.4241 36.2938ZM12.9583 27.7409L1.57389 17.9815V36.2938C1.57597 36.6373 1.6687 36.9741 1.84271 37.2703L12.9583 27.7409ZM36.45 38.2679C36.687 38.2663 36.9217 38.2215 37.1427 38.1359L26.0285 28.6076L21.585 32.4169C21.1433 32.7955 20.5807 33.0036 19.999 33.0036C19.4172 33.0036 18.8547 32.7955 18.413 32.4169L13.9695 28.6076L2.85527 38.1359C3.07626 38.2215 3.311 38.2663 3.54801 38.2679H36.45ZM5.52213 17.6904C5.69665 17.6904 5.86403 17.6211 5.98743 17.4977C6.11084 17.3742 6.18017 17.2069 6.18017 17.0323V7.34009C6.18074 6.81669 6.38891 6.3149 6.759 5.9448C7.1291 5.57471 7.63089 5.36654 8.15428 5.36597H31.8437C32.3671 5.36654 32.8689 5.57471 33.239 5.9448C33.6091 6.3149 33.8172 6.81669 33.8178 7.34009V17.0323C33.8178 17.2069 33.8871 17.3742 34.0106 17.4977C34.134 17.6211 34.3013 17.6904 34.4759 17.6904C34.6504 17.6904 34.8178 17.6211 34.9412 17.4977C35.0646 17.3742 35.1339 17.2069 35.1339 17.0323V7.34009C35.1329 6.46779 34.7859 5.63151 34.1691 5.0147C33.5523 4.39789 32.716 4.05091 31.8437 4.04989H8.15428C7.28198 4.05091 6.4457 4.39789 5.8289 5.0147C5.21209 5.63151 4.86511 6.46779 4.86409 7.34009V17.0323C4.86409 17.2069 4.93342 17.3742 5.05682 17.4977C5.18023 17.6211 5.3476 17.6904 5.52213 17.6904ZM12.7606 21.8169V18.2964C11.8825 17.9865 11.1424 17.376 10.6712 16.5729C10.1999 15.7699 10.0278 14.826 10.1853 13.9083C10.3429 12.9906 10.8199 12.1582 11.532 11.5583C12.2442 10.9584 13.1455 10.6297 14.0766 10.6303H16.0508C20.239 10.6303 22.0326 8.35544 22.1068 8.25839C22.1903 8.14908 22.306 8.06867 22.4375 8.02843C22.5691 7.98819 22.71 7.99014 22.8404 8.03401C22.9708 8.07788 23.0842 8.16146 23.1647 8.27304C23.2451 8.38461 23.2887 8.51859 23.2892 8.65616V12.6044H23.9472C24.4708 12.6044 24.9729 12.8124 25.3431 13.1826C25.7134 13.5528 25.9213 14.0549 25.9213 14.5785C25.9213 15.1021 25.7134 15.6042 25.3431 15.9744C24.9729 16.3446 24.4708 16.5526 23.9472 16.5526H23.2892V20.5009C23.2892 20.639 23.2458 20.7736 23.165 20.8856C23.0843 20.9976 22.9703 21.0814 22.8393 21.1251C22.7083 21.1688 22.5669 21.1702 22.4351 21.129C22.3032 21.0878 22.1877 21.0062 22.1048 20.8958C22.0365 20.8067 20.4255 18.7702 16.7088 18.549V21.8169C16.7088 22.3405 16.5008 22.8426 16.1306 23.2129C15.7604 23.5831 15.2582 23.7911 14.7347 23.7911C14.2111 23.7911 13.709 23.5831 13.3388 23.2129C12.9685 22.8426 12.7606 22.3405 12.7606 21.8169ZM23.2892 13.9205V15.2366H23.9472C24.1217 15.2366 24.2891 15.1672 24.4125 15.0438C24.5359 14.9204 24.6053 14.753 24.6053 14.5785C24.6053 14.404 24.5359 14.2366 24.4125 14.1132C24.2891 13.9898 24.1217 13.9205 23.9472 13.9205H23.2892ZM15.3927 21.8169V18.5268H14.0766V21.8169C14.0766 21.9915 14.146 22.1588 14.2694 22.2823C14.3928 22.4057 14.5602 22.475 14.7347 22.475C14.9092 22.475 15.0766 22.4057 15.2 22.2823C15.3234 22.1588 15.3927 21.9915 15.3927 21.8169ZM16.7088 11.9189V17.2381C18.5982 17.2964 20.4288 17.9086 21.9731 18.9988V10.1583C20.4288 11.2484 18.5982 11.8607 16.7088 11.9189ZM14.0766 17.2107H15.3927V11.9464H14.0766C13.3785 11.9464 12.709 12.2237 12.2154 12.7173C11.7218 13.2109 11.4445 13.8804 11.4445 14.5785C11.4445 15.2766 11.7218 15.9461 12.2154 16.4397C12.709 16.9334 13.3785 17.2107 14.0766 17.2107ZM29.2115 13.9205H27.8955C27.7209 13.9205 27.5536 13.9898 27.4302 14.1132C27.3068 14.2366 27.2374 14.404 27.2374 14.5785C27.2374 14.753 27.3068 14.9204 27.4302 15.0438C27.5536 15.1672 27.7209 15.2366 27.8955 15.2366H29.2115C29.3861 15.2366 29.5534 15.1672 29.6768 15.0438C29.8003 14.9204 29.8696 14.753 29.8696 14.5785C29.8696 14.404 29.8003 14.2366 29.6768 14.1132C29.5534 13.9898 29.3861 13.9205 29.2115 13.9205ZM28.1898 16.622C28.1125 16.5831 28.0282 16.5599 27.9419 16.5536C27.8556 16.5473 27.7688 16.5581 27.6867 16.5854C27.6045 16.6127 27.5286 16.6559 27.4632 16.7125C27.3977 16.7692 27.3441 16.8382 27.3054 16.9157C27.2667 16.9931 27.2437 17.0774 27.2376 17.1637C27.2315 17.2501 27.2425 17.3367 27.27 17.4188C27.2974 17.5009 27.3408 17.5768 27.3977 17.6421C27.4545 17.7073 27.5236 17.7608 27.6011 17.7993L28.9172 18.4573C29.0733 18.5349 29.2537 18.5474 29.419 18.4921C29.5843 18.4368 29.7208 18.3182 29.7988 18.1623C29.8767 18.0065 29.8896 17.826 29.8347 17.6606C29.7798 17.4952 29.6616 17.3584 29.5059 17.2801L28.1898 16.622ZM27.8961 12.6044C27.9981 12.6044 28.0986 12.5807 28.1898 12.535L29.5059 11.877C29.6616 11.7986 29.7798 11.6618 29.8347 11.4964C29.8897 11.331 29.8767 11.1506 29.7988 10.9947C29.7209 10.8388 29.5843 10.7202 29.419 10.6649C29.2537 10.6096 29.0733 10.6221 28.9172 10.6997L27.6012 11.3577C27.4685 11.424 27.3621 11.5332 27.2992 11.6676C27.2364 11.8019 27.2208 11.9535 27.2549 12.0979C27.2891 12.2422 27.371 12.3708 27.4874 12.4627C27.6038 12.5547 27.7478 12.6046 27.8961 12.6044Z" fill="#3E66F3"/>
</svg>
