<svg width="60" height="60" viewBox="0 0 60 60" fill="none" xmlns="http://www.w3.org/2000/svg">
<path fill-rule="evenodd" clip-rule="evenodd" d="M42.4818 0.191344C41.8796 0.403368 41.202 1.03768 40.8746 1.6958C40.6562 2.13474 40.6431 2.42287 40.6431 6.79315C40.6431 11.3185 40.649 11.4361 40.8975 11.8944C41.0376 12.1524 41.3288 12.5323 41.5447 12.7386C42.2145 13.3784 42.698 13.5145 44.5032 13.571L46.1275 13.6218L46.0638 13.9308C45.8534 14.9503 45.1664 19.1426 45.1963 19.2244C45.2162 19.2785 47.2974 18.0347 49.8215 16.4603L54.4106 13.5978L55.7875 13.5963C56.5447 13.5955 57.4339 13.5372 57.7635 13.4667C58.5779 13.2927 59.2796 12.7401 59.6764 11.9605L60 11.3246L59.9974 6.74284C59.9951 2.55233 59.9763 2.12055 59.779 1.68735C59.507 1.0908 58.6265 0.309786 58.0223 0.129426C57.6884 0.0297468 55.5437 -0.00590316 50.2785 0.000781206C44.0262 0.00875554 42.9237 0.0356103 42.4818 0.191344ZM57.8284 2.273L58.1173 2.56078V6.67823C58.1173 10.8792 58.0944 11.1161 57.6568 11.4509C57.5297 11.5481 56.9084 11.595 55.7136 11.5974L53.9571 11.6012L50.9144 13.493C49.241 14.5335 47.8528 15.3646 47.8297 15.34C47.8066 15.3154 47.9337 14.464 48.1123 13.4482L48.4368 11.6012H45.7996H43.1624L42.8736 11.3133L42.5847 11.0255V6.77673C42.5847 2.57579 42.5875 2.52489 42.8405 2.25646L43.0965 1.9851H50.318H57.5396L57.8284 2.273ZM27.3463 2.99807C26.1346 3.12648 23.8602 3.55815 22.7333 3.87349C18.1284 5.16205 14.1071 7.49876 10.7493 10.837C7.41219 14.1545 5.10325 18.0318 3.82464 22.4648L3.43092 23.8298L2.57451 22.4025C2.10347 21.6174 1.67232 20.947 1.61655 20.9126C1.54006 20.8655 0.336996 21.4977 0.000339312 21.7619C-0.0344913 21.7892 2.6224 26.2897 3.27018 27.3007C3.3509 27.4265 3.99126 27.0936 6.18159 25.7871C7.72602 24.8659 9.00592 24.0999 9.02581 24.0849C9.05182 24.0651 8.20094 22.6007 8.06326 22.4285C8.05432 22.4174 7.49138 22.7456 6.81219 23.1576C6.13299 23.5698 5.54158 23.9088 5.49804 23.9107C5.37178 23.9167 5.85035 22.3281 6.40022 20.9164C9.36035 13.3165 15.7522 7.66763 23.711 5.61799C27.6377 4.60678 32.175 4.60584 36.1428 5.61565L37.4083 5.93767L37.691 5.04607C37.898 4.39346 37.9367 4.13359 37.8355 4.07613C37.5859 3.93435 35.7978 3.5123 34.3832 3.26123C33.3132 3.07148 32.4004 3.00722 30.4058 2.98154C28.982 2.96313 27.6052 2.97063 27.3463 2.99807ZM44.4922 4.82889L44.5263 5.79636L50.3216 5.82673L56.1169 5.85722V4.85926V3.86141H50.2874H44.4579L44.4922 4.82889ZM44.4922 8.69878L44.5263 9.66625L48.38 9.69721L52.2337 9.72805V8.72974V7.73131H48.3459H44.4579L44.4922 8.69878ZM54.2341 8.7281V9.72489H55.1755H56.1169V8.7281V7.73131H55.1755H54.2341V8.7281ZM28.0524 9.8017C25.6454 10.1848 23.1421 11.3953 21.3199 13.0572C19.6938 14.5403 18.2944 16.8886 17.6687 19.1842L17.3543 20.3378L17.3494 25.1458L17.3443 29.9539L17.6504 30.6043C18.0953 31.5496 18.612 32.0718 19.5498 32.5238L20.3755 32.922L20.7019 33.9332C20.8814 34.4894 21.2584 35.3497 21.5396 35.8449C22.1112 36.8511 23.5929 38.4283 24.4926 38.9879C24.8813 39.2297 25.0514 39.4132 25.0515 39.591C25.0518 39.8849 25.3399 39.8132 20.9129 40.6204C19.316 40.9114 17.7198 41.2577 17.3656 41.3898C15.4825 42.092 14.0505 43.5834 13.3328 45.5899C13.1559 46.0843 12.9777 46.5283 12.9366 46.5765C12.8954 46.6246 12.0833 45.8818 11.1316 44.9259C8.79447 42.578 8.77329 42.9123 11.4288 40.25L13.456 38.2178L9.86963 34.6393L6.28326 31.0609L3.68414 33.6737C1.49217 35.8772 1.02714 36.4058 0.714954 37.0487C0.136249 38.2404 -0.045317 39.135 0.0142245 40.5011C0.0712948 41.8085 0.319463 42.6544 0.950296 43.6919C1.19682 44.0973 3.87312 46.84 8.68857 51.6222C15.5628 58.4492 16.1037 58.9584 16.8626 59.3175C18.977 60.3179 21.5523 60.2111 23.4064 59.0461C23.7258 58.8453 25.2043 57.5738 26.6917 56.2204L29.3963 53.7596L28.6688 53.0267L27.9415 52.2937H38.3226C44.0321 52.2937 48.7036 52.2532 48.7036 52.2036C48.7036 51.8893 46.3024 45.0242 45.9805 44.4183C45.4813 43.4786 44.2679 42.2613 43.3496 41.7792C42.3766 41.2683 41.7857 41.1164 38.4074 40.5091C34.4983 39.8063 34.8171 39.8881 34.8258 39.59C34.831 39.412 35.1012 39.1414 35.7238 38.6905C36.2135 38.3357 36.8473 37.7739 37.1322 37.442L37.6502 36.8387L39.0289 36.7923C40.1427 36.7549 40.4986 36.6984 40.88 36.4987C41.4772 36.1859 41.9498 35.7166 42.273 35.1153C42.5235 34.649 42.5259 34.5809 42.5259 27.7258C42.5259 21.5107 42.5043 20.7075 42.3147 19.8309C41.268 14.995 37.814 11.3507 33.0577 10.064C32.3824 9.88133 31.7217 9.81472 30.2881 9.78481C29.2526 9.76324 28.2465 9.77086 28.0524 9.8017ZM31.676 11.7762C35.5254 12.4452 38.7588 15.1669 40.0051 18.7872C40.4804 20.1674 40.5824 20.993 40.5834 23.4654L40.5843 25.6547L40.1136 25.4704C39.6546 25.2908 39.6429 25.272 39.6429 24.7176V24.149H38.5201C35.6628 24.149 32.9694 22.984 30.8266 20.8212L29.9531 19.9394L28.9258 20.9136C26.5896 23.1294 24.2019 24.149 21.3501 24.149H20.2273V24.7176C20.2273 25.2741 20.2171 25.2901 19.7456 25.4747L19.264 25.6632L19.3177 22.9419C19.3776 19.9073 19.4484 19.5133 20.2347 17.8348C21.6499 14.8137 24.4126 12.5708 27.5317 11.9104C29.2144 11.5543 30.2128 11.5219 31.676 11.7762ZM53.7183 18.3129C53.6242 18.4591 52.8563 19.7269 52.0118 21.1303L50.4764 23.6818L50.9726 23.987C51.2455 24.1549 51.5862 24.3655 51.7295 24.4551C51.8728 24.5448 52.033 24.6181 52.0853 24.6181C52.1378 24.6181 52.5456 24.007 52.9915 23.2601C53.5274 22.3626 53.8318 21.955 53.8894 22.0581C53.9372 22.1438 54.1128 22.7154 54.2795 23.3282C56.2782 30.6719 54.8508 38.5629 50.4089 44.7269C50.0382 45.2413 49.7117 45.7226 49.6831 45.7966C49.6377 45.9146 50.8856 47.0134 51.0675 47.0158C51.2086 47.0175 52.5155 45.156 53.3168 43.8122C55.8341 39.5903 57.0874 35.0089 57.092 30.0125C57.0945 27.3145 56.7106 24.589 56.003 22.2788C55.8755 21.8629 55.7855 21.5085 55.8028 21.4912C55.8297 21.4643 56.858 22.0584 58.1975 22.8747L58.5719 23.1029L59.0664 22.2734C59.3382 21.8174 59.5405 21.4248 59.5157 21.4012C59.4587 21.347 54.4229 18.3317 54.116 18.1681C53.9324 18.0701 53.8565 18.0978 53.7183 18.3129ZM30.7536 23.3611C32.2847 24.6198 34.5006 25.6187 36.407 25.9097C36.9247 25.9888 37.4146 26.0719 37.4954 26.0943C37.6082 26.1257 37.6422 26.827 37.6408 29.1C37.6389 32.2872 37.5628 32.8915 37.0051 34.1445L36.7058 34.8169L33.3204 34.8481L29.9351 34.8792V35.8174V36.7555L32.465 36.8142L34.9949 36.8728L34.4391 37.2574C33.6051 37.8345 32.5196 38.3105 31.5446 38.5268C30.3786 38.7852 28.5821 38.7049 27.5228 38.3469C25.1382 37.5408 23.3065 35.6775 22.4998 33.2374C22.2046 32.3443 22.1872 32.1535 22.1368 29.2652C22.0789 25.9469 22.0626 26.0306 22.7715 26.0271C23.3385 26.0244 25.2599 25.5058 26.2336 25.0929C27.1388 24.7091 29.1762 23.4247 29.5709 22.9891C29.6942 22.8531 29.8412 22.7418 29.8977 22.7418C29.954 22.7418 30.3393 23.0206 30.7536 23.3611ZM20.2273 29.0948V30.7571L19.9219 30.4727C19.754 30.3164 19.5422 30.0459 19.4512 29.8718C19.2527 29.4915 19.2343 28.5722 19.4183 28.2164C19.5862 27.8915 20.0029 27.4326 20.1301 27.4326C20.1835 27.4326 20.2273 28.1805 20.2273 29.0948ZM40.3686 28.1422C40.7803 28.9073 40.6089 29.8576 39.9483 30.4727L39.6429 30.7571V29.0805V27.404L39.8979 27.5727C40.0382 27.6655 40.25 27.9218 40.3686 28.1422ZM40.5843 33.36C40.5843 34.1431 40.5511 34.278 40.2954 34.5327C40.0679 34.7596 39.8851 34.8206 39.4334 34.8206H38.8602L39.1308 34.029C39.2797 33.5937 39.4029 33.1566 39.4045 33.0579C39.407 32.9118 40.0948 32.5534 40.4961 32.4893C40.5447 32.4815 40.5843 32.8733 40.5843 33.36ZM10.2229 38.7483L9.693 39.2765L7.46161 37.0503L5.23034 34.8243L5.75409 34.2925L6.27796 33.7606L8.51536 35.9905L10.7529 38.2202L10.2229 38.7483ZM7.94041 41.0912C7.33582 41.9792 7.25781 43.1235 7.73896 44.0476C8.09174 44.725 15.5865 52.1198 16.1625 52.3586C17.0681 52.7341 18.4771 52.5339 19.1121 51.9395C19.3525 51.7143 19.3603 51.7205 21.5847 53.9458L23.8162 56.1779L23.2007 56.7476C22.8621 57.0609 22.2797 57.4666 21.9063 57.6492C21.2799 57.9556 21.1227 57.9812 19.8742 57.9802C17.66 57.9785 18.2847 58.4702 9.90669 50.1356C2.06134 42.331 2.2688 42.5717 1.95979 40.9153C1.70115 39.5292 2.18407 37.9914 3.24864 36.8115L3.79228 36.2088L6.01814 38.4271L8.24412 40.6454L7.94041 41.0912ZM29.9939 40.605C30.9458 40.6004 31.6931 40.5337 32.1119 40.4161C32.4677 40.3161 32.7704 40.2457 32.7844 40.2597C32.7985 40.2737 32.1624 40.929 31.3708 41.7159L29.9317 43.1468L28.4763 41.693L27.0211 40.2392L27.7721 40.4256C28.2689 40.549 29.0208 40.6097 29.9939 40.605ZM27.7864 43.8198L29.8763 45.9001L31.9837 43.8021L34.0914 41.7043L37.779 42.3694C40.7654 42.9081 41.6042 43.1011 42.1889 43.3845C42.9887 43.7723 43.7127 44.4132 44.1744 45.1422C44.4292 45.5444 45.9972 49.8963 45.9972 50.2013C45.9972 50.2556 41.4824 50.3002 35.9643 50.3002H25.9315L24.1104 48.4825C23.1088 47.4827 22.2433 46.6648 22.1869 46.6648C22.1307 46.6648 21.3357 47.3421 20.4205 48.1702C17.7589 50.5777 17.6645 50.652 17.2612 50.652C16.9595 50.652 16.6949 50.4525 15.6915 49.4685L14.4847 48.285L14.9404 46.9333C15.4569 45.4011 15.9184 44.6079 16.6323 44.0248C17.5409 43.2829 18.212 43.0727 21.8197 42.3999C23.6944 42.0505 25.3336 41.7588 25.4624 41.752C25.6178 41.7437 26.4004 42.44 27.7864 43.8198ZM25.9646 54.2574L25.3504 54.8773L23.1124 52.6406L20.8744 50.4038L21.5109 49.8147L22.1473 49.2256L24.3631 51.4316L26.579 53.6375L25.9646 54.2574Z" fill="white"/>
</svg>
