<svg width="50" height="50" viewBox="0 0 50 50" fill="none" xmlns="http://www.w3.org/2000/svg">
<path d="M8.83855 34.1509C8.83855 33.7596 9.15575 33.4424 9.54705 33.4424H26.6759C27.0672 33.4424 27.3844 33.7596 27.3844 34.1509C27.3844 34.5422 27.0672 34.8594 26.6759 34.8594H9.54705C9.15575 34.8594 8.83855 34.5422 8.83855 34.1509ZM9.54705 29.6068H22.0602C22.4514 29.6068 22.7687 29.2896 22.7687 28.8983C22.7687 28.507 22.4514 28.1898 22.0602 28.1898H9.54705C9.15575 28.1898 8.83855 28.507 8.83855 28.8983C8.83855 29.2896 9.15575 29.6068 9.54705 29.6068ZM38.547 39.9557V48.3625C38.547 49.2676 37.8108 50.0038 36.9057 50.0038H25.6135C24.7084 50.0038 23.9722 49.2676 23.9722 48.3625V43.2289C22.0922 43.6657 20.1253 43.8873 18.1115 43.8873C17.2767 43.8873 16.4376 43.8483 15.6133 43.7711L6.86254 49.8765C6.74078 49.9614 6.59898 50.0039 6.45718 50.0039C6.31862 50.0039 6.18016 49.9634 6.06012 49.8821C5.8173 49.7178 5.70071 49.4208 5.767 49.1352L7.52378 41.5672C2.80072 39.2502 0.00012207 35.5286 0.00012207 31.5246C0.00012207 28.7787 1.27947 26.1832 3.6998 24.0187C6.01538 21.9479 9.16638 20.4536 12.8122 19.6974C13.1953 19.6181 13.5704 19.864 13.6499 20.2471C13.7293 20.6303 13.4832 21.0053 13.1001 21.0848C9.74684 21.7803 6.74382 23.1974 4.64443 25.0749C2.53311 26.963 1.41712 29.1933 1.41712 31.5246C1.41712 35.1039 4.116 38.4688 8.63663 40.5258C8.94371 40.6655 9.1096 41.0023 9.03328 41.3309L7.56436 47.6589L15.0172 42.4591C15.1567 42.3617 15.3265 42.3181 15.4958 42.3354C16.356 42.4248 17.236 42.4701 18.1115 42.4701C20.1325 42.4701 22.101 42.2347 23.9722 41.7713V39.9556C23.9722 39.0505 24.7084 38.3143 25.6135 38.3143H31.1827C33.521 36.3827 34.8058 33.9797 34.8058 31.5245C34.8058 28.9013 33.3523 26.3582 30.7129 24.3637C30.4008 24.1278 30.339 23.6836 30.5748 23.3713C30.8107 23.0592 31.255 22.9973 31.5672 23.2333C34.5694 25.5019 36.2228 28.4464 36.2228 31.5245C36.2228 33.9531 35.1839 36.313 33.2643 38.3143H36.9056C37.8107 38.3143 38.547 39.0506 38.547 39.9557ZM37.13 39.9557C37.13 39.8341 37.0273 39.7314 36.9057 39.7314H25.6135C25.4919 39.7314 25.3892 39.8341 25.3892 39.9557V48.3625C25.3892 48.4841 25.4919 48.5868 25.6135 48.5868H36.9057C37.0273 48.5868 37.13 48.4841 37.13 48.3625V39.9557ZM33.9896 44.159C33.9896 44.4121 33.8545 44.646 33.6353 44.7726L29.5924 47.1067C29.4828 47.1699 29.3604 47.2016 29.2382 47.2016C29.1159 47.2016 28.9935 47.17 28.8839 47.1067C28.6647 46.9801 28.5297 46.7462 28.5297 46.4931V41.8248C28.5297 41.5717 28.6647 41.3377 28.8839 41.2112C29.1031 41.0846 29.3732 41.0846 29.5924 41.2112L33.6353 43.5454C33.8545 43.672 33.9896 43.9059 33.9896 44.159ZM31.8641 44.159L29.9467 43.052V45.266L31.8641 44.159ZM45.3759 7.40904C45.4962 7.40904 45.6179 7.37847 45.7296 7.314L48.4659 5.73425C48.8048 5.5386 48.9209 5.1053 48.7252 4.76644C48.5297 4.42758 48.0965 4.31148 47.7574 4.50713L45.0211 6.08688C44.6822 6.28253 44.5661 6.71583 44.7618 7.05469C44.893 7.28192 45.1311 7.40904 45.3759 7.40904ZM40.8151 4.21249C40.9268 4.27697 41.0485 4.30753 41.1688 4.30753C41.4136 4.30753 41.6518 4.18051 41.7829 3.95318L43.4494 1.06676C43.6451 0.727894 43.529 0.294596 43.1901 0.0989491C42.8513 -0.0966979 42.418 0.0193948 42.2223 0.35826L40.5558 3.24469C40.3602 3.58355 40.4763 4.01685 40.8151 4.21249ZM45.2499 11.8936C45.2499 12.2849 45.5671 12.6021 45.9584 12.6021H49.2914C49.6827 12.6021 49.9999 12.2849 49.9999 11.8936C49.9999 11.5023 49.6827 11.1851 49.2914 11.1851H45.9584C45.5671 11.1851 45.2499 11.5023 45.2499 11.8936ZM15.2334 19.6691C15.6101 18.2629 16.5075 17.0903 17.7606 16.3669L21.4664 14.2273C21.6291 14.1333 21.8226 14.1078 22.0041 14.1565C22.0757 14.1757 22.1429 14.2062 22.2042 14.2456C26.0127 11.3953 29.0157 8.09547 30.736 4.86573L30.6708 4.75288C29.868 3.3624 30.3462 1.57799 31.7366 0.77506C33.1273 -0.0276699 34.9116 0.450466 35.7144 1.84084L38.6055 6.84831C40.1412 6.05388 42.052 6.60216 42.9252 8.11491C43.7985 9.62755 43.318 11.5562 41.8623 12.4892L44.7534 17.4967C45.1411 18.1682 45.2435 18.9526 45.0417 19.7057C44.8399 20.4586 44.359 21.0868 43.6875 21.4746C43.241 21.7324 42.7447 21.864 42.2408 21.864C41.9868 21.864 41.7309 21.8305 41.4786 21.7629C40.7257 21.5612 40.0974 21.0802 39.7098 20.4088L39.6446 20.2959C36.0195 20.1718 31.7037 21.1051 27.3692 22.9461L32.4848 29.8319C32.9953 30.5192 32.9058 31.4681 32.2764 32.0391L31.151 33.0604C30.8461 33.3369 30.4487 33.4888 30.0409 33.4888C29.9885 33.4888 29.9359 33.4863 29.8834 33.4812C29.4272 33.4372 29.0087 33.202 28.7352 32.8358L23.3834 25.6745L23.1967 25.7822C22.3639 26.263 21.4377 26.5087 20.4973 26.5087C20.0228 26.5087 19.5448 26.4461 19.0732 26.3198C17.6671 25.9431 16.4944 25.0455 15.771 23.7926C15.0475 22.5395 14.8566 21.0752 15.2334 19.6691ZM31.3473 30.6769L26.3559 23.9582L24.6192 24.9609L29.8703 31.9876C29.9161 32.0489 29.9767 32.0666 30.0195 32.0708C30.0579 32.0744 30.1319 32.0716 30.1988 32.0109L31.3241 30.9897C31.4125 30.9094 31.4224 30.7779 31.3473 30.6769ZM39.3159 8.07888L41.1519 11.2587C41.9312 10.7185 42.1806 9.65913 41.6981 8.82341C41.2156 7.98778 40.1734 7.67402 39.3159 8.07888ZM31.898 4.04438L40.9368 19.7002C41.1353 20.0439 41.4578 20.2904 41.8453 20.3941C42.2326 20.4978 42.6352 20.4458 42.979 20.2473C43.3227 20.049 43.5692 19.7263 43.673 19.339C43.7768 18.9516 43.7246 18.549 43.5263 18.2053L34.4873 2.54945C34.2108 2.0704 33.7072 1.80228 33.1902 1.80228C32.9367 1.80228 32.68 1.86665 32.4452 2.00228C32.1015 2.20066 31.8551 2.52333 31.7513 2.91068C31.6476 3.29803 31.6996 3.70065 31.898 4.04438ZM22.9812 15.4339L26.6148 21.7276C30.8644 19.8968 35.1273 18.9014 38.821 18.8695L31.5595 6.29194C29.6851 9.47482 26.6915 12.669 22.9812 15.4339ZM16.998 23.084C17.5321 24.0092 18.3993 24.6722 19.4398 24.951C20.4802 25.2298 21.5628 25.0891 22.488 24.555L25.5803 22.7697L21.5613 15.8086L18.469 17.5939C17.5438 18.128 16.8808 18.9952 16.602 20.0357C16.3231 21.0762 16.4639 22.1589 16.998 23.084ZM3.88705 8.19436C3.88705 5.8215 5.81751 3.89094 8.19047 3.89094C10.5634 3.89094 12.4939 5.82139 12.4939 8.19436C12.4939 10.5672 10.5634 12.4977 8.19047 12.4977C5.81751 12.4977 3.88705 10.5672 3.88705 8.19436ZM5.30405 8.19436C5.30405 9.78595 6.59888 11.0807 8.19047 11.0807C9.78207 11.0807 11.0769 9.78595 11.0769 8.19436C11.0769 6.60277 9.78207 5.30794 8.19047 5.30794C6.59888 5.30794 5.30405 6.60277 5.30405 8.19436ZM0.00012207 8.94254V7.44619C0.00012207 6.78445 0.538379 6.24619 1.20002 6.24619C1.78605 6.24619 2.01722 5.79822 2.074 5.66087C2.13088 5.52352 2.28432 5.04326 1.86985 4.62889C1.64323 4.40237 1.51833 4.10106 1.51833 3.78041C1.51833 3.45987 1.64313 3.15845 1.86985 2.93183L2.92784 1.87374C3.39565 1.40583 4.15699 1.40583 4.6249 1.87374C5.03937 2.28821 5.51963 2.13477 5.65688 2.07789C5.79423 2.02101 6.2422 1.78993 6.2422 1.2039C6.2422 0.542166 6.78046 0.00390897 7.4421 0.00390897H8.93845C9.60008 0.00390897 10.1383 0.542166 10.1383 1.2039C10.1383 1.78993 10.5863 2.02101 10.7237 2.07789C10.8609 2.13477 11.3414 2.28801 11.7556 1.87374C12.2236 1.40583 12.9848 1.40583 13.4527 1.87374L14.5108 2.93183C14.7374 3.15845 14.8622 3.45977 14.8622 3.78031C14.8622 4.10086 14.7374 4.40227 14.5107 4.62889C14.0963 5.04326 14.2498 5.52352 14.3066 5.66087C14.3635 5.79812 14.5946 6.24619 15.1806 6.24619C15.8423 6.24619 16.3805 6.78445 16.3805 7.44619V8.94254C16.3805 9.60417 15.8423 10.1424 15.1806 10.1424C14.5946 10.1424 14.3634 10.5904 14.3066 10.7278C14.2498 10.865 14.0963 11.3454 14.5108 11.7597C14.9787 12.2276 14.9787 12.989 14.5108 13.4568L13.4527 14.5149C13.2262 14.7415 12.9248 14.8664 12.6042 14.8664C12.2837 14.8664 11.9823 14.7416 11.7556 14.5149C11.3413 14.1006 10.8611 14.2538 10.7237 14.3108C10.5864 14.3677 10.1383 14.5988 10.1383 15.1849C10.1383 15.8466 9.60008 16.3848 8.93845 16.3848H7.4423C6.78066 16.3848 6.2424 15.8466 6.2424 15.1849C6.2424 14.5976 5.79473 14.3665 5.65759 14.3097C5.52024 14.2528 5.04038 14.0996 4.6251 14.515C4.39859 14.7416 4.09717 14.8665 3.77662 14.8665C3.45608 14.8665 3.15456 14.7417 2.92805 14.515L1.87005 13.457C1.64344 13.2305 1.51854 12.9291 1.51854 12.6084C1.51854 12.2879 1.64333 11.9865 1.87005 11.7598C2.28442 11.3455 2.13098 10.8652 2.0741 10.728C2.01722 10.5906 1.78615 10.1426 1.20012 10.1426C0.538379 10.1424 0.00012207 9.60417 0.00012207 8.94254ZM1.41712 8.73485C2.29677 8.81146 3.03827 9.35256 3.38321 10.1855C3.72824 11.0185 3.58654 11.9255 3.01863 12.6017L3.7831 13.3662C4.45982 12.7977 5.367 12.6557 6.19969 13.0005C7.03248 13.3455 7.57337 14.0874 7.64989 14.9679H8.73085C8.80747 14.0883 9.34857 13.3468 10.1816 13.0017C11.0144 12.6569 11.9214 12.7984 12.5977 13.3662L13.3622 12.6017C12.7943 11.9255 12.6527 11.0185 12.9976 10.1855C13.3427 9.35266 14.0841 8.81146 14.9637 8.73485V7.65388C14.0841 7.57726 13.3426 7.03617 12.9976 6.20317C12.6527 5.37018 12.7943 4.4633 13.3621 3.78699L12.5976 3.02252C11.9212 3.59033 11.0143 3.73193 10.1815 3.38699C9.34857 3.04195 8.80747 2.30056 8.73085 1.42091H7.64989C7.57327 2.30056 7.03218 3.04205 6.19929 3.38699C5.36629 3.73203 4.45931 3.59033 3.7831 3.02242L3.01863 3.78689C3.58644 4.4633 3.72814 5.37018 3.3831 6.20307C3.03827 7.03617 2.29677 7.57726 1.41712 7.65388V8.73485ZM49.9442 27.5718C49.6941 29.6698 48.6853 31.6656 48.1062 32.6686C47.5271 33.6715 46.3032 35.543 44.6114 36.8086C43.5145 37.6292 42.41 38.0419 41.3397 38.0419C40.5924 38.0419 39.8616 37.8407 39.1617 37.4365L38.9072 37.2896C38.488 37.0476 38.1881 36.6562 38.0624 36.1873C37.9368 35.7184 38.0009 35.2295 38.2429 34.8103L39.2602 33.0483C39.7605 32.1816 40.8727 31.8836 41.7394 32.3839L42.3362 32.7285C42.5053 32.8262 42.7055 32.7931 42.8345 32.6463C43.3908 32.0119 43.9033 31.2912 44.3576 30.5043C44.812 29.7174 45.1799 28.9131 45.451 28.1142C45.5138 27.9292 45.4423 27.7392 45.2732 27.6415L44.6765 27.2971C44.2572 27.0551 43.9573 26.6636 43.8316 26.1948C43.706 25.726 43.7701 25.2369 44.0121 24.8178L45.0294 23.0557C45.5296 22.1891 46.6418 21.8912 47.5086 22.3914L47.7632 22.5383C49.4655 23.5211 50.2197 25.2616 49.9442 27.5718ZM47.0547 23.7655L46.8002 23.6185C46.6103 23.5088 46.3662 23.5742 46.2566 23.7641L45.2393 25.5262C45.1866 25.6176 45.1727 25.7247 45.2004 25.8279C45.2281 25.9311 45.2937 26.0171 45.3851 26.0698L45.9818 26.4142C46.7412 26.8528 47.0748 27.739 46.7929 28.5695C46.492 29.4561 46.0856 30.3454 45.5849 31.2127C45.0842 32.0798 44.5172 32.8764 43.8998 33.5806C43.3215 34.2401 42.3873 34.3942 41.6278 33.9557L41.031 33.6113C40.9686 33.5752 40.9003 33.558 40.8327 33.558C40.6951 33.558 40.561 33.6294 40.4873 33.7569L39.47 35.5189C39.4173 35.6103 39.4034 35.7174 39.4311 35.8207C39.4588 35.9239 39.5243 36.0098 39.6157 36.0626L39.8702 36.2095C41.0768 36.9061 42.3499 36.7309 43.7626 35.674C45.3073 34.5184 46.4566 32.6918 46.8792 31.9601C47.3016 31.2284 48.3089 29.3196 48.5373 27.4041C48.7461 25.6522 48.2612 24.462 47.0547 23.7655Z" fill="#3E66F3"/>
</svg>
