<svg width="60" height="60" viewBox="0 0 60 60" fill="none" xmlns="http://www.w3.org/2000/svg">
<g clip-path="url(#clip0_398_359)">
<path d="M51.8851 18.7356C52.0086 18.7357 52.13 18.7032 52.2369 18.6415C52.3439 18.5798 52.4327 18.491 52.4945 18.384L55.5062 13.1672C56.2445 13.477 57.0712 13.5034 57.8277 13.2414C58.5843 12.9794 59.2176 12.4474 59.6062 11.7474C59.9948 11.0474 60.1114 10.2286 59.9337 9.4479C59.7559 8.66722 59.2963 7.97961 58.6429 7.51683C57.9896 7.05406 57.1884 6.84869 56.393 6.94007C55.5975 7.03146 54.8638 7.41317 54.3324 8.01206C53.801 8.61095 53.5093 9.38488 53.5133 10.1855C53.5172 10.9862 53.8164 11.7572 54.3537 12.3509L51.4794 17.3293H47.6347V15.2946C47.6339 14.5179 47.3249 13.7732 46.7757 13.224C46.2264 12.6747 45.4818 12.3658 44.705 12.3649H42.6703V8.52118L47.6489 5.64693C48.2405 6.18139 49.0084 6.47883 49.8056 6.48226C50.6029 6.4857 51.3733 6.19489 51.9695 5.66555C52.5656 5.1362 52.9455 4.40553 53.0364 3.61349C53.1272 2.82144 52.9227 2.02372 52.462 1.37311C52.0012 0.722498 51.3166 0.264743 50.5393 0.0875241C49.762 -0.0896944 48.9467 0.0260826 48.2495 0.412678C47.5522 0.799274 47.0221 1.42951 46.7607 2.18267C46.4993 2.93582 46.5249 3.75895 46.8327 4.49439L41.6156 7.50611C41.5087 7.56786 41.4199 7.65669 41.3582 7.76366C41.2964 7.87064 41.264 7.99198 41.2641 8.11548V12.3656H30.7029V6.40911C31.4829 6.23591 32.1714 5.78091 32.6367 5.13135C33.1019 4.48179 33.3109 3.68338 33.2238 2.88918C33.1367 2.09497 32.7595 1.36087 32.1645 0.82761C31.5696 0.294347 30.7987 -0.000552041 29.9998 -0.000552041C29.2008 -0.000552041 28.4299 0.294347 27.835 0.82761C27.24 1.36087 26.8628 2.09497 26.7757 2.88918C26.6886 3.68338 26.8977 4.48179 27.3629 5.13135C27.8281 5.78091 28.5167 6.23591 29.2966 6.40911V12.3649H18.7355V8.11478C18.7355 7.99128 18.7031 7.86993 18.6414 7.76296C18.5797 7.65598 18.4909 7.56715 18.3839 7.5054L13.1668 4.49368C13.4765 3.75545 13.5029 2.92888 13.2409 2.17241C12.9788 1.41594 12.4469 0.782776 11.7469 0.394264C11.0469 0.00575214 10.2282 -0.110775 9.44761 0.0670152C8.66704 0.244805 7.97953 0.704406 7.51685 1.35773C7.05418 2.01106 6.84888 2.81215 6.9403 3.60748C7.03173 4.40281 7.41345 5.13642 8.0123 5.66772C8.61116 6.19902 9.38502 6.49063 10.1856 6.48667C10.9861 6.4827 11.7571 6.18343 12.3506 5.64622L17.3292 8.52048V12.3642H15.2945C14.5178 12.3651 13.7731 12.674 13.2239 13.2233C12.6746 13.7725 12.3657 14.5172 12.3648 15.2939V17.3286H8.52047L5.64609 12.3509C6.18028 11.7594 6.4775 10.9917 6.48083 10.1948C6.48416 9.39785 6.19337 8.62768 5.66414 8.03182C5.13492 7.43595 4.40447 7.05627 3.6127 6.9655C2.82094 6.87472 2.02351 7.07924 1.37316 7.53987C0.722813 8.00051 0.265261 8.68487 0.0881413 9.4619C-0.0889779 10.2389 0.0267874 11.054 0.413264 11.7509C0.799741 12.4479 1.42976 12.9778 2.18265 13.2391C2.93554 13.5005 3.75838 13.4749 4.49356 13.1672L7.50527 18.384C7.56702 18.491 7.65586 18.5798 7.76283 18.6415C7.86981 18.7032 7.99115 18.7357 8.11465 18.7356H12.3649V29.2969H6.40899C6.23578 28.5169 5.78078 27.8283 5.13122 27.3631C4.48166 26.8979 3.68325 26.6888 2.88905 26.776C2.09484 26.8631 1.36074 27.2403 0.827482 27.8352C0.294219 28.4302 -0.000680712 29.201 -0.000680712 30C-0.000680712 30.799 0.294219 31.5698 0.827482 32.1648C1.36074 32.7598 2.09484 33.1369 2.88905 33.2241C3.68325 33.3112 4.48166 33.1021 5.13122 32.6369C5.78078 32.1717 6.23578 31.4831 6.40899 30.7031H12.3648V41.2644H8.11453C7.99103 41.2643 7.86969 41.2968 7.76271 41.3585C7.65574 41.4202 7.56691 41.509 7.50516 41.616L4.49344 46.8328C3.75514 46.523 2.92849 46.4966 2.17191 46.7586C1.41533 47.0206 0.782057 47.5526 0.393449 48.2526C0.00484124 48.9526 -0.111759 49.7715 0.0659961 50.5521C0.243751 51.3328 0.703356 52.0204 1.35673 52.4832C2.01009 52.946 2.81127 53.1513 3.60669 53.06C4.40211 52.9686 5.13583 52.5868 5.66723 51.988C6.19863 51.3891 6.49031 50.6151 6.48639 49.8145C6.48247 49.0138 6.18321 48.2428 5.64598 47.6492L8.52047 42.6707H12.3648V44.7054C12.3657 45.4821 12.6746 46.2268 13.2239 46.776C13.7731 47.3253 14.5178 47.6342 15.2945 47.6351H17.3292V51.4794L12.3506 54.3537C11.7591 53.8192 10.9911 53.5218 10.1939 53.5183C9.39668 53.5149 8.6262 53.8057 8.03007 54.3351C7.43393 54.8644 7.05404 55.5951 6.96317 56.3871C6.87229 57.1792 7.07682 57.9769 7.53757 58.6275C7.99832 59.2781 8.68291 59.7359 9.4602 59.9131C10.2375 60.0903 11.0528 59.9745 11.7501 59.5879C12.4473 59.2013 12.9774 58.5711 13.2388 57.8179C13.5002 57.0648 13.4746 56.2417 13.1668 55.5062L18.3839 52.4945C18.4909 52.4328 18.5797 52.3439 18.6414 52.2369C18.7031 52.13 18.7355 52.0086 18.7355 51.8851V47.6351H29.2966V53.5909C28.5167 53.7641 27.8281 54.2191 27.3629 54.8687C26.8977 55.5182 26.6886 56.3167 26.7757 57.1109C26.8628 57.9051 27.24 58.6392 27.835 59.1724C28.4299 59.7057 29.2008 60.0006 29.9998 60.0006C30.7987 60.0006 31.5696 59.7057 32.1645 59.1724C32.7595 58.6392 33.1367 57.9051 33.2238 57.1109C33.3109 56.3167 33.1019 55.5182 32.6367 54.8687C32.1714 54.2191 31.4829 53.7641 30.7029 53.5909V47.6351H41.2641V51.8852C41.264 52.0087 41.2964 52.1301 41.3582 52.2371C41.4199 52.344 41.5087 52.4329 41.6156 52.4946L46.8327 55.5063C46.523 56.2446 46.4966 57.0711 46.7587 57.8276C47.0207 58.5841 47.5527 59.2172 48.2526 59.6058C48.9526 59.9943 49.7713 60.1108 50.5519 59.933C51.3325 59.7552 52.02 59.2956 52.4827 58.6423C52.9454 57.989 53.1507 57.1879 53.0592 56.3925C52.9678 55.5972 52.5861 54.8636 51.9872 54.3323C51.3884 53.801 50.6145 53.5094 49.814 53.5134C49.0134 53.5173 48.2425 53.8166 47.6489 54.3538L42.6703 51.4795V47.6351H44.7052C45.4819 47.6342 46.2266 47.3253 46.7758 46.776C47.325 46.2268 47.634 45.4821 47.6348 44.7054V42.6707H51.4793L54.3536 47.6492C53.8194 48.2406 53.5221 49.0083 53.5188 49.8052C53.5155 50.6022 53.8063 51.3723 54.3355 51.9682C54.8647 52.5641 55.5952 52.9438 56.3869 53.0345C57.1787 53.1253 57.9761 52.9208 58.6265 52.4602C59.2768 51.9995 59.7344 51.3152 59.9115 50.5381C60.0886 49.7611 59.9729 48.946 59.5864 48.2491C59.1999 47.5521 58.5699 47.0222 57.817 46.7609C57.0641 46.4996 56.2413 46.5252 55.5061 46.8328L52.4944 41.616C52.4326 41.509 52.3438 41.4202 52.2368 41.3585C52.1298 41.2968 52.0085 41.2643 51.885 41.2644H47.6346V30.7031H53.5904C53.7636 31.4831 54.2186 32.1717 54.8682 32.6369C55.5178 33.1021 56.3162 33.3112 57.1104 33.2241C57.9046 33.1369 58.6387 32.7598 59.1719 32.1648C59.7052 31.5698 60.0001 30.799 60.0001 30C60.0001 29.201 59.7052 28.4302 59.1719 27.8352C58.6387 27.2403 57.9046 26.8631 57.1104 26.776C56.3162 26.6888 55.5178 26.8979 54.8682 27.3631C54.2186 27.8283 53.7636 28.5169 53.5904 29.2969H47.6347V18.7356H51.8851ZM56.7564 8.33755C57.1197 8.33755 57.4749 8.4453 57.777 8.64717C58.0792 8.84903 58.3146 9.13596 58.4537 9.47165C58.5927 9.80735 58.6291 10.1767 58.5582 10.5331C58.4873 10.8895 58.3124 11.2168 58.0554 11.4738C57.7985 11.7307 57.4711 11.9057 57.1148 11.9765C56.7584 12.0474 56.389 12.0111 56.0533 11.872C55.7176 11.733 55.4307 11.4975 55.2288 11.1954C55.027 10.8932 54.9192 10.5381 54.9192 10.1747C54.9198 9.68763 55.1135 9.22067 55.4579 8.87626C55.8023 8.53185 56.2693 8.33811 56.7564 8.33755ZM49.8251 1.40626C50.1884 1.40624 50.5436 1.51397 50.8458 1.71582C51.1479 1.91767 51.3834 2.20459 51.5225 2.54028C51.6615 2.87598 51.6979 3.24537 51.6271 3.60175C51.5562 3.95813 51.3812 4.28549 51.1243 4.54243C50.8674 4.79937 50.54 4.97435 50.1837 5.04525C49.8273 5.11615 49.4579 5.07977 49.1222 4.94073C48.7865 4.80168 48.4995 4.56621 48.2977 4.26409C48.0958 3.96197 47.988 3.60677 47.988 3.24341C47.9888 2.75641 48.1825 2.28955 48.5269 1.94518C48.8712 1.6008 49.3381 1.40701 49.8251 1.40626ZM28.1626 3.24341C28.1626 2.88002 28.2703 2.52479 28.4722 2.22264C28.6741 1.92048 28.961 1.68498 29.2967 1.5459C29.6325 1.40683 30.0019 1.37044 30.3583 1.44132C30.7147 1.51221 31.0421 1.6872 31.299 1.94415C31.556 2.2011 31.731 2.52848 31.8019 2.88489C31.8727 3.24129 31.8363 3.61072 31.6973 3.94644C31.5582 4.28216 31.3227 4.5691 31.0205 4.77097C30.7184 4.97285 30.3632 5.08058 29.9998 5.08056C29.5127 5.08 29.0457 4.88627 28.7013 4.54185C28.3569 4.19744 28.1632 3.73048 28.1626 3.24341ZM10.1745 5.08056C9.8111 5.08058 9.45589 4.97286 9.15376 4.771C8.85162 4.56915 8.61613 4.28223 8.47707 3.94654C8.338 3.61085 8.3016 3.24145 8.37247 2.88507C8.44335 2.52869 8.61831 2.20133 8.87524 1.94439C9.13216 1.68745 9.45951 1.51247 9.81588 1.44157C10.1723 1.37067 10.5417 1.40705 10.8774 1.5461C11.2131 1.68514 11.5 1.92061 11.7019 2.22273C11.9037 2.52485 12.0115 2.88005 12.0115 3.24341C12.0108 3.73041 11.817 4.19727 11.4727 4.54164C11.1283 4.88602 10.6615 5.07981 10.1745 5.08056ZM1.40602 10.1747C1.40599 9.81134 1.51372 9.45613 1.71557 9.154C1.91743 8.85187 2.20434 8.61638 2.54004 8.47731C2.87573 8.33824 3.24512 8.30185 3.6015 8.37272C3.95788 8.44359 4.28524 8.61856 4.54218 8.87548C4.79912 9.13241 4.97411 9.45975 5.045 9.81613C5.1159 10.1725 5.07953 10.5419 4.94048 10.8776C4.80143 11.2133 4.56596 11.5002 4.26384 11.7021C3.96172 11.904 3.60652 12.0117 3.24316 12.0117C2.75611 12.0112 2.28917 11.8175 1.94476 11.4731C1.60035 11.1287 1.40661 10.6617 1.40602 10.1747ZM3.24316 31.8372C2.87981 31.8372 2.52462 31.7294 2.2225 31.5275C1.92038 31.3257 1.68491 31.0388 1.54586 30.7031C1.40681 30.3674 1.37043 29.998 1.44132 29.6416C1.5122 29.2852 1.68717 28.9579 1.9441 28.701C2.20103 28.444 2.52838 28.2691 2.88475 28.1982C3.24113 28.1273 3.61052 28.1637 3.94621 28.3027C4.28191 28.4418 4.56883 28.6772 4.7707 28.9793C4.97257 29.2815 5.08031 29.6367 5.08031 30C5.07979 30.4871 4.88606 30.9541 4.54164 31.2985C4.19722 31.6429 3.73024 31.8366 3.24316 31.8372ZM3.24316 51.6625C2.87981 51.6625 2.52462 51.5547 2.2225 51.3529C1.92038 51.151 1.68491 50.8641 1.54586 50.5284C1.40681 50.1927 1.37043 49.8233 1.44132 49.4669C1.5122 49.1105 1.68717 48.7832 1.9441 48.5263C2.20103 48.2693 2.52838 48.0944 2.88475 48.0235C3.24113 47.9526 3.61052 47.989 3.94621 48.128C4.28191 48.2671 4.56883 48.5025 4.7707 48.8047C4.97257 49.1068 5.08031 49.462 5.08031 49.8253C5.07975 50.3124 4.88602 50.7794 4.54161 51.1238C4.1972 51.4682 3.73024 51.6619 3.24316 51.6625ZM10.1745 58.5938C9.8111 58.5938 9.45589 58.4861 9.15376 58.2842C8.85162 58.0823 8.61613 57.7954 8.47707 57.4597C8.338 57.1241 8.3016 56.7547 8.37247 56.3983C8.44335 56.0419 8.61831 55.7145 8.87524 55.4576C9.13216 55.2007 9.45951 55.0257 9.81588 54.9548C10.1723 54.8839 10.5417 54.9202 10.8774 55.0593C11.2131 55.1983 11.5 55.4338 11.7019 55.7359C11.9037 56.0381 12.0115 56.3933 12.0115 56.7566C12.0108 57.2436 11.817 57.7105 11.4727 58.0548C11.1283 58.3992 10.6615 58.593 10.1745 58.5938ZM31.8369 56.7566C31.8369 57.12 31.7292 57.4752 31.5273 57.7774C31.3255 58.0795 31.0385 58.315 30.7028 58.4541C30.3671 58.5932 29.9977 58.6296 29.6412 58.5587C29.2848 58.4878 28.9575 58.3128 28.7005 58.0559C28.4436 57.7989 28.2686 57.4715 28.1977 57.1151C28.1268 56.7587 28.1632 56.3893 28.3023 56.0536C28.4413 55.7179 28.6768 55.4309 28.979 55.2291C29.2811 55.0272 29.6364 54.9194 29.9998 54.9195C30.4868 54.92 30.9538 55.1138 31.2982 55.4582C31.6426 55.8026 31.8364 56.2695 31.8369 56.7566ZM49.8252 54.9195C50.1885 54.9195 50.5437 55.0272 50.8459 55.2291C51.148 55.431 51.3834 55.7179 51.5225 56.0536C51.6615 56.3893 51.6979 56.7587 51.627 57.115C51.5562 57.4714 51.3812 57.7987 51.1243 58.0557C50.8673 58.3126 50.54 58.4876 50.1836 58.5585C49.8272 58.6293 49.4578 58.593 49.1222 58.4539C48.7865 58.3149 48.4995 58.0794 48.2977 57.7773C48.0958 57.4752 47.988 57.12 47.988 56.7566C47.9888 56.2696 48.1825 55.8028 48.5269 55.4584C48.8712 55.114 49.3381 54.9202 49.8251 54.9195H49.8252ZM46.2286 44.7054C46.2282 45.1093 46.0675 45.4966 45.7819 45.7822C45.4963 46.0678 45.1091 46.2284 44.7052 46.2288H15.2945C14.8906 46.2284 14.5034 46.0677 14.2178 45.7821C13.9322 45.4965 13.7715 45.1093 13.7711 44.7054V15.2946C13.7715 14.8907 13.9322 14.5035 14.2178 14.2179C14.5034 13.9323 14.8906 13.7716 15.2945 13.7712H44.7052C45.1091 13.7716 45.4963 13.9323 45.7819 14.2179C46.0675 14.5035 46.2282 14.8907 46.2286 15.2946V44.7054ZM58.5935 49.8253C58.5935 50.1887 58.4858 50.5439 58.284 50.846C58.0821 51.1482 57.7952 51.3836 57.4595 51.5227C57.1238 51.6618 56.7544 51.6982 56.398 51.6273C56.0416 51.5564 55.7143 51.3815 55.4573 51.1245C55.2004 50.8676 55.0254 50.5403 54.9545 50.1839C54.8836 49.8275 54.92 49.4581 55.0591 49.1224C55.1981 48.7867 55.4336 48.4998 55.7357 48.2979C56.0378 48.096 56.393 47.9883 56.7564 47.9883C57.2434 47.9889 57.7104 48.1826 58.0548 48.527C58.3992 48.8713 58.5929 49.3383 58.5935 49.8253ZM56.7564 28.1629C57.1197 28.1629 57.4749 28.2706 57.777 28.4725C58.0792 28.6743 58.3146 28.9613 58.4537 29.297C58.5927 29.6327 58.6291 30.0021 58.5582 30.3584C58.4873 30.7148 58.3124 31.0421 58.0554 31.2991C57.7985 31.556 57.4711 31.731 57.1148 31.8019C56.7584 31.8727 56.389 31.8364 56.0533 31.6973C55.7176 31.5583 55.4307 31.3228 55.2288 31.0207C55.027 30.7186 54.9192 30.3634 54.9192 30C54.9197 29.5129 55.1135 29.046 55.4579 28.7015C55.8023 28.3571 56.2693 28.1634 56.7564 28.1629ZM29.9998 16.8152C27.8694 16.8152 25.7921 17.4802 24.0578 18.7176C22.3236 19.9549 21.0188 21.7027 20.3257 23.7172C19.6326 25.7317 19.5856 27.9123 20.1914 29.9548C20.7972 31.9972 22.0255 33.7996 23.7049 35.1104C23.9684 35.3069 24.181 35.5636 24.325 35.859C24.4691 36.1544 24.5404 36.48 24.533 36.8086V39.0062C24.5335 39.3618 24.6483 39.7079 24.8605 39.9932C25.0726 40.2786 25.3709 40.4883 25.7113 40.5912C26.1215 41.3736 26.7379 42.0289 27.4938 42.4861C28.2497 42.9433 29.1163 43.185 29.9998 43.185C30.8832 43.185 31.7498 42.9433 32.5057 42.4861C33.2616 42.0289 33.8781 41.3736 34.2882 40.5912C34.6286 40.4883 34.9269 40.2786 35.1391 39.9932C35.3512 39.7079 35.4661 39.3618 35.4666 39.0062V36.8086C35.4592 36.48 35.5305 36.1545 35.6745 35.8591C35.8186 35.5637 36.0312 35.307 36.2946 35.1106C37.9741 33.7998 39.2024 31.9974 39.8082 29.9549C40.414 27.9124 40.3671 25.7318 39.674 23.7172C38.9808 21.7027 37.6761 19.9548 35.9418 18.7175C34.2075 17.4802 32.1302 16.8152 29.9998 16.8152ZM34.0603 37.9027V39.006C34.0595 39.0719 34.0329 39.1349 33.9863 39.1815C33.9396 39.2282 33.8766 39.2547 33.8107 39.2556H26.1888C26.1229 39.2547 26.0599 39.2282 26.0133 39.1815C25.9666 39.1349 25.9401 39.0719 25.9392 39.006V37.9027H34.0603ZM29.9998 27.2334C29.7387 27.2334 29.4834 27.156 29.2663 27.011C29.0493 26.8659 28.8801 26.6597 28.7801 26.4185C28.6802 26.1773 28.6541 25.9119 28.705 25.6558C28.756 25.3997 28.8817 25.1645 29.0663 24.9799C29.2509 24.7952 29.4861 24.6695 29.7422 24.6186C29.9983 24.5676 30.2637 24.5938 30.505 24.6937C30.7462 24.7936 30.9523 24.9628 31.0974 25.1799C31.2425 25.397 31.3199 25.6522 31.3199 25.9133C31.3195 26.2633 31.1803 26.5989 30.9328 26.8464C30.6853 27.0938 30.3498 27.233 29.9998 27.2334ZM29.9998 41.7785C29.523 41.7788 29.0515 41.6796 28.6152 41.4873C28.179 41.295 27.7876 41.0139 27.4662 40.6618H32.5334C32.2119 41.0139 31.8206 41.295 31.3843 41.4873C30.9481 41.6796 30.4765 41.7788 29.9998 41.7785ZM35.4287 34.0024C35.0406 34.2998 34.7194 34.6756 34.4861 35.1053C34.2528 35.5349 34.1125 36.0089 34.0745 36.4964H30.7029V28.5469C31.3422 28.3762 31.8976 27.9789 32.2656 27.4291C32.6336 26.8792 32.789 26.2142 32.703 25.5582C32.6169 24.9021 32.2952 24.2998 31.7979 23.8634C31.3005 23.427 30.6614 23.1864 29.9998 23.1864C29.3381 23.1864 28.699 23.427 28.2017 23.8634C27.7043 24.2998 27.3826 24.9021 27.2966 25.5582C27.2105 26.2142 27.366 26.8792 27.734 27.4291C28.1019 27.9789 28.6574 28.3762 29.2966 28.5469V36.496H25.925C25.887 36.0085 25.7468 35.5345 25.5134 35.1048C25.2801 34.6751 24.959 34.2993 24.5708 34.002C23.1222 32.8714 22.0626 31.3168 21.54 29.5551C21.0173 27.7934 21.0577 25.9125 21.6555 24.1748C22.2533 22.4372 23.3787 20.9295 24.8745 19.8622C26.3704 18.7949 28.1622 18.2212 29.9998 18.2212C31.8374 18.2212 33.6291 18.7949 35.125 19.8622C36.6209 20.9295 37.7462 22.4372 38.344 24.1748C38.9418 25.9125 38.9822 27.7934 38.4596 29.5551C37.937 31.3168 36.8774 32.8714 35.4287 34.002V34.0024Z" fill="url(#paint0_linear_398_359)"/>
</g>
<defs>
<linearGradient id="paint0_linear_398_359" x1="29.9998" y1="-0.0141602" x2="29.9998" y2="60.0142" gradientUnits="userSpaceOnUse">
<stop stop-color="#02CE80"/>
<stop offset="1" stop-color="#7BD706"/>
</linearGradient>
<clipPath id="clip0_398_359">
<rect width="60" height="60" fill="white"/>
</clipPath>
</defs>
</svg>
