<svg width="40" height="40" viewBox="0 0 40 40" fill="none" xmlns="http://www.w3.org/2000/svg">
<path fill-rule="evenodd" clip-rule="evenodd" d="M20.4329 0.111258C19.6941 0.37463 19.1944 1.07584 19.1913 1.85384C19.1903 2.10175 19.2291 2.40824 19.2775 2.53489C19.3654 2.76482 19.3606 2.77022 16.3264 5.80107L13.2873 8.83699L12.8769 8.63112C11.6687 8.025 10.2036 8.27439 9.22403 9.25295C8.24441 10.2314 7.99476 11.695 8.60145 12.9017L8.80747 13.3114L5.77344 16.343C3.22057 18.8938 2.71445 19.3652 2.58204 19.3165C2.49546 19.2846 2.15774 19.2585 1.83159 19.2585C1.30803 19.2585 1.19384 19.2862 0.856039 19.4949C0.619133 19.6413 0.383243 19.8771 0.236672 20.1139C0.0277655 20.4515 0 20.5657 0 21.0884C0 21.5971 0.0310505 21.7333 0.220325 22.0549C1.07785 23.5122 3.20062 23.2437 3.71597 21.6128C3.80443 21.3329 3.78918 20.8727 3.67553 20.3914C3.63471 20.2186 3.83391 19.9933 5.40325 18.4382C6.37888 17.4713 7.1492 16.7506 7.1151 16.8365C7.081 16.9225 6.86638 17.5377 6.63823 18.2038C5.89294 20.3794 5.6228 22.2169 5.69186 24.641C5.79166 28.1476 6.82712 31.4086 8.75655 34.2935L9.32547 35.144L8.8217 35.6392C8.22807 36.2227 8.0621 36.4996 8.13358 36.7873C8.19647 37.0404 10.9184 39.7973 11.2345 39.9281C11.3559 39.9784 11.535 39.9993 11.6327 39.9747C11.7303 39.95 12.4876 39.2496 13.3157 38.4182C14.6878 37.0406 14.8213 36.8826 14.8213 36.6369C14.8213 36.3906 14.6875 36.2337 13.2759 34.825C11.4287 32.9814 11.495 33.0093 10.7192 33.7534L10.2284 34.2242L9.7705 33.5386C8.49282 31.6255 7.57311 29.3169 7.14748 26.9542C6.91065 25.6397 6.85934 23.3402 7.03595 21.954C7.35021 19.4867 8.23487 16.9869 9.50911 14.9659L9.92012 14.3141L10.2785 14.4789C10.5694 14.6127 10.7918 14.6442 11.4582 14.6463C12.2193 14.6488 12.3173 14.6309 12.7974 14.4037C14.011 13.8293 14.6685 12.7883 14.6623 11.4509C14.6608 11.1112 14.6016 10.7334 14.5085 10.469C14.4253 10.2327 14.356 10.0179 14.3546 9.99182C14.3501 9.9072 15.2276 9.36046 16.1111 8.89739C19.9407 6.88995 24.5375 6.41172 28.7041 7.58732C30.3571 8.05375 32.1457 8.87239 33.5358 9.79884L34.2222 10.2562L33.7509 10.7465C33.0044 11.523 32.9769 11.4576 34.825 13.3019C36.2327 14.7069 36.3943 14.8442 36.6389 14.8442C36.883 14.8442 37.0446 14.7077 38.4206 13.3403C39.253 12.513 39.9541 11.7565 39.9788 11.659C40.0034 11.5614 39.9825 11.3825 39.9322 11.2613C39.8013 10.9455 37.0414 8.2265 36.788 8.16368C36.5 8.09227 36.2228 8.25806 35.6386 8.85106L35.1429 9.35429L34.2699 8.77082C32.6812 7.70913 30.5196 6.73892 28.737 6.28757C26.8349 5.80591 25.5769 5.66989 23.5237 5.72372C21.3125 5.78177 19.2302 6.1871 17.4408 6.90784C17.0606 7.06105 16.7392 7.17629 16.7268 7.16387C16.7145 7.15152 17.49 6.35711 18.4503 5.39855L20.1963 3.65573L20.6395 3.75487C21.885 4.03325 22.972 3.14836 22.9658 1.86087C22.9596 0.574328 21.6574 -0.325247 20.4329 0.111258ZM21.512 1.42828C21.9576 1.81118 21.6631 2.57802 21.0705 2.57802C20.738 2.57802 20.4527 2.27121 20.4527 1.91392C20.4527 1.33772 21.0748 1.05255 21.512 1.42828ZM12.0501 9.64641C13.4345 10.059 13.8851 11.861 12.86 12.885C12.4848 13.2598 12.0528 13.4343 11.4973 13.4354C10.6061 13.4372 9.8642 12.9006 9.61791 12.076C9.47282 11.5902 9.47384 11.4544 9.62659 10.9407C9.79576 10.3714 10.2688 9.87931 10.8339 9.68446C11.3563 9.50429 11.5526 9.49812 12.0501 9.64641ZM37.5816 10.5867L38.479 11.4856L37.5608 12.4027L36.6427 13.3199L35.7246 12.4027L34.8064 11.4856L35.7038 10.5867C36.1973 10.0922 36.6198 9.68774 36.6427 9.68774C36.6656 9.68774 37.0881 10.0922 37.5816 10.5867ZM15.9945 13.4137C15.8042 13.4812 13.4859 15.8037 13.4047 16.0083C13.3422 16.1658 13.8563 17.5098 16.6212 24.4165C18.4312 28.9379 19.9545 32.6936 20.0064 32.7626C20.0582 32.8315 21.6493 33.4807 23.5421 34.205L26.9834 35.5221L28.0784 37.6636C29.2227 39.9015 29.3544 40.0822 29.7654 39.9772C29.8755 39.9491 32.0694 37.8153 34.9807 34.9049C40.3292 29.558 40.1979 29.7086 39.8664 29.2996C39.7898 29.205 38.7806 28.6474 37.624 28.0604L35.521 26.9933L34.2027 23.5556C33.4777 21.6649 32.8279 20.0755 32.759 20.0237C32.6373 19.9324 16.2246 13.3535 16.1494 13.366C16.1287 13.3693 16.059 13.3908 15.9945 13.4137ZM24.1678 17.8888C28.3834 19.5745 31.8519 20.9846 31.8753 21.0225C31.8989 21.0604 32.4596 22.5007 33.1216 24.2232L34.325 27.355L30.8353 30.841L27.3455 34.327L24.2104 33.1248C22.486 32.4636 21.0442 31.9034 21.0062 31.8799C20.9684 31.8565 19.5389 28.3447 17.8296 24.0762L14.7219 16.3151L14.89 16.1473L15.0581 15.9794L19.0942 20.0112L23.1304 24.043L22.9297 24.3853C22.5153 25.0918 22.3708 26.2432 22.5926 27.0714C23.0826 28.9007 24.9034 30.0924 26.7304 29.7794C28.2895 29.5124 29.5052 28.2979 29.7726 26.7405C30.0858 24.916 28.8949 23.0943 27.072 22.6095C26.2312 22.3859 25.0831 22.5281 24.3727 22.9439L24.03 23.1444L19.9967 19.1154L15.9633 15.0863L16.1127 14.9214C16.1949 14.8307 16.3163 14.7717 16.3825 14.7902C16.4487 14.8087 19.9521 16.2031 24.1678 17.8888ZM2.3499 20.6613C2.73792 21.0488 2.463 21.7196 1.91621 21.7196C1.38859 21.7196 1.07762 20.9947 1.44694 20.6258C1.67172 20.4012 2.10674 20.4183 2.3499 20.6613ZM26.9722 23.8764C27.4759 24.0478 28.1281 24.6585 28.3594 25.1752C28.6055 25.7248 28.613 26.5947 28.3762 27.12C28.1443 27.6342 27.7041 28.0874 27.1939 28.3367C26.5986 28.6276 25.7733 28.6403 25.1634 28.3678C24.6461 28.1367 24.0348 27.4852 23.8632 26.9821C23.7205 26.5636 23.7004 25.8802 23.8184 25.4559C24.0052 24.7839 24.7479 24.0273 25.4086 23.836C25.8048 23.7213 26.575 23.7412 26.9722 23.8764ZM37.0338 29.2114C37.6575 29.5263 38.1934 29.8074 38.2247 29.8361C38.2559 29.8647 36.3832 31.7843 34.063 34.1017C31.7427 36.4191 29.8294 38.2991 29.811 38.2795C29.7926 38.2598 29.4362 37.5614 29.0191 36.7273L28.2606 35.2108L31.7193 31.7551L35.178 28.2995L35.5389 28.4692C35.7373 28.5626 36.41 28.8966 37.0338 29.2114ZM12.3971 37.5394L11.4582 38.4774L10.54 37.5602L9.62182 36.643L10.5583 35.705L11.4949 34.767L12.4155 35.6842L13.3361 36.6015L12.3971 37.5394Z" fill="#684DF4"/>
</svg>
