<svg width="60" height="60" viewBox="0 0 60 60" fill="none" xmlns="http://www.w3.org/2000/svg">
<path d="M29.5198 9.1202C31.4988 11.0992 34.4968 11.6449 37.0463 10.4907C39.6653 9.50445 41.3996 6.9987 41.3998 4.2002C41.3996 6.99895 43.1338 9.50495 45.7533 10.4907C48.3023 11.6457 51.3003 11.1007 53.2798 9.1227C51.3013 11.1007 50.7553 14.0979 51.9093 16.6467C52.8956 19.2657 55.4013 20.9999 58.1998 21.0002M7.7998 31.8002H12.5998M52.1998 24.6002H44.9998C41.0233 24.6002 37.7998 21.3767 37.7998 17.4002H23.3998C23.3998 21.3767 20.1763 24.6004 16.1998 24.6002H1.7998V55.8002H44.9998C48.9761 55.7999 52.1998 52.5764 52.1998 48.6002V24.6002ZM40.1998 39.0002C40.1998 31.6102 32.1998 26.9912 25.7998 30.6864C22.8296 32.4012 20.9998 35.5704 20.9998 39.0002C20.9998 46.3902 28.9998 51.0092 35.3998 47.3139C38.3701 45.5992 40.1998 42.4299 40.1998 39.0002Z" stroke="url(#paint0_linear_393_358)" stroke-width="2"/>
<defs>
<linearGradient id="paint0_linear_393_358" x1="29.9998" y1="4.2002" x2="29.9998" y2="55.8002" gradientUnits="userSpaceOnUse">
<stop stop-color="#02CE80"/>
<stop offset="1" stop-color="#7BD706"/>
</linearGradient>
</defs>
</svg>
