<svg width="44" height="44" viewBox="0 0 44 44" fill="none" xmlns="http://www.w3.org/2000/svg">
<path d="M8.07633 29.7344C8.07633 29.3972 8.34964 29.1239 8.68679 29.1239H23.4454C23.7826 29.1239 24.0559 29.3972 24.0559 29.7344C24.0559 30.0715 23.7826 30.3448 23.4454 30.3448H8.68679C8.34964 30.3448 8.07633 30.0715 8.07633 29.7344ZM8.68679 25.8191H19.4684C19.8055 25.8191 20.0788 25.5457 20.0788 25.2086C20.0788 24.8714 19.8055 24.5981 19.4684 24.5981H8.68679C8.34964 24.5981 8.07633 24.8714 8.07633 25.2086C8.07633 25.5457 8.34964 25.8191 8.68679 25.8191ZM33.6738 34.7359V41.9794C33.6738 42.7592 33.0395 43.3936 32.2597 43.3936H22.53C21.7502 43.3936 21.1158 42.7592 21.1158 41.9794V37.5562C19.496 37.9325 17.8013 38.1235 16.0661 38.1235C15.3468 38.1235 14.6238 38.0898 13.9136 38.0233L6.37376 43.2838C6.26885 43.357 6.14667 43.3936 6.02449 43.3936C5.9051 43.3936 5.7858 43.3588 5.68237 43.2887C5.47316 43.1471 5.37269 42.8912 5.42981 42.6451L6.94349 36.1244C2.87399 34.128 0.460938 30.9214 0.460938 27.4715C0.460938 25.1055 1.56325 22.8691 3.64867 21.0042C5.64382 19.22 8.3588 17.9324 11.5001 17.2808C11.8302 17.2125 12.1534 17.4245 12.2219 17.7545C12.2903 18.0847 12.0782 18.4078 11.7481 18.4763C8.85893 19.0756 6.27146 20.2966 4.46258 21.9142C2.64342 23.5411 1.68186 25.4627 1.68186 27.4715C1.68186 30.5554 4.00727 33.4548 7.90235 35.2271C8.16694 35.3474 8.30987 35.6377 8.24412 35.9208L6.97846 41.3731L13.4 36.8929C13.5202 36.809 13.6665 36.7714 13.8124 36.7863C14.5536 36.8633 15.3117 36.9024 16.0661 36.9024C17.8075 36.9024 19.5036 36.6995 21.1158 36.3003V34.7358C21.1158 33.9559 21.7502 33.3216 22.53 33.3216H27.3285C29.3433 31.6573 30.4503 29.5868 30.4503 27.4714C30.4503 25.2111 29.1979 23.0199 26.9238 21.3015C26.6549 21.0982 26.6016 20.7154 26.8048 20.4464C27.0081 20.1775 27.3908 20.1242 27.6599 20.3274C30.2466 22.2821 31.6713 24.8192 31.6713 27.4714C31.6713 29.5639 30.7761 31.5972 29.1221 33.3216H32.2596C33.0394 33.3216 33.6738 33.956 33.6738 34.7359ZM32.4529 34.7359C32.4529 34.6311 32.3644 34.5426 32.2597 34.5426H22.53C22.4253 34.5426 22.3367 34.6311 22.3367 34.7359V41.9794C22.3367 42.0841 22.4253 42.1726 22.53 42.1726H32.2597C32.3644 42.1726 32.4529 42.0841 32.4529 41.9794V34.7359ZM29.747 38.3575C29.747 38.5756 29.6307 38.7772 29.4418 38.8862L25.9583 40.8973C25.8639 40.9518 25.7584 40.9791 25.6531 40.9791C25.5478 40.9791 25.4423 40.9519 25.3479 40.8973C25.159 40.7883 25.0426 40.5868 25.0426 40.3686V36.3463C25.0426 36.1282 25.159 35.9267 25.3479 35.8177C25.5368 35.7086 25.7694 35.7086 25.9583 35.8177L29.4418 37.8289C29.6307 37.938 29.747 38.1394 29.747 38.3575ZM27.9156 38.3575L26.2636 37.4037V39.3113L27.9156 38.3575ZM39.5578 6.69293C39.6614 6.69293 39.7663 6.6666 39.8625 6.61104L42.2202 5.24989C42.5121 5.08132 42.6122 4.70798 42.4436 4.41601C42.2751 4.12403 41.9019 4.02401 41.6097 4.19258L39.252 5.55373C38.9601 5.7223 38.86 6.09564 39.0286 6.38762C39.1416 6.5834 39.3468 6.69293 39.5578 6.69293ZM35.6281 3.93872C35.7243 3.99427 35.8292 4.02061 35.9328 4.02061C36.1437 4.02061 36.349 3.91116 36.462 3.71529L37.8979 1.22828C38.0664 0.936304 37.9664 0.562965 37.6744 0.394391C37.3825 0.225817 37.0091 0.325845 36.8405 0.617819L35.4047 3.10483C35.2361 3.3968 35.3361 3.77014 35.6281 3.93872ZM39.4492 10.557C39.4492 10.8941 39.7225 11.1674 40.0597 11.1674H42.9314C43.2686 11.1674 43.5419 10.8941 43.5419 10.557C43.5419 10.2198 43.2686 9.94651 42.9314 9.94651H40.0597C39.7225 9.94651 39.4492 10.2198 39.4492 10.557ZM13.5862 17.2565C13.9108 16.0449 14.6841 15.0345 15.7638 14.4112L18.9568 12.5677C19.0969 12.4867 19.2637 12.4647 19.4201 12.5067C19.4818 12.5233 19.5397 12.5495 19.5925 12.5834C22.8739 10.1276 25.4614 7.28438 26.9437 4.50156L26.8875 4.40432C26.1958 3.20625 26.6078 1.66877 27.8058 0.976943C29.0041 0.285293 30.5415 0.697266 31.2332 1.89525L33.7242 6.2098C35.0474 5.5253 36.6938 5.99771 37.4462 7.30113C38.1986 8.60445 37.7846 10.2662 36.5303 11.0701L39.0214 15.3846C39.3555 15.9633 39.4436 16.6391 39.2698 17.288C39.0959 17.9367 38.6816 18.478 38.103 18.8121C37.7183 19.0342 37.2906 19.1477 36.8565 19.1477C36.6376 19.1477 36.4171 19.1188 36.1997 19.0606C35.551 18.8868 35.0097 18.4724 34.6757 17.8938L34.6195 17.7966C31.4961 17.6897 27.7775 18.4938 24.0428 20.08L28.4505 26.013C28.8904 26.6051 28.8132 27.4227 28.2709 27.9148L27.3013 28.7947C27.0386 29.0329 26.6961 29.1638 26.3447 29.1638C26.2996 29.1638 26.2543 29.1617 26.2091 29.1573C25.816 29.1194 25.4554 28.9167 25.2198 28.6012L20.6085 22.4308L20.4476 22.5237C19.7301 22.9379 18.932 23.1496 18.1218 23.1496C17.7129 23.1496 17.3011 23.0957 16.8948 22.9869C15.6832 22.6623 14.6728 21.8889 14.0495 20.8094C13.4261 19.7297 13.2617 18.468 13.5862 17.2565ZM27.4703 26.741L23.1697 20.952L21.6733 21.816L26.1978 27.8704C26.2372 27.9232 26.2895 27.9385 26.3263 27.9421C26.3594 27.9452 26.4232 27.9428 26.4808 27.8904L27.4504 27.0106C27.5266 26.9414 27.5351 26.8281 27.4703 26.741ZM34.3364 7.27008L35.9182 10.0099C36.5897 9.54447 36.8046 8.63166 36.3889 7.91158C35.9732 7.19159 35.0752 6.92125 34.3364 7.27008ZM27.9449 3.79386L35.7329 17.2833C35.9039 17.5794 36.1819 17.7918 36.5157 17.8812C36.8494 17.9705 37.1963 17.9257 37.4925 17.7547C37.7887 17.5838 38.001 17.3058 38.0905 16.972C38.1799 16.6383 38.135 16.2914 37.9641 15.9952L30.1759 2.50579C29.9376 2.09304 29.5037 1.86202 29.0582 1.86202C28.8399 1.86202 28.6187 1.91749 28.4164 2.03435C28.1202 2.20527 27.9079 2.48329 27.8185 2.81704C27.7291 3.15079 27.7739 3.4977 27.9449 3.79386ZM20.262 13.6073L23.3927 19.0301C27.0543 17.4527 30.7273 16.595 33.9099 16.5675L27.6532 5.73041C26.0382 8.47286 23.4588 11.2251 20.262 13.6073ZM15.1067 20.1988C15.5669 20.996 16.3141 21.5673 17.2106 21.8075C18.107 22.0477 19.0398 21.9265 19.837 21.4663L22.5014 19.928L19.0385 13.9302L16.3741 15.4685C15.577 15.9287 15.0057 16.6759 14.7655 17.5724C14.5252 18.4689 14.6465 19.4017 15.1067 20.1988ZM3.81 7.36958C3.81 5.32507 5.47333 3.66165 7.51793 3.66165C9.56253 3.66165 11.2259 5.32498 11.2259 7.36958C11.2259 9.4141 9.56253 11.0774 7.51793 11.0774C5.47333 11.0774 3.81 9.4141 3.81 7.36958ZM5.03092 7.36958C5.03092 8.74094 6.14658 9.85651 7.51793 9.85651C8.88928 9.85651 10.0049 8.74094 10.0049 7.36958C10.0049 5.99823 8.88928 4.88257 7.51793 4.88257C6.14658 4.88257 5.03092 5.99823 5.03092 7.36958ZM0.460938 8.01423V6.72494C0.460938 6.15477 0.924712 5.691 1.49479 5.691C1.99973 5.691 2.19891 5.30501 2.24784 5.18667C2.29685 5.06833 2.42906 4.65452 2.07194 4.29749C1.87668 4.10232 1.76906 3.8427 1.76906 3.56642C1.76906 3.29023 1.87659 3.03053 2.07194 2.83527L2.98353 1.92359C3.38661 1.52043 4.04259 1.52043 4.44575 1.92359C4.80287 2.28071 5.21668 2.1485 5.33493 2.09949C5.45327 2.05048 5.83926 1.85138 5.83926 1.34645C5.83926 0.776277 6.30303 0.312502 6.87311 0.312502H8.1624C8.73248 0.312502 9.19626 0.776277 9.19626 1.34645C9.19626 1.85138 9.58224 2.05048 9.70058 2.09949C9.81884 2.1485 10.2328 2.28054 10.5898 1.92359C10.9929 1.52043 11.6488 1.52043 12.052 1.92359L12.9637 2.83527C13.1589 3.03053 13.2664 3.29015 13.2664 3.56634C13.2664 3.84253 13.1589 4.10223 12.9636 4.29749C12.6065 4.65452 12.7388 5.06833 12.7878 5.18667C12.8368 5.30492 13.0359 5.691 13.5408 5.691C14.1109 5.691 14.5747 6.15477 14.5747 6.72494V8.01423C14.5747 8.58431 14.1109 9.04808 13.5408 9.04808C13.0359 9.04808 12.8367 9.43407 12.7878 9.55241C12.7388 9.67067 12.6065 10.0846 12.9637 10.4416C13.3668 10.8448 13.3668 11.5007 12.9637 11.9038L12.052 12.8155C11.8568 13.0107 11.5971 13.1184 11.3209 13.1184C11.0447 13.1184 10.785 13.0108 10.5898 12.8155C10.2327 12.4585 9.81901 12.5906 9.70058 12.6397C9.58233 12.6887 9.19626 12.8878 9.19626 13.3928C9.19626 13.9629 8.73248 14.4267 8.1624 14.4267H6.87329C6.30321 14.4267 5.83943 13.9629 5.83943 13.3928C5.83943 12.8867 5.45371 12.6876 5.33554 12.6387C5.2172 12.5897 4.80374 12.4577 4.44593 12.8156C4.25075 13.0108 3.99105 13.1185 3.71486 13.1185C3.43867 13.1185 3.17888 13.0109 2.9837 12.8156L2.07211 11.904C1.87685 11.7088 1.76924 11.4491 1.76924 11.1728C1.76924 10.8966 1.87677 10.6369 2.07211 10.4417C2.42914 10.0846 2.29694 9.67084 2.24793 9.55259C2.19891 9.43424 1.99982 9.04826 1.49488 9.04826C0.924712 9.04808 0.460938 8.58431 0.460938 8.01423ZM1.68186 7.83528C2.43978 7.90129 3.07867 8.36751 3.37588 9.08524C3.67317 9.80296 3.55108 10.5844 3.06175 11.1671L3.72044 11.8258C4.30352 11.3359 5.08516 11.2136 5.80263 11.5107C6.52018 11.8079 6.98622 12.4471 7.05215 13.2058H7.98354C8.04955 12.4479 8.51577 11.809 9.2335 11.5117C9.95113 11.2146 10.7326 11.3365 11.3153 11.8258L11.974 11.1671C11.4847 10.5844 11.3627 9.80296 11.6599 9.08524C11.9572 8.3676 12.596 7.90129 13.3539 7.83528V6.90389C12.596 6.83787 11.9571 6.37166 11.6599 5.65393C11.3627 4.93621 11.4847 4.15482 11.9739 3.57209L11.3152 2.91341C10.7324 3.40265 9.95105 3.52465 9.23341 3.22744C8.51577 2.93015 8.04955 2.29135 7.98354 1.53342H7.05215C6.98613 2.29135 6.51992 2.93024 5.80228 3.22744C5.08455 3.52474 4.30308 3.40265 3.72044 2.91332L3.06175 3.572C3.55099 4.15482 3.67309 4.93621 3.37579 5.65384C3.07867 6.37166 2.43978 6.83787 1.68186 6.90389V7.83528ZM43.4939 24.0656C43.2785 25.8733 42.4092 27.593 41.9102 28.4571C41.4112 29.3213 40.3567 30.9338 38.899 32.0243C37.9539 32.7313 37.0022 33.0869 36.0801 33.0869C35.4361 33.0869 34.8065 32.9135 34.2034 32.5653L33.9842 32.4387C33.623 32.2302 33.3646 31.8929 33.2563 31.4889C33.1481 31.085 33.2033 30.6637 33.4118 30.3025L34.2883 28.7843C34.7194 28.0375 35.6777 27.7808 36.4245 28.2119L36.9387 28.5087C37.0844 28.593 37.2569 28.5645 37.368 28.4379C37.8474 27.8913 38.2889 27.2704 38.6804 26.5923C39.0719 25.9143 39.3889 25.2213 39.6225 24.533C39.6766 24.3736 39.615 24.2099 39.4693 24.1257L38.9551 23.829C38.5939 23.6204 38.3355 23.2831 38.2272 22.8792C38.1189 22.4752 38.1741 22.0538 38.3827 21.6927L39.2592 20.1745C39.6902 19.4278 40.6485 19.1711 41.3954 19.602L41.6147 19.7287C43.0814 20.5755 43.7312 22.0751 43.4939 24.0656ZM41.0042 20.786L40.785 20.6594C40.6213 20.5648 40.411 20.6212 40.3166 20.7849L39.4401 22.3031C39.3946 22.3818 39.3827 22.4741 39.4066 22.563C39.4304 22.652 39.4869 22.726 39.5656 22.7715L40.0798 23.0682C40.7341 23.4461 41.0216 24.2097 40.7787 24.9253C40.5194 25.6892 40.1692 26.4554 39.7378 27.2027C39.3065 27.9498 38.8179 28.6362 38.2859 29.2429C37.7876 29.8112 36.9827 29.9439 36.3283 29.5661L35.8141 29.2694C35.7603 29.2383 35.7014 29.2235 35.6433 29.2235C35.5247 29.2235 35.4091 29.285 35.3456 29.3949L34.4691 30.9131C34.4237 30.9918 34.4117 31.0841 34.4356 31.173C34.4594 31.262 34.5159 31.336 34.5947 31.3815L34.8139 31.5081C35.8535 32.1083 36.9505 31.9573 38.1677 31.0467C39.4987 30.051 40.4889 28.4772 40.853 27.8466C41.217 27.2162 42.0849 25.5716 42.2817 23.9211C42.4616 22.4116 42.0438 21.3862 41.0042 20.786Z" fill="#3E66F3"/>
</svg>
