<svg width="40" height="40" viewBox="0 0 40 40" fill="none" xmlns="http://www.w3.org/2000/svg">
<g clip-path="url(#clip0_71_392)">
<path d="M17.3279 10.9008C17.0996 10.5196 16.6753 10.3008 16.2323 10.3344L6.7093 11.0701C5.74516 11.1446 4.88634 11.6499 4.35291 12.4566L0.356456 18.5013C-0.0479937 19.1131 -0.112368 19.8786 0.184348 20.5492C0.480986 21.2198 1.09075 21.6871 1.81535 21.7994L9.53717 22.9954C9.59724 23.0047 9.65724 23.0093 9.71677 23.0093C10.1123 23.0092 10.4865 22.8086 10.704 22.4685L17.3099 12.134C17.5492 11.7595 17.5561 11.282 17.3279 10.9008Z" fill="#3E66F3"/>
<path d="M29.0996 22.6719C28.7184 22.4436 28.2408 22.4505 27.8664 22.6898L17.532 29.2958C17.1407 29.5459 16.934 30.0036 17.005 30.4626L18.201 38.1844C18.3132 38.9091 18.7806 39.5188 19.4513 39.8155C19.7302 39.9388 20.0255 39.9997 20.3194 39.9997C20.732 39.9997 21.1419 39.8795 21.4991 39.6434L27.5439 35.6468C28.3506 35.1136 28.856 34.2547 28.9303 33.2904L29.666 23.7675C29.7002 23.3245 29.4809 22.9002 29.0996 22.6719Z" fill="#3E66F3"/>
<path d="M15.0676 32.209C15.534 32.6754 16.1967 32.8936 16.8473 32.7848C26.3872 31.1896 33.9363 23.2909 36.8102 17.7345C40.0016 11.5647 40.1198 5.04475 39.953 1.98696C39.8958 0.939155 39.0605 0.103927 38.0127 0.0467399C34.955 -0.119978 28.4351 -0.00177531 22.2652 3.18953C16.7088 6.06349 8.81015 13.6126 7.21501 23.1525C7.10626 23.803 7.32438 24.4658 7.79078 24.9322L15.0676 32.209Z" fill="white"/>
<path d="M39.3549 0.645508L11.4297 28.5707L15.0681 32.2091C15.5345 32.6755 16.1972 32.8936 16.8478 32.7849C26.3877 31.1897 33.9368 23.291 36.8107 17.7347C40.002 11.5649 40.1202 5.04493 39.9534 1.98714C39.9249 1.46324 39.7017 0.992458 39.3549 0.645508Z" fill="#D7D6FB"/>
<path d="M27.4004 18.4559C25.8997 18.4559 24.3997 17.8848 23.2573 16.7424C22.1505 15.6358 21.541 14.1643 21.541 12.5993C21.541 11.0342 22.1505 9.56272 23.2573 8.45609C25.5417 6.17158 29.2589 6.1715 31.5435 8.45609C32.6502 9.56272 33.2597 11.0342 33.2597 12.5993C33.2597 14.1643 32.6502 15.6358 31.5435 16.7424C30.4014 17.8846 28.9006 18.4557 27.4004 18.4559Z" fill="#1C1C25"/>
<path d="M7.21501 23.1527C7.10626 23.8032 7.32438 24.4659 7.79078 24.9323L15.0676 32.2092C15.534 32.6756 16.1967 32.8937 16.8473 32.7849C18.9231 32.4378 20.9045 31.7921 22.7642 30.9371L9.06281 17.2358C8.20789 19.0954 7.56212 21.0769 7.21501 23.1527Z" fill="#1C1C25"/>
<path d="M1.19527 32.9637C1.49512 32.9637 1.79512 32.8493 2.02387 32.6205L5.84988 28.7945C6.30754 28.3369 6.30754 27.5948 5.84988 27.1372C5.39231 26.6795 4.65035 26.6795 4.19262 27.1372L0.36668 30.9632C-0.0909766 31.4208 -0.0909766 32.1628 0.36668 32.6205C0.595508 32.8494 0.895352 32.9637 1.19527 32.9637Z" fill="#FDB43A"/>
<path d="M9.35629 30.6435C8.89871 30.1859 8.15668 30.1859 7.69902 30.6435L0.343242 37.9993C-0.114414 38.4568 -0.114414 39.1989 0.343242 39.6565C0.57207 39.8854 0.871992 39.9997 1.17191 39.9997C1.47184 39.9997 1.77176 39.8853 2.00051 39.6564L9.35629 32.3007C9.81394 31.8431 9.81394 31.1011 9.35629 30.6435Z" fill="#FDB43A"/>
<path d="M12.8626 34.1498C12.405 33.6922 11.663 33.6922 11.2053 34.1498L7.37937 37.9758C6.92172 38.4333 6.92172 39.1754 7.37937 39.633C7.6082 39.8619 7.90813 39.9763 8.20797 39.9763C8.50781 39.9763 8.80781 39.8619 9.03656 39.633L12.8626 35.807C13.3202 35.3494 13.3202 34.6074 12.8626 34.1498Z" fill="#F57A21"/>
<path d="M0.34375 39.6567C0.572578 39.8855 0.8725 39.9999 1.17242 39.9999C1.47234 39.9999 1.77227 39.8854 2.00102 39.6566L9.3568 32.3008C9.81445 31.8432 9.81445 31.1012 9.3568 30.6436L0.34375 39.6567Z" fill="#F57A21"/>
<path d="M11.4297 28.5707L15.0681 32.2091C15.5345 32.6755 16.1972 32.8936 16.8478 32.7849C18.9236 32.4378 20.905 31.792 22.7647 30.9371L15.914 24.0864L11.4297 28.5707Z" fill="#1C1C25"/>
<path d="M23.2578 16.7424C24.4002 17.8848 25.9003 18.456 27.401 18.4558C28.9012 18.4557 30.402 17.8845 31.5441 16.7424C32.6508 15.6357 33.2602 14.1643 33.2602 12.5992C33.2602 11.0342 32.6508 9.56269 31.5441 8.45605L23.2578 16.7424Z" fill="#1C1C25"/>
<path d="M27.4004 9.08545C26.5002 9.08545 25.5998 9.42811 24.9145 10.1135C24.2505 10.7775 23.8848 11.6603 23.8848 12.5994C23.8848 13.5384 24.2505 14.4212 24.9145 15.0852C26.2852 16.4559 28.5157 16.456 29.8864 15.0852C30.5504 14.4212 30.9161 13.5383 30.9161 12.5993C30.9161 11.6602 30.5504 10.7774 29.8864 10.1134C29.201 9.42811 28.3008 9.08545 27.4004 9.08545Z" fill="#6D8EFF"/>
<path d="M29.8868 10.1133L24.915 15.0851C26.2857 16.4558 28.5162 16.4559 29.8868 15.0851C30.5508 14.421 30.9165 13.5382 30.9165 12.5991C30.9165 11.6601 30.5509 10.7773 29.8868 10.1133Z" fill="#3E66F3"/>
</g>
<defs>
<clipPath id="clip0_71_392">
<rect width="40" height="40" fill="white"/>
</clipPath>
</defs>
</svg>
