<svg width="40" height="40" viewBox="0 0 40 40" fill="none" xmlns="http://www.w3.org/2000/svg">
<path d="M31.25 2.1875H8.75C7.01002 2.18915 5.34179 2.88109 4.11144 4.11144C2.88109 5.34179 2.18915 7.01002 2.1875 8.75V31.25C2.18915 32.99 2.88109 34.6582 4.11144 35.8886C5.34179 37.1189 7.01002 37.8108 8.75 37.8125H31.25C32.99 37.8108 34.6582 37.1189 35.8886 35.8886C37.1189 34.6582 37.8108 32.99 37.8125 31.25V8.75C37.8108 7.01002 37.1189 5.34179 35.8886 4.11144C34.6582 2.88109 32.99 2.18915 31.25 2.1875ZM6.25 12.8937C6.21849 12.864 6.19338 12.8282 6.17618 12.7884C6.15899 12.7487 6.15008 12.7058 6.15 12.6625C6.15128 12.5734 6.18713 12.4882 6.25 12.425L13.2125 6.175C13.2585 6.13593 13.3147 6.11073 13.3745 6.10234C13.4342 6.09394 13.4952 6.10269 13.5502 6.12757C13.6052 6.15245 13.652 6.19244 13.6851 6.24288C13.7183 6.29332 13.7365 6.35214 13.7375 6.4125V9.65625C19.1687 9.6125 23.6313 14.9625 23.6313 21.5312C23.6301 22.1245 23.5946 22.7171 23.525 23.3063C23.5165 23.3783 23.4831 23.4452 23.4307 23.4954C23.3782 23.5456 23.3099 23.5759 23.2375 23.5812C23.1691 23.5809 23.1027 23.558 23.0485 23.5163C22.9943 23.4745 22.9553 23.4161 22.9375 23.35C21.6375 18.75 18.125 15.625 14.1313 15.625H13.7125V18.8563C13.7119 18.9171 13.694 18.9764 13.6608 19.0274C13.6275 19.0783 13.5804 19.1187 13.525 19.1437C13.4692 19.1674 13.4078 19.1747 13.3481 19.1647C13.2883 19.1548 13.2326 19.128 13.1875 19.0875L6.25 12.8937ZM31.3313 31.0188C31.3313 31.1016 31.2983 31.1811 31.2397 31.2397C31.1811 31.2983 31.1016 31.3313 31.0188 31.3313H9.46875C9.38587 31.3313 9.30638 31.2983 9.24778 31.2397C9.18917 31.1811 9.15625 31.1016 9.15625 31.0188V22.2C9.15625 22.1171 9.18917 22.0376 9.24778 21.979C9.30638 21.9204 9.38587 21.8875 9.46875 21.8875H11.2875C11.3699 21.8891 11.4484 21.9225 11.5067 21.9808C11.565 22.0391 11.5984 22.1176 11.6 22.2V28.8625H28.8625V11.6H23.6812C23.5984 11.6 23.5189 11.5671 23.4603 11.5085C23.4017 11.4499 23.3687 11.3704 23.3687 11.2875V9.46875C23.3687 9.38587 23.4017 9.30638 23.4603 9.24778C23.5189 9.18917 23.5984 9.15625 23.6812 9.15625H30.9937C31.0766 9.15625 31.1561 9.18917 31.2147 9.24778C31.2733 9.30638 31.3062 9.38587 31.3062 9.46875L31.3313 31.0188Z" fill="#3E66F3"/>
</svg>
