<svg width="40" height="40" viewBox="0 0 40 40" fill="none" xmlns="http://www.w3.org/2000/svg">
<path d="M5.9375 2.8125H34.0625C35.7937 2.8125 37.1875 4.20625 37.1875 5.9375V34.0625C37.1875 35.7938 35.7937 37.1875 34.0625 37.1875H5.9375C4.20625 37.1875 2.8125 35.7938 2.8125 34.0625V5.9375C2.8125 4.20625 4.20625 2.8125 5.9375 2.8125Z" fill="#A8D0FF"/>
<path d="M5.9473 2.81689C4.21333 2.81689 2.81738 4.21284 2.81738 5.94682V8.76374H37.2465V5.94682C37.2465 4.21284 35.8506 2.81689 34.1166 2.81689H5.9473Z" fill="#3E66F3"/>
<path d="M7.26562 13.1689H32.7344C33.6 13.1689 34.2969 13.8658 34.2969 14.7314V19.4531C34.2969 20.3187 33.6 21.0155 32.7344 21.0155H7.26562C6.4 21.0155 5.70312 20.3187 5.70312 19.4531V14.7314C5.70312 13.8658 6.4 13.1689 7.26562 13.1689Z" fill="white"/>
<path d="M7.26562 24.1064H16.5625C17.4281 24.1064 18.125 24.8033 18.125 25.6689V30.3905C18.125 31.2562 17.4281 31.953 16.5625 31.953H7.26562C6.4 31.953 5.70312 31.2562 5.70312 30.3905V25.6689C5.70312 24.8033 6.4 24.1064 7.26562 24.1064Z" fill="#0066FF"/>
<path d="M23.4375 24.1064H32.7344C33.6 24.1064 34.2969 24.8033 34.2969 25.6689V30.3905C34.2969 31.2562 33.6 31.953 32.7344 31.953H23.4375C22.5719 31.953 21.875 31.2562 21.875 30.3905V25.6689C21.875 24.8033 22.5719 24.1064 23.4375 24.1064Z" fill="#3E66F3"/>
</svg>
