<svg width="40" height="40" viewBox="0 0 40 40" fill="none" xmlns="http://www.w3.org/2000/svg">
<g clip-path="url(#clip0_71_417)">
<path d="M24.3395 6.0793H23.0407V0H8.69813C7.6082 0 6.72461 0.883594 6.72461 1.97352V5.59633C6.72461 5.86305 6.94078 6.07922 7.2075 6.07922H8.02336C9.15602 6.07922 10.1135 6.96727 10.1445 8.09953C10.1767 9.2743 9.23406 10.2367 8.06656 10.2367H7.2075C6.94078 10.2367 6.72461 10.4529 6.72461 10.7196V15.8331C6.72461 16.0998 6.94078 16.316 7.2075 16.316H12.3193C12.586 16.316 12.8022 16.0998 12.8022 15.8331V14.1846C12.8022 13.0366 13.7329 12.1059 14.8809 12.1059C16.029 12.1059 16.9597 13.0366 16.9597 14.1846V15.8331C16.9597 16.0998 17.1759 16.316 17.4426 16.316H23.0405V10.2367H24.3826C25.5501 10.2367 26.4927 9.27422 26.4605 8.09953C26.4296 6.96734 25.4722 6.0793 24.3395 6.0793Z" fill="#98BCE5"/>
<path d="M15.3451 29.763H16.4768C16.7435 29.763 16.9596 29.5468 16.9596 29.2801V24.1667C16.9596 23.9 16.7435 23.6838 16.4768 23.6838H10.8788V21.5524C10.8788 20.3919 9.92551 19.4474 8.75137 19.4742C7.61527 19.5 6.72129 20.4591 6.72129 21.5955V23.6839H1.12645C0.859727 23.6839 0.643555 23.9 0.643555 24.1668V29.2802C0.643555 29.5469 0.859727 29.7631 1.12645 29.7631H2.25809C3.39082 29.7631 4.34824 30.6511 4.37934 31.7834C4.4116 32.9582 3.46887 33.9207 2.30137 33.9207H1.12645C0.859727 33.9207 0.643555 34.1368 0.643555 34.4036V38.0264C0.643477 39.1162 1.52707 39.9998 2.61707 39.9998H16.4768C16.7435 39.9998 16.9596 39.7836 16.9596 39.5169V34.4034C16.9596 34.1367 16.7435 33.9205 16.4768 33.9205H15.3019C14.1345 33.9205 13.1918 32.9582 13.2239 31.7834C13.2548 30.6511 14.2124 29.763 15.3451 29.763Z" fill="#3E66F3"/>
<path d="M36.2559 0C35.7562 0 23.9647 0 23.0401 0V6.0793H24.3389C25.4715 6.0793 26.429 6.96734 26.46 8.09961C26.4922 9.27437 25.5496 10.2368 24.3821 10.2368H23.04V16.3161H29.1193V17.9739C29.1193 19.122 30.05 20.0527 31.198 20.0527C32.3461 20.0527 33.2768 19.122 33.2768 17.9739V16.3161H38.2293V1.97352C38.2294 0.883594 37.3458 0 36.2559 0Z" fill="#0078C8"/>
<path d="M33.277 16.3159V17.9737C33.277 19.1218 32.3463 20.0525 31.1983 20.0525C30.0502 20.0525 29.1195 19.1218 29.1195 17.9737V16.3159H23.0403V22.3951H21.4258C20.293 22.3951 19.3356 23.2832 19.3045 24.4155C19.2723 25.5903 20.215 26.5527 21.3825 26.5527H23.0402V32.1491C23.0402 32.4158 23.2564 32.632 23.5231 32.632H36.256C37.3459 32.632 38.2295 31.7484 38.2295 30.6585V16.3159C33.8916 16.3159 40.9533 16.3159 33.277 16.3159Z" fill="#2ABCC8"/>
<path d="M37.4247 16.3159V30.6584C37.4247 31.7483 36.5411 32.6319 35.4512 32.6319H37.3827C38.4727 32.6319 39.3562 31.7483 39.3562 30.6584V16.3159H37.4247Z" fill="#0CACBA"/>
<path d="M37.3827 0H35.4512C36.5411 0 37.4247 0.883594 37.4247 1.97352V16.3161H39.3562V1.97352C39.3563 0.883594 38.4727 0 37.3827 0Z" fill="#0268B4"/>
</g>
<defs>
<clipPath id="clip0_71_417">
<rect width="40" height="40" fill="white"/>
</clipPath>
</defs>
</svg>
